%TF.GenerationSoftware,KiCad,Pcbnew,7.0.1*%
%TF.CreationDate,2023-03-21T16:33:25+01:00*%
%TF.ProjectId,Laserdinges,4c617365-7264-4696-9e67-65732e6b6963,rev?*%
%TF.SameCoordinates,Original*%
%TF.FileFunction,Legend,Top*%
%TF.FilePolarity,Positive*%
%FSLAX46Y46*%
G04 Gerber Fmt 4.6, Leading zero omitted, Abs format (unit mm)*
G04 Created by KiCad (PCBNEW 7.0.1) date 2023-03-21 16:33:25*
%MOMM*%
%LPD*%
G01*
G04 APERTURE LIST*
%ADD10C,0.150000*%
%ADD11C,0.120000*%
G04 APERTURE END LIST*
D10*
X131775209Y-91709219D02*
X131775209Y-92423504D01*
X131775209Y-92423504D02*
X131727590Y-92566361D01*
X131727590Y-92566361D02*
X131632352Y-92661600D01*
X131632352Y-92661600D02*
X131489495Y-92709219D01*
X131489495Y-92709219D02*
X131394257Y-92709219D01*
X132394257Y-92709219D02*
X132299019Y-92661600D01*
X132299019Y-92661600D02*
X132251400Y-92613980D01*
X132251400Y-92613980D02*
X132203781Y-92518742D01*
X132203781Y-92518742D02*
X132203781Y-92233028D01*
X132203781Y-92233028D02*
X132251400Y-92137790D01*
X132251400Y-92137790D02*
X132299019Y-92090171D01*
X132299019Y-92090171D02*
X132394257Y-92042552D01*
X132394257Y-92042552D02*
X132537114Y-92042552D01*
X132537114Y-92042552D02*
X132632352Y-92090171D01*
X132632352Y-92090171D02*
X132679971Y-92137790D01*
X132679971Y-92137790D02*
X132727590Y-92233028D01*
X132727590Y-92233028D02*
X132727590Y-92518742D01*
X132727590Y-92518742D02*
X132679971Y-92613980D01*
X132679971Y-92613980D02*
X132632352Y-92661600D01*
X132632352Y-92661600D02*
X132537114Y-92709219D01*
X132537114Y-92709219D02*
X132394257Y-92709219D01*
X133060924Y-92042552D02*
X133299019Y-92709219D01*
X133537114Y-92042552D02*
X133299019Y-92709219D01*
X133299019Y-92709219D02*
X133203781Y-92947314D01*
X133203781Y-92947314D02*
X133156162Y-92994933D01*
X133156162Y-92994933D02*
X133060924Y-93042552D01*
X133870448Y-92661600D02*
X133965686Y-92709219D01*
X133965686Y-92709219D02*
X134156162Y-92709219D01*
X134156162Y-92709219D02*
X134251400Y-92661600D01*
X134251400Y-92661600D02*
X134299019Y-92566361D01*
X134299019Y-92566361D02*
X134299019Y-92518742D01*
X134299019Y-92518742D02*
X134251400Y-92423504D01*
X134251400Y-92423504D02*
X134156162Y-92375885D01*
X134156162Y-92375885D02*
X134013305Y-92375885D01*
X134013305Y-92375885D02*
X133918067Y-92328266D01*
X133918067Y-92328266D02*
X133870448Y-92233028D01*
X133870448Y-92233028D02*
X133870448Y-92185409D01*
X133870448Y-92185409D02*
X133918067Y-92090171D01*
X133918067Y-92090171D02*
X134013305Y-92042552D01*
X134013305Y-92042552D02*
X134156162Y-92042552D01*
X134156162Y-92042552D02*
X134251400Y-92090171D01*
X134584734Y-92042552D02*
X134965686Y-92042552D01*
X134727591Y-91709219D02*
X134727591Y-92566361D01*
X134727591Y-92566361D02*
X134775210Y-92661600D01*
X134775210Y-92661600D02*
X134870448Y-92709219D01*
X134870448Y-92709219D02*
X134965686Y-92709219D01*
X135299020Y-92709219D02*
X135299020Y-92042552D01*
X135299020Y-91709219D02*
X135251401Y-91756838D01*
X135251401Y-91756838D02*
X135299020Y-91804457D01*
X135299020Y-91804457D02*
X135346639Y-91756838D01*
X135346639Y-91756838D02*
X135299020Y-91709219D01*
X135299020Y-91709219D02*
X135299020Y-91804457D01*
X136203781Y-92661600D02*
X136108543Y-92709219D01*
X136108543Y-92709219D02*
X135918067Y-92709219D01*
X135918067Y-92709219D02*
X135822829Y-92661600D01*
X135822829Y-92661600D02*
X135775210Y-92613980D01*
X135775210Y-92613980D02*
X135727591Y-92518742D01*
X135727591Y-92518742D02*
X135727591Y-92233028D01*
X135727591Y-92233028D02*
X135775210Y-92137790D01*
X135775210Y-92137790D02*
X135822829Y-92090171D01*
X135822829Y-92090171D02*
X135918067Y-92042552D01*
X135918067Y-92042552D02*
X136108543Y-92042552D01*
X136108543Y-92042552D02*
X136203781Y-92090171D01*
X136632353Y-92709219D02*
X136632353Y-91709219D01*
X136727591Y-92328266D02*
X137013305Y-92709219D01*
X137013305Y-92042552D02*
X136632353Y-92423504D01*
X97601019Y-102813847D02*
X97553400Y-102909085D01*
X97553400Y-102909085D02*
X97458161Y-102956704D01*
X97458161Y-102956704D02*
X96601019Y-102956704D01*
X97601019Y-102004323D02*
X97077209Y-102004323D01*
X97077209Y-102004323D02*
X96981971Y-102051942D01*
X96981971Y-102051942D02*
X96934352Y-102147180D01*
X96934352Y-102147180D02*
X96934352Y-102337656D01*
X96934352Y-102337656D02*
X96981971Y-102432894D01*
X97553400Y-102004323D02*
X97601019Y-102099561D01*
X97601019Y-102099561D02*
X97601019Y-102337656D01*
X97601019Y-102337656D02*
X97553400Y-102432894D01*
X97553400Y-102432894D02*
X97458161Y-102480513D01*
X97458161Y-102480513D02*
X97362923Y-102480513D01*
X97362923Y-102480513D02*
X97267685Y-102432894D01*
X97267685Y-102432894D02*
X97220066Y-102337656D01*
X97220066Y-102337656D02*
X97220066Y-102099561D01*
X97220066Y-102099561D02*
X97172447Y-102004323D01*
X97553400Y-101575751D02*
X97601019Y-101480513D01*
X97601019Y-101480513D02*
X97601019Y-101290037D01*
X97601019Y-101290037D02*
X97553400Y-101194799D01*
X97553400Y-101194799D02*
X97458161Y-101147180D01*
X97458161Y-101147180D02*
X97410542Y-101147180D01*
X97410542Y-101147180D02*
X97315304Y-101194799D01*
X97315304Y-101194799D02*
X97267685Y-101290037D01*
X97267685Y-101290037D02*
X97267685Y-101432894D01*
X97267685Y-101432894D02*
X97220066Y-101528132D01*
X97220066Y-101528132D02*
X97124828Y-101575751D01*
X97124828Y-101575751D02*
X97077209Y-101575751D01*
X97077209Y-101575751D02*
X96981971Y-101528132D01*
X96981971Y-101528132D02*
X96934352Y-101432894D01*
X96934352Y-101432894D02*
X96934352Y-101290037D01*
X96934352Y-101290037D02*
X96981971Y-101194799D01*
X97553400Y-100337656D02*
X97601019Y-100432894D01*
X97601019Y-100432894D02*
X97601019Y-100623370D01*
X97601019Y-100623370D02*
X97553400Y-100718608D01*
X97553400Y-100718608D02*
X97458161Y-100766227D01*
X97458161Y-100766227D02*
X97077209Y-100766227D01*
X97077209Y-100766227D02*
X96981971Y-100718608D01*
X96981971Y-100718608D02*
X96934352Y-100623370D01*
X96934352Y-100623370D02*
X96934352Y-100432894D01*
X96934352Y-100432894D02*
X96981971Y-100337656D01*
X96981971Y-100337656D02*
X97077209Y-100290037D01*
X97077209Y-100290037D02*
X97172447Y-100290037D01*
X97172447Y-100290037D02*
X97267685Y-100766227D01*
X97601019Y-99861465D02*
X96934352Y-99861465D01*
X97124828Y-99861465D02*
X97029590Y-99813846D01*
X97029590Y-99813846D02*
X96981971Y-99766227D01*
X96981971Y-99766227D02*
X96934352Y-99670989D01*
X96934352Y-99670989D02*
X96934352Y-99575751D01*
X104771876Y-96827200D02*
X104867114Y-96874819D01*
X104867114Y-96874819D02*
X105057590Y-96874819D01*
X105057590Y-96874819D02*
X105152828Y-96827200D01*
X105152828Y-96827200D02*
X105200447Y-96731961D01*
X105200447Y-96731961D02*
X105200447Y-96684342D01*
X105200447Y-96684342D02*
X105152828Y-96589104D01*
X105152828Y-96589104D02*
X105057590Y-96541485D01*
X105057590Y-96541485D02*
X104914733Y-96541485D01*
X104914733Y-96541485D02*
X104819495Y-96493866D01*
X104819495Y-96493866D02*
X104771876Y-96398628D01*
X104771876Y-96398628D02*
X104771876Y-96351009D01*
X104771876Y-96351009D02*
X104819495Y-96255771D01*
X104819495Y-96255771D02*
X104914733Y-96208152D01*
X104914733Y-96208152D02*
X105057590Y-96208152D01*
X105057590Y-96208152D02*
X105152828Y-96255771D01*
X105533781Y-96208152D02*
X105724257Y-96874819D01*
X105724257Y-96874819D02*
X105914733Y-96398628D01*
X105914733Y-96398628D02*
X106105209Y-96874819D01*
X106105209Y-96874819D02*
X106295685Y-96208152D01*
X107152828Y-96874819D02*
X106676638Y-96874819D01*
X106676638Y-96874819D02*
X106676638Y-95874819D01*
X117925895Y-97255819D02*
X117925895Y-96255819D01*
X117925895Y-96255819D02*
X118259228Y-96970104D01*
X118259228Y-96970104D02*
X118592561Y-96255819D01*
X118592561Y-96255819D02*
X118592561Y-97255819D01*
X118973514Y-96255819D02*
X119592561Y-96255819D01*
X119592561Y-96255819D02*
X119259228Y-96636771D01*
X119259228Y-96636771D02*
X119402085Y-96636771D01*
X119402085Y-96636771D02*
X119497323Y-96684390D01*
X119497323Y-96684390D02*
X119544942Y-96732009D01*
X119544942Y-96732009D02*
X119592561Y-96827247D01*
X119592561Y-96827247D02*
X119592561Y-97065342D01*
X119592561Y-97065342D02*
X119544942Y-97160580D01*
X119544942Y-97160580D02*
X119497323Y-97208200D01*
X119497323Y-97208200D02*
X119402085Y-97255819D01*
X119402085Y-97255819D02*
X119116371Y-97255819D01*
X119116371Y-97255819D02*
X119021133Y-97208200D01*
X119021133Y-97208200D02*
X118973514Y-97160580D01*
X113480895Y-97154219D02*
X113480895Y-96154219D01*
X113480895Y-96154219D02*
X113814228Y-96868504D01*
X113814228Y-96868504D02*
X114147561Y-96154219D01*
X114147561Y-96154219D02*
X114147561Y-97154219D01*
X114576133Y-96249457D02*
X114623752Y-96201838D01*
X114623752Y-96201838D02*
X114718990Y-96154219D01*
X114718990Y-96154219D02*
X114957085Y-96154219D01*
X114957085Y-96154219D02*
X115052323Y-96201838D01*
X115052323Y-96201838D02*
X115099942Y-96249457D01*
X115099942Y-96249457D02*
X115147561Y-96344695D01*
X115147561Y-96344695D02*
X115147561Y-96439933D01*
X115147561Y-96439933D02*
X115099942Y-96582790D01*
X115099942Y-96582790D02*
X114528514Y-97154219D01*
X114528514Y-97154219D02*
X115147561Y-97154219D01*
X109442295Y-97128819D02*
X109442295Y-96128819D01*
X109442295Y-96128819D02*
X109775628Y-96843104D01*
X109775628Y-96843104D02*
X110108961Y-96128819D01*
X110108961Y-96128819D02*
X110108961Y-97128819D01*
X111108961Y-97128819D02*
X110537533Y-97128819D01*
X110823247Y-97128819D02*
X110823247Y-96128819D01*
X110823247Y-96128819D02*
X110728009Y-96271676D01*
X110728009Y-96271676D02*
X110632771Y-96366914D01*
X110632771Y-96366914D02*
X110537533Y-96414533D01*
X129695638Y-95925619D02*
X130028971Y-96925619D01*
X130028971Y-96925619D02*
X130362304Y-95925619D01*
X130695638Y-96925619D02*
X130695638Y-95925619D01*
X130695638Y-95925619D02*
X130933733Y-95925619D01*
X130933733Y-95925619D02*
X131076590Y-95973238D01*
X131076590Y-95973238D02*
X131171828Y-96068476D01*
X131171828Y-96068476D02*
X131219447Y-96163714D01*
X131219447Y-96163714D02*
X131267066Y-96354190D01*
X131267066Y-96354190D02*
X131267066Y-96497047D01*
X131267066Y-96497047D02*
X131219447Y-96687523D01*
X131219447Y-96687523D02*
X131171828Y-96782761D01*
X131171828Y-96782761D02*
X131076590Y-96878000D01*
X131076590Y-96878000D02*
X130933733Y-96925619D01*
X130933733Y-96925619D02*
X130695638Y-96925619D01*
X131695638Y-96925619D02*
X131695638Y-95925619D01*
X131695638Y-95925619D02*
X131933733Y-95925619D01*
X131933733Y-95925619D02*
X132076590Y-95973238D01*
X132076590Y-95973238D02*
X132171828Y-96068476D01*
X132171828Y-96068476D02*
X132219447Y-96163714D01*
X132219447Y-96163714D02*
X132267066Y-96354190D01*
X132267066Y-96354190D02*
X132267066Y-96497047D01*
X132267066Y-96497047D02*
X132219447Y-96687523D01*
X132219447Y-96687523D02*
X132171828Y-96782761D01*
X132171828Y-96782761D02*
X132076590Y-96878000D01*
X132076590Y-96878000D02*
X131933733Y-96925619D01*
X131933733Y-96925619D02*
X131695638Y-96925619D01*
X101215876Y-103761400D02*
X101358733Y-103809019D01*
X101358733Y-103809019D02*
X101596828Y-103809019D01*
X101596828Y-103809019D02*
X101692066Y-103761400D01*
X101692066Y-103761400D02*
X101739685Y-103713780D01*
X101739685Y-103713780D02*
X101787304Y-103618542D01*
X101787304Y-103618542D02*
X101787304Y-103523304D01*
X101787304Y-103523304D02*
X101739685Y-103428066D01*
X101739685Y-103428066D02*
X101692066Y-103380447D01*
X101692066Y-103380447D02*
X101596828Y-103332828D01*
X101596828Y-103332828D02*
X101406352Y-103285209D01*
X101406352Y-103285209D02*
X101311114Y-103237590D01*
X101311114Y-103237590D02*
X101263495Y-103189971D01*
X101263495Y-103189971D02*
X101215876Y-103094733D01*
X101215876Y-103094733D02*
X101215876Y-102999495D01*
X101215876Y-102999495D02*
X101263495Y-102904257D01*
X101263495Y-102904257D02*
X101311114Y-102856638D01*
X101311114Y-102856638D02*
X101406352Y-102809019D01*
X101406352Y-102809019D02*
X101644447Y-102809019D01*
X101644447Y-102809019D02*
X101787304Y-102856638D01*
X129854304Y-93890438D02*
X129759066Y-93842819D01*
X129759066Y-93842819D02*
X129616209Y-93842819D01*
X129616209Y-93842819D02*
X129473352Y-93890438D01*
X129473352Y-93890438D02*
X129378114Y-93985676D01*
X129378114Y-93985676D02*
X129330495Y-94080914D01*
X129330495Y-94080914D02*
X129282876Y-94271390D01*
X129282876Y-94271390D02*
X129282876Y-94414247D01*
X129282876Y-94414247D02*
X129330495Y-94604723D01*
X129330495Y-94604723D02*
X129378114Y-94699961D01*
X129378114Y-94699961D02*
X129473352Y-94795200D01*
X129473352Y-94795200D02*
X129616209Y-94842819D01*
X129616209Y-94842819D02*
X129711447Y-94842819D01*
X129711447Y-94842819D02*
X129854304Y-94795200D01*
X129854304Y-94795200D02*
X129901923Y-94747580D01*
X129901923Y-94747580D02*
X129901923Y-94414247D01*
X129901923Y-94414247D02*
X129711447Y-94414247D01*
X130330495Y-94842819D02*
X130330495Y-93842819D01*
X130330495Y-93842819D02*
X130901923Y-94842819D01*
X130901923Y-94842819D02*
X130901923Y-93842819D01*
X131378114Y-94842819D02*
X131378114Y-93842819D01*
X131378114Y-93842819D02*
X131616209Y-93842819D01*
X131616209Y-93842819D02*
X131759066Y-93890438D01*
X131759066Y-93890438D02*
X131854304Y-93985676D01*
X131854304Y-93985676D02*
X131901923Y-94080914D01*
X131901923Y-94080914D02*
X131949542Y-94271390D01*
X131949542Y-94271390D02*
X131949542Y-94414247D01*
X131949542Y-94414247D02*
X131901923Y-94604723D01*
X131901923Y-94604723D02*
X131854304Y-94699961D01*
X131854304Y-94699961D02*
X131759066Y-94795200D01*
X131759066Y-94795200D02*
X131616209Y-94842819D01*
X131616209Y-94842819D02*
X131378114Y-94842819D01*
X129695638Y-97932219D02*
X130028971Y-98932219D01*
X130028971Y-98932219D02*
X130362304Y-97932219D01*
X131267066Y-98932219D02*
X130933733Y-98456028D01*
X130695638Y-98932219D02*
X130695638Y-97932219D01*
X130695638Y-97932219D02*
X131076590Y-97932219D01*
X131076590Y-97932219D02*
X131171828Y-97979838D01*
X131171828Y-97979838D02*
X131219447Y-98027457D01*
X131219447Y-98027457D02*
X131267066Y-98122695D01*
X131267066Y-98122695D02*
X131267066Y-98265552D01*
X131267066Y-98265552D02*
X131219447Y-98360790D01*
X131219447Y-98360790D02*
X131171828Y-98408409D01*
X131171828Y-98408409D02*
X131076590Y-98456028D01*
X131076590Y-98456028D02*
X130695638Y-98456028D01*
X131600400Y-97932219D02*
X132267066Y-98932219D01*
X132267066Y-97932219D02*
X131600400Y-98932219D01*
X139772400Y-77655076D02*
X139724780Y-77797933D01*
X139724780Y-77797933D02*
X139724780Y-78036028D01*
X139724780Y-78036028D02*
X139772400Y-78131266D01*
X139772400Y-78131266D02*
X139820019Y-78178885D01*
X139820019Y-78178885D02*
X139915257Y-78226504D01*
X139915257Y-78226504D02*
X140010495Y-78226504D01*
X140010495Y-78226504D02*
X140105733Y-78178885D01*
X140105733Y-78178885D02*
X140153352Y-78131266D01*
X140153352Y-78131266D02*
X140200971Y-78036028D01*
X140200971Y-78036028D02*
X140248590Y-77845552D01*
X140248590Y-77845552D02*
X140296209Y-77750314D01*
X140296209Y-77750314D02*
X140343828Y-77702695D01*
X140343828Y-77702695D02*
X140439066Y-77655076D01*
X140439066Y-77655076D02*
X140534304Y-77655076D01*
X140534304Y-77655076D02*
X140629542Y-77702695D01*
X140629542Y-77702695D02*
X140677161Y-77750314D01*
X140677161Y-77750314D02*
X140724780Y-77845552D01*
X140724780Y-77845552D02*
X140724780Y-78083647D01*
X140724780Y-78083647D02*
X140677161Y-78226504D01*
X139724780Y-78655076D02*
X140391447Y-78655076D01*
X140724780Y-78655076D02*
X140677161Y-78607457D01*
X140677161Y-78607457D02*
X140629542Y-78655076D01*
X140629542Y-78655076D02*
X140677161Y-78702695D01*
X140677161Y-78702695D02*
X140724780Y-78655076D01*
X140724780Y-78655076D02*
X140629542Y-78655076D01*
X139772400Y-79512218D02*
X139724780Y-79416980D01*
X139724780Y-79416980D02*
X139724780Y-79226504D01*
X139724780Y-79226504D02*
X139772400Y-79131266D01*
X139772400Y-79131266D02*
X139867638Y-79083647D01*
X139867638Y-79083647D02*
X140248590Y-79083647D01*
X140248590Y-79083647D02*
X140343828Y-79131266D01*
X140343828Y-79131266D02*
X140391447Y-79226504D01*
X140391447Y-79226504D02*
X140391447Y-79416980D01*
X140391447Y-79416980D02*
X140343828Y-79512218D01*
X140343828Y-79512218D02*
X140248590Y-79559837D01*
X140248590Y-79559837D02*
X140153352Y-79559837D01*
X140153352Y-79559837D02*
X140058114Y-79083647D01*
X140391447Y-79988409D02*
X139724780Y-79988409D01*
X140296209Y-79988409D02*
X140343828Y-80036028D01*
X140343828Y-80036028D02*
X140391447Y-80131266D01*
X140391447Y-80131266D02*
X140391447Y-80274123D01*
X140391447Y-80274123D02*
X140343828Y-80369361D01*
X140343828Y-80369361D02*
X140248590Y-80416980D01*
X140248590Y-80416980D02*
X139724780Y-80416980D01*
X139724780Y-81655076D02*
X140724780Y-81655076D01*
X140724780Y-81655076D02*
X140724780Y-82036028D01*
X140724780Y-82036028D02*
X140677161Y-82131266D01*
X140677161Y-82131266D02*
X140629542Y-82178885D01*
X140629542Y-82178885D02*
X140534304Y-82226504D01*
X140534304Y-82226504D02*
X140391447Y-82226504D01*
X140391447Y-82226504D02*
X140296209Y-82178885D01*
X140296209Y-82178885D02*
X140248590Y-82131266D01*
X140248590Y-82131266D02*
X140200971Y-82036028D01*
X140200971Y-82036028D02*
X140200971Y-81655076D01*
X139772400Y-83036028D02*
X139724780Y-82940790D01*
X139724780Y-82940790D02*
X139724780Y-82750314D01*
X139724780Y-82750314D02*
X139772400Y-82655076D01*
X139772400Y-82655076D02*
X139867638Y-82607457D01*
X139867638Y-82607457D02*
X140248590Y-82607457D01*
X140248590Y-82607457D02*
X140343828Y-82655076D01*
X140343828Y-82655076D02*
X140391447Y-82750314D01*
X140391447Y-82750314D02*
X140391447Y-82940790D01*
X140391447Y-82940790D02*
X140343828Y-83036028D01*
X140343828Y-83036028D02*
X140248590Y-83083647D01*
X140248590Y-83083647D02*
X140153352Y-83083647D01*
X140153352Y-83083647D02*
X140058114Y-82607457D01*
X139772400Y-83893171D02*
X139724780Y-83797933D01*
X139724780Y-83797933D02*
X139724780Y-83607457D01*
X139724780Y-83607457D02*
X139772400Y-83512219D01*
X139772400Y-83512219D02*
X139867638Y-83464600D01*
X139867638Y-83464600D02*
X140248590Y-83464600D01*
X140248590Y-83464600D02*
X140343828Y-83512219D01*
X140343828Y-83512219D02*
X140391447Y-83607457D01*
X140391447Y-83607457D02*
X140391447Y-83797933D01*
X140391447Y-83797933D02*
X140343828Y-83893171D01*
X140343828Y-83893171D02*
X140248590Y-83940790D01*
X140248590Y-83940790D02*
X140153352Y-83940790D01*
X140153352Y-83940790D02*
X140058114Y-83464600D01*
X139724780Y-84369362D02*
X140391447Y-84369362D01*
X140200971Y-84369362D02*
X140296209Y-84416981D01*
X140296209Y-84416981D02*
X140343828Y-84464600D01*
X140343828Y-84464600D02*
X140391447Y-84559838D01*
X140391447Y-84559838D02*
X140391447Y-84655076D01*
X139724780Y-85131267D02*
X139772400Y-85036029D01*
X139772400Y-85036029D02*
X139867638Y-84988410D01*
X139867638Y-84988410D02*
X140724780Y-84988410D01*
X139724780Y-85512220D02*
X140391447Y-85512220D01*
X140724780Y-85512220D02*
X140677161Y-85464601D01*
X140677161Y-85464601D02*
X140629542Y-85512220D01*
X140629542Y-85512220D02*
X140677161Y-85559839D01*
X140677161Y-85559839D02*
X140724780Y-85512220D01*
X140724780Y-85512220D02*
X140629542Y-85512220D01*
X140391447Y-85988410D02*
X139724780Y-85988410D01*
X140296209Y-85988410D02*
X140343828Y-86036029D01*
X140343828Y-86036029D02*
X140391447Y-86131267D01*
X140391447Y-86131267D02*
X140391447Y-86274124D01*
X140391447Y-86274124D02*
X140343828Y-86369362D01*
X140343828Y-86369362D02*
X140248590Y-86416981D01*
X140248590Y-86416981D02*
X139724780Y-86416981D01*
X139772400Y-87321743D02*
X139724780Y-87226505D01*
X139724780Y-87226505D02*
X139724780Y-87036029D01*
X139724780Y-87036029D02*
X139772400Y-86940791D01*
X139772400Y-86940791D02*
X139820019Y-86893172D01*
X139820019Y-86893172D02*
X139915257Y-86845553D01*
X139915257Y-86845553D02*
X140200971Y-86845553D01*
X140200971Y-86845553D02*
X140296209Y-86893172D01*
X140296209Y-86893172D02*
X140343828Y-86940791D01*
X140343828Y-86940791D02*
X140391447Y-87036029D01*
X140391447Y-87036029D02*
X140391447Y-87226505D01*
X140391447Y-87226505D02*
X140343828Y-87321743D01*
X139724780Y-87750315D02*
X140724780Y-87750315D01*
X140105733Y-87845553D02*
X139724780Y-88131267D01*
X140391447Y-88131267D02*
X140010495Y-87750315D01*
X139772400Y-88607458D02*
X139724780Y-88607458D01*
X139724780Y-88607458D02*
X139629542Y-88559839D01*
X139629542Y-88559839D02*
X139581923Y-88512220D01*
X140724780Y-89655077D02*
X140724780Y-90226505D01*
X139724780Y-89940791D02*
X140724780Y-89940791D01*
X139724780Y-90559839D02*
X140724780Y-90559839D01*
X139724780Y-90988410D02*
X140248590Y-90988410D01*
X140248590Y-90988410D02*
X140343828Y-90940791D01*
X140343828Y-90940791D02*
X140391447Y-90845553D01*
X140391447Y-90845553D02*
X140391447Y-90702696D01*
X140391447Y-90702696D02*
X140343828Y-90607458D01*
X140343828Y-90607458D02*
X140296209Y-90559839D01*
X139724780Y-91464601D02*
X140391447Y-91464601D01*
X140724780Y-91464601D02*
X140677161Y-91416982D01*
X140677161Y-91416982D02*
X140629542Y-91464601D01*
X140629542Y-91464601D02*
X140677161Y-91512220D01*
X140677161Y-91512220D02*
X140724780Y-91464601D01*
X140724780Y-91464601D02*
X140629542Y-91464601D01*
X139724780Y-91940791D02*
X140724780Y-91940791D01*
X140343828Y-91940791D02*
X140391447Y-92036029D01*
X140391447Y-92036029D02*
X140391447Y-92226505D01*
X140391447Y-92226505D02*
X140343828Y-92321743D01*
X140343828Y-92321743D02*
X140296209Y-92369362D01*
X140296209Y-92369362D02*
X140200971Y-92416981D01*
X140200971Y-92416981D02*
X139915257Y-92416981D01*
X139915257Y-92416981D02*
X139820019Y-92369362D01*
X139820019Y-92369362D02*
X139772400Y-92321743D01*
X139772400Y-92321743D02*
X139724780Y-92226505D01*
X139724780Y-92226505D02*
X139724780Y-92036029D01*
X139724780Y-92036029D02*
X139772400Y-91940791D01*
X139724780Y-93274124D02*
X140248590Y-93274124D01*
X140248590Y-93274124D02*
X140343828Y-93226505D01*
X140343828Y-93226505D02*
X140391447Y-93131267D01*
X140391447Y-93131267D02*
X140391447Y-92940791D01*
X140391447Y-92940791D02*
X140343828Y-92845553D01*
X139772400Y-93274124D02*
X139724780Y-93178886D01*
X139724780Y-93178886D02*
X139724780Y-92940791D01*
X139724780Y-92940791D02*
X139772400Y-92845553D01*
X139772400Y-92845553D02*
X139867638Y-92797934D01*
X139867638Y-92797934D02*
X139962876Y-92797934D01*
X139962876Y-92797934D02*
X140058114Y-92845553D01*
X140058114Y-92845553D02*
X140105733Y-92940791D01*
X140105733Y-92940791D02*
X140105733Y-93178886D01*
X140105733Y-93178886D02*
X140153352Y-93274124D01*
X140391447Y-94178886D02*
X139724780Y-94178886D01*
X140391447Y-93750315D02*
X139867638Y-93750315D01*
X139867638Y-93750315D02*
X139772400Y-93797934D01*
X139772400Y-93797934D02*
X139724780Y-93893172D01*
X139724780Y-93893172D02*
X139724780Y-94036029D01*
X139724780Y-94036029D02*
X139772400Y-94131267D01*
X139772400Y-94131267D02*
X139820019Y-94178886D01*
X140391447Y-94512220D02*
X140391447Y-94893172D01*
X140724780Y-94655077D02*
X139867638Y-94655077D01*
X139867638Y-94655077D02*
X139772400Y-94702696D01*
X139772400Y-94702696D02*
X139724780Y-94797934D01*
X139724780Y-94797934D02*
X139724780Y-94893172D01*
X139724780Y-96416982D02*
X140724780Y-96416982D01*
X139772400Y-96416982D02*
X139724780Y-96321744D01*
X139724780Y-96321744D02*
X139724780Y-96131268D01*
X139724780Y-96131268D02*
X139772400Y-96036030D01*
X139772400Y-96036030D02*
X139820019Y-95988411D01*
X139820019Y-95988411D02*
X139915257Y-95940792D01*
X139915257Y-95940792D02*
X140200971Y-95940792D01*
X140200971Y-95940792D02*
X140296209Y-95988411D01*
X140296209Y-95988411D02*
X140343828Y-96036030D01*
X140343828Y-96036030D02*
X140391447Y-96131268D01*
X140391447Y-96131268D02*
X140391447Y-96321744D01*
X140391447Y-96321744D02*
X140343828Y-96416982D01*
X139724780Y-97321744D02*
X140248590Y-97321744D01*
X140248590Y-97321744D02*
X140343828Y-97274125D01*
X140343828Y-97274125D02*
X140391447Y-97178887D01*
X140391447Y-97178887D02*
X140391447Y-96988411D01*
X140391447Y-96988411D02*
X140343828Y-96893173D01*
X139772400Y-97321744D02*
X139724780Y-97226506D01*
X139724780Y-97226506D02*
X139724780Y-96988411D01*
X139724780Y-96988411D02*
X139772400Y-96893173D01*
X139772400Y-96893173D02*
X139867638Y-96845554D01*
X139867638Y-96845554D02*
X139962876Y-96845554D01*
X139962876Y-96845554D02*
X140058114Y-96893173D01*
X140058114Y-96893173D02*
X140105733Y-96988411D01*
X140105733Y-96988411D02*
X140105733Y-97226506D01*
X140105733Y-97226506D02*
X140153352Y-97321744D01*
X139724780Y-97940792D02*
X139772400Y-97845554D01*
X139772400Y-97845554D02*
X139867638Y-97797935D01*
X139867638Y-97797935D02*
X140724780Y-97797935D01*
X139772400Y-98702697D02*
X139724780Y-98607459D01*
X139724780Y-98607459D02*
X139724780Y-98416983D01*
X139724780Y-98416983D02*
X139772400Y-98321745D01*
X139772400Y-98321745D02*
X139867638Y-98274126D01*
X139867638Y-98274126D02*
X140248590Y-98274126D01*
X140248590Y-98274126D02*
X140343828Y-98321745D01*
X140343828Y-98321745D02*
X140391447Y-98416983D01*
X140391447Y-98416983D02*
X140391447Y-98607459D01*
X140391447Y-98607459D02*
X140343828Y-98702697D01*
X140343828Y-98702697D02*
X140248590Y-98750316D01*
X140248590Y-98750316D02*
X140153352Y-98750316D01*
X140153352Y-98750316D02*
X140058114Y-98274126D01*
X140391447Y-99083650D02*
X140391447Y-99607459D01*
X140391447Y-99607459D02*
X139724780Y-99083650D01*
X139724780Y-99083650D02*
X139724780Y-99607459D01*
X138104780Y-78178885D02*
X138104780Y-77702695D01*
X138104780Y-77702695D02*
X139104780Y-77702695D01*
X138104780Y-78940790D02*
X138628590Y-78940790D01*
X138628590Y-78940790D02*
X138723828Y-78893171D01*
X138723828Y-78893171D02*
X138771447Y-78797933D01*
X138771447Y-78797933D02*
X138771447Y-78607457D01*
X138771447Y-78607457D02*
X138723828Y-78512219D01*
X138152400Y-78940790D02*
X138104780Y-78845552D01*
X138104780Y-78845552D02*
X138104780Y-78607457D01*
X138104780Y-78607457D02*
X138152400Y-78512219D01*
X138152400Y-78512219D02*
X138247638Y-78464600D01*
X138247638Y-78464600D02*
X138342876Y-78464600D01*
X138342876Y-78464600D02*
X138438114Y-78512219D01*
X138438114Y-78512219D02*
X138485733Y-78607457D01*
X138485733Y-78607457D02*
X138485733Y-78845552D01*
X138485733Y-78845552D02*
X138533352Y-78940790D01*
X138152400Y-79369362D02*
X138104780Y-79464600D01*
X138104780Y-79464600D02*
X138104780Y-79655076D01*
X138104780Y-79655076D02*
X138152400Y-79750314D01*
X138152400Y-79750314D02*
X138247638Y-79797933D01*
X138247638Y-79797933D02*
X138295257Y-79797933D01*
X138295257Y-79797933D02*
X138390495Y-79750314D01*
X138390495Y-79750314D02*
X138438114Y-79655076D01*
X138438114Y-79655076D02*
X138438114Y-79512219D01*
X138438114Y-79512219D02*
X138485733Y-79416981D01*
X138485733Y-79416981D02*
X138580971Y-79369362D01*
X138580971Y-79369362D02*
X138628590Y-79369362D01*
X138628590Y-79369362D02*
X138723828Y-79416981D01*
X138723828Y-79416981D02*
X138771447Y-79512219D01*
X138771447Y-79512219D02*
X138771447Y-79655076D01*
X138771447Y-79655076D02*
X138723828Y-79750314D01*
X138152400Y-80607457D02*
X138104780Y-80512219D01*
X138104780Y-80512219D02*
X138104780Y-80321743D01*
X138104780Y-80321743D02*
X138152400Y-80226505D01*
X138152400Y-80226505D02*
X138247638Y-80178886D01*
X138247638Y-80178886D02*
X138628590Y-80178886D01*
X138628590Y-80178886D02*
X138723828Y-80226505D01*
X138723828Y-80226505D02*
X138771447Y-80321743D01*
X138771447Y-80321743D02*
X138771447Y-80512219D01*
X138771447Y-80512219D02*
X138723828Y-80607457D01*
X138723828Y-80607457D02*
X138628590Y-80655076D01*
X138628590Y-80655076D02*
X138533352Y-80655076D01*
X138533352Y-80655076D02*
X138438114Y-80178886D01*
X138104780Y-81083648D02*
X138771447Y-81083648D01*
X138580971Y-81083648D02*
X138676209Y-81131267D01*
X138676209Y-81131267D02*
X138723828Y-81178886D01*
X138723828Y-81178886D02*
X138771447Y-81274124D01*
X138771447Y-81274124D02*
X138771447Y-81369362D01*
X138104780Y-82131267D02*
X139104780Y-82131267D01*
X138152400Y-82131267D02*
X138104780Y-82036029D01*
X138104780Y-82036029D02*
X138104780Y-81845553D01*
X138104780Y-81845553D02*
X138152400Y-81750315D01*
X138152400Y-81750315D02*
X138200019Y-81702696D01*
X138200019Y-81702696D02*
X138295257Y-81655077D01*
X138295257Y-81655077D02*
X138580971Y-81655077D01*
X138580971Y-81655077D02*
X138676209Y-81702696D01*
X138676209Y-81702696D02*
X138723828Y-81750315D01*
X138723828Y-81750315D02*
X138771447Y-81845553D01*
X138771447Y-81845553D02*
X138771447Y-82036029D01*
X138771447Y-82036029D02*
X138723828Y-82131267D01*
X138104780Y-82607458D02*
X138771447Y-82607458D01*
X139104780Y-82607458D02*
X139057161Y-82559839D01*
X139057161Y-82559839D02*
X139009542Y-82607458D01*
X139009542Y-82607458D02*
X139057161Y-82655077D01*
X139057161Y-82655077D02*
X139104780Y-82607458D01*
X139104780Y-82607458D02*
X139009542Y-82607458D01*
X138771447Y-83083648D02*
X138104780Y-83083648D01*
X138676209Y-83083648D02*
X138723828Y-83131267D01*
X138723828Y-83131267D02*
X138771447Y-83226505D01*
X138771447Y-83226505D02*
X138771447Y-83369362D01*
X138771447Y-83369362D02*
X138723828Y-83464600D01*
X138723828Y-83464600D02*
X138628590Y-83512219D01*
X138628590Y-83512219D02*
X138104780Y-83512219D01*
X138771447Y-84416981D02*
X137961923Y-84416981D01*
X137961923Y-84416981D02*
X137866685Y-84369362D01*
X137866685Y-84369362D02*
X137819066Y-84321743D01*
X137819066Y-84321743D02*
X137771447Y-84226505D01*
X137771447Y-84226505D02*
X137771447Y-84083648D01*
X137771447Y-84083648D02*
X137819066Y-83988410D01*
X138152400Y-84416981D02*
X138104780Y-84321743D01*
X138104780Y-84321743D02*
X138104780Y-84131267D01*
X138104780Y-84131267D02*
X138152400Y-84036029D01*
X138152400Y-84036029D02*
X138200019Y-83988410D01*
X138200019Y-83988410D02*
X138295257Y-83940791D01*
X138295257Y-83940791D02*
X138580971Y-83940791D01*
X138580971Y-83940791D02*
X138676209Y-83988410D01*
X138676209Y-83988410D02*
X138723828Y-84036029D01*
X138723828Y-84036029D02*
X138771447Y-84131267D01*
X138771447Y-84131267D02*
X138771447Y-84321743D01*
X138771447Y-84321743D02*
X138723828Y-84416981D01*
X138152400Y-85274124D02*
X138104780Y-85178886D01*
X138104780Y-85178886D02*
X138104780Y-84988410D01*
X138104780Y-84988410D02*
X138152400Y-84893172D01*
X138152400Y-84893172D02*
X138247638Y-84845553D01*
X138247638Y-84845553D02*
X138628590Y-84845553D01*
X138628590Y-84845553D02*
X138723828Y-84893172D01*
X138723828Y-84893172D02*
X138771447Y-84988410D01*
X138771447Y-84988410D02*
X138771447Y-85178886D01*
X138771447Y-85178886D02*
X138723828Y-85274124D01*
X138723828Y-85274124D02*
X138628590Y-85321743D01*
X138628590Y-85321743D02*
X138533352Y-85321743D01*
X138533352Y-85321743D02*
X138438114Y-84845553D01*
X138152400Y-85702696D02*
X138104780Y-85797934D01*
X138104780Y-85797934D02*
X138104780Y-85988410D01*
X138104780Y-85988410D02*
X138152400Y-86083648D01*
X138152400Y-86083648D02*
X138247638Y-86131267D01*
X138247638Y-86131267D02*
X138295257Y-86131267D01*
X138295257Y-86131267D02*
X138390495Y-86083648D01*
X138390495Y-86083648D02*
X138438114Y-85988410D01*
X138438114Y-85988410D02*
X138438114Y-85845553D01*
X138438114Y-85845553D02*
X138485733Y-85750315D01*
X138485733Y-85750315D02*
X138580971Y-85702696D01*
X138580971Y-85702696D02*
X138628590Y-85702696D01*
X138628590Y-85702696D02*
X138723828Y-85750315D01*
X138723828Y-85750315D02*
X138771447Y-85845553D01*
X138771447Y-85845553D02*
X138771447Y-85988410D01*
X138771447Y-85988410D02*
X138723828Y-86083648D01*
X138771447Y-87226506D02*
X138104780Y-87464601D01*
X138104780Y-87464601D02*
X138771447Y-87702696D01*
X138104780Y-88607458D02*
X138104780Y-88036030D01*
X138104780Y-88321744D02*
X139104780Y-88321744D01*
X139104780Y-88321744D02*
X138961923Y-88226506D01*
X138961923Y-88226506D02*
X138866685Y-88131268D01*
X138866685Y-88131268D02*
X138819066Y-88036030D01*
X129695638Y-99710219D02*
X130028971Y-100710219D01*
X130028971Y-100710219D02*
X130362304Y-99710219D01*
X131267066Y-100710219D02*
X130933733Y-100234028D01*
X130695638Y-100710219D02*
X130695638Y-99710219D01*
X130695638Y-99710219D02*
X131076590Y-99710219D01*
X131076590Y-99710219D02*
X131171828Y-99757838D01*
X131171828Y-99757838D02*
X131219447Y-99805457D01*
X131219447Y-99805457D02*
X131267066Y-99900695D01*
X131267066Y-99900695D02*
X131267066Y-100043552D01*
X131267066Y-100043552D02*
X131219447Y-100138790D01*
X131219447Y-100138790D02*
X131171828Y-100186409D01*
X131171828Y-100186409D02*
X131076590Y-100234028D01*
X131076590Y-100234028D02*
X130695638Y-100234028D01*
X131886114Y-100234028D02*
X131886114Y-100710219D01*
X131552781Y-99710219D02*
X131886114Y-100234028D01*
X131886114Y-100234028D02*
X132219447Y-99710219D01*
X135661457Y-76088219D02*
X136280504Y-76088219D01*
X136280504Y-76088219D02*
X135947171Y-76469171D01*
X135947171Y-76469171D02*
X136090028Y-76469171D01*
X136090028Y-76469171D02*
X136185266Y-76516790D01*
X136185266Y-76516790D02*
X136232885Y-76564409D01*
X136232885Y-76564409D02*
X136280504Y-76659647D01*
X136280504Y-76659647D02*
X136280504Y-76897742D01*
X136280504Y-76897742D02*
X136232885Y-76992980D01*
X136232885Y-76992980D02*
X136185266Y-77040600D01*
X136185266Y-77040600D02*
X136090028Y-77088219D01*
X136090028Y-77088219D02*
X135804314Y-77088219D01*
X135804314Y-77088219D02*
X135709076Y-77040600D01*
X135709076Y-77040600D02*
X135661457Y-76992980D01*
X136709076Y-76992980D02*
X136756695Y-77040600D01*
X136756695Y-77040600D02*
X136709076Y-77088219D01*
X136709076Y-77088219D02*
X136661457Y-77040600D01*
X136661457Y-77040600D02*
X136709076Y-76992980D01*
X136709076Y-76992980D02*
X136709076Y-77088219D01*
X137090028Y-76088219D02*
X137709075Y-76088219D01*
X137709075Y-76088219D02*
X137375742Y-76469171D01*
X137375742Y-76469171D02*
X137518599Y-76469171D01*
X137518599Y-76469171D02*
X137613837Y-76516790D01*
X137613837Y-76516790D02*
X137661456Y-76564409D01*
X137661456Y-76564409D02*
X137709075Y-76659647D01*
X137709075Y-76659647D02*
X137709075Y-76897742D01*
X137709075Y-76897742D02*
X137661456Y-76992980D01*
X137661456Y-76992980D02*
X137613837Y-77040600D01*
X137613837Y-77040600D02*
X137518599Y-77088219D01*
X137518599Y-77088219D02*
X137232885Y-77088219D01*
X137232885Y-77088219D02*
X137137647Y-77040600D01*
X137137647Y-77040600D02*
X137090028Y-76992980D01*
X137994790Y-76088219D02*
X138328123Y-77088219D01*
X138328123Y-77088219D02*
X138661456Y-76088219D01*
X135613838Y-71948019D02*
X136185266Y-71948019D01*
X135899552Y-72948019D02*
X135899552Y-71948019D01*
X136423362Y-71948019D02*
X137090028Y-72948019D01*
X137090028Y-71948019D02*
X136423362Y-72948019D01*
X137661457Y-71948019D02*
X137756695Y-71948019D01*
X137756695Y-71948019D02*
X137851933Y-71995638D01*
X137851933Y-71995638D02*
X137899552Y-72043257D01*
X137899552Y-72043257D02*
X137947171Y-72138495D01*
X137947171Y-72138495D02*
X137994790Y-72328971D01*
X137994790Y-72328971D02*
X137994790Y-72567066D01*
X137994790Y-72567066D02*
X137947171Y-72757542D01*
X137947171Y-72757542D02*
X137899552Y-72852780D01*
X137899552Y-72852780D02*
X137851933Y-72900400D01*
X137851933Y-72900400D02*
X137756695Y-72948019D01*
X137756695Y-72948019D02*
X137661457Y-72948019D01*
X137661457Y-72948019D02*
X137566219Y-72900400D01*
X137566219Y-72900400D02*
X137518600Y-72852780D01*
X137518600Y-72852780D02*
X137470981Y-72757542D01*
X137470981Y-72757542D02*
X137423362Y-72567066D01*
X137423362Y-72567066D02*
X137423362Y-72328971D01*
X137423362Y-72328971D02*
X137470981Y-72138495D01*
X137470981Y-72138495D02*
X137518600Y-72043257D01*
X137518600Y-72043257D02*
X137566219Y-71995638D01*
X137566219Y-71995638D02*
X137661457Y-71948019D01*
X136404323Y-74878419D02*
X136070990Y-74402228D01*
X135832895Y-74878419D02*
X135832895Y-73878419D01*
X135832895Y-73878419D02*
X136213847Y-73878419D01*
X136213847Y-73878419D02*
X136309085Y-73926038D01*
X136309085Y-73926038D02*
X136356704Y-73973657D01*
X136356704Y-73973657D02*
X136404323Y-74068895D01*
X136404323Y-74068895D02*
X136404323Y-74211752D01*
X136404323Y-74211752D02*
X136356704Y-74306990D01*
X136356704Y-74306990D02*
X136309085Y-74354609D01*
X136309085Y-74354609D02*
X136213847Y-74402228D01*
X136213847Y-74402228D02*
X135832895Y-74402228D01*
X136737657Y-73878419D02*
X137404323Y-74878419D01*
X137404323Y-73878419D02*
X136737657Y-74878419D01*
X137975752Y-73878419D02*
X138070990Y-73878419D01*
X138070990Y-73878419D02*
X138166228Y-73926038D01*
X138166228Y-73926038D02*
X138213847Y-73973657D01*
X138213847Y-73973657D02*
X138261466Y-74068895D01*
X138261466Y-74068895D02*
X138309085Y-74259371D01*
X138309085Y-74259371D02*
X138309085Y-74497466D01*
X138309085Y-74497466D02*
X138261466Y-74687942D01*
X138261466Y-74687942D02*
X138213847Y-74783180D01*
X138213847Y-74783180D02*
X138166228Y-74830800D01*
X138166228Y-74830800D02*
X138070990Y-74878419D01*
X138070990Y-74878419D02*
X137975752Y-74878419D01*
X137975752Y-74878419D02*
X137880514Y-74830800D01*
X137880514Y-74830800D02*
X137832895Y-74783180D01*
X137832895Y-74783180D02*
X137785276Y-74687942D01*
X137785276Y-74687942D02*
X137737657Y-74497466D01*
X137737657Y-74497466D02*
X137737657Y-74259371D01*
X137737657Y-74259371D02*
X137785276Y-74068895D01*
X137785276Y-74068895D02*
X137832895Y-73973657D01*
X137832895Y-73973657D02*
X137880514Y-73926038D01*
X137880514Y-73926038D02*
X137975752Y-73878419D01*
X107516609Y-90586904D02*
X107516609Y-90253571D01*
X108040419Y-90110714D02*
X108040419Y-90586904D01*
X108040419Y-90586904D02*
X107040419Y-90586904D01*
X107040419Y-90586904D02*
X107040419Y-90110714D01*
X108040419Y-89682142D02*
X107040419Y-89682142D01*
X107040419Y-89682142D02*
X108040419Y-89110714D01*
X108040419Y-89110714D02*
X107040419Y-89110714D01*
X125677609Y-91066371D02*
X125677609Y-91399704D01*
X126201419Y-91399704D02*
X125201419Y-91399704D01*
X125201419Y-91399704D02*
X125201419Y-90923514D01*
X126201419Y-90066371D02*
X126201419Y-90542561D01*
X126201419Y-90542561D02*
X125201419Y-90542561D01*
X125915704Y-89780656D02*
X125915704Y-89304466D01*
X126201419Y-89875894D02*
X125201419Y-89542561D01*
X125201419Y-89542561D02*
X126201419Y-89209228D01*
X126153800Y-88923513D02*
X126201419Y-88780656D01*
X126201419Y-88780656D02*
X126201419Y-88542561D01*
X126201419Y-88542561D02*
X126153800Y-88447323D01*
X126153800Y-88447323D02*
X126106180Y-88399704D01*
X126106180Y-88399704D02*
X126010942Y-88352085D01*
X126010942Y-88352085D02*
X125915704Y-88352085D01*
X125915704Y-88352085D02*
X125820466Y-88399704D01*
X125820466Y-88399704D02*
X125772847Y-88447323D01*
X125772847Y-88447323D02*
X125725228Y-88542561D01*
X125725228Y-88542561D02*
X125677609Y-88733037D01*
X125677609Y-88733037D02*
X125629990Y-88828275D01*
X125629990Y-88828275D02*
X125582371Y-88875894D01*
X125582371Y-88875894D02*
X125487133Y-88923513D01*
X125487133Y-88923513D02*
X125391895Y-88923513D01*
X125391895Y-88923513D02*
X125296657Y-88875894D01*
X125296657Y-88875894D02*
X125249038Y-88828275D01*
X125249038Y-88828275D02*
X125201419Y-88733037D01*
X125201419Y-88733037D02*
X125201419Y-88494942D01*
X125201419Y-88494942D02*
X125249038Y-88352085D01*
X126201419Y-87923513D02*
X125201419Y-87923513D01*
X125677609Y-87923513D02*
X125677609Y-87352085D01*
X126201419Y-87352085D02*
X125201419Y-87352085D01*
X98364666Y-103091552D02*
X98364666Y-103901076D01*
X98364666Y-103901076D02*
X98317047Y-103996314D01*
X98317047Y-103996314D02*
X98269428Y-104043933D01*
X98269428Y-104043933D02*
X98174190Y-104091552D01*
X98174190Y-104091552D02*
X98031333Y-104091552D01*
X98031333Y-104091552D02*
X97936095Y-104043933D01*
X98364666Y-103710600D02*
X98269428Y-103758219D01*
X98269428Y-103758219D02*
X98078952Y-103758219D01*
X98078952Y-103758219D02*
X97983714Y-103710600D01*
X97983714Y-103710600D02*
X97936095Y-103662980D01*
X97936095Y-103662980D02*
X97888476Y-103567742D01*
X97888476Y-103567742D02*
X97888476Y-103282028D01*
X97888476Y-103282028D02*
X97936095Y-103186790D01*
X97936095Y-103186790D02*
X97983714Y-103139171D01*
X97983714Y-103139171D02*
X98078952Y-103091552D01*
X98078952Y-103091552D02*
X98269428Y-103091552D01*
X98269428Y-103091552D02*
X98364666Y-103139171D01*
X98840857Y-103091552D02*
X98840857Y-103758219D01*
X98840857Y-103186790D02*
X98888476Y-103139171D01*
X98888476Y-103139171D02*
X98983714Y-103091552D01*
X98983714Y-103091552D02*
X99126571Y-103091552D01*
X99126571Y-103091552D02*
X99221809Y-103139171D01*
X99221809Y-103139171D02*
X99269428Y-103234409D01*
X99269428Y-103234409D02*
X99269428Y-103758219D01*
X100174190Y-103758219D02*
X100174190Y-102758219D01*
X100174190Y-103710600D02*
X100078952Y-103758219D01*
X100078952Y-103758219D02*
X99888476Y-103758219D01*
X99888476Y-103758219D02*
X99793238Y-103710600D01*
X99793238Y-103710600D02*
X99745619Y-103662980D01*
X99745619Y-103662980D02*
X99698000Y-103567742D01*
X99698000Y-103567742D02*
X99698000Y-103282028D01*
X99698000Y-103282028D02*
X99745619Y-103186790D01*
X99745619Y-103186790D02*
X99793238Y-103139171D01*
X99793238Y-103139171D02*
X99888476Y-103091552D01*
X99888476Y-103091552D02*
X100078952Y-103091552D01*
X100078952Y-103091552D02*
X100174190Y-103139171D01*
X136128104Y-69912838D02*
X136032866Y-69865219D01*
X136032866Y-69865219D02*
X135890009Y-69865219D01*
X135890009Y-69865219D02*
X135747152Y-69912838D01*
X135747152Y-69912838D02*
X135651914Y-70008076D01*
X135651914Y-70008076D02*
X135604295Y-70103314D01*
X135604295Y-70103314D02*
X135556676Y-70293790D01*
X135556676Y-70293790D02*
X135556676Y-70436647D01*
X135556676Y-70436647D02*
X135604295Y-70627123D01*
X135604295Y-70627123D02*
X135651914Y-70722361D01*
X135651914Y-70722361D02*
X135747152Y-70817600D01*
X135747152Y-70817600D02*
X135890009Y-70865219D01*
X135890009Y-70865219D02*
X135985247Y-70865219D01*
X135985247Y-70865219D02*
X136128104Y-70817600D01*
X136128104Y-70817600D02*
X136175723Y-70769980D01*
X136175723Y-70769980D02*
X136175723Y-70436647D01*
X136175723Y-70436647D02*
X135985247Y-70436647D01*
X136604295Y-70865219D02*
X136604295Y-69865219D01*
X136604295Y-69865219D02*
X137175723Y-70865219D01*
X137175723Y-70865219D02*
X137175723Y-69865219D01*
X137651914Y-70865219D02*
X137651914Y-69865219D01*
X137651914Y-69865219D02*
X137890009Y-69865219D01*
X137890009Y-69865219D02*
X138032866Y-69912838D01*
X138032866Y-69912838D02*
X138128104Y-70008076D01*
X138128104Y-70008076D02*
X138175723Y-70103314D01*
X138175723Y-70103314D02*
X138223342Y-70293790D01*
X138223342Y-70293790D02*
X138223342Y-70436647D01*
X138223342Y-70436647D02*
X138175723Y-70627123D01*
X138175723Y-70627123D02*
X138128104Y-70722361D01*
X138128104Y-70722361D02*
X138032866Y-70817600D01*
X138032866Y-70817600D02*
X137890009Y-70865219D01*
X137890009Y-70865219D02*
X137651914Y-70865219D01*
%TO.C,U1*%
X102661019Y-82074504D02*
X103470542Y-82074504D01*
X103470542Y-82074504D02*
X103565780Y-82026885D01*
X103565780Y-82026885D02*
X103613400Y-81979266D01*
X103613400Y-81979266D02*
X103661019Y-81884028D01*
X103661019Y-81884028D02*
X103661019Y-81693552D01*
X103661019Y-81693552D02*
X103613400Y-81598314D01*
X103613400Y-81598314D02*
X103565780Y-81550695D01*
X103565780Y-81550695D02*
X103470542Y-81503076D01*
X103470542Y-81503076D02*
X102661019Y-81503076D01*
X103661019Y-80503076D02*
X103661019Y-81074504D01*
X103661019Y-80788790D02*
X102661019Y-80788790D01*
X102661019Y-80788790D02*
X102803876Y-80884028D01*
X102803876Y-80884028D02*
X102899114Y-80979266D01*
X102899114Y-80979266D02*
X102946733Y-81074504D01*
%TO.C,J1*%
X133254866Y-77983419D02*
X133254866Y-78697704D01*
X133254866Y-78697704D02*
X133207247Y-78840561D01*
X133207247Y-78840561D02*
X133112009Y-78935800D01*
X133112009Y-78935800D02*
X132969152Y-78983419D01*
X132969152Y-78983419D02*
X132873914Y-78983419D01*
X134254866Y-78983419D02*
X133683438Y-78983419D01*
X133969152Y-78983419D02*
X133969152Y-77983419D01*
X133969152Y-77983419D02*
X133873914Y-78126276D01*
X133873914Y-78126276D02*
X133778676Y-78221514D01*
X133778676Y-78221514D02*
X133683438Y-78269133D01*
%TO.C,R5*%
X127731933Y-69112419D02*
X127398600Y-68636228D01*
X127160505Y-69112419D02*
X127160505Y-68112419D01*
X127160505Y-68112419D02*
X127541457Y-68112419D01*
X127541457Y-68112419D02*
X127636695Y-68160038D01*
X127636695Y-68160038D02*
X127684314Y-68207657D01*
X127684314Y-68207657D02*
X127731933Y-68302895D01*
X127731933Y-68302895D02*
X127731933Y-68445752D01*
X127731933Y-68445752D02*
X127684314Y-68540990D01*
X127684314Y-68540990D02*
X127636695Y-68588609D01*
X127636695Y-68588609D02*
X127541457Y-68636228D01*
X127541457Y-68636228D02*
X127160505Y-68636228D01*
X128636695Y-68112419D02*
X128160505Y-68112419D01*
X128160505Y-68112419D02*
X128112886Y-68588609D01*
X128112886Y-68588609D02*
X128160505Y-68540990D01*
X128160505Y-68540990D02*
X128255743Y-68493371D01*
X128255743Y-68493371D02*
X128493838Y-68493371D01*
X128493838Y-68493371D02*
X128589076Y-68540990D01*
X128589076Y-68540990D02*
X128636695Y-68588609D01*
X128636695Y-68588609D02*
X128684314Y-68683847D01*
X128684314Y-68683847D02*
X128684314Y-68921942D01*
X128684314Y-68921942D02*
X128636695Y-69017180D01*
X128636695Y-69017180D02*
X128589076Y-69064800D01*
X128589076Y-69064800D02*
X128493838Y-69112419D01*
X128493838Y-69112419D02*
X128255743Y-69112419D01*
X128255743Y-69112419D02*
X128160505Y-69064800D01*
X128160505Y-69064800D02*
X128112886Y-69017180D01*
%TO.C,R1*%
X101671533Y-71120019D02*
X101338200Y-70643828D01*
X101100105Y-71120019D02*
X101100105Y-70120019D01*
X101100105Y-70120019D02*
X101481057Y-70120019D01*
X101481057Y-70120019D02*
X101576295Y-70167638D01*
X101576295Y-70167638D02*
X101623914Y-70215257D01*
X101623914Y-70215257D02*
X101671533Y-70310495D01*
X101671533Y-70310495D02*
X101671533Y-70453352D01*
X101671533Y-70453352D02*
X101623914Y-70548590D01*
X101623914Y-70548590D02*
X101576295Y-70596209D01*
X101576295Y-70596209D02*
X101481057Y-70643828D01*
X101481057Y-70643828D02*
X101100105Y-70643828D01*
X102623914Y-71120019D02*
X102052486Y-71120019D01*
X102338200Y-71120019D02*
X102338200Y-70120019D01*
X102338200Y-70120019D02*
X102242962Y-70262876D01*
X102242962Y-70262876D02*
X102147724Y-70358114D01*
X102147724Y-70358114D02*
X102052486Y-70405733D01*
%TO.C,C3*%
X92858380Y-96452666D02*
X92906000Y-96500285D01*
X92906000Y-96500285D02*
X92953619Y-96643142D01*
X92953619Y-96643142D02*
X92953619Y-96738380D01*
X92953619Y-96738380D02*
X92906000Y-96881237D01*
X92906000Y-96881237D02*
X92810761Y-96976475D01*
X92810761Y-96976475D02*
X92715523Y-97024094D01*
X92715523Y-97024094D02*
X92525047Y-97071713D01*
X92525047Y-97071713D02*
X92382190Y-97071713D01*
X92382190Y-97071713D02*
X92191714Y-97024094D01*
X92191714Y-97024094D02*
X92096476Y-96976475D01*
X92096476Y-96976475D02*
X92001238Y-96881237D01*
X92001238Y-96881237D02*
X91953619Y-96738380D01*
X91953619Y-96738380D02*
X91953619Y-96643142D01*
X91953619Y-96643142D02*
X92001238Y-96500285D01*
X92001238Y-96500285D02*
X92048857Y-96452666D01*
X91953619Y-96119332D02*
X91953619Y-95500285D01*
X91953619Y-95500285D02*
X92334571Y-95833618D01*
X92334571Y-95833618D02*
X92334571Y-95690761D01*
X92334571Y-95690761D02*
X92382190Y-95595523D01*
X92382190Y-95595523D02*
X92429809Y-95547904D01*
X92429809Y-95547904D02*
X92525047Y-95500285D01*
X92525047Y-95500285D02*
X92763142Y-95500285D01*
X92763142Y-95500285D02*
X92858380Y-95547904D01*
X92858380Y-95547904D02*
X92906000Y-95595523D01*
X92906000Y-95595523D02*
X92953619Y-95690761D01*
X92953619Y-95690761D02*
X92953619Y-95976475D01*
X92953619Y-95976475D02*
X92906000Y-96071713D01*
X92906000Y-96071713D02*
X92858380Y-96119332D01*
%TO.C,D1*%
X117693219Y-90242294D02*
X116693219Y-90242294D01*
X116693219Y-90242294D02*
X116693219Y-90004199D01*
X116693219Y-90004199D02*
X116740838Y-89861342D01*
X116740838Y-89861342D02*
X116836076Y-89766104D01*
X116836076Y-89766104D02*
X116931314Y-89718485D01*
X116931314Y-89718485D02*
X117121790Y-89670866D01*
X117121790Y-89670866D02*
X117264647Y-89670866D01*
X117264647Y-89670866D02*
X117455123Y-89718485D01*
X117455123Y-89718485D02*
X117550361Y-89766104D01*
X117550361Y-89766104D02*
X117645600Y-89861342D01*
X117645600Y-89861342D02*
X117693219Y-90004199D01*
X117693219Y-90004199D02*
X117693219Y-90242294D01*
X117693219Y-88718485D02*
X117693219Y-89289913D01*
X117693219Y-89004199D02*
X116693219Y-89004199D01*
X116693219Y-89004199D02*
X116836076Y-89099437D01*
X116836076Y-89099437D02*
X116931314Y-89194675D01*
X116931314Y-89194675D02*
X116978933Y-89289913D01*
%TO.C,D2*%
X112130619Y-90369294D02*
X111130619Y-90369294D01*
X111130619Y-90369294D02*
X111130619Y-90131199D01*
X111130619Y-90131199D02*
X111178238Y-89988342D01*
X111178238Y-89988342D02*
X111273476Y-89893104D01*
X111273476Y-89893104D02*
X111368714Y-89845485D01*
X111368714Y-89845485D02*
X111559190Y-89797866D01*
X111559190Y-89797866D02*
X111702047Y-89797866D01*
X111702047Y-89797866D02*
X111892523Y-89845485D01*
X111892523Y-89845485D02*
X111987761Y-89893104D01*
X111987761Y-89893104D02*
X112083000Y-89988342D01*
X112083000Y-89988342D02*
X112130619Y-90131199D01*
X112130619Y-90131199D02*
X112130619Y-90369294D01*
X111225857Y-89416913D02*
X111178238Y-89369294D01*
X111178238Y-89369294D02*
X111130619Y-89274056D01*
X111130619Y-89274056D02*
X111130619Y-89035961D01*
X111130619Y-89035961D02*
X111178238Y-88940723D01*
X111178238Y-88940723D02*
X111225857Y-88893104D01*
X111225857Y-88893104D02*
X111321095Y-88845485D01*
X111321095Y-88845485D02*
X111416333Y-88845485D01*
X111416333Y-88845485D02*
X111559190Y-88893104D01*
X111559190Y-88893104D02*
X112130619Y-89464532D01*
X112130619Y-89464532D02*
X112130619Y-88845485D01*
%TO.C,R2*%
X127985933Y-83133219D02*
X127652600Y-82657028D01*
X127414505Y-83133219D02*
X127414505Y-82133219D01*
X127414505Y-82133219D02*
X127795457Y-82133219D01*
X127795457Y-82133219D02*
X127890695Y-82180838D01*
X127890695Y-82180838D02*
X127938314Y-82228457D01*
X127938314Y-82228457D02*
X127985933Y-82323695D01*
X127985933Y-82323695D02*
X127985933Y-82466552D01*
X127985933Y-82466552D02*
X127938314Y-82561790D01*
X127938314Y-82561790D02*
X127890695Y-82609409D01*
X127890695Y-82609409D02*
X127795457Y-82657028D01*
X127795457Y-82657028D02*
X127414505Y-82657028D01*
X128366886Y-82228457D02*
X128414505Y-82180838D01*
X128414505Y-82180838D02*
X128509743Y-82133219D01*
X128509743Y-82133219D02*
X128747838Y-82133219D01*
X128747838Y-82133219D02*
X128843076Y-82180838D01*
X128843076Y-82180838D02*
X128890695Y-82228457D01*
X128890695Y-82228457D02*
X128938314Y-82323695D01*
X128938314Y-82323695D02*
X128938314Y-82418933D01*
X128938314Y-82418933D02*
X128890695Y-82561790D01*
X128890695Y-82561790D02*
X128319267Y-83133219D01*
X128319267Y-83133219D02*
X128938314Y-83133219D01*
%TO.C,R3*%
X120157019Y-89645466D02*
X119680828Y-89978799D01*
X120157019Y-90216894D02*
X119157019Y-90216894D01*
X119157019Y-90216894D02*
X119157019Y-89835942D01*
X119157019Y-89835942D02*
X119204638Y-89740704D01*
X119204638Y-89740704D02*
X119252257Y-89693085D01*
X119252257Y-89693085D02*
X119347495Y-89645466D01*
X119347495Y-89645466D02*
X119490352Y-89645466D01*
X119490352Y-89645466D02*
X119585590Y-89693085D01*
X119585590Y-89693085D02*
X119633209Y-89740704D01*
X119633209Y-89740704D02*
X119680828Y-89835942D01*
X119680828Y-89835942D02*
X119680828Y-90216894D01*
X119157019Y-89312132D02*
X119157019Y-88693085D01*
X119157019Y-88693085D02*
X119537971Y-89026418D01*
X119537971Y-89026418D02*
X119537971Y-88883561D01*
X119537971Y-88883561D02*
X119585590Y-88788323D01*
X119585590Y-88788323D02*
X119633209Y-88740704D01*
X119633209Y-88740704D02*
X119728447Y-88693085D01*
X119728447Y-88693085D02*
X119966542Y-88693085D01*
X119966542Y-88693085D02*
X120061780Y-88740704D01*
X120061780Y-88740704D02*
X120109400Y-88788323D01*
X120109400Y-88788323D02*
X120157019Y-88883561D01*
X120157019Y-88883561D02*
X120157019Y-89169275D01*
X120157019Y-89169275D02*
X120109400Y-89264513D01*
X120109400Y-89264513D02*
X120061780Y-89312132D01*
%TO.C,R7*%
X115331019Y-89670866D02*
X114854828Y-90004199D01*
X115331019Y-90242294D02*
X114331019Y-90242294D01*
X114331019Y-90242294D02*
X114331019Y-89861342D01*
X114331019Y-89861342D02*
X114378638Y-89766104D01*
X114378638Y-89766104D02*
X114426257Y-89718485D01*
X114426257Y-89718485D02*
X114521495Y-89670866D01*
X114521495Y-89670866D02*
X114664352Y-89670866D01*
X114664352Y-89670866D02*
X114759590Y-89718485D01*
X114759590Y-89718485D02*
X114807209Y-89766104D01*
X114807209Y-89766104D02*
X114854828Y-89861342D01*
X114854828Y-89861342D02*
X114854828Y-90242294D01*
X114331019Y-89337532D02*
X114331019Y-88670866D01*
X114331019Y-88670866D02*
X115331019Y-89099437D01*
%TO.C,J2*%
X88891019Y-91793333D02*
X89605304Y-91793333D01*
X89605304Y-91793333D02*
X89748161Y-91840952D01*
X89748161Y-91840952D02*
X89843400Y-91936190D01*
X89843400Y-91936190D02*
X89891019Y-92079047D01*
X89891019Y-92079047D02*
X89891019Y-92174285D01*
X88986257Y-91364761D02*
X88938638Y-91317142D01*
X88938638Y-91317142D02*
X88891019Y-91221904D01*
X88891019Y-91221904D02*
X88891019Y-90983809D01*
X88891019Y-90983809D02*
X88938638Y-90888571D01*
X88938638Y-90888571D02*
X88986257Y-90840952D01*
X88986257Y-90840952D02*
X89081495Y-90793333D01*
X89081495Y-90793333D02*
X89176733Y-90793333D01*
X89176733Y-90793333D02*
X89319590Y-90840952D01*
X89319590Y-90840952D02*
X89891019Y-91412380D01*
X89891019Y-91412380D02*
X89891019Y-90793333D01*
%TO.C,R8*%
X128214533Y-95707219D02*
X127881200Y-95231028D01*
X127643105Y-95707219D02*
X127643105Y-94707219D01*
X127643105Y-94707219D02*
X128024057Y-94707219D01*
X128024057Y-94707219D02*
X128119295Y-94754838D01*
X128119295Y-94754838D02*
X128166914Y-94802457D01*
X128166914Y-94802457D02*
X128214533Y-94897695D01*
X128214533Y-94897695D02*
X128214533Y-95040552D01*
X128214533Y-95040552D02*
X128166914Y-95135790D01*
X128166914Y-95135790D02*
X128119295Y-95183409D01*
X128119295Y-95183409D02*
X128024057Y-95231028D01*
X128024057Y-95231028D02*
X127643105Y-95231028D01*
X128785962Y-95135790D02*
X128690724Y-95088171D01*
X128690724Y-95088171D02*
X128643105Y-95040552D01*
X128643105Y-95040552D02*
X128595486Y-94945314D01*
X128595486Y-94945314D02*
X128595486Y-94897695D01*
X128595486Y-94897695D02*
X128643105Y-94802457D01*
X128643105Y-94802457D02*
X128690724Y-94754838D01*
X128690724Y-94754838D02*
X128785962Y-94707219D01*
X128785962Y-94707219D02*
X128976438Y-94707219D01*
X128976438Y-94707219D02*
X129071676Y-94754838D01*
X129071676Y-94754838D02*
X129119295Y-94802457D01*
X129119295Y-94802457D02*
X129166914Y-94897695D01*
X129166914Y-94897695D02*
X129166914Y-94945314D01*
X129166914Y-94945314D02*
X129119295Y-95040552D01*
X129119295Y-95040552D02*
X129071676Y-95088171D01*
X129071676Y-95088171D02*
X128976438Y-95135790D01*
X128976438Y-95135790D02*
X128785962Y-95135790D01*
X128785962Y-95135790D02*
X128690724Y-95183409D01*
X128690724Y-95183409D02*
X128643105Y-95231028D01*
X128643105Y-95231028D02*
X128595486Y-95326266D01*
X128595486Y-95326266D02*
X128595486Y-95516742D01*
X128595486Y-95516742D02*
X128643105Y-95611980D01*
X128643105Y-95611980D02*
X128690724Y-95659600D01*
X128690724Y-95659600D02*
X128785962Y-95707219D01*
X128785962Y-95707219D02*
X128976438Y-95707219D01*
X128976438Y-95707219D02*
X129071676Y-95659600D01*
X129071676Y-95659600D02*
X129119295Y-95611980D01*
X129119295Y-95611980D02*
X129166914Y-95516742D01*
X129166914Y-95516742D02*
X129166914Y-95326266D01*
X129166914Y-95326266D02*
X129119295Y-95231028D01*
X129119295Y-95231028D02*
X129071676Y-95183409D01*
X129071676Y-95183409D02*
X128976438Y-95135790D01*
%TO.C,C4*%
X89784980Y-96706666D02*
X89832600Y-96754285D01*
X89832600Y-96754285D02*
X89880219Y-96897142D01*
X89880219Y-96897142D02*
X89880219Y-96992380D01*
X89880219Y-96992380D02*
X89832600Y-97135237D01*
X89832600Y-97135237D02*
X89737361Y-97230475D01*
X89737361Y-97230475D02*
X89642123Y-97278094D01*
X89642123Y-97278094D02*
X89451647Y-97325713D01*
X89451647Y-97325713D02*
X89308790Y-97325713D01*
X89308790Y-97325713D02*
X89118314Y-97278094D01*
X89118314Y-97278094D02*
X89023076Y-97230475D01*
X89023076Y-97230475D02*
X88927838Y-97135237D01*
X88927838Y-97135237D02*
X88880219Y-96992380D01*
X88880219Y-96992380D02*
X88880219Y-96897142D01*
X88880219Y-96897142D02*
X88927838Y-96754285D01*
X88927838Y-96754285D02*
X88975457Y-96706666D01*
X89213552Y-95849523D02*
X89880219Y-95849523D01*
X88832600Y-96087618D02*
X89546885Y-96325713D01*
X89546885Y-96325713D02*
X89546885Y-95706666D01*
%TO.C,R6*%
X127757333Y-77621419D02*
X127424000Y-77145228D01*
X127185905Y-77621419D02*
X127185905Y-76621419D01*
X127185905Y-76621419D02*
X127566857Y-76621419D01*
X127566857Y-76621419D02*
X127662095Y-76669038D01*
X127662095Y-76669038D02*
X127709714Y-76716657D01*
X127709714Y-76716657D02*
X127757333Y-76811895D01*
X127757333Y-76811895D02*
X127757333Y-76954752D01*
X127757333Y-76954752D02*
X127709714Y-77049990D01*
X127709714Y-77049990D02*
X127662095Y-77097609D01*
X127662095Y-77097609D02*
X127566857Y-77145228D01*
X127566857Y-77145228D02*
X127185905Y-77145228D01*
X128614476Y-76621419D02*
X128424000Y-76621419D01*
X128424000Y-76621419D02*
X128328762Y-76669038D01*
X128328762Y-76669038D02*
X128281143Y-76716657D01*
X128281143Y-76716657D02*
X128185905Y-76859514D01*
X128185905Y-76859514D02*
X128138286Y-77049990D01*
X128138286Y-77049990D02*
X128138286Y-77430942D01*
X128138286Y-77430942D02*
X128185905Y-77526180D01*
X128185905Y-77526180D02*
X128233524Y-77573800D01*
X128233524Y-77573800D02*
X128328762Y-77621419D01*
X128328762Y-77621419D02*
X128519238Y-77621419D01*
X128519238Y-77621419D02*
X128614476Y-77573800D01*
X128614476Y-77573800D02*
X128662095Y-77526180D01*
X128662095Y-77526180D02*
X128709714Y-77430942D01*
X128709714Y-77430942D02*
X128709714Y-77192847D01*
X128709714Y-77192847D02*
X128662095Y-77097609D01*
X128662095Y-77097609D02*
X128614476Y-77049990D01*
X128614476Y-77049990D02*
X128519238Y-77002371D01*
X128519238Y-77002371D02*
X128328762Y-77002371D01*
X128328762Y-77002371D02*
X128233524Y-77049990D01*
X128233524Y-77049990D02*
X128185905Y-77097609D01*
X128185905Y-77097609D02*
X128138286Y-77192847D01*
%TO.C,U4*%
X90382895Y-54269019D02*
X90382895Y-55078542D01*
X90382895Y-55078542D02*
X90430514Y-55173780D01*
X90430514Y-55173780D02*
X90478133Y-55221400D01*
X90478133Y-55221400D02*
X90573371Y-55269019D01*
X90573371Y-55269019D02*
X90763847Y-55269019D01*
X90763847Y-55269019D02*
X90859085Y-55221400D01*
X90859085Y-55221400D02*
X90906704Y-55173780D01*
X90906704Y-55173780D02*
X90954323Y-55078542D01*
X90954323Y-55078542D02*
X90954323Y-54269019D01*
X91859085Y-54602352D02*
X91859085Y-55269019D01*
X91620990Y-54221400D02*
X91382895Y-54935685D01*
X91382895Y-54935685D02*
X92001942Y-54935685D01*
%TO.C,U2*%
X92584419Y-91434904D02*
X93393942Y-91434904D01*
X93393942Y-91434904D02*
X93489180Y-91387285D01*
X93489180Y-91387285D02*
X93536800Y-91339666D01*
X93536800Y-91339666D02*
X93584419Y-91244428D01*
X93584419Y-91244428D02*
X93584419Y-91053952D01*
X93584419Y-91053952D02*
X93536800Y-90958714D01*
X93536800Y-90958714D02*
X93489180Y-90911095D01*
X93489180Y-90911095D02*
X93393942Y-90863476D01*
X93393942Y-90863476D02*
X92584419Y-90863476D01*
X92679657Y-90434904D02*
X92632038Y-90387285D01*
X92632038Y-90387285D02*
X92584419Y-90292047D01*
X92584419Y-90292047D02*
X92584419Y-90053952D01*
X92584419Y-90053952D02*
X92632038Y-89958714D01*
X92632038Y-89958714D02*
X92679657Y-89911095D01*
X92679657Y-89911095D02*
X92774895Y-89863476D01*
X92774895Y-89863476D02*
X92870133Y-89863476D01*
X92870133Y-89863476D02*
X93012990Y-89911095D01*
X93012990Y-89911095D02*
X93584419Y-90482523D01*
X93584419Y-90482523D02*
X93584419Y-89863476D01*
%TO.C,R11*%
X126582219Y-102339057D02*
X126106028Y-102672390D01*
X126582219Y-102910485D02*
X125582219Y-102910485D01*
X125582219Y-102910485D02*
X125582219Y-102529533D01*
X125582219Y-102529533D02*
X125629838Y-102434295D01*
X125629838Y-102434295D02*
X125677457Y-102386676D01*
X125677457Y-102386676D02*
X125772695Y-102339057D01*
X125772695Y-102339057D02*
X125915552Y-102339057D01*
X125915552Y-102339057D02*
X126010790Y-102386676D01*
X126010790Y-102386676D02*
X126058409Y-102434295D01*
X126058409Y-102434295D02*
X126106028Y-102529533D01*
X126106028Y-102529533D02*
X126106028Y-102910485D01*
X126582219Y-101386676D02*
X126582219Y-101958104D01*
X126582219Y-101672390D02*
X125582219Y-101672390D01*
X125582219Y-101672390D02*
X125725076Y-101767628D01*
X125725076Y-101767628D02*
X125820314Y-101862866D01*
X125820314Y-101862866D02*
X125867933Y-101958104D01*
X126582219Y-100434295D02*
X126582219Y-101005723D01*
X126582219Y-100720009D02*
X125582219Y-100720009D01*
X125582219Y-100720009D02*
X125725076Y-100815247D01*
X125725076Y-100815247D02*
X125820314Y-100910485D01*
X125820314Y-100910485D02*
X125867933Y-101005723D01*
%TO.C,C1*%
X101675433Y-67497780D02*
X101627814Y-67545400D01*
X101627814Y-67545400D02*
X101484957Y-67593019D01*
X101484957Y-67593019D02*
X101389719Y-67593019D01*
X101389719Y-67593019D02*
X101246862Y-67545400D01*
X101246862Y-67545400D02*
X101151624Y-67450161D01*
X101151624Y-67450161D02*
X101104005Y-67354923D01*
X101104005Y-67354923D02*
X101056386Y-67164447D01*
X101056386Y-67164447D02*
X101056386Y-67021590D01*
X101056386Y-67021590D02*
X101104005Y-66831114D01*
X101104005Y-66831114D02*
X101151624Y-66735876D01*
X101151624Y-66735876D02*
X101246862Y-66640638D01*
X101246862Y-66640638D02*
X101389719Y-66593019D01*
X101389719Y-66593019D02*
X101484957Y-66593019D01*
X101484957Y-66593019D02*
X101627814Y-66640638D01*
X101627814Y-66640638D02*
X101675433Y-66688257D01*
X102627814Y-67593019D02*
X102056386Y-67593019D01*
X102342100Y-67593019D02*
X102342100Y-66593019D01*
X102342100Y-66593019D02*
X102246862Y-66735876D01*
X102246862Y-66735876D02*
X102151624Y-66831114D01*
X102151624Y-66831114D02*
X102056386Y-66878733D01*
%TO.C,C2*%
X102840580Y-96427266D02*
X102888200Y-96474885D01*
X102888200Y-96474885D02*
X102935819Y-96617742D01*
X102935819Y-96617742D02*
X102935819Y-96712980D01*
X102935819Y-96712980D02*
X102888200Y-96855837D01*
X102888200Y-96855837D02*
X102792961Y-96951075D01*
X102792961Y-96951075D02*
X102697723Y-96998694D01*
X102697723Y-96998694D02*
X102507247Y-97046313D01*
X102507247Y-97046313D02*
X102364390Y-97046313D01*
X102364390Y-97046313D02*
X102173914Y-96998694D01*
X102173914Y-96998694D02*
X102078676Y-96951075D01*
X102078676Y-96951075D02*
X101983438Y-96855837D01*
X101983438Y-96855837D02*
X101935819Y-96712980D01*
X101935819Y-96712980D02*
X101935819Y-96617742D01*
X101935819Y-96617742D02*
X101983438Y-96474885D01*
X101983438Y-96474885D02*
X102031057Y-96427266D01*
X102031057Y-96046313D02*
X101983438Y-95998694D01*
X101983438Y-95998694D02*
X101935819Y-95903456D01*
X101935819Y-95903456D02*
X101935819Y-95665361D01*
X101935819Y-95665361D02*
X101983438Y-95570123D01*
X101983438Y-95570123D02*
X102031057Y-95522504D01*
X102031057Y-95522504D02*
X102126295Y-95474885D01*
X102126295Y-95474885D02*
X102221533Y-95474885D01*
X102221533Y-95474885D02*
X102364390Y-95522504D01*
X102364390Y-95522504D02*
X102935819Y-96093932D01*
X102935819Y-96093932D02*
X102935819Y-95474885D01*
%TO.C,R9*%
X130443019Y-102177066D02*
X129966828Y-102510399D01*
X130443019Y-102748494D02*
X129443019Y-102748494D01*
X129443019Y-102748494D02*
X129443019Y-102367542D01*
X129443019Y-102367542D02*
X129490638Y-102272304D01*
X129490638Y-102272304D02*
X129538257Y-102224685D01*
X129538257Y-102224685D02*
X129633495Y-102177066D01*
X129633495Y-102177066D02*
X129776352Y-102177066D01*
X129776352Y-102177066D02*
X129871590Y-102224685D01*
X129871590Y-102224685D02*
X129919209Y-102272304D01*
X129919209Y-102272304D02*
X129966828Y-102367542D01*
X129966828Y-102367542D02*
X129966828Y-102748494D01*
X130443019Y-101700875D02*
X130443019Y-101510399D01*
X130443019Y-101510399D02*
X130395400Y-101415161D01*
X130395400Y-101415161D02*
X130347780Y-101367542D01*
X130347780Y-101367542D02*
X130204923Y-101272304D01*
X130204923Y-101272304D02*
X130014447Y-101224685D01*
X130014447Y-101224685D02*
X129633495Y-101224685D01*
X129633495Y-101224685D02*
X129538257Y-101272304D01*
X129538257Y-101272304D02*
X129490638Y-101319923D01*
X129490638Y-101319923D02*
X129443019Y-101415161D01*
X129443019Y-101415161D02*
X129443019Y-101605637D01*
X129443019Y-101605637D02*
X129490638Y-101700875D01*
X129490638Y-101700875D02*
X129538257Y-101748494D01*
X129538257Y-101748494D02*
X129633495Y-101796113D01*
X129633495Y-101796113D02*
X129871590Y-101796113D01*
X129871590Y-101796113D02*
X129966828Y-101748494D01*
X129966828Y-101748494D02*
X130014447Y-101700875D01*
X130014447Y-101700875D02*
X130062066Y-101605637D01*
X130062066Y-101605637D02*
X130062066Y-101415161D01*
X130062066Y-101415161D02*
X130014447Y-101319923D01*
X130014447Y-101319923D02*
X129966828Y-101272304D01*
X129966828Y-101272304D02*
X129871590Y-101224685D01*
%TO.C,R10*%
X126582219Y-98021057D02*
X126106028Y-98354390D01*
X126582219Y-98592485D02*
X125582219Y-98592485D01*
X125582219Y-98592485D02*
X125582219Y-98211533D01*
X125582219Y-98211533D02*
X125629838Y-98116295D01*
X125629838Y-98116295D02*
X125677457Y-98068676D01*
X125677457Y-98068676D02*
X125772695Y-98021057D01*
X125772695Y-98021057D02*
X125915552Y-98021057D01*
X125915552Y-98021057D02*
X126010790Y-98068676D01*
X126010790Y-98068676D02*
X126058409Y-98116295D01*
X126058409Y-98116295D02*
X126106028Y-98211533D01*
X126106028Y-98211533D02*
X126106028Y-98592485D01*
X126582219Y-97068676D02*
X126582219Y-97640104D01*
X126582219Y-97354390D02*
X125582219Y-97354390D01*
X125582219Y-97354390D02*
X125725076Y-97449628D01*
X125725076Y-97449628D02*
X125820314Y-97544866D01*
X125820314Y-97544866D02*
X125867933Y-97640104D01*
X125582219Y-96449628D02*
X125582219Y-96354390D01*
X125582219Y-96354390D02*
X125629838Y-96259152D01*
X125629838Y-96259152D02*
X125677457Y-96211533D01*
X125677457Y-96211533D02*
X125772695Y-96163914D01*
X125772695Y-96163914D02*
X125963171Y-96116295D01*
X125963171Y-96116295D02*
X126201266Y-96116295D01*
X126201266Y-96116295D02*
X126391742Y-96163914D01*
X126391742Y-96163914D02*
X126486980Y-96211533D01*
X126486980Y-96211533D02*
X126534600Y-96259152D01*
X126534600Y-96259152D02*
X126582219Y-96354390D01*
X126582219Y-96354390D02*
X126582219Y-96449628D01*
X126582219Y-96449628D02*
X126534600Y-96544866D01*
X126534600Y-96544866D02*
X126486980Y-96592485D01*
X126486980Y-96592485D02*
X126391742Y-96640104D01*
X126391742Y-96640104D02*
X126201266Y-96687723D01*
X126201266Y-96687723D02*
X125963171Y-96687723D01*
X125963171Y-96687723D02*
X125772695Y-96640104D01*
X125772695Y-96640104D02*
X125677457Y-96592485D01*
X125677457Y-96592485D02*
X125629838Y-96544866D01*
X125629838Y-96544866D02*
X125582219Y-96449628D01*
%TO.C,R4*%
X109692219Y-89670866D02*
X109216028Y-90004199D01*
X109692219Y-90242294D02*
X108692219Y-90242294D01*
X108692219Y-90242294D02*
X108692219Y-89861342D01*
X108692219Y-89861342D02*
X108739838Y-89766104D01*
X108739838Y-89766104D02*
X108787457Y-89718485D01*
X108787457Y-89718485D02*
X108882695Y-89670866D01*
X108882695Y-89670866D02*
X109025552Y-89670866D01*
X109025552Y-89670866D02*
X109120790Y-89718485D01*
X109120790Y-89718485D02*
X109168409Y-89766104D01*
X109168409Y-89766104D02*
X109216028Y-89861342D01*
X109216028Y-89861342D02*
X109216028Y-90242294D01*
X109025552Y-88813723D02*
X109692219Y-88813723D01*
X108644600Y-89051818D02*
X109358885Y-89289913D01*
X109358885Y-89289913D02*
X109358885Y-88670866D01*
D11*
%TO.C,U1*%
X122928400Y-57022600D02*
X122928400Y-63437600D01*
X104688400Y-57022600D02*
X122928400Y-57022600D01*
X104688400Y-57022600D02*
X104688400Y-63437600D01*
X122928400Y-81982600D02*
X122928400Y-82762600D01*
X122928400Y-82762600D02*
X121928400Y-82762600D01*
X104688400Y-63437600D02*
X104308400Y-63437600D01*
X104688400Y-81982600D02*
X104688400Y-82762600D01*
X104688400Y-82762600D02*
X105688400Y-82762600D01*
%TO.C,SW3*%
X106962200Y-99511800D02*
X106962200Y-97451800D01*
X106962200Y-97451800D02*
X104842200Y-97451800D01*
X106962200Y-99511800D02*
X104842200Y-99511800D01*
X106962200Y-101571800D02*
X105902200Y-101571800D01*
X106962200Y-100511800D02*
X106962200Y-101571800D01*
X104842200Y-99511800D02*
X104842200Y-97451800D01*
%TO.C,J1*%
X132528200Y-75460800D02*
X132528200Y-69400800D01*
X134648200Y-75460800D02*
X132528200Y-75460800D01*
X134648200Y-77520800D02*
X133588200Y-77520800D01*
X134648200Y-69400800D02*
X132528200Y-69400800D01*
X134648200Y-76460800D02*
X134648200Y-77520800D01*
X134648200Y-75460800D02*
X134648200Y-69400800D01*
%TO.C,R5*%
X128125664Y-67734800D02*
X127671536Y-67734800D01*
X128125664Y-66264800D02*
X127671536Y-66264800D01*
%TO.C,R1*%
X101652536Y-68144400D02*
X102106664Y-68144400D01*
X101652536Y-69614400D02*
X102106664Y-69614400D01*
%TO.C,C3*%
X93226000Y-92896648D02*
X93226000Y-93419152D01*
X91756000Y-92896648D02*
X91756000Y-93419152D01*
%TO.C,D1*%
X118114400Y-88325200D02*
X118114400Y-85465200D01*
X116194400Y-85465200D02*
X116194400Y-88325200D01*
X116194400Y-88325200D02*
X118114400Y-88325200D01*
%TO.C,D2*%
X112602600Y-88290800D02*
X112602600Y-85430800D01*
X110682600Y-85430800D02*
X110682600Y-88290800D01*
X110682600Y-88290800D02*
X112602600Y-88290800D01*
%TO.C,R2*%
X128379664Y-81755600D02*
X127925536Y-81755600D01*
X128379664Y-80285600D02*
X127925536Y-80285600D01*
%TO.C,R3*%
X118984800Y-86464064D02*
X118984800Y-86009936D01*
X120454800Y-86464064D02*
X120454800Y-86009936D01*
%TO.C,R7*%
X113981000Y-86683264D02*
X113981000Y-86229136D01*
X115451000Y-86683264D02*
X115451000Y-86229136D01*
%TO.C,J2*%
X81728400Y-96060000D02*
X73128400Y-96060000D01*
X73128400Y-86860000D02*
X87628400Y-86860000D01*
X87628400Y-94060000D02*
X87628400Y-96060000D01*
X87628400Y-96060000D02*
X86328400Y-96060000D01*
X87928400Y-88260000D02*
X87928400Y-86560000D01*
X73128400Y-96060000D02*
X73128400Y-86860000D01*
X87628400Y-86860000D02*
X87628400Y-88860000D01*
X87928400Y-86560000D02*
X86628400Y-86560000D01*
%TO.C,SW2*%
X121895000Y-92035600D02*
X121895000Y-86515600D01*
X123286000Y-86515600D02*
X124555000Y-86515600D01*
X121895000Y-92035600D02*
X122545000Y-92035600D01*
X123286000Y-92035600D02*
X124555000Y-92035600D01*
X124555000Y-92035600D02*
X124555000Y-86515600D01*
X122545000Y-93885600D02*
X122545000Y-92035600D01*
X121895000Y-86515600D02*
X123164000Y-86515600D01*
%TO.C,R8*%
X129065400Y-97465336D02*
X129065400Y-97919464D01*
X127595400Y-97465336D02*
X127595400Y-97919464D01*
%TO.C,C4*%
X88784200Y-93626252D02*
X88784200Y-93103748D01*
X90254200Y-93626252D02*
X90254200Y-93103748D01*
%TO.C,R6*%
X128151064Y-76243800D02*
X127696936Y-76243800D01*
X128151064Y-74773800D02*
X127696936Y-74773800D01*
%TO.C,U4*%
X98891800Y-63672400D02*
X82127800Y-63672400D01*
X82127800Y-63672400D02*
X82127800Y-85770400D01*
X82127800Y-85770400D02*
X98891800Y-85770400D01*
X98891800Y-85770400D02*
X98891800Y-63672400D01*
%TO.C,U2*%
X94211800Y-94773000D02*
X94211800Y-88763000D01*
X101031800Y-92523000D02*
X101031800Y-88763000D01*
X101031800Y-88763000D02*
X99771800Y-88763000D01*
X94211800Y-88763000D02*
X95471800Y-88763000D01*
%TO.C,R11*%
X125204600Y-101469136D02*
X125204600Y-101923264D01*
X123734600Y-101469136D02*
X123734600Y-101923264D01*
%TO.C,C1*%
X102103352Y-66185400D02*
X101580848Y-66185400D01*
X102103352Y-64715400D02*
X101580848Y-64715400D01*
%TO.C,SW1*%
X106521000Y-86617200D02*
X106521000Y-92137200D01*
X105130000Y-92137200D02*
X103861000Y-92137200D01*
X106521000Y-86617200D02*
X105871000Y-86617200D01*
X105130000Y-86617200D02*
X103861000Y-86617200D01*
X103861000Y-86617200D02*
X103861000Y-92137200D01*
X105871000Y-84767200D02*
X105871000Y-86617200D01*
X106521000Y-92137200D02*
X105252000Y-92137200D01*
%TO.C,C2*%
X101763600Y-93241352D02*
X101763600Y-92718848D01*
X103233600Y-93241352D02*
X103233600Y-92718848D01*
%TO.C,R9*%
X129065400Y-101783336D02*
X129065400Y-102237464D01*
X127595400Y-101783336D02*
X127595400Y-102237464D01*
%TO.C,R10*%
X125204600Y-97151136D02*
X125204600Y-97605264D01*
X123734600Y-97151136D02*
X123734600Y-97605264D01*
%TO.C,R4*%
X108520000Y-86784864D02*
X108520000Y-86330736D01*
X109990000Y-86784864D02*
X109990000Y-86330736D01*
%TO.C,SW4*%
X109109400Y-99791200D02*
X109109400Y-101851200D01*
X109109400Y-101851200D02*
X111229400Y-101851200D01*
X109109400Y-99791200D02*
X111229400Y-99791200D01*
X109109400Y-97731200D02*
X110169400Y-97731200D01*
X109109400Y-98791200D02*
X109109400Y-97731200D01*
X111229400Y-99791200D02*
X111229400Y-101851200D01*
%TO.C,SW5*%
X113173400Y-99775200D02*
X113173400Y-101835200D01*
X113173400Y-101835200D02*
X115293400Y-101835200D01*
X113173400Y-99775200D02*
X115293400Y-99775200D01*
X113173400Y-97715200D02*
X114233400Y-97715200D01*
X113173400Y-98775200D02*
X113173400Y-97715200D01*
X115293400Y-99775200D02*
X115293400Y-101835200D01*
%TO.C,SW6*%
X117669200Y-99724400D02*
X117669200Y-101784400D01*
X117669200Y-101784400D02*
X119789200Y-101784400D01*
X117669200Y-99724400D02*
X119789200Y-99724400D01*
X117669200Y-97664400D02*
X118729200Y-97664400D01*
X117669200Y-98724400D02*
X117669200Y-97664400D01*
X119789200Y-99724400D02*
X119789200Y-101784400D01*
%TO.C,U3*%
X132502800Y-95394200D02*
X132502800Y-103454200D01*
X134622800Y-95394200D02*
X134622800Y-103454200D01*
X132502800Y-93334200D02*
X133562800Y-93334200D01*
X132502800Y-103454200D02*
X134622800Y-103454200D01*
X132502800Y-94394200D02*
X132502800Y-93334200D01*
X132502800Y-95394200D02*
X134622800Y-95394200D01*
%TO.C,U5*%
X100279400Y-102172000D02*
X102339400Y-102172000D01*
X102339400Y-102172000D02*
X102339400Y-100052000D01*
X100279400Y-102172000D02*
X100279400Y-100052000D01*
X98219400Y-102172000D02*
X98219400Y-101112000D01*
X99279400Y-102172000D02*
X98219400Y-102172000D01*
X100279400Y-100052000D02*
X102339400Y-100052000D01*
%TD*%
M02*
