M48
; DRILL file {KiCad 7.0.1} date Tue Mar 21 16:33:20 2023
; FORMAT={-:-/ absolute / inch / decimal}
; #@! TF.CreationDate,2023-03-21T16:33:20+01:00
; #@! TF.GenerationSoftware,Kicad,Pcbnew,7.0.1
; #@! TF.FileFunction,MixedPlating,1,2
FMAT,2
INCH
; #@! TA.AperFunction,Plated,PTH,ComponentDrill
T1C0.0118
; #@! TA.AperFunction,Plated,PTH,ComponentDrill
T2C0.0130
; #@! TA.AperFunction,Plated,PTH,ViaDrill
T3C0.0157
; #@! TA.AperFunction,Plated,PTH,ComponentDrill
T4C0.0315
; #@! TA.AperFunction,Plated,PTH,ComponentDrill
T5C0.0394
; #@! TA.AperFunction,Plated,PTH,ComponentDrill
T6C0.0500
%
G90
G05
T1
X4.3938Y-2.8035
X4.3938Y-2.8636
X4.4239Y-2.7735
X4.4239Y-2.8336
X4.4239Y-2.8936
X4.4539Y-2.8035
X4.4539Y-2.8636
X4.4839Y-2.7735
X4.4839Y-2.8336
X4.5139Y-2.8035
X4.5139Y-2.8636
T2
X4.4839Y-2.8936
T3
X3.16Y-3.14
X3.2004Y-2.6968
X3.26Y-3.66
X3.5524Y-4.0698
X3.5814Y-2.9598
X3.65Y-3.5
X3.8284Y-2.6708
X3.9324Y-3.6228
X4.0194Y-3.3908
X4.0664Y-2.8128
X4.0744Y-2.8958
X4.0784Y-2.9728
X4.2254Y-3.6198
X4.38Y-2.62
X4.4524Y-2.8338
X4.5484Y-3.6548
X4.5864Y-3.0298
X4.6904Y-3.6258
X4.7624Y-2.7998
X4.7624Y-2.9398
X4.7634Y-2.8928
X4.7904Y-3.9358
X4.8984Y-3.9138
X4.9174Y-3.3428
X4.9704Y-3.0768
X4.9774Y-2.8338
X5.0464Y-3.3978
X5.0574Y-2.7568
X5.0634Y-3.9298
X5.3454Y-3.3118
X5.43Y-2.57
X5.45Y-3.84
T4
X3.9086Y-3.9808
X3.9874Y-3.9808
X4.1694Y-3.8784
X4.1694Y-3.9572
X4.3374Y-3.8894
X4.3374Y-3.9682
X4.4974Y-3.8888
X4.4974Y-3.9675
X4.6744Y-3.8868
X4.6744Y-3.9655
X5.2584Y-3.7163
X5.2584Y-3.795
X5.2584Y-3.8738
X5.2584Y-3.9525
X5.2584Y-4.0313
X5.2594Y-2.774
X5.2594Y-2.8528
X5.2594Y-2.9315
X5.2594Y-3.0103
T6
X3.3084Y-2.5768
X3.3084Y-3.3068
X3.4084Y-2.5768
X3.4084Y-3.3068
X3.7284Y-2.5768
X3.7284Y-3.3068
X3.8284Y-2.5768
X3.8284Y-3.3068
T5
G00X3.1743Y-3.5575
M15
G01X3.1743Y-3.6441
M16
G05
G00X3.3515Y-3.7898
M15
G01X3.2649Y-3.7898
M16
G05
G00X3.4224Y-3.5496
M15
G01X3.4224Y-3.652
M16
G05
T0
M30
