<?xml version="1.0" encoding="UTF-8" standalone="no"?>
<svg
   width="732mm"
   height="262mm"
   viewBox="0 0 732 262"
   version="1.1"
   preserveAspectRatio="xMidYMid meet"
   id="svg431"
   sodipodi:docname="doos_spiegel_3_v2.svg"
   inkscape:version="1.2.2 (732a01da63, 2022-12-09)"
   xmlns:inkscape="http://www.inkscape.org/namespaces/inkscape"
   xmlns:sodipodi="http://sodipodi.sourceforge.net/DTD/sodipodi-0.dtd"
   xmlns="http://www.w3.org/2000/svg"
   xmlns:svg="http://www.w3.org/2000/svg">
  <defs
     id="defs435" />
  <sodipodi:namedview
     id="namedview433"
     pagecolor="#ffffff"
     bordercolor="#000000"
     borderopacity="0.25"
     inkscape:showpageshadow="2"
     inkscape:pageopacity="0.0"
     inkscape:pagecheckerboard="0"
     inkscape:deskcolor="#d1d1d1"
     inkscape:document-units="mm"
     showgrid="false"
     inkscape:zoom="0.51470856"
     inkscape:cx="1384.2785"
     inkscape:cy="496.39742"
     inkscape:window-width="1920"
     inkscape:window-height="1001"
     inkscape:window-x="-9"
     inkscape:window-y="-9"
     inkscape:window-maximized="1"
     inkscape:current-layer="svg431" />
  <g
     id="svgGroup"
     stroke-linecap="round"
     fill-rule="evenodd"
     font-size="9pt"
     stroke="#000"
     stroke-width="0.25mm"
     fill="none"
     style="stroke:#000;stroke-width:0.25mm;fill:none">
    <path
       d="M 0 162 L 0 179.81 L 6 179.81 L 6 201.27 L 0 201.27 L 0 222.73 L 6 222.73 L 6 244.19 L 0 244.19 L 0 262 L 19.43 262 L 19.43 256 L 40.89 256 L 40.89 262 L 62.35 262 L 62.35 256 L 83.81 256 L 83.81 262 L 105.27 262 L 105.27 256 L 126.73 256 L 126.73 262 L 148.19 262 L 148.19 256 L 169.65 256 L 169.65 262 L 191.11 262 L 191.11 256 L 212.57 256 L 212.57 262 L 232 262 L 232 244.19 L 226 244.19 L 226 222.73 L 232 222.73 L 232 201.27 L 226 201.27 L 226 179.81 L 232 179.81 L 232 162 L 0 162 Z"
       id="front_outsideCutPath"
       stroke="#FF0000"
       stroke-width="0.1"
       style="stroke:#FF0000;stroke-width:0.1"
       vector-effect="non-scaling-stroke" />
    <path
       d="M 130.575 219.553 L 128.954 219.553 L 128.954 212.63 Q 128.954 211.796 128.712 211.231 A 1.928 1.928 0 0 0 128.358 210.677 A 1.828 1.828 0 0 0 127.609 210.198 Q 127.314 210.094 126.952 210.055 A 4.298 4.298 0 0 0 126.493 210.032 Q 125.387 210.032 124.67 210.426 A 2.286 2.286 0 0 0 124.032 210.94 A 2.65 2.65 0 0 0 123.572 211.746 Q 123.294 212.484 123.257 213.586 A 10.385 10.385 0 0 0 123.251 213.938 L 123.251 219.553 L 121.63 219.553 L 121.63 208.85 L 122.948 208.85 L 123.212 210.315 L 123.29 210.315 A 3.283 3.283 0 0 1 124.576 209.145 A 3.947 3.947 0 0 1 124.687 209.09 A 4.39 4.39 0 0 1 126.249 208.673 A 5.308 5.308 0 0 1 126.688 208.655 Q 127.971 208.655 128.832 209.065 A 2.913 2.913 0 0 1 129.599 209.588 Q 130.575 210.52 130.575 212.571 L 130.575 219.553 Z M 99.433 208.85 L 99.433 210.11 L 96.708 210.11 L 96.708 219.553 L 95.087 219.553 L 95.087 210.11 L 93.173 210.11 L 93.173 209.378 L 95.087 208.792 L 95.087 208.196 Q 95.087 204.79 97.656 204.325 A 4.927 4.927 0 0 1 98.534 204.251 Q 99.195 204.251 100.032 204.457 A 10.494 10.494 0 0 1 100.526 204.593 L 100.106 205.891 A 7.872 7.872 0 0 0 99.494 205.719 Q 98.941 205.589 98.505 205.589 A 2.186 2.186 0 0 0 97.978 205.648 A 1.404 1.404 0 0 0 97.147 206.199 A 1.876 1.876 0 0 0 96.9 206.699 Q 96.735 207.187 96.712 207.913 A 7.654 7.654 0 0 0 96.708 208.157 L 96.708 208.85 L 99.433 208.85 Z M 138.827 218.216 L 138.827 219.456 A 1.595 1.595 0 0 1 138.638 219.531 Q 138.436 219.598 138.148 219.649 A 6.063 6.063 0 0 1 138.051 219.666 Q 137.572 219.743 137.183 219.748 A 4.156 4.156 0 0 1 137.128 219.749 A 4.234 4.234 0 0 1 135.88 219.581 Q 134.509 219.158 134.15 217.668 A 5.096 5.096 0 0 1 134.022 216.477 L 134.022 210.11 L 132.489 210.11 L 132.489 209.329 L 134.022 208.655 L 134.706 206.37 L 135.644 206.37 L 135.644 208.85 L 138.749 208.85 L 138.749 210.11 L 135.644 210.11 L 135.644 216.409 A 3.264 3.264 0 0 0 135.691 216.982 Q 135.747 217.297 135.87 217.546 A 1.572 1.572 0 0 0 136.103 217.893 A 1.506 1.506 0 0 0 137.028 218.386 A 2.167 2.167 0 0 0 137.362 218.411 A 5.324 5.324 0 0 0 138.142 218.355 A 4.914 4.914 0 0 0 138.192 218.347 A 8.77 8.77 0 0 0 138.426 218.307 Q 138.65 218.266 138.805 218.222 A 2.43 2.43 0 0 0 138.827 218.216 Z M 107.548 208.772 L 107.323 210.276 A 7.145 7.145 0 0 0 106.809 210.181 Q 106.553 210.144 106.325 210.134 A 3.802 3.802 0 0 0 106.151 210.13 A 2.809 2.809 0 0 0 104.076 211.026 A 3.843 3.843 0 0 0 103.93 211.184 A 3.702 3.702 0 0 0 103.037 213.263 A 4.921 4.921 0 0 0 103.007 213.811 L 103.007 219.553 L 101.386 219.553 L 101.386 208.85 L 102.724 208.85 L 102.909 210.833 L 102.987 210.833 A 5.474 5.474 0 0 1 103.599 209.958 A 4.182 4.182 0 0 1 104.423 209.221 Q 105.263 208.655 106.269 208.655 A 7.442 7.442 0 0 1 106.935 208.683 A 5.432 5.432 0 0 1 107.548 208.772 Z M 118.639 215.821 A 8.374 8.374 0 0 0 118.788 214.192 A 9.514 9.514 0 0 0 118.785 213.935 Q 118.721 211.567 117.465 210.149 A 4.244 4.244 0 0 0 115.495 208.879 A 5.447 5.447 0 0 0 113.896 208.655 A 6.296 6.296 0 0 0 112.765 208.752 A 4.288 4.288 0 0 0 110.263 210.115 Q 109.394 211.085 109.102 212.564 A 8.417 8.417 0 0 0 108.954 214.192 A 8.11 8.11 0 0 0 109.056 215.506 A 5.997 5.997 0 0 0 109.56 217.141 A 5.328 5.328 0 0 0 109.678 217.372 A 4.389 4.389 0 0 0 111.278 219.075 A 4.514 4.514 0 0 0 112.314 219.536 A 5.206 5.206 0 0 0 113.827 219.749 A 6.295 6.295 0 0 0 114.926 219.657 A 4.322 4.322 0 0 0 117.47 218.279 Q 118.345 217.303 118.639 215.821 Z M 110.634 214.192 Q 110.634 216.243 111.454 217.317 A 2.657 2.657 0 0 0 113.185 218.336 A 4.026 4.026 0 0 0 113.866 218.391 A 3.765 3.765 0 0 0 114.86 218.268 A 2.62 2.62 0 0 0 116.283 217.322 Q 117.108 216.253 117.108 214.192 Q 117.108 212.883 116.769 211.977 A 3.338 3.338 0 0 0 116.283 211.092 A 2.667 2.667 0 0 0 114.625 210.102 A 4.089 4.089 0 0 0 113.847 210.032 A 3.858 3.858 0 0 0 112.886 210.145 A 2.582 2.582 0 0 0 111.444 211.077 Q 110.861 211.829 110.697 213.113 A 8.566 8.566 0 0 0 110.634 214.192 Z"
       id="front_labelLayer"
       stroke="#777777"
       fill="#777777"
       style="stroke:#777777;fill:#777777"
       vector-effect="non-scaling-stroke" />
    <path
       d="M 241 162 L 241 179.81 L 235 179.81 L 235 201.27 L 241 201.27 L 241 222.73 L 235 222.73 L 235 244.19 L 241 244.19 L 241 262 L 269.43 262 L 269.43 256 L 290.89 256 L 290.89 262 L 312.35 262 L 312.35 256 L 333.81 256 L 333.81 262 L 355.27 262 L 355.27 256 L 376.73 256 L 376.73 262 L 398.19 262 L 398.19 256 L 419.65 256 L 419.65 262 L 441.11 262 L 441.11 256 L 462.57 256 L 462.57 262 L 484.03 262 L 491 262 L 491 244.19 L 497 244.19 L 497 222.73 L 491 222.73 L 491 201.27 L 497 201.27 L 497 179.81 L 491 179.81 L 491 162 L 241 162 Z"
       id="left_outsideCutPath"
       stroke="#FF0000"
       stroke-width="0.1"
       style="stroke:#FF0000;stroke-width:0.1"
       vector-effect="non-scaling-stroke" />
    <path
       d="M 373.114 208.85 L 373.114 210.11 L 370.39 210.11 L 370.39 219.553 L 368.769 219.553 L 368.769 210.11 L 366.854 210.11 L 366.854 209.378 L 368.769 208.792 L 368.769 208.196 Q 368.769 204.79 371.338 204.325 A 4.927 4.927 0 0 1 372.216 204.251 Q 372.876 204.251 373.714 204.457 A 10.494 10.494 0 0 1 374.208 204.593 L 373.788 205.891 A 7.872 7.872 0 0 0 373.176 205.719 Q 372.622 205.589 372.187 205.589 A 2.186 2.186 0 0 0 371.66 205.648 A 1.404 1.404 0 0 0 370.829 206.199 A 1.876 1.876 0 0 0 370.581 206.699 Q 370.417 207.187 370.393 207.913 A 7.654 7.654 0 0 0 370.39 208.157 L 370.39 208.85 L 373.114 208.85 Z M 365.526 213.47 L 365.526 214.495 L 358.153 214.495 A 6.506 6.506 0 0 0 358.267 215.584 Q 358.384 216.178 358.619 216.646 A 3.044 3.044 0 0 0 359.105 217.356 A 2.946 2.946 0 0 0 360.652 218.228 A 4.463 4.463 0 0 0 361.649 218.333 A 8.562 8.562 0 0 0 364.856 217.698 A 9.811 9.811 0 0 0 365.067 217.61 L 365.067 219.055 A 9.732 9.732 0 0 1 364.18 219.39 A 7.442 7.442 0 0 1 363.441 219.588 Q 362.845 219.713 362.058 219.741 A 13.207 13.207 0 0 1 361.591 219.749 A 6.299 6.299 0 0 1 360.014 219.562 A 4.461 4.461 0 0 1 357.846 218.303 Q 356.474 216.858 356.474 214.29 A 8.512 8.512 0 0 1 356.631 212.602 Q 356.839 211.576 357.32 210.778 A 4.8 4.8 0 0 1 357.748 210.178 A 4.154 4.154 0 0 1 360.776 208.668 A 5.731 5.731 0 0 1 361.171 208.655 A 4.939 4.939 0 0 1 362.562 208.841 A 3.758 3.758 0 0 1 364.354 209.978 A 4.533 4.533 0 0 1 365.382 212.05 A 6.598 6.598 0 0 1 365.526 213.47 Z M 379.989 218.216 L 379.989 219.456 A 1.595 1.595 0 0 1 379.8 219.531 Q 379.598 219.598 379.31 219.649 A 6.063 6.063 0 0 1 379.213 219.666 Q 378.734 219.743 378.345 219.748 A 4.156 4.156 0 0 1 378.29 219.749 A 4.234 4.234 0 0 1 377.042 219.581 Q 375.671 219.158 375.312 217.668 A 5.096 5.096 0 0 1 375.185 216.477 L 375.185 210.11 L 373.651 210.11 L 373.651 209.329 L 375.185 208.655 L 375.868 206.37 L 376.806 206.37 L 376.806 208.85 L 379.911 208.85 L 379.911 210.11 L 376.806 210.11 L 376.806 216.409 A 3.264 3.264 0 0 0 376.853 216.982 Q 376.909 217.297 377.032 217.546 A 1.572 1.572 0 0 0 377.265 217.893 A 1.506 1.506 0 0 0 378.19 218.386 A 2.167 2.167 0 0 0 378.524 218.411 A 5.324 5.324 0 0 0 379.304 218.355 A 4.914 4.914 0 0 0 379.354 218.347 A 8.77 8.77 0 0 0 379.589 218.307 Q 379.812 218.266 379.968 218.222 A 2.43 2.43 0 0 0 379.989 218.216 Z M 353.632 204.358 L 353.632 219.553 L 352.011 219.553 L 352.011 204.358 L 353.632 204.358 Z M 358.192 213.177 L 363.788 213.177 A 5.524 5.524 0 0 0 363.721 212.288 Q 363.574 211.389 363.104 210.828 A 2.221 2.221 0 0 0 361.767 210.067 A 3.332 3.332 0 0 0 361.151 210.012 A 3.196 3.196 0 0 0 360.228 210.139 A 2.469 2.469 0 0 0 359.096 210.852 Q 358.402 211.612 358.224 212.9 A 6.124 6.124 0 0 0 358.192 213.177 Z"
       id="left_labelLayer"
       stroke="#777777"
       fill="#777777"
       style="stroke:#777777;fill:#777777"
       vector-effect="non-scaling-stroke" />
    <path
       d="M 0 59 L 0 76.81 L 6 76.81 L 6 98.27 L 0 98.27 L 0 119.73 L 6 119.73 L 6 141.19 L 0 141.19 L 0 159 L 19.43 159 L 19.43 153 L 40.89 153 L 40.89 159 L 62.35 159 L 62.35 153 L 83.81 153 L 83.81 159 L 105.27 159 L 105.27 153 L 126.73 153 L 126.73 159 L 148.19 159 L 148.19 153 L 169.65 153 L 169.65 159 L 191.11 159 L 191.11 153 L 212.57 153 L 212.57 159 L 232 159 L 232 141.19 L 226 141.19 L 226 119.73 L 232 119.73 L 232 98.27 L 226 98.27 L 226 76.81 L 232 76.81 L 232 59 L 0 59 Z"
       id="back_outsideCutPath"
       stroke="#FF0000"
       stroke-width="0.1"
       style="stroke:#FF0000;stroke-width:0.1"
       vector-effect="non-scaling-stroke" />
    <path
       d="M 129.691 111.021 L 129.77 111.021 Q 130.189 110.426 131.049 109.459 L 134.506 105.797 L 136.43 105.797 L 132.094 110.357 L 136.732 116.5 L 134.77 116.5 L 130.99 111.441 L 129.77 112.496 L 129.77 116.5 L 128.168 116.5 L 128.168 101.305 L 129.77 101.305 L 129.77 109.361 A 10.803 10.803 0 0 1 129.765 109.666 Q 129.75 110.179 129.691 111.021 Z M 96.889 115.123 L 96.771 115.123 L 96.43 116.5 L 95.268 116.5 L 95.268 101.305 L 96.889 101.305 L 96.889 104.996 Q 96.889 106.196 96.816 107.159 A 20.218 20.218 0 0 1 96.811 107.223 L 96.889 107.223 A 3.686 3.686 0 0 1 99.579 105.66 A 5.537 5.537 0 0 1 100.248 105.621 A 4.955 4.955 0 0 1 101.642 105.807 A 3.709 3.709 0 0 1 103.524 107.061 A 4.777 4.777 0 0 1 104.362 108.675 Q 104.568 109.339 104.645 110.135 A 10.405 10.405 0 0 1 104.691 111.139 Q 104.691 113.775 103.515 115.235 A 3.838 3.838 0 0 1 100.787 116.669 A 5.498 5.498 0 0 1 100.248 116.695 A 4.917 4.917 0 0 1 99.012 116.545 A 4.278 4.278 0 0 1 98.339 116.309 Q 97.475 115.924 96.889 115.123 Z M 115.307 116.5 L 114.105 116.5 L 113.783 114.976 L 113.705 114.976 A 6.72 6.72 0 0 1 113.161 115.585 Q 112.869 115.873 112.577 116.073 A 2.987 2.987 0 0 1 112.108 116.339 Q 111.313 116.695 110.121 116.695 A 4.975 4.975 0 0 1 109.109 116.598 Q 108.219 116.413 107.626 115.875 A 2.665 2.665 0 0 1 106.822 114.47 A 4.079 4.079 0 0 1 106.723 113.541 Q 106.723 110.403 111.579 110.156 A 15.834 15.834 0 0 1 111.908 110.142 L 113.725 110.084 L 113.725 109.42 A 4.656 4.656 0 0 0 113.679 108.747 Q 113.629 108.402 113.522 108.126 A 1.809 1.809 0 0 0 113.183 107.559 A 1.646 1.646 0 0 0 112.509 107.12 Q 112.239 107.022 111.904 106.983 A 4.005 4.005 0 0 0 111.449 106.959 Q 110.374 106.959 109.071 107.489 A 10.857 10.857 0 0 0 108.422 107.779 L 107.924 106.539 A 7.474 7.474 0 0 1 109.366 105.946 A 8.508 8.508 0 0 1 109.657 105.865 A 7.507 7.507 0 0 1 111.547 105.621 A 6.847 6.847 0 0 1 112.59 105.695 Q 113.733 105.872 114.384 106.471 Q 115.107 107.137 115.264 108.434 A 6.379 6.379 0 0 1 115.307 109.195 L 115.307 116.5 Z M 125.785 106.158 L 125.287 107.535 A 7.212 7.212 0 0 0 124.505 107.275 A 8.613 8.613 0 0 0 124.115 107.179 Q 123.572 107.057 123.136 107.04 A 3.593 3.593 0 0 0 122.992 107.037 Q 119.73 107.037 119.73 111.197 A 7.851 7.851 0 0 0 119.808 112.34 Q 119.979 113.499 120.526 114.224 A 2.575 2.575 0 0 0 122.194 115.221 A 3.922 3.922 0 0 0 122.885 115.279 A 6.786 6.786 0 0 0 124.757 115.007 A 8.379 8.379 0 0 0 125.629 114.703 L 125.629 116.139 A 4.611 4.611 0 0 1 124.501 116.538 Q 123.98 116.653 123.373 116.684 A 8.89 8.89 0 0 1 122.924 116.695 A 6.059 6.059 0 0 1 121.45 116.526 A 4.108 4.108 0 0 1 119.325 115.265 Q 118.224 114.029 118.074 111.908 A 9.802 9.802 0 0 1 118.051 111.217 A 8.945 8.945 0 0 1 118.189 109.59 Q 118.357 108.683 118.729 107.968 A 4.469 4.469 0 0 1 119.345 107.066 A 4.198 4.198 0 0 1 121.643 105.745 A 6.363 6.363 0 0 1 123.031 105.601 A 7.316 7.316 0 0 1 124.574 105.767 Q 125.337 105.932 125.775 106.153 A 2.415 2.415 0 0 1 125.785 106.158 Z M 100.014 106.978 A 4.555 4.555 0 0 0 99.131 107.058 Q 98.142 107.254 97.621 107.931 A 2.775 2.775 0 0 0 97.219 108.696 Q 96.948 109.455 96.899 110.61 A 12.49 12.49 0 0 0 96.889 111.139 A 10.719 10.719 0 0 0 96.942 112.246 Q 97.058 113.364 97.431 114.044 A 2.445 2.445 0 0 0 97.641 114.366 A 2.352 2.352 0 0 0 98.834 115.171 Q 99.365 115.338 100.053 115.338 Q 101.547 115.338 102.279 114.249 A 3.721 3.721 0 0 0 102.74 113.253 Q 102.884 112.78 102.952 112.207 A 9.289 9.289 0 0 0 103.012 111.119 A 9.578 9.578 0 0 0 102.954 110.028 Q 102.816 108.834 102.354 108.113 A 2.689 2.689 0 0 0 102.279 108.004 Q 101.547 106.978 100.014 106.978 Z M 113.686 112.203 L 113.686 111.236 L 112.064 111.305 Q 110.45 111.362 109.588 111.742 A 2.49 2.49 0 0 0 109.276 111.905 A 1.73 1.73 0 0 0 108.452 113.16 A 2.56 2.56 0 0 0 108.422 113.56 A 2.317 2.317 0 0 0 108.479 114.092 Q 108.575 114.5 108.833 114.781 A 1.444 1.444 0 0 0 108.954 114.898 A 1.765 1.765 0 0 0 109.615 115.249 Q 109.979 115.357 110.443 115.357 Q 111.957 115.357 112.821 114.527 Q 113.681 113.702 113.686 112.219 A 5.163 5.163 0 0 0 113.686 112.203 Z"
       id="back_labelLayer"
       stroke="#777777"
       fill="#777777"
       style="stroke:#777777;fill:#777777"
       vector-effect="non-scaling-stroke" />
    <path
       d="M 241 59 L 241 76.81 L 235 76.81 L 235 98.27 L 241 98.27 L 241 119.73 L 235 119.73 L 235 141.19 L 241 141.19 L 241 159 L 269.43 159 L 269.43 153 L 290.89 153 L 290.89 159 L 312.35 159 L 312.35 153 L 333.81 153 L 333.81 159 L 355.27 159 L 355.27 153 L 376.73 153 L 376.73 159 L 398.19 159 L 398.19 153 L 419.65 153 L 419.65 159 L 441.11 159 L 441.11 153 L 462.57 153 L 462.57 159 L 484.03 159 L 491 159 L 491 141.19 L 497 141.19 L 497 119.73 L 491 119.73 L 491 98.27 L 497 98.27 L 497 76.81 L 491 76.81 L 491 59 L 241 59 Z"
       id="right_outsideCutPath"
       stroke="#FF0000"
       stroke-width="0.1"
       style="stroke:#FF0000;stroke-width:0.1"
       vector-effect="non-scaling-stroke" />
    <path
       d="M 378.437 114.195 L 376.815 114.195 L 376.815 107.271 Q 376.815 106.437 376.573 105.873 A 1.928 1.928 0 0 0 376.22 105.318 A 1.828 1.828 0 0 0 375.47 104.84 Q 375.176 104.736 374.814 104.697 A 4.298 4.298 0 0 0 374.354 104.674 A 4.906 4.906 0 0 0 373.437 104.754 Q 372.929 104.851 372.537 105.065 A 2.27 2.27 0 0 0 371.889 105.592 Q 371.112 106.51 371.112 108.6 L 371.112 114.195 L 369.491 114.195 L 369.491 99 L 371.112 99 L 371.112 103.6 A 14.583 14.583 0 0 1 371.102 104.16 Q 371.092 104.422 371.072 104.648 A 6.341 6.341 0 0 1 371.034 104.977 L 371.132 104.977 A 3.239 3.239 0 0 1 372.267 103.884 A 3.957 3.957 0 0 1 372.494 103.761 A 4.162 4.162 0 0 1 373.86 103.356 A 5.261 5.261 0 0 1 374.511 103.316 Q 375.802 103.316 376.668 103.72 A 2.922 2.922 0 0 1 377.455 104.249 A 2.823 2.823 0 0 1 378.151 105.342 Q 378.318 105.797 378.388 106.361 A 7.01 7.01 0 0 1 378.437 107.213 L 378.437 114.195 Z M 363.593 103.492 L 367.294 103.492 L 367.294 104.518 L 365.312 104.752 Q 365.585 105.094 365.8 105.645 A 3.119 3.119 0 0 1 365.984 106.39 A 4.005 4.005 0 0 1 366.015 106.891 A 3.716 3.716 0 0 1 365.844 108.043 A 3.006 3.006 0 0 1 364.94 109.4 Q 363.973 110.245 362.355 110.329 A 7.041 7.041 0 0 1 361.991 110.338 Q 361.513 110.338 361.093 110.26 Q 360.502 110.572 360.248 110.976 A 1.22 1.22 0 0 0 360.058 111.637 A 0.84 0.84 0 0 0 360.1 111.912 Q 360.178 112.137 360.397 112.273 A 0.9 0.9 0 0 0 360.419 112.286 A 1.137 1.137 0 0 0 360.671 112.39 Q 361.034 112.496 361.659 112.496 L 363.554 112.496 A 6.636 6.636 0 0 1 364.561 112.568 Q 365.088 112.649 365.514 112.822 A 2.93 2.93 0 0 1 366.225 113.228 A 2.372 2.372 0 0 1 367.106 114.739 A 3.562 3.562 0 0 1 367.157 115.357 A 3.51 3.51 0 0 1 366.957 116.572 Q 366.633 117.456 365.787 118.031 A 3.856 3.856 0 0 1 365.731 118.067 Q 364.306 119 361.571 119 A 9.083 9.083 0 0 1 360.353 118.924 Q 359.116 118.756 358.334 118.219 A 2.584 2.584 0 0 1 357.501 117.315 Q 357.234 116.82 357.201 116.193 A 3.423 3.423 0 0 1 357.196 116.012 Q 357.196 115.035 357.821 114.322 A 2.831 2.831 0 0 1 358.794 113.614 A 4.012 4.012 0 0 1 359.579 113.355 A 1.682 1.682 0 0 1 358.926 112.827 A 1.998 1.998 0 0 1 358.891 112.779 A 1.503 1.503 0 0 1 358.615 111.967 A 1.862 1.862 0 0 1 358.612 111.871 A 1.854 1.854 0 0 1 358.706 111.274 A 1.643 1.643 0 0 1 358.925 110.846 A 2.32 2.32 0 0 1 359.231 110.5 Q 359.506 110.243 359.911 109.996 A 2.842 2.842 0 0 1 358.677 109.008 A 3.522 3.522 0 0 1 358.559 108.834 Q 358.036 108.014 358.036 106.959 A 4.684 4.684 0 0 1 358.159 105.851 A 3.081 3.081 0 0 1 359.091 104.249 A 3.443 3.443 0 0 1 360.412 103.52 Q 360.937 103.36 361.569 103.314 A 7.16 7.16 0 0 1 362.079 103.297 A 6.214 6.214 0 0 1 362.901 103.349 A 4.733 4.733 0 0 1 363.593 103.492 Z M 386.688 112.857 L 386.688 114.098 A 1.595 1.595 0 0 1 386.499 114.173 Q 386.298 114.24 386.009 114.291 A 6.063 6.063 0 0 1 385.912 114.308 Q 385.433 114.385 385.044 114.39 A 4.156 4.156 0 0 1 384.989 114.391 A 4.234 4.234 0 0 1 383.741 114.223 Q 382.37 113.799 382.011 112.309 A 5.096 5.096 0 0 1 381.884 111.119 L 381.884 104.752 L 380.351 104.752 L 380.351 103.971 L 381.884 103.297 L 382.567 101.012 L 383.505 101.012 L 383.505 103.492 L 386.61 103.492 L 386.61 104.752 L 383.505 104.752 L 383.505 111.051 A 3.264 3.264 0 0 0 383.552 111.624 Q 383.608 111.939 383.731 112.188 A 1.572 1.572 0 0 0 383.964 112.535 A 1.506 1.506 0 0 0 384.89 113.028 A 2.167 2.167 0 0 0 385.224 113.053 A 5.324 5.324 0 0 0 386.004 112.997 A 4.914 4.914 0 0 0 386.054 112.989 A 8.77 8.77 0 0 0 386.288 112.949 Q 386.511 112.907 386.667 112.864 A 2.43 2.43 0 0 0 386.688 112.857 Z M 351.474 103.414 L 351.249 104.918 A 7.145 7.145 0 0 0 350.735 104.823 Q 350.479 104.786 350.251 104.776 A 3.802 3.802 0 0 0 350.077 104.771 A 2.809 2.809 0 0 0 348.002 105.668 A 3.843 3.843 0 0 0 347.855 105.826 A 3.702 3.702 0 0 0 346.962 107.905 A 4.921 4.921 0 0 0 346.933 108.453 L 346.933 114.195 L 345.312 114.195 L 345.312 103.492 L 346.649 103.492 L 346.835 105.475 L 346.913 105.475 A 5.474 5.474 0 0 1 347.525 104.6 A 4.182 4.182 0 0 1 348.349 103.863 Q 349.188 103.297 350.194 103.297 A 7.442 7.442 0 0 1 350.861 103.325 A 5.432 5.432 0 0 1 351.474 103.414 Z M 355.097 103.492 L 355.097 114.195 L 353.476 114.195 L 353.476 103.492 L 355.097 103.492 Z M 363.036 113.951 L 361.093 113.951 Q 359.989 113.951 359.374 114.478 A 1.708 1.708 0 0 0 358.813 115.447 A 2.594 2.594 0 0 0 358.759 115.992 A 1.628 1.628 0 0 0 358.866 116.596 Q 359.02 116.985 359.396 117.248 A 1.902 1.902 0 0 0 359.491 117.31 A 2.596 2.596 0 0 0 360.13 117.584 Q 360.732 117.758 361.577 117.76 A 8.225 8.225 0 0 0 361.591 117.76 Q 363.414 117.76 364.392 117.273 A 2.692 2.692 0 0 0 364.613 117.149 A 2.365 2.365 0 0 0 365.162 116.69 A 1.772 1.772 0 0 0 365.595 115.494 A 2.193 2.193 0 0 0 365.555 115.059 Q 365.448 114.533 365.058 114.288 A 1.538 1.538 0 0 0 364.693 114.129 Q 364.304 114.009 363.69 113.97 A 10.315 10.315 0 0 0 363.036 113.951 Z M 359.999 108.303 A 1.734 1.734 0 0 0 360.272 108.619 A 2.095 2.095 0 0 0 361.116 109.077 Q 361.437 109.169 361.82 109.19 A 4.174 4.174 0 0 0 362.04 109.195 A 3.532 3.532 0 0 0 362.965 109.085 Q 364.023 108.797 364.308 107.759 A 3.283 3.283 0 0 0 364.413 106.891 A 3.486 3.486 0 0 0 364.294 105.936 Q 363.878 104.478 362.011 104.478 Q 361.135 104.478 360.569 104.84 A 1.866 1.866 0 0 0 360.253 105.094 Q 359.638 105.709 359.638 106.92 Q 359.638 107.767 359.999 108.303 Z M 353.362 100.295 A 1.796 1.796 0 0 0 353.339 100.592 Q 353.339 101.139 353.612 101.407 A 0.91 0.91 0 0 0 353.941 101.617 A 1.03 1.03 0 0 0 354.296 101.676 A 0.946 0.946 0 0 0 354.97 101.407 A 0.791 0.791 0 0 0 355.124 101.203 Q 355.253 100.96 355.253 100.592 A 1.854 1.854 0 0 0 355.245 100.416 Q 355.23 100.256 355.185 100.125 A 0.819 0.819 0 0 0 354.97 99.781 A 0.955 0.955 0 0 0 354.296 99.518 A 1.238 1.238 0 0 0 354.214 99.52 A 0.937 0.937 0 0 0 353.612 99.776 Q 353.418 99.96 353.362 100.295 Z"
       id="right_labelLayer"
       stroke="#777777"
       fill="#777777"
       style="stroke:#777777;fill:#777777"
       vector-effect="non-scaling-stroke" />
    <path
       d="M 506 6 L 506 34.43 L 500 34.43 L 500 55.89 L 506 55.89 L 506 77.35 L 500 77.35 L 500 98.81 L 506 98.81 L 506 120.27 L 500 120.27 L 500 141.73 L 506 141.73 L 506 163.19 L 500 163.19 L 500 184.65 L 506 184.65 L 506 206.11 L 500 206.11 L 500 227.57 L 506 227.57 L 506 249.03 L 506 256 L 519.43 256 L 519.43 262 L 540.89 262 L 540.89 256 L 562.35 256 L 562.35 262 L 583.81 262 L 583.81 256 L 605.27 256 L 605.27 262 L 626.73 262 L 626.73 256 L 648.19 256 L 648.19 262 L 669.65 262 L 669.65 256 L 691.11 256 L 691.11 262 L 712.57 262 L 712.57 256 L 726 256 L 726 227.57 L 732 227.57 L 732 206.11 L 726 206.11 L 726 184.65 L 732 184.65 L 732 163.19 L 726 163.19 L 726 141.73 L 732 141.73 L 732 120.27 L 726 120.27 L 726 98.81 L 732 98.81 L 732 77.35 L 726 77.35 L 726 55.89 L 732 55.89 L 732 34.43 L 726 34.43 L 726 12.97 L 726 6 L 712.57 6 L 712.57 0 L 691.11 0 L 691.11 6 L 669.65 6 L 669.65 0 L 648.19 0 L 648.19 6 L 626.73 6 L 626.73 0 L 605.27 0 L 605.27 6 L 583.81 6 L 583.81 0 L 562.35 0 L 562.35 6 L 540.89 6 L 540.89 0 L 519.43 0 L 519.43 6 L 506 6 Z"
       id="bottom_outsideCutPath"
       stroke="#FF0000"
       stroke-width="0.1"
       style="stroke:#FF0000;stroke-width:0.1"
       vector-effect="non-scaling-stroke" />
    <path
       d="M 692.329 148.399 L 688.568 148.399 L 688.568 132.246 Q 688.568 130.386 688.07 129.109 A 4.545 4.545 0 0 0 687.299 127.794 A 3.958 3.958 0 0 0 685.459 126.604 Q 684.804 126.392 684.005 126.333 A 8.73 8.73 0 0 0 683.357 126.31 Q 680.894 126.31 679.334 127.301 A 4.98 4.98 0 0 0 678.169 128.326 A 6.215 6.215 0 0 0 677.115 130.233 Q 676.497 131.966 676.492 134.495 A 20.918 20.918 0 0 0 676.492 134.534 L 676.492 148.399 L 672.731 148.399 L 672.731 132.246 Q 672.731 130.386 672.233 129.109 A 4.545 4.545 0 0 0 671.462 127.794 A 3.945 3.945 0 0 0 669.648 126.614 Q 668.719 126.31 667.498 126.31 A 9.341 9.341 0 0 0 665.566 126.496 Q 664.374 126.748 663.486 127.341 A 4.93 4.93 0 0 0 662.321 128.428 Q 660.832 130.348 660.692 134.491 A 26.185 26.185 0 0 0 660.678 135.372 L 660.678 148.399 L 656.917 148.399 L 656.917 123.568 L 659.976 123.568 L 660.587 126.967 L 660.769 126.967 A 7.392 7.392 0 0 1 663.771 124.135 A 8.929 8.929 0 0 1 667.297 123.145 A 10.785 10.785 0 0 1 668.109 123.115 Q 673.932 123.115 675.722 127.329 L 675.903 127.329 A 7.853 7.853 0 0 1 678.861 124.393 A 9.434 9.434 0 0 1 679.12 124.248 A 9.519 9.519 0 0 1 682.612 123.186 A 11.869 11.869 0 0 1 683.923 123.115 A 13.073 13.073 0 0 1 686.295 123.316 Q 688.776 123.774 690.233 125.279 Q 692.329 127.442 692.329 132.2 L 692.329 148.399 Z M 543.432 145.205 L 543.16 145.205 L 542.367 148.399 L 539.671 148.399 L 539.671 113.146 L 543.432 113.146 L 543.432 121.71 A 78.413 78.413 0 0 1 543.389 124.36 Q 543.344 125.696 543.251 126.876 L 543.432 126.876 A 8.551 8.551 0 0 1 549.673 123.251 A 12.845 12.845 0 0 1 551.226 123.16 A 11.495 11.495 0 0 1 554.461 123.592 A 8.605 8.605 0 0 1 558.827 126.502 A 11.082 11.082 0 0 1 560.77 130.245 Q 561.248 131.786 561.427 133.634 A 24.14 24.14 0 0 1 561.534 135.961 A 22.051 22.051 0 0 1 561.242 139.671 Q 560.904 141.649 560.175 143.235 A 10.571 10.571 0 0 1 558.804 145.465 A 8.903 8.903 0 0 1 552.476 148.793 A 12.756 12.756 0 0 1 551.226 148.853 A 11.408 11.408 0 0 1 548.359 148.503 A 9.926 9.926 0 0 1 546.796 147.958 Q 544.791 147.063 543.432 145.205 Z M 607.549 145.296 L 607.549 148.173 A 3.699 3.699 0 0 1 607.11 148.347 Q 606.566 148.528 605.748 148.66 Q 604.637 148.84 603.734 148.852 A 9.641 9.641 0 0 1 603.607 148.853 A 9.823 9.823 0 0 1 600.712 148.463 Q 596.402 147.133 596.402 141.263 L 596.402 126.491 L 592.845 126.491 L 592.845 124.678 L 596.402 123.115 L 597.988 117.813 L 600.163 117.813 L 600.163 123.568 L 607.368 123.568 L 607.368 126.491 L 600.163 126.491 L 600.163 141.104 A 7.573 7.573 0 0 0 600.272 142.434 Q 600.403 143.164 600.689 143.742 A 3.648 3.648 0 0 0 601.228 144.548 A 3.494 3.494 0 0 0 603.376 145.691 A 5.027 5.027 0 0 0 604.151 145.749 A 12.351 12.351 0 0 0 605.96 145.619 A 11.385 11.385 0 0 0 606.076 145.601 A 20.345 20.345 0 0 0 606.619 145.508 Q 607.138 145.411 607.499 145.31 A 5.648 5.648 0 0 0 607.549 145.296 Z M 623.93 145.296 L 623.93 148.173 A 3.699 3.699 0 0 1 623.491 148.347 Q 622.946 148.528 622.128 148.66 Q 621.018 148.84 620.115 148.852 A 9.641 9.641 0 0 1 619.987 148.853 A 9.823 9.823 0 0 1 617.093 148.463 Q 612.783 147.133 612.783 141.263 L 612.783 126.491 L 609.226 126.491 L 609.226 124.678 L 612.783 123.115 L 614.369 117.813 L 616.544 117.813 L 616.544 123.568 L 623.748 123.568 L 623.748 126.491 L 616.544 126.491 L 616.544 141.104 A 7.573 7.573 0 0 0 616.653 142.434 Q 616.783 143.164 617.069 143.742 A 3.648 3.648 0 0 0 617.608 144.548 A 3.494 3.494 0 0 0 619.756 145.691 A 5.027 5.027 0 0 0 620.531 145.749 A 12.351 12.351 0 0 0 622.341 145.619 A 11.385 11.385 0 0 0 622.457 145.601 A 20.345 20.345 0 0 0 623 145.508 Q 623.519 145.411 623.879 145.31 A 5.648 5.648 0 0 0 623.93 145.296 Z M 589.192 139.74 A 19.427 19.427 0 0 0 589.537 135.961 Q 589.537 130.048 586.467 126.581 A 9.846 9.846 0 0 0 581.897 123.633 A 12.638 12.638 0 0 0 578.187 123.115 Q 572.794 123.115 569.758 126.502 Q 567.742 128.751 567.065 132.185 A 19.528 19.528 0 0 0 566.723 135.961 A 18.814 18.814 0 0 0 566.959 139.009 A 13.913 13.913 0 0 0 568.127 142.803 A 12.361 12.361 0 0 0 568.401 143.339 A 10.182 10.182 0 0 0 572.115 147.289 A 10.472 10.472 0 0 0 574.519 148.358 A 12.077 12.077 0 0 0 578.028 148.853 A 14.604 14.604 0 0 0 580.578 148.639 A 10.027 10.027 0 0 0 586.479 145.443 Q 588.51 143.178 589.192 139.74 Z M 649.979 139.74 A 19.427 19.427 0 0 0 650.324 135.961 Q 650.324 130.048 647.254 126.581 A 9.846 9.846 0 0 0 642.683 123.633 A 12.638 12.638 0 0 0 638.973 123.115 Q 633.581 123.115 630.545 126.502 Q 628.529 128.751 627.852 132.185 A 19.528 19.528 0 0 0 627.509 135.961 A 18.814 18.814 0 0 0 627.746 139.009 A 13.913 13.913 0 0 0 628.914 142.803 A 12.361 12.361 0 0 0 629.188 143.339 A 10.182 10.182 0 0 0 632.901 147.289 A 10.472 10.472 0 0 0 635.305 148.358 A 12.077 12.077 0 0 0 638.815 148.853 A 14.604 14.604 0 0 0 641.365 148.639 A 10.027 10.027 0 0 0 647.266 145.443 Q 649.297 143.178 649.979 139.74 Z M 570.619 135.961 A 19.045 19.045 0 0 0 570.801 138.682 Q 571.001 140.063 571.421 141.182 A 7.89 7.89 0 0 0 572.523 143.211 A 6.164 6.164 0 0 0 576.537 145.575 A 9.341 9.341 0 0 0 578.119 145.703 A 8.736 8.736 0 0 0 580.423 145.417 A 6.079 6.079 0 0 0 583.726 143.222 A 8.074 8.074 0 0 0 584.983 140.774 Q 585.641 138.762 585.641 135.961 A 18.765 18.765 0 0 0 585.463 133.287 Q 585.057 130.477 583.726 128.768 A 6.187 6.187 0 0 0 579.88 126.473 A 9.486 9.486 0 0 0 578.073 126.31 A 8.951 8.951 0 0 0 575.845 126.571 A 5.99 5.99 0 0 0 572.5 128.734 Q 570.619 131.158 570.619 135.961 Z M 631.406 135.961 A 19.045 19.045 0 0 0 631.587 138.682 Q 631.787 140.063 632.207 141.182 A 7.89 7.89 0 0 0 633.309 143.211 A 6.164 6.164 0 0 0 637.324 145.575 A 9.341 9.341 0 0 0 638.905 145.703 A 8.736 8.736 0 0 0 641.21 145.417 A 6.079 6.079 0 0 0 644.513 143.222 A 8.074 8.074 0 0 0 645.77 140.774 Q 646.427 138.762 646.427 135.961 A 18.765 18.765 0 0 0 646.25 133.287 Q 645.844 130.477 644.513 128.768 A 6.187 6.187 0 0 0 640.666 126.473 A 9.486 9.486 0 0 0 638.86 126.31 A 8.951 8.951 0 0 0 636.632 126.571 A 5.99 5.99 0 0 0 633.287 128.734 Q 631.406 131.158 631.406 135.961 Z M 550.682 126.31 A 10.569 10.569 0 0 0 548.635 126.494 Q 547.469 126.725 546.584 127.243 A 5.002 5.002 0 0 0 545.131 128.519 Q 543.638 130.459 543.457 134.735 A 28.976 28.976 0 0 0 543.432 135.961 A 24.867 24.867 0 0 0 543.555 138.531 Q 543.895 141.794 545.176 143.449 Q 546.74 145.47 549.998 145.679 A 12.093 12.093 0 0 0 550.773 145.703 Q 554.239 145.703 555.938 143.177 Q 557.637 140.651 557.637 135.916 A 22.22 22.22 0 0 0 557.503 133.384 Q 557.184 130.614 556.11 128.943 A 6.239 6.239 0 0 0 555.938 128.688 Q 554.239 126.31 550.682 126.31 Z"
       id="bottom_labelLayer"
       stroke="#777777"
       fill="#777777"
       style="stroke:#777777;fill:#777777"
       vector-effect="non-scaling-stroke" />
  </g>
  <circle
     style="fill:#ffffff;stroke:#ff0000;stroke-width:0.1"
     id="path335"
     cx="205.10393"
     cy="135.19382"
     r="7.5" />
</svg>
