<?xml version="1.0" encoding="UTF-8" standalone="no"?>
<svg
   width="509mm"
   height="149mm"
   viewBox="0 0 509 149"
   version="1.1"
   preserveAspectRatio="xMidYMid meet"
   id="svg30"
   sodipodi:docname="doos_spiegel_1.svg"
   inkscape:version="1.2.2 (732a01da63, 2022-12-09)"
   xmlns:inkscape="http://www.inkscape.org/namespaces/inkscape"
   xmlns:sodipodi="http://sodipodi.sourceforge.net/DTD/sodipodi-0.dtd"
   xmlns="http://www.w3.org/2000/svg"
   xmlns:svg="http://www.w3.org/2000/svg">
  <defs
     id="defs34">
    <linearGradient
       id="linearGradient960"
       inkscape:swatch="solid">
      <stop
         style="stop-color:#020202;stop-opacity:1;"
         offset="0"
         id="stop958" />
    </linearGradient>
  </defs>
  <sodipodi:namedview
     id="namedview32"
     pagecolor="#ffffff"
     bordercolor="#000000"
     borderopacity="0.25"
     inkscape:showpageshadow="2"
     inkscape:pageopacity="0.0"
     inkscape:pagecheckerboard="0"
     inkscape:deskcolor="#d1d1d1"
     inkscape:document-units="mm"
     showgrid="false"
     inkscape:zoom="1.0468144"
     inkscape:cx="499.61101"
     inkscape:cy="209.68378"
     inkscape:window-width="1920"
     inkscape:window-height="1001"
     inkscape:window-x="-9"
     inkscape:window-y="-9"
     inkscape:window-maximized="1"
     inkscape:current-layer="svg30" />
  <g
     id="svgGroup"
     stroke-linecap="round"
     fill-rule="evenodd"
     font-size="9pt"
     stroke="#000"
     stroke-width="0.25mm"
     fill="none"
     style="stroke:#000;stroke-width:0.25mm;fill:none">
    <path
       d="M 0 76 L 0 92.25 L 3 92.25 L 3 105.75 L 0 105.75 L 0 119.25 L 3 119.25 L 3 132.75 L 0 132.75 L 0 146.25 L 0 149 L 23.75 149 L 23.75 146 L 37.25 146 L 37.25 149 L 50.75 149 L 50.75 146 L 64.25 146 L 64.25 149 L 77.75 149 L 77.75 146 L 91.25 146 L 91.25 149 L 104.75 149 L 104.75 146 L 118.25 146 L 118.25 149 L 131.75 149 L 131.75 146 L 145.25 146 L 145.25 149 L 158.75 149 L 158.75 146 L 172.25 146 L 172.25 149 L 185.75 149 L 196 149 L 196 132.75 L 193 132.75 L 193 119.25 L 196 119.25 L 196 105.75 L 193 105.75 L 193 92.25 L 196 92.25 L 196 78.75 L 196 76 L 0 76 Z"
       id="front_outsideCutPath"
       stroke="#FF0000"
       stroke-width="0.1"
       style="stroke:#FF0000;stroke-width:0.1"
       vector-effect="non-scaling-stroke" />
    <path
       d="M 108.64 118.014 L 107.456 118.014 L 107.456 112.96 A 3.345 3.345 0 0 0 107.418 112.435 Q 107.374 112.159 107.28 111.939 A 1.408 1.408 0 0 0 107.022 111.534 A 1.334 1.334 0 0 0 106.474 111.185 Q 106.26 111.109 105.995 111.08 A 3.137 3.137 0 0 0 105.66 111.063 A 3.582 3.582 0 0 0 104.99 111.122 Q 104.265 111.26 103.864 111.726 Q 103.342 112.332 103.297 113.658 A 7.581 7.581 0 0 0 103.293 113.915 L 103.293 118.014 L 102.11 118.014 L 102.11 110.201 L 103.072 110.201 L 103.265 111.27 L 103.322 111.27 A 2.396 2.396 0 0 1 104.26 110.416 A 2.882 2.882 0 0 1 104.341 110.375 A 3.205 3.205 0 0 1 105.482 110.071 A 3.875 3.875 0 0 1 105.803 110.058 A 4.672 4.672 0 0 1 106.598 110.121 Q 107.028 110.196 107.368 110.358 A 2.127 2.127 0 0 1 107.927 110.739 Q 108.469 111.257 108.599 112.247 A 5.164 5.164 0 0 1 108.64 112.917 L 108.64 118.014 Z M 85.906 110.201 L 85.906 111.12 L 83.917 111.12 L 83.917 118.014 L 82.733 118.014 L 82.733 111.12 L 81.336 111.12 L 81.336 110.586 L 82.733 110.158 L 82.733 109.723 A 4.796 4.796 0 0 1 82.845 108.636 Q 83.264 106.843 85.25 106.843 Q 85.732 106.843 86.343 106.994 A 7.66 7.66 0 0 1 86.704 107.093 L 86.398 108.041 Q 85.713 107.82 85.229 107.82 Q 84.558 107.82 84.238 108.265 Q 83.947 108.669 83.92 109.517 A 5.587 5.587 0 0 0 83.917 109.695 L 83.917 110.201 L 85.906 110.201 Z M 114.664 117.037 L 114.664 117.943 Q 114.471 118.035 114.097 118.096 Q 113.723 118.157 113.423 118.157 A 3.091 3.091 0 0 1 112.513 118.034 Q 111.156 117.616 111.156 115.768 L 111.156 111.12 L 110.037 111.12 L 110.037 110.55 L 111.156 110.058 L 111.655 108.39 L 112.34 108.39 L 112.34 110.201 L 114.607 110.201 L 114.607 111.12 L 112.34 111.12 L 112.34 115.719 Q 112.34 116.214 112.505 116.548 A 1.148 1.148 0 0 0 112.675 116.802 A 1.099 1.099 0 0 0 113.351 117.162 A 1.582 1.582 0 0 0 113.594 117.18 A 3.886 3.886 0 0 0 114.164 117.139 A 3.587 3.587 0 0 0 114.2 117.134 A 6.402 6.402 0 0 0 114.371 117.104 Q 114.535 117.074 114.648 117.042 A 1.775 1.775 0 0 0 114.664 117.037 Z M 91.83 110.144 L 91.666 111.242 A 5.215 5.215 0 0 0 91.291 111.172 Q 91.104 111.145 90.937 111.138 A 2.776 2.776 0 0 0 90.81 111.135 Q 89.862 111.135 89.189 111.905 A 2.702 2.702 0 0 0 88.537 113.422 A 3.592 3.592 0 0 0 88.515 113.822 L 88.515 118.014 L 87.332 118.014 L 87.332 110.201 L 88.308 110.201 L 88.444 111.648 L 88.501 111.648 A 3.996 3.996 0 0 1 88.948 111.01 A 3.053 3.053 0 0 1 89.549 110.472 A 2.359 2.359 0 0 1 90.896 110.058 A 5.433 5.433 0 0 1 91.382 110.079 A 3.965 3.965 0 0 1 91.83 110.144 Z M 99.927 115.289 A 6.113 6.113 0 0 0 100.035 114.1 Q 100.035 113.341 99.874 112.71 A 3.685 3.685 0 0 0 99.069 111.149 A 3.098 3.098 0 0 0 97.631 110.221 A 3.977 3.977 0 0 0 96.464 110.058 A 4.596 4.596 0 0 0 95.638 110.129 A 3.13 3.13 0 0 0 93.812 111.124 Q 93.177 111.832 92.964 112.912 A 6.144 6.144 0 0 0 92.856 114.1 A 5.92 5.92 0 0 0 92.931 115.059 A 4.378 4.378 0 0 0 93.298 116.253 A 3.89 3.89 0 0 0 93.385 116.422 A 3.204 3.204 0 0 0 94.553 117.665 A 3.295 3.295 0 0 0 95.31 118.001 A 3.8 3.8 0 0 0 96.414 118.157 A 4.595 4.595 0 0 0 97.216 118.09 A 3.155 3.155 0 0 0 99.073 117.084 Q 99.712 116.371 99.927 115.289 Z M 94.083 114.1 A 5.993 5.993 0 0 0 94.14 114.956 Q 94.267 115.839 94.681 116.382 A 1.94 1.94 0 0 0 95.945 117.125 A 2.939 2.939 0 0 0 96.442 117.166 Q 97.604 117.166 98.207 116.385 A 2.54 2.54 0 0 0 98.602 115.615 Q 98.719 115.259 98.77 114.824 A 6.234 6.234 0 0 0 98.809 114.1 A 5.905 5.905 0 0 0 98.753 113.259 Q 98.626 112.375 98.207 111.837 A 1.947 1.947 0 0 0 96.996 111.115 A 2.985 2.985 0 0 0 96.428 111.063 A 2.816 2.816 0 0 0 95.727 111.145 A 1.885 1.885 0 0 0 94.674 111.826 Q 94.248 112.375 94.129 113.312 A 6.253 6.253 0 0 0 94.083 114.1 Z"
       id="front_labelLayer"
       stroke="#777777"
       fill="#777777"
       style="stroke:#777777;fill:#777777"
       vector-effect="non-scaling-stroke" />
    <path
       d="M 202 76 L 202 92.25 L 199 92.25 L 199 105.75 L 202 105.75 L 202 119.25 L 199 119.25 L 199 132.75 L 202 132.75 L 202 146.25 L 202 149 L 220.75 149 L 220.75 146 L 234.25 146 L 234.25 149 L 247.75 149 L 247.75 146 L 261.25 146 L 261.25 149 L 274.75 149 L 274.75 146 L 288.25 146 L 288.25 149 L 301.75 149 L 307 149 L 307 132.75 L 310 132.75 L 310 119.25 L 307 119.25 L 307 105.75 L 310 105.75 L 310 92.25 L 307 92.25 L 307 78.75 L 307 76 L 202 76 Z"
       id="left_outsideCutPath"
       stroke="#FF0000"
       stroke-width="0.1"
       style="stroke:#FF0000;stroke-width:0.1"
       vector-effect="non-scaling-stroke" />
    <path
       d="M 259.693 110.201 L 259.693 111.12 L 257.704 111.12 L 257.704 118.014 L 256.521 118.014 L 256.521 111.12 L 255.124 111.12 L 255.124 110.586 L 256.521 110.158 L 256.521 109.723 A 4.796 4.796 0 0 1 256.633 108.636 Q 257.052 106.843 259.038 106.843 Q 259.52 106.843 260.131 106.994 A 7.66 7.66 0 0 1 260.492 107.093 L 260.185 108.041 Q 259.501 107.82 259.016 107.82 Q 258.346 107.82 258.025 108.265 Q 257.734 108.669 257.707 109.517 A 5.587 5.587 0 0 0 257.704 109.695 L 257.704 110.201 L 259.693 110.201 Z M 254.154 113.573 L 254.154 114.321 L 248.772 114.321 A 4.75 4.75 0 0 0 248.855 115.116 Q 248.941 115.55 249.112 115.892 A 2.222 2.222 0 0 0 249.467 116.41 A 2.15 2.15 0 0 0 250.596 117.046 A 3.258 3.258 0 0 0 251.324 117.123 A 6.25 6.25 0 0 0 253.665 116.659 A 7.162 7.162 0 0 0 253.819 116.595 L 253.819 117.65 A 7.104 7.104 0 0 1 253.172 117.895 A 5.433 5.433 0 0 1 252.632 118.039 A 4.968 4.968 0 0 1 252.139 118.115 Q 251.751 118.157 251.281 118.157 Q 249.549 118.157 248.547 117.102 A 3.483 3.483 0 0 1 247.714 115.572 Q 247.569 115.029 247.549 114.385 A 6.759 6.759 0 0 1 247.546 114.172 A 6.214 6.214 0 0 1 247.661 112.939 Q 247.873 111.891 248.476 111.17 Q 249.406 110.058 250.975 110.058 A 3.605 3.605 0 0 1 251.99 110.194 A 2.743 2.743 0 0 1 253.299 111.024 A 3.309 3.309 0 0 1 254.049 112.536 A 4.817 4.817 0 0 1 254.154 113.573 Z M 264.712 117.037 L 264.712 117.943 Q 264.52 118.035 264.145 118.096 Q 263.771 118.157 263.472 118.157 A 3.091 3.091 0 0 1 262.561 118.034 Q 261.205 117.616 261.205 115.768 L 261.205 111.12 L 260.085 111.12 L 260.085 110.55 L 261.205 110.058 L 261.704 108.39 L 262.388 108.39 L 262.388 110.201 L 264.655 110.201 L 264.655 111.12 L 262.388 111.12 L 262.388 115.719 Q 262.388 116.214 262.554 116.548 A 1.148 1.148 0 0 0 262.723 116.802 A 1.099 1.099 0 0 0 263.399 117.162 A 1.582 1.582 0 0 0 263.643 117.18 A 3.886 3.886 0 0 0 264.212 117.139 A 3.587 3.587 0 0 0 264.249 117.134 A 6.402 6.402 0 0 0 264.42 117.104 Q 264.583 117.074 264.696 117.042 A 1.775 1.775 0 0 0 264.712 117.037 Z M 245.471 106.921 L 245.471 118.014 L 244.288 118.014 L 244.288 106.921 L 245.471 106.921 Z M 248.8 113.359 L 252.885 113.359 A 4.033 4.033 0 0 0 252.837 112.711 Q 252.78 112.363 252.657 112.085 A 1.831 1.831 0 0 0 252.386 111.644 Q 251.887 111.049 250.96 111.049 A 2.333 2.333 0 0 0 250.287 111.142 A 1.802 1.802 0 0 0 249.46 111.662 A 2.338 2.338 0 0 0 248.995 112.446 Q 248.847 112.851 248.8 113.359 Z"
       id="left_labelLayer"
       stroke="#777777"
       fill="#777777"
       style="stroke:#777777;fill:#777777"
       vector-effect="non-scaling-stroke" />
    <path
       d="M 0 0 L 0 16.25 L 3 16.25 L 3 29.75 L 0 29.75 L 0 43.25 L 3 43.25 L 3 56.75 L 0 56.75 L 0 70.25 L 0 73 L 23.75 73 L 23.75 70 L 37.25 70 L 37.25 73 L 50.75 73 L 50.75 70 L 64.25 70 L 64.25 73 L 77.75 73 L 77.75 70 L 91.25 70 L 91.25 73 L 104.75 73 L 104.75 70 L 118.25 70 L 118.25 73 L 131.75 73 L 131.75 70 L 145.25 70 L 145.25 73 L 158.75 73 L 158.75 70 L 172.25 70 L 172.25 73 L 185.75 73 L 196 73 L 196 56.75 L 193 56.75 L 193 43.25 L 196 43.25 L 196 29.75 L 193 29.75 L 193 16.25 L 196 16.25 L 196 2.75 L 196 0 L 0 0 Z"
       id="back_outsideCutPath"
       stroke="#FF0000"
       stroke-width="0.1"
       style="stroke:#FF0000;stroke-width:0.1"
       vector-effect="non-scaling-stroke" />
    <path
       d="M 107.995 37.976 L 108.052 37.976 A 7.006 7.006 0 0 1 108.225 37.741 Q 108.424 37.482 108.709 37.151 A 25.428 25.428 0 0 1 108.986 36.835 L 111.509 34.162 L 112.914 34.162 L 109.748 37.491 L 113.135 41.975 L 111.702 41.975 L 108.943 38.282 L 108.052 39.052 L 108.052 41.975 L 106.883 41.975 L 106.883 30.882 L 108.052 30.882 L 108.052 36.764 A 7.886 7.886 0 0 1 108.048 36.986 Q 108.038 37.352 107.997 37.946 A 48.71 48.71 0 0 1 107.995 37.976 Z M 84.049 40.97 L 83.963 40.97 L 83.714 41.975 L 82.865 41.975 L 82.865 30.882 L 84.049 30.882 L 84.049 33.577 Q 84.049 34.482 83.992 35.202 L 84.049 35.202 Q 84.876 34.033 86.501 34.033 A 3.617 3.617 0 0 1 87.519 34.169 A 2.708 2.708 0 0 1 88.893 35.085 A 3.487 3.487 0 0 1 89.504 36.263 Q 89.655 36.748 89.711 37.329 A 7.596 7.596 0 0 1 89.745 38.061 Q 89.745 39.419 89.317 40.35 A 3.326 3.326 0 0 1 88.886 41.052 A 2.802 2.802 0 0 1 86.895 42.099 A 4.014 4.014 0 0 1 86.501 42.117 Q 85.738 42.117 85.107 41.836 A 2.621 2.621 0 0 1 84.049 40.97 Z M 97.494 41.975 L 96.617 41.975 L 96.382 40.863 L 96.325 40.863 A 4.906 4.906 0 0 1 95.928 41.307 Q 95.543 41.686 95.159 41.857 Q 94.68 42.072 94.005 42.109 A 5.326 5.326 0 0 1 93.708 42.117 A 3.632 3.632 0 0 1 92.969 42.047 Q 92.518 41.953 92.171 41.734 A 2.038 2.038 0 0 1 91.887 41.519 A 1.945 1.945 0 0 1 91.3 40.493 A 2.978 2.978 0 0 1 91.228 39.815 Q 91.228 37.448 95.013 37.334 L 96.339 37.291 L 96.339 36.806 A 3.399 3.399 0 0 0 96.306 36.315 Q 96.269 36.064 96.191 35.862 A 1.321 1.321 0 0 0 95.943 35.448 A 1.201 1.201 0 0 0 95.451 35.127 Q 95.254 35.056 95.01 35.028 A 2.924 2.924 0 0 0 94.678 35.01 A 3.853 3.853 0 0 0 93.791 35.121 Q 93.384 35.217 92.942 35.397 A 7.925 7.925 0 0 0 92.468 35.609 L 92.104 34.703 A 5.456 5.456 0 0 1 93.157 34.271 A 6.211 6.211 0 0 1 93.37 34.212 A 5.48 5.48 0 0 1 94.749 34.033 Q 96.146 34.033 96.82 34.654 Q 97.494 35.274 97.494 36.642 L 97.494 41.975 Z M 105.143 34.425 L 104.78 35.431 A 5.265 5.265 0 0 0 104.208 35.241 A 6.288 6.288 0 0 0 103.924 35.17 Q 103.528 35.082 103.21 35.069 A 2.623 2.623 0 0 0 103.104 35.067 A 2.625 2.625 0 0 0 102.038 35.267 Q 100.921 35.76 100.753 37.463 A 6.539 6.539 0 0 0 100.723 38.104 A 5.731 5.731 0 0 0 100.78 38.939 Q 100.842 39.362 100.973 39.705 A 2.455 2.455 0 0 0 101.304 40.314 A 1.88 1.88 0 0 0 102.522 41.042 A 2.863 2.863 0 0 0 103.026 41.084 A 4.954 4.954 0 0 0 104.392 40.885 A 6.116 6.116 0 0 0 105.029 40.663 L 105.029 41.711 Q 104.356 42.06 103.383 42.109 A 6.49 6.49 0 0 1 103.054 42.117 A 4.423 4.423 0 0 1 101.978 41.994 A 2.999 2.999 0 0 1 100.427 41.073 Q 99.497 40.029 99.497 38.118 A 6.53 6.53 0 0 1 99.598 36.931 Q 99.721 36.268 99.992 35.746 A 3.262 3.262 0 0 1 100.442 35.088 A 3.064 3.064 0 0 1 102.12 34.123 A 4.645 4.645 0 0 1 103.133 34.019 Q 103.696 34.019 104.259 34.14 A 5.907 5.907 0 0 1 104.587 34.22 Q 104.917 34.311 105.136 34.422 A 1.758 1.758 0 0 1 105.143 34.425 Z M 86.33 35.024 A 3.325 3.325 0 0 0 85.686 35.082 Q 84.964 35.225 84.583 35.719 A 2.026 2.026 0 0 0 84.29 36.278 Q 84.049 36.955 84.049 38.061 A 7.825 7.825 0 0 0 84.087 38.87 Q 84.195 39.896 84.598 40.417 Q 85.147 41.127 86.358 41.127 A 2.359 2.359 0 0 0 87.029 41.037 A 1.702 1.702 0 0 0 87.984 40.332 A 2.717 2.717 0 0 0 88.32 39.605 Q 88.425 39.259 88.475 38.841 A 6.781 6.781 0 0 0 88.519 38.047 A 6.992 6.992 0 0 0 88.476 37.25 Q 88.368 36.311 87.984 35.773 Q 87.449 35.024 86.33 35.024 Z M 96.31 38.838 L 96.31 38.132 L 95.127 38.182 A 8.689 8.689 0 0 0 94.433 38.233 Q 93.55 38.335 93.092 38.621 A 1.263 1.263 0 0 0 92.49 39.537 A 1.869 1.869 0 0 0 92.468 39.829 Q 92.468 40.393 92.768 40.72 A 1.054 1.054 0 0 0 92.856 40.806 A 1.288 1.288 0 0 0 93.339 41.062 Q 93.53 41.119 93.759 41.135 A 2.662 2.662 0 0 0 93.944 41.141 Q 95.049 41.141 95.68 40.535 A 1.982 1.982 0 0 0 96.232 39.545 Q 96.31 39.222 96.31 38.838 Z"
       id="back_labelLayer"
       stroke="#777777"
       fill="#777777"
       style="stroke:#777777;fill:#777777"
       vector-effect="non-scaling-stroke" />
    <path
       d="M 202 0 L 202 16.25 L 199 16.25 L 199 29.75 L 202 29.75 L 202 43.25 L 199 43.25 L 199 56.75 L 202 56.75 L 202 70.25 L 202 73 L 220.75 73 L 220.75 70 L 234.25 70 L 234.25 73 L 247.75 73 L 247.75 70 L 261.25 70 L 261.25 73 L 274.75 73 L 274.75 70 L 288.25 70 L 288.25 73 L 301.75 73 L 307 73 L 307 56.75 L 310 56.75 L 310 43.25 L 307 43.25 L 307 29.75 L 310 29.75 L 310 16.25 L 307 16.25 L 307 2.75 L 307 0 L 202 0 Z"
       id="right_outsideCutPath"
       stroke="#FF0000"
       stroke-width="0.1"
       style="stroke:#FF0000;stroke-width:0.1"
       vector-effect="non-scaling-stroke" />
    <path
       d="M 263.579 40.293 L 262.395 40.293 L 262.395 35.238 A 3.345 3.345 0 0 0 262.357 34.714 Q 262.313 34.437 262.219 34.217 A 1.408 1.408 0 0 0 261.96 33.812 A 1.334 1.334 0 0 0 261.413 33.463 Q 261.198 33.387 260.934 33.359 A 3.137 3.137 0 0 0 260.599 33.342 A 3.581 3.581 0 0 0 259.929 33.4 Q 259.198 33.539 258.799 34.012 Q 258.281 34.625 258.236 35.952 A 7.638 7.638 0 0 0 258.232 36.208 L 258.232 40.293 L 257.049 40.293 L 257.049 29.2 L 258.232 29.2 L 258.232 32.558 Q 258.232 32.994 258.202 33.323 A 4.629 4.629 0 0 1 258.175 33.563 L 258.246 33.563 A 2.364 2.364 0 0 1 259.075 32.766 A 2.888 2.888 0 0 1 259.241 32.675 A 3.038 3.038 0 0 1 260.238 32.38 A 3.841 3.841 0 0 1 260.713 32.351 A 4.801 4.801 0 0 1 261.52 32.414 Q 261.948 32.487 262.288 32.645 A 2.133 2.133 0 0 1 262.862 33.032 A 2.06 2.06 0 0 1 263.37 33.83 Q 263.492 34.162 263.543 34.573 A 5.117 5.117 0 0 1 263.579 35.195 L 263.579 40.293 Z M 252.743 32.479 L 255.445 32.479 L 255.445 33.228 L 253.997 33.399 A 1.923 1.923 0 0 1 254.164 33.647 Q 254.266 33.825 254.354 34.051 A 2.277 2.277 0 0 1 254.489 34.595 A 2.924 2.924 0 0 1 254.511 34.96 A 2.713 2.713 0 0 1 254.386 35.801 A 2.194 2.194 0 0 1 253.727 36.792 Q 252.942 37.477 251.574 37.477 A 3.803 3.803 0 0 1 251.134 37.452 A 3.212 3.212 0 0 1 250.918 37.42 A 2.106 2.106 0 0 0 250.578 37.639 Q 250.162 37.975 250.162 38.425 A 0.613 0.613 0 0 0 250.193 38.626 Q 250.25 38.79 250.41 38.889 A 0.657 0.657 0 0 0 250.426 38.899 A 0.83 0.83 0 0 0 250.61 38.975 Q 250.803 39.031 251.096 39.046 A 4.502 4.502 0 0 0 251.331 39.052 L 252.714 39.052 A 4.844 4.844 0 0 1 253.45 39.104 Q 253.835 39.164 254.145 39.29 A 2.139 2.139 0 0 1 254.664 39.587 A 1.731 1.731 0 0 1 255.307 40.69 A 2.6 2.6 0 0 1 255.345 41.141 Q 255.345 42.438 254.304 43.119 A 3.549 3.549 0 0 1 253.389 43.534 Q 252.515 43.8 251.267 43.8 A 6.63 6.63 0 0 1 250.378 43.744 Q 249.926 43.683 249.558 43.554 A 2.75 2.75 0 0 1 248.904 43.23 A 1.886 1.886 0 0 1 248.296 42.57 Q 248.101 42.209 248.077 41.751 A 2.499 2.499 0 0 1 248.073 41.619 A 1.809 1.809 0 0 1 248.53 40.385 A 2.066 2.066 0 0 1 249.239 39.868 A 2.929 2.929 0 0 1 249.813 39.679 A 1.228 1.228 0 0 1 249.336 39.294 A 1.458 1.458 0 0 1 249.31 39.259 A 1.097 1.097 0 0 1 249.109 38.666 A 1.359 1.359 0 0 1 249.107 38.596 A 1.353 1.353 0 0 1 249.175 38.16 A 1.199 1.199 0 0 1 249.335 37.847 A 1.694 1.694 0 0 1 249.559 37.595 Q 249.678 37.484 249.83 37.375 A 3.718 3.718 0 0 1 250.055 37.227 A 2.075 2.075 0 0 1 249.154 36.506 A 2.571 2.571 0 0 1 249.068 36.379 A 2.446 2.446 0 0 1 248.692 35.2 A 2.986 2.986 0 0 1 248.686 35.01 A 3.419 3.419 0 0 1 248.776 34.202 A 2.249 2.249 0 0 1 249.456 33.032 A 2.513 2.513 0 0 1 250.421 32.5 Q 250.804 32.383 251.265 32.35 A 5.227 5.227 0 0 1 251.638 32.337 A 4.536 4.536 0 0 1 252.238 32.375 A 3.455 3.455 0 0 1 252.743 32.479 Z M 269.603 39.316 L 269.603 40.221 Q 269.41 40.314 269.036 40.375 Q 268.662 40.435 268.362 40.435 A 3.091 3.091 0 0 1 267.451 40.313 Q 266.095 39.894 266.095 38.047 L 266.095 33.399 L 264.976 33.399 L 264.976 32.829 L 266.095 32.337 L 266.594 30.669 L 267.279 30.669 L 267.279 32.479 L 269.546 32.479 L 269.546 33.399 L 267.279 33.399 L 267.279 37.997 Q 267.279 38.493 267.444 38.827 A 1.148 1.148 0 0 0 267.614 39.081 A 1.099 1.099 0 0 0 268.289 39.44 A 1.582 1.582 0 0 0 268.533 39.458 A 3.886 3.886 0 0 0 269.103 39.418 A 3.587 3.587 0 0 0 269.139 39.412 A 6.402 6.402 0 0 0 269.31 39.383 Q 269.473 39.352 269.587 39.32 A 1.775 1.775 0 0 0 269.603 39.316 Z M 243.896 32.422 L 243.732 33.52 A 5.215 5.215 0 0 0 243.357 33.451 Q 243.17 33.424 243.003 33.416 A 2.776 2.776 0 0 0 242.876 33.413 Q 241.928 33.413 241.254 34.183 A 2.702 2.702 0 0 0 240.603 35.7 A 3.592 3.592 0 0 0 240.581 36.101 L 240.581 40.293 L 239.397 40.293 L 239.397 32.479 L 240.374 32.479 L 240.51 33.926 L 240.567 33.926 A 3.996 3.996 0 0 1 241.013 33.288 A 3.053 3.053 0 0 1 241.615 32.75 A 2.359 2.359 0 0 1 242.962 32.337 A 5.433 5.433 0 0 1 243.448 32.357 A 3.965 3.965 0 0 1 243.896 32.422 Z M 246.541 32.479 L 246.541 40.293 L 245.357 40.293 L 245.357 32.479 L 246.541 32.479 Z M 252.336 40.114 L 250.918 40.114 Q 250.328 40.114 249.929 40.321 A 1.386 1.386 0 0 0 249.663 40.499 A 1.247 1.247 0 0 0 249.253 41.206 A 1.894 1.894 0 0 0 249.214 41.604 A 1.189 1.189 0 0 0 249.292 42.045 Q 249.419 42.364 249.749 42.567 A 1.895 1.895 0 0 0 250.215 42.766 Q 250.658 42.895 251.281 42.895 Q 252.612 42.895 253.326 42.539 A 1.965 1.965 0 0 0 253.488 42.449 Q 254.204 42.003 254.204 41.241 A 1.601 1.601 0 0 0 254.175 40.923 Q 254.138 40.74 254.054 40.604 A 0.746 0.746 0 0 0 253.812 40.36 A 1.123 1.123 0 0 0 253.546 40.244 Q 253.262 40.157 252.814 40.128 A 7.53 7.53 0 0 0 252.336 40.114 Z M 249.856 34.981 A 2.31 2.31 0 0 0 249.903 35.466 Q 249.967 35.766 250.119 35.991 A 1.266 1.266 0 0 0 250.319 36.222 Q 250.736 36.601 251.449 36.638 A 3.047 3.047 0 0 0 251.609 36.643 A 2.578 2.578 0 0 0 252.284 36.562 Q 253.057 36.352 253.265 35.594 A 2.397 2.397 0 0 0 253.342 34.96 A 2.545 2.545 0 0 0 253.255 34.263 Q 252.951 33.199 251.588 33.199 A 2.483 2.483 0 0 0 251.082 33.248 Q 250.772 33.312 250.535 33.463 A 1.362 1.362 0 0 0 250.305 33.648 Q 249.923 34.03 249.866 34.724 A 3.113 3.113 0 0 0 249.856 34.981 Z M 245.274 30.145 A 1.311 1.311 0 0 0 245.257 30.362 A 1.397 1.397 0 0 0 245.263 30.496 Q 245.275 30.615 245.308 30.713 A 0.611 0.611 0 0 0 245.457 30.957 A 0.664 0.664 0 0 0 245.697 31.11 A 0.752 0.752 0 0 0 245.956 31.153 A 0.69 0.69 0 0 0 246.448 30.957 A 0.578 0.578 0 0 0 246.561 30.808 Q 246.612 30.711 246.635 30.586 A 1.224 1.224 0 0 0 246.655 30.362 A 1.354 1.354 0 0 0 246.649 30.234 Q 246.62 29.93 246.448 29.77 A 0.697 0.697 0 0 0 245.956 29.578 A 0.903 0.903 0 0 0 245.896 29.58 A 0.684 0.684 0 0 0 245.457 29.767 Q 245.315 29.901 245.274 30.145 Z"
       id="right_labelLayer"
       stroke="#777777"
       fill="#777777"
       style="stroke:#777777;fill:#777777"
       vector-effect="non-scaling-stroke" />
    <path
       d="M 316 41 L 316 59.75 L 313 59.75 L 313 73.25 L 316 73.25 L 316 86.75 L 313 86.75 L 313 100.25 L 316 100.25 L 316 113.75 L 313 113.75 L 313 127.25 L 316 127.25 L 316 140.75 L 316 146 L 336.75 146 L 336.75 149 L 350.25 149 L 350.25 146 L 363.75 146 L 363.75 149 L 377.25 149 L 377.25 146 L 390.75 146 L 390.75 149 L 404.25 149 L 404.25 146 L 417.75 146 L 417.75 149 L 431.25 149 L 431.25 146 L 444.75 146 L 444.75 149 L 458.25 149 L 458.25 146 L 471.75 146 L 471.75 149 L 485.25 149 L 485.25 146 L 498.75 146 L 506 146 L 506 127.25 L 509 127.25 L 509 113.75 L 506 113.75 L 506 100.25 L 509 100.25 L 509 86.75 L 506 86.75 L 506 73.25 L 509 73.25 L 509 59.75 L 506 59.75 L 506 46.25 L 506 41 L 485.25 41 L 485.25 38 L 471.75 38 L 471.75 41 L 458.25 41 L 458.25 38 L 444.75 38 L 444.75 41 L 431.25 41 L 431.25 38 L 417.75 38 L 417.75 41 L 404.25 41 L 404.25 38 L 390.75 38 L 390.75 41 L 377.25 41 L 377.25 38 L 363.75 38 L 363.75 41 L 350.25 41 L 350.25 38 L 336.75 38 L 336.75 41 L 323.25 41 L 316 41 Z"
       id="bottom_outsideCutPath"
       stroke="#FF0000"
       stroke-width="0.1"
       style="stroke:#FF0000;stroke-width:0.1"
       vector-effect="non-scaling-stroke" />
    <path
       d="M 447.519 101.825 L 445.72 101.825 L 445.72 94.096 A 5.308 5.308 0 0 0 445.666 93.315 Q 445.607 92.917 445.482 92.595 A 2.175 2.175 0 0 0 445.113 91.966 A 1.893 1.893 0 0 0 444.233 91.397 Q 443.919 91.295 443.537 91.267 A 4.177 4.177 0 0 0 443.227 91.256 A 4.63 4.63 0 0 0 442.284 91.345 Q 441.724 91.462 441.302 91.73 A 2.383 2.383 0 0 0 440.744 92.221 A 2.973 2.973 0 0 0 440.24 93.133 Q 439.945 93.962 439.942 95.172 A 9.911 9.911 0 0 0 439.942 95.191 L 439.942 101.825 L 438.143 101.825 L 438.143 94.096 A 5.308 5.308 0 0 0 438.089 93.315 Q 438.03 92.917 437.905 92.595 A 2.175 2.175 0 0 0 437.536 91.966 A 1.888 1.888 0 0 0 436.668 91.402 Q 436.355 91.299 435.974 91.269 A 4.214 4.214 0 0 0 435.639 91.256 A 4.469 4.469 0 0 0 434.715 91.345 Q 434.144 91.466 433.719 91.749 A 2.359 2.359 0 0 0 433.162 92.269 A 3.018 3.018 0 0 0 432.715 93.119 Q 432.424 93.94 432.383 95.17 A 12.529 12.529 0 0 0 432.376 95.592 L 432.376 101.825 L 430.577 101.825 L 430.577 89.944 L 432.04 89.944 L 432.333 91.57 L 432.419 91.57 A 3.536 3.536 0 0 1 433.856 90.215 A 4.272 4.272 0 0 1 435.543 89.742 A 5.16 5.16 0 0 1 435.932 89.727 Q 437.657 89.727 438.642 90.501 A 3.072 3.072 0 0 1 439.574 91.744 L 439.66 91.744 Q 440.192 90.811 441.2 90.269 A 4.554 4.554 0 0 1 442.87 89.761 A 5.679 5.679 0 0 1 443.498 89.727 A 6.255 6.255 0 0 1 444.632 89.824 Q 445.263 89.94 445.755 90.198 A 2.965 2.965 0 0 1 446.517 90.763 A 3.099 3.099 0 0 1 447.182 91.851 Q 447.361 92.331 447.445 92.928 A 8.253 8.253 0 0 1 447.519 94.074 L 447.519 101.825 Z M 376.28 100.296 L 376.15 100.296 L 375.77 101.825 L 374.481 101.825 L 374.481 84.958 L 376.28 84.958 L 376.28 89.055 A 37.516 37.516 0 0 1 376.26 90.323 Q 376.239 90.922 376.199 91.456 A 22.472 22.472 0 0 1 376.193 91.527 L 376.28 91.527 A 4.091 4.091 0 0 1 379.266 89.793 A 6.146 6.146 0 0 1 380.009 89.749 A 5.5 5.5 0 0 1 381.557 89.956 A 4.117 4.117 0 0 1 383.646 91.348 A 5.302 5.302 0 0 1 384.575 93.139 Q 384.804 93.876 384.89 94.76 A 11.55 11.55 0 0 1 384.941 95.874 Q 384.941 97.939 384.291 99.354 A 5.058 5.058 0 0 1 383.635 100.421 A 4.26 4.26 0 0 1 380.607 102.013 A 6.103 6.103 0 0 1 380.009 102.042 Q 378.849 102.042 377.89 101.613 Q 376.93 101.185 376.28 100.296 Z M 406.957 100.34 L 406.957 101.716 A 1.77 1.77 0 0 1 406.747 101.8 Q 406.486 101.886 406.095 101.949 Q 405.564 102.035 405.132 102.041 A 4.611 4.611 0 0 1 405.071 102.042 A 4.7 4.7 0 0 1 403.686 101.855 Q 401.623 101.219 401.623 98.41 L 401.623 91.343 L 399.922 91.343 L 399.922 90.475 L 401.623 89.727 L 402.382 87.191 L 403.423 87.191 L 403.423 89.944 L 406.87 89.944 L 406.87 91.343 L 403.423 91.343 L 403.423 98.334 A 3.623 3.623 0 0 0 403.475 98.971 Q 403.538 99.32 403.674 99.596 A 1.745 1.745 0 0 0 403.932 99.982 A 1.672 1.672 0 0 0 404.96 100.529 A 2.405 2.405 0 0 0 405.331 100.556 A 5.91 5.91 0 0 0 406.196 100.495 A 5.447 5.447 0 0 0 406.252 100.486 Q 406.676 100.419 406.933 100.347 A 2.702 2.702 0 0 0 406.957 100.34 Z M 414.794 100.34 L 414.794 101.716 A 1.77 1.77 0 0 1 414.584 101.8 Q 414.323 101.886 413.932 101.949 Q 413.401 102.035 412.969 102.041 A 4.611 4.611 0 0 1 412.908 102.042 A 4.7 4.7 0 0 1 411.523 101.855 Q 409.461 101.219 409.461 98.41 L 409.461 91.343 L 407.759 91.343 L 407.759 90.475 L 409.461 89.727 L 410.219 87.191 L 411.26 87.191 L 411.26 89.944 L 414.707 89.944 L 414.707 91.343 L 411.26 91.343 L 411.26 98.334 A 3.623 3.623 0 0 0 411.312 98.971 Q 411.375 99.32 411.512 99.596 A 1.745 1.745 0 0 0 411.77 99.982 A 1.672 1.672 0 0 0 412.797 100.529 A 2.405 2.405 0 0 0 413.168 100.556 A 5.91 5.91 0 0 0 414.034 100.495 A 5.447 5.447 0 0 0 414.089 100.486 Q 414.513 100.419 414.77 100.347 A 2.702 2.702 0 0 0 414.794 100.34 Z M 396.876 100.41 A 5.02 5.02 0 0 0 397.473 99.589 Q 398.339 98.108 398.339 95.874 A 10.56 10.56 0 0 0 398.335 95.588 Q 398.264 92.96 396.87 91.386 A 4.711 4.711 0 0 0 394.683 89.975 A 6.046 6.046 0 0 0 392.908 89.727 A 6.989 6.989 0 0 0 391.653 89.835 A 4.76 4.76 0 0 0 388.876 91.348 A 4.971 4.971 0 0 0 388.265 92.195 Q 387.795 93.014 387.587 94.067 A 9.343 9.343 0 0 0 387.423 95.874 A 9.002 9.002 0 0 0 387.536 97.332 A 6.657 6.657 0 0 0 388.095 99.147 A 5.915 5.915 0 0 0 388.226 99.404 A 4.871 4.871 0 0 0 390.003 101.294 A 5.01 5.01 0 0 0 391.153 101.805 A 5.778 5.778 0 0 0 392.832 102.042 A 6.987 6.987 0 0 0 394.053 101.94 A 4.797 4.797 0 0 0 396.876 100.41 Z M 425.959 100.41 A 5.02 5.02 0 0 0 426.557 99.589 Q 427.422 98.108 427.422 95.874 A 10.56 10.56 0 0 0 427.418 95.588 Q 427.347 92.96 425.954 91.386 A 4.711 4.711 0 0 0 423.767 89.975 A 6.046 6.046 0 0 0 421.992 89.727 A 6.989 6.989 0 0 0 420.736 89.835 A 4.76 4.76 0 0 0 417.959 91.348 A 4.971 4.971 0 0 0 417.349 92.195 Q 416.878 93.014 416.671 94.067 A 9.343 9.343 0 0 0 416.507 95.874 A 9.002 9.002 0 0 0 416.62 97.332 A 6.657 6.657 0 0 0 417.179 99.147 A 5.915 5.915 0 0 0 417.31 99.404 A 4.871 4.871 0 0 0 419.086 101.294 A 5.01 5.01 0 0 0 420.237 101.805 A 5.778 5.778 0 0 0 421.916 102.042 A 6.987 6.987 0 0 0 423.136 101.94 A 4.797 4.797 0 0 0 425.959 100.41 Z M 389.288 95.874 A 9.112 9.112 0 0 0 389.374 97.175 Q 389.569 98.518 390.198 99.342 A 2.949 2.949 0 0 0 392.119 100.474 A 4.469 4.469 0 0 0 392.876 100.535 A 4.18 4.18 0 0 0 393.978 100.398 A 2.909 2.909 0 0 0 395.559 99.348 A 3.863 3.863 0 0 0 396.16 98.176 Q 396.337 97.635 396.414 96.974 A 9.478 9.478 0 0 0 396.475 95.874 A 8.978 8.978 0 0 0 396.39 94.594 Q 396.195 93.25 395.559 92.432 A 2.96 2.96 0 0 0 393.718 91.334 A 4.538 4.538 0 0 0 392.854 91.256 Q 391.087 91.256 390.187 92.416 A 3.72 3.72 0 0 0 389.609 93.533 Q 389.288 94.5 389.288 95.874 Z M 418.371 95.874 A 9.112 9.112 0 0 0 418.458 97.175 Q 418.652 98.518 419.282 99.342 A 2.949 2.949 0 0 0 421.202 100.474 A 4.469 4.469 0 0 0 421.959 100.535 A 4.18 4.18 0 0 0 423.062 100.398 A 2.909 2.909 0 0 0 424.642 99.348 A 3.863 3.863 0 0 0 425.243 98.176 Q 425.42 97.635 425.498 96.974 A 9.478 9.478 0 0 0 425.558 95.874 A 8.978 8.978 0 0 0 425.473 94.594 Q 425.279 93.25 424.642 92.432 A 2.96 2.96 0 0 0 422.802 91.334 A 4.538 4.538 0 0 0 421.937 91.256 Q 420.17 91.256 419.271 92.416 A 3.72 3.72 0 0 0 418.692 93.533 Q 418.371 94.5 418.371 95.874 Z M 379.749 91.256 A 5.057 5.057 0 0 0 378.769 91.344 Q 378.212 91.454 377.788 91.703 A 2.393 2.393 0 0 0 377.093 92.313 Q 376.28 93.37 376.28 95.874 Q 376.28 98.378 377.115 99.456 Q 377.863 100.423 379.421 100.523 A 5.786 5.786 0 0 0 379.792 100.535 A 3.587 3.587 0 0 0 380.811 100.398 A 2.588 2.588 0 0 0 382.264 99.326 Q 382.844 98.463 383.01 97.06 A 10.311 10.311 0 0 0 383.077 95.852 Q 383.077 93.532 382.264 92.394 A 2.624 2.624 0 0 0 380.593 91.337 A 4.162 4.162 0 0 0 379.749 91.256 Z"
       id="bottom_labelLayer"
       stroke="#777777"
       fill="#777777"
       style="stroke:#777777;fill:#777777"
       vector-effect="non-scaling-stroke" />
  </g>
  <circle
     style="fill:#ffffff;fill-opacity:1;stroke:#ff0000;stroke-opacity:1;stroke-width:0.1;stroke-dasharray:none"
     id="path192"
     cx="162.5"
     cy="42.5"
     r="7.5" />
</svg>
