<?xml version="1.0" encoding="UTF-8" standalone="no"?>
<svg
   width="526mm"
   height="122mm"
   viewBox="0 0 526 122"
   version="1.1"
   preserveAspectRatio="xMidYMid meet"
   id="svg404"
   sodipodi:docname="doos_spiegel_2v2.svg"
   inkscape:version="1.2.2 (732a01da63, 2022-12-09)"
   xmlns:inkscape="http://www.inkscape.org/namespaces/inkscape"
   xmlns:sodipodi="http://sodipodi.sourceforge.net/DTD/sodipodi-0.dtd"
   xmlns="http://www.w3.org/2000/svg"
   xmlns:svg="http://www.w3.org/2000/svg">
  <defs
     id="defs408" />
  <sodipodi:namedview
     id="namedview406"
     pagecolor="#ffffff"
     bordercolor="#000000"
     borderopacity="0.25"
     inkscape:showpageshadow="2"
     inkscape:pageopacity="0.0"
     inkscape:pagecheckerboard="0"
     inkscape:deskcolor="#d1d1d1"
     inkscape:document-units="mm"
     showgrid="false"
     inkscape:zoom="0.71980751"
     inkscape:cx="863.42528"
     inkscape:cy="296.60708"
     inkscape:window-width="1920"
     inkscape:window-height="1001"
     inkscape:window-x="-9"
     inkscape:window-y="-9"
     inkscape:window-maximized="1"
     inkscape:current-layer="svg404" />
  <g
     id="svgGroup"
     stroke-linecap="round"
     fill-rule="evenodd"
     font-size="9pt"
     stroke="#000"
     stroke-width="0.25mm"
     fill="none"
     style="stroke:#000;stroke-width:0.25mm;fill:none">
    <path
       d="M 0 66 L 0 81.805 L 6 81.805 L 6 106.195 L 0 106.195 L 0 122 L 38.525 122 L 38.525 116 L 62.915 116 L 62.915 122 L 87.305 122 L 87.305 116 L 111.695 116 L 111.695 122 L 136.085 122 L 136.085 116 L 160.475 116 L 160.475 122 L 184.865 122 L 199 122 L 199 106.195 L 193 106.195 L 193 81.805 L 199 81.805 L 199 66 L 0 66 Z"
       id="front_outsideCutPath"
       stroke="#FF0000"
       stroke-width="0.1"
       style="stroke:#FF0000;stroke-width:0.1"
       vector-effect="non-scaling-stroke" />
    <path
       d="M 107.662 98.23 L 106.754 98.23 L 106.754 94.353 A 2.566 2.566 0 0 0 106.725 93.95 Q 106.691 93.738 106.619 93.569 A 1.08 1.08 0 0 0 106.421 93.259 A 1.023 1.023 0 0 0 106.001 92.991 Q 105.737 92.898 105.376 92.898 Q 104.757 92.898 104.355 93.119 A 1.28 1.28 0 0 0 103.998 93.407 Q 103.598 93.871 103.564 94.888 A 5.815 5.815 0 0 0 103.561 95.085 L 103.561 98.23 L 102.653 98.23 L 102.653 92.236 L 103.391 92.236 L 103.539 93.057 L 103.582 93.057 A 1.838 1.838 0 0 1 104.302 92.401 A 2.21 2.21 0 0 1 104.364 92.37 A 2.458 2.458 0 0 1 105.239 92.137 A 2.972 2.972 0 0 1 105.486 92.127 A 3.584 3.584 0 0 1 106.096 92.175 Q 106.425 92.232 106.686 92.357 A 1.631 1.631 0 0 1 107.115 92.649 A 1.573 1.573 0 0 1 107.499 93.251 Q 107.591 93.499 107.631 93.806 A 3.962 3.962 0 0 1 107.662 94.32 L 107.662 98.23 Z M 90.222 92.236 L 90.222 92.942 L 88.696 92.942 L 88.696 98.23 L 87.789 98.23 L 87.789 92.942 L 86.717 92.942 L 86.717 92.532 L 87.789 92.203 L 87.789 91.87 A 3.679 3.679 0 0 1 87.875 91.036 Q 88.14 89.899 89.227 89.702 A 2.759 2.759 0 0 1 89.719 89.66 A 2.923 2.923 0 0 1 90.133 89.692 Q 90.334 89.721 90.558 89.776 A 5.877 5.877 0 0 1 90.835 89.852 L 90.6 90.579 Q 90.227 90.459 89.931 90.424 A 1.952 1.952 0 0 0 89.703 90.41 Q 89.189 90.41 88.943 90.751 Q 88.719 91.062 88.699 91.711 A 4.286 4.286 0 0 0 88.696 91.848 L 88.696 92.236 L 90.222 92.236 Z M 112.283 97.481 L 112.283 98.175 Q 112.136 98.246 111.848 98.293 Q 111.58 98.336 111.362 98.339 A 2.325 2.325 0 0 1 111.332 98.339 Q 109.945 98.339 109.664 97.174 A 2.853 2.853 0 0 1 109.593 96.507 L 109.593 92.942 L 108.734 92.942 L 108.734 92.504 L 109.593 92.127 L 109.975 90.847 L 110.5 90.847 L 110.5 92.236 L 112.239 92.236 L 112.239 92.942 L 110.5 92.942 L 110.5 96.469 Q 110.5 96.849 110.627 97.106 A 0.881 0.881 0 0 0 110.757 97.3 A 0.843 0.843 0 0 0 111.276 97.576 A 1.213 1.213 0 0 0 111.463 97.59 A 2.981 2.981 0 0 0 111.9 97.559 A 2.748 2.748 0 0 0 111.928 97.555 Q 112.142 97.521 112.271 97.484 A 1.367 1.367 0 0 0 112.283 97.481 Z M 94.767 92.192 L 94.641 93.035 A 4.001 4.001 0 0 0 94.353 92.982 Q 94.21 92.961 94.082 92.955 A 2.129 2.129 0 0 0 93.985 92.953 A 1.573 1.573 0 0 0 92.823 93.455 A 2.152 2.152 0 0 0 92.741 93.543 A 2.073 2.073 0 0 0 92.241 94.707 A 2.756 2.756 0 0 0 92.224 95.014 L 92.224 98.23 L 91.316 98.23 L 91.316 92.236 L 92.065 92.236 L 92.169 93.346 L 92.213 93.346 A 3.066 3.066 0 0 1 92.556 92.857 A 2.342 2.342 0 0 1 93.017 92.444 A 1.81 1.81 0 0 1 94.05 92.127 Q 94.45 92.127 94.767 92.192 Z M 100.978 96.14 A 4.689 4.689 0 0 0 101.061 95.228 A 5.328 5.328 0 0 0 101.059 95.083 Q 101.046 94.584 100.938 94.161 A 2.827 2.827 0 0 0 100.32 92.964 A 2.377 2.377 0 0 0 99.217 92.252 A 3.05 3.05 0 0 0 98.321 92.127 A 3.526 3.526 0 0 0 97.688 92.181 A 2.401 2.401 0 0 0 96.287 92.944 Q 95.554 93.762 95.554 95.228 Q 95.554 96.174 95.893 96.879 A 2.984 2.984 0 0 0 95.959 97.009 A 2.458 2.458 0 0 0 96.856 97.962 A 2.528 2.528 0 0 0 97.436 98.22 A 2.915 2.915 0 0 0 98.283 98.339 A 3.525 3.525 0 0 0 98.899 98.288 A 2.42 2.42 0 0 0 100.323 97.516 Q 100.813 96.97 100.978 96.14 Z M 96.495 95.228 A 4.597 4.597 0 0 0 96.539 95.884 Q 96.637 96.562 96.954 96.978 A 1.488 1.488 0 0 0 97.923 97.548 A 2.255 2.255 0 0 0 98.305 97.579 A 2.109 2.109 0 0 0 98.861 97.51 A 1.467 1.467 0 0 0 99.659 96.98 A 1.949 1.949 0 0 0 99.962 96.389 Q 100.051 96.116 100.09 95.783 A 4.782 4.782 0 0 0 100.121 95.228 A 4.53 4.53 0 0 0 100.078 94.582 Q 100.03 94.254 99.931 93.987 A 1.869 1.869 0 0 0 99.659 93.491 A 1.493 1.493 0 0 0 98.73 92.937 A 2.29 2.29 0 0 0 98.294 92.898 A 2.16 2.16 0 0 0 97.756 92.961 A 1.446 1.446 0 0 0 96.949 93.483 A 1.877 1.877 0 0 0 96.657 94.047 Q 96.495 94.535 96.495 95.228 Z"
       id="front_labelLayer"
       stroke="#777777"
       fill="#777777"
       style="stroke:#777777;fill:#777777"
       vector-effect="non-scaling-stroke" />
    <path
       d="M 208 66 L 208 81.805 L 202 81.805 L 202 106.195 L 208 106.195 L 208 122 L 226.415 122 L 226.415 116 L 250.805 116 L 250.805 122 L 275.195 122 L 275.195 116 L 299.585 116 L 299.585 122 L 318 122 L 318 106.195 L 324 106.195 L 324 81.805 L 318 81.805 L 318 66 L 208 66 Z"
       id="left_outsideCutPath"
       stroke="#FF0000"
       stroke-width="0.1"
       style="stroke:#FF0000;stroke-width:0.1"
       vector-effect="non-scaling-stroke" />
    <path
       d="M 266.984 92.236 L 266.984 92.942 L 265.458 92.942 L 265.458 98.23 L 264.55 98.23 L 264.55 92.942 L 263.479 92.942 L 263.479 92.532 L 264.55 92.203 L 264.55 91.87 A 3.679 3.679 0 0 1 264.636 91.036 Q 264.902 89.899 265.989 89.702 A 2.759 2.759 0 0 1 266.481 89.66 A 2.923 2.923 0 0 1 266.895 89.692 Q 267.096 89.721 267.32 89.776 A 5.877 5.877 0 0 1 267.596 89.852 L 267.361 90.579 Q 266.988 90.459 266.693 90.424 A 1.952 1.952 0 0 0 266.464 90.41 Q 265.95 90.41 265.704 90.751 Q 265.481 91.062 265.46 91.711 A 4.286 4.286 0 0 0 265.458 91.848 L 265.458 92.236 L 266.984 92.236 Z M 262.735 94.823 L 262.735 95.397 L 258.606 95.397 Q 258.625 96.118 258.867 96.602 A 1.704 1.704 0 0 0 259.139 96.999 A 1.65 1.65 0 0 0 260.005 97.487 A 2.499 2.499 0 0 0 260.564 97.546 A 4.795 4.795 0 0 0 262.359 97.191 A 5.494 5.494 0 0 0 262.478 97.142 L 262.478 97.951 A 5.45 5.45 0 0 1 261.981 98.139 A 4.168 4.168 0 0 1 261.567 98.249 A 3.811 3.811 0 0 1 261.189 98.308 Q 260.891 98.339 260.531 98.339 A 3.528 3.528 0 0 1 259.648 98.235 A 2.498 2.498 0 0 1 258.434 97.53 A 2.672 2.672 0 0 1 257.794 96.356 Q 257.683 95.94 257.668 95.446 A 5.185 5.185 0 0 1 257.665 95.282 A 4.767 4.767 0 0 1 257.753 94.337 Q 257.916 93.533 258.379 92.98 A 2.326 2.326 0 0 1 260.074 92.134 A 3.209 3.209 0 0 1 260.296 92.127 A 2.766 2.766 0 0 1 261.074 92.231 A 2.104 2.104 0 0 1 262.079 92.868 A 2.538 2.538 0 0 1 262.654 94.028 A 3.695 3.695 0 0 1 262.735 94.823 Z M 270.834 97.481 L 270.834 98.175 Q 270.686 98.246 270.399 98.293 Q 270.131 98.336 269.913 98.339 A 2.325 2.325 0 0 1 269.882 98.339 Q 268.495 98.339 268.215 97.174 A 2.853 2.853 0 0 1 268.143 96.507 L 268.143 92.942 L 267.285 92.942 L 267.285 92.504 L 268.143 92.127 L 268.526 90.847 L 269.051 90.847 L 269.051 92.236 L 270.79 92.236 L 270.79 92.942 L 269.051 92.942 L 269.051 96.469 Q 269.051 96.849 269.178 97.106 A 0.881 0.881 0 0 0 269.308 97.3 A 0.843 0.843 0 0 0 269.827 97.576 A 1.213 1.213 0 0 0 270.014 97.59 A 2.981 2.981 0 0 0 270.45 97.559 A 2.748 2.748 0 0 0 270.479 97.555 Q 270.692 97.521 270.822 97.484 A 1.367 1.367 0 0 0 270.834 97.481 Z M 256.074 89.721 L 256.074 98.23 L 255.166 98.23 L 255.166 89.721 L 256.074 89.721 Z M 258.628 94.659 L 261.761 94.659 Q 261.761 93.8 261.379 93.344 A 1.244 1.244 0 0 0 260.63 92.917 A 1.866 1.866 0 0 0 260.285 92.887 A 1.79 1.79 0 0 0 259.768 92.958 A 1.383 1.383 0 0 0 259.134 93.357 A 1.793 1.793 0 0 0 258.777 93.959 Q 258.664 94.269 258.628 94.659 Z"
       id="left_labelLayer"
       stroke="#777777"
       fill="#777777"
       style="stroke:#777777;fill:#777777"
       vector-effect="non-scaling-stroke" />
    <path
       d="M 0 7 L 0 22.805 L 6 22.805 L 6 47.195 L 0 47.195 L 0 63 L 38.525 63 L 38.525 57 L 62.915 57 L 62.915 63 L 87.305 63 L 87.305 57 L 111.695 57 L 111.695 63 L 136.085 63 L 136.085 57 L 160.475 57 L 160.475 63 L 184.865 63 L 199 63 L 199 47.195 L 193 47.195 L 193 22.805 L 199 22.805 L 199 7 L 0 7 Z"
       id="back_outsideCutPath"
       stroke="#FF0000"
       stroke-width="0.1"
       style="stroke:#FF0000;stroke-width:0.1"
       vector-effect="non-scaling-stroke" />
    <path
       d="M 107.167 36.132 L 107.211 36.132 Q 107.391 35.877 107.715 35.499 A 19.506 19.506 0 0 1 107.927 35.257 L 109.863 33.206 L 110.941 33.206 L 108.513 35.76 L 111.11 39.2 L 110.011 39.2 L 107.895 36.367 L 107.211 36.958 L 107.211 39.2 L 106.314 39.2 L 106.314 30.691 L 107.211 30.691 L 107.211 35.202 Q 107.211 35.498 107.169 36.109 A 37.474 37.474 0 0 1 107.167 36.132 Z M 88.798 38.429 L 88.732 38.429 L 88.541 39.2 L 87.89 39.2 L 87.89 30.691 L 88.798 30.691 L 88.798 32.758 Q 88.798 33.452 88.754 34.005 L 88.798 34.005 A 2.064 2.064 0 0 1 90.304 33.13 A 3.101 3.101 0 0 1 90.679 33.108 A 2.775 2.775 0 0 1 91.46 33.212 A 2.077 2.077 0 0 1 92.514 33.914 Q 93.167 34.721 93.167 36.198 A 5.323 5.323 0 0 1 93.097 37.093 Q 92.952 37.942 92.508 38.492 Q 91.849 39.309 90.679 39.309 A 2.754 2.754 0 0 1 89.987 39.225 A 2.396 2.396 0 0 1 89.61 39.093 A 2.011 2.011 0 0 1 88.798 38.429 Z M 99.112 39.2 L 98.439 39.2 L 98.259 38.347 L 98.215 38.347 Q 97.766 38.91 97.321 39.11 A 2.093 2.093 0 0 1 96.888 39.246 Q 96.678 39.29 96.436 39.303 A 4.085 4.085 0 0 1 96.208 39.309 A 2.786 2.786 0 0 1 95.641 39.255 Q 95.294 39.183 95.028 39.015 A 1.563 1.563 0 0 1 94.811 38.85 A 1.492 1.492 0 0 1 94.36 38.063 A 2.284 2.284 0 0 1 94.305 37.543 A 1.571 1.571 0 0 1 95.198 36.06 Q 95.915 35.679 97.209 35.64 L 98.226 35.607 L 98.226 35.235 A 2.607 2.607 0 0 0 98.2 34.858 Q 98.172 34.665 98.112 34.511 A 1.013 1.013 0 0 0 97.922 34.193 Q 97.619 33.857 96.952 33.857 Q 96.202 33.857 95.256 34.316 L 94.977 33.622 A 4.186 4.186 0 0 1 95.785 33.29 A 4.764 4.764 0 0 1 95.948 33.244 A 4.204 4.204 0 0 1 97.006 33.108 Q 97.677 33.108 98.13 33.294 A 1.545 1.545 0 0 1 98.595 33.584 A 1.438 1.438 0 0 1 98.966 34.156 Q 99.052 34.391 99.088 34.683 A 3.572 3.572 0 0 1 99.112 35.109 L 99.112 39.2 Z M 104.98 33.409 L 104.701 34.18 A 4.039 4.039 0 0 0 104.263 34.034 A 4.823 4.823 0 0 0 104.045 33.98 A 3.75 3.75 0 0 0 103.759 33.927 Q 103.62 33.907 103.496 33.902 A 2.012 2.012 0 0 0 103.416 33.901 A 2.014 2.014 0 0 0 102.598 34.054 Q 101.741 34.432 101.612 35.739 A 5.016 5.016 0 0 0 101.589 36.23 A 4.397 4.397 0 0 0 101.633 36.871 Q 101.728 37.52 102.035 37.926 A 1.442 1.442 0 0 0 102.969 38.484 A 2.196 2.196 0 0 0 103.355 38.516 A 3.8 3.8 0 0 0 104.404 38.364 A 4.692 4.692 0 0 0 104.892 38.194 L 104.892 38.998 Q 104.291 39.309 103.377 39.309 A 3.393 3.393 0 0 1 102.552 39.215 A 2.301 2.301 0 0 1 101.362 38.508 A 2.626 2.626 0 0 1 100.816 37.505 Q 100.696 37.107 100.662 36.628 A 5.489 5.489 0 0 1 100.648 36.241 A 5.009 5.009 0 0 1 100.726 35.331 Q 100.82 34.822 101.028 34.422 A 2.503 2.503 0 0 1 101.373 33.917 A 2.351 2.351 0 0 1 102.66 33.177 A 3.564 3.564 0 0 1 103.437 33.097 Q 103.87 33.097 104.302 33.19 Q 104.734 33.283 104.98 33.409 Z M 90.548 33.868 A 2.551 2.551 0 0 0 90.054 33.912 Q 89.499 34.022 89.208 34.401 Q 88.798 34.934 88.798 36.198 Q 88.798 37.461 89.219 38.005 A 1.317 1.317 0 0 0 89.887 38.456 Q 90.11 38.526 90.383 38.543 A 2.919 2.919 0 0 0 90.57 38.549 A 1.81 1.81 0 0 0 91.084 38.48 A 1.306 1.306 0 0 0 91.816 37.939 A 2.084 2.084 0 0 0 92.074 37.382 Q 92.227 36.883 92.227 36.187 Q 92.227 35.016 91.816 34.442 Q 91.406 33.868 90.548 33.868 Z M 98.204 36.794 L 98.204 36.252 L 97.296 36.291 A 6.666 6.666 0 0 0 96.763 36.329 Q 96.086 36.408 95.735 36.627 A 0.969 0.969 0 0 0 95.273 37.33 A 1.434 1.434 0 0 0 95.256 37.554 A 1.297 1.297 0 0 0 95.288 37.852 Q 95.354 38.13 95.554 38.303 A 0.988 0.988 0 0 0 95.924 38.5 Q 96.128 38.56 96.388 38.56 Q 97.121 38.56 97.582 38.213 A 1.516 1.516 0 0 0 97.72 38.095 Q 98.204 37.63 98.204 36.794 Z"
       id="back_labelLayer"
       stroke="#777777"
       fill="#777777"
       style="stroke:#777777;fill:#777777"
       vector-effect="non-scaling-stroke" />
    <path
       d="M 208 7 L 208 22.805 L 202 22.805 L 202 47.195 L 208 47.195 L 208 63 L 226.415 63 L 226.415 57 L 250.805 57 L 250.805 63 L 275.195 63 L 275.195 57 L 299.585 57 L 299.585 63 L 318 63 L 318 47.195 L 324 47.195 L 324 22.805 L 318 22.805 L 318 7 L 208 7 Z"
       id="right_outsideCutPath"
       stroke="#FF0000"
       stroke-width="0.1"
       style="stroke:#FF0000;stroke-width:0.1"
       vector-effect="non-scaling-stroke" />
    <path
       d="M 269.964 37.909 L 269.057 37.909 L 269.057 34.032 A 2.566 2.566 0 0 0 269.027 33.63 Q 268.994 33.418 268.921 33.249 A 1.08 1.08 0 0 0 268.723 32.938 A 1.023 1.023 0 0 0 268.303 32.67 Q 268.04 32.577 267.679 32.577 Q 266.732 32.577 266.298 33.091 A 1.51 1.51 0 0 0 266.041 33.546 Q 265.863 34.026 265.863 34.776 L 265.863 37.909 L 264.955 37.909 L 264.955 29.4 L 265.863 29.4 L 265.863 31.976 A 8.166 8.166 0 0 1 265.857 32.289 Q 265.847 32.551 265.819 32.747 L 265.874 32.747 A 1.814 1.814 0 0 1 266.509 32.135 A 2.216 2.216 0 0 1 266.637 32.066 A 2.33 2.33 0 0 1 267.402 31.839 A 2.946 2.946 0 0 1 267.766 31.817 A 3.683 3.683 0 0 1 268.385 31.866 Q 268.714 31.922 268.974 32.043 A 1.636 1.636 0 0 1 269.415 32.339 A 1.581 1.581 0 0 1 269.805 32.952 Q 269.898 33.206 269.937 33.522 A 3.926 3.926 0 0 1 269.964 33.999 L 269.964 37.909 Z M 261.652 31.916 L 263.725 31.916 L 263.725 32.49 L 262.614 32.621 A 1.475 1.475 0 0 1 262.742 32.811 Q 262.798 32.909 262.849 33.027 A 2.799 2.799 0 0 1 262.888 33.121 A 1.747 1.747 0 0 1 262.991 33.539 A 2.243 2.243 0 0 1 263.008 33.819 A 2.081 2.081 0 0 1 262.913 34.464 A 1.683 1.683 0 0 1 262.407 35.224 Q 261.805 35.749 260.755 35.749 Q 260.487 35.749 260.252 35.705 A 1.615 1.615 0 0 0 259.992 35.874 Q 259.857 35.983 259.779 36.107 A 0.683 0.683 0 0 0 259.672 36.477 A 0.471 0.471 0 0 0 259.696 36.631 Q 259.74 36.757 259.862 36.833 A 0.504 0.504 0 0 0 259.875 36.84 Q 260.038 36.935 260.389 36.953 A 3.453 3.453 0 0 0 260.569 36.958 L 261.63 36.958 A 3.716 3.716 0 0 1 262.194 36.998 Q 262.49 37.043 262.728 37.14 A 1.641 1.641 0 0 1 263.126 37.368 A 1.328 1.328 0 0 1 263.619 38.214 A 1.995 1.995 0 0 1 263.648 38.56 A 1.966 1.966 0 0 1 263.536 39.24 Q 263.354 39.735 262.88 40.057 A 2.158 2.158 0 0 1 262.85 40.078 A 2.722 2.722 0 0 1 262.148 40.396 Q 261.802 40.501 261.38 40.552 A 7.195 7.195 0 0 1 260.52 40.6 Q 259.344 40.6 258.707 40.162 A 1.447 1.447 0 0 1 258.241 39.656 Q 258.091 39.379 258.073 39.028 A 1.917 1.917 0 0 1 258.07 38.927 Q 258.07 38.38 258.42 37.98 Q 258.77 37.581 259.404 37.439 A 0.942 0.942 0 0 1 259.039 37.143 A 1.118 1.118 0 0 1 259.019 37.116 A 0.842 0.842 0 0 1 258.864 36.662 A 1.042 1.042 0 0 1 258.863 36.608 Q 258.863 36.28 259.038 36.034 Q 259.213 35.787 259.59 35.558 A 1.591 1.591 0 0 1 258.899 35.004 A 1.972 1.972 0 0 1 258.833 34.907 A 1.877 1.877 0 0 1 258.545 34.003 A 2.29 2.29 0 0 1 258.54 33.857 Q 258.54 32.873 259.131 32.339 A 1.928 1.928 0 0 1 259.871 31.931 Q 260.165 31.841 260.518 31.816 A 4.009 4.009 0 0 1 260.804 31.806 A 3.48 3.48 0 0 1 261.265 31.835 A 2.65 2.65 0 0 1 261.652 31.916 Z M 274.586 37.16 L 274.586 37.855 Q 274.438 37.926 274.151 37.972 Q 273.883 38.016 273.665 38.019 A 2.325 2.325 0 0 1 273.634 38.019 Q 272.247 38.019 271.966 36.853 A 2.853 2.853 0 0 1 271.895 36.187 L 271.895 32.621 L 271.036 32.621 L 271.036 32.184 L 271.895 31.806 L 272.278 30.527 L 272.803 30.527 L 272.803 31.916 L 274.542 31.916 L 274.542 32.621 L 272.803 32.621 L 272.803 36.148 Q 272.803 36.529 272.93 36.785 A 0.881 0.881 0 0 0 273.06 36.98 A 0.843 0.843 0 0 0 273.578 37.256 A 1.213 1.213 0 0 0 273.765 37.269 A 2.981 2.981 0 0 0 274.202 37.238 A 2.748 2.748 0 0 0 274.23 37.234 Q 274.444 37.2 274.573 37.164 A 1.367 1.367 0 0 0 274.586 37.16 Z M 254.865 31.872 L 254.739 32.714 A 4.001 4.001 0 0 0 254.452 32.661 Q 254.308 32.64 254.181 32.634 A 2.129 2.129 0 0 0 254.083 32.632 A 1.573 1.573 0 0 0 252.921 33.134 A 2.152 2.152 0 0 0 252.839 33.223 A 2.073 2.073 0 0 0 252.339 34.387 A 2.756 2.756 0 0 0 252.322 34.694 L 252.322 37.909 L 251.414 37.909 L 251.414 31.916 L 252.164 31.916 L 252.268 33.026 L 252.311 33.026 A 3.066 3.066 0 0 1 252.654 32.536 A 2.342 2.342 0 0 1 253.115 32.123 A 1.81 1.81 0 0 1 254.149 31.806 Q 254.548 31.806 254.865 31.872 Z M 256.894 31.916 L 256.894 37.909 L 255.986 37.909 L 255.986 31.916 L 256.894 31.916 Z M 261.34 37.773 L 260.252 37.773 A 2.087 2.087 0 0 0 259.876 37.804 Q 259.662 37.844 259.494 37.931 A 1.063 1.063 0 0 0 259.289 38.068 A 0.957 0.957 0 0 0 258.975 38.61 A 1.453 1.453 0 0 0 258.945 38.916 A 0.912 0.912 0 0 0 259.005 39.254 Q 259.102 39.499 259.355 39.654 A 1.454 1.454 0 0 0 259.713 39.807 Q 260.05 39.905 260.523 39.905 A 4.643 4.643 0 0 0 260.531 39.905 A 6.103 6.103 0 0 0 261.127 39.878 Q 261.724 39.82 262.099 39.633 A 1.508 1.508 0 0 0 262.223 39.564 A 1.324 1.324 0 0 0 262.531 39.307 A 0.992 0.992 0 0 0 262.773 38.637 Q 262.773 38.335 262.658 38.148 A 0.572 0.572 0 0 0 262.472 37.961 A 0.861 0.861 0 0 0 262.268 37.872 Q 261.944 37.773 261.34 37.773 Z M 259.437 33.835 A 1.772 1.772 0 0 0 259.474 34.207 Q 259.523 34.437 259.639 34.61 A 0.971 0.971 0 0 0 259.793 34.787 A 1.173 1.173 0 0 0 260.265 35.043 Q 260.445 35.095 260.659 35.106 A 2.337 2.337 0 0 0 260.782 35.109 Q 261.831 35.109 262.052 34.305 A 1.839 1.839 0 0 0 262.111 33.819 A 1.952 1.952 0 0 0 262.045 33.284 Q 261.874 32.685 261.264 32.526 A 1.974 1.974 0 0 0 260.766 32.468 A 1.905 1.905 0 0 0 260.378 32.505 Q 260.14 32.555 259.959 32.67 A 1.045 1.045 0 0 0 259.782 32.812 Q 259.489 33.105 259.445 33.637 A 2.388 2.388 0 0 0 259.437 33.835 Z M 255.923 30.125 A 1.006 1.006 0 0 0 255.91 30.291 Q 255.91 30.598 256.063 30.748 A 0.509 0.509 0 0 0 256.247 30.865 A 0.577 0.577 0 0 0 256.446 30.898 A 0.53 0.53 0 0 0 256.823 30.748 Q 256.982 30.598 256.982 30.291 Q 256.982 29.985 256.823 29.837 Q 256.664 29.69 256.446 29.69 A 0.693 0.693 0 0 0 256.4 29.691 A 0.525 0.525 0 0 0 256.063 29.835 A 0.425 0.425 0 0 0 255.969 29.968 Q 255.937 30.037 255.923 30.125 Z"
       id="right_labelLayer"
       stroke="#777777"
       fill="#777777"
       style="stroke:#777777;fill:#777777"
       vector-effect="non-scaling-stroke" />
    <path
       d="M 333 6 L 333 24.415 L 327 24.415 L 327 48.805 L 333 48.805 L 333 73.195 L 327 73.195 L 327 97.585 L 333 97.585 L 333 116 L 365.525 116 L 365.525 122 L 389.915 122 L 389.915 116 L 414.305 116 L 414.305 122 L 438.695 122 L 438.695 116 L 463.085 116 L 463.085 122 L 487.475 122 L 487.475 116 L 511.865 116 L 520 116 L 520 97.585 L 526 97.585 L 526 73.195 L 520 73.195 L 520 48.805 L 526 48.805 L 526 24.415 L 520 24.415 L 520 6 L 487.475 6 L 487.475 0 L 463.085 0 L 463.085 6 L 438.695 6 L 438.695 0 L 414.305 0 L 414.305 6 L 389.915 6 L 389.915 0 L 365.525 0 L 365.525 6 L 341.135 6 L 333 6 Z"
       id="bottom_outsideCutPath"
       stroke="#FF0000"
       stroke-width="0.1"
       style="stroke:#FF0000;stroke-width:0.1"
       vector-effect="non-scaling-stroke" />
    <path
       d="M 466.638 70.15 L 464.661 70.15 L 464.661 61.655 Q 464.661 60.677 464.399 60.006 A 2.39 2.39 0 0 0 463.993 59.314 A 2.081 2.081 0 0 0 463.026 58.688 Q 462.546 58.533 461.92 58.533 A 5.089 5.089 0 0 0 460.885 58.632 Q 460.269 58.76 459.805 59.055 A 2.619 2.619 0 0 0 459.192 59.594 A 3.268 3.268 0 0 0 458.638 60.597 Q 458.313 61.508 458.311 62.838 A 10.954 10.954 0 0 0 458.31 62.858 L 458.31 70.15 L 456.333 70.15 L 456.333 61.655 Q 456.333 60.677 456.071 60.006 A 2.39 2.39 0 0 0 455.666 59.314 Q 454.998 58.533 453.581 58.533 Q 452.284 58.533 451.471 59.076 A 2.592 2.592 0 0 0 450.858 59.647 Q 449.994 60.761 449.994 63.299 L 449.994 70.15 L 448.017 70.15 L 448.017 57.092 L 449.625 57.092 L 449.947 58.879 L 450.042 58.879 Q 450.602 57.926 451.621 57.39 A 4.695 4.695 0 0 1 453.475 56.869 A 5.671 5.671 0 0 1 453.902 56.854 Q 455.799 56.854 456.881 57.704 A 3.376 3.376 0 0 1 457.905 59.07 L 458.001 59.07 A 4.129 4.129 0 0 1 459.556 57.525 A 4.961 4.961 0 0 1 459.693 57.449 A 5.006 5.006 0 0 1 461.529 56.891 A 6.242 6.242 0 0 1 462.218 56.854 Q 463.712 56.854 464.7 57.371 A 3.259 3.259 0 0 1 465.536 57.991 A 3.406 3.406 0 0 1 466.268 59.188 Q 466.465 59.715 466.557 60.371 A 9.071 9.071 0 0 1 466.638 61.631 L 466.638 70.15 Z M 388.339 68.47 L 388.196 68.47 L 387.779 70.15 L 386.361 70.15 L 386.361 51.611 L 388.339 51.611 L 388.339 56.115 A 41.234 41.234 0 0 1 388.317 57.508 Q 388.293 58.211 388.244 58.831 L 388.339 58.831 A 4.497 4.497 0 0 1 391.621 56.925 A 6.755 6.755 0 0 1 392.438 56.877 A 6.045 6.045 0 0 1 394.139 57.104 A 4.525 4.525 0 0 1 396.435 58.635 A 5.828 5.828 0 0 1 397.457 60.603 Q 397.708 61.414 397.802 62.385 A 12.694 12.694 0 0 1 397.859 63.609 A 11.596 11.596 0 0 1 397.705 65.56 Q 397.389 67.408 396.423 68.607 A 4.682 4.682 0 0 1 393.095 70.357 A 6.708 6.708 0 0 1 392.438 70.388 A 5.999 5.999 0 0 1 390.93 70.204 A 5.22 5.22 0 0 1 390.108 69.917 A 4.38 4.38 0 0 1 388.339 68.47 Z M 422.056 68.517 L 422.056 70.031 A 1.945 1.945 0 0 1 421.825 70.122 Q 421.579 70.204 421.227 70.267 A 7.396 7.396 0 0 1 421.109 70.287 Q 420.525 70.381 420.05 70.388 A 5.067 5.067 0 0 1 419.983 70.388 A 5.166 5.166 0 0 1 418.461 70.183 Q 416.787 69.667 416.35 67.849 A 6.217 6.217 0 0 1 416.194 66.397 L 416.194 58.629 L 414.324 58.629 L 414.324 57.676 L 416.194 56.854 L 417.028 54.066 L 418.172 54.066 L 418.172 57.092 L 421.961 57.092 L 421.961 58.629 L 418.172 58.629 L 418.172 66.313 A 3.983 3.983 0 0 0 418.229 67.013 Q 418.351 67.695 418.732 68.124 A 1.837 1.837 0 0 0 419.861 68.726 A 2.643 2.643 0 0 0 420.269 68.756 A 6.495 6.495 0 0 0 421.22 68.688 A 5.988 5.988 0 0 0 421.282 68.678 A 10.698 10.698 0 0 0 421.567 68.629 Q 421.84 68.578 422.029 68.525 A 2.971 2.971 0 0 0 422.056 68.517 Z M 430.67 68.517 L 430.67 70.031 A 1.945 1.945 0 0 1 430.439 70.122 Q 430.193 70.204 429.841 70.267 A 7.396 7.396 0 0 1 429.723 70.287 Q 429.139 70.381 428.664 70.388 A 5.067 5.067 0 0 1 428.597 70.388 A 5.166 5.166 0 0 1 427.075 70.183 Q 425.401 69.667 424.963 67.849 A 6.217 6.217 0 0 1 424.808 66.397 L 424.808 58.629 L 422.938 58.629 L 422.938 57.676 L 424.808 56.854 L 425.642 54.066 L 426.786 54.066 L 426.786 57.092 L 430.575 57.092 L 430.575 58.629 L 426.786 58.629 L 426.786 66.313 A 3.983 3.983 0 0 0 426.843 67.013 Q 426.965 67.695 427.346 68.124 A 1.837 1.837 0 0 0 428.475 68.726 A 2.643 2.643 0 0 0 428.883 68.756 A 6.495 6.495 0 0 0 429.834 68.688 A 5.988 5.988 0 0 0 429.895 68.678 A 10.698 10.698 0 0 0 430.181 68.629 Q 430.454 68.578 430.643 68.525 A 2.971 2.971 0 0 0 430.67 68.517 Z M 410.976 68.595 A 5.517 5.517 0 0 0 411.633 67.692 Q 412.584 66.065 412.584 63.609 A 11.607 11.607 0 0 0 412.58 63.295 Q 412.551 62.208 412.315 61.285 A 6.158 6.158 0 0 0 410.97 58.676 A 5.177 5.177 0 0 0 408.566 57.126 A 6.646 6.646 0 0 0 406.615 56.854 A 7.681 7.681 0 0 0 405.236 56.972 A 5.231 5.231 0 0 0 402.183 58.635 A 5.464 5.464 0 0 0 401.512 59.565 Q 400.587 61.178 400.587 63.609 A 9.894 9.894 0 0 0 400.711 65.211 A 7.316 7.316 0 0 0 401.326 67.207 A 6.5 6.5 0 0 0 401.469 67.489 A 5.354 5.354 0 0 0 403.422 69.566 A 5.507 5.507 0 0 0 404.686 70.128 A 6.351 6.351 0 0 0 406.532 70.388 Q 409.368 70.388 410.976 68.595 Z M 442.941 68.595 A 5.517 5.517 0 0 0 443.598 67.692 Q 444.55 66.065 444.55 63.609 A 11.607 11.607 0 0 0 444.546 63.295 Q 444.516 62.208 444.281 61.285 A 6.158 6.158 0 0 0 442.935 58.676 A 5.177 5.177 0 0 0 440.532 57.126 A 6.646 6.646 0 0 0 438.581 56.854 A 7.681 7.681 0 0 0 437.201 56.972 A 5.231 5.231 0 0 0 434.149 58.635 A 5.464 5.464 0 0 0 433.478 59.565 Q 432.552 61.178 432.552 63.609 A 9.894 9.894 0 0 0 432.677 65.211 A 7.316 7.316 0 0 0 433.291 67.207 A 6.5 6.5 0 0 0 433.435 67.489 A 5.354 5.354 0 0 0 435.388 69.566 A 5.507 5.507 0 0 0 436.652 70.128 A 6.351 6.351 0 0 0 438.497 70.388 Q 441.333 70.388 442.941 68.595 Z M 402.636 63.609 A 10.015 10.015 0 0 0 402.731 65.04 Q 402.836 65.766 403.057 66.354 A 4.149 4.149 0 0 0 403.637 67.421 A 3.242 3.242 0 0 0 405.748 68.665 A 4.912 4.912 0 0 0 406.58 68.732 A 4.594 4.594 0 0 0 407.792 68.581 A 3.197 3.197 0 0 0 409.528 67.427 Q 410.277 66.457 410.469 64.818 A 10.418 10.418 0 0 0 410.535 63.609 Q 410.535 61.119 409.528 59.826 A 3.253 3.253 0 0 0 407.506 58.619 A 4.988 4.988 0 0 0 406.556 58.533 A 4.707 4.707 0 0 0 405.384 58.671 A 3.15 3.15 0 0 0 403.625 59.808 A 4.089 4.089 0 0 0 402.989 61.037 Q 402.636 62.099 402.636 63.609 Z M 434.602 63.609 A 10.015 10.015 0 0 0 434.697 65.04 Q 434.802 65.766 435.023 66.354 A 4.149 4.149 0 0 0 435.602 67.421 A 3.242 3.242 0 0 0 437.713 68.665 A 4.912 4.912 0 0 0 438.545 68.732 A 4.594 4.594 0 0 0 439.757 68.581 A 3.197 3.197 0 0 0 441.494 67.427 Q 442.242 66.457 442.434 64.818 A 10.418 10.418 0 0 0 442.501 63.609 Q 442.501 61.119 441.494 59.826 A 3.253 3.253 0 0 0 439.471 58.619 A 4.988 4.988 0 0 0 438.521 58.533 A 4.707 4.707 0 0 0 437.349 58.671 A 3.15 3.15 0 0 0 435.59 59.808 A 4.089 4.089 0 0 0 434.955 61.037 Q 434.602 62.099 434.602 63.609 Z M 392.152 58.533 A 5.558 5.558 0 0 0 391.075 58.631 Q 390.462 58.752 389.997 59.024 A 2.63 2.63 0 0 0 389.233 59.695 Q 388.339 60.857 388.339 63.609 Q 388.339 66.361 389.257 67.546 A 2.869 2.869 0 0 0 390.712 68.529 Q 391.199 68.681 391.792 68.719 A 6.359 6.359 0 0 0 392.199 68.732 A 3.943 3.943 0 0 0 393.319 68.582 A 2.844 2.844 0 0 0 394.916 67.404 A 4.54 4.54 0 0 0 395.478 66.188 Q 395.654 65.611 395.736 64.913 A 11.332 11.332 0 0 0 395.809 63.585 Q 395.809 61.168 395.006 59.918 A 3.281 3.281 0 0 0 394.916 59.784 A 2.884 2.884 0 0 0 393.08 58.622 A 4.574 4.574 0 0 0 392.152 58.533 Z"
       id="bottom_labelLayer"
       stroke="#777777"
       fill="#777777"
       style="stroke:#777777;fill:#777777"
       vector-effect="non-scaling-stroke" />
  </g>
  <circle
     style="fill:#ffffff;stroke:#ff0000;stroke-width:0.1"
     id="path335"
     cx="175.14955"
     cy="43.190071"
     r="7.5" />
</svg>
