<?xml version="1.0" encoding="UTF-8" standalone="no"?>
<svg
   width="442mm"
   height="427mm"
   viewBox="0 0 442 427"
   version="1.1"
   preserveAspectRatio="xMidYMid meet"
   id="svg5336"
   sodipodi:docname="doos_laser_v2.svg"
   inkscape:version="1.2.2 (732a01da63, 2022-12-09)"
   xmlns:inkscape="http://www.inkscape.org/namespaces/inkscape"
   xmlns:sodipodi="http://sodipodi.sourceforge.net/DTD/sodipodi-0.dtd"
   xmlns="http://www.w3.org/2000/svg"
   xmlns:svg="http://www.w3.org/2000/svg">
  <defs
     id="defs5340" />
  <sodipodi:namedview
     id="namedview5338"
     pagecolor="#ffffff"
     bordercolor="#000000"
     borderopacity="0.25"
     inkscape:showpageshadow="2"
     inkscape:pageopacity="0.0"
     inkscape:pagecheckerboard="0"
     inkscape:deskcolor="#d1d1d1"
     inkscape:document-units="mm"
     showgrid="false"
     inkscape:zoom="0.68789042"
     inkscape:cx="889.67658"
     inkscape:cy="1107.0077"
     inkscape:window-width="1920"
     inkscape:window-height="1001"
     inkscape:window-x="-9"
     inkscape:window-y="-9"
     inkscape:window-maximized="1"
     inkscape:current-layer="svg5336" />
  <g
     id="svgGroup"
     stroke-linecap="round"
     fill-rule="evenodd"
     font-size="9pt"
     stroke="#000"
     stroke-width="0.25mm"
     fill="none"
     style="stroke:#000;stroke-width:0.25mm;fill:none">
    <path
       d="M 0 365 L 0 383.805 L 6 383.805 L 6 408.195 L 0 408.195 L 0 427 L 19.415 427 L 19.415 421 L 43.805 421 L 43.805 427 L 68.195 427 L 68.195 421 L 92.585 421 L 92.585 427 L 112 427 L 112 408.195 L 106 408.195 L 106 383.805 L 112 383.805 L 112 365 L 92.585 365 L 92.585 371 L 68.195 371 L 68.195 365 L 43.805 365 L 43.805 371 L 19.415 371 L 19.415 365 L 0 365 Z"
       id="front_outsideCutPath"
       stroke="#FF0000"
       stroke-width="0.1"
       style="stroke:#FF0000;stroke-width:0.1"
       vector-effect="non-scaling-stroke" />
    <path
       d="M 65.037 400.683 L 64.032 400.683 L 64.032 396.39 Q 64.032 395.873 63.881 395.523 A 1.196 1.196 0 0 0 63.662 395.179 A 1.133 1.133 0 0 0 63.197 394.883 Q 62.905 394.78 62.506 394.78 A 3.042 3.042 0 0 0 61.937 394.829 Q 61.321 394.947 60.98 395.343 A 1.643 1.643 0 0 0 60.694 395.842 Q 60.496 396.372 60.496 397.202 L 60.496 400.683 L 59.491 400.683 L 59.491 394.047 L 60.308 394.047 L 60.471 394.955 L 60.52 394.955 A 2.035 2.035 0 0 1 61.317 394.23 A 2.447 2.447 0 0 1 61.386 394.196 A 2.722 2.722 0 0 1 62.354 393.937 A 3.291 3.291 0 0 1 62.627 393.926 Q 63.422 393.926 63.956 394.18 A 1.806 1.806 0 0 1 64.431 394.504 Q 64.892 394.944 65.002 395.785 A 4.386 4.386 0 0 1 65.037 396.354 L 65.037 400.683 Z M 45.728 394.047 L 45.728 394.828 L 44.039 394.828 L 44.039 400.683 L 43.034 400.683 L 43.034 394.828 L 41.847 394.828 L 41.847 394.374 L 43.034 394.011 L 43.034 393.642 Q 43.034 391.53 44.627 391.241 A 3.055 3.055 0 0 1 45.171 391.195 A 3.237 3.237 0 0 1 45.629 391.23 Q 45.986 391.282 46.406 391.407 L 46.146 392.213 A 4.881 4.881 0 0 0 45.766 392.106 Q 45.423 392.025 45.153 392.025 A 1.355 1.355 0 0 0 44.826 392.062 A 0.87 0.87 0 0 0 44.311 392.403 A 1.163 1.163 0 0 0 44.158 392.713 Q 44.056 393.016 44.041 393.466 A 4.745 4.745 0 0 0 44.039 393.617 L 44.039 394.047 L 45.728 394.047 Z M 70.153 399.854 L 70.153 400.623 Q 70.005 400.694 69.732 400.743 A 3.758 3.758 0 0 1 69.671 400.753 A 4.356 4.356 0 0 1 69.387 400.79 Q 69.234 400.804 69.099 400.804 A 2.625 2.625 0 0 1 68.326 400.7 Q 67.475 400.438 67.253 399.514 A 3.159 3.159 0 0 1 67.174 398.776 L 67.174 394.828 L 66.223 394.828 L 66.223 394.344 L 67.174 393.926 L 67.598 392.509 L 68.179 392.509 L 68.179 394.047 L 70.104 394.047 L 70.104 394.828 L 68.179 394.828 L 68.179 398.734 Q 68.179 399.155 68.319 399.438 A 0.975 0.975 0 0 0 68.464 399.654 A 0.934 0.934 0 0 0 69.038 399.959 A 1.343 1.343 0 0 0 69.245 399.975 A 3.301 3.301 0 0 0 69.728 399.94 A 3.044 3.044 0 0 0 69.759 399.935 Q 70.008 399.896 70.153 399.854 Z M 50.76 393.999 L 50.62 394.931 Q 50.277 394.856 50.002 394.843 A 2.358 2.358 0 0 0 49.894 394.84 A 1.742 1.742 0 0 0 48.607 395.396 A 2.383 2.383 0 0 0 48.516 395.494 A 2.295 2.295 0 0 0 47.963 396.783 A 3.051 3.051 0 0 0 47.944 397.123 L 47.944 400.683 L 46.939 400.683 L 46.939 394.047 L 47.769 394.047 L 47.884 395.276 L 47.932 395.276 A 3.394 3.394 0 0 1 48.312 394.734 A 2.593 2.593 0 0 1 48.822 394.277 A 2.004 2.004 0 0 1 49.967 393.926 A 4.614 4.614 0 0 1 50.38 393.944 A 3.368 3.368 0 0 1 50.76 393.999 Z M 57.636 398.369 A 5.192 5.192 0 0 0 57.729 397.359 Q 57.729 395.779 56.908 394.853 A 2.631 2.631 0 0 0 55.687 394.065 A 3.377 3.377 0 0 0 54.695 393.926 Q 53.254 393.926 52.443 394.831 A 2.777 2.777 0 0 0 52.102 395.304 Q 51.839 395.762 51.723 396.35 A 5.219 5.219 0 0 0 51.632 397.359 A 5.028 5.028 0 0 0 51.695 398.174 A 3.718 3.718 0 0 0 52.007 399.188 A 3.304 3.304 0 0 0 52.08 399.331 A 2.721 2.721 0 0 0 53.073 400.386 Q 53.763 400.804 54.653 400.804 A 3.903 3.903 0 0 0 55.334 400.747 A 2.68 2.68 0 0 0 56.911 399.893 A 2.804 2.804 0 0 0 57.245 399.434 Q 57.517 398.968 57.636 398.369 Z M 52.673 397.359 A 5.09 5.09 0 0 0 52.721 398.086 Q 52.83 398.836 53.182 399.297 Q 53.69 399.963 54.677 399.963 A 2.335 2.335 0 0 0 55.293 399.886 A 1.625 1.625 0 0 0 56.176 399.3 A 2.158 2.158 0 0 0 56.512 398.645 Q 56.61 398.343 56.654 397.974 A 5.294 5.294 0 0 0 56.687 397.359 A 5.015 5.015 0 0 0 56.64 396.645 Q 56.587 396.281 56.477 395.986 A 2.069 2.069 0 0 0 56.176 395.437 Q 55.664 394.78 54.665 394.78 A 2.392 2.392 0 0 0 54.069 394.85 A 1.601 1.601 0 0 0 53.175 395.428 A 2.078 2.078 0 0 0 52.852 396.052 Q 52.673 396.592 52.673 397.359 Z"
       id="front_labelLayer"
       stroke="#777777"
       fill="#777777"
       style="stroke:#777777;fill:#777777"
       vector-effect="non-scaling-stroke" />
    <path
       d="M 121 365 L 121 383.805 L 115 383.805 L 115 408.195 L 121 408.195 L 121 427 L 135.635 427 L 135.635 421 L 160.025 421 L 160.025 427 L 184.415 427 L 184.415 421 L 208.805 421 L 208.805 427 L 233.195 427 L 233.195 421 L 257.585 421 L 257.585 427 L 281.975 427 L 281.975 421 L 306.365 421 L 306.365 427 L 321 427 L 321 408.195 L 327 408.195 L 327 383.805 L 321 383.805 L 321 365 L 306.365 365 L 306.365 371 L 281.975 371 L 281.975 365 L 257.585 365 L 257.585 371 L 233.195 371 L 233.195 365 L 208.805 365 L 208.805 371 L 184.415 371 L 184.415 365 L 160.025 365 L 160.025 371 L 135.635 371 L 135.635 365 L 121 365 Z"
       id="left_outsideCutPath"
       stroke="#FF0000"
       stroke-width="0.1"
       style="stroke:#FF0000;stroke-width:0.1"
       vector-effect="non-scaling-stroke" />
    <path
       d="M 225.411 394.047 L 225.411 394.828 L 223.722 394.828 L 223.722 400.683 L 222.717 400.683 L 222.717 394.828 L 221.53 394.828 L 221.53 394.374 L 222.717 394.011 L 222.717 393.642 Q 222.717 391.53 224.309 391.241 A 3.055 3.055 0 0 1 224.854 391.195 A 3.237 3.237 0 0 1 225.312 391.23 Q 225.668 391.282 226.089 391.407 L 225.829 392.213 A 4.881 4.881 0 0 0 225.449 392.106 Q 225.106 392.025 224.836 392.025 A 1.355 1.355 0 0 0 224.509 392.062 A 0.87 0.87 0 0 0 223.994 392.403 A 1.163 1.163 0 0 0 223.84 392.713 Q 223.738 393.016 223.724 393.466 A 4.745 4.745 0 0 0 223.722 393.617 L 223.722 394.047 L 225.411 394.047 Z M 220.706 396.911 L 220.706 397.547 L 216.135 397.547 A 4.034 4.034 0 0 0 216.206 398.222 Q 216.278 398.59 216.424 398.881 A 1.887 1.887 0 0 0 216.725 399.321 A 1.826 1.826 0 0 0 217.684 399.861 A 2.767 2.767 0 0 0 218.303 399.926 A 5.308 5.308 0 0 0 220.291 399.533 A 6.082 6.082 0 0 0 220.422 399.478 L 220.422 400.374 A 6.034 6.034 0 0 1 219.872 400.582 A 4.614 4.614 0 0 1 219.414 400.704 A 4.219 4.219 0 0 1 218.995 400.769 Q 218.789 400.791 218.556 400.799 A 8.189 8.189 0 0 1 218.266 400.804 A 3.906 3.906 0 0 1 217.289 400.689 A 2.766 2.766 0 0 1 215.944 399.908 Q 215.143 399.064 215.096 397.601 A 5.741 5.741 0 0 1 215.094 397.42 A 5.278 5.278 0 0 1 215.191 396.373 Q 215.32 395.737 215.619 395.243 A 2.976 2.976 0 0 1 215.884 394.871 A 2.576 2.576 0 0 1 217.761 393.934 A 3.553 3.553 0 0 1 218.006 393.926 Q 219.253 393.926 219.98 394.747 A 2.81 2.81 0 0 1 220.617 396.031 A 4.091 4.091 0 0 1 220.706 396.911 Z M 229.673 399.854 L 229.673 400.623 Q 229.526 400.694 229.252 400.743 A 3.758 3.758 0 0 1 229.192 400.753 A 4.356 4.356 0 0 1 228.908 400.79 Q 228.755 400.804 228.62 400.804 A 2.625 2.625 0 0 1 227.846 400.7 Q 226.996 400.438 226.773 399.514 A 3.159 3.159 0 0 1 226.694 398.776 L 226.694 394.828 L 225.744 394.828 L 225.744 394.344 L 226.694 393.926 L 227.118 392.509 L 227.7 392.509 L 227.7 394.047 L 229.625 394.047 L 229.625 394.828 L 227.7 394.828 L 227.7 398.734 Q 227.7 399.155 227.84 399.438 A 0.975 0.975 0 0 0 227.984 399.654 A 0.934 0.934 0 0 0 228.558 399.959 A 1.343 1.343 0 0 0 228.765 399.975 A 3.301 3.301 0 0 0 229.249 399.94 A 3.044 3.044 0 0 0 229.28 399.935 Q 229.528 399.896 229.673 399.854 Z M 213.332 391.262 L 213.332 400.683 L 212.327 400.683 L 212.327 391.262 L 213.332 391.262 Z M 216.159 396.729 L 219.629 396.729 Q 219.629 395.779 219.205 395.273 A 1.377 1.377 0 0 0 218.376 394.801 A 2.066 2.066 0 0 0 217.994 394.768 A 1.981 1.981 0 0 0 217.422 394.846 A 1.531 1.531 0 0 0 216.719 395.288 A 1.985 1.985 0 0 0 216.325 395.954 Q 216.225 396.228 216.179 396.558 A 3.797 3.797 0 0 0 216.159 396.729 Z"
       id="left_labelLayer"
       stroke="#777777"
       fill="#777777"
       style="stroke:#777777;fill:#777777"
       vector-effect="non-scaling-stroke" />
    <path
       d="M 336 221 L 336 235.635 L 330 235.635 L 330 260.025 L 336 260.025 L 336 284.415 L 330 284.415 L 330 308.805 L 336 308.805 L 336 333.195 L 330 333.195 L 330 357.585 L 336 357.585 L 336 381.975 L 330 381.975 L 330 406.365 L 336 406.365 L 336 421 L 349.415 421 L 349.415 427 L 373.805 427 L 373.805 421 L 398.195 421 L 398.195 427 L 422.585 427 L 422.585 421 L 436 421 L 436 406.365 L 442 406.365 L 442 381.975 L 436 381.975 L 436 357.585 L 442 357.585 L 442 333.195 L 436 333.195 L 436 308.805 L 442 308.805 L 442 284.415 L 436 284.415 L 436 260.025 L 442 260.025 L 442 235.635 L 436 235.635 L 436 221 L 422.585 221 L 422.585 215 L 398.195 215 L 398.195 221 L 373.805 221 L 373.805 215 L 349.415 215 L 349.415 221 L 336 221 Z"
       id="top_outsideCutPath"
       stroke="#FF0000"
       stroke-width="0.1"
       style="stroke:#FF0000;stroke-width:0.1"
       vector-effect="non-scaling-stroke" />
    <path
       d="M 394.05 324.15 L 393.919 324.15 Q 394.05 325.2 394.05 326.141 L 394.05 331.073 L 392.234 331.073 L 392.234 313.705 L 393.711 313.705 L 393.962 315.345 L 394.05 315.345 A 4.887 4.887 0 0 1 394.757 314.543 A 3.779 3.779 0 0 1 395.68 313.923 A 4.547 4.547 0 0 1 396.983 313.542 A 5.885 5.885 0 0 1 397.812 313.486 A 5.565 5.565 0 0 1 399.385 313.696 A 4.114 4.114 0 0 1 401.493 315.116 Q 402.789 316.745 402.789 319.688 A 10.645 10.645 0 0 1 402.648 321.479 Q 402.485 322.433 402.133 323.199 A 5.103 5.103 0 0 1 401.471 324.276 A 4.298 4.298 0 0 1 398.416 325.882 A 6.158 6.158 0 0 1 397.812 325.911 A 5.507 5.507 0 0 1 396.429 325.742 A 4.792 4.792 0 0 1 395.674 325.479 Q 394.706 325.047 394.05 324.15 Z M 376.309 324.194 L 376.309 325.583 A 1.786 1.786 0 0 1 376.097 325.667 Q 375.835 325.754 375.44 325.818 A 7.869 7.869 0 0 1 374.927 325.885 Q 374.685 325.908 374.468 325.911 A 4.654 4.654 0 0 1 374.406 325.911 Q 371.632 325.911 371.071 323.58 A 5.707 5.707 0 0 1 370.928 322.247 L 370.928 315.116 L 369.211 315.116 L 369.211 314.241 L 370.928 313.486 L 371.694 310.927 L 372.744 310.927 L 372.744 313.705 L 376.222 313.705 L 376.222 315.116 L 372.744 315.116 L 372.744 322.17 A 3.656 3.656 0 0 0 372.796 322.812 Q 372.908 323.439 373.258 323.833 A 1.687 1.687 0 0 0 374.295 324.385 A 2.427 2.427 0 0 0 374.669 324.413 A 5.963 5.963 0 0 0 375.542 324.35 A 5.491 5.491 0 0 0 375.598 324.341 A 9.822 9.822 0 0 0 375.86 324.296 Q 376.111 324.25 376.285 324.201 A 2.722 2.722 0 0 0 376.309 324.194 Z M 389.051 319.688 Q 389.051 322.619 387.575 324.265 A 4.84 4.84 0 0 1 384.726 325.808 A 7.05 7.05 0 0 1 383.495 325.911 A 5.83 5.83 0 0 1 381.801 325.672 A 5.056 5.056 0 0 1 380.641 325.156 A 4.915 4.915 0 0 1 378.848 323.249 A 5.968 5.968 0 0 1 378.716 322.991 A 6.717 6.717 0 0 1 378.151 321.159 A 9.083 9.083 0 0 1 378.037 319.688 A 9.427 9.427 0 0 1 378.203 317.864 Q 378.412 316.803 378.887 315.975 A 5.016 5.016 0 0 1 379.503 315.121 A 4.802 4.802 0 0 1 382.305 313.595 A 7.052 7.052 0 0 1 383.572 313.486 A 6.101 6.101 0 0 1 385.363 313.736 A 4.753 4.753 0 0 1 387.569 315.159 A 5.654 5.654 0 0 1 388.805 317.554 Q 389.051 318.522 389.051 319.688 Z M 379.919 319.687 A 9.194 9.194 0 0 0 380.006 321.001 Q 380.103 321.668 380.306 322.208 A 3.809 3.809 0 0 0 380.837 323.188 A 2.976 2.976 0 0 0 382.775 324.329 A 4.509 4.509 0 0 0 383.539 324.391 A 4.217 4.217 0 0 0 384.652 324.252 A 2.935 2.935 0 0 0 386.246 323.193 A 3.898 3.898 0 0 0 386.853 322.011 Q 387.17 321.04 387.17 319.688 Q 387.17 317.402 386.246 316.215 A 2.987 2.987 0 0 0 384.389 315.107 A 4.579 4.579 0 0 0 383.517 315.028 A 4.321 4.321 0 0 0 382.441 315.154 A 2.892 2.892 0 0 0 380.826 316.198 A 3.754 3.754 0 0 0 380.243 317.326 Q 380.071 317.844 379.99 318.478 A 9.594 9.594 0 0 0 379.919 319.688 Z M 394.05 319.283 L 394.05 319.688 A 12.005 12.005 0 0 0 394.109 320.928 Q 394.24 322.18 394.658 322.942 A 2.738 2.738 0 0 0 394.892 323.302 A 2.634 2.634 0 0 0 396.228 324.204 Q 396.675 324.344 397.22 324.379 A 5.838 5.838 0 0 0 397.594 324.391 Q 399.147 324.391 400.027 323.133 A 4.39 4.39 0 0 0 400.629 321.85 Q 400.803 321.262 400.869 320.555 A 9.673 9.673 0 0 0 400.908 319.666 A 9.162 9.162 0 0 0 400.822 318.366 Q 400.727 317.708 400.529 317.173 A 3.849 3.849 0 0 0 400.027 316.226 Q 399.147 315.028 397.55 315.028 A 5.232 5.232 0 0 0 396.573 315.113 Q 396.028 315.217 395.61 315.447 A 2.399 2.399 0 0 0 394.892 316.045 A 3.111 3.111 0 0 0 394.406 316.932 Q 394.098 317.768 394.056 319.004 A 11.556 11.556 0 0 0 394.05 319.283 Z"
       id="top_labelLayer"
       stroke="#777777"
       fill="#777777"
       style="stroke:#777777;fill:#777777"
       vector-effect="non-scaling-stroke" />
    <path
       d="M 0 300 L 0 318.805 L 6 318.805 L 6 343.195 L 0 343.195 L 0 362 L 19.415 362 L 19.415 356 L 43.805 356 L 43.805 362 L 68.195 362 L 68.195 356 L 92.585 356 L 92.585 362 L 112 362 L 112 343.195 L 106 343.195 L 106 318.805 L 112 318.805 L 112 300 L 92.585 300 L 92.585 306 L 68.195 306 L 68.195 300 L 43.805 300 L 43.805 306 L 19.415 306 L 19.415 300 L 0 300 Z"
       id="back_outsideCutPath"
       stroke="#FF0000"
       stroke-width="0.1"
       style="stroke:#FF0000;stroke-width:0.1"
       vector-effect="non-scaling-stroke" />
    <path
       d="M 64.489 332.253 L 64.537 332.253 A 5.95 5.95 0 0 1 64.684 332.054 Q 64.854 331.834 65.095 331.553 A 21.595 21.595 0 0 1 65.33 331.285 L 67.474 329.014 L 68.666 329.014 L 65.978 331.842 L 68.854 335.65 L 67.637 335.65 L 65.294 332.514 L 64.537 333.168 L 64.537 335.65 L 63.544 335.65 L 63.544 326.229 L 64.537 326.229 L 64.537 331.224 Q 64.537 331.557 64.489 332.253 Z M 44.151 334.796 L 44.078 334.796 L 43.866 335.65 L 43.146 335.65 L 43.146 326.229 L 44.151 326.229 L 44.151 328.518 A 20.955 20.955 0 0 1 44.14 329.225 Q 44.128 329.56 44.106 329.858 A 12.525 12.525 0 0 1 44.103 329.898 L 44.151 329.898 A 2.285 2.285 0 0 1 45.819 328.929 A 3.433 3.433 0 0 1 46.234 328.905 A 3.072 3.072 0 0 1 47.098 329.02 A 2.3 2.3 0 0 1 48.265 329.798 Q 48.989 330.691 48.989 332.326 A 5.893 5.893 0 0 1 48.911 333.317 Q 48.82 333.846 48.625 334.27 A 2.825 2.825 0 0 1 48.259 334.866 A 2.379 2.379 0 0 1 46.568 335.755 A 3.409 3.409 0 0 1 46.234 335.771 A 3.049 3.049 0 0 1 45.468 335.678 A 2.653 2.653 0 0 1 45.05 335.532 A 2.226 2.226 0 0 1 44.151 334.796 Z M 55.57 335.65 L 54.825 335.65 L 54.626 334.705 L 54.577 334.705 A 4.167 4.167 0 0 1 54.24 335.083 Q 54.059 335.261 53.878 335.385 A 1.852 1.852 0 0 1 53.587 335.55 Q 53.18 335.732 52.607 335.764 A 4.523 4.523 0 0 1 52.355 335.771 Q 51.566 335.771 51.049 335.446 A 1.731 1.731 0 0 1 50.808 335.262 A 1.652 1.652 0 0 1 50.31 334.391 A 2.529 2.529 0 0 1 50.248 333.815 Q 50.248 331.87 53.259 331.717 A 9.818 9.818 0 0 1 53.463 331.708 L 54.589 331.672 L 54.589 331.26 A 2.887 2.887 0 0 0 54.561 330.843 Q 54.492 330.372 54.253 330.107 A 1.02 1.02 0 0 0 53.835 329.834 Q 53.561 329.735 53.179 329.735 Q 52.349 329.735 51.302 330.243 L 50.993 329.474 Q 51.483 329.208 52.067 329.056 A 4.655 4.655 0 0 1 53.239 328.905 Q 54.426 328.905 54.998 329.432 A 1.592 1.592 0 0 1 55.409 330.065 Q 55.505 330.325 55.543 330.649 A 3.955 3.955 0 0 1 55.57 331.121 L 55.57 335.65 Z M 62.067 329.238 L 61.758 330.092 A 4.471 4.471 0 0 0 61.273 329.93 A 5.34 5.34 0 0 0 61.031 329.871 A 4.152 4.152 0 0 0 60.716 329.812 Q 60.562 329.79 60.425 329.785 A 2.228 2.228 0 0 0 60.335 329.783 A 2.229 2.229 0 0 0 59.43 329.953 Q 58.481 330.371 58.338 331.818 A 5.554 5.554 0 0 0 58.313 332.362 A 4.868 4.868 0 0 0 58.361 333.071 Q 58.414 333.43 58.525 333.722 A 2.085 2.085 0 0 0 58.806 334.239 A 1.596 1.596 0 0 0 59.841 334.857 A 2.432 2.432 0 0 0 60.269 334.893 Q 61.098 334.893 61.97 334.536 L 61.97 335.426 Q 61.304 335.771 60.293 335.771 A 3.756 3.756 0 0 1 59.379 335.666 A 2.547 2.547 0 0 1 58.062 334.884 A 2.907 2.907 0 0 1 57.457 333.774 Q 57.324 333.333 57.286 332.803 A 6.077 6.077 0 0 1 57.271 332.374 A 5.546 5.546 0 0 1 57.357 331.366 Q 57.462 330.803 57.692 330.36 A 2.771 2.771 0 0 1 58.074 329.801 A 2.602 2.602 0 0 1 59.499 328.982 A 3.945 3.945 0 0 1 60.359 328.893 A 4.536 4.536 0 0 1 61.316 328.996 A 5.017 5.017 0 0 1 61.595 329.064 Q 61.875 329.141 62.061 329.235 A 1.507 1.507 0 0 1 62.067 329.238 Z M 44.993 329.996 A 1.337 1.337 0 0 0 44.605 330.337 A 1.721 1.721 0 0 0 44.356 330.811 Q 44.188 331.282 44.158 331.998 A 7.744 7.744 0 0 0 44.151 332.326 A 6.645 6.645 0 0 0 44.184 333.013 Q 44.275 333.885 44.617 334.327 Q 45.035 334.867 45.906 334.923 A 3.232 3.232 0 0 0 46.113 334.929 A 2.004 2.004 0 0 0 46.682 334.853 A 1.445 1.445 0 0 0 47.493 334.254 A 2.307 2.307 0 0 0 47.779 333.637 Q 47.947 333.085 47.947 332.314 Q 47.947 331.018 47.493 330.382 Q 47.039 329.747 46.088 329.747 Q 45.419 329.747 44.993 329.996 Z M 54.565 332.986 L 54.565 332.386 L 53.56 332.429 Q 52.559 332.464 52.024 332.7 A 1.544 1.544 0 0 0 51.831 332.801 A 1.072 1.072 0 0 0 51.32 333.579 A 1.587 1.587 0 0 0 51.302 333.827 A 1.436 1.436 0 0 0 51.337 334.157 Q 51.41 334.466 51.632 334.657 A 1.094 1.094 0 0 0 52.041 334.875 Q 52.204 334.923 52.398 334.936 A 2.26 2.26 0 0 0 52.555 334.942 Q 53.493 334.942 54.029 334.427 A 1.683 1.683 0 0 0 54.499 333.586 Q 54.564 333.316 54.565 332.996 A 3.146 3.146 0 0 0 54.565 332.986 Z"
       id="back_labelLayer"
       stroke="#777777"
       fill="#777777"
       style="stroke:#777777;fill:#777777"
       vector-effect="non-scaling-stroke" />
    <path
       d="M 121 300 L 121 318.805 L 115 318.805 L 115 343.195 L 121 343.195 L 121 362 L 135.635 362 L 135.635 356 L 160.025 356 L 160.025 362 L 184.415 362 L 184.415 356 L 208.805 356 L 208.805 362 L 233.195 362 L 233.195 356 L 257.585 356 L 257.585 362 L 281.975 362 L 281.975 356 L 306.365 356 L 306.365 362 L 321 362 L 321 343.195 L 327 343.195 L 327 318.805 L 321 318.805 L 321 300 L 306.365 300 L 306.365 306 L 281.975 306 L 281.975 300 L 257.585 300 L 257.585 306 L 233.195 306 L 233.195 300 L 208.805 300 L 208.805 306 L 184.415 306 L 184.415 300 L 160.025 300 L 160.025 306 L 135.635 306 L 135.635 300 L 121 300 Z"
       id="right_outsideCutPath"
       stroke="#FF0000"
       stroke-width="0.1"
       style="stroke:#FF0000;stroke-width:0.1"
       vector-effect="non-scaling-stroke" />
    <path
       d="M 228.711 334.221 L 227.706 334.221 L 227.706 329.928 Q 227.706 329.411 227.555 329.061 A 1.196 1.196 0 0 0 227.336 328.717 A 1.133 1.133 0 0 0 226.871 328.421 Q 226.579 328.318 226.18 328.318 Q 225.496 328.318 225.053 328.56 A 1.407 1.407 0 0 0 224.651 328.887 Q 224.17 329.456 224.17 330.752 L 224.17 334.221 L 223.165 334.221 L 223.165 324.8 L 224.17 324.8 L 224.17 327.652 A 9.042 9.042 0 0 1 224.163 327.999 Q 224.152 328.288 224.121 328.505 L 224.182 328.505 Q 224.478 328.027 225.026 327.752 A 2.58 2.58 0 0 1 225.873 327.5 A 3.262 3.262 0 0 1 226.277 327.476 Q 227.077 327.476 227.614 327.726 A 1.812 1.812 0 0 1 228.102 328.054 A 1.75 1.75 0 0 1 228.534 328.732 Q 228.637 329.014 228.68 329.364 A 4.346 4.346 0 0 1 228.711 329.892 L 228.711 334.221 Z M 219.508 327.585 L 221.802 327.585 L 221.802 328.221 L 220.573 328.366 A 1.633 1.633 0 0 1 220.715 328.577 Q 220.777 328.685 220.833 328.815 A 3.099 3.099 0 0 1 220.876 328.92 A 1.934 1.934 0 0 1 220.99 329.382 A 2.483 2.483 0 0 1 221.009 329.692 A 2.304 2.304 0 0 1 220.903 330.406 A 1.864 1.864 0 0 1 220.343 331.248 Q 219.743 331.772 218.74 331.824 A 4.365 4.365 0 0 1 218.515 331.829 A 3.23 3.23 0 0 1 218.141 331.809 A 2.728 2.728 0 0 1 217.958 331.781 Q 217.316 332.12 217.316 332.635 A 0.521 0.521 0 0 0 217.342 332.805 Q 217.39 332.945 217.526 333.029 A 0.557 0.557 0 0 0 217.54 333.037 Q 217.72 333.142 218.109 333.163 A 3.823 3.823 0 0 0 218.309 333.168 L 219.483 333.168 Q 220.202 333.168 220.699 333.37 A 1.816 1.816 0 0 1 221.139 333.622 A 1.47 1.47 0 0 1 221.686 334.558 A 2.208 2.208 0 0 1 221.717 334.942 A 2.176 2.176 0 0 1 221.593 335.694 Q 221.386 336.26 220.833 336.622 Q 219.95 337.2 218.254 337.2 A 5.631 5.631 0 0 1 217.499 337.153 Q 217.115 337.101 216.802 336.991 A 2.336 2.336 0 0 1 216.247 336.716 A 1.602 1.602 0 0 1 215.731 336.155 Q 215.565 335.849 215.545 335.46 A 2.122 2.122 0 0 1 215.542 335.347 Q 215.542 334.742 215.929 334.3 A 1.755 1.755 0 0 1 216.532 333.861 A 2.487 2.487 0 0 1 217.019 333.7 A 1.043 1.043 0 0 1 216.614 333.373 A 1.238 1.238 0 0 1 216.592 333.343 Q 216.42 333.101 216.42 332.78 A 1.149 1.149 0 0 1 216.478 332.41 A 1.019 1.019 0 0 1 216.613 332.144 Q 216.807 331.872 217.225 331.618 A 1.762 1.762 0 0 1 216.459 331.005 A 2.184 2.184 0 0 1 216.386 330.897 Q 216.062 330.388 216.062 329.735 A 2.904 2.904 0 0 1 216.139 329.048 A 1.911 1.911 0 0 1 216.716 328.054 A 2.134 2.134 0 0 1 217.536 327.603 Q 217.988 327.464 218.569 327.464 A 3.853 3.853 0 0 1 219.079 327.496 A 2.934 2.934 0 0 1 219.508 327.585 Z M 233.827 333.392 L 233.827 334.161 Q 233.679 334.232 233.406 334.28 A 3.758 3.758 0 0 1 233.346 334.291 A 4.356 4.356 0 0 1 233.061 334.328 Q 232.908 334.342 232.773 334.342 A 2.625 2.625 0 0 1 232 334.238 Q 231.149 333.976 230.927 333.052 A 3.159 3.159 0 0 1 230.848 332.314 L 230.848 328.366 L 229.897 328.366 L 229.897 327.882 L 230.848 327.464 L 231.272 326.047 L 231.853 326.047 L 231.853 327.585 L 233.778 327.585 L 233.778 328.366 L 231.853 328.366 L 231.853 332.271 Q 231.853 332.693 231.994 332.976 A 0.975 0.975 0 0 0 232.138 333.192 A 0.934 0.934 0 0 0 232.712 333.497 A 1.343 1.343 0 0 0 232.919 333.513 A 3.301 3.301 0 0 0 233.402 333.478 A 3.044 3.044 0 0 0 233.433 333.473 Q 233.682 333.434 233.827 333.392 Z M 211.994 327.537 L 211.854 328.469 Q 211.511 328.393 211.236 328.381 A 2.358 2.358 0 0 0 211.128 328.378 A 1.742 1.742 0 0 0 209.841 328.934 A 2.383 2.383 0 0 0 209.75 329.032 A 2.295 2.295 0 0 0 209.197 330.321 A 3.051 3.051 0 0 0 209.178 330.661 L 209.178 334.221 L 208.173 334.221 L 208.173 327.585 L 209.003 327.585 L 209.118 328.814 L 209.166 328.814 A 3.394 3.394 0 0 1 209.546 328.272 A 2.593 2.593 0 0 1 210.056 327.815 A 2.004 2.004 0 0 1 211.2 327.464 A 4.614 4.614 0 0 1 211.614 327.482 A 3.368 3.368 0 0 1 211.994 327.537 Z M 214.24 327.585 L 214.24 334.221 L 213.235 334.221 L 213.235 327.585 L 214.24 327.585 Z M 219.162 334.07 L 217.958 334.07 A 2.31 2.31 0 0 0 217.541 334.105 Q 217.305 334.148 217.118 334.245 A 1.177 1.177 0 0 0 216.892 334.397 Q 216.51 334.724 216.51 335.335 A 1.009 1.009 0 0 0 216.577 335.71 Q 216.673 335.951 216.905 336.114 A 1.179 1.179 0 0 0 216.965 336.153 A 1.61 1.61 0 0 0 217.36 336.322 Q 217.737 336.431 218.266 336.431 Q 219.397 336.431 220.003 336.129 A 1.669 1.669 0 0 0 220.14 336.053 A 1.466 1.466 0 0 0 220.48 335.768 A 1.099 1.099 0 0 0 220.749 335.026 A 1.36 1.36 0 0 0 220.724 334.756 Q 220.658 334.43 220.416 334.279 A 0.953 0.953 0 0 0 220.19 334.18 Q 219.949 334.106 219.568 334.082 A 6.395 6.395 0 0 0 219.162 334.07 Z M 217.055 329.71 A 1.962 1.962 0 0 0 217.096 330.122 Q 217.181 330.521 217.449 330.764 Q 217.803 331.086 218.409 331.118 A 2.588 2.588 0 0 0 218.545 331.121 A 2.19 2.19 0 0 0 219.118 331.053 Q 220.016 330.808 220.016 329.692 Q 220.016 328.505 219.078 328.26 A 2.186 2.186 0 0 0 218.527 328.197 A 2.109 2.109 0 0 0 218.097 328.238 Q 217.693 328.322 217.437 328.578 A 1.206 1.206 0 0 0 217.145 329.07 Q 217.083 329.26 217.064 329.491 A 2.644 2.644 0 0 0 217.055 329.71 Z M 213.164 325.603 A 1.114 1.114 0 0 0 213.15 325.787 A 1.187 1.187 0 0 0 213.155 325.9 Q 213.165 326.002 213.193 326.085 A 0.519 0.519 0 0 0 213.32 326.292 A 0.564 0.564 0 0 0 213.524 326.422 A 0.638 0.638 0 0 0 213.743 326.459 A 0.586 0.586 0 0 0 214.161 326.292 A 0.491 0.491 0 0 0 214.257 326.166 Q 214.301 326.083 214.321 325.977 A 1.04 1.04 0 0 0 214.337 325.787 A 1.15 1.15 0 0 0 214.332 325.678 Q 214.322 325.579 214.295 325.498 A 0.507 0.507 0 0 0 214.161 325.284 A 0.592 0.592 0 0 0 213.743 325.121 A 0.767 0.767 0 0 0 213.693 325.123 A 0.581 0.581 0 0 0 213.32 325.281 Q 213.199 325.395 213.164 325.603 Z"
       id="right_labelLayer"
       stroke="#777777"
       fill="#777777"
       style="stroke:#777777;fill:#777777"
       vector-effect="non-scaling-stroke" />
    <path
       d="M 336 6 L 336 20.635 L 330 20.635 L 330 45.025 L 336 45.025 L 336 69.415 L 330 69.415 L 330 93.805 L 336 93.805 L 336 118.195 L 330 118.195 L 330 142.585 L 336 142.585 L 336 166.975 L 330 166.975 L 330 191.365 L 336 191.365 L 336 206 L 349.415 206 L 349.415 212 L 373.805 212 L 373.805 206 L 398.195 206 L 398.195 212 L 422.585 212 L 422.585 206 L 436 206 L 436 191.365 L 442 191.365 L 442 166.975 L 436 166.975 L 436 142.585 L 442 142.585 L 442 118.195 L 436 118.195 L 436 93.805 L 442 93.805 L 442 69.415 L 436 69.415 L 436 45.025 L 442 45.025 L 442 20.635 L 436 20.635 L 436 6 L 422.585 6 L 422.585 0 L 398.195 0 L 398.195 6 L 373.805 6 L 373.805 0 L 349.415 0 L 349.415 6 L 336 6 Z"
       id="bottom_outsideCutPath"
       stroke="#FF0000"
       stroke-width="0.1"
       style="stroke:#FF0000;stroke-width:0.1"
       vector-effect="non-scaling-stroke" />
    <path
       d="M 422.848 114.4 L 421.033 114.4 L 421.033 106.601 A 5.356 5.356 0 0 0 420.979 105.814 Q 420.919 105.412 420.792 105.087 A 2.194 2.194 0 0 0 420.42 104.452 Q 419.808 103.736 418.517 103.736 Q 416.822 103.736 416.012 104.709 A 3 3 0 0 0 415.504 105.63 Q 415.205 106.467 415.203 107.687 A 10.09 10.09 0 0 0 415.203 107.706 L 415.203 114.4 L 413.387 114.4 L 413.387 106.601 A 5.356 5.356 0 0 0 413.333 105.814 Q 413.274 105.412 413.147 105.087 A 2.194 2.194 0 0 0 412.775 104.452 A 1.905 1.905 0 0 0 411.899 103.883 Q 411.584 103.779 411.199 103.749 A 4.252 4.252 0 0 0 410.861 103.736 A 4.509 4.509 0 0 0 409.928 103.826 Q 409.353 103.948 408.924 104.234 A 2.38 2.38 0 0 0 408.362 104.758 A 3.045 3.045 0 0 0 407.91 105.616 Q 407.617 106.444 407.576 107.685 A 12.641 12.641 0 0 0 407.569 108.111 L 407.569 114.4 L 405.753 114.4 L 405.753 102.412 L 407.23 102.412 L 407.525 104.053 L 407.612 104.053 A 3.568 3.568 0 0 1 409.062 102.686 A 4.311 4.311 0 0 1 410.764 102.208 A 5.206 5.206 0 0 1 411.156 102.193 Q 412.897 102.193 413.891 102.974 A 3.1 3.1 0 0 1 414.831 104.228 L 414.919 104.228 A 3.791 3.791 0 0 1 416.347 102.81 A 4.555 4.555 0 0 1 416.472 102.74 A 4.595 4.595 0 0 1 418.158 102.228 A 5.73 5.73 0 0 1 418.791 102.193 Q 420.162 102.193 421.069 102.668 A 2.992 2.992 0 0 1 421.837 103.238 A 3.127 3.127 0 0 1 422.508 104.336 Q 422.848 105.247 422.848 106.579 L 422.848 114.4 Z M 350.967 112.858 L 350.836 112.858 L 350.453 114.4 L 349.152 114.4 L 349.152 97.381 L 350.967 97.381 L 350.967 101.515 A 37.854 37.854 0 0 1 350.947 102.794 Q 350.925 103.439 350.88 104.009 L 350.967 104.009 A 4.128 4.128 0 0 1 353.98 102.259 A 6.201 6.201 0 0 1 354.73 102.215 A 5.549 5.549 0 0 1 356.291 102.424 A 4.154 4.154 0 0 1 358.399 103.829 Q 359.706 105.442 359.706 108.395 A 10.645 10.645 0 0 1 359.565 110.186 Q 359.402 111.141 359.05 111.906 A 5.103 5.103 0 0 1 358.388 112.983 A 4.298 4.298 0 0 1 355.333 114.59 A 6.158 6.158 0 0 1 354.73 114.618 A 5.507 5.507 0 0 1 353.346 114.45 A 4.792 4.792 0 0 1 352.591 114.186 Q 351.623 113.754 350.967 112.858 Z M 381.92 112.901 L 381.92 114.29 A 1.786 1.786 0 0 1 381.708 114.374 Q 381.446 114.462 381.051 114.525 A 7.869 7.869 0 0 1 380.538 114.592 Q 380.296 114.615 380.079 114.618 A 4.654 4.654 0 0 1 380.017 114.618 Q 377.243 114.618 376.682 112.288 A 5.707 5.707 0 0 1 376.539 110.954 L 376.539 103.823 L 374.822 103.823 L 374.822 102.948 L 376.539 102.193 L 377.305 99.634 L 378.355 99.634 L 378.355 102.412 L 381.833 102.412 L 381.833 103.823 L 378.355 103.823 L 378.355 110.878 A 3.656 3.656 0 0 0 378.407 111.52 Q 378.519 112.146 378.869 112.54 A 1.687 1.687 0 0 0 379.906 113.092 A 2.427 2.427 0 0 0 380.28 113.12 A 5.963 5.963 0 0 0 381.153 113.058 A 5.491 5.491 0 0 0 381.209 113.049 A 9.822 9.822 0 0 0 381.471 113.004 Q 381.722 112.957 381.896 112.908 A 2.722 2.722 0 0 0 381.92 112.901 Z M 389.828 112.901 L 389.828 114.29 A 1.786 1.786 0 0 1 389.616 114.374 Q 389.353 114.462 388.959 114.525 A 7.869 7.869 0 0 1 388.445 114.592 Q 388.204 114.615 387.986 114.618 A 4.654 4.654 0 0 1 387.925 114.618 Q 385.151 114.618 384.589 112.288 A 5.707 5.707 0 0 1 384.447 110.954 L 384.447 103.823 L 382.73 103.823 L 382.73 102.948 L 384.447 102.193 L 385.212 99.634 L 386.262 99.634 L 386.262 102.412 L 389.741 102.412 L 389.741 103.823 L 386.262 103.823 L 386.262 110.878 A 3.656 3.656 0 0 0 386.315 111.52 Q 386.427 112.146 386.777 112.54 A 1.687 1.687 0 0 0 387.813 113.092 A 2.427 2.427 0 0 0 388.187 113.12 A 5.963 5.963 0 0 0 389.061 113.058 A 5.491 5.491 0 0 0 389.117 113.049 A 9.822 9.822 0 0 0 389.379 113.004 Q 389.63 112.957 389.804 112.908 A 2.722 2.722 0 0 0 389.828 112.901 Z M 373.225 108.395 Q 373.225 111.326 371.748 112.972 A 4.84 4.84 0 0 1 368.9 114.516 A 7.05 7.05 0 0 1 367.669 114.618 A 5.83 5.83 0 0 1 365.974 114.38 A 5.056 5.056 0 0 1 364.814 113.864 A 4.915 4.915 0 0 1 363.021 111.957 A 5.968 5.968 0 0 1 362.889 111.698 A 6.717 6.717 0 0 1 362.325 109.866 A 9.083 9.083 0 0 1 362.211 108.395 A 9.427 9.427 0 0 1 362.376 106.572 Q 362.586 105.51 363.06 104.683 A 5.016 5.016 0 0 1 363.677 103.829 A 4.802 4.802 0 0 1 366.479 102.302 A 7.052 7.052 0 0 1 367.745 102.193 A 6.101 6.101 0 0 1 369.536 102.444 A 4.753 4.753 0 0 1 371.743 103.867 A 5.654 5.654 0 0 1 372.978 106.261 Q 373.225 107.23 373.225 108.395 Z M 402.57 108.395 Q 402.57 111.326 401.094 112.972 A 4.84 4.84 0 0 1 398.245 114.516 A 7.05 7.05 0 0 1 397.014 114.618 A 5.83 5.83 0 0 1 395.32 114.38 A 5.056 5.056 0 0 1 394.159 113.864 A 4.915 4.915 0 0 1 392.366 111.957 A 5.968 5.968 0 0 1 392.234 111.698 A 6.717 6.717 0 0 1 391.67 109.866 A 9.083 9.083 0 0 1 391.556 108.395 A 9.427 9.427 0 0 1 391.722 106.572 Q 391.931 105.51 392.406 104.683 A 5.016 5.016 0 0 1 393.022 103.829 A 4.802 4.802 0 0 1 395.824 102.302 A 7.052 7.052 0 0 1 397.091 102.193 A 6.101 6.101 0 0 1 398.882 102.444 A 4.753 4.753 0 0 1 401.088 103.867 A 5.654 5.654 0 0 1 402.323 106.261 Q 402.57 107.23 402.57 108.395 Z M 364.092 108.395 A 9.194 9.194 0 0 0 364.18 109.708 Q 364.276 110.375 364.479 110.915 A 3.809 3.809 0 0 0 365.011 111.895 A 2.976 2.976 0 0 0 366.949 113.036 A 4.509 4.509 0 0 0 367.712 113.098 A 4.217 4.217 0 0 0 368.825 112.96 A 2.935 2.935 0 0 0 370.419 111.9 A 3.898 3.898 0 0 0 371.026 110.718 Q 371.344 109.747 371.344 108.395 Q 371.344 106.109 370.419 104.922 A 2.987 2.987 0 0 0 368.563 103.815 A 4.579 4.579 0 0 0 367.691 103.736 A 4.321 4.321 0 0 0 366.615 103.862 A 2.892 2.892 0 0 0 365 104.906 A 3.754 3.754 0 0 0 364.416 106.034 Q 364.244 106.552 364.163 107.186 A 9.594 9.594 0 0 0 364.092 108.395 Z M 393.437 108.395 A 9.194 9.194 0 0 0 393.525 109.708 Q 393.621 110.375 393.824 110.915 A 3.809 3.809 0 0 0 394.356 111.895 A 2.976 2.976 0 0 0 396.294 113.036 A 4.509 4.509 0 0 0 397.058 113.098 A 4.217 4.217 0 0 0 398.17 112.96 A 2.935 2.935 0 0 0 399.765 111.9 A 3.898 3.898 0 0 0 400.372 110.718 Q 400.689 109.747 400.689 108.395 Q 400.689 106.109 399.765 104.922 A 2.987 2.987 0 0 0 397.908 103.815 A 4.579 4.579 0 0 0 397.036 103.736 A 4.321 4.321 0 0 0 395.96 103.862 A 2.892 2.892 0 0 0 394.345 104.906 A 3.754 3.754 0 0 0 393.762 106.034 Q 393.589 106.552 393.509 107.186 A 9.594 9.594 0 0 0 393.437 108.395 Z M 352.489 104.186 A 2.415 2.415 0 0 0 351.787 104.802 A 3.108 3.108 0 0 0 351.337 105.659 Q 351.034 106.51 350.979 107.803 A 13.989 13.989 0 0 0 350.967 108.395 A 12.005 12.005 0 0 0 351.027 109.636 Q 351.157 110.888 351.575 111.649 A 2.738 2.738 0 0 0 351.809 112.01 A 2.634 2.634 0 0 0 353.145 112.912 Q 353.592 113.052 354.137 113.086 A 5.838 5.838 0 0 0 354.511 113.098 A 3.619 3.619 0 0 0 355.539 112.961 A 2.611 2.611 0 0 0 357.005 111.879 A 4.168 4.168 0 0 0 357.52 110.763 Q 357.682 110.233 357.758 109.592 A 10.403 10.403 0 0 0 357.825 108.373 Q 357.825 106.033 357.005 104.884 A 2.648 2.648 0 0 0 355.319 103.817 A 4.199 4.199 0 0 0 354.467 103.736 Q 353.258 103.736 352.489 104.186 Z"
       id="bottom_labelLayer"
       stroke="#777777"
       fill="#777777"
       style="stroke:#777777;fill:#777777"
       vector-effect="non-scaling-stroke" />
  </g>
  <circle
     style="fill:#ffffff;stroke:#ff0000;stroke-width:0.1"
     id="path335"
     cx="84.856049"
     cy="340.51212"
     r="7.5" />
  <rect
     style="fill:#000000;fill-opacity:0;stroke:#ff0000;stroke-width:0.1;stroke-opacity:1"
     id="rect350"
     width="14"
     height="9"
     x="360.04999"
     y="230.05" />
  <rect
     style="fill:#000000;fill-opacity:0;stroke:#ff0000;stroke-width:0.1;stroke-opacity:1"
     id="rect350-4"
     width="14"
     height="9"
     x="360.04999"
     y="250.05" />
  <rect
     style="fill:#000000;fill-opacity:0;stroke:#ff0000;stroke-width:0.1;stroke-opacity:1"
     id="rect350-5"
     width="14"
     height="9"
     x="360.04999"
     y="270.04999" />
  <rect
     style="fill:#000000;fill-opacity:0;stroke:#ff0000;stroke-width:0.1;stroke-opacity:1"
     id="rect350-7"
     width="14"
     height="9"
     x="360.04999"
     y="290.04999" />
</svg>
