M48
; DRILL file {KiCad 7.0.1} date Tue Mar 21 16:38:26 2023
; FORMAT={-:-/ absolute / inch / decimal}
; #@! TF.CreationDate,2023-03-21T16:38:26+01:00
; #@! TF.GenerationSoftware,Kicad,Pcbnew,7.0.1
; #@! TF.FileFunction,MixedPlating,1,2
FMAT,2
INCH
; #@! TA.AperFunction,Plated,PTH,ComponentDrill
T1C0.0118
; #@! TA.AperFunction,Plated,PTH,ViaDrill
T2C0.0157
; #@! TA.AperFunction,Plated,PTH,ComponentDrill
T3C0.0315
; #@! TA.AperFunction,Plated,PTH,ComponentDrill
T4C0.0394
; #@! TA.AperFunction,Plated,PTH,ComponentDrill
T5C0.0500
%
G90
G05
T1
X4.5577Y-2.009
X4.5577Y-2.069
X4.5877Y-1.9789
X4.5877Y-2.039
X4.5877Y-2.099
X4.6177Y-2.009
X4.6177Y-2.069
X4.6477Y-1.9789
X4.6477Y-2.039
X4.6477Y-2.099
X4.6778Y-2.009
X4.6778Y-2.069
T2
X3.212Y-2.381
X3.251Y-2.092
X3.322Y-1.601
X3.334Y-2.871
X3.551Y-2.268
X3.694Y-1.991
X3.807Y-2.327
X3.881Y-2.798
X3.982Y-2.699
X4.118Y-2.001
X4.121Y-2.355
X4.185Y-2.922
X4.319Y-2.485
X4.345Y-2.2
X4.451Y-1.789
X4.457Y-2.693
X4.615Y-2.852
X4.623Y-2.518
X4.712Y-2.3369
X4.727Y-3.032
X4.829Y-1.87
X4.839Y-2.08
X5.086Y-2.071
X5.273Y-3.05
X5.274Y-2.4
X5.329Y-2.271
X5.353Y-1.963
X5.355Y-1.839
X5.471Y-2.633
X5.568Y-1.771
T3
X5.245Y-2.638
X5.245Y-2.7167
X5.245Y-2.7955
X5.245Y-2.8742
X5.493Y-2.0888
X5.493Y-2.1675
X5.493Y-2.2463
X5.493Y-2.325
X5.535Y-2.631
X5.535Y-2.7097
X5.535Y-2.7885
X5.535Y-2.8672
T5
X3.38Y-1.8
X3.38Y-2.53
X3.48Y-1.8
X3.48Y-2.53
X3.8Y-1.8
X3.8Y-2.53
X3.9Y-1.8
X3.9Y-2.53
T4
G00X3.218Y-2.7677
M15
G01X3.218Y-2.8543
M16
G05
G00X3.3951Y-3.0
M15
G01X3.3085Y-3.0
M16
G05
G00X3.466Y-2.7598
M15
G01X3.466Y-2.8622
M16
G05
T0
M30
