%TF.GenerationSoftware,KiCad,Pcbnew,7.0.1*%
%TF.CreationDate,2023-03-21T16:38:31+01:00*%
%TF.ProjectId,Motordinges,4d6f746f-7264-4696-9e67-65732e6b6963,rev?*%
%TF.SameCoordinates,Original*%
%TF.FileFunction,Soldermask,Top*%
%TF.FilePolarity,Negative*%
%FSLAX46Y46*%
G04 Gerber Fmt 4.6, Leading zero omitted, Abs format (unit mm)*
G04 Created by KiCad (PCBNEW 7.0.1) date 2023-03-21 16:38:31*
%MOMM*%
%LPD*%
G01*
G04 APERTURE LIST*
G04 Aperture macros list*
%AMRoundRect*
0 Rectangle with rounded corners*
0 $1 Rounding radius*
0 $2 $3 $4 $5 $6 $7 $8 $9 X,Y pos of 4 corners*
0 Add a 4 corners polygon primitive as box body*
4,1,4,$2,$3,$4,$5,$6,$7,$8,$9,$2,$3,0*
0 Add four circle primitives for the rounded corners*
1,1,$1+$1,$2,$3*
1,1,$1+$1,$4,$5*
1,1,$1+$1,$6,$7*
1,1,$1+$1,$8,$9*
0 Add four rect primitives between the rounded corners*
20,1,$1+$1,$2,$3,$4,$5,0*
20,1,$1+$1,$4,$5,$6,$7,0*
20,1,$1+$1,$6,$7,$8,$9,0*
20,1,$1+$1,$8,$9,$2,$3,0*%
G04 Aperture macros list end*
%ADD10R,1.500000X0.900000*%
%ADD11R,0.900000X1.500000*%
%ADD12C,0.600000*%
%ADD13R,4.200000X4.200000*%
%ADD14R,1.350000X1.350000*%
%ADD15O,1.350000X1.350000*%
%ADD16RoundRect,0.250000X0.337500X0.475000X-0.337500X0.475000X-0.337500X-0.475000X0.337500X-0.475000X0*%
%ADD17R,1.500000X2.000000*%
%ADD18R,3.800000X2.000000*%
%ADD19RoundRect,0.250000X0.475000X-0.337500X0.475000X0.337500X-0.475000X0.337500X-0.475000X-0.337500X0*%
%ADD20R,0.760000X1.600000*%
%ADD21RoundRect,0.250000X-0.475000X0.337500X-0.475000X-0.337500X0.475000X-0.337500X0.475000X0.337500X0*%
%ADD22RoundRect,0.250000X0.450000X-0.325000X0.450000X0.325000X-0.450000X0.325000X-0.450000X-0.325000X0*%
%ADD23RoundRect,0.250000X-0.350000X-0.450000X0.350000X-0.450000X0.350000X0.450000X-0.350000X0.450000X0*%
%ADD24R,2.000000X4.600000*%
%ADD25O,2.000000X4.200000*%
%ADD26O,4.200000X2.000000*%
%ADD27RoundRect,0.250000X0.450000X-0.350000X0.450000X0.350000X-0.450000X0.350000X-0.450000X-0.350000X0*%
%ADD28RoundRect,0.250000X0.350000X0.450000X-0.350000X0.450000X-0.350000X-0.450000X0.350000X-0.450000X0*%
%ADD29C,2.032000*%
G04 APERTURE END LIST*
D10*
%TO.C,U1*%
X109220000Y-44450000D03*
X109220000Y-45720000D03*
X109220000Y-46990000D03*
X109220000Y-48260000D03*
X109220000Y-49530000D03*
X109220000Y-50800000D03*
X109220000Y-52070000D03*
X109220000Y-53340000D03*
X109220000Y-54610000D03*
X109220000Y-55880000D03*
X109220000Y-57150000D03*
X109220000Y-58420000D03*
X109220000Y-59690000D03*
X109220000Y-60960000D03*
D11*
X112260000Y-62210000D03*
X113530000Y-62210000D03*
X114800000Y-62210000D03*
X116070000Y-62210000D03*
X117340000Y-62210000D03*
X118610000Y-62210000D03*
X119880000Y-62210000D03*
X121150000Y-62210000D03*
X122420000Y-62210000D03*
X123690000Y-62210000D03*
D10*
X126720000Y-60960000D03*
X126720000Y-59690000D03*
X126720000Y-58420000D03*
X126720000Y-57150000D03*
X126720000Y-55880000D03*
X126720000Y-54610000D03*
X126720000Y-53340000D03*
X126720000Y-52070000D03*
X126720000Y-50800000D03*
X126720000Y-49530000D03*
X126720000Y-48260000D03*
X126720000Y-46990000D03*
X126720000Y-45720000D03*
X126720000Y-44450000D03*
D12*
X115765000Y-51027500D03*
X115765000Y-52552500D03*
X116527500Y-50265000D03*
X116527500Y-51790000D03*
X116527500Y-53315000D03*
X117290000Y-51027500D03*
D13*
X117290000Y-51790000D03*
D12*
X117290000Y-52552500D03*
X118052500Y-50265000D03*
X118052500Y-51790000D03*
X118052500Y-53315000D03*
X118815000Y-51027500D03*
X118815000Y-52552500D03*
%TD*%
D14*
%TO.C,J1*%
X139522200Y-59055000D03*
D15*
X139522200Y-57055000D03*
X139522200Y-55055000D03*
X139522200Y-53055000D03*
%TD*%
D16*
%TO.C,C1*%
X106723000Y-45872400D03*
X104648000Y-45872400D03*
%TD*%
D17*
%TO.C,U3*%
X95363000Y-74803400D03*
X97663000Y-74803400D03*
D18*
X97663000Y-68503400D03*
D17*
X99963000Y-74803400D03*
%TD*%
D19*
%TO.C,C2*%
X103149400Y-74926100D03*
X103149400Y-72851100D03*
%TD*%
D20*
%TO.C,SW2*%
X126644400Y-64770000D03*
X126644400Y-72390000D03*
%TD*%
D14*
%TO.C,Motor1*%
X140589000Y-66827400D03*
D15*
X140589000Y-68827400D03*
X140589000Y-70827400D03*
X140589000Y-72827400D03*
%TD*%
D21*
%TO.C,C3*%
X93014800Y-73130500D03*
X93014800Y-75205500D03*
%TD*%
D22*
%TO.C,D2*%
X115925600Y-67074000D03*
X115925600Y-65024000D03*
%TD*%
D23*
%TO.C,R1*%
X104546400Y-48818800D03*
X106546400Y-48818800D03*
%TD*%
D20*
%TO.C,SW1*%
X109905800Y-65328800D03*
X109905800Y-72948800D03*
%TD*%
D19*
%TO.C,C4*%
X90576400Y-75205500D03*
X90576400Y-73130500D03*
%TD*%
D24*
%TO.C,J2*%
X88036400Y-71399400D03*
D25*
X81736400Y-71399400D03*
D26*
X85136400Y-76199400D03*
%TD*%
D22*
%TO.C,D1*%
X121208800Y-66963400D03*
X121208800Y-64913400D03*
%TD*%
D27*
%TO.C,R7*%
X118821200Y-67090800D03*
X118821200Y-65090800D03*
%TD*%
D15*
%TO.C,Motor2*%
X133223000Y-73005200D03*
X133223000Y-71005200D03*
X133223000Y-69005200D03*
D14*
X133223000Y-67005200D03*
%TD*%
D28*
%TO.C,R5*%
X131962400Y-48463200D03*
X129962400Y-48463200D03*
%TD*%
%TO.C,R2*%
X132080000Y-60960000D03*
X130080000Y-60960000D03*
%TD*%
D27*
%TO.C,R3*%
X124028200Y-66811400D03*
X124028200Y-64811400D03*
%TD*%
D29*
%TO.C,U2*%
X85852000Y-64262000D03*
X88392000Y-64262000D03*
X96520000Y-64262000D03*
X99060000Y-64262000D03*
X99060000Y-45720000D03*
X96520000Y-45720000D03*
X88392000Y-45720000D03*
X85852000Y-45720000D03*
%TD*%
D27*
%TO.C,R4*%
X113334800Y-66979800D03*
X113334800Y-64979800D03*
%TD*%
D28*
%TO.C,R6*%
X132216400Y-55905400D03*
X130216400Y-55905400D03*
%TD*%
M02*
