%TF.GenerationSoftware,KiCad,Pcbnew,7.0.1*%
%TF.CreationDate,2023-03-21T16:38:31+01:00*%
%TF.ProjectId,Motordinges,4d6f746f-7264-4696-9e67-65732e6b6963,rev?*%
%TF.SameCoordinates,Original*%
%TF.FileFunction,Copper,L2,Bot*%
%TF.FilePolarity,Positive*%
%FSLAX46Y46*%
G04 Gerber Fmt 4.6, Leading zero omitted, Abs format (unit mm)*
G04 Created by KiCad (PCBNEW 7.0.1) date 2023-03-21 16:38:31*
%MOMM*%
%LPD*%
G01*
G04 APERTURE LIST*
%TA.AperFunction,HeatsinkPad*%
%ADD10C,0.600000*%
%TD*%
%TA.AperFunction,ComponentPad*%
%ADD11R,1.350000X1.350000*%
%TD*%
%TA.AperFunction,ComponentPad*%
%ADD12O,1.350000X1.350000*%
%TD*%
%TA.AperFunction,ComponentPad*%
%ADD13R,2.000000X4.600000*%
%TD*%
%TA.AperFunction,ComponentPad*%
%ADD14O,2.000000X4.200000*%
%TD*%
%TA.AperFunction,ComponentPad*%
%ADD15O,4.200000X2.000000*%
%TD*%
%TA.AperFunction,ComponentPad*%
%ADD16C,2.032000*%
%TD*%
%TA.AperFunction,ViaPad*%
%ADD17C,0.800000*%
%TD*%
%TA.AperFunction,Conductor*%
%ADD18C,0.406400*%
%TD*%
G04 APERTURE END LIST*
D10*
%TO.P,U1,39,GND*%
%TO.N,GND*%
X115765000Y-51027500D03*
X115765000Y-52552500D03*
X116527500Y-50265000D03*
X116527500Y-51790000D03*
X116527500Y-53315000D03*
X117290000Y-51027500D03*
X117290000Y-52552500D03*
X118052500Y-50265000D03*
X118052500Y-51790000D03*
X118052500Y-53315000D03*
X118815000Y-51027500D03*
X118815000Y-52552500D03*
%TD*%
D11*
%TO.P,J1,1,Pin_1*%
%TO.N,+3.3V*%
X139522200Y-59055000D03*
D12*
%TO.P,J1,2,Pin_2*%
%TO.N,RX0*%
X139522200Y-57055000D03*
%TO.P,J1,3,Pin_3*%
%TO.N,TX0*%
X139522200Y-55055000D03*
%TO.P,J1,4,Pin_4*%
%TO.N,GND*%
X139522200Y-53055000D03*
%TD*%
D11*
%TO.P,Motor1,1,PWM*%
%TO.N,A8*%
X140589000Y-66827400D03*
D12*
%TO.P,Motor1,2,GND*%
%TO.N,GND*%
X140589000Y-68827400D03*
%TO.P,Motor1,3,DIR*%
%TO.N,GPIO23*%
X140589000Y-70827400D03*
%TO.P,Motor1,4,12V*%
%TO.N,Net-(Motor1-12V)*%
X140589000Y-72827400D03*
%TD*%
D13*
%TO.P,J2,1*%
%TO.N,Net-(Motor1-12V)*%
X88036400Y-71399400D03*
D14*
%TO.P,J2,2*%
%TO.N,Net-(J2-Pad2)*%
X81736400Y-71399400D03*
D15*
%TO.P,J2,3*%
%TO.N,N/C*%
X85136400Y-76199400D03*
%TD*%
D12*
%TO.P,Motor2,4,12V*%
%TO.N,Net-(Motor1-12V)*%
X133223000Y-73005200D03*
%TO.P,Motor2,3,DIR*%
%TO.N,GPIO13*%
X133223000Y-71005200D03*
%TO.P,Motor2,2,GND*%
%TO.N,GND*%
X133223000Y-69005200D03*
D11*
%TO.P,Motor2,1,PWM*%
%TO.N,A9*%
X133223000Y-67005200D03*
%TD*%
D16*
%TO.P,U2,1,IN-*%
%TO.N,Net-(J2-Pad2)*%
X85852000Y-64262000D03*
%TO.P,U2,2,IN-*%
X88392000Y-64262000D03*
%TO.P,U2,3,IN+*%
%TO.N,Net-(Motor1-12V)*%
X96520000Y-64262000D03*
%TO.P,U2,4,IN+*%
X99060000Y-64262000D03*
%TO.P,U2,5,OUT+*%
%TO.N,VDD*%
X99060000Y-45720000D03*
%TO.P,U2,6,OUT+*%
X96520000Y-45720000D03*
%TO.P,U2,7,OUT-*%
%TO.N,GND*%
X88392000Y-45720000D03*
%TO.P,U2,8,OUT-*%
X85852000Y-45720000D03*
%TD*%
D17*
%TO.N,GND*%
X84683600Y-72923400D03*
X141427200Y-44983400D03*
X120065800Y-77012800D03*
X133934200Y-77470000D03*
X96697800Y-59105800D03*
X81584800Y-60477400D03*
X82575400Y-53136800D03*
X93827600Y-50571400D03*
X122910600Y-52832000D03*
%TO.N,+3.3V*%
X113207800Y-68402200D03*
X101142800Y-68554600D03*
X104597200Y-50825400D03*
%TO.N,GND*%
X135356600Y-57683400D03*
X136017000Y-46710600D03*
%TO.N,A8*%
X138963400Y-66878200D03*
X110363000Y-55880000D03*
%TO.N,A9*%
X119684800Y-59357200D03*
%TO.N,+3.3V*%
X133959600Y-60960000D03*
X106299000Y-74218800D03*
%TO.N,GND*%
X109702600Y-63119000D03*
X129184400Y-52603400D03*
X84378800Y-40665400D03*
X135966200Y-49860200D03*
X122656600Y-47498000D03*
X117424200Y-63957200D03*
X113055400Y-45440600D03*
X90195400Y-57607200D03*
X98577400Y-71069200D03*
X104673400Y-59817000D03*
X117221000Y-72440800D03*
%TD*%
D18*
%TO.N,+3.3V*%
X104597200Y-50825400D02*
X103454200Y-51968400D01*
X103454200Y-51968400D02*
X103454200Y-66243200D01*
X103454200Y-66243200D02*
X101142800Y-68554600D01*
X111810464Y-68402200D02*
X113207800Y-68402200D01*
X106299000Y-73913664D02*
X111810464Y-68402200D01*
X106299000Y-74218800D02*
X106299000Y-73913664D01*
X106299000Y-73710800D02*
X101142800Y-68554600D01*
X106299000Y-74218800D02*
X106299000Y-73710800D01*
%TO.N,A8*%
X112191800Y-57708800D02*
X110363000Y-55880000D01*
X133477000Y-57708800D02*
X112191800Y-57708800D01*
X138963400Y-63195200D02*
X133477000Y-57708800D01*
X138963400Y-66878200D02*
X138963400Y-63195200D01*
%TO.N,Net-(Motor1-12V)*%
X88036400Y-74955400D02*
X88036400Y-71399400D01*
X91077200Y-77996200D02*
X88036400Y-74955400D01*
X133223000Y-74625200D02*
X129852000Y-77996200D01*
X129852000Y-77996200D02*
X91077200Y-77996200D01*
X133223000Y-73005200D02*
X133223000Y-74625200D01*
%TO.N,+3.3V*%
X130200400Y-72390000D02*
X130200400Y-64719200D01*
X130200400Y-64719200D02*
X133959600Y-60960000D01*
X127228600Y-75361800D02*
X130200400Y-72390000D01*
X106299000Y-74218800D02*
X107442000Y-75361800D01*
X107442000Y-75361800D02*
X127228600Y-75361800D01*
%TO.N,A9*%
X134388300Y-60144100D02*
X135737600Y-61493400D01*
X135737600Y-64490600D02*
X133223000Y-67005200D01*
X120471700Y-60144100D02*
X134388300Y-60144100D01*
X119684800Y-59357200D02*
X120471700Y-60144100D01*
X135737600Y-61493400D02*
X135737600Y-64490600D01*
%TO.N,Net-(Motor1-12V)*%
X88036400Y-70027800D02*
X88036400Y-71399400D01*
X93802200Y-64262000D02*
X88036400Y-70027800D01*
X140411200Y-73005200D02*
X140589000Y-72827400D01*
X133223000Y-73005200D02*
X140411200Y-73005200D01*
X93802200Y-64262000D02*
X96520000Y-64262000D01*
X99060000Y-64262000D02*
X96520000Y-64262000D01*
%TD*%
%TA.AperFunction,Conductor*%
%TO.N,GND*%
G36*
X93878138Y-37044955D02*
G01*
X93924382Y-37089398D01*
X93942235Y-37151002D01*
X93969974Y-38505791D01*
X93970000Y-38508329D01*
X93970000Y-42900000D01*
X141970000Y-42900000D01*
X141976807Y-42900000D01*
X141992185Y-42889424D01*
X142036054Y-42878852D01*
X142158408Y-42872297D01*
X143035285Y-42825321D01*
X143099761Y-42839462D01*
X143147846Y-42884685D01*
X143165912Y-42948176D01*
X143443329Y-78507998D01*
X143427138Y-78570236D01*
X143381949Y-78615994D01*
X143319918Y-78632964D01*
X142319127Y-78637683D01*
X142257438Y-78621584D01*
X142211902Y-78576961D01*
X142194557Y-78515611D01*
X142209987Y-78453752D01*
X142254114Y-78407736D01*
X142278756Y-78392751D01*
X142500378Y-78212448D01*
X142695385Y-78003647D01*
X142698005Y-77999936D01*
X142860141Y-77770240D01*
X142861726Y-77767182D01*
X142991585Y-77516567D01*
X143029417Y-77410115D01*
X143087261Y-77247361D01*
X143145387Y-76967640D01*
X143145388Y-76967636D01*
X143164885Y-76682600D01*
X143145388Y-76397564D01*
X143130046Y-76323735D01*
X143087261Y-76117838D01*
X142991586Y-75848636D01*
X142991585Y-75848633D01*
X142860143Y-75594963D01*
X142860141Y-75594959D01*
X142695386Y-75361553D01*
X142500378Y-75152752D01*
X142459248Y-75119290D01*
X142278756Y-74972449D01*
X142034647Y-74824003D01*
X141772598Y-74710179D01*
X141553036Y-74648661D01*
X141497488Y-74633097D01*
X141214451Y-74594195D01*
X140928749Y-74594195D01*
X140645711Y-74633097D01*
X140521134Y-74668002D01*
X140370602Y-74710179D01*
X140370600Y-74710179D01*
X140370599Y-74710180D01*
X140108552Y-74824003D01*
X139864445Y-74972448D01*
X139642821Y-75152752D01*
X139447813Y-75361553D01*
X139283058Y-75594959D01*
X139151613Y-75848636D01*
X139055938Y-76117838D01*
X138997812Y-76397559D01*
X138978314Y-76682600D01*
X138997812Y-76967640D01*
X139055938Y-77247361D01*
X139151613Y-77516563D01*
X139283058Y-77770240D01*
X139447813Y-78003646D01*
X139638809Y-78208151D01*
X139642822Y-78212448D01*
X139864444Y-78392751D01*
X139908272Y-78419403D01*
X139952285Y-78465214D01*
X139967835Y-78526810D01*
X139950840Y-78588024D01*
X139905760Y-78632786D01*
X139844429Y-78649350D01*
X130450350Y-78693644D01*
X130395228Y-78681008D01*
X130351449Y-78645210D01*
X130328120Y-78593695D01*
X130330091Y-78537178D01*
X130356952Y-78487415D01*
X130362151Y-78481547D01*
X130367259Y-78476121D01*
X133702921Y-75140459D01*
X133708341Y-75135356D01*
X133753595Y-75095266D01*
X133787937Y-75045510D01*
X133792331Y-75039538D01*
X133829636Y-74991925D01*
X133833837Y-74982589D01*
X133844864Y-74963039D01*
X133850671Y-74954627D01*
X133872104Y-74898110D01*
X133874966Y-74891202D01*
X133899771Y-74836090D01*
X133901613Y-74826036D01*
X133907640Y-74804413D01*
X133911270Y-74794843D01*
X133918557Y-74734822D01*
X133919682Y-74727433D01*
X133930574Y-74668002D01*
X133927778Y-74621781D01*
X133926925Y-74607685D01*
X133926700Y-74600200D01*
X133926700Y-74009088D01*
X133937266Y-73959002D01*
X133967162Y-73917451D01*
X134095425Y-73800524D01*
X134118863Y-73769488D01*
X134127407Y-73758173D01*
X134171089Y-73721900D01*
X134226361Y-73708900D01*
X139763068Y-73708900D01*
X139807862Y-73717273D01*
X139846606Y-73741263D01*
X139867022Y-73759874D01*
X139877568Y-73769488D01*
X139937965Y-73806884D01*
X140062791Y-73884173D01*
X140238066Y-73952075D01*
X140265931Y-73962870D01*
X140480074Y-74002900D01*
X140697924Y-74002900D01*
X140697926Y-74002900D01*
X140912069Y-73962870D01*
X141047496Y-73910404D01*
X141115208Y-73884173D01*
X141124808Y-73878229D01*
X141300432Y-73769488D01*
X141461427Y-73622722D01*
X141592712Y-73448872D01*
X141689817Y-73253859D01*
X141689818Y-73253857D01*
X141749435Y-73044325D01*
X141754628Y-72988281D01*
X141769536Y-72827400D01*
X141749435Y-72610477D01*
X141749435Y-72610474D01*
X141689818Y-72400942D01*
X141592712Y-72205928D01*
X141461426Y-72032076D01*
X141337427Y-71919037D01*
X141301699Y-71861334D01*
X141301699Y-71793466D01*
X141337427Y-71735763D01*
X141461426Y-71622723D01*
X141461427Y-71622722D01*
X141592712Y-71448872D01*
X141689817Y-71253859D01*
X141689818Y-71253857D01*
X141749435Y-71044325D01*
X141753060Y-71005199D01*
X141769536Y-70827400D01*
X141749435Y-70610477D01*
X141749435Y-70610474D01*
X141689818Y-70400942D01*
X141592712Y-70205928D01*
X141461426Y-70032076D01*
X141337055Y-69918698D01*
X141301327Y-69860995D01*
X141301327Y-69793126D01*
X141337056Y-69735423D01*
X141461055Y-69622384D01*
X141592287Y-69448605D01*
X141689348Y-69253678D01*
X141739505Y-69077400D01*
X139438495Y-69077400D01*
X139488651Y-69253678D01*
X139585712Y-69448605D01*
X139716942Y-69622381D01*
X139840944Y-69735423D01*
X139876672Y-69793126D01*
X139876672Y-69860995D01*
X139840944Y-69918698D01*
X139716573Y-70032076D01*
X139585287Y-70205928D01*
X139488181Y-70400942D01*
X139428564Y-70610474D01*
X139408464Y-70827399D01*
X139428564Y-71044325D01*
X139488181Y-71253857D01*
X139585287Y-71448871D01*
X139716573Y-71622723D01*
X139840572Y-71735763D01*
X139876300Y-71793466D01*
X139876300Y-71861334D01*
X139840572Y-71919037D01*
X139716573Y-72032076D01*
X139585285Y-72205930D01*
X139571921Y-72232771D01*
X139526199Y-72282927D01*
X139460921Y-72301500D01*
X134226361Y-72301500D01*
X134171089Y-72288500D01*
X134127406Y-72252226D01*
X134095425Y-72209875D01*
X133971427Y-72096837D01*
X133935699Y-72039134D01*
X133935699Y-71971266D01*
X133971427Y-71913563D01*
X134095426Y-71800523D01*
X134100755Y-71793466D01*
X134226712Y-71626672D01*
X134323817Y-71431659D01*
X134323818Y-71431657D01*
X134383435Y-71222125D01*
X134386349Y-71190667D01*
X134403536Y-71005200D01*
X134383435Y-70788277D01*
X134383435Y-70788274D01*
X134323818Y-70578742D01*
X134226712Y-70383728D01*
X134095426Y-70209876D01*
X133971055Y-70096498D01*
X133935327Y-70038795D01*
X133935327Y-69970926D01*
X133971056Y-69913223D01*
X134095055Y-69800184D01*
X134226287Y-69626405D01*
X134323348Y-69431478D01*
X134373505Y-69255200D01*
X132072495Y-69255200D01*
X132122651Y-69431478D01*
X132219712Y-69626405D01*
X132350942Y-69800181D01*
X132474944Y-69913223D01*
X132510672Y-69970926D01*
X132510672Y-70038795D01*
X132474944Y-70096498D01*
X132350573Y-70209876D01*
X132219287Y-70383728D01*
X132122181Y-70578742D01*
X132062564Y-70788274D01*
X132042464Y-71005200D01*
X132062564Y-71222125D01*
X132122181Y-71431657D01*
X132219287Y-71626671D01*
X132350573Y-71800523D01*
X132474572Y-71913563D01*
X132510300Y-71971266D01*
X132510300Y-72039134D01*
X132474572Y-72096837D01*
X132350573Y-72209876D01*
X132219287Y-72383728D01*
X132122181Y-72578742D01*
X132062564Y-72788274D01*
X132042464Y-73005200D01*
X132062564Y-73222125D01*
X132122181Y-73431657D01*
X132219287Y-73626671D01*
X132350573Y-73800523D01*
X132478838Y-73917451D01*
X132508734Y-73959002D01*
X132519300Y-74009088D01*
X132519300Y-74282356D01*
X132509861Y-74329809D01*
X132482981Y-74370037D01*
X129596837Y-77256181D01*
X129556609Y-77283061D01*
X129509156Y-77292500D01*
X91420044Y-77292500D01*
X91372591Y-77283061D01*
X91332363Y-77256181D01*
X88776419Y-74700237D01*
X88749539Y-74660009D01*
X88740100Y-74612556D01*
X88740100Y-74323899D01*
X88756713Y-74261899D01*
X88802100Y-74216512D01*
X88864100Y-74199899D01*
X89084270Y-74199899D01*
X89084272Y-74199899D01*
X89143883Y-74193491D01*
X89278731Y-74143196D01*
X89393946Y-74056946D01*
X89480196Y-73941731D01*
X89530491Y-73806883D01*
X89536900Y-73747273D01*
X89536899Y-69573842D01*
X89546338Y-69526390D01*
X89573215Y-69486165D01*
X90504781Y-68554599D01*
X100237340Y-68554599D01*
X100257126Y-68742857D01*
X100315620Y-68922884D01*
X100410266Y-69086816D01*
X100536929Y-69227489D01*
X100690069Y-69338751D01*
X100770621Y-69374615D01*
X100862997Y-69415744D01*
X101012186Y-69447454D01*
X101045566Y-69459769D01*
X101074080Y-69481062D01*
X105411152Y-73818134D01*
X105444045Y-73876867D01*
X105441402Y-73944132D01*
X105413326Y-74030540D01*
X105393540Y-74218800D01*
X105413326Y-74407057D01*
X105471820Y-74587084D01*
X105566466Y-74751016D01*
X105693129Y-74891689D01*
X105846269Y-75002951D01*
X105977347Y-75061311D01*
X106019197Y-75079944D01*
X106168378Y-75111653D01*
X106201765Y-75123969D01*
X106230279Y-75145262D01*
X106926731Y-75841714D01*
X106931864Y-75847167D01*
X106966543Y-75886310D01*
X106971934Y-75892395D01*
X107013937Y-75921387D01*
X107021652Y-75926713D01*
X107027685Y-75931152D01*
X107049128Y-75947951D01*
X107075275Y-75968436D01*
X107084602Y-75972633D01*
X107104156Y-75983661D01*
X107112573Y-75989471D01*
X107169092Y-76010907D01*
X107176009Y-76013772D01*
X107219364Y-76033283D01*
X107231110Y-76038570D01*
X107241160Y-76040411D01*
X107262789Y-76046441D01*
X107272357Y-76050070D01*
X107315334Y-76055288D01*
X107332363Y-76057356D01*
X107339769Y-76058483D01*
X107399199Y-76069374D01*
X107459513Y-76065725D01*
X107466999Y-76065500D01*
X127203600Y-76065500D01*
X127211085Y-76065725D01*
X127271400Y-76069374D01*
X127330858Y-76058477D01*
X127338222Y-76057357D01*
X127398243Y-76050070D01*
X127407808Y-76046441D01*
X127429436Y-76040411D01*
X127439490Y-76038570D01*
X127439491Y-76038569D01*
X127439493Y-76038569D01*
X127494599Y-76013768D01*
X127501513Y-76010903D01*
X127558027Y-75989471D01*
X127566439Y-75983663D01*
X127585994Y-75972634D01*
X127595325Y-75968436D01*
X127642938Y-75931131D01*
X127648910Y-75926737D01*
X127698666Y-75892395D01*
X127738756Y-75847141D01*
X127743867Y-75841714D01*
X130680321Y-72905259D01*
X130685741Y-72900156D01*
X130730995Y-72860066D01*
X130765337Y-72810310D01*
X130769731Y-72804338D01*
X130807036Y-72756725D01*
X130811237Y-72747389D01*
X130822264Y-72727839D01*
X130828071Y-72719427D01*
X130849504Y-72662910D01*
X130852366Y-72656002D01*
X130877171Y-72600890D01*
X130879013Y-72590836D01*
X130885040Y-72569213D01*
X130888670Y-72559643D01*
X130895957Y-72499622D01*
X130897082Y-72492233D01*
X130907974Y-72432802D01*
X130904326Y-72372486D01*
X130904100Y-72365000D01*
X130904100Y-65062044D01*
X130913539Y-65014591D01*
X130940419Y-64974363D01*
X131710856Y-64203926D01*
X134028321Y-61886459D01*
X134056832Y-61865169D01*
X134090209Y-61852855D01*
X134239403Y-61821144D01*
X134412330Y-61744151D01*
X134565471Y-61632888D01*
X134627965Y-61563481D01*
X134683857Y-61527874D01*
X134750110Y-61526139D01*
X134807793Y-61558775D01*
X134997581Y-61748563D01*
X135024461Y-61788791D01*
X135033900Y-61836244D01*
X135033900Y-64147756D01*
X135024461Y-64195209D01*
X134997581Y-64235437D01*
X133439635Y-65793381D01*
X133399407Y-65820261D01*
X133351954Y-65829700D01*
X132500130Y-65829700D01*
X132440515Y-65836109D01*
X132305669Y-65886404D01*
X132190454Y-65972654D01*
X132104204Y-66087868D01*
X132097989Y-66104530D01*
X132053909Y-66222717D01*
X132049217Y-66266362D01*
X132047500Y-66282330D01*
X132047500Y-67728069D01*
X132053909Y-67787683D01*
X132104204Y-67922531D01*
X132190454Y-68037746D01*
X132271418Y-68098356D01*
X132276504Y-68102163D01*
X132316250Y-68152777D01*
X132325274Y-68216496D01*
X132301148Y-68276156D01*
X132219712Y-68383995D01*
X132122651Y-68578921D01*
X132072494Y-68755199D01*
X132072495Y-68755200D01*
X134373505Y-68755200D01*
X134373505Y-68755199D01*
X134323348Y-68578921D01*
X134226287Y-68383994D01*
X134144852Y-68276157D01*
X134120725Y-68216496D01*
X134129749Y-68152777D01*
X134169493Y-68102164D01*
X134255546Y-68037746D01*
X134341796Y-67922531D01*
X134392091Y-67787683D01*
X134398500Y-67728073D01*
X134398499Y-66876242D01*
X134407938Y-66828790D01*
X134434815Y-66788565D01*
X136217522Y-65005858D01*
X136222960Y-65000740D01*
X136268195Y-64960666D01*
X136302547Y-64910896D01*
X136306942Y-64904924D01*
X136344236Y-64857325D01*
X136348435Y-64847992D01*
X136359457Y-64828449D01*
X136365271Y-64820027D01*
X136386710Y-64763493D01*
X136389556Y-64756622D01*
X136414370Y-64701491D01*
X136416214Y-64691425D01*
X136422236Y-64669823D01*
X136425870Y-64660243D01*
X136433157Y-64600216D01*
X136434279Y-64592842D01*
X136445174Y-64533401D01*
X136441526Y-64473092D01*
X136441300Y-64465605D01*
X136441300Y-61967644D01*
X136454815Y-61911349D01*
X136492415Y-61867326D01*
X136545902Y-61845171D01*
X136603618Y-61849713D01*
X136652981Y-61879963D01*
X138223381Y-63450363D01*
X138250261Y-63490591D01*
X138259700Y-63538044D01*
X138259700Y-66266362D01*
X138251464Y-66310799D01*
X138236966Y-66334456D01*
X138237383Y-66334697D01*
X138136220Y-66509915D01*
X138077726Y-66689942D01*
X138057940Y-66878200D01*
X138077726Y-67066457D01*
X138136220Y-67246484D01*
X138230866Y-67410416D01*
X138357529Y-67551089D01*
X138510669Y-67662351D01*
X138683597Y-67739344D01*
X138868752Y-67778700D01*
X138868754Y-67778700D01*
X139058046Y-67778700D01*
X139058048Y-67778700D01*
X139191969Y-67750234D01*
X139243203Y-67739344D01*
X139300283Y-67713930D01*
X139320033Y-67705137D01*
X139374206Y-67694472D01*
X139427638Y-67708381D01*
X139469736Y-67744105D01*
X139470203Y-67744729D01*
X139470204Y-67744731D01*
X139556454Y-67859946D01*
X139636177Y-67919627D01*
X139642504Y-67924363D01*
X139682250Y-67974977D01*
X139691274Y-68038696D01*
X139667148Y-68098356D01*
X139585712Y-68206195D01*
X139488651Y-68401121D01*
X139438494Y-68577399D01*
X139438495Y-68577400D01*
X141739505Y-68577400D01*
X141739505Y-68577399D01*
X141689348Y-68401121D01*
X141592287Y-68206194D01*
X141510852Y-68098357D01*
X141486725Y-68038696D01*
X141495749Y-67974977D01*
X141535493Y-67924364D01*
X141621546Y-67859946D01*
X141707796Y-67744731D01*
X141758091Y-67609883D01*
X141764500Y-67550273D01*
X141764499Y-66104528D01*
X141758091Y-66044917D01*
X141707796Y-65910069D01*
X141621546Y-65794854D01*
X141506331Y-65708604D01*
X141371483Y-65658309D01*
X141311873Y-65651900D01*
X141311869Y-65651900D01*
X139866131Y-65651900D01*
X139830100Y-65655773D01*
X139806517Y-65658309D01*
X139806515Y-65658309D01*
X139804354Y-65658542D01*
X139736918Y-65646788D01*
X139685994Y-65601045D01*
X139667100Y-65535252D01*
X139667100Y-63220199D01*
X139667326Y-63212713D01*
X139668920Y-63186357D01*
X139670974Y-63152399D01*
X139660079Y-63092955D01*
X139658954Y-63085556D01*
X139651670Y-63025557D01*
X139648038Y-63015981D01*
X139642014Y-62994375D01*
X139640170Y-62984309D01*
X139615365Y-62929195D01*
X139612507Y-62922298D01*
X139591071Y-62865773D01*
X139585263Y-62857358D01*
X139574236Y-62837807D01*
X139570036Y-62828475D01*
X139532752Y-62780886D01*
X139528323Y-62774867D01*
X139493995Y-62725134D01*
X139448759Y-62685058D01*
X139443306Y-62679924D01*
X133992266Y-57228884D01*
X133987132Y-57223430D01*
X133947067Y-57178206D01*
X133897347Y-57143887D01*
X133891313Y-57139447D01*
X133843726Y-57102164D01*
X133834395Y-57097965D01*
X133814844Y-57086939D01*
X133806426Y-57081128D01*
X133749908Y-57059693D01*
X133742991Y-57056828D01*
X133738929Y-57055000D01*
X138341664Y-57055000D01*
X138361764Y-57271925D01*
X138421381Y-57481457D01*
X138518488Y-57676474D01*
X138599947Y-57784343D01*
X138624074Y-57844003D01*
X138615050Y-57907721D01*
X138575304Y-57958335D01*
X138489655Y-58022451D01*
X138403404Y-58137668D01*
X138353109Y-58272516D01*
X138346700Y-58332130D01*
X138346700Y-59777869D01*
X138353109Y-59837483D01*
X138403404Y-59972331D01*
X138489654Y-60087546D01*
X138604869Y-60173796D01*
X138739717Y-60224091D01*
X138799327Y-60230500D01*
X140245072Y-60230499D01*
X140304683Y-60224091D01*
X140439531Y-60173796D01*
X140554746Y-60087546D01*
X140640996Y-59972331D01*
X140691291Y-59837483D01*
X140697700Y-59777873D01*
X140697699Y-58332128D01*
X140691291Y-58272517D01*
X140640996Y-58137669D01*
X140554746Y-58022454D01*
X140469094Y-57958335D01*
X140429349Y-57907722D01*
X140420325Y-57844003D01*
X140444451Y-57784343D01*
X140525912Y-57676472D01*
X140623017Y-57481459D01*
X140623018Y-57481457D01*
X140682635Y-57271925D01*
X140686623Y-57228884D01*
X140702736Y-57055000D01*
X140682635Y-56838077D01*
X140682635Y-56838074D01*
X140623018Y-56628542D01*
X140525912Y-56433528D01*
X140394626Y-56259676D01*
X140270627Y-56146637D01*
X140234899Y-56088934D01*
X140234899Y-56021066D01*
X140270627Y-55963363D01*
X140394626Y-55850323D01*
X140424480Y-55810790D01*
X140525912Y-55676472D01*
X140623017Y-55481459D01*
X140661051Y-55347784D01*
X140682635Y-55271925D01*
X140685777Y-55238008D01*
X140702736Y-55055000D01*
X140682635Y-54838077D01*
X140682635Y-54838074D01*
X140623018Y-54628542D01*
X140525912Y-54433528D01*
X140394626Y-54259676D01*
X140270255Y-54146298D01*
X140234527Y-54088595D01*
X140234527Y-54020726D01*
X140270256Y-53963023D01*
X140394255Y-53849984D01*
X140525487Y-53676205D01*
X140622548Y-53481278D01*
X140672705Y-53305000D01*
X138371695Y-53305000D01*
X138421851Y-53481278D01*
X138518912Y-53676205D01*
X138650142Y-53849981D01*
X138774144Y-53963023D01*
X138809872Y-54020726D01*
X138809872Y-54088595D01*
X138774144Y-54146298D01*
X138649773Y-54259676D01*
X138518487Y-54433528D01*
X138421381Y-54628542D01*
X138361764Y-54838074D01*
X138341664Y-55055000D01*
X138361764Y-55271925D01*
X138421381Y-55481457D01*
X138518487Y-55676471D01*
X138649773Y-55850323D01*
X138773772Y-55963362D01*
X138809500Y-56021064D01*
X138809501Y-56088933D01*
X138773773Y-56146636D01*
X138649771Y-56259679D01*
X138518487Y-56433528D01*
X138421381Y-56628542D01*
X138361764Y-56838074D01*
X138341664Y-57055000D01*
X133738929Y-57055000D01*
X133729284Y-57050659D01*
X133687891Y-57032030D01*
X133677833Y-57030187D01*
X133656214Y-57024160D01*
X133646643Y-57020530D01*
X133586624Y-57013241D01*
X133579222Y-57012115D01*
X133519800Y-57001225D01*
X133459486Y-57004874D01*
X133452000Y-57005100D01*
X112534644Y-57005100D01*
X112487191Y-56995661D01*
X112446963Y-56968781D01*
X111288972Y-55810790D01*
X111264732Y-55776491D01*
X111253332Y-55736068D01*
X111248674Y-55691742D01*
X111190179Y-55511715D01*
X111095533Y-55347783D01*
X110968870Y-55207110D01*
X110815730Y-55095848D01*
X110642802Y-55018855D01*
X110457648Y-54979500D01*
X110457646Y-54979500D01*
X110268354Y-54979500D01*
X110268352Y-54979500D01*
X110083197Y-55018855D01*
X109910269Y-55095848D01*
X109757129Y-55207110D01*
X109630466Y-55347783D01*
X109535820Y-55511715D01*
X109477326Y-55691742D01*
X109457540Y-55879999D01*
X109477326Y-56068257D01*
X109535820Y-56248284D01*
X109630466Y-56412216D01*
X109757129Y-56552889D01*
X109910269Y-56664151D01*
X110026168Y-56715752D01*
X110083197Y-56741144D01*
X110232386Y-56772854D01*
X110265766Y-56785169D01*
X110294280Y-56806462D01*
X111676524Y-58188706D01*
X111681658Y-58194160D01*
X111721732Y-58239395D01*
X111771460Y-58273718D01*
X111777488Y-58278153D01*
X111825075Y-58315436D01*
X111834403Y-58319634D01*
X111853954Y-58330660D01*
X111862373Y-58336471D01*
X111909888Y-58354491D01*
X111918877Y-58357900D01*
X111925798Y-58360767D01*
X111980910Y-58385571D01*
X111990961Y-58387412D01*
X112012582Y-58393438D01*
X112022157Y-58397070D01*
X112082171Y-58404356D01*
X112089539Y-58405477D01*
X112149000Y-58416374D01*
X112209314Y-58412725D01*
X112216800Y-58412500D01*
X119071413Y-58412500D01*
X119131150Y-58427838D01*
X119176110Y-58470057D01*
X119195168Y-58528714D01*
X119183612Y-58589297D01*
X119144298Y-58636818D01*
X119078929Y-58684310D01*
X118952266Y-58824983D01*
X118857620Y-58988915D01*
X118799126Y-59168942D01*
X118779340Y-59357200D01*
X118799126Y-59545457D01*
X118857620Y-59725484D01*
X118952266Y-59889416D01*
X119078929Y-60030089D01*
X119232069Y-60141351D01*
X119347968Y-60192952D01*
X119404997Y-60218344D01*
X119554186Y-60250054D01*
X119587566Y-60262369D01*
X119616080Y-60283662D01*
X119956424Y-60624006D01*
X119961558Y-60629459D01*
X120001634Y-60674695D01*
X120051384Y-60709034D01*
X120057382Y-60713448D01*
X120104976Y-60750736D01*
X120114313Y-60754938D01*
X120133852Y-60765958D01*
X120142273Y-60771771D01*
X120198269Y-60793007D01*
X120198775Y-60793199D01*
X120205696Y-60796065D01*
X120260810Y-60820871D01*
X120270872Y-60822714D01*
X120292485Y-60828739D01*
X120302057Y-60832370D01*
X120362071Y-60839656D01*
X120369439Y-60840777D01*
X120428900Y-60851674D01*
X120489214Y-60848025D01*
X120496700Y-60847800D01*
X132777255Y-60847800D01*
X132833550Y-60861315D01*
X132877573Y-60898915D01*
X132899728Y-60952402D01*
X132895186Y-61010118D01*
X132864936Y-61059481D01*
X129720490Y-64203926D01*
X129715038Y-64209058D01*
X129669807Y-64249130D01*
X129635482Y-64298858D01*
X129631045Y-64304887D01*
X129593763Y-64352474D01*
X129589562Y-64361810D01*
X129578540Y-64381354D01*
X129572727Y-64389775D01*
X129551298Y-64446277D01*
X129548434Y-64453192D01*
X129523629Y-64508309D01*
X129521785Y-64518372D01*
X129515762Y-64539977D01*
X129512130Y-64549554D01*
X129504841Y-64609577D01*
X129503714Y-64616978D01*
X129492825Y-64676397D01*
X129496474Y-64736714D01*
X129496700Y-64744200D01*
X129496700Y-72047156D01*
X129487261Y-72094609D01*
X129460381Y-72134837D01*
X126973437Y-74621781D01*
X126933209Y-74648661D01*
X126885756Y-74658100D01*
X107784845Y-74658100D01*
X107737392Y-74648661D01*
X107697164Y-74621781D01*
X107229294Y-74153912D01*
X107197200Y-74098325D01*
X107197200Y-74034137D01*
X107229292Y-73978552D01*
X112065627Y-69142219D01*
X112105856Y-69115339D01*
X112153309Y-69105900D01*
X112604048Y-69105900D01*
X112642366Y-69111969D01*
X112676932Y-69129581D01*
X112755070Y-69186351D01*
X112755071Y-69186351D01*
X112755072Y-69186352D01*
X112927997Y-69263344D01*
X113113152Y-69302700D01*
X113113154Y-69302700D01*
X113302446Y-69302700D01*
X113302448Y-69302700D01*
X113425884Y-69276462D01*
X113487603Y-69263344D01*
X113660530Y-69186351D01*
X113758270Y-69115339D01*
X113813670Y-69075089D01*
X113846232Y-69038926D01*
X113940333Y-68934416D01*
X114034979Y-68770484D01*
X114093474Y-68590456D01*
X114113260Y-68402200D01*
X114093474Y-68213944D01*
X114036532Y-68038696D01*
X114034979Y-68033915D01*
X113940333Y-67869983D01*
X113813670Y-67729310D01*
X113660530Y-67618048D01*
X113487602Y-67541055D01*
X113302448Y-67501700D01*
X113302446Y-67501700D01*
X113113154Y-67501700D01*
X113113152Y-67501700D01*
X112927997Y-67541055D01*
X112755072Y-67618047D01*
X112676934Y-67674818D01*
X112642366Y-67692431D01*
X112604048Y-67698500D01*
X111835464Y-67698500D01*
X111827978Y-67698274D01*
X111767660Y-67694625D01*
X111708239Y-67705514D01*
X111700840Y-67706641D01*
X111640817Y-67713930D01*
X111631247Y-67717560D01*
X111609632Y-67723586D01*
X111599573Y-67725429D01*
X111544455Y-67750234D01*
X111537541Y-67753098D01*
X111481039Y-67774527D01*
X111472618Y-67780340D01*
X111453074Y-67791362D01*
X111443738Y-67795563D01*
X111396141Y-67832852D01*
X111390113Y-67837288D01*
X111340394Y-67871607D01*
X111300330Y-67916829D01*
X111295198Y-67922281D01*
X106488112Y-72729368D01*
X106432525Y-72761462D01*
X106368337Y-72761462D01*
X106312750Y-72729368D01*
X102225662Y-68642280D01*
X102193568Y-68586693D01*
X102193568Y-68522505D01*
X102225659Y-68466922D01*
X103934122Y-66758458D01*
X103939560Y-66753340D01*
X103984795Y-66713266D01*
X104019147Y-66663496D01*
X104023542Y-66657524D01*
X104060836Y-66609925D01*
X104065035Y-66600592D01*
X104076057Y-66581049D01*
X104081871Y-66572627D01*
X104103310Y-66516093D01*
X104106156Y-66509222D01*
X104130970Y-66454091D01*
X104132814Y-66444025D01*
X104138836Y-66422423D01*
X104142470Y-66412843D01*
X104149757Y-66352816D01*
X104150879Y-66345442D01*
X104161774Y-66286001D01*
X104158125Y-66225686D01*
X104157900Y-66218201D01*
X104157900Y-54031660D01*
X116164391Y-54031660D01*
X116178196Y-54040335D01*
X116348359Y-54099877D01*
X116527500Y-54120062D01*
X116706640Y-54099877D01*
X116876803Y-54040335D01*
X116890607Y-54031661D01*
X116890607Y-54031660D01*
X117689391Y-54031660D01*
X117703196Y-54040335D01*
X117873359Y-54099877D01*
X118052500Y-54120062D01*
X118231640Y-54099877D01*
X118401803Y-54040335D01*
X118415607Y-54031661D01*
X118415607Y-54031660D01*
X118052501Y-53668553D01*
X118052500Y-53668553D01*
X117689391Y-54031660D01*
X116890607Y-54031660D01*
X116527501Y-53668553D01*
X116527500Y-53668553D01*
X116164391Y-54031660D01*
X104157900Y-54031660D01*
X104157900Y-53269160D01*
X115401891Y-53269160D01*
X115415696Y-53277835D01*
X115585855Y-53337376D01*
X115628480Y-53342178D01*
X115680569Y-53360404D01*
X115719592Y-53399425D01*
X115737819Y-53451514D01*
X115742622Y-53494140D01*
X115802165Y-53664304D01*
X115810838Y-53678108D01*
X116173947Y-53315001D01*
X116173947Y-53315000D01*
X116881053Y-53315000D01*
X117244160Y-53678107D01*
X117276121Y-53674507D01*
X117303887Y-53674508D01*
X117335838Y-53678108D01*
X117698947Y-53315001D01*
X117698947Y-53315000D01*
X118406053Y-53315000D01*
X118769160Y-53678107D01*
X118769161Y-53678107D01*
X118777835Y-53664303D01*
X118837376Y-53494144D01*
X118842178Y-53451518D01*
X118860405Y-53399428D01*
X118899428Y-53360405D01*
X118951518Y-53342178D01*
X118994144Y-53337376D01*
X119164303Y-53277835D01*
X119178107Y-53269161D01*
X119178107Y-53269160D01*
X118815000Y-52906053D01*
X118406053Y-53315000D01*
X117698947Y-53315000D01*
X117290000Y-52906053D01*
X116881053Y-53315000D01*
X116173947Y-53315000D01*
X115765001Y-52906053D01*
X115765000Y-52906053D01*
X115401891Y-53269160D01*
X104157900Y-53269160D01*
X104157900Y-52552500D01*
X114959937Y-52552500D01*
X114980122Y-52731640D01*
X115039665Y-52901804D01*
X115048338Y-52915608D01*
X115411447Y-52552501D01*
X115411447Y-52552500D01*
X116118553Y-52552500D01*
X116527500Y-52961447D01*
X116936447Y-52552500D01*
X117643553Y-52552500D01*
X118052500Y-52961447D01*
X118461446Y-52552501D01*
X119168553Y-52552501D01*
X119531660Y-52915607D01*
X119531661Y-52915607D01*
X119540335Y-52901803D01*
X119574208Y-52804999D01*
X138371694Y-52804999D01*
X138371695Y-52805000D01*
X139272200Y-52805000D01*
X139272200Y-51906380D01*
X139772200Y-51906380D01*
X139772200Y-52805000D01*
X140672705Y-52805000D01*
X140672705Y-52804999D01*
X140622548Y-52628721D01*
X140525487Y-52433794D01*
X140394255Y-52260014D01*
X140233331Y-52113314D01*
X140048187Y-51998677D01*
X139845130Y-51920013D01*
X139772200Y-51906380D01*
X139272200Y-51906380D01*
X139199269Y-51920013D01*
X138996212Y-51998677D01*
X138811068Y-52113314D01*
X138650144Y-52260014D01*
X138518912Y-52433794D01*
X138421851Y-52628721D01*
X138371694Y-52804999D01*
X119574208Y-52804999D01*
X119599877Y-52731640D01*
X119620062Y-52552500D01*
X119599877Y-52373359D01*
X119540335Y-52203196D01*
X119531660Y-52189391D01*
X119168553Y-52552500D01*
X119168553Y-52552501D01*
X118461446Y-52552501D01*
X118461447Y-52552500D01*
X118052500Y-52143553D01*
X117643553Y-52552500D01*
X116936447Y-52552500D01*
X116527500Y-52143553D01*
X116118553Y-52552500D01*
X115411447Y-52552500D01*
X115048338Y-52189390D01*
X115048338Y-52189391D01*
X115039664Y-52203196D01*
X114980122Y-52373359D01*
X114959937Y-52552500D01*
X104157900Y-52552500D01*
X104157900Y-52311244D01*
X104167339Y-52263791D01*
X104194219Y-52223563D01*
X104428131Y-51989651D01*
X104581943Y-51835838D01*
X115401890Y-51835838D01*
X115764999Y-52198947D01*
X116173947Y-51790000D01*
X116881053Y-51790000D01*
X117290000Y-52198947D01*
X117698947Y-51790000D01*
X118406053Y-51790000D01*
X118815000Y-52198947D01*
X118815001Y-52198947D01*
X119178108Y-51835838D01*
X119174508Y-51803884D01*
X119174507Y-51776119D01*
X119178107Y-51744160D01*
X118815000Y-51381053D01*
X118406053Y-51790000D01*
X117698947Y-51790000D01*
X117290000Y-51381053D01*
X116881053Y-51790000D01*
X116173947Y-51790000D01*
X115765001Y-51381053D01*
X115765000Y-51381053D01*
X115401890Y-51744161D01*
X115405491Y-51776123D01*
X115405491Y-51803892D01*
X115401890Y-51835838D01*
X104581943Y-51835838D01*
X104665922Y-51751859D01*
X104694433Y-51730569D01*
X104727811Y-51718255D01*
X104877003Y-51686544D01*
X105049930Y-51609551D01*
X105126270Y-51554087D01*
X105203070Y-51498289D01*
X105329733Y-51357616D01*
X105424379Y-51193684D01*
X105478375Y-51027501D01*
X105478375Y-51027500D01*
X114959937Y-51027500D01*
X114980122Y-51206640D01*
X115039665Y-51376804D01*
X115048338Y-51390608D01*
X115411447Y-51027501D01*
X115411447Y-51027500D01*
X116118553Y-51027500D01*
X116527500Y-51436447D01*
X116936447Y-51027500D01*
X117643553Y-51027500D01*
X118052500Y-51436447D01*
X118461446Y-51027501D01*
X119168553Y-51027501D01*
X119531660Y-51390607D01*
X119531661Y-51390607D01*
X119540335Y-51376803D01*
X119599877Y-51206640D01*
X119620062Y-51027500D01*
X119599877Y-50848359D01*
X119540335Y-50678196D01*
X119531660Y-50664391D01*
X119168553Y-51027500D01*
X119168553Y-51027501D01*
X118461446Y-51027501D01*
X118461447Y-51027500D01*
X118052500Y-50618553D01*
X117643553Y-51027500D01*
X116936447Y-51027500D01*
X116527500Y-50618553D01*
X116118553Y-51027500D01*
X115411447Y-51027500D01*
X115048338Y-50664390D01*
X115048338Y-50664391D01*
X115039664Y-50678196D01*
X114980122Y-50848359D01*
X114959937Y-51027500D01*
X105478375Y-51027500D01*
X105482874Y-51013656D01*
X105502660Y-50825400D01*
X105482874Y-50637144D01*
X105424379Y-50457116D01*
X105424379Y-50457115D01*
X105339926Y-50310838D01*
X115401890Y-50310838D01*
X115764999Y-50673947D01*
X116173946Y-50265001D01*
X116881053Y-50265001D01*
X117289999Y-50673947D01*
X117698946Y-50265001D01*
X118406053Y-50265001D01*
X118815000Y-50673947D01*
X118815001Y-50673947D01*
X119178108Y-50310838D01*
X119164304Y-50302165D01*
X118994140Y-50242622D01*
X118951514Y-50237819D01*
X118899425Y-50219592D01*
X118860404Y-50180569D01*
X118842178Y-50128480D01*
X118837376Y-50085855D01*
X118777835Y-49915696D01*
X118769160Y-49901891D01*
X118406053Y-50265000D01*
X118406053Y-50265001D01*
X117698946Y-50265001D01*
X117698947Y-50265000D01*
X117335838Y-49901890D01*
X117303892Y-49905491D01*
X117276123Y-49905491D01*
X117244161Y-49901890D01*
X116881053Y-50265000D01*
X116881053Y-50265001D01*
X116173946Y-50265001D01*
X116173947Y-50265000D01*
X115810838Y-49901890D01*
X115810838Y-49901891D01*
X115802164Y-49915696D01*
X115742622Y-50085859D01*
X115737819Y-50128485D01*
X115719592Y-50180572D01*
X115680572Y-50219592D01*
X115628485Y-50237819D01*
X115585859Y-50242622D01*
X115415696Y-50302164D01*
X115401891Y-50310838D01*
X115401890Y-50310838D01*
X105339926Y-50310838D01*
X105329733Y-50293183D01*
X105203070Y-50152510D01*
X105049930Y-50041248D01*
X104877002Y-49964255D01*
X104691848Y-49924900D01*
X104691846Y-49924900D01*
X104502554Y-49924900D01*
X104502552Y-49924900D01*
X104317397Y-49964255D01*
X104144469Y-50041248D01*
X103991329Y-50152510D01*
X103864666Y-50293183D01*
X103770020Y-50457115D01*
X103711525Y-50637146D01*
X103706866Y-50681471D01*
X103695466Y-50721891D01*
X103671227Y-50756188D01*
X102974290Y-51453126D01*
X102968838Y-51458258D01*
X102923607Y-51498330D01*
X102889282Y-51548058D01*
X102884845Y-51554087D01*
X102847563Y-51601674D01*
X102843362Y-51611010D01*
X102832340Y-51630554D01*
X102826527Y-51638975D01*
X102805098Y-51695477D01*
X102802234Y-51702392D01*
X102777429Y-51757509D01*
X102775585Y-51767572D01*
X102769562Y-51789177D01*
X102765930Y-51798754D01*
X102758641Y-51858777D01*
X102757514Y-51866178D01*
X102746625Y-51925597D01*
X102750274Y-51985914D01*
X102750500Y-51993400D01*
X102750500Y-65900356D01*
X102741061Y-65947809D01*
X102714181Y-65988037D01*
X101074080Y-67628136D01*
X101045567Y-67649428D01*
X101012181Y-67661745D01*
X100862997Y-67693456D01*
X100690067Y-67770449D01*
X100536929Y-67881710D01*
X100410266Y-68022383D01*
X100315620Y-68186315D01*
X100257126Y-68366342D01*
X100237340Y-68554599D01*
X90504781Y-68554599D01*
X94057362Y-65002019D01*
X94097591Y-64975139D01*
X94145044Y-64965700D01*
X95103192Y-64965700D01*
X95163781Y-64981511D01*
X95208919Y-65024910D01*
X95268873Y-65122746D01*
X95289332Y-65156132D01*
X95444357Y-65337643D01*
X95625868Y-65492668D01*
X95829395Y-65617389D01*
X95900370Y-65646788D01*
X96049926Y-65708737D01*
X96063618Y-65712024D01*
X96282034Y-65764461D01*
X96520000Y-65783189D01*
X96757966Y-65764461D01*
X96990073Y-65708737D01*
X97210605Y-65617389D01*
X97414132Y-65492668D01*
X97595643Y-65337643D01*
X97695711Y-65220477D01*
X97738086Y-65188401D01*
X97790000Y-65177011D01*
X97841914Y-65188401D01*
X97884288Y-65220477D01*
X97984357Y-65337643D01*
X98165868Y-65492668D01*
X98369395Y-65617389D01*
X98440370Y-65646788D01*
X98589926Y-65708737D01*
X98603618Y-65712024D01*
X98822034Y-65764461D01*
X99060000Y-65783189D01*
X99297966Y-65764461D01*
X99530073Y-65708737D01*
X99750605Y-65617389D01*
X99954132Y-65492668D01*
X100135643Y-65337643D01*
X100290668Y-65156132D01*
X100415389Y-64952605D01*
X100506737Y-64732073D01*
X100562461Y-64499966D01*
X100581189Y-64262000D01*
X100562461Y-64024034D01*
X100506737Y-63791927D01*
X100502662Y-63782090D01*
X100415390Y-63571398D01*
X100415389Y-63571395D01*
X100290668Y-63367868D01*
X100135643Y-63186357D01*
X100017620Y-63085556D01*
X99954135Y-63031334D01*
X99929091Y-63015987D01*
X99750605Y-62906611D01*
X99750602Y-62906610D01*
X99750601Y-62906609D01*
X99530073Y-62815262D01*
X99297967Y-62759539D01*
X99060000Y-62740811D01*
X98822032Y-62759539D01*
X98589926Y-62815262D01*
X98369398Y-62906609D01*
X98165864Y-63031334D01*
X97984357Y-63186357D01*
X97884290Y-63303520D01*
X97841914Y-63335598D01*
X97790000Y-63346988D01*
X97738086Y-63335598D01*
X97695710Y-63303520D01*
X97668683Y-63271876D01*
X97595643Y-63186357D01*
X97477620Y-63085556D01*
X97414135Y-63031334D01*
X97389091Y-63015987D01*
X97210605Y-62906611D01*
X97210602Y-62906610D01*
X97210601Y-62906609D01*
X96990073Y-62815262D01*
X96757967Y-62759539D01*
X96520000Y-62740811D01*
X96282032Y-62759539D01*
X96049926Y-62815262D01*
X95829398Y-62906609D01*
X95625864Y-63031334D01*
X95444357Y-63186357D01*
X95289331Y-63367869D01*
X95208919Y-63499090D01*
X95163781Y-63542489D01*
X95103192Y-63558300D01*
X93827200Y-63558300D01*
X93819714Y-63558074D01*
X93759399Y-63554425D01*
X93699971Y-63565316D01*
X93692568Y-63566443D01*
X93632555Y-63573730D01*
X93622981Y-63577361D01*
X93601371Y-63583385D01*
X93591308Y-63585229D01*
X93536197Y-63610032D01*
X93529280Y-63612898D01*
X93472770Y-63634329D01*
X93464349Y-63640142D01*
X93444813Y-63651161D01*
X93435475Y-63655363D01*
X93387907Y-63692631D01*
X93381878Y-63697067D01*
X93332131Y-63731406D01*
X93292058Y-63776638D01*
X93286926Y-63782090D01*
X88506435Y-68562581D01*
X88466207Y-68589461D01*
X88418754Y-68598900D01*
X86988530Y-68598900D01*
X86928915Y-68605309D01*
X86794069Y-68655604D01*
X86678854Y-68741854D01*
X86592604Y-68857068D01*
X86568056Y-68922884D01*
X86542309Y-68991917D01*
X86537255Y-69038929D01*
X86535900Y-69051530D01*
X86535900Y-73747269D01*
X86538289Y-73769487D01*
X86542309Y-73806883D01*
X86592604Y-73941731D01*
X86678854Y-74056946D01*
X86794069Y-74143196D01*
X86928917Y-74193491D01*
X86988527Y-74199900D01*
X87208700Y-74199900D01*
X87270700Y-74216513D01*
X87316087Y-74261900D01*
X87332700Y-74323900D01*
X87332700Y-74894160D01*
X87315223Y-74957634D01*
X87267718Y-75003215D01*
X87203576Y-75018054D01*
X87140879Y-74997969D01*
X86953007Y-74875226D01*
X86807156Y-74811250D01*
X86725281Y-74775337D01*
X86484221Y-74714292D01*
X86484219Y-74714291D01*
X86484216Y-74714291D01*
X86298473Y-74698900D01*
X86298467Y-74698900D01*
X83974333Y-74698900D01*
X83974327Y-74698900D01*
X83788583Y-74714291D01*
X83788579Y-74714291D01*
X83788579Y-74714292D01*
X83547519Y-74775337D01*
X83547516Y-74775338D01*
X83547517Y-74775338D01*
X83319795Y-74875225D01*
X83198265Y-74954625D01*
X83111615Y-75011236D01*
X82943182Y-75166290D01*
X82928659Y-75179659D01*
X82775926Y-75375890D01*
X82694801Y-75525794D01*
X82648741Y-75573583D01*
X82584632Y-75590771D01*
X82520843Y-75572433D01*
X82475649Y-75523824D01*
X82433541Y-75442558D01*
X82268786Y-75209153D01*
X82073778Y-75000352D01*
X82051954Y-74982597D01*
X81852156Y-74820049D01*
X81608047Y-74671603D01*
X81345998Y-74557779D01*
X81144109Y-74501212D01*
X81070888Y-74480697D01*
X80787851Y-74441795D01*
X80502149Y-74441795D01*
X80219111Y-74480697D01*
X80017220Y-74537264D01*
X79944002Y-74557779D01*
X79944000Y-74557779D01*
X79943999Y-74557780D01*
X79681952Y-74671603D01*
X79437845Y-74820048D01*
X79216221Y-75000352D01*
X79054949Y-75173032D01*
X79005614Y-75205319D01*
X78946943Y-75211171D01*
X78892203Y-75189262D01*
X78853769Y-75144548D01*
X78840332Y-75087138D01*
X78840837Y-75037308D01*
X78865938Y-72561473D01*
X80235900Y-72561473D01*
X80251291Y-72747216D01*
X80251291Y-72747219D01*
X80251292Y-72747221D01*
X80312337Y-72988281D01*
X80336920Y-73044325D01*
X80412225Y-73216004D01*
X80412227Y-73216007D01*
X80548236Y-73424185D01*
X80716656Y-73607138D01*
X80782067Y-73658050D01*
X80912885Y-73759870D01*
X80912887Y-73759871D01*
X80912891Y-73759874D01*
X81131590Y-73878228D01*
X81366786Y-73958971D01*
X81612065Y-73999900D01*
X81860735Y-73999900D01*
X82106014Y-73958971D01*
X82341210Y-73878228D01*
X82559909Y-73759874D01*
X82756144Y-73607138D01*
X82924564Y-73424185D01*
X83060573Y-73216007D01*
X83160463Y-72988281D01*
X83221508Y-72747221D01*
X83232839Y-72610474D01*
X83236900Y-72561473D01*
X83236900Y-70237327D01*
X83225230Y-70096498D01*
X83221508Y-70051579D01*
X83160463Y-69810519D01*
X83060573Y-69582793D01*
X82924564Y-69374615D01*
X82756144Y-69191662D01*
X82676384Y-69129582D01*
X82559914Y-69038929D01*
X82559910Y-69038926D01*
X82559909Y-69038926D01*
X82341210Y-68920572D01*
X82341206Y-68920570D01*
X82341205Y-68920570D01*
X82106015Y-68839829D01*
X81860735Y-68798900D01*
X81612065Y-68798900D01*
X81366784Y-68839829D01*
X81131594Y-68920570D01*
X80912885Y-69038929D01*
X80716659Y-69191659D01*
X80716656Y-69191661D01*
X80716656Y-69191662D01*
X80548236Y-69374615D01*
X80521365Y-69415744D01*
X80412225Y-69582795D01*
X80312338Y-69810517D01*
X80251291Y-70051583D01*
X80235900Y-70237327D01*
X80235900Y-72561473D01*
X78865938Y-72561473D01*
X78950081Y-64262000D01*
X84330811Y-64262000D01*
X84349539Y-64499967D01*
X84405262Y-64732073D01*
X84496609Y-64952601D01*
X84496611Y-64952605D01*
X84563675Y-65062044D01*
X84621334Y-65156135D01*
X84682873Y-65228188D01*
X84776357Y-65337643D01*
X84957868Y-65492668D01*
X85161395Y-65617389D01*
X85232370Y-65646788D01*
X85381926Y-65708737D01*
X85395618Y-65712024D01*
X85614034Y-65764461D01*
X85852000Y-65783189D01*
X86089966Y-65764461D01*
X86322073Y-65708737D01*
X86542605Y-65617389D01*
X86746132Y-65492668D01*
X86927643Y-65337643D01*
X87027711Y-65220477D01*
X87070086Y-65188401D01*
X87122000Y-65177011D01*
X87173914Y-65188401D01*
X87216288Y-65220477D01*
X87316357Y-65337643D01*
X87497868Y-65492668D01*
X87701395Y-65617389D01*
X87772370Y-65646788D01*
X87921926Y-65708737D01*
X87935618Y-65712024D01*
X88154034Y-65764461D01*
X88392000Y-65783189D01*
X88629966Y-65764461D01*
X88862073Y-65708737D01*
X89082605Y-65617389D01*
X89286132Y-65492668D01*
X89467643Y-65337643D01*
X89622668Y-65156132D01*
X89747389Y-64952605D01*
X89838737Y-64732073D01*
X89894461Y-64499966D01*
X89913189Y-64262000D01*
X89894461Y-64024034D01*
X89838737Y-63791927D01*
X89834662Y-63782090D01*
X89747390Y-63571398D01*
X89747389Y-63571395D01*
X89622668Y-63367868D01*
X89467643Y-63186357D01*
X89349620Y-63085556D01*
X89286135Y-63031334D01*
X89261091Y-63015987D01*
X89082605Y-62906611D01*
X89082602Y-62906610D01*
X89082601Y-62906609D01*
X88862073Y-62815262D01*
X88629967Y-62759539D01*
X88392000Y-62740811D01*
X88154032Y-62759539D01*
X87921926Y-62815262D01*
X87701398Y-62906609D01*
X87497864Y-63031334D01*
X87316357Y-63186357D01*
X87216290Y-63303520D01*
X87173914Y-63335598D01*
X87122000Y-63346988D01*
X87070086Y-63335598D01*
X87027710Y-63303520D01*
X87000683Y-63271876D01*
X86927643Y-63186357D01*
X86809620Y-63085556D01*
X86746135Y-63031334D01*
X86721091Y-63015987D01*
X86542605Y-62906611D01*
X86542602Y-62906610D01*
X86542601Y-62906609D01*
X86322073Y-62815262D01*
X86089967Y-62759539D01*
X85852000Y-62740811D01*
X85614032Y-62759539D01*
X85381926Y-62815262D01*
X85161398Y-62906609D01*
X84957864Y-63031334D01*
X84776357Y-63186357D01*
X84621334Y-63367864D01*
X84496609Y-63571398D01*
X84405262Y-63791926D01*
X84349539Y-64024032D01*
X84330811Y-64262000D01*
X78950081Y-64262000D01*
X79099253Y-49548338D01*
X116164390Y-49548338D01*
X116527500Y-49911447D01*
X116527501Y-49911447D01*
X116890608Y-49548338D01*
X117689390Y-49548338D01*
X118052500Y-49911447D01*
X118052501Y-49911447D01*
X118415608Y-49548338D01*
X118401804Y-49539665D01*
X118231640Y-49480122D01*
X118052499Y-49459937D01*
X117873359Y-49480122D01*
X117703196Y-49539664D01*
X117689391Y-49548338D01*
X117689390Y-49548338D01*
X116890608Y-49548338D01*
X116876804Y-49539665D01*
X116706640Y-49480122D01*
X116527499Y-49459937D01*
X116348359Y-49480122D01*
X116178196Y-49539664D01*
X116164391Y-49548338D01*
X116164390Y-49548338D01*
X79099253Y-49548338D01*
X79125527Y-46956769D01*
X84968782Y-46956769D01*
X85161620Y-47074941D01*
X85382081Y-47166260D01*
X85614110Y-47221965D01*
X85852000Y-47240687D01*
X86089889Y-47221965D01*
X86321918Y-47166260D01*
X86542379Y-47074942D01*
X86735215Y-46956770D01*
X86735216Y-46956769D01*
X87508782Y-46956769D01*
X87701620Y-47074941D01*
X87922081Y-47166260D01*
X88154110Y-47221965D01*
X88392000Y-47240687D01*
X88629889Y-47221965D01*
X88861918Y-47166260D01*
X89082379Y-47074942D01*
X89275215Y-46956770D01*
X89275216Y-46956769D01*
X88392001Y-46073553D01*
X88392000Y-46073553D01*
X87508782Y-46956769D01*
X86735216Y-46956769D01*
X85852001Y-46073553D01*
X85852000Y-46073553D01*
X84968782Y-46956769D01*
X79125527Y-46956769D01*
X79138066Y-45720000D01*
X84331312Y-45720000D01*
X84350034Y-45957889D01*
X84405739Y-46189918D01*
X84497058Y-46410379D01*
X84615229Y-46603216D01*
X85498446Y-45720001D01*
X86205553Y-45720001D01*
X87088769Y-46603215D01*
X87107426Y-46601007D01*
X87136576Y-46601008D01*
X87155229Y-46603216D01*
X88038446Y-45720001D01*
X88745553Y-45720001D01*
X89628769Y-46603216D01*
X89628770Y-46603215D01*
X89746942Y-46410379D01*
X89838260Y-46189918D01*
X89893965Y-45957889D01*
X89912687Y-45720000D01*
X94998811Y-45720000D01*
X95017539Y-45957967D01*
X95073262Y-46190073D01*
X95164609Y-46410601D01*
X95289334Y-46614135D01*
X95350873Y-46686188D01*
X95444357Y-46795643D01*
X95625868Y-46950668D01*
X95829395Y-47075389D01*
X95910862Y-47109134D01*
X96049926Y-47166737D01*
X96123254Y-47184341D01*
X96282034Y-47222461D01*
X96520000Y-47241189D01*
X96757966Y-47222461D01*
X96990073Y-47166737D01*
X97210605Y-47075389D01*
X97414132Y-46950668D01*
X97595643Y-46795643D01*
X97695711Y-46678477D01*
X97738086Y-46646401D01*
X97790000Y-46635011D01*
X97841914Y-46646401D01*
X97884288Y-46678477D01*
X97984357Y-46795643D01*
X98165868Y-46950668D01*
X98369395Y-47075389D01*
X98450862Y-47109134D01*
X98589926Y-47166737D01*
X98663254Y-47184341D01*
X98822034Y-47222461D01*
X99060000Y-47241189D01*
X99297966Y-47222461D01*
X99530073Y-47166737D01*
X99750605Y-47075389D01*
X99954132Y-46950668D01*
X100135643Y-46795643D01*
X100290668Y-46614132D01*
X100415389Y-46410605D01*
X100506737Y-46190073D01*
X100562461Y-45957966D01*
X100581189Y-45720000D01*
X100562461Y-45482034D01*
X100506737Y-45249927D01*
X100415389Y-45029395D01*
X100290668Y-44825868D01*
X100135643Y-44644357D01*
X100026188Y-44550873D01*
X99954135Y-44489334D01*
X99954132Y-44489332D01*
X99750605Y-44364611D01*
X99750602Y-44364610D01*
X99750601Y-44364609D01*
X99530073Y-44273262D01*
X99297967Y-44217539D01*
X99060000Y-44198811D01*
X98822032Y-44217539D01*
X98589926Y-44273262D01*
X98369398Y-44364609D01*
X98165864Y-44489334D01*
X97984357Y-44644357D01*
X97884290Y-44761520D01*
X97841914Y-44793598D01*
X97790000Y-44804988D01*
X97738086Y-44793598D01*
X97695710Y-44761520D01*
X97668683Y-44729876D01*
X97595643Y-44644357D01*
X97486188Y-44550873D01*
X97414135Y-44489334D01*
X97414132Y-44489332D01*
X97210605Y-44364611D01*
X97210602Y-44364610D01*
X97210601Y-44364609D01*
X96990073Y-44273262D01*
X96757967Y-44217539D01*
X96520000Y-44198811D01*
X96282032Y-44217539D01*
X96049926Y-44273262D01*
X95829398Y-44364609D01*
X95625864Y-44489334D01*
X95444357Y-44644357D01*
X95289334Y-44825864D01*
X95164609Y-45029398D01*
X95073262Y-45249926D01*
X95017539Y-45482032D01*
X94998811Y-45720000D01*
X89912687Y-45720000D01*
X89893965Y-45482110D01*
X89838260Y-45250081D01*
X89746941Y-45029620D01*
X89628769Y-44836782D01*
X88745553Y-45720000D01*
X88745553Y-45720001D01*
X88038446Y-45720001D01*
X88038446Y-45720000D01*
X87155229Y-44836782D01*
X87136574Y-44838991D01*
X87107427Y-44838991D01*
X87088769Y-44836783D01*
X86205553Y-45720000D01*
X86205553Y-45720001D01*
X85498446Y-45720001D01*
X85498446Y-45720000D01*
X84615229Y-44836782D01*
X84497055Y-45029622D01*
X84405740Y-45250078D01*
X84350034Y-45482110D01*
X84331312Y-45720000D01*
X79138066Y-45720000D01*
X79150605Y-44483229D01*
X84968782Y-44483229D01*
X85852000Y-45366446D01*
X85852001Y-45366446D01*
X86735216Y-44483229D01*
X87508782Y-44483229D01*
X88392000Y-45366446D01*
X88392001Y-45366446D01*
X89275216Y-44483229D01*
X89082379Y-44365058D01*
X88861918Y-44273739D01*
X88629889Y-44218034D01*
X88392000Y-44199312D01*
X88154110Y-44218034D01*
X87922078Y-44273740D01*
X87701622Y-44365055D01*
X87508782Y-44483229D01*
X86735216Y-44483229D01*
X86542379Y-44365058D01*
X86321918Y-44273739D01*
X86089889Y-44218034D01*
X85852000Y-44199312D01*
X85614110Y-44218034D01*
X85382078Y-44273740D01*
X85161622Y-44365055D01*
X84968782Y-44483229D01*
X79150605Y-44483229D01*
X79171800Y-42392600D01*
X79153554Y-40568054D01*
X79166996Y-40510656D01*
X79205432Y-40465948D01*
X79260171Y-40444044D01*
X79318838Y-40449898D01*
X79368170Y-40482184D01*
X79521022Y-40645848D01*
X79742644Y-40826151D01*
X79986753Y-40974597D01*
X80248802Y-41088421D01*
X80523909Y-41165502D01*
X80806949Y-41204405D01*
X81092651Y-41204405D01*
X81375691Y-41165502D01*
X81650798Y-41088421D01*
X81912847Y-40974597D01*
X82156956Y-40826151D01*
X82378578Y-40645848D01*
X82573585Y-40437047D01*
X82576205Y-40433336D01*
X82738341Y-40203640D01*
X82739926Y-40200582D01*
X82869785Y-39949967D01*
X82907617Y-39843515D01*
X82965461Y-39680761D01*
X83023587Y-39401040D01*
X83023588Y-39401036D01*
X83043085Y-39116000D01*
X83023588Y-38830964D01*
X82976251Y-38603165D01*
X82965461Y-38551238D01*
X82869786Y-38282036D01*
X82869785Y-38282033D01*
X82738343Y-38028363D01*
X82738341Y-38028359D01*
X82573586Y-37794953D01*
X82378578Y-37586152D01*
X82237378Y-37471277D01*
X82201420Y-37423373D01*
X82192112Y-37364202D01*
X82211626Y-37307572D01*
X82255409Y-37266696D01*
X82313238Y-37251113D01*
X93815873Y-37029563D01*
X93878138Y-37044955D01*
G37*
%TD.AperFunction*%
%TD*%
M02*
