%TF.GenerationSoftware,KiCad,Pcbnew,7.0.1*%
%TF.CreationDate,2023-03-21T16:38:31+01:00*%
%TF.ProjectId,Motordinges,4d6f746f-7264-4696-9e67-65732e6b6963,rev?*%
%TF.SameCoordinates,Original*%
%TF.FileFunction,Copper,L1,Top*%
%TF.FilePolarity,Positive*%
%FSLAX46Y46*%
G04 Gerber Fmt 4.6, Leading zero omitted, Abs format (unit mm)*
G04 Created by KiCad (PCBNEW 7.0.1) date 2023-03-21 16:38:31*
%MOMM*%
%LPD*%
G01*
G04 APERTURE LIST*
G04 Aperture macros list*
%AMRoundRect*
0 Rectangle with rounded corners*
0 $1 Rounding radius*
0 $2 $3 $4 $5 $6 $7 $8 $9 X,Y pos of 4 corners*
0 Add a 4 corners polygon primitive as box body*
4,1,4,$2,$3,$4,$5,$6,$7,$8,$9,$2,$3,0*
0 Add four circle primitives for the rounded corners*
1,1,$1+$1,$2,$3*
1,1,$1+$1,$4,$5*
1,1,$1+$1,$6,$7*
1,1,$1+$1,$8,$9*
0 Add four rect primitives between the rounded corners*
20,1,$1+$1,$2,$3,$4,$5,0*
20,1,$1+$1,$4,$5,$6,$7,0*
20,1,$1+$1,$6,$7,$8,$9,0*
20,1,$1+$1,$8,$9,$2,$3,0*%
G04 Aperture macros list end*
%TA.AperFunction,SMDPad,CuDef*%
%ADD10R,1.500000X0.900000*%
%TD*%
%TA.AperFunction,SMDPad,CuDef*%
%ADD11R,0.900000X1.500000*%
%TD*%
%TA.AperFunction,SMDPad,CuDef*%
%ADD12R,1.050000X1.050000*%
%TD*%
%TA.AperFunction,HeatsinkPad*%
%ADD13C,0.600000*%
%TD*%
%TA.AperFunction,SMDPad,CuDef*%
%ADD14R,4.200000X4.200000*%
%TD*%
%TA.AperFunction,ComponentPad*%
%ADD15R,1.350000X1.350000*%
%TD*%
%TA.AperFunction,ComponentPad*%
%ADD16O,1.350000X1.350000*%
%TD*%
%TA.AperFunction,SMDPad,CuDef*%
%ADD17RoundRect,0.250000X0.337500X0.475000X-0.337500X0.475000X-0.337500X-0.475000X0.337500X-0.475000X0*%
%TD*%
%TA.AperFunction,SMDPad,CuDef*%
%ADD18R,1.500000X2.000000*%
%TD*%
%TA.AperFunction,SMDPad,CuDef*%
%ADD19R,3.800000X2.000000*%
%TD*%
%TA.AperFunction,SMDPad,CuDef*%
%ADD20RoundRect,0.250000X0.475000X-0.337500X0.475000X0.337500X-0.475000X0.337500X-0.475000X-0.337500X0*%
%TD*%
%TA.AperFunction,SMDPad,CuDef*%
%ADD21R,0.760000X1.600000*%
%TD*%
%TA.AperFunction,SMDPad,CuDef*%
%ADD22RoundRect,0.250000X-0.475000X0.337500X-0.475000X-0.337500X0.475000X-0.337500X0.475000X0.337500X0*%
%TD*%
%TA.AperFunction,SMDPad,CuDef*%
%ADD23RoundRect,0.250000X0.450000X-0.325000X0.450000X0.325000X-0.450000X0.325000X-0.450000X-0.325000X0*%
%TD*%
%TA.AperFunction,SMDPad,CuDef*%
%ADD24RoundRect,0.250000X-0.350000X-0.450000X0.350000X-0.450000X0.350000X0.450000X-0.350000X0.450000X0*%
%TD*%
%TA.AperFunction,ComponentPad*%
%ADD25R,2.000000X4.600000*%
%TD*%
%TA.AperFunction,ComponentPad*%
%ADD26O,2.000000X4.200000*%
%TD*%
%TA.AperFunction,ComponentPad*%
%ADD27O,4.200000X2.000000*%
%TD*%
%TA.AperFunction,SMDPad,CuDef*%
%ADD28RoundRect,0.250000X0.450000X-0.350000X0.450000X0.350000X-0.450000X0.350000X-0.450000X-0.350000X0*%
%TD*%
%TA.AperFunction,SMDPad,CuDef*%
%ADD29RoundRect,0.250000X0.350000X0.450000X-0.350000X0.450000X-0.350000X-0.450000X0.350000X-0.450000X0*%
%TD*%
%TA.AperFunction,ComponentPad*%
%ADD30C,2.032000*%
%TD*%
%TA.AperFunction,ViaPad*%
%ADD31C,0.800000*%
%TD*%
%TA.AperFunction,Conductor*%
%ADD32C,0.406400*%
%TD*%
G04 APERTURE END LIST*
D10*
%TO.P,U1,1,GND*%
%TO.N,GND*%
X109220000Y-44450000D03*
%TO.P,U1,2,VDD*%
%TO.N,+3.3V*%
X109220000Y-45720000D03*
%TO.P,U1,3,EN*%
%TO.N,/EN*%
X109220000Y-46990000D03*
%TO.P,U1,4,SENSOR_VP*%
%TO.N,VP*%
X109220000Y-48260000D03*
%TO.P,U1,5,SENSOR_VN*%
%TO.N,VN*%
X109220000Y-49530000D03*
%TO.P,U1,6,IO34*%
%TO.N,A6*%
X109220000Y-50800000D03*
%TO.P,U1,7,IO35*%
%TO.N,A7*%
X109220000Y-52070000D03*
%TO.P,U1,8,IO32*%
%TO.N,A4*%
X109220000Y-53340000D03*
%TO.P,U1,9,IO33*%
%TO.N,A5*%
X109220000Y-54610000D03*
%TO.P,U1,10,IO25*%
%TO.N,A8*%
X109220000Y-55880000D03*
%TO.P,U1,11,IO26*%
%TO.N,A9*%
X109220000Y-57150000D03*
%TO.P,U1,12,IO27*%
%TO.N,GPIO27*%
X109220000Y-58420000D03*
%TO.P,U1,13,IO14*%
%TO.N,GPIO14*%
X109220000Y-59690000D03*
%TO.P,U1,14,IO12*%
%TO.N,GPIO12*%
X109220000Y-60960000D03*
D11*
%TO.P,U1,15,GND*%
%TO.N,GND*%
X112260000Y-62210000D03*
%TO.P,U1,16,IO13*%
%TO.N,GPIO13*%
X113530000Y-62210000D03*
%TO.P,U1,17,SHD/SD2*%
%TO.N,unconnected-(U1-SHD{slash}SD2-Pad17)*%
X114800000Y-62210000D03*
%TO.P,U1,18,SWP/SD3*%
%TO.N,unconnected-(U1-SWP{slash}SD3-Pad18)*%
X116070000Y-62210000D03*
%TO.P,U1,19,SCS/CMD*%
%TO.N,unconnected-(U1-SCS{slash}CMD-Pad19)*%
X117340000Y-62210000D03*
%TO.P,U1,20,SCK/CLK*%
%TO.N,unconnected-(U1-SCK{slash}CLK-Pad20)*%
X118610000Y-62210000D03*
%TO.P,U1,21,SDO/SD0*%
%TO.N,unconnected-(U1-SDO{slash}SD0-Pad21)*%
X119880000Y-62210000D03*
%TO.P,U1,22,SDI/SD1*%
%TO.N,unconnected-(U1-SDI{slash}SD1-Pad22)*%
X121150000Y-62210000D03*
%TO.P,U1,23,IO15*%
%TO.N,GPIO15*%
X122420000Y-62210000D03*
%TO.P,U1,24,IO2*%
%TO.N,GPIO2*%
X123690000Y-62210000D03*
D10*
%TO.P,U1,25,IO0*%
%TO.N,GPIO0*%
X126720000Y-60960000D03*
%TO.P,U1,26,IO4*%
%TO.N,GPIO4*%
X126720000Y-59690000D03*
%TO.P,U1,27,IO16*%
%TO.N,RX2*%
X126720000Y-58420000D03*
%TO.P,U1,28,IO17*%
%TO.N,TX2*%
X126720000Y-57150000D03*
%TO.P,U1,29,IO5*%
%TO.N,GPIO5*%
X126720000Y-55880000D03*
%TO.P,U1,30,IO18*%
%TO.N,GPIO18*%
X126720000Y-54610000D03*
%TO.P,U1,31,IO19*%
%TO.N,GPIO19*%
X126720000Y-53340000D03*
%TO.P,U1,32,NC*%
%TO.N,unconnected-(U1-NC-Pad32)*%
X126720000Y-52070000D03*
%TO.P,U1,33,IO21*%
%TO.N,GPIO21*%
X126720000Y-50800000D03*
%TO.P,U1,34,RXD0/IO3*%
%TO.N,RX0*%
X126720000Y-49530000D03*
%TO.P,U1,35,TXD0/IO1*%
%TO.N,TX0*%
X126720000Y-48260000D03*
%TO.P,U1,36,IO22*%
%TO.N,GPIO22*%
X126720000Y-46990000D03*
%TO.P,U1,37,IO23*%
%TO.N,GPIO23*%
X126720000Y-45720000D03*
%TO.P,U1,38,GND*%
%TO.N,GND*%
X126720000Y-44450000D03*
D12*
%TO.P,U1,39,GND*%
X115765000Y-50265000D03*
D13*
X115765000Y-51027500D03*
D12*
X115765000Y-51790000D03*
D13*
X115765000Y-52552500D03*
D12*
X115765000Y-53315000D03*
D13*
X116527500Y-50265000D03*
X116527500Y-51790000D03*
X116527500Y-53315000D03*
D12*
X117290000Y-50265000D03*
D13*
X117290000Y-51027500D03*
D12*
X117290000Y-51790000D03*
D14*
X117290000Y-51790000D03*
D13*
X117290000Y-52552500D03*
D12*
X117290000Y-53315000D03*
D13*
X118052500Y-50265000D03*
X118052500Y-51790000D03*
X118052500Y-53315000D03*
D12*
X118815000Y-50265000D03*
D13*
X118815000Y-51027500D03*
D12*
X118815000Y-51790000D03*
D13*
X118815000Y-52552500D03*
D12*
X118815000Y-53315000D03*
%TD*%
D15*
%TO.P,J1,1,Pin_1*%
%TO.N,+3.3V*%
X139522200Y-59055000D03*
D16*
%TO.P,J1,2,Pin_2*%
%TO.N,RX0*%
X139522200Y-57055000D03*
%TO.P,J1,3,Pin_3*%
%TO.N,TX0*%
X139522200Y-55055000D03*
%TO.P,J1,4,Pin_4*%
%TO.N,GND*%
X139522200Y-53055000D03*
%TD*%
D17*
%TO.P,C1,1*%
%TO.N,+3.3V*%
X106723000Y-45872400D03*
%TO.P,C1,2*%
%TO.N,GND*%
X104648000Y-45872400D03*
%TD*%
D18*
%TO.P,U3,1,GND*%
%TO.N,GND*%
X95363000Y-74803400D03*
%TO.P,U3,2,VO*%
%TO.N,+3.3V*%
X97663000Y-74803400D03*
D19*
X97663000Y-68503400D03*
D18*
%TO.P,U3,3,VI*%
%TO.N,VDD*%
X99963000Y-74803400D03*
%TD*%
D20*
%TO.P,C2,1*%
%TO.N,VDD*%
X103149400Y-74926100D03*
%TO.P,C2,2*%
%TO.N,GND*%
X103149400Y-72851100D03*
%TD*%
D21*
%TO.P,SW2,1,1*%
%TO.N,GPIO0*%
X126644400Y-64770000D03*
%TO.P,SW2,2,2*%
%TO.N,GND*%
X126644400Y-72390000D03*
%TD*%
D15*
%TO.P,Motor1,1,PWM*%
%TO.N,A8*%
X140589000Y-66827400D03*
D16*
%TO.P,Motor1,2,GND*%
%TO.N,GND*%
X140589000Y-68827400D03*
%TO.P,Motor1,3,DIR*%
%TO.N,GPIO23*%
X140589000Y-70827400D03*
%TO.P,Motor1,4,12V*%
%TO.N,Net-(Motor1-12V)*%
X140589000Y-72827400D03*
%TD*%
D22*
%TO.P,C3,1*%
%TO.N,GND*%
X93014800Y-73130500D03*
%TO.P,C3,2*%
%TO.N,+3.3V*%
X93014800Y-75205500D03*
%TD*%
D23*
%TO.P,D2,1,K*%
%TO.N,GND*%
X115925600Y-67074000D03*
%TO.P,D2,2,A*%
%TO.N,Net-(D2-A)*%
X115925600Y-65024000D03*
%TD*%
D24*
%TO.P,R1,1*%
%TO.N,+3.3V*%
X104546400Y-48818800D03*
%TO.P,R1,2*%
%TO.N,/EN*%
X106546400Y-48818800D03*
%TD*%
D21*
%TO.P,SW1,1,1*%
%TO.N,/EN*%
X109905800Y-65328800D03*
%TO.P,SW1,2,2*%
%TO.N,GND*%
X109905800Y-72948800D03*
%TD*%
D20*
%TO.P,C4,1*%
%TO.N,+3.3V*%
X90576400Y-75205500D03*
%TO.P,C4,2*%
%TO.N,GND*%
X90576400Y-73130500D03*
%TD*%
D25*
%TO.P,J2,1*%
%TO.N,Net-(Motor1-12V)*%
X88036400Y-71399400D03*
D26*
%TO.P,J2,2*%
%TO.N,Net-(J2-Pad2)*%
X81736400Y-71399400D03*
D27*
%TO.P,J2,3*%
%TO.N,N/C*%
X85136400Y-76199400D03*
%TD*%
D23*
%TO.P,D1,1,K*%
%TO.N,Net-(D1-K)*%
X121208800Y-66963400D03*
%TO.P,D1,2,A*%
%TO.N,GPIO2*%
X121208800Y-64913400D03*
%TD*%
D28*
%TO.P,R7,1*%
%TO.N,Net-(D1-K)*%
X118821200Y-67090800D03*
%TO.P,R7,2*%
%TO.N,GND*%
X118821200Y-65090800D03*
%TD*%
D16*
%TO.P,Motor2,4,12V*%
%TO.N,Net-(Motor1-12V)*%
X133223000Y-73005200D03*
%TO.P,Motor2,3,DIR*%
%TO.N,GPIO13*%
X133223000Y-71005200D03*
%TO.P,Motor2,2,GND*%
%TO.N,GND*%
X133223000Y-69005200D03*
D15*
%TO.P,Motor2,1,PWM*%
%TO.N,A9*%
X133223000Y-67005200D03*
%TD*%
D29*
%TO.P,R5,1*%
%TO.N,+3.3V*%
X131962400Y-48463200D03*
%TO.P,R5,2*%
%TO.N,TX0*%
X129962400Y-48463200D03*
%TD*%
%TO.P,R2,1*%
%TO.N,+3.3V*%
X132080000Y-60960000D03*
%TO.P,R2,2*%
%TO.N,GPIO0*%
X130080000Y-60960000D03*
%TD*%
D28*
%TO.P,R3,1*%
%TO.N,GND*%
X124028200Y-66811400D03*
%TO.P,R3,2*%
%TO.N,GPIO2*%
X124028200Y-64811400D03*
%TD*%
D30*
%TO.P,U2,1,IN-*%
%TO.N,Net-(J2-Pad2)*%
X85852000Y-64262000D03*
%TO.P,U2,2,IN-*%
X88392000Y-64262000D03*
%TO.P,U2,3,IN+*%
%TO.N,Net-(Motor1-12V)*%
X96520000Y-64262000D03*
%TO.P,U2,4,IN+*%
X99060000Y-64262000D03*
%TO.P,U2,5,OUT+*%
%TO.N,VDD*%
X99060000Y-45720000D03*
%TO.P,U2,6,OUT+*%
X96520000Y-45720000D03*
%TO.P,U2,7,OUT-*%
%TO.N,GND*%
X88392000Y-45720000D03*
%TO.P,U2,8,OUT-*%
X85852000Y-45720000D03*
%TD*%
D28*
%TO.P,R4,1*%
%TO.N,+3.3V*%
X113334800Y-66979800D03*
%TO.P,R4,2*%
%TO.N,Net-(D2-A)*%
X113334800Y-64979800D03*
%TD*%
D29*
%TO.P,R6,1*%
%TO.N,+3.3V*%
X132216400Y-55905400D03*
%TO.P,R6,2*%
%TO.N,GPIO5*%
X130216400Y-55905400D03*
%TD*%
D31*
%TO.N,GND*%
X84683600Y-72923400D03*
X141427200Y-44983400D03*
X120065800Y-77012800D03*
X133934200Y-77470000D03*
X96697800Y-59105800D03*
X81584800Y-60477400D03*
X82575400Y-53136800D03*
X93827600Y-50571400D03*
X122910600Y-52832000D03*
%TO.N,+3.3V*%
X113207800Y-68402200D03*
X101142800Y-68554600D03*
X104597200Y-50825400D03*
%TO.N,GND*%
X135356600Y-57683400D03*
X136017000Y-46710600D03*
%TO.N,A8*%
X138963400Y-66878200D03*
X110363000Y-55880000D03*
%TO.N,A9*%
X119684800Y-59357200D03*
%TO.N,+3.3V*%
X133959600Y-60960000D03*
X106299000Y-74218800D03*
%TO.N,GND*%
X109702600Y-63119000D03*
X129184400Y-52603400D03*
X84378800Y-40665400D03*
X135966200Y-49860200D03*
X122656600Y-47498000D03*
X117424200Y-63957200D03*
X113055400Y-45440600D03*
X90195400Y-57607200D03*
X98577400Y-71069200D03*
X104673400Y-59817000D03*
X117221000Y-72440800D03*
%TD*%
D32*
%TO.N,GPIO13*%
X129552200Y-71005200D02*
X133223000Y-71005200D01*
X125603000Y-62128400D02*
X125603000Y-67056000D01*
X114325400Y-60629800D02*
X124104400Y-60629800D01*
X125603000Y-67056000D02*
X129552200Y-71005200D01*
X113530000Y-61425200D02*
X114325400Y-60629800D01*
X113530000Y-62210000D02*
X113530000Y-61425200D01*
X124104400Y-60629800D02*
X125603000Y-62128400D01*
%TO.N,VDD*%
X100990400Y-73776000D02*
X99963000Y-74803400D01*
X100990400Y-71932800D02*
X100990400Y-73776000D01*
X102616000Y-70307200D02*
X100990400Y-71932800D01*
X102616000Y-49276000D02*
X102616000Y-70307200D01*
X99060000Y-45720000D02*
X102616000Y-49276000D01*
%TO.N,+3.3V*%
X104597200Y-50825400D02*
X104546400Y-50774600D01*
X104546400Y-50774600D02*
X104546400Y-48818800D01*
X113207800Y-67106800D02*
X113334800Y-66979800D01*
X113207800Y-68402200D02*
X113207800Y-67106800D01*
X101142800Y-68554600D02*
X101167800Y-68503400D01*
X101167800Y-68503400D02*
X101193600Y-68529200D01*
X97663000Y-68503400D02*
X101142800Y-68554600D01*
X92917100Y-77546200D02*
X95808800Y-77546200D01*
X90576400Y-75205500D02*
X92917100Y-77546200D01*
X139954000Y-59055000D02*
X139522200Y-59055000D01*
X141224000Y-51308000D02*
X141224000Y-57785000D01*
X141224000Y-57785000D02*
X139954000Y-59055000D01*
X138379200Y-48463200D02*
X141224000Y-51308000D01*
X131962400Y-48463200D02*
X138379200Y-48463200D01*
X135864600Y-59055000D02*
X139522200Y-59055000D01*
X133959600Y-60960000D02*
X135864600Y-59055000D01*
X90576400Y-75205500D02*
X93014800Y-75205500D01*
%TO.N,Net-(J2-Pad2)*%
X85852000Y-67588600D02*
X82041200Y-71399400D01*
X82041200Y-71399400D02*
X81736400Y-71399400D01*
X85852000Y-64262000D02*
X85852000Y-67588600D01*
%TO.N,GND*%
X92858500Y-73286800D02*
X93014800Y-73130500D01*
X90732700Y-73286800D02*
X92858500Y-73286800D01*
X90576400Y-73130500D02*
X90732700Y-73286800D01*
%TO.N,VDD*%
X103103300Y-74880000D02*
X103149400Y-74926100D01*
X100039600Y-74880000D02*
X103103300Y-74880000D01*
%TO.N,+3.3V*%
X95808800Y-77546200D02*
X97663000Y-75692000D01*
X97663000Y-75692000D02*
X97663000Y-74803400D01*
%TO.N,VDD*%
X99963000Y-74803400D02*
X100039600Y-74880000D01*
%TO.N,+3.3V*%
X102463600Y-77546200D02*
X95808800Y-77546200D01*
X105791000Y-74218800D02*
X102463600Y-77546200D01*
X106299000Y-74218800D02*
X105791000Y-74218800D01*
%TO.N,GPIO23*%
X137854658Y-45720000D02*
X126720000Y-45720000D01*
X142722600Y-50587942D02*
X137854658Y-45720000D01*
X142722600Y-69342000D02*
X142722600Y-50587942D01*
X141237200Y-70827400D02*
X142722600Y-69342000D01*
X140589000Y-70827400D02*
X141237200Y-70827400D01*
%TO.N,A8*%
X139014200Y-66827400D02*
X140589000Y-66827400D01*
X138963400Y-66878200D02*
X139014200Y-66827400D01*
X109220000Y-55880000D02*
X110363000Y-55880000D01*
%TO.N,+3.3V*%
X133959600Y-60960000D02*
X132080000Y-60960000D01*
%TO.N,A9*%
X117477600Y-57150000D02*
X119684800Y-59357200D01*
X109220000Y-57150000D02*
X117477600Y-57150000D01*
%TO.N,GND*%
X118815000Y-51027500D02*
X118052500Y-51790000D01*
X118815000Y-50265000D02*
X118815000Y-51027500D01*
X118815000Y-50265000D02*
X118052500Y-50265000D01*
X116527500Y-50265000D02*
X115765000Y-50265000D01*
X118815000Y-52552500D02*
X118815000Y-53315000D01*
X118052500Y-53315000D02*
X118815000Y-53315000D01*
X115765000Y-53315000D02*
X116527500Y-53315000D01*
%TO.N,+3.3V*%
X137642600Y-59055000D02*
X139522200Y-59055000D01*
X135077200Y-59055000D02*
X137642600Y-59055000D01*
X106723000Y-45872400D02*
X106875400Y-45720000D01*
X106723000Y-46642200D02*
X104546400Y-48818800D01*
X106875400Y-45720000D02*
X109220000Y-45720000D01*
X132216400Y-55905400D02*
X135077200Y-59055000D01*
X106723000Y-45872400D02*
X106723000Y-46642200D01*
%TO.N,GND*%
X115765000Y-50265000D02*
X118052500Y-50265000D01*
%TO.N,VDD*%
X96520000Y-45720000D02*
X99060000Y-45720000D01*
%TO.N,Net-(D1-K)*%
X121208800Y-66963400D02*
X118948600Y-66963400D01*
X118948600Y-66963400D02*
X118821200Y-67090800D01*
%TO.N,GPIO2*%
X123690000Y-65057400D02*
X123672600Y-65074800D01*
X120929400Y-65024000D02*
X123621800Y-65024000D01*
X123690000Y-62210000D02*
X123690000Y-65057400D01*
X123621800Y-65024000D02*
X123672600Y-65074800D01*
%TO.N,Net-(D2-A)*%
X113334800Y-64979800D02*
X115881400Y-64979800D01*
X115881400Y-64979800D02*
X115925600Y-65024000D01*
%TO.N,RX0*%
X129946400Y-50114200D02*
X126720000Y-49530000D01*
X139522200Y-57055000D02*
X136049000Y-57055000D01*
X134239000Y-55245000D02*
X129946400Y-50114200D01*
X136049000Y-57055000D02*
X134239000Y-55245000D01*
%TO.N,TX0*%
X129962400Y-48463200D02*
X136554200Y-55055000D01*
X129759200Y-48260000D02*
X129962400Y-48463200D01*
X126720000Y-48260000D02*
X129759200Y-48260000D01*
X136554200Y-55055000D02*
X139522200Y-55055000D01*
%TO.N,Net-(J2-Pad2)*%
X88392000Y-64262000D02*
X85852000Y-64262000D01*
%TO.N,/EN*%
X109905800Y-65328800D02*
X106546400Y-61969400D01*
X109220000Y-46990000D02*
X108375200Y-46990000D01*
X106546400Y-61969400D02*
X106546400Y-48818800D01*
X108375200Y-46990000D02*
X106546400Y-48818800D01*
%TO.N,GPIO0*%
X130080000Y-60960000D02*
X126720000Y-60960000D01*
X126644400Y-64770000D02*
X126644400Y-61035600D01*
X126644400Y-61035600D02*
X126720000Y-60960000D01*
%TO.N,GPIO5*%
X130191000Y-55880000D02*
X130216400Y-55905400D01*
X126720000Y-55880000D02*
X130191000Y-55880000D01*
%TD*%
%TA.AperFunction,Conductor*%
%TO.N,GND*%
G36*
X93878138Y-37044955D02*
G01*
X93924382Y-37089398D01*
X93942235Y-37151002D01*
X93969974Y-38505791D01*
X93970000Y-38508329D01*
X93970000Y-42900000D01*
X141970000Y-42900000D01*
X141976807Y-42900000D01*
X141992185Y-42889424D01*
X142036054Y-42878852D01*
X142158408Y-42872297D01*
X143035285Y-42825321D01*
X143099761Y-42839462D01*
X143147846Y-42884685D01*
X143165912Y-42948176D01*
X143219281Y-49789116D01*
X143206119Y-49845687D01*
X143168639Y-49890059D01*
X143115065Y-49912495D01*
X143057151Y-49908074D01*
X143007604Y-49877764D01*
X138369924Y-45240084D01*
X138364790Y-45234630D01*
X138324725Y-45189406D01*
X138285769Y-45162517D01*
X138275001Y-45155084D01*
X138268971Y-45150647D01*
X138221384Y-45113364D01*
X138212053Y-45109165D01*
X138192502Y-45098139D01*
X138184084Y-45092328D01*
X138127566Y-45070893D01*
X138120649Y-45068028D01*
X138065549Y-45043230D01*
X138055491Y-45041387D01*
X138033872Y-45035360D01*
X138024301Y-45031730D01*
X137964282Y-45024441D01*
X137956880Y-45023315D01*
X137897458Y-45012425D01*
X137837144Y-45016074D01*
X137829658Y-45016300D01*
X128094000Y-45016300D01*
X128032000Y-44999687D01*
X127986613Y-44954300D01*
X127970000Y-44892300D01*
X127970000Y-44700000D01*
X125470000Y-44700000D01*
X125470000Y-44947824D01*
X125476402Y-45007377D01*
X125488925Y-45040952D01*
X125496743Y-45084285D01*
X125488925Y-45127617D01*
X125475909Y-45162513D01*
X125469500Y-45222130D01*
X125469500Y-46217869D01*
X125475909Y-46277485D01*
X125488658Y-46311666D01*
X125496476Y-46354997D01*
X125488659Y-46398328D01*
X125475909Y-46432513D01*
X125469500Y-46492130D01*
X125469500Y-47487869D01*
X125475909Y-47547485D01*
X125488658Y-47581667D01*
X125496476Y-47624999D01*
X125488659Y-47668330D01*
X125475909Y-47702515D01*
X125475908Y-47702517D01*
X125475909Y-47702517D01*
X125469783Y-47759500D01*
X125469500Y-47762130D01*
X125469500Y-48757869D01*
X125475909Y-48817485D01*
X125488658Y-48851667D01*
X125496476Y-48894999D01*
X125488659Y-48938330D01*
X125475909Y-48972515D01*
X125469500Y-49032130D01*
X125469500Y-50027869D01*
X125475909Y-50087485D01*
X125488658Y-50121666D01*
X125496476Y-50164997D01*
X125488659Y-50208328D01*
X125475909Y-50242513D01*
X125469500Y-50302130D01*
X125469500Y-51297869D01*
X125475909Y-51357485D01*
X125488658Y-51391666D01*
X125496476Y-51434997D01*
X125488659Y-51478328D01*
X125475909Y-51512513D01*
X125469500Y-51572130D01*
X125469500Y-52567869D01*
X125475909Y-52627485D01*
X125488658Y-52661667D01*
X125496476Y-52704999D01*
X125488659Y-52748330D01*
X125475909Y-52782515D01*
X125469500Y-52842130D01*
X125469500Y-53837869D01*
X125475909Y-53897485D01*
X125488658Y-53931666D01*
X125496476Y-53974997D01*
X125488659Y-54018328D01*
X125475909Y-54052513D01*
X125469500Y-54112130D01*
X125469500Y-55107869D01*
X125475909Y-55167485D01*
X125488658Y-55201666D01*
X125496476Y-55244997D01*
X125488659Y-55288328D01*
X125475909Y-55322513D01*
X125469500Y-55382130D01*
X125469500Y-56377869D01*
X125475909Y-56437485D01*
X125488658Y-56471666D01*
X125496476Y-56514997D01*
X125488659Y-56558328D01*
X125475909Y-56592513D01*
X125469500Y-56652130D01*
X125469500Y-57647869D01*
X125475909Y-57707485D01*
X125488658Y-57741667D01*
X125496476Y-57784999D01*
X125488659Y-57828330D01*
X125475909Y-57862515D01*
X125469500Y-57922130D01*
X125469500Y-58917869D01*
X125475909Y-58977485D01*
X125488658Y-59011667D01*
X125496476Y-59054999D01*
X125488659Y-59098330D01*
X125475909Y-59132515D01*
X125469500Y-59192130D01*
X125469500Y-60187869D01*
X125475909Y-60247485D01*
X125488658Y-60281666D01*
X125496476Y-60324997D01*
X125488659Y-60368328D01*
X125475909Y-60402513D01*
X125469500Y-60462131D01*
X125469500Y-60700356D01*
X125455985Y-60756651D01*
X125418385Y-60800674D01*
X125364898Y-60822829D01*
X125307182Y-60818287D01*
X125257819Y-60788037D01*
X124619666Y-60149884D01*
X124614532Y-60144430D01*
X124574467Y-60099206D01*
X124557574Y-60087546D01*
X124524743Y-60064884D01*
X124518713Y-60060447D01*
X124471126Y-60023164D01*
X124461795Y-60018965D01*
X124442244Y-60007939D01*
X124433826Y-60002128D01*
X124377308Y-59980693D01*
X124370391Y-59977828D01*
X124315291Y-59953030D01*
X124305233Y-59951187D01*
X124283614Y-59945160D01*
X124274043Y-59941530D01*
X124214024Y-59934241D01*
X124206622Y-59933115D01*
X124147200Y-59922225D01*
X124086886Y-59925874D01*
X124079400Y-59926100D01*
X120610928Y-59926100D01*
X120548928Y-59909487D01*
X120503541Y-59864100D01*
X120486928Y-59802100D01*
X120503541Y-59740100D01*
X120511979Y-59725484D01*
X120511979Y-59725483D01*
X120570474Y-59545456D01*
X120590260Y-59357200D01*
X120570474Y-59168944D01*
X120533451Y-59054999D01*
X120511979Y-58988915D01*
X120417333Y-58824983D01*
X120290670Y-58684310D01*
X120137532Y-58573049D01*
X120022245Y-58521720D01*
X119964603Y-58496056D01*
X119912225Y-58484922D01*
X119815418Y-58464345D01*
X119782032Y-58452028D01*
X119753519Y-58430736D01*
X117992866Y-56670084D01*
X117987732Y-56664630D01*
X117947667Y-56619406D01*
X117911326Y-56594322D01*
X117897943Y-56585084D01*
X117891913Y-56580647D01*
X117844326Y-56543364D01*
X117834995Y-56539165D01*
X117815444Y-56528139D01*
X117807026Y-56522328D01*
X117750508Y-56500893D01*
X117743591Y-56498028D01*
X117688491Y-56473230D01*
X117678433Y-56471387D01*
X117656814Y-56465360D01*
X117647243Y-56461730D01*
X117587224Y-56454441D01*
X117579822Y-56453315D01*
X117520400Y-56442425D01*
X117460086Y-56446074D01*
X117452600Y-56446300D01*
X111290629Y-56446300D01*
X111228629Y-56429687D01*
X111183242Y-56384300D01*
X111166629Y-56322300D01*
X111183242Y-56260300D01*
X111190179Y-56248284D01*
X111190178Y-56248284D01*
X111248674Y-56068256D01*
X111268460Y-55880000D01*
X111248674Y-55691744D01*
X111190179Y-55511716D01*
X111190179Y-55511715D01*
X111095533Y-55347783D01*
X110968870Y-55207110D01*
X110815730Y-55095848D01*
X110642806Y-55018857D01*
X110642804Y-55018856D01*
X110642803Y-55018856D01*
X110568715Y-55003108D01*
X110518158Y-54979533D01*
X110483049Y-54936177D01*
X110470499Y-54881819D01*
X110470499Y-54112130D01*
X110467969Y-54088595D01*
X110464091Y-54052517D01*
X110451340Y-54018331D01*
X110443523Y-53974999D01*
X110451342Y-53931665D01*
X110464090Y-53897485D01*
X110464089Y-53897485D01*
X110464091Y-53897483D01*
X110470500Y-53837873D01*
X110470499Y-52842128D01*
X110464091Y-52782517D01*
X110451340Y-52748330D01*
X110443523Y-52705000D01*
X110451342Y-52661665D01*
X110464090Y-52627485D01*
X110464089Y-52627485D01*
X110464091Y-52627483D01*
X110470500Y-52567873D01*
X110470499Y-52040000D01*
X114690000Y-52040000D01*
X114690000Y-53937824D01*
X114696402Y-53997375D01*
X114746647Y-54132089D01*
X114832811Y-54247188D01*
X114947910Y-54333352D01*
X115082624Y-54383597D01*
X115142176Y-54390000D01*
X117040000Y-54390000D01*
X117540000Y-54390000D01*
X119437824Y-54390000D01*
X119497375Y-54383597D01*
X119632089Y-54333352D01*
X119747188Y-54247188D01*
X119833352Y-54132089D01*
X119883597Y-53997375D01*
X119890000Y-53937824D01*
X119890000Y-52040000D01*
X119065000Y-52040000D01*
X119065000Y-52448947D01*
X119080872Y-52464819D01*
X119112966Y-52520406D01*
X119112966Y-52584594D01*
X119080872Y-52640181D01*
X119065000Y-52656052D01*
X119065000Y-53441000D01*
X119048387Y-53503000D01*
X119003000Y-53548387D01*
X118941000Y-53565000D01*
X118156052Y-53565000D01*
X118140181Y-53580872D01*
X118084594Y-53612966D01*
X118020406Y-53612966D01*
X117964819Y-53580872D01*
X117948947Y-53565000D01*
X117540000Y-53565000D01*
X117540000Y-54390000D01*
X117040000Y-54390000D01*
X117040000Y-53565000D01*
X116631052Y-53565000D01*
X116615181Y-53580872D01*
X116559594Y-53612966D01*
X116495406Y-53612966D01*
X116439819Y-53580872D01*
X116423947Y-53565000D01*
X115639000Y-53565000D01*
X115577000Y-53548387D01*
X115531613Y-53503000D01*
X115515000Y-53441000D01*
X115515000Y-52656054D01*
X115514999Y-52656052D01*
X115499128Y-52640181D01*
X115467034Y-52584594D01*
X115467034Y-52552500D01*
X116118553Y-52552500D01*
X116527500Y-52961447D01*
X116936447Y-52552500D01*
X117643553Y-52552500D01*
X118052500Y-52961447D01*
X118461447Y-52552500D01*
X118052500Y-52143553D01*
X117643553Y-52552500D01*
X116936447Y-52552500D01*
X116527500Y-52143553D01*
X116118553Y-52552500D01*
X115467034Y-52552500D01*
X115467034Y-52520406D01*
X115499128Y-52464819D01*
X115514999Y-52448947D01*
X115515000Y-52448947D01*
X115515000Y-52040000D01*
X114690000Y-52040000D01*
X110470499Y-52040000D01*
X110470499Y-51572128D01*
X110467045Y-51540000D01*
X114690000Y-51540000D01*
X115515000Y-51540000D01*
X115515000Y-51131054D01*
X115514999Y-51131052D01*
X115499128Y-51115181D01*
X115467034Y-51059594D01*
X115467034Y-51027500D01*
X116118553Y-51027500D01*
X116527500Y-51436447D01*
X116936447Y-51027500D01*
X117643553Y-51027500D01*
X118052500Y-51436447D01*
X118461447Y-51027500D01*
X118052500Y-50618553D01*
X117643553Y-51027500D01*
X116936447Y-51027500D01*
X116527500Y-50618553D01*
X116118553Y-51027500D01*
X115467034Y-51027500D01*
X115467034Y-50995406D01*
X115499128Y-50939819D01*
X115514999Y-50923947D01*
X115515000Y-50923947D01*
X115515000Y-50139000D01*
X115531613Y-50077000D01*
X115577000Y-50031613D01*
X115639000Y-50015000D01*
X116423947Y-50015000D01*
X116423947Y-50014999D01*
X116439819Y-49999128D01*
X116495406Y-49967034D01*
X116559594Y-49967034D01*
X116615181Y-49999128D01*
X116631053Y-50015000D01*
X117040000Y-50015000D01*
X117040000Y-49190000D01*
X117540000Y-49190000D01*
X117540000Y-50015000D01*
X117948947Y-50015000D01*
X117948947Y-50014999D01*
X117964819Y-49999128D01*
X118020406Y-49967034D01*
X118084594Y-49967034D01*
X118140181Y-49999128D01*
X118156053Y-50015000D01*
X118941000Y-50015000D01*
X119003000Y-50031613D01*
X119048387Y-50077000D01*
X119065000Y-50139000D01*
X119065000Y-50923947D01*
X119080872Y-50939819D01*
X119112966Y-50995406D01*
X119112966Y-51059594D01*
X119080872Y-51115181D01*
X119065000Y-51131052D01*
X119065000Y-51540000D01*
X119890000Y-51540000D01*
X119890000Y-49642176D01*
X119883597Y-49582624D01*
X119833352Y-49447910D01*
X119747188Y-49332811D01*
X119632089Y-49246647D01*
X119497375Y-49196402D01*
X119437824Y-49190000D01*
X117540000Y-49190000D01*
X117040000Y-49190000D01*
X115142176Y-49190000D01*
X115082624Y-49196402D01*
X114947910Y-49246647D01*
X114832811Y-49332811D01*
X114746647Y-49447910D01*
X114696402Y-49582624D01*
X114690000Y-49642176D01*
X114690000Y-51540000D01*
X110467045Y-51540000D01*
X110464091Y-51512517D01*
X110451340Y-51478331D01*
X110443523Y-51434999D01*
X110451342Y-51391665D01*
X110464090Y-51357485D01*
X110464089Y-51357485D01*
X110464091Y-51357483D01*
X110470500Y-51297873D01*
X110470499Y-50302128D01*
X110464091Y-50242517D01*
X110451340Y-50208330D01*
X110443523Y-50165000D01*
X110451342Y-50121665D01*
X110464090Y-50087485D01*
X110464089Y-50087485D01*
X110464091Y-50087483D01*
X110470500Y-50027873D01*
X110470499Y-49032128D01*
X110464091Y-48972517D01*
X110451340Y-48938330D01*
X110443523Y-48895000D01*
X110451342Y-48851665D01*
X110464090Y-48817485D01*
X110464089Y-48817485D01*
X110464091Y-48817483D01*
X110470500Y-48757873D01*
X110470499Y-47762128D01*
X110464091Y-47702517D01*
X110451340Y-47668330D01*
X110443523Y-47625000D01*
X110451342Y-47581665D01*
X110464090Y-47547485D01*
X110464089Y-47547485D01*
X110464091Y-47547483D01*
X110470500Y-47487873D01*
X110470499Y-46492128D01*
X110464091Y-46432517D01*
X110451340Y-46398331D01*
X110443523Y-46354999D01*
X110451342Y-46311665D01*
X110464090Y-46277485D01*
X110464089Y-46277485D01*
X110464091Y-46277483D01*
X110470500Y-46217873D01*
X110470499Y-45222128D01*
X110464091Y-45162517D01*
X110451075Y-45127619D01*
X110443256Y-45084284D01*
X110451075Y-45040949D01*
X110463597Y-45007376D01*
X110470000Y-44947824D01*
X110470000Y-44700000D01*
X107970000Y-44700000D01*
X107970000Y-44892300D01*
X107953387Y-44954300D01*
X107908000Y-44999687D01*
X107846000Y-45016300D01*
X107776424Y-45016300D01*
X107715992Y-45000577D01*
X107670885Y-44957396D01*
X107653211Y-44928742D01*
X107529157Y-44804688D01*
X107379834Y-44712586D01*
X107213297Y-44657400D01*
X107110509Y-44646900D01*
X106335491Y-44646900D01*
X106232703Y-44657400D01*
X106066165Y-44712586D01*
X105916842Y-44804688D01*
X105792786Y-44928744D01*
X105790742Y-44932059D01*
X105745635Y-44975237D01*
X105685204Y-44990958D01*
X105624774Y-44975235D01*
X105579668Y-44932056D01*
X105577816Y-44929054D01*
X105453845Y-44805083D01*
X105304622Y-44713042D01*
X105138196Y-44657893D01*
X105035479Y-44647400D01*
X104898000Y-44647400D01*
X104898000Y-47097399D01*
X104973256Y-47097399D01*
X105029551Y-47110914D01*
X105073574Y-47148514D01*
X105095729Y-47202001D01*
X105091187Y-47259717D01*
X105060937Y-47309080D01*
X104788035Y-47581981D01*
X104747807Y-47608861D01*
X104700354Y-47618300D01*
X104146391Y-47618300D01*
X104043603Y-47628800D01*
X103877065Y-47683986D01*
X103727742Y-47776088D01*
X103603688Y-47900142D01*
X103511586Y-48049465D01*
X103456400Y-48216002D01*
X103445900Y-48318791D01*
X103445900Y-48834912D01*
X103430992Y-48893860D01*
X103389854Y-48938634D01*
X103332376Y-48958469D01*
X103272379Y-48948594D01*
X103224290Y-48911386D01*
X103185352Y-48861686D01*
X103180923Y-48855667D01*
X103146595Y-48805934D01*
X103101359Y-48765858D01*
X103095906Y-48760724D01*
X100559426Y-46224244D01*
X100527763Y-46170222D01*
X100526823Y-46122400D01*
X103560501Y-46122400D01*
X103560501Y-46397379D01*
X103570993Y-46500095D01*
X103626142Y-46666522D01*
X103718183Y-46815745D01*
X103842154Y-46939716D01*
X103991377Y-47031757D01*
X104157803Y-47086906D01*
X104260521Y-47097400D01*
X104398000Y-47097400D01*
X104398000Y-46122400D01*
X103560501Y-46122400D01*
X100526823Y-46122400D01*
X100526533Y-46107616D01*
X100534711Y-46073553D01*
X100562461Y-45957966D01*
X100581189Y-45720000D01*
X100573508Y-45622400D01*
X103560500Y-45622400D01*
X104398000Y-45622400D01*
X104398000Y-44647401D01*
X104260521Y-44647401D01*
X104157804Y-44657893D01*
X103991377Y-44713042D01*
X103842154Y-44805083D01*
X103718183Y-44929054D01*
X103626142Y-45078277D01*
X103570993Y-45244703D01*
X103560500Y-45347421D01*
X103560500Y-45622400D01*
X100573508Y-45622400D01*
X100562461Y-45482034D01*
X100506737Y-45249927D01*
X100504573Y-45244703D01*
X100431391Y-45068028D01*
X100415389Y-45029395D01*
X100290668Y-44825868D01*
X100135643Y-44644357D01*
X100026188Y-44550873D01*
X99954135Y-44489334D01*
X99954132Y-44489332D01*
X99750605Y-44364611D01*
X99750602Y-44364610D01*
X99750601Y-44364609D01*
X99530073Y-44273262D01*
X99297967Y-44217539D01*
X99075108Y-44200000D01*
X107970000Y-44200000D01*
X108970000Y-44200000D01*
X108970000Y-43500000D01*
X109470000Y-43500000D01*
X109470000Y-44200000D01*
X110470000Y-44200000D01*
X125470000Y-44200000D01*
X126470000Y-44200000D01*
X126470000Y-43500000D01*
X126970000Y-43500000D01*
X126970000Y-44200000D01*
X127970000Y-44200000D01*
X127970000Y-43952176D01*
X127963597Y-43892624D01*
X127913352Y-43757910D01*
X127827188Y-43642811D01*
X127712089Y-43556647D01*
X127577375Y-43506402D01*
X127517824Y-43500000D01*
X126970000Y-43500000D01*
X126470000Y-43500000D01*
X125922176Y-43500000D01*
X125862624Y-43506402D01*
X125727910Y-43556647D01*
X125612811Y-43642811D01*
X125526647Y-43757910D01*
X125476402Y-43892624D01*
X125470000Y-43952176D01*
X125470000Y-44200000D01*
X110470000Y-44200000D01*
X110470000Y-43952176D01*
X110463597Y-43892624D01*
X110413352Y-43757910D01*
X110327188Y-43642811D01*
X110212089Y-43556647D01*
X110077375Y-43506402D01*
X110017824Y-43500000D01*
X109470000Y-43500000D01*
X108970000Y-43500000D01*
X108422176Y-43500000D01*
X108362624Y-43506402D01*
X108227910Y-43556647D01*
X108112811Y-43642811D01*
X108026647Y-43757910D01*
X107976402Y-43892624D01*
X107970000Y-43952176D01*
X107970000Y-44200000D01*
X99075108Y-44200000D01*
X99060000Y-44198811D01*
X98822032Y-44217539D01*
X98589926Y-44273262D01*
X98369398Y-44364609D01*
X98165864Y-44489334D01*
X97984357Y-44644357D01*
X97884290Y-44761520D01*
X97841914Y-44793598D01*
X97790000Y-44804988D01*
X97738086Y-44793598D01*
X97695710Y-44761520D01*
X97668683Y-44729876D01*
X97595643Y-44644357D01*
X97486188Y-44550873D01*
X97414135Y-44489334D01*
X97414132Y-44489332D01*
X97210605Y-44364611D01*
X97210602Y-44364610D01*
X97210601Y-44364609D01*
X96990073Y-44273262D01*
X96757967Y-44217539D01*
X96520000Y-44198811D01*
X96282032Y-44217539D01*
X96049926Y-44273262D01*
X95829398Y-44364609D01*
X95625864Y-44489334D01*
X95444357Y-44644357D01*
X95289334Y-44825864D01*
X95164609Y-45029398D01*
X95073262Y-45249926D01*
X95017539Y-45482032D01*
X94998811Y-45720000D01*
X95017539Y-45957967D01*
X95073262Y-46190073D01*
X95164517Y-46410379D01*
X95164611Y-46410605D01*
X95219513Y-46500197D01*
X95289334Y-46614135D01*
X95350873Y-46686188D01*
X95444357Y-46795643D01*
X95572510Y-46905096D01*
X95613044Y-46939716D01*
X95625868Y-46950668D01*
X95829395Y-47075389D01*
X95882534Y-47097400D01*
X96049926Y-47166737D01*
X96123254Y-47184341D01*
X96282034Y-47222461D01*
X96520000Y-47241189D01*
X96757966Y-47222461D01*
X96990073Y-47166737D01*
X97210605Y-47075389D01*
X97414132Y-46950668D01*
X97595643Y-46795643D01*
X97695711Y-46678477D01*
X97738086Y-46646401D01*
X97790000Y-46635011D01*
X97841914Y-46646401D01*
X97884288Y-46678477D01*
X97984357Y-46795643D01*
X98112510Y-46905096D01*
X98153044Y-46939716D01*
X98165868Y-46950668D01*
X98369395Y-47075389D01*
X98422534Y-47097400D01*
X98589926Y-47166737D01*
X98663254Y-47184341D01*
X98822034Y-47222461D01*
X99060000Y-47241189D01*
X99297966Y-47222461D01*
X99447616Y-47186533D01*
X99510222Y-47187763D01*
X99564244Y-47219426D01*
X101875981Y-49531163D01*
X101902861Y-49571391D01*
X101912300Y-49618844D01*
X101912300Y-67757231D01*
X101894027Y-67822021D01*
X101844595Y-67867716D01*
X101778571Y-67880849D01*
X101715415Y-67857549D01*
X101595530Y-67770448D01*
X101422602Y-67693455D01*
X101237448Y-67654100D01*
X101237446Y-67654100D01*
X101048154Y-67654100D01*
X101048152Y-67654100D01*
X100862997Y-67693455D01*
X100690070Y-67770448D01*
X100624037Y-67818423D01*
X100588602Y-67836314D01*
X100549329Y-67842091D01*
X100355258Y-67839235D01*
X100185673Y-67836740D01*
X100124449Y-67819528D01*
X100079809Y-67774227D01*
X100063499Y-67712754D01*
X100063499Y-67455530D01*
X100061958Y-67441197D01*
X100057091Y-67395917D01*
X100006796Y-67261069D01*
X99920546Y-67145854D01*
X99805331Y-67059604D01*
X99670483Y-67009309D01*
X99610873Y-67002900D01*
X99610869Y-67002900D01*
X95715130Y-67002900D01*
X95655515Y-67009309D01*
X95520669Y-67059604D01*
X95405454Y-67145854D01*
X95319204Y-67261068D01*
X95268909Y-67395916D01*
X95262500Y-67455530D01*
X95262500Y-69551269D01*
X95268909Y-69610883D01*
X95319204Y-69745731D01*
X95405454Y-69860946D01*
X95520669Y-69947196D01*
X95655517Y-69997491D01*
X95715127Y-70003900D01*
X99610872Y-70003899D01*
X99670483Y-69997491D01*
X99805331Y-69947196D01*
X99920546Y-69860946D01*
X100006796Y-69745731D01*
X100057091Y-69610883D01*
X100063500Y-69551273D01*
X100063499Y-69368332D01*
X100080417Y-69305807D01*
X100126555Y-69260343D01*
X100189321Y-69244346D01*
X100528519Y-69249337D01*
X100565880Y-69255678D01*
X100599577Y-69273004D01*
X100690070Y-69338751D01*
X100690071Y-69338751D01*
X100690072Y-69338752D01*
X100862997Y-69415744D01*
X101048152Y-69455100D01*
X101048154Y-69455100D01*
X101237446Y-69455100D01*
X101237448Y-69455100D01*
X101360883Y-69428862D01*
X101422603Y-69415744D01*
X101595530Y-69338751D01*
X101640874Y-69305807D01*
X101715415Y-69251651D01*
X101778571Y-69228351D01*
X101844595Y-69241484D01*
X101894027Y-69287179D01*
X101912300Y-69351969D01*
X101912300Y-69964356D01*
X101902861Y-70011809D01*
X101875981Y-70052037D01*
X100510490Y-71417526D01*
X100505038Y-71422658D01*
X100459807Y-71462730D01*
X100425482Y-71512458D01*
X100421045Y-71518487D01*
X100383763Y-71566074D01*
X100379562Y-71575410D01*
X100368540Y-71594954D01*
X100362727Y-71603375D01*
X100341298Y-71659877D01*
X100338434Y-71666792D01*
X100313629Y-71721909D01*
X100311785Y-71731972D01*
X100305762Y-71753577D01*
X100302130Y-71763154D01*
X100294841Y-71823177D01*
X100293714Y-71830578D01*
X100282825Y-71889997D01*
X100286474Y-71950314D01*
X100286700Y-71957800D01*
X100286700Y-73178900D01*
X100270087Y-73240900D01*
X100224700Y-73286287D01*
X100162700Y-73302900D01*
X99165130Y-73302900D01*
X99105515Y-73309309D01*
X98970669Y-73359604D01*
X98887311Y-73422006D01*
X98839358Y-73443905D01*
X98786642Y-73443905D01*
X98738689Y-73422006D01*
X98655331Y-73359604D01*
X98520483Y-73309309D01*
X98520482Y-73309308D01*
X98460873Y-73302900D01*
X98460869Y-73302900D01*
X96865130Y-73302900D01*
X96805515Y-73309309D01*
X96670667Y-73359604D01*
X96586892Y-73422318D01*
X96538940Y-73444217D01*
X96486223Y-73444217D01*
X96438271Y-73422318D01*
X96355088Y-73360047D01*
X96220375Y-73309802D01*
X96160824Y-73303400D01*
X95613000Y-73303400D01*
X95613000Y-76303400D01*
X95757055Y-76303400D01*
X95813350Y-76316915D01*
X95857373Y-76354515D01*
X95879528Y-76408002D01*
X95874986Y-76465718D01*
X95844736Y-76515081D01*
X95553637Y-76806181D01*
X95513409Y-76833061D01*
X95465956Y-76842500D01*
X93259944Y-76842500D01*
X93212491Y-76833061D01*
X93172263Y-76806181D01*
X92871262Y-76505180D01*
X92841012Y-76455817D01*
X92836470Y-76398101D01*
X92858625Y-76344614D01*
X92902648Y-76307014D01*
X92958943Y-76293499D01*
X93539809Y-76293499D01*
X93591202Y-76288249D01*
X93642597Y-76282999D01*
X93809134Y-76227814D01*
X93958456Y-76135712D01*
X94016671Y-76077496D01*
X94061017Y-76048998D01*
X94113196Y-76041495D01*
X94163777Y-76056346D01*
X94203618Y-76090868D01*
X94255810Y-76160588D01*
X94370910Y-76246752D01*
X94505624Y-76296997D01*
X94565176Y-76303400D01*
X95113000Y-76303400D01*
X95113000Y-73303400D01*
X94565176Y-73303400D01*
X94505624Y-73309802D01*
X94370906Y-73360049D01*
X94370243Y-73360546D01*
X94316497Y-73383560D01*
X94273723Y-73380500D01*
X90450400Y-73380500D01*
X90388400Y-73363887D01*
X90343013Y-73318500D01*
X90326400Y-73256500D01*
X90326400Y-72043001D01*
X90051421Y-72043001D01*
X89948704Y-72053493D01*
X89782279Y-72108641D01*
X89725996Y-72143358D01*
X89663604Y-72161789D01*
X89600467Y-72146096D01*
X89553966Y-72100598D01*
X89538307Y-72043000D01*
X90826400Y-72043000D01*
X90826400Y-72880500D01*
X92764800Y-72880500D01*
X92764800Y-72043001D01*
X92489821Y-72043001D01*
X92387104Y-72053493D01*
X92220677Y-72108642D01*
X92071454Y-72200683D01*
X91947484Y-72324653D01*
X91901139Y-72399792D01*
X91856032Y-72442972D01*
X91795600Y-72458695D01*
X91735168Y-72442972D01*
X91690061Y-72399792D01*
X91643715Y-72324653D01*
X91519745Y-72200683D01*
X91370522Y-72108642D01*
X91204096Y-72053493D01*
X91101379Y-72043000D01*
X93264800Y-72043000D01*
X93264800Y-72880500D01*
X94239799Y-72880500D01*
X94239799Y-72743021D01*
X94229306Y-72640304D01*
X94174157Y-72473877D01*
X94082116Y-72324654D01*
X93958145Y-72200683D01*
X93808922Y-72108642D01*
X93642496Y-72053493D01*
X93539779Y-72043000D01*
X93264800Y-72043000D01*
X91101379Y-72043000D01*
X90826400Y-72043000D01*
X89538307Y-72043000D01*
X89536899Y-72037821D01*
X89536899Y-69051528D01*
X89530491Y-68991917D01*
X89480196Y-68857069D01*
X89393946Y-68741854D01*
X89278731Y-68655604D01*
X89143883Y-68605309D01*
X89084273Y-68598900D01*
X89084269Y-68598900D01*
X86988530Y-68598900D01*
X86928915Y-68605309D01*
X86794069Y-68655604D01*
X86678854Y-68741854D01*
X86592604Y-68857068D01*
X86542309Y-68991915D01*
X86542309Y-68991917D01*
X86536009Y-69050518D01*
X86535900Y-69051530D01*
X86535900Y-73747269D01*
X86542309Y-73806884D01*
X86557869Y-73848601D01*
X86592604Y-73941731D01*
X86678854Y-74056946D01*
X86794069Y-74143196D01*
X86928917Y-74193491D01*
X86988527Y-74199900D01*
X89084272Y-74199899D01*
X89143883Y-74193491D01*
X89278731Y-74143196D01*
X89393946Y-74056946D01*
X89409110Y-74036689D01*
X89448947Y-74002169D01*
X89499529Y-73987316D01*
X89551709Y-73994818D01*
X89596057Y-74023319D01*
X89633054Y-74060316D01*
X89636056Y-74062168D01*
X89679235Y-74107274D01*
X89694958Y-74167704D01*
X89679237Y-74228135D01*
X89636059Y-74273242D01*
X89632744Y-74275286D01*
X89508688Y-74399342D01*
X89416586Y-74548665D01*
X89361400Y-74715202D01*
X89350900Y-74817990D01*
X89350900Y-75593008D01*
X89361400Y-75695796D01*
X89416586Y-75862334D01*
X89508688Y-76011657D01*
X89632742Y-76135711D01*
X89673075Y-76160588D01*
X89782066Y-76227814D01*
X89893416Y-76264712D01*
X89948602Y-76282999D01*
X89958129Y-76283972D01*
X90051391Y-76293500D01*
X90617855Y-76293499D01*
X90665308Y-76302938D01*
X90705536Y-76329818D01*
X92401824Y-78026106D01*
X92406958Y-78031559D01*
X92447034Y-78076795D01*
X92496784Y-78111134D01*
X92502782Y-78115548D01*
X92550376Y-78152836D01*
X92559713Y-78157038D01*
X92579252Y-78168058D01*
X92587673Y-78173871D01*
X92643669Y-78195107D01*
X92644175Y-78195299D01*
X92651096Y-78198165D01*
X92706210Y-78222971D01*
X92716272Y-78224814D01*
X92737885Y-78230839D01*
X92747457Y-78234470D01*
X92807471Y-78241756D01*
X92814839Y-78242877D01*
X92874300Y-78253774D01*
X92934614Y-78250125D01*
X92942100Y-78249900D01*
X95766237Y-78249900D01*
X95783800Y-78249900D01*
X95791285Y-78250125D01*
X95851600Y-78253774D01*
X95861657Y-78251931D01*
X95884009Y-78249900D01*
X102438600Y-78249900D01*
X102446085Y-78250125D01*
X102506400Y-78253774D01*
X102565858Y-78242877D01*
X102573222Y-78241757D01*
X102633243Y-78234470D01*
X102642808Y-78230841D01*
X102664436Y-78224811D01*
X102674490Y-78222970D01*
X102674491Y-78222969D01*
X102674493Y-78222969D01*
X102729599Y-78198168D01*
X102736513Y-78195303D01*
X102793027Y-78173871D01*
X102801439Y-78168063D01*
X102820994Y-78157034D01*
X102830325Y-78152836D01*
X102877938Y-78115531D01*
X102883910Y-78111137D01*
X102933666Y-78076795D01*
X102973756Y-78031541D01*
X102978859Y-78026121D01*
X105893937Y-75111043D01*
X105946398Y-75079832D01*
X106007397Y-75077436D01*
X106204352Y-75119300D01*
X106204354Y-75119300D01*
X106393646Y-75119300D01*
X106393648Y-75119300D01*
X106517083Y-75093062D01*
X106578803Y-75079944D01*
X106751730Y-75002951D01*
X106904871Y-74891688D01*
X107031533Y-74751016D01*
X107126179Y-74587084D01*
X107184674Y-74407056D01*
X107204460Y-74218800D01*
X107184674Y-74030544D01*
X107126179Y-73850516D01*
X107126179Y-73850515D01*
X107031533Y-73686583D01*
X106904870Y-73545910D01*
X106751730Y-73434648D01*
X106578802Y-73357655D01*
X106393648Y-73318300D01*
X106393646Y-73318300D01*
X106204354Y-73318300D01*
X106204352Y-73318300D01*
X106019197Y-73357655D01*
X105846269Y-73434648D01*
X105761204Y-73496452D01*
X105710667Y-73518104D01*
X105688765Y-73522117D01*
X105681366Y-73523243D01*
X105645851Y-73527555D01*
X105621357Y-73530530D01*
X105621355Y-73530530D01*
X105621352Y-73530531D01*
X105611776Y-73534162D01*
X105590174Y-73540184D01*
X105580110Y-73542028D01*
X105524990Y-73566835D01*
X105518075Y-73569699D01*
X105461571Y-73591129D01*
X105453147Y-73596943D01*
X105433618Y-73607958D01*
X105424274Y-73612164D01*
X105376685Y-73649447D01*
X105370655Y-73653884D01*
X105320932Y-73688205D01*
X105280858Y-73733438D01*
X105275726Y-73738890D01*
X104559917Y-74454699D01*
X104506068Y-74486313D01*
X104443640Y-74487676D01*
X104388463Y-74458441D01*
X104354531Y-74406023D01*
X104309214Y-74269266D01*
X104242567Y-74161214D01*
X104217111Y-74119942D01*
X104093059Y-73995890D01*
X104093056Y-73995888D01*
X104089744Y-73993845D01*
X104046563Y-73948738D01*
X104030840Y-73888304D01*
X104046564Y-73827871D01*
X104089748Y-73782764D01*
X104092748Y-73780913D01*
X104216716Y-73656945D01*
X104308757Y-73507722D01*
X104363906Y-73341296D01*
X104374400Y-73238579D01*
X104374400Y-73198800D01*
X109025800Y-73198800D01*
X109025800Y-73796624D01*
X109032202Y-73856175D01*
X109082447Y-73990889D01*
X109168611Y-74105988D01*
X109283710Y-74192152D01*
X109418424Y-74242397D01*
X109477976Y-74248800D01*
X109655800Y-74248800D01*
X109655800Y-73198800D01*
X110155800Y-73198800D01*
X110155800Y-74248800D01*
X110333624Y-74248800D01*
X110393175Y-74242397D01*
X110527889Y-74192152D01*
X110642988Y-74105988D01*
X110729152Y-73990889D01*
X110779397Y-73856175D01*
X110785800Y-73796624D01*
X110785800Y-73198800D01*
X110155800Y-73198800D01*
X109655800Y-73198800D01*
X109025800Y-73198800D01*
X104374400Y-73198800D01*
X104374400Y-73101100D01*
X103023400Y-73101100D01*
X102961400Y-73084487D01*
X102916013Y-73039100D01*
X102899400Y-72977100D01*
X102899400Y-72698800D01*
X109025800Y-72698800D01*
X109655800Y-72698800D01*
X109655800Y-71648800D01*
X110155800Y-71648800D01*
X110155800Y-72698800D01*
X110785800Y-72698800D01*
X110785800Y-72640000D01*
X125764400Y-72640000D01*
X125764400Y-73237824D01*
X125770802Y-73297375D01*
X125821047Y-73432089D01*
X125907211Y-73547188D01*
X126022310Y-73633352D01*
X126157024Y-73683597D01*
X126216576Y-73690000D01*
X126394400Y-73690000D01*
X126394400Y-72640000D01*
X126894400Y-72640000D01*
X126894400Y-73690000D01*
X127072224Y-73690000D01*
X127131775Y-73683597D01*
X127266489Y-73633352D01*
X127381588Y-73547188D01*
X127467752Y-73432089D01*
X127517997Y-73297375D01*
X127524400Y-73237824D01*
X127524400Y-72640000D01*
X126894400Y-72640000D01*
X126394400Y-72640000D01*
X125764400Y-72640000D01*
X110785800Y-72640000D01*
X110785800Y-72140000D01*
X125764400Y-72140000D01*
X126394400Y-72140000D01*
X126394400Y-71090000D01*
X126894400Y-71090000D01*
X126894400Y-72140000D01*
X127524400Y-72140000D01*
X127524400Y-71542176D01*
X127517997Y-71482624D01*
X127467752Y-71347910D01*
X127381588Y-71232811D01*
X127266489Y-71146647D01*
X127131775Y-71096402D01*
X127072224Y-71090000D01*
X126894400Y-71090000D01*
X126394400Y-71090000D01*
X126216576Y-71090000D01*
X126157024Y-71096402D01*
X126022310Y-71146647D01*
X125907211Y-71232811D01*
X125821047Y-71347910D01*
X125770802Y-71482624D01*
X125764400Y-71542176D01*
X125764400Y-72140000D01*
X110785800Y-72140000D01*
X110785800Y-72100976D01*
X110779397Y-72041424D01*
X110729152Y-71906710D01*
X110642988Y-71791611D01*
X110527889Y-71705447D01*
X110393175Y-71655202D01*
X110333624Y-71648800D01*
X110155800Y-71648800D01*
X109655800Y-71648800D01*
X109477976Y-71648800D01*
X109418424Y-71655202D01*
X109283710Y-71705447D01*
X109168611Y-71791611D01*
X109082447Y-71906710D01*
X109032202Y-72041424D01*
X109025800Y-72100976D01*
X109025800Y-72698800D01*
X102899400Y-72698800D01*
X102899400Y-71763601D01*
X102624421Y-71763601D01*
X102521703Y-71774093D01*
X102453886Y-71796566D01*
X102388397Y-71799998D01*
X102330315Y-71769548D01*
X102326646Y-71763600D01*
X103399400Y-71763600D01*
X103399400Y-72601100D01*
X104374399Y-72601100D01*
X104374399Y-72463621D01*
X104363906Y-72360904D01*
X104308757Y-72194477D01*
X104216716Y-72045254D01*
X104092745Y-71921283D01*
X103943522Y-71829242D01*
X103777096Y-71774093D01*
X103674379Y-71763600D01*
X103399400Y-71763600D01*
X102326646Y-71763600D01*
X102295887Y-71713732D01*
X102294743Y-71648162D01*
X102327201Y-71591180D01*
X103095922Y-70822458D01*
X103101360Y-70817340D01*
X103146595Y-70777266D01*
X103180944Y-70727500D01*
X103185334Y-70721534D01*
X103222636Y-70673924D01*
X103226833Y-70664598D01*
X103237858Y-70645047D01*
X103243671Y-70636627D01*
X103265108Y-70580097D01*
X103267958Y-70573218D01*
X103292771Y-70518090D01*
X103294613Y-70508035D01*
X103300640Y-70486413D01*
X103304270Y-70476843D01*
X103311557Y-70416822D01*
X103312682Y-70409433D01*
X103323574Y-70350002D01*
X103319926Y-70289686D01*
X103319700Y-70282200D01*
X103319700Y-67379808D01*
X112134300Y-67379808D01*
X112144800Y-67482596D01*
X112199986Y-67649134D01*
X112292086Y-67798454D01*
X112292087Y-67798455D01*
X112292088Y-67798456D01*
X112367120Y-67873488D01*
X112395959Y-67918756D01*
X112402966Y-67971973D01*
X112386827Y-68023165D01*
X112380621Y-68033914D01*
X112322126Y-68213942D01*
X112302340Y-68402200D01*
X112322126Y-68590457D01*
X112380620Y-68770484D01*
X112475266Y-68934416D01*
X112601929Y-69075089D01*
X112755069Y-69186351D01*
X112927997Y-69263344D01*
X113113152Y-69302700D01*
X113113154Y-69302700D01*
X113302446Y-69302700D01*
X113302448Y-69302700D01*
X113442146Y-69273006D01*
X113487603Y-69263344D01*
X113660530Y-69186351D01*
X113813671Y-69075088D01*
X113940333Y-68934416D01*
X114034979Y-68770484D01*
X114093474Y-68590456D01*
X114113260Y-68402200D01*
X114093474Y-68213944D01*
X114071416Y-68146059D01*
X114066393Y-68091676D01*
X114085223Y-68040409D01*
X114124248Y-68002207D01*
X114253456Y-67922512D01*
X114377512Y-67798456D01*
X114469614Y-67649134D01*
X114501292Y-67553534D01*
X114534429Y-67501852D01*
X114588299Y-67472400D01*
X114649694Y-67472400D01*
X114703564Y-67501852D01*
X114736703Y-67553536D01*
X114791242Y-67718122D01*
X114883283Y-67867345D01*
X115007254Y-67991316D01*
X115156477Y-68083357D01*
X115322903Y-68138506D01*
X115425621Y-68149000D01*
X115675600Y-68149000D01*
X115675600Y-67324000D01*
X116175600Y-67324000D01*
X116175600Y-68148999D01*
X116425579Y-68148999D01*
X116528295Y-68138506D01*
X116694722Y-68083357D01*
X116843945Y-67991316D01*
X116967916Y-67867345D01*
X117059957Y-67718122D01*
X117115106Y-67551696D01*
X117125600Y-67448979D01*
X117125600Y-67324000D01*
X116175600Y-67324000D01*
X115675600Y-67324000D01*
X115675600Y-66948000D01*
X115692213Y-66886000D01*
X115737600Y-66840613D01*
X115799600Y-66824000D01*
X117125599Y-66824000D01*
X117125599Y-66699021D01*
X117115106Y-66596304D01*
X117059957Y-66429877D01*
X116967916Y-66280654D01*
X116843944Y-66156682D01*
X116840943Y-66154831D01*
X116797761Y-66109723D01*
X116782040Y-66049289D01*
X116797766Y-65988856D01*
X116840947Y-65943752D01*
X116844256Y-65941712D01*
X116968312Y-65817656D01*
X117060414Y-65668334D01*
X117115599Y-65501797D01*
X117126100Y-65399009D01*
X117126099Y-64840800D01*
X117621200Y-64840800D01*
X118571200Y-64840800D01*
X118571200Y-63990801D01*
X118321221Y-63990801D01*
X118218504Y-64001293D01*
X118052077Y-64056442D01*
X117902854Y-64148483D01*
X117778883Y-64272454D01*
X117686842Y-64421677D01*
X117631693Y-64588103D01*
X117621200Y-64690821D01*
X117621200Y-64840800D01*
X117126099Y-64840800D01*
X117126099Y-64648992D01*
X117115599Y-64546203D01*
X117060414Y-64379666D01*
X116990712Y-64266661D01*
X116968311Y-64230342D01*
X116844257Y-64106288D01*
X116694934Y-64014186D01*
X116528397Y-63959000D01*
X116425609Y-63948500D01*
X115425591Y-63948500D01*
X115322803Y-63959000D01*
X115156265Y-64014186D01*
X115006945Y-64106286D01*
X114971167Y-64142065D01*
X114882888Y-64230344D01*
X114882886Y-64230346D01*
X114873452Y-64239781D01*
X114833223Y-64266661D01*
X114785770Y-64276100D01*
X114517624Y-64276100D01*
X114457192Y-64260377D01*
X114412085Y-64217196D01*
X114377511Y-64161142D01*
X114253457Y-64037088D01*
X114104134Y-63944986D01*
X113937597Y-63889800D01*
X113834809Y-63879300D01*
X112834791Y-63879300D01*
X112732003Y-63889800D01*
X112565465Y-63944986D01*
X112416142Y-64037088D01*
X112292088Y-64161142D01*
X112199986Y-64310465D01*
X112144800Y-64477002D01*
X112134300Y-64579790D01*
X112134300Y-65379808D01*
X112144800Y-65482596D01*
X112199986Y-65649134D01*
X112292086Y-65798454D01*
X112292087Y-65798455D01*
X112292088Y-65798456D01*
X112385751Y-65892119D01*
X112417844Y-65947705D01*
X112417844Y-66011892D01*
X112385751Y-66067480D01*
X112292087Y-66161144D01*
X112199986Y-66310465D01*
X112144800Y-66477002D01*
X112134300Y-66579790D01*
X112134300Y-67379808D01*
X103319700Y-67379808D01*
X103319700Y-49714276D01*
X103335954Y-49652902D01*
X103380455Y-49607617D01*
X103441536Y-49590295D01*
X103503185Y-49605476D01*
X103549239Y-49649180D01*
X103603688Y-49737457D01*
X103727742Y-49861511D01*
X103783796Y-49896085D01*
X103826977Y-49941192D01*
X103842700Y-50001624D01*
X103842700Y-50298006D01*
X103826087Y-50360006D01*
X103770020Y-50457115D01*
X103711526Y-50637142D01*
X103691740Y-50825400D01*
X103711526Y-51013657D01*
X103770020Y-51193684D01*
X103864666Y-51357616D01*
X103991329Y-51498289D01*
X104144469Y-51609551D01*
X104317397Y-51686544D01*
X104502552Y-51725900D01*
X104502554Y-51725900D01*
X104691846Y-51725900D01*
X104691848Y-51725900D01*
X104815283Y-51699662D01*
X104877003Y-51686544D01*
X105049930Y-51609551D01*
X105145659Y-51540000D01*
X105203070Y-51498289D01*
X105329733Y-51357616D01*
X105424379Y-51193684D01*
X105455758Y-51097110D01*
X105482874Y-51013656D01*
X105502660Y-50825400D01*
X105482874Y-50637144D01*
X105424379Y-50457116D01*
X105424379Y-50457115D01*
X105329733Y-50293183D01*
X105281951Y-50240117D01*
X105258336Y-50201582D01*
X105250100Y-50157144D01*
X105250100Y-50001624D01*
X105265823Y-49941192D01*
X105309004Y-49896085D01*
X105365054Y-49861513D01*
X105365053Y-49861513D01*
X105365056Y-49861512D01*
X105458720Y-49767847D01*
X105514306Y-49735755D01*
X105578494Y-49735755D01*
X105634079Y-49767847D01*
X105711919Y-49845687D01*
X105727745Y-49861513D01*
X105783796Y-49896085D01*
X105826977Y-49941192D01*
X105842700Y-50001624D01*
X105842700Y-61944400D01*
X105842474Y-61951886D01*
X105838825Y-62012200D01*
X105849715Y-62071622D01*
X105850842Y-62079025D01*
X105858130Y-62139042D01*
X105861760Y-62148614D01*
X105867787Y-62170233D01*
X105869630Y-62180291D01*
X105894428Y-62235391D01*
X105897293Y-62242308D01*
X105918728Y-62298826D01*
X105924539Y-62307244D01*
X105935565Y-62326795D01*
X105939764Y-62336126D01*
X105977047Y-62383713D01*
X105981484Y-62389743D01*
X106004985Y-62423791D01*
X106015806Y-62439467D01*
X106061030Y-62479532D01*
X106066484Y-62484666D01*
X108988981Y-65407163D01*
X109015861Y-65447391D01*
X109025300Y-65494844D01*
X109025300Y-66176669D01*
X109031709Y-66236284D01*
X109036922Y-66250261D01*
X109082004Y-66371131D01*
X109168254Y-66486346D01*
X109283469Y-66572596D01*
X109418317Y-66622891D01*
X109477927Y-66629300D01*
X110333672Y-66629299D01*
X110393283Y-66622891D01*
X110528131Y-66572596D01*
X110643346Y-66486346D01*
X110729596Y-66371131D01*
X110779891Y-66236283D01*
X110786300Y-66176673D01*
X110786299Y-64480928D01*
X110779891Y-64421317D01*
X110729596Y-64286469D01*
X110643346Y-64171254D01*
X110528131Y-64085004D01*
X110393283Y-64034709D01*
X110333673Y-64028300D01*
X110333669Y-64028300D01*
X109651844Y-64028300D01*
X109604391Y-64018861D01*
X109564163Y-63991981D01*
X108032182Y-62460000D01*
X111310000Y-62460000D01*
X111310000Y-63007824D01*
X111316402Y-63067375D01*
X111366647Y-63202089D01*
X111452811Y-63317188D01*
X111567910Y-63403352D01*
X111702624Y-63453597D01*
X111762176Y-63460000D01*
X112010000Y-63460000D01*
X112010000Y-62460000D01*
X111310000Y-62460000D01*
X108032182Y-62460000D01*
X107532182Y-61960000D01*
X111310000Y-61960000D01*
X112010000Y-61960000D01*
X112010000Y-60960000D01*
X111762176Y-60960000D01*
X111702624Y-60966402D01*
X111567910Y-61016647D01*
X111452811Y-61102811D01*
X111366647Y-61217910D01*
X111316402Y-61352624D01*
X111310000Y-61412176D01*
X111310000Y-61960000D01*
X107532182Y-61960000D01*
X107286419Y-61714237D01*
X107259539Y-61674009D01*
X107250100Y-61626556D01*
X107250100Y-50001624D01*
X107265823Y-49941192D01*
X107309004Y-49896085D01*
X107338707Y-49877764D01*
X107365056Y-49861512D01*
X107489112Y-49737456D01*
X107581214Y-49588134D01*
X107636399Y-49421597D01*
X107646900Y-49318809D01*
X107646899Y-48764842D01*
X107656338Y-48717390D01*
X107683215Y-48677165D01*
X107757821Y-48602559D01*
X107807182Y-48572311D01*
X107864897Y-48567769D01*
X107918385Y-48589923D01*
X107955984Y-48633946D01*
X107969500Y-48690240D01*
X107969500Y-48757868D01*
X107975909Y-48817485D01*
X107988658Y-48851667D01*
X107996476Y-48894999D01*
X107988659Y-48938330D01*
X107975909Y-48972515D01*
X107969500Y-49032130D01*
X107969500Y-50027869D01*
X107975909Y-50087485D01*
X107988658Y-50121667D01*
X107996476Y-50164999D01*
X107988659Y-50208330D01*
X107975909Y-50242515D01*
X107969500Y-50302130D01*
X107969500Y-51297869D01*
X107975909Y-51357485D01*
X107988658Y-51391666D01*
X107996476Y-51434997D01*
X107988659Y-51478328D01*
X107975909Y-51512513D01*
X107969500Y-51572130D01*
X107969500Y-52567869D01*
X107975909Y-52627485D01*
X107988658Y-52661667D01*
X107996476Y-52704999D01*
X107988659Y-52748330D01*
X107975909Y-52782515D01*
X107969500Y-52842130D01*
X107969500Y-53837869D01*
X107975909Y-53897485D01*
X107988658Y-53931666D01*
X107996476Y-53974997D01*
X107988659Y-54018328D01*
X107975909Y-54052513D01*
X107969500Y-54112130D01*
X107969500Y-55107869D01*
X107975909Y-55167485D01*
X107988658Y-55201666D01*
X107996476Y-55244997D01*
X107988659Y-55288328D01*
X107975909Y-55322513D01*
X107969500Y-55382130D01*
X107969500Y-56377869D01*
X107975909Y-56437485D01*
X107988658Y-56471666D01*
X107996476Y-56514997D01*
X107988659Y-56558328D01*
X107975909Y-56592513D01*
X107969500Y-56652130D01*
X107969500Y-57647869D01*
X107975909Y-57707485D01*
X107988658Y-57741667D01*
X107996476Y-57784999D01*
X107988659Y-57828330D01*
X107975909Y-57862515D01*
X107969500Y-57922130D01*
X107969500Y-58917869D01*
X107975909Y-58977485D01*
X107988658Y-59011667D01*
X107996476Y-59054999D01*
X107988659Y-59098330D01*
X107975909Y-59132515D01*
X107969500Y-59192130D01*
X107969500Y-60187869D01*
X107975909Y-60247485D01*
X107988658Y-60281666D01*
X107996476Y-60324997D01*
X107988659Y-60368328D01*
X107975909Y-60402513D01*
X107969500Y-60462130D01*
X107969500Y-61457869D01*
X107973193Y-61492216D01*
X107975909Y-61517483D01*
X108026204Y-61652331D01*
X108112454Y-61767546D01*
X108227669Y-61853796D01*
X108362517Y-61904091D01*
X108422127Y-61910500D01*
X110017872Y-61910499D01*
X110077483Y-61904091D01*
X110212331Y-61853796D01*
X110327546Y-61767546D01*
X110413796Y-61652331D01*
X110464091Y-61517483D01*
X110470500Y-61457873D01*
X110470499Y-60462128D01*
X110464091Y-60402517D01*
X110451340Y-60368331D01*
X110443523Y-60324999D01*
X110451342Y-60281665D01*
X110464090Y-60247485D01*
X110464089Y-60247485D01*
X110464091Y-60247483D01*
X110470500Y-60187873D01*
X110470499Y-59192128D01*
X110464091Y-59132517D01*
X110451340Y-59098330D01*
X110443523Y-59055000D01*
X110451342Y-59011665D01*
X110464090Y-58977485D01*
X110464089Y-58977485D01*
X110464091Y-58977483D01*
X110470500Y-58917873D01*
X110470499Y-57977699D01*
X110487112Y-57915700D01*
X110532499Y-57870313D01*
X110594499Y-57853700D01*
X117134756Y-57853700D01*
X117182209Y-57863139D01*
X117222437Y-57890019D01*
X118758827Y-59426410D01*
X118783066Y-59460707D01*
X118794467Y-59501128D01*
X118799126Y-59545457D01*
X118857620Y-59725484D01*
X118866059Y-59740100D01*
X118882672Y-59802100D01*
X118866059Y-59864100D01*
X118820672Y-59909487D01*
X118758672Y-59926100D01*
X114350395Y-59926100D01*
X114342908Y-59925874D01*
X114282597Y-59922225D01*
X114223171Y-59933116D01*
X114215768Y-59934243D01*
X114155752Y-59941530D01*
X114146176Y-59945162D01*
X114124574Y-59951184D01*
X114114510Y-59953028D01*
X114059390Y-59977835D01*
X114052475Y-59980699D01*
X113995971Y-60002129D01*
X113987547Y-60007943D01*
X113968018Y-60018958D01*
X113958674Y-60023164D01*
X113911085Y-60060447D01*
X113905055Y-60064884D01*
X113855332Y-60099205D01*
X113815258Y-60144438D01*
X113810126Y-60149890D01*
X113050090Y-60909926D01*
X113044639Y-60915058D01*
X113015224Y-60941119D01*
X112976326Y-60964488D01*
X112937617Y-60978925D01*
X112894284Y-60986743D01*
X112850952Y-60978925D01*
X112817377Y-60966402D01*
X112757824Y-60960000D01*
X112510000Y-60960000D01*
X112510000Y-63460000D01*
X112757824Y-63460000D01*
X112817376Y-63453597D01*
X112850949Y-63441075D01*
X112894284Y-63433256D01*
X112937618Y-63441074D01*
X112961953Y-63450151D01*
X112971192Y-63453597D01*
X112972517Y-63454091D01*
X113032127Y-63460500D01*
X114027872Y-63460499D01*
X114087483Y-63454091D01*
X114121664Y-63441341D01*
X114164998Y-63433523D01*
X114208332Y-63441341D01*
X114242517Y-63454091D01*
X114302127Y-63460500D01*
X115297872Y-63460499D01*
X115357483Y-63454091D01*
X115391664Y-63441341D01*
X115434998Y-63433523D01*
X115478332Y-63441341D01*
X115512517Y-63454091D01*
X115572127Y-63460500D01*
X116567872Y-63460499D01*
X116627483Y-63454091D01*
X116661664Y-63441341D01*
X116704998Y-63433523D01*
X116748332Y-63441341D01*
X116782517Y-63454091D01*
X116842127Y-63460500D01*
X117837872Y-63460499D01*
X117897483Y-63454091D01*
X117931664Y-63441341D01*
X117974998Y-63433523D01*
X118018332Y-63441341D01*
X118052517Y-63454091D01*
X118112127Y-63460500D01*
X119107872Y-63460499D01*
X119167483Y-63454091D01*
X119201664Y-63441341D01*
X119244998Y-63433523D01*
X119288332Y-63441341D01*
X119322517Y-63454091D01*
X119382127Y-63460500D01*
X120377872Y-63460499D01*
X120437483Y-63454091D01*
X120471664Y-63441341D01*
X120514998Y-63433523D01*
X120558332Y-63441341D01*
X120592517Y-63454091D01*
X120652127Y-63460500D01*
X121647872Y-63460499D01*
X121707483Y-63454091D01*
X121741664Y-63441341D01*
X121784998Y-63433523D01*
X121828332Y-63441341D01*
X121862517Y-63454091D01*
X121922127Y-63460500D01*
X122862300Y-63460499D01*
X122924300Y-63477112D01*
X122969687Y-63522499D01*
X122986300Y-63584499D01*
X122986300Y-63956261D01*
X122967839Y-64021357D01*
X122893386Y-64142065D01*
X122862490Y-64235304D01*
X122836611Y-64279629D01*
X122794999Y-64309677D01*
X122744784Y-64320300D01*
X122444422Y-64320300D01*
X122383990Y-64304577D01*
X122338883Y-64261396D01*
X122338254Y-64260377D01*
X122307000Y-64209705D01*
X122251511Y-64119742D01*
X122127457Y-63995688D01*
X121978134Y-63903586D01*
X121811597Y-63848400D01*
X121708809Y-63837900D01*
X120708791Y-63837900D01*
X120606003Y-63848400D01*
X120439465Y-63903586D01*
X120290142Y-63995688D01*
X120166088Y-64119742D01*
X120073245Y-64270267D01*
X120028137Y-64313449D01*
X119967705Y-64329171D01*
X119907272Y-64313447D01*
X119874447Y-64282022D01*
X119873766Y-64282704D01*
X119739545Y-64148483D01*
X119590322Y-64056442D01*
X119423896Y-64001293D01*
X119321179Y-63990800D01*
X119071200Y-63990800D01*
X119071200Y-65216800D01*
X119054587Y-65278800D01*
X119009200Y-65324187D01*
X118947200Y-65340800D01*
X117621201Y-65340800D01*
X117621201Y-65490779D01*
X117631693Y-65593495D01*
X117686842Y-65759922D01*
X117778883Y-65909145D01*
X117872503Y-66002765D01*
X117904597Y-66058352D01*
X117904597Y-66122539D01*
X117872504Y-66178127D01*
X117778487Y-66272144D01*
X117686386Y-66421465D01*
X117631200Y-66588002D01*
X117620700Y-66690790D01*
X117620700Y-67490808D01*
X117631200Y-67593596D01*
X117686386Y-67760134D01*
X117778488Y-67909457D01*
X117902542Y-68033511D01*
X117911279Y-68038900D01*
X118051866Y-68125614D01*
X118163216Y-68162512D01*
X118218402Y-68180799D01*
X118228902Y-68181871D01*
X118321191Y-68191300D01*
X119321208Y-68191299D01*
X119423997Y-68180799D01*
X119590534Y-68125614D01*
X119739856Y-68033512D01*
X119863912Y-67909456D01*
X119956014Y-67760134D01*
X119956015Y-67760129D01*
X119956460Y-67759409D01*
X120001565Y-67716229D01*
X120061995Y-67700505D01*
X120122426Y-67716225D01*
X120155123Y-67747523D01*
X120155839Y-67746808D01*
X120290142Y-67881111D01*
X120322235Y-67900906D01*
X120439466Y-67973214D01*
X120537976Y-68005857D01*
X120606002Y-68028399D01*
X120616503Y-68029471D01*
X120708791Y-68038900D01*
X121708808Y-68038899D01*
X121811597Y-68028399D01*
X121978134Y-67973214D01*
X122127456Y-67881112D01*
X122251512Y-67757056D01*
X122343614Y-67607734D01*
X122398799Y-67441197D01*
X122409300Y-67338409D01*
X122409300Y-67061400D01*
X122828201Y-67061400D01*
X122828201Y-67211379D01*
X122838693Y-67314095D01*
X122893842Y-67480522D01*
X122985883Y-67629745D01*
X123109854Y-67753716D01*
X123259077Y-67845757D01*
X123425503Y-67900906D01*
X123528221Y-67911400D01*
X123778200Y-67911400D01*
X123778200Y-67061400D01*
X122828201Y-67061400D01*
X122409300Y-67061400D01*
X122409299Y-66588392D01*
X122407685Y-66572596D01*
X122398799Y-66485603D01*
X122377546Y-66421466D01*
X122343614Y-66319066D01*
X122255785Y-66176672D01*
X122251511Y-66169742D01*
X122127455Y-66045686D01*
X122124616Y-66043935D01*
X122081437Y-65998826D01*
X122065717Y-65938393D01*
X122081443Y-65877962D01*
X122124624Y-65832858D01*
X122127456Y-65831112D01*
X122194551Y-65764016D01*
X122234777Y-65737139D01*
X122282230Y-65727700D01*
X122951876Y-65727700D01*
X123008171Y-65741215D01*
X123052194Y-65778815D01*
X123074349Y-65832302D01*
X123069807Y-65890018D01*
X123039557Y-65939381D01*
X122985883Y-65993054D01*
X122893842Y-66142277D01*
X122838693Y-66308703D01*
X122828200Y-66411421D01*
X122828200Y-66561400D01*
X124154200Y-66561400D01*
X124216200Y-66578013D01*
X124261587Y-66623400D01*
X124278200Y-66685400D01*
X124278200Y-67911399D01*
X124528179Y-67911399D01*
X124630895Y-67900906D01*
X124797322Y-67845757D01*
X124946544Y-67753716D01*
X125038357Y-67661903D01*
X125093945Y-67629808D01*
X125158132Y-67629808D01*
X125213720Y-67661902D01*
X129036924Y-71485106D01*
X129042058Y-71490559D01*
X129082134Y-71535795D01*
X129131867Y-71570123D01*
X129137886Y-71574552D01*
X129185475Y-71611836D01*
X129194803Y-71616034D01*
X129214356Y-71627061D01*
X129222773Y-71632871D01*
X129279292Y-71654307D01*
X129286209Y-71657172D01*
X129307585Y-71666792D01*
X129341310Y-71681970D01*
X129351360Y-71683811D01*
X129372989Y-71689841D01*
X129382557Y-71693470D01*
X129425534Y-71698688D01*
X129442563Y-71700756D01*
X129449969Y-71701883D01*
X129509399Y-71712774D01*
X129569713Y-71709125D01*
X129577199Y-71708900D01*
X132219639Y-71708900D01*
X132274911Y-71721900D01*
X132318592Y-71758173D01*
X132350177Y-71799998D01*
X132350575Y-71800524D01*
X132474572Y-71913563D01*
X132510300Y-71971266D01*
X132510300Y-72039134D01*
X132474572Y-72096837D01*
X132350573Y-72209876D01*
X132219287Y-72383728D01*
X132122181Y-72578742D01*
X132062564Y-72788274D01*
X132042464Y-73005200D01*
X132062564Y-73222125D01*
X132122181Y-73431657D01*
X132219287Y-73626671D01*
X132350573Y-73800523D01*
X132442334Y-73884173D01*
X132511568Y-73947288D01*
X132586756Y-73993842D01*
X132696791Y-74061973D01*
X132854619Y-74123116D01*
X132899931Y-74140670D01*
X133114074Y-74180700D01*
X133331924Y-74180700D01*
X133331926Y-74180700D01*
X133546069Y-74140670D01*
X133681496Y-74088204D01*
X133749208Y-74061973D01*
X133749722Y-74061655D01*
X133934432Y-73947288D01*
X134095427Y-73800522D01*
X134226712Y-73626672D01*
X134323817Y-73431659D01*
X134326564Y-73422006D01*
X134383435Y-73222125D01*
X134387440Y-73178900D01*
X134403536Y-73005200D01*
X134383435Y-72788277D01*
X134383435Y-72788274D01*
X134323818Y-72578742D01*
X134226712Y-72383728D01*
X134095426Y-72209876D01*
X133971427Y-72096837D01*
X133935699Y-72039134D01*
X133935699Y-71971266D01*
X133971427Y-71913563D01*
X134095426Y-71800523D01*
X134095427Y-71800522D01*
X134226712Y-71626672D01*
X134323817Y-71431659D01*
X134323818Y-71431657D01*
X134383435Y-71222125D01*
X134390429Y-71146647D01*
X134403536Y-71005200D01*
X134383435Y-70788277D01*
X134383435Y-70788274D01*
X134323818Y-70578742D01*
X134226712Y-70383728D01*
X134095426Y-70209876D01*
X133971055Y-70096498D01*
X133935327Y-70038795D01*
X133935327Y-69970926D01*
X133971056Y-69913223D01*
X134095055Y-69800184D01*
X134226287Y-69626405D01*
X134323348Y-69431478D01*
X134373505Y-69255200D01*
X132072495Y-69255200D01*
X132122651Y-69431478D01*
X132219712Y-69626405D01*
X132350942Y-69800181D01*
X132474944Y-69913223D01*
X132510672Y-69970926D01*
X132510672Y-70038795D01*
X132474944Y-70096498D01*
X132350574Y-70209875D01*
X132318594Y-70252226D01*
X132274911Y-70288500D01*
X132219639Y-70301500D01*
X129895044Y-70301500D01*
X129847591Y-70292061D01*
X129807363Y-70265181D01*
X127270251Y-67728069D01*
X132047500Y-67728069D01*
X132053909Y-67787684D01*
X132058314Y-67799493D01*
X132104204Y-67922531D01*
X132190454Y-68037746D01*
X132271418Y-68098356D01*
X132276504Y-68102163D01*
X132316250Y-68152777D01*
X132325274Y-68216496D01*
X132301148Y-68276156D01*
X132219712Y-68383995D01*
X132122651Y-68578921D01*
X132072494Y-68755199D01*
X132072495Y-68755200D01*
X134373505Y-68755200D01*
X134373505Y-68755199D01*
X134323348Y-68578921D01*
X134226287Y-68383994D01*
X134144852Y-68276157D01*
X134120725Y-68216496D01*
X134129749Y-68152777D01*
X134169493Y-68102164D01*
X134255546Y-68037746D01*
X134341796Y-67922531D01*
X134392091Y-67787683D01*
X134398500Y-67728073D01*
X134398499Y-66878200D01*
X138057940Y-66878200D01*
X138077726Y-67066457D01*
X138136220Y-67246484D01*
X138230866Y-67410416D01*
X138357529Y-67551089D01*
X138510669Y-67662351D01*
X138683597Y-67739344D01*
X138868752Y-67778700D01*
X138868754Y-67778700D01*
X139058046Y-67778700D01*
X139058048Y-67778700D01*
X139181483Y-67752462D01*
X139243203Y-67739344D01*
X139295120Y-67716229D01*
X139320033Y-67705137D01*
X139374206Y-67694472D01*
X139427638Y-67708381D01*
X139469736Y-67744105D01*
X139470203Y-67744729D01*
X139470204Y-67744731D01*
X139537737Y-67834943D01*
X139556454Y-67859946D01*
X139642504Y-67924363D01*
X139682250Y-67974977D01*
X139691274Y-68038696D01*
X139667148Y-68098356D01*
X139585712Y-68206195D01*
X139488651Y-68401121D01*
X139438494Y-68577399D01*
X139438495Y-68577400D01*
X141739505Y-68577400D01*
X141739505Y-68577399D01*
X141689348Y-68401121D01*
X141592287Y-68206194D01*
X141510852Y-68098357D01*
X141486725Y-68038696D01*
X141495749Y-67974977D01*
X141535493Y-67924364D01*
X141621546Y-67859946D01*
X141707796Y-67744731D01*
X141758091Y-67609883D01*
X141764500Y-67550273D01*
X141764499Y-66104528D01*
X141758091Y-66044917D01*
X141707796Y-65910069D01*
X141621546Y-65794854D01*
X141506331Y-65708604D01*
X141371483Y-65658309D01*
X141311873Y-65651900D01*
X141311869Y-65651900D01*
X139866130Y-65651900D01*
X139806515Y-65658309D01*
X139693410Y-65700495D01*
X139671669Y-65708604D01*
X139556454Y-65794854D01*
X139470204Y-65910069D01*
X139456167Y-65947706D01*
X139449757Y-65964891D01*
X139410535Y-66018784D01*
X139349077Y-66044584D01*
X139283140Y-66034837D01*
X139243200Y-66017054D01*
X139058048Y-65977700D01*
X139058046Y-65977700D01*
X138868754Y-65977700D01*
X138868752Y-65977700D01*
X138683597Y-66017055D01*
X138510669Y-66094048D01*
X138357529Y-66205310D01*
X138230866Y-66345983D01*
X138136220Y-66509915D01*
X138077726Y-66689942D01*
X138057940Y-66878200D01*
X134398499Y-66878200D01*
X134398499Y-66282328D01*
X134392091Y-66222717D01*
X134341796Y-66087869D01*
X134255546Y-65972654D01*
X134140331Y-65886404D01*
X134005483Y-65836109D01*
X133945873Y-65829700D01*
X133945869Y-65829700D01*
X132500130Y-65829700D01*
X132440515Y-65836109D01*
X132305669Y-65886404D01*
X132190454Y-65972654D01*
X132104204Y-66087868D01*
X132053909Y-66222716D01*
X132047500Y-66282330D01*
X132047500Y-67728069D01*
X127270251Y-67728069D01*
X126343019Y-66800837D01*
X126316139Y-66760609D01*
X126306700Y-66713156D01*
X126306700Y-66194500D01*
X126323313Y-66132500D01*
X126368700Y-66087113D01*
X126430700Y-66070500D01*
X127072253Y-66070499D01*
X127072272Y-66070499D01*
X127131883Y-66064091D01*
X127266731Y-66013796D01*
X127381946Y-65927546D01*
X127468196Y-65812331D01*
X127518491Y-65677483D01*
X127524900Y-65617873D01*
X127524899Y-63922128D01*
X127518491Y-63862517D01*
X127468196Y-63727669D01*
X127381946Y-63612454D01*
X127381945Y-63612453D01*
X127372833Y-63600281D01*
X127354446Y-63565129D01*
X127348100Y-63525970D01*
X127348100Y-62034499D01*
X127364713Y-61972499D01*
X127410100Y-61927112D01*
X127472100Y-61910499D01*
X127517870Y-61910499D01*
X127517872Y-61910499D01*
X127577483Y-61904091D01*
X127712331Y-61853796D01*
X127827546Y-61767546D01*
X127868087Y-61713389D01*
X127911851Y-61676816D01*
X127967355Y-61663700D01*
X128935496Y-61663700D01*
X128995928Y-61679423D01*
X129041035Y-61722604D01*
X129137288Y-61878657D01*
X129261342Y-62002711D01*
X129312879Y-62034499D01*
X129410666Y-62094814D01*
X129522017Y-62131712D01*
X129577202Y-62149999D01*
X129587702Y-62151071D01*
X129679991Y-62160500D01*
X130480008Y-62160499D01*
X130582797Y-62149999D01*
X130749334Y-62094814D01*
X130898656Y-62002712D01*
X130992320Y-61909047D01*
X131047906Y-61876955D01*
X131112094Y-61876955D01*
X131167679Y-61909047D01*
X131218632Y-61960000D01*
X131261345Y-62002713D01*
X131312879Y-62034499D01*
X131410666Y-62094814D01*
X131522017Y-62131712D01*
X131577202Y-62149999D01*
X131587702Y-62151071D01*
X131679991Y-62160500D01*
X132480008Y-62160499D01*
X132582797Y-62149999D01*
X132749334Y-62094814D01*
X132898656Y-62002712D01*
X133022712Y-61878656D01*
X133114814Y-61729334D01*
X133114814Y-61729333D01*
X133118965Y-61722604D01*
X133164072Y-61679423D01*
X133224504Y-61663700D01*
X133355848Y-61663700D01*
X133394166Y-61669769D01*
X133428732Y-61687381D01*
X133506870Y-61744151D01*
X133506871Y-61744151D01*
X133506872Y-61744152D01*
X133679797Y-61821144D01*
X133864952Y-61860500D01*
X133864954Y-61860500D01*
X134054246Y-61860500D01*
X134054248Y-61860500D01*
X134177683Y-61834262D01*
X134239403Y-61821144D01*
X134412330Y-61744151D01*
X134453503Y-61714237D01*
X134565470Y-61632889D01*
X134692133Y-61492216D01*
X134786779Y-61328284D01*
X134845274Y-61148257D01*
X134849932Y-61103930D01*
X134861332Y-61063507D01*
X134885569Y-61029211D01*
X136119762Y-59795019D01*
X136159991Y-59768139D01*
X136207444Y-59758700D01*
X137600037Y-59758700D01*
X137685163Y-59758700D01*
X138237630Y-59758700D01*
X138286443Y-59768712D01*
X138327373Y-59797130D01*
X138353811Y-59839365D01*
X138403404Y-59972331D01*
X138489654Y-60087546D01*
X138604869Y-60173796D01*
X138739717Y-60224091D01*
X138799327Y-60230500D01*
X140245072Y-60230499D01*
X140304683Y-60224091D01*
X140439531Y-60173796D01*
X140554746Y-60087546D01*
X140640996Y-59972331D01*
X140691291Y-59837483D01*
X140697700Y-59777873D01*
X140697699Y-59357842D01*
X140707138Y-59310390D01*
X140734015Y-59270165D01*
X141703922Y-58300258D01*
X141709360Y-58295140D01*
X141754595Y-58255066D01*
X141788947Y-58205296D01*
X141793346Y-58199320D01*
X141797305Y-58194267D01*
X141845396Y-58157070D01*
X141905390Y-58147205D01*
X141962862Y-58167043D01*
X142003995Y-58211816D01*
X142018900Y-58270760D01*
X142018900Y-68999156D01*
X142009461Y-69046610D01*
X141982582Y-69086835D01*
X141961866Y-69107552D01*
X141948909Y-69120509D01*
X141887755Y-69153956D01*
X141818220Y-69149128D01*
X141762274Y-69107552D01*
X141739505Y-69077400D01*
X139438495Y-69077400D01*
X139488651Y-69253678D01*
X139585712Y-69448605D01*
X139716942Y-69622381D01*
X139840944Y-69735423D01*
X139876672Y-69793126D01*
X139876672Y-69860995D01*
X139840944Y-69918698D01*
X139716573Y-70032076D01*
X139585287Y-70205928D01*
X139488181Y-70400942D01*
X139428564Y-70610474D01*
X139408464Y-70827399D01*
X139428564Y-71044325D01*
X139488181Y-71253857D01*
X139585287Y-71448871D01*
X139716573Y-71622723D01*
X139840572Y-71735763D01*
X139876300Y-71793466D01*
X139876300Y-71861334D01*
X139840572Y-71919037D01*
X139716573Y-72032076D01*
X139585287Y-72205928D01*
X139488181Y-72400942D01*
X139428564Y-72610474D01*
X139408464Y-72827399D01*
X139428564Y-73044325D01*
X139488181Y-73253857D01*
X139585287Y-73448871D01*
X139716573Y-73622723D01*
X139853195Y-73747269D01*
X139877568Y-73769488D01*
X139937965Y-73806884D01*
X140062791Y-73884173D01*
X140229445Y-73948735D01*
X140265931Y-73962870D01*
X140480074Y-74002900D01*
X140697924Y-74002900D01*
X140697926Y-74002900D01*
X140912069Y-73962870D01*
X141064581Y-73903786D01*
X141115208Y-73884173D01*
X141115210Y-73884172D01*
X141300432Y-73769488D01*
X141461427Y-73622722D01*
X141592712Y-73448872D01*
X141689817Y-73253859D01*
X141689818Y-73253857D01*
X141749435Y-73044325D01*
X141755664Y-72977100D01*
X141769536Y-72827400D01*
X141749435Y-72610477D01*
X141749435Y-72610474D01*
X141689818Y-72400942D01*
X141592712Y-72205928D01*
X141461426Y-72032076D01*
X141337427Y-71919037D01*
X141301699Y-71861334D01*
X141301699Y-71793466D01*
X141337427Y-71735763D01*
X141461425Y-71622724D01*
X141466479Y-71616032D01*
X141592712Y-71448872D01*
X141592714Y-71448866D01*
X141594153Y-71446962D01*
X141616632Y-71424080D01*
X141618447Y-71422658D01*
X141651522Y-71396743D01*
X141657510Y-71392337D01*
X141707266Y-71357995D01*
X141747356Y-71312741D01*
X141752459Y-71307321D01*
X143165134Y-69894646D01*
X143214311Y-69864458D01*
X143271829Y-69859796D01*
X143325228Y-69881671D01*
X143362944Y-69925346D01*
X143376809Y-69981362D01*
X143443329Y-78507998D01*
X143427138Y-78570236D01*
X143381949Y-78615994D01*
X143319918Y-78632964D01*
X142319127Y-78637683D01*
X142257438Y-78621584D01*
X142211902Y-78576961D01*
X142194557Y-78515611D01*
X142209987Y-78453752D01*
X142254114Y-78407736D01*
X142278756Y-78392751D01*
X142500378Y-78212448D01*
X142695385Y-78003647D01*
X142698005Y-77999936D01*
X142860141Y-77770240D01*
X142861726Y-77767182D01*
X142991585Y-77516567D01*
X143029417Y-77410115D01*
X143087261Y-77247361D01*
X143145387Y-76967640D01*
X143145388Y-76967636D01*
X143164885Y-76682600D01*
X143145388Y-76397564D01*
X143134385Y-76344614D01*
X143087261Y-76117838D01*
X142991586Y-75848636D01*
X142991585Y-75848633D01*
X142860143Y-75594963D01*
X142860141Y-75594959D01*
X142695386Y-75361553D01*
X142500378Y-75152752D01*
X142449113Y-75111045D01*
X142278756Y-74972449D01*
X142034647Y-74824003D01*
X141772598Y-74710179D01*
X141570709Y-74653612D01*
X141497488Y-74633097D01*
X141214451Y-74594195D01*
X140928749Y-74594195D01*
X140645711Y-74633097D01*
X140508282Y-74671603D01*
X140370602Y-74710179D01*
X140370600Y-74710179D01*
X140370599Y-74710180D01*
X140108552Y-74824003D01*
X139864445Y-74972448D01*
X139642821Y-75152752D01*
X139447813Y-75361553D01*
X139283058Y-75594959D01*
X139151613Y-75848636D01*
X139055938Y-76117838D01*
X138997812Y-76397559D01*
X138978314Y-76682600D01*
X138997812Y-76967640D01*
X139055938Y-77247361D01*
X139151613Y-77516563D01*
X139283058Y-77770240D01*
X139447813Y-78003646D01*
X139629485Y-78198168D01*
X139642822Y-78212448D01*
X139864444Y-78392751D01*
X139908272Y-78419403D01*
X139952285Y-78465214D01*
X139967835Y-78526810D01*
X139950840Y-78588024D01*
X139905760Y-78632786D01*
X139844429Y-78649350D01*
X78927154Y-78936584D01*
X78864544Y-78919958D01*
X78818862Y-78874027D01*
X78802575Y-78811331D01*
X78811411Y-77939777D01*
X78825773Y-77883099D01*
X78864514Y-77839301D01*
X78919018Y-77818126D01*
X78977167Y-77824282D01*
X79026028Y-77856401D01*
X79103896Y-77939777D01*
X79216222Y-78060048D01*
X79437844Y-78240351D01*
X79681953Y-78388797D01*
X79944002Y-78502621D01*
X80219109Y-78579702D01*
X80502149Y-78618605D01*
X80787851Y-78618605D01*
X81070891Y-78579702D01*
X81345998Y-78502621D01*
X81608047Y-78388797D01*
X81852156Y-78240351D01*
X82073778Y-78060048D01*
X82255903Y-77865039D01*
X82268786Y-77851246D01*
X82433541Y-77617840D01*
X82482386Y-77523574D01*
X82564985Y-77364167D01*
X82638621Y-77156973D01*
X82676088Y-77103232D01*
X82735711Y-77076082D01*
X82800847Y-77083104D01*
X82853312Y-77122335D01*
X82928662Y-77219144D01*
X83111615Y-77387564D01*
X83319793Y-77523573D01*
X83547519Y-77623463D01*
X83788579Y-77684508D01*
X83862880Y-77690664D01*
X83974327Y-77699900D01*
X83974333Y-77699900D01*
X86298467Y-77699900D01*
X86298473Y-77699900D01*
X86399787Y-77691504D01*
X86484221Y-77684508D01*
X86725281Y-77623463D01*
X86953007Y-77523573D01*
X87161185Y-77387564D01*
X87344138Y-77219144D01*
X87496874Y-77022909D01*
X87615228Y-76804210D01*
X87695971Y-76569014D01*
X87736900Y-76323735D01*
X87736900Y-76075065D01*
X87695971Y-75829786D01*
X87615228Y-75594590D01*
X87496874Y-75375891D01*
X87496871Y-75375887D01*
X87496870Y-75375885D01*
X87364112Y-75205319D01*
X87344138Y-75179656D01*
X87161185Y-75011236D01*
X86953007Y-74875227D01*
X86953004Y-74875225D01*
X86822520Y-74817990D01*
X86725281Y-74775337D01*
X86484221Y-74714292D01*
X86484219Y-74714291D01*
X86484216Y-74714291D01*
X86298473Y-74698900D01*
X86298467Y-74698900D01*
X83974333Y-74698900D01*
X83974327Y-74698900D01*
X83788583Y-74714291D01*
X83788579Y-74714291D01*
X83788579Y-74714292D01*
X83547519Y-74775337D01*
X83547516Y-74775338D01*
X83547517Y-74775338D01*
X83319795Y-74875225D01*
X83181007Y-74965899D01*
X83111615Y-75011236D01*
X82966800Y-75144548D01*
X82928659Y-75179659D01*
X82775926Y-75375890D01*
X82694801Y-75525794D01*
X82648741Y-75573583D01*
X82584632Y-75590771D01*
X82520843Y-75572433D01*
X82475649Y-75523824D01*
X82433541Y-75442558D01*
X82268786Y-75209153D01*
X82073778Y-75000352D01*
X81852156Y-74820049D01*
X81608047Y-74671603D01*
X81345998Y-74557779D01*
X81095796Y-74487676D01*
X81070888Y-74480697D01*
X80787851Y-74441795D01*
X80502149Y-74441795D01*
X80219111Y-74480697D01*
X80017220Y-74537264D01*
X79944002Y-74557779D01*
X79944000Y-74557779D01*
X79943999Y-74557780D01*
X79681952Y-74671603D01*
X79437845Y-74820048D01*
X79216221Y-75000352D01*
X79054949Y-75173032D01*
X79005614Y-75205319D01*
X78946943Y-75211171D01*
X78892203Y-75189262D01*
X78853769Y-75144548D01*
X78840332Y-75087138D01*
X78840406Y-75079819D01*
X78865938Y-72561473D01*
X80235900Y-72561473D01*
X80251291Y-72747216D01*
X80251291Y-72747219D01*
X80251292Y-72747221D01*
X80312337Y-72988281D01*
X80336920Y-73044325D01*
X80412225Y-73216004D01*
X80412227Y-73216007D01*
X80548236Y-73424185D01*
X80716656Y-73607138D01*
X80750336Y-73633352D01*
X80912885Y-73759870D01*
X80912887Y-73759871D01*
X80912891Y-73759874D01*
X81131590Y-73878228D01*
X81366786Y-73958971D01*
X81612065Y-73999900D01*
X81860735Y-73999900D01*
X82106014Y-73958971D01*
X82341210Y-73878228D01*
X82559909Y-73759874D01*
X82756144Y-73607138D01*
X82924564Y-73424185D01*
X83060573Y-73216007D01*
X83160463Y-72988281D01*
X83221508Y-72747221D01*
X83236900Y-72561467D01*
X83236900Y-71250244D01*
X83246339Y-71202791D01*
X83273219Y-71162563D01*
X84034841Y-70400941D01*
X86331921Y-68103859D01*
X86337341Y-68098756D01*
X86382595Y-68058666D01*
X86416937Y-68008910D01*
X86421331Y-68002938D01*
X86458636Y-67955325D01*
X86462834Y-67945994D01*
X86473864Y-67926439D01*
X86475297Y-67924363D01*
X86479671Y-67918027D01*
X86501103Y-67861513D01*
X86503968Y-67854599D01*
X86528769Y-67799493D01*
X86528960Y-67798454D01*
X86530611Y-67789436D01*
X86536643Y-67767804D01*
X86540270Y-67758243D01*
X86547557Y-67698222D01*
X86548677Y-67690858D01*
X86559574Y-67631400D01*
X86555925Y-67571085D01*
X86555700Y-67563600D01*
X86555700Y-65678808D01*
X86571511Y-65618219D01*
X86614910Y-65573081D01*
X86660891Y-65544902D01*
X86746132Y-65492668D01*
X86927643Y-65337643D01*
X87027711Y-65220477D01*
X87070086Y-65188401D01*
X87122000Y-65177011D01*
X87173914Y-65188401D01*
X87216288Y-65220477D01*
X87316357Y-65337643D01*
X87497868Y-65492668D01*
X87701395Y-65617389D01*
X87703399Y-65618219D01*
X87921926Y-65708737D01*
X87995254Y-65726341D01*
X88154034Y-65764461D01*
X88392000Y-65783189D01*
X88629966Y-65764461D01*
X88862073Y-65708737D01*
X89082605Y-65617389D01*
X89286132Y-65492668D01*
X89467643Y-65337643D01*
X89622668Y-65156132D01*
X89747389Y-64952605D01*
X89838737Y-64732073D01*
X89894461Y-64499966D01*
X89913189Y-64262000D01*
X94998811Y-64262000D01*
X95017539Y-64499967D01*
X95073262Y-64732073D01*
X95164609Y-64952601D01*
X95289334Y-65156135D01*
X95350873Y-65228188D01*
X95444357Y-65337643D01*
X95625868Y-65492668D01*
X95829395Y-65617389D01*
X95831399Y-65618219D01*
X96049926Y-65708737D01*
X96123254Y-65726341D01*
X96282034Y-65764461D01*
X96520000Y-65783189D01*
X96757966Y-65764461D01*
X96990073Y-65708737D01*
X97210605Y-65617389D01*
X97414132Y-65492668D01*
X97595643Y-65337643D01*
X97695711Y-65220477D01*
X97738086Y-65188401D01*
X97790000Y-65177011D01*
X97841914Y-65188401D01*
X97884288Y-65220477D01*
X97984357Y-65337643D01*
X98165868Y-65492668D01*
X98369395Y-65617389D01*
X98371399Y-65618219D01*
X98589926Y-65708737D01*
X98663254Y-65726341D01*
X98822034Y-65764461D01*
X99060000Y-65783189D01*
X99297966Y-65764461D01*
X99530073Y-65708737D01*
X99750605Y-65617389D01*
X99954132Y-65492668D01*
X100135643Y-65337643D01*
X100290668Y-65156132D01*
X100415389Y-64952605D01*
X100506737Y-64732073D01*
X100562461Y-64499966D01*
X100581189Y-64262000D01*
X100562461Y-64024034D01*
X100520295Y-63848400D01*
X100506737Y-63791926D01*
X100415390Y-63571398D01*
X100415389Y-63571395D01*
X100290668Y-63367868D01*
X100135643Y-63186357D01*
X100026188Y-63092873D01*
X99954135Y-63031334D01*
X99915850Y-63007873D01*
X99750605Y-62906611D01*
X99750602Y-62906610D01*
X99750601Y-62906609D01*
X99530073Y-62815262D01*
X99297967Y-62759539D01*
X99060000Y-62740811D01*
X98822032Y-62759539D01*
X98589926Y-62815262D01*
X98369398Y-62906609D01*
X98165864Y-63031334D01*
X97984357Y-63186357D01*
X97884290Y-63303520D01*
X97841914Y-63335598D01*
X97790000Y-63346988D01*
X97738086Y-63335598D01*
X97695710Y-63303520D01*
X97668683Y-63271876D01*
X97595643Y-63186357D01*
X97486188Y-63092873D01*
X97414135Y-63031334D01*
X97375850Y-63007873D01*
X97210605Y-62906611D01*
X97210602Y-62906610D01*
X97210601Y-62906609D01*
X96990073Y-62815262D01*
X96757967Y-62759539D01*
X96520000Y-62740811D01*
X96282032Y-62759539D01*
X96049926Y-62815262D01*
X95829398Y-62906609D01*
X95625864Y-63031334D01*
X95444357Y-63186357D01*
X95289334Y-63367864D01*
X95164609Y-63571398D01*
X95073262Y-63791926D01*
X95017539Y-64024032D01*
X94998811Y-64262000D01*
X89913189Y-64262000D01*
X89894461Y-64024034D01*
X89852295Y-63848400D01*
X89838737Y-63791926D01*
X89747390Y-63571398D01*
X89747389Y-63571395D01*
X89622668Y-63367868D01*
X89467643Y-63186357D01*
X89358188Y-63092873D01*
X89286135Y-63031334D01*
X89247850Y-63007873D01*
X89082605Y-62906611D01*
X89082602Y-62906610D01*
X89082601Y-62906609D01*
X88862073Y-62815262D01*
X88629967Y-62759539D01*
X88392000Y-62740811D01*
X88154032Y-62759539D01*
X87921926Y-62815262D01*
X87701398Y-62906609D01*
X87497864Y-63031334D01*
X87316357Y-63186357D01*
X87216290Y-63303520D01*
X87173914Y-63335598D01*
X87122000Y-63346988D01*
X87070086Y-63335598D01*
X87027710Y-63303520D01*
X87000683Y-63271876D01*
X86927643Y-63186357D01*
X86818188Y-63092873D01*
X86746135Y-63031334D01*
X86707850Y-63007873D01*
X86542605Y-62906611D01*
X86542602Y-62906610D01*
X86542601Y-62906609D01*
X86322073Y-62815262D01*
X86089967Y-62759539D01*
X85852000Y-62740811D01*
X85614032Y-62759539D01*
X85381926Y-62815262D01*
X85161398Y-62906609D01*
X84957864Y-63031334D01*
X84776357Y-63186357D01*
X84621334Y-63367864D01*
X84496609Y-63571398D01*
X84405262Y-63791926D01*
X84349539Y-64024032D01*
X84330811Y-64262000D01*
X84349539Y-64499967D01*
X84405262Y-64732073D01*
X84496609Y-64952601D01*
X84621334Y-65156135D01*
X84682873Y-65228188D01*
X84776357Y-65337643D01*
X84957868Y-65492668D01*
X85020989Y-65531348D01*
X85089090Y-65573081D01*
X85132489Y-65618219D01*
X85148300Y-65678808D01*
X85148300Y-67245756D01*
X85138861Y-67293209D01*
X85111981Y-67333437D01*
X83086041Y-69359375D01*
X83028800Y-69391900D01*
X82962978Y-69390539D01*
X82907130Y-69355677D01*
X82903717Y-69351969D01*
X82756144Y-69191662D01*
X82734012Y-69174436D01*
X82559914Y-69038929D01*
X82559910Y-69038926D01*
X82559909Y-69038926D01*
X82341210Y-68920572D01*
X82341206Y-68920570D01*
X82341205Y-68920570D01*
X82106015Y-68839829D01*
X81860735Y-68798900D01*
X81612065Y-68798900D01*
X81366784Y-68839829D01*
X81131594Y-68920570D01*
X80912885Y-69038929D01*
X80716659Y-69191659D01*
X80716656Y-69191661D01*
X80716656Y-69191662D01*
X80548236Y-69374615D01*
X80536943Y-69391900D01*
X80412225Y-69582795D01*
X80329835Y-69770628D01*
X80312337Y-69810519D01*
X80264989Y-69997490D01*
X80251291Y-70051583D01*
X80235900Y-70237327D01*
X80235900Y-72561473D01*
X78865938Y-72561473D01*
X79125527Y-46956769D01*
X84968782Y-46956769D01*
X85161620Y-47074941D01*
X85382081Y-47166260D01*
X85614110Y-47221965D01*
X85852000Y-47240687D01*
X86089889Y-47221965D01*
X86321918Y-47166260D01*
X86542379Y-47074942D01*
X86735215Y-46956770D01*
X86735216Y-46956769D01*
X87508782Y-46956769D01*
X87701620Y-47074941D01*
X87922081Y-47166260D01*
X88154110Y-47221965D01*
X88392000Y-47240687D01*
X88629889Y-47221965D01*
X88861918Y-47166260D01*
X89082379Y-47074942D01*
X89275215Y-46956770D01*
X89275216Y-46956769D01*
X88392001Y-46073553D01*
X88392000Y-46073553D01*
X87508782Y-46956769D01*
X86735216Y-46956769D01*
X85852001Y-46073553D01*
X85852000Y-46073553D01*
X84968782Y-46956769D01*
X79125527Y-46956769D01*
X79138066Y-45720000D01*
X84331312Y-45720000D01*
X84350034Y-45957889D01*
X84405739Y-46189918D01*
X84497058Y-46410379D01*
X84615229Y-46603216D01*
X85498446Y-45720001D01*
X86205553Y-45720001D01*
X87088769Y-46603215D01*
X87107426Y-46601007D01*
X87136576Y-46601008D01*
X87155229Y-46603216D01*
X88038446Y-45720001D01*
X88745553Y-45720001D01*
X89628769Y-46603216D01*
X89628770Y-46603215D01*
X89746942Y-46410379D01*
X89838260Y-46189918D01*
X89893965Y-45957889D01*
X89912687Y-45720000D01*
X89893965Y-45482110D01*
X89838260Y-45250081D01*
X89746941Y-45029620D01*
X89628769Y-44836782D01*
X88745553Y-45720000D01*
X88745553Y-45720001D01*
X88038446Y-45720001D01*
X88038446Y-45720000D01*
X87155229Y-44836782D01*
X87136574Y-44838991D01*
X87107427Y-44838991D01*
X87088769Y-44836783D01*
X86205553Y-45720000D01*
X86205553Y-45720001D01*
X85498446Y-45720001D01*
X85498446Y-45720000D01*
X84615229Y-44836782D01*
X84497055Y-45029622D01*
X84405740Y-45250078D01*
X84350034Y-45482110D01*
X84331312Y-45720000D01*
X79138066Y-45720000D01*
X79150605Y-44483229D01*
X84968782Y-44483229D01*
X85852000Y-45366446D01*
X85852001Y-45366446D01*
X86735216Y-44483229D01*
X87508782Y-44483229D01*
X88392000Y-45366446D01*
X88392001Y-45366446D01*
X89275216Y-44483229D01*
X89082379Y-44365058D01*
X88861918Y-44273739D01*
X88629889Y-44218034D01*
X88392000Y-44199312D01*
X88154110Y-44218034D01*
X87922078Y-44273740D01*
X87701622Y-44365055D01*
X87508782Y-44483229D01*
X86735216Y-44483229D01*
X86542379Y-44365058D01*
X86321918Y-44273739D01*
X86089889Y-44218034D01*
X85852000Y-44199312D01*
X85614110Y-44218034D01*
X85382078Y-44273740D01*
X85161622Y-44365055D01*
X84968782Y-44483229D01*
X79150605Y-44483229D01*
X79171800Y-42392600D01*
X79153554Y-40568054D01*
X79166996Y-40510656D01*
X79205432Y-40465948D01*
X79260171Y-40444044D01*
X79318838Y-40449898D01*
X79368170Y-40482184D01*
X79521022Y-40645848D01*
X79742644Y-40826151D01*
X79986753Y-40974597D01*
X80248802Y-41088421D01*
X80523909Y-41165502D01*
X80806949Y-41204405D01*
X81092651Y-41204405D01*
X81375691Y-41165502D01*
X81650798Y-41088421D01*
X81912847Y-40974597D01*
X82156956Y-40826151D01*
X82378578Y-40645848D01*
X82573585Y-40437047D01*
X82576205Y-40433336D01*
X82738341Y-40203640D01*
X82739926Y-40200582D01*
X82869785Y-39949967D01*
X82907617Y-39843515D01*
X82965461Y-39680761D01*
X83023587Y-39401040D01*
X83023588Y-39401036D01*
X83043085Y-39116000D01*
X83023588Y-38830964D01*
X82976251Y-38603165D01*
X82965461Y-38551238D01*
X82869786Y-38282036D01*
X82869785Y-38282033D01*
X82738343Y-38028363D01*
X82738341Y-38028359D01*
X82573586Y-37794953D01*
X82378578Y-37586152D01*
X82237378Y-37471277D01*
X82201420Y-37423373D01*
X82192112Y-37364202D01*
X82211626Y-37307572D01*
X82255409Y-37266696D01*
X82313238Y-37251113D01*
X93815873Y-37029563D01*
X93878138Y-37044955D01*
G37*
%TD.AperFunction*%
%TA.AperFunction,Conductor*%
G36*
X133487484Y-55466042D02*
G01*
X133536002Y-55501390D01*
X133602573Y-55580959D01*
X133690769Y-55686377D01*
X133693254Y-55689446D01*
X133711312Y-55712494D01*
X133711314Y-55712496D01*
X133711315Y-55712497D01*
X133715424Y-55716606D01*
X133722844Y-55724715D01*
X133726591Y-55729193D01*
X133737733Y-55739641D01*
X133747954Y-55749226D01*
X133750814Y-55751996D01*
X135533724Y-57534906D01*
X135538858Y-57540359D01*
X135578934Y-57585595D01*
X135628684Y-57619934D01*
X135634682Y-57624348D01*
X135682276Y-57661636D01*
X135691613Y-57665838D01*
X135711152Y-57676858D01*
X135719573Y-57682671D01*
X135775569Y-57703907D01*
X135776075Y-57704099D01*
X135782996Y-57706965D01*
X135838110Y-57731771D01*
X135848172Y-57733614D01*
X135869785Y-57739639D01*
X135879357Y-57743270D01*
X135939371Y-57750556D01*
X135946739Y-57751677D01*
X136006200Y-57762574D01*
X136066514Y-57758925D01*
X136074000Y-57758700D01*
X138469427Y-57758700D01*
X138528854Y-57773868D01*
X138573742Y-57815660D01*
X138593111Y-57873854D01*
X138582221Y-57934211D01*
X138543738Y-57981967D01*
X138489654Y-58022454D01*
X138403404Y-58137669D01*
X138353811Y-58270634D01*
X138327372Y-58312870D01*
X138286442Y-58341288D01*
X138237629Y-58351300D01*
X137685163Y-58351300D01*
X135889600Y-58351300D01*
X135882114Y-58351074D01*
X135821800Y-58347425D01*
X135813369Y-58348970D01*
X135811741Y-58349269D01*
X135789392Y-58351300D01*
X135443561Y-58351300D01*
X135393372Y-58340689D01*
X135351773Y-58310672D01*
X135342329Y-58300275D01*
X133349110Y-56105838D01*
X133325232Y-56067156D01*
X133316899Y-56022467D01*
X133316899Y-55580959D01*
X133331430Y-55522713D01*
X133371619Y-55478118D01*
X133428045Y-55457627D01*
X133487484Y-55466042D01*
G37*
%TD.AperFunction*%
%TA.AperFunction,Conductor*%
G36*
X129526036Y-50753227D02*
G01*
X129566263Y-50768043D01*
X129599043Y-50795673D01*
X129752063Y-50978573D01*
X132699321Y-54501332D01*
X132727173Y-54564848D01*
X132716560Y-54633386D01*
X132670803Y-54685505D01*
X132604216Y-54704900D01*
X131816391Y-54704900D01*
X131713603Y-54715400D01*
X131547065Y-54770586D01*
X131397742Y-54862688D01*
X131304081Y-54956350D01*
X131248494Y-54988444D01*
X131184306Y-54988444D01*
X131128719Y-54956350D01*
X131035057Y-54862688D01*
X130885734Y-54770586D01*
X130719197Y-54715400D01*
X130616409Y-54704900D01*
X129816391Y-54704900D01*
X129713603Y-54715400D01*
X129547065Y-54770586D01*
X129397742Y-54862688D01*
X129273688Y-54986742D01*
X129233253Y-55052300D01*
X129195012Y-55114300D01*
X129193102Y-55117396D01*
X129147995Y-55160577D01*
X129087563Y-55176300D01*
X128094500Y-55176300D01*
X128032500Y-55159687D01*
X127987113Y-55114300D01*
X127970500Y-55052300D01*
X127970499Y-54112130D01*
X127967969Y-54088595D01*
X127964091Y-54052517D01*
X127951340Y-54018331D01*
X127943523Y-53975000D01*
X127951342Y-53931665D01*
X127964090Y-53897485D01*
X127964089Y-53897485D01*
X127964091Y-53897483D01*
X127970500Y-53837873D01*
X127970499Y-52842128D01*
X127964091Y-52782517D01*
X127951340Y-52748330D01*
X127943523Y-52705000D01*
X127951342Y-52661665D01*
X127964090Y-52627485D01*
X127964089Y-52627485D01*
X127964091Y-52627483D01*
X127970500Y-52567873D01*
X127970499Y-51572128D01*
X127964091Y-51512517D01*
X127951340Y-51478331D01*
X127943523Y-51434999D01*
X127951342Y-51391665D01*
X127964090Y-51357485D01*
X127964089Y-51357485D01*
X127964091Y-51357483D01*
X127970500Y-51297873D01*
X127970499Y-50620035D01*
X127982177Y-50567502D01*
X128015012Y-50524864D01*
X128062818Y-50500151D01*
X128116587Y-50498020D01*
X129526036Y-50753227D01*
G37*
%TD.AperFunction*%
%TA.AperFunction,Conductor*%
G36*
X138083809Y-49176339D02*
G01*
X138124037Y-49203219D01*
X140483981Y-51563163D01*
X140510861Y-51603391D01*
X140520300Y-51650844D01*
X140520300Y-52094088D01*
X140507300Y-52149360D01*
X140471027Y-52193042D01*
X140419085Y-52215977D01*
X140362366Y-52213354D01*
X140312762Y-52185725D01*
X140233331Y-52113314D01*
X140048187Y-51998677D01*
X139845130Y-51920013D01*
X139772200Y-51906380D01*
X139772200Y-53181000D01*
X139755587Y-53243000D01*
X139710200Y-53288387D01*
X139648200Y-53305000D01*
X138371695Y-53305000D01*
X138421851Y-53481278D01*
X138518912Y-53676205D01*
X138650142Y-53849981D01*
X138774144Y-53963023D01*
X138809872Y-54020726D01*
X138809872Y-54088595D01*
X138774144Y-54146298D01*
X138649774Y-54259675D01*
X138617794Y-54302026D01*
X138574111Y-54338300D01*
X138518839Y-54351300D01*
X136897044Y-54351300D01*
X136849591Y-54341861D01*
X136809363Y-54314981D01*
X135299381Y-52804999D01*
X138371694Y-52804999D01*
X138371695Y-52805000D01*
X139272200Y-52805000D01*
X139272200Y-51906380D01*
X139199269Y-51920013D01*
X138996212Y-51998677D01*
X138811068Y-52113314D01*
X138650144Y-52260014D01*
X138518912Y-52433794D01*
X138421851Y-52628721D01*
X138371694Y-52804999D01*
X135299381Y-52804999D01*
X132361539Y-49867157D01*
X132328258Y-49806754D01*
X132332393Y-49737913D01*
X132372667Y-49681928D01*
X132436619Y-49656118D01*
X132465197Y-49653199D01*
X132631734Y-49598014D01*
X132781056Y-49505912D01*
X132905112Y-49381856D01*
X132997214Y-49232534D01*
X132997214Y-49232533D01*
X133001365Y-49225804D01*
X133046472Y-49182623D01*
X133106904Y-49166900D01*
X138036356Y-49166900D01*
X138083809Y-49176339D01*
G37*
%TD.AperFunction*%
%TA.AperFunction,Conductor*%
G36*
X137559267Y-46433139D02*
G01*
X137599495Y-46460019D01*
X138722274Y-47582798D01*
X138755339Y-47642260D01*
X138752053Y-47710217D01*
X138713405Y-47766211D01*
X138651030Y-47793385D01*
X138605343Y-47786715D01*
X138604898Y-47789144D01*
X138590090Y-47786430D01*
X138580032Y-47784586D01*
X138558414Y-47778560D01*
X138551896Y-47776088D01*
X138548843Y-47774930D01*
X138488824Y-47767641D01*
X138481422Y-47766515D01*
X138422000Y-47755625D01*
X138361686Y-47759274D01*
X138354200Y-47759500D01*
X133106904Y-47759500D01*
X133046472Y-47743777D01*
X133001365Y-47700596D01*
X132905111Y-47544542D01*
X132781057Y-47420488D01*
X132631734Y-47328386D01*
X132465197Y-47273200D01*
X132362409Y-47262700D01*
X131562391Y-47262700D01*
X131459603Y-47273200D01*
X131293065Y-47328386D01*
X131143742Y-47420488D01*
X131050081Y-47514150D01*
X130994494Y-47546244D01*
X130930306Y-47546244D01*
X130874719Y-47514150D01*
X130781057Y-47420488D01*
X130631734Y-47328386D01*
X130465197Y-47273200D01*
X130362409Y-47262700D01*
X129562391Y-47262700D01*
X129459603Y-47273200D01*
X129293065Y-47328386D01*
X129143745Y-47420486D01*
X129093998Y-47470233D01*
X129044248Y-47519983D01*
X129004023Y-47546861D01*
X128956570Y-47556300D01*
X128094500Y-47556300D01*
X128032500Y-47539687D01*
X127987113Y-47494300D01*
X127970500Y-47432300D01*
X127970499Y-46547700D01*
X127987112Y-46485700D01*
X128032499Y-46440313D01*
X128094499Y-46423700D01*
X137511814Y-46423700D01*
X137559267Y-46433139D01*
G37*
%TD.AperFunction*%
%TD*%
M02*
