%TF.GenerationSoftware,KiCad,Pcbnew,7.0.1*%
%TF.CreationDate,2023-04-20T23:02:29+02:00*%
%TF.ProjectId,Motordinges,4d6f746f-7264-4696-9e67-65732e6b6963,rev?*%
%TF.SameCoordinates,Original*%
%TF.FileFunction,Copper,L2,Bot*%
%TF.FilePolarity,Positive*%
%FSLAX46Y46*%
G04 Gerber Fmt 4.6, Leading zero omitted, Abs format (unit mm)*
G04 Created by KiCad (PCBNEW 7.0.1) date 2023-04-20 23:02:29*
%MOMM*%
%LPD*%
G01*
G04 APERTURE LIST*
%TA.AperFunction,ComponentPad*%
%ADD10R,1.700000X1.700000*%
%TD*%
%TA.AperFunction,ComponentPad*%
%ADD11O,1.700000X1.700000*%
%TD*%
%TA.AperFunction,HeatsinkPad*%
%ADD12C,0.600000*%
%TD*%
%TA.AperFunction,ComponentPad*%
%ADD13R,2.000000X4.600000*%
%TD*%
%TA.AperFunction,ComponentPad*%
%ADD14O,2.000000X4.200000*%
%TD*%
%TA.AperFunction,ComponentPad*%
%ADD15O,4.200000X2.000000*%
%TD*%
%TA.AperFunction,ComponentPad*%
%ADD16R,3.000000X3.000000*%
%TD*%
%TA.AperFunction,ComponentPad*%
%ADD17C,3.000000*%
%TD*%
%TA.AperFunction,ComponentPad*%
%ADD18C,2.032000*%
%TD*%
%TA.AperFunction,ViaPad*%
%ADD19C,0.800000*%
%TD*%
%TA.AperFunction,Conductor*%
%ADD20C,0.406400*%
%TD*%
G04 APERTURE END LIST*
D10*
%TO.P,Motor1,1,Pin_1*%
%TO.N,A8*%
X140462000Y-67056000D03*
D11*
%TO.P,Motor1,2,Pin_2*%
%TO.N,GPIO23*%
X140462000Y-69596000D03*
%TD*%
D10*
%TO.P,J1,1,Pin_1*%
%TO.N,+3.3V*%
X138430000Y-57912000D03*
D11*
%TO.P,J1,2,Pin_2*%
%TO.N,RX0*%
X138430000Y-55372000D03*
%TO.P,J1,3,Pin_3*%
%TO.N,TX0*%
X138430000Y-52832000D03*
%TO.P,J1,4,Pin_4*%
%TO.N,GND*%
X138430000Y-50292000D03*
%TD*%
D12*
%TO.P,U1,39,GND*%
%TO.N,GND*%
X115765000Y-51027500D03*
X115765000Y-52552500D03*
X116527500Y-50265000D03*
X116527500Y-51790000D03*
X116527500Y-53315000D03*
X117290000Y-51027500D03*
X117290000Y-52552500D03*
X118052500Y-50265000D03*
X118052500Y-51790000D03*
X118052500Y-53315000D03*
X118815000Y-51027500D03*
X118815000Y-52552500D03*
%TD*%
D13*
%TO.P,J2,1*%
%TO.N,Net-(J5-Pin_2)*%
X88036400Y-71399400D03*
D14*
%TO.P,J2,2*%
%TO.N,Net-(J2-Pad2)*%
X81736400Y-71399400D03*
D15*
%TO.P,J2,3*%
%TO.N,N/C*%
X85136400Y-76199400D03*
%TD*%
D16*
%TO.P,Motor1,1,Pin_1*%
%TO.N,GND*%
X122428000Y-74168000D03*
D17*
%TO.P,Motor1,2,Pin_2*%
%TO.N,Net-(J5-Pin_2)*%
X127508000Y-74168000D03*
%TD*%
D18*
%TO.P,U2,1,IN-*%
%TO.N,Net-(J2-Pad2)*%
X85852000Y-64262000D03*
%TO.P,U2,2,IN-*%
X88392000Y-64262000D03*
%TO.P,U2,3,IN+*%
%TO.N,Net-(J5-Pin_2)*%
X96520000Y-64262000D03*
%TO.P,U2,4,IN+*%
X99060000Y-64262000D03*
%TO.P,U2,5,OUT+*%
%TO.N,VDD*%
X99060000Y-45720000D03*
%TO.P,U2,6,OUT+*%
X96520000Y-45720000D03*
%TO.P,U2,7,OUT-*%
%TO.N,GND*%
X88392000Y-45720000D03*
%TO.P,U2,8,OUT-*%
X85852000Y-45720000D03*
%TD*%
D16*
%TO.P,Motor2,1,Pin_1*%
%TO.N,GND*%
X111760000Y-74168000D03*
D17*
%TO.P,Motor2,2,Pin_2*%
%TO.N,Net-(J5-Pin_2)*%
X116840000Y-74168000D03*
%TD*%
D10*
%TO.P,Motor2,1,Pin_1*%
%TO.N,A9*%
X133858000Y-67056000D03*
D11*
%TO.P,Motor2,2,Pin_2*%
%TO.N,GPIO13*%
X133858000Y-69596000D03*
%TD*%
D19*
%TO.N,+3.3V*%
X133959600Y-60960000D03*
X101142800Y-68554600D03*
X106299000Y-74218800D03*
X111569332Y-68643332D03*
X104597200Y-50825400D03*
%TO.N,GND*%
X84378800Y-40665400D03*
X84683600Y-72923400D03*
X129794000Y-55880000D03*
X134620000Y-48514000D03*
X122910600Y-52832000D03*
X81584800Y-60477400D03*
X122656600Y-47498000D03*
X133274595Y-56717405D03*
X136017000Y-46710600D03*
X109702600Y-63119000D03*
X93827600Y-50571400D03*
X117424200Y-63957200D03*
X113055400Y-45440600D03*
X90195400Y-57607200D03*
X96697800Y-59105800D03*
X98577400Y-71069200D03*
X82575400Y-53136800D03*
X129184400Y-52603400D03*
X104673400Y-59817000D03*
X117094000Y-69596000D03*
X141427200Y-44983400D03*
X127508000Y-64262000D03*
%TO.N,A8*%
X110363000Y-55880000D03*
X138722100Y-62953900D03*
%TO.N,A9*%
X119684800Y-59357200D03*
%TD*%
D20*
%TO.N,+3.3V*%
X106299000Y-73710800D02*
X101142800Y-68554600D01*
X106299000Y-74218800D02*
X106299000Y-73913664D01*
X130200400Y-64719200D02*
X130200400Y-70866000D01*
X133959600Y-60960000D02*
X130200400Y-64719200D01*
X104597200Y-50825400D02*
X103454200Y-51968400D01*
X111569332Y-68643332D02*
X108521332Y-71691332D01*
X106299000Y-73913664D02*
X108521332Y-71691332D01*
X106299000Y-74218800D02*
X106299000Y-73710800D01*
X103454200Y-51968400D02*
X103454200Y-66243200D01*
X129438400Y-71628000D02*
X108584664Y-71628000D01*
X103454200Y-66243200D02*
X101142800Y-68554600D01*
X130200400Y-70866000D02*
X129438400Y-71628000D01*
X108584664Y-71628000D02*
X108521332Y-71691332D01*
%TO.N,A8*%
X138722100Y-62953900D02*
X133477000Y-57708800D01*
X112191800Y-57708800D02*
X110363000Y-55880000D01*
X133477000Y-57708800D02*
X112191800Y-57708800D01*
%TO.N,A9*%
X134388300Y-60144100D02*
X135737600Y-61493400D01*
X120471700Y-60144100D02*
X134388300Y-60144100D01*
X135737600Y-61493400D02*
X135737600Y-64490600D01*
X135737600Y-64490600D02*
X133223000Y-67005200D01*
X119684800Y-59357200D02*
X120471700Y-60144100D01*
%TO.N,Net-(J5-Pin_2)*%
X93802200Y-64262000D02*
X96520000Y-64262000D01*
X125604800Y-76071200D02*
X127508000Y-74168000D01*
X116840000Y-74168000D02*
X118743200Y-76071200D01*
X93802200Y-64262000D02*
X88036400Y-70027800D01*
X127508000Y-74168000D02*
X129852000Y-76512000D01*
X129852000Y-77996200D02*
X91077200Y-77996200D01*
X88036400Y-70027800D02*
X88036400Y-71399400D01*
X118743200Y-76071200D02*
X125604800Y-76071200D01*
X129852000Y-76512000D02*
X129852000Y-77996200D01*
X91077200Y-77996200D02*
X88036400Y-74955400D01*
X88036400Y-74955400D02*
X88036400Y-71399400D01*
X99060000Y-64262000D02*
X96520000Y-64262000D01*
%TD*%
%TA.AperFunction,Conductor*%
%TO.N,GND*%
G36*
X93878138Y-37044955D02*
G01*
X93924382Y-37089398D01*
X93942235Y-37151002D01*
X93969974Y-38505791D01*
X93970000Y-38508329D01*
X93970000Y-42900000D01*
X141970000Y-42900000D01*
X141976807Y-42900000D01*
X141992185Y-42889424D01*
X142036054Y-42878852D01*
X142158408Y-42872297D01*
X143035285Y-42825321D01*
X143099761Y-42839462D01*
X143147846Y-42884685D01*
X143165912Y-42948176D01*
X143443329Y-78507998D01*
X143427138Y-78570236D01*
X143381949Y-78615994D01*
X143319918Y-78632964D01*
X143002794Y-78634459D01*
X142941471Y-78618566D01*
X142896001Y-78574459D01*
X142878250Y-78513648D01*
X142892849Y-78452011D01*
X142928814Y-78384727D01*
X142986024Y-78196132D01*
X143005341Y-78000000D01*
X142986024Y-77803868D01*
X142928814Y-77615273D01*
X142835910Y-77441462D01*
X142710883Y-77289117D01*
X142558538Y-77164090D01*
X142536091Y-77152091D01*
X142384726Y-77071185D01*
X142196133Y-77013976D01*
X142000000Y-76994659D01*
X141803866Y-77013976D01*
X141615273Y-77071185D01*
X141441463Y-77164089D01*
X141289117Y-77289117D01*
X141164089Y-77441463D01*
X141071185Y-77615273D01*
X141013976Y-77803866D01*
X140994659Y-77999999D01*
X141013976Y-78196133D01*
X141071185Y-78384726D01*
X141112186Y-78461433D01*
X141126794Y-78522783D01*
X141109336Y-78583384D01*
X141064328Y-78627560D01*
X141003413Y-78643885D01*
X130453498Y-78693630D01*
X130395701Y-78679644D01*
X130351061Y-78640358D01*
X130329845Y-78584806D01*
X130336931Y-78525765D01*
X130370690Y-78476812D01*
X130371487Y-78476106D01*
X130382595Y-78466266D01*
X130402694Y-78437145D01*
X130411921Y-78425369D01*
X130435387Y-78398883D01*
X130451836Y-78367539D01*
X130459570Y-78354746D01*
X130479671Y-78325627D01*
X130492220Y-78292537D01*
X130498355Y-78278905D01*
X130514803Y-78247568D01*
X130523272Y-78213205D01*
X130527719Y-78198933D01*
X130540270Y-78165843D01*
X130544535Y-78130713D01*
X130547228Y-78116014D01*
X130555700Y-78081645D01*
X130555700Y-77910755D01*
X130555700Y-76537000D01*
X130555926Y-76529514D01*
X130559574Y-76469200D01*
X130548677Y-76409739D01*
X130547554Y-76402355D01*
X130540270Y-76342357D01*
X130536641Y-76332790D01*
X130530614Y-76311172D01*
X130528771Y-76301110D01*
X130503965Y-76245996D01*
X130501099Y-76239075D01*
X130500907Y-76238569D01*
X130479671Y-76182573D01*
X130473858Y-76174151D01*
X130462838Y-76154613D01*
X130458636Y-76145276D01*
X130421348Y-76097682D01*
X130416934Y-76091684D01*
X130382595Y-76041934D01*
X130350513Y-76013512D01*
X130337359Y-76001858D01*
X130331906Y-75996724D01*
X129389796Y-75054614D01*
X129363489Y-75015745D01*
X129353512Y-74969884D01*
X129361294Y-74923604D01*
X129432369Y-74733046D01*
X129493196Y-74453428D01*
X129513610Y-74168000D01*
X129493196Y-73882572D01*
X129432369Y-73602954D01*
X129332367Y-73334839D01*
X129195226Y-73083685D01*
X129023739Y-72854605D01*
X128821395Y-72652261D01*
X128691424Y-72554966D01*
X128652942Y-72507211D01*
X128642052Y-72446854D01*
X128661421Y-72388660D01*
X128706309Y-72346868D01*
X128765736Y-72331700D01*
X129413400Y-72331700D01*
X129420885Y-72331925D01*
X129481200Y-72335574D01*
X129540658Y-72324677D01*
X129548022Y-72323557D01*
X129608043Y-72316270D01*
X129617608Y-72312641D01*
X129639236Y-72306611D01*
X129649290Y-72304770D01*
X129649291Y-72304769D01*
X129649293Y-72304769D01*
X129704399Y-72279968D01*
X129711313Y-72277103D01*
X129767827Y-72255671D01*
X129776239Y-72249863D01*
X129795794Y-72238834D01*
X129805125Y-72234636D01*
X129852738Y-72197331D01*
X129858710Y-72192937D01*
X129908466Y-72158595D01*
X129948556Y-72113341D01*
X129953659Y-72107921D01*
X130680322Y-71381258D01*
X130685760Y-71376140D01*
X130730995Y-71336066D01*
X130765344Y-71286300D01*
X130769734Y-71280334D01*
X130807036Y-71232724D01*
X130811233Y-71223398D01*
X130822258Y-71203847D01*
X130828071Y-71195427D01*
X130849508Y-71138897D01*
X130852358Y-71132018D01*
X130877171Y-71076890D01*
X130879013Y-71066835D01*
X130885040Y-71045213D01*
X130888670Y-71035643D01*
X130895957Y-70975622D01*
X130897082Y-70968233D01*
X130907974Y-70908802D01*
X130904326Y-70848486D01*
X130904100Y-70841000D01*
X130904100Y-65062044D01*
X130913539Y-65014591D01*
X130940419Y-64974363D01*
X131710856Y-64203926D01*
X134028321Y-61886459D01*
X134056832Y-61865169D01*
X134090209Y-61852855D01*
X134239403Y-61821144D01*
X134412330Y-61744151D01*
X134565471Y-61632888D01*
X134627965Y-61563481D01*
X134683857Y-61527874D01*
X134750110Y-61526139D01*
X134807793Y-61558775D01*
X134997581Y-61748563D01*
X135024461Y-61788791D01*
X135033900Y-61836244D01*
X135033900Y-64147756D01*
X135024461Y-64195209D01*
X134997581Y-64235437D01*
X133563835Y-65669181D01*
X133523607Y-65696061D01*
X133476154Y-65705500D01*
X132960130Y-65705500D01*
X132900515Y-65711909D01*
X132765669Y-65762204D01*
X132650454Y-65848454D01*
X132564204Y-65963668D01*
X132513909Y-66098516D01*
X132507500Y-66158130D01*
X132507500Y-67953869D01*
X132509282Y-67970442D01*
X132513909Y-68013483D01*
X132564204Y-68148331D01*
X132650454Y-68263546D01*
X132765669Y-68349796D01*
X132877907Y-68391658D01*
X132897082Y-68398810D01*
X132947462Y-68433789D01*
X132974915Y-68488634D01*
X132972726Y-68549926D01*
X132941431Y-68602673D01*
X132819503Y-68724601D01*
X132683965Y-68918170D01*
X132584097Y-69132336D01*
X132522936Y-69360592D01*
X132502340Y-69596000D01*
X132522936Y-69831407D01*
X132567709Y-69998501D01*
X132584097Y-70059663D01*
X132683965Y-70273830D01*
X132819505Y-70467401D01*
X132986599Y-70634495D01*
X133180170Y-70770035D01*
X133394337Y-70869903D01*
X133622592Y-70931063D01*
X133858000Y-70951659D01*
X134093408Y-70931063D01*
X134321663Y-70869903D01*
X134535830Y-70770035D01*
X134729401Y-70634495D01*
X134896495Y-70467401D01*
X135032035Y-70273830D01*
X135131903Y-70059663D01*
X135193063Y-69831408D01*
X135213659Y-69596000D01*
X139106340Y-69596000D01*
X139126936Y-69831407D01*
X139171709Y-69998501D01*
X139188097Y-70059663D01*
X139287965Y-70273830D01*
X139423505Y-70467401D01*
X139590599Y-70634495D01*
X139784170Y-70770035D01*
X139998337Y-70869903D01*
X140226592Y-70931063D01*
X140462000Y-70951659D01*
X140697408Y-70931063D01*
X140925663Y-70869903D01*
X141139830Y-70770035D01*
X141333401Y-70634495D01*
X141500495Y-70467401D01*
X141636035Y-70273830D01*
X141735903Y-70059663D01*
X141797063Y-69831408D01*
X141817659Y-69596000D01*
X141797063Y-69360592D01*
X141735903Y-69132337D01*
X141636035Y-68918171D01*
X141500495Y-68724599D01*
X141378569Y-68602672D01*
X141347273Y-68549927D01*
X141345084Y-68488634D01*
X141372537Y-68433789D01*
X141422916Y-68398810D01*
X141554331Y-68349796D01*
X141669546Y-68263546D01*
X141755796Y-68148331D01*
X141806091Y-68013483D01*
X141812500Y-67953873D01*
X141812499Y-66158128D01*
X141806091Y-66098517D01*
X141755796Y-65963669D01*
X141669546Y-65848454D01*
X141554331Y-65762204D01*
X141419483Y-65711909D01*
X141359873Y-65705500D01*
X141359869Y-65705500D01*
X139564130Y-65705500D01*
X139504515Y-65711909D01*
X139369669Y-65762204D01*
X139254454Y-65848454D01*
X139168204Y-65963668D01*
X139117909Y-66098516D01*
X139111500Y-66158130D01*
X139111500Y-67953869D01*
X139113282Y-67970442D01*
X139117909Y-68013483D01*
X139168204Y-68148331D01*
X139254454Y-68263546D01*
X139369669Y-68349796D01*
X139481907Y-68391658D01*
X139501082Y-68398810D01*
X139551462Y-68433789D01*
X139578915Y-68488634D01*
X139576726Y-68549926D01*
X139545431Y-68602673D01*
X139423503Y-68724601D01*
X139287965Y-68918170D01*
X139188097Y-69132336D01*
X139126936Y-69360592D01*
X139106340Y-69596000D01*
X135213659Y-69596000D01*
X135193063Y-69360592D01*
X135131903Y-69132337D01*
X135032035Y-68918171D01*
X134896495Y-68724599D01*
X134774569Y-68602672D01*
X134743273Y-68549927D01*
X134741084Y-68488634D01*
X134768537Y-68433789D01*
X134818916Y-68398810D01*
X134950331Y-68349796D01*
X135065546Y-68263546D01*
X135151796Y-68148331D01*
X135202091Y-68013483D01*
X135208500Y-67953873D01*
X135208499Y-66158128D01*
X135202091Y-66098517D01*
X135202089Y-66098514D01*
X135200935Y-66087771D01*
X135207288Y-66033264D01*
X135236542Y-65986838D01*
X136217522Y-65005858D01*
X136222960Y-65000740D01*
X136268195Y-64960666D01*
X136302547Y-64910896D01*
X136306942Y-64904924D01*
X136344236Y-64857325D01*
X136348435Y-64847992D01*
X136359457Y-64828449D01*
X136365271Y-64820027D01*
X136386710Y-64763493D01*
X136389556Y-64756622D01*
X136414370Y-64701491D01*
X136416214Y-64691425D01*
X136422236Y-64669823D01*
X136425870Y-64660243D01*
X136433157Y-64600216D01*
X136434279Y-64592842D01*
X136445174Y-64533401D01*
X136441526Y-64473092D01*
X136441300Y-64465605D01*
X136441300Y-61967644D01*
X136454815Y-61911349D01*
X136492415Y-61867326D01*
X136545902Y-61845171D01*
X136603618Y-61849713D01*
X136652981Y-61879963D01*
X137796127Y-63023109D01*
X137820366Y-63057406D01*
X137831767Y-63097827D01*
X137836426Y-63142157D01*
X137894920Y-63322184D01*
X137989566Y-63486116D01*
X138116229Y-63626789D01*
X138269369Y-63738051D01*
X138442297Y-63815044D01*
X138627452Y-63854400D01*
X138627454Y-63854400D01*
X138816746Y-63854400D01*
X138816748Y-63854400D01*
X138940183Y-63828162D01*
X139001903Y-63815044D01*
X139174830Y-63738051D01*
X139237346Y-63692631D01*
X139327970Y-63626789D01*
X139377845Y-63571398D01*
X139454633Y-63486116D01*
X139549279Y-63322184D01*
X139607774Y-63142156D01*
X139627560Y-62953900D01*
X139607774Y-62765644D01*
X139549279Y-62585616D01*
X139549279Y-62585615D01*
X139454633Y-62421683D01*
X139327970Y-62281010D01*
X139174830Y-62169748D01*
X139001903Y-62092755D01*
X138852718Y-62061045D01*
X138819331Y-62048728D01*
X138790818Y-62027436D01*
X133992266Y-57228884D01*
X133987132Y-57223430D01*
X133947067Y-57178206D01*
X133897347Y-57143887D01*
X133891313Y-57139447D01*
X133843726Y-57102164D01*
X133834395Y-57097965D01*
X133814844Y-57086939D01*
X133806426Y-57081128D01*
X133749908Y-57059693D01*
X133742991Y-57056828D01*
X133687891Y-57032030D01*
X133677833Y-57030187D01*
X133656214Y-57024160D01*
X133646643Y-57020530D01*
X133586624Y-57013241D01*
X133579222Y-57012115D01*
X133519800Y-57001225D01*
X133459486Y-57004874D01*
X133452000Y-57005100D01*
X112534644Y-57005100D01*
X112487191Y-56995661D01*
X112446963Y-56968781D01*
X111288972Y-55810790D01*
X111264732Y-55776491D01*
X111253332Y-55736068D01*
X111248674Y-55691742D01*
X111190179Y-55511715D01*
X111109514Y-55371999D01*
X137074340Y-55371999D01*
X137094936Y-55607407D01*
X137117534Y-55691742D01*
X137156097Y-55835663D01*
X137255965Y-56049830D01*
X137391505Y-56243401D01*
X137391508Y-56243404D01*
X137513430Y-56365326D01*
X137544726Y-56418072D01*
X137546915Y-56479365D01*
X137519462Y-56534209D01*
X137469083Y-56569189D01*
X137337669Y-56618204D01*
X137222454Y-56704454D01*
X137136204Y-56819668D01*
X137085909Y-56954515D01*
X137085909Y-56954517D01*
X137079717Y-57012115D01*
X137079500Y-57014130D01*
X137079500Y-58809869D01*
X137081125Y-58824983D01*
X137085909Y-58869483D01*
X137136204Y-59004331D01*
X137222454Y-59119546D01*
X137337669Y-59205796D01*
X137472517Y-59256091D01*
X137532127Y-59262500D01*
X139327872Y-59262499D01*
X139387483Y-59256091D01*
X139522331Y-59205796D01*
X139637546Y-59119546D01*
X139723796Y-59004331D01*
X139774091Y-58869483D01*
X139780500Y-58809873D01*
X139780499Y-57014128D01*
X139774091Y-56954517D01*
X139723796Y-56819669D01*
X139637546Y-56704454D01*
X139522331Y-56618204D01*
X139460898Y-56595291D01*
X139390916Y-56569189D01*
X139340537Y-56534209D01*
X139313084Y-56479365D01*
X139315273Y-56418072D01*
X139346566Y-56365329D01*
X139468495Y-56243401D01*
X139604035Y-56049830D01*
X139703903Y-55835663D01*
X139765063Y-55607408D01*
X139785659Y-55372000D01*
X139765063Y-55136592D01*
X139703903Y-54908337D01*
X139604035Y-54694171D01*
X139468495Y-54500599D01*
X139301401Y-54333505D01*
X139115839Y-54203573D01*
X139076975Y-54159257D01*
X139062964Y-54102000D01*
X139076975Y-54044743D01*
X139115839Y-54000426D01*
X139301401Y-53870495D01*
X139468495Y-53703401D01*
X139604035Y-53509830D01*
X139703903Y-53295663D01*
X139765063Y-53067408D01*
X139785659Y-52832000D01*
X139765063Y-52596592D01*
X139703903Y-52368337D01*
X139604035Y-52154171D01*
X139468495Y-51960599D01*
X139301401Y-51793505D01*
X139115402Y-51663267D01*
X139076539Y-51618951D01*
X139062528Y-51561694D01*
X139076539Y-51504437D01*
X139115405Y-51460119D01*
X139301078Y-51330109D01*
X139468106Y-51163081D01*
X139603600Y-50969576D01*
X139703430Y-50755492D01*
X139760636Y-50542000D01*
X137099364Y-50542000D01*
X137156569Y-50755492D01*
X137256399Y-50969576D01*
X137391893Y-51163081D01*
X137558918Y-51330106D01*
X137744595Y-51460119D01*
X137783460Y-51504437D01*
X137797471Y-51561694D01*
X137783460Y-51618951D01*
X137744595Y-51663269D01*
X137558595Y-51793508D01*
X137391505Y-51960598D01*
X137255965Y-52154170D01*
X137156097Y-52368336D01*
X137094936Y-52596592D01*
X137074340Y-52831999D01*
X137094936Y-53067407D01*
X137139709Y-53234502D01*
X137156097Y-53295663D01*
X137255965Y-53509830D01*
X137391505Y-53703401D01*
X137558599Y-53870495D01*
X137744160Y-54000426D01*
X137783024Y-54044743D01*
X137797035Y-54102000D01*
X137783024Y-54159257D01*
X137744159Y-54203575D01*
X137558595Y-54333508D01*
X137391505Y-54500598D01*
X137255965Y-54694170D01*
X137156097Y-54908336D01*
X137094936Y-55136592D01*
X137074340Y-55371999D01*
X111109514Y-55371999D01*
X111095533Y-55347783D01*
X110968870Y-55207110D01*
X110815730Y-55095848D01*
X110642802Y-55018855D01*
X110457648Y-54979500D01*
X110457646Y-54979500D01*
X110268354Y-54979500D01*
X110268352Y-54979500D01*
X110083197Y-55018855D01*
X109910269Y-55095848D01*
X109757129Y-55207110D01*
X109630466Y-55347783D01*
X109535820Y-55511715D01*
X109477326Y-55691742D01*
X109457540Y-55879999D01*
X109477326Y-56068257D01*
X109535820Y-56248284D01*
X109630466Y-56412216D01*
X109757129Y-56552889D01*
X109910269Y-56664151D01*
X110000791Y-56704454D01*
X110083197Y-56741144D01*
X110232386Y-56772854D01*
X110265766Y-56785169D01*
X110294280Y-56806462D01*
X111676524Y-58188706D01*
X111681658Y-58194160D01*
X111721732Y-58239395D01*
X111771460Y-58273718D01*
X111777488Y-58278153D01*
X111825075Y-58315436D01*
X111834403Y-58319634D01*
X111853954Y-58330660D01*
X111862373Y-58336471D01*
X111909888Y-58354491D01*
X111918877Y-58357900D01*
X111925798Y-58360767D01*
X111980910Y-58385571D01*
X111990961Y-58387412D01*
X112012582Y-58393438D01*
X112022157Y-58397070D01*
X112082171Y-58404356D01*
X112089539Y-58405477D01*
X112149000Y-58416374D01*
X112209314Y-58412725D01*
X112216800Y-58412500D01*
X119071413Y-58412500D01*
X119131150Y-58427838D01*
X119176110Y-58470057D01*
X119195168Y-58528714D01*
X119183612Y-58589297D01*
X119144298Y-58636818D01*
X119078929Y-58684310D01*
X118952266Y-58824983D01*
X118857620Y-58988915D01*
X118799126Y-59168942D01*
X118779340Y-59357200D01*
X118799126Y-59545457D01*
X118857620Y-59725484D01*
X118952266Y-59889416D01*
X119078929Y-60030089D01*
X119232069Y-60141351D01*
X119347968Y-60192952D01*
X119404997Y-60218344D01*
X119554186Y-60250054D01*
X119587566Y-60262369D01*
X119616080Y-60283662D01*
X119956424Y-60624006D01*
X119961558Y-60629459D01*
X120001634Y-60674695D01*
X120051384Y-60709034D01*
X120057382Y-60713448D01*
X120104976Y-60750736D01*
X120114313Y-60754938D01*
X120133852Y-60765958D01*
X120142273Y-60771771D01*
X120198269Y-60793007D01*
X120198775Y-60793199D01*
X120205696Y-60796065D01*
X120260810Y-60820871D01*
X120270872Y-60822714D01*
X120292485Y-60828739D01*
X120302057Y-60832370D01*
X120362071Y-60839656D01*
X120369439Y-60840777D01*
X120428900Y-60851674D01*
X120489214Y-60848025D01*
X120496700Y-60847800D01*
X132777255Y-60847800D01*
X132833550Y-60861315D01*
X132877573Y-60898915D01*
X132899728Y-60952402D01*
X132895186Y-61010118D01*
X132864936Y-61059481D01*
X129720490Y-64203926D01*
X129715038Y-64209058D01*
X129669807Y-64249130D01*
X129635482Y-64298858D01*
X129631045Y-64304887D01*
X129593763Y-64352474D01*
X129589562Y-64361810D01*
X129578540Y-64381354D01*
X129572727Y-64389775D01*
X129551298Y-64446277D01*
X129548434Y-64453192D01*
X129523629Y-64508309D01*
X129521785Y-64518372D01*
X129515762Y-64539977D01*
X129512130Y-64549554D01*
X129504841Y-64609577D01*
X129503714Y-64616978D01*
X129492825Y-64676397D01*
X129496474Y-64736714D01*
X129496700Y-64744200D01*
X129496700Y-70523156D01*
X129487261Y-70570609D01*
X129460381Y-70610837D01*
X129183237Y-70887981D01*
X129143009Y-70914861D01*
X129095556Y-70924300D01*
X110582908Y-70924300D01*
X110526613Y-70910785D01*
X110482590Y-70873185D01*
X110460435Y-70819698D01*
X110464977Y-70761982D01*
X110495227Y-70712619D01*
X110740445Y-70467401D01*
X111638054Y-69569790D01*
X111666564Y-69548501D01*
X111699941Y-69536187D01*
X111849135Y-69504476D01*
X112022062Y-69427483D01*
X112175203Y-69316220D01*
X112301865Y-69175548D01*
X112396511Y-69011616D01*
X112455006Y-68831588D01*
X112474792Y-68643332D01*
X112455006Y-68455076D01*
X112396511Y-68275048D01*
X112396511Y-68275047D01*
X112301865Y-68111115D01*
X112175202Y-67970442D01*
X112022062Y-67859180D01*
X111849134Y-67782187D01*
X111663980Y-67742832D01*
X111663978Y-67742832D01*
X111474686Y-67742832D01*
X111474684Y-67742832D01*
X111289529Y-67782187D01*
X111116601Y-67859180D01*
X110963461Y-67970442D01*
X110836798Y-68111115D01*
X110742152Y-68275047D01*
X110683658Y-68455074D01*
X110678999Y-68499403D01*
X110667598Y-68539824D01*
X110643359Y-68574121D01*
X108140253Y-71077227D01*
X108123018Y-71091592D01*
X108114595Y-71097406D01*
X108074521Y-71142639D01*
X108069391Y-71148090D01*
X108036399Y-71181083D01*
X108036397Y-71181084D01*
X108036396Y-71181085D01*
X106488113Y-72729369D01*
X106432526Y-72761463D01*
X106368338Y-72761463D01*
X106312751Y-72729369D01*
X102225662Y-68642280D01*
X102193568Y-68586693D01*
X102193568Y-68522505D01*
X102225659Y-68466922D01*
X103934122Y-66758458D01*
X103939560Y-66753340D01*
X103984795Y-66713266D01*
X104019147Y-66663496D01*
X104023542Y-66657524D01*
X104060836Y-66609925D01*
X104065035Y-66600592D01*
X104076057Y-66581049D01*
X104081871Y-66572627D01*
X104103310Y-66516093D01*
X104106156Y-66509222D01*
X104130970Y-66454091D01*
X104132814Y-66444025D01*
X104138836Y-66422423D01*
X104142470Y-66412843D01*
X104149757Y-66352816D01*
X104150879Y-66345442D01*
X104161774Y-66286001D01*
X104158125Y-66225686D01*
X104157900Y-66218201D01*
X104157900Y-54031660D01*
X116164391Y-54031660D01*
X116178196Y-54040335D01*
X116348359Y-54099877D01*
X116527500Y-54120062D01*
X116706640Y-54099877D01*
X116876803Y-54040335D01*
X116890607Y-54031661D01*
X116890607Y-54031660D01*
X117689391Y-54031660D01*
X117703196Y-54040335D01*
X117873359Y-54099877D01*
X118052500Y-54120062D01*
X118231640Y-54099877D01*
X118401803Y-54040335D01*
X118415607Y-54031661D01*
X118415607Y-54031660D01*
X118052501Y-53668553D01*
X118052500Y-53668553D01*
X117689391Y-54031660D01*
X116890607Y-54031660D01*
X116527501Y-53668553D01*
X116527500Y-53668553D01*
X116164391Y-54031660D01*
X104157900Y-54031660D01*
X104157900Y-53269160D01*
X115401891Y-53269160D01*
X115415696Y-53277835D01*
X115585855Y-53337376D01*
X115628480Y-53342178D01*
X115680569Y-53360404D01*
X115719592Y-53399425D01*
X115737819Y-53451514D01*
X115742622Y-53494140D01*
X115802165Y-53664304D01*
X115810838Y-53678108D01*
X116173947Y-53315001D01*
X116173947Y-53315000D01*
X116881053Y-53315000D01*
X117244160Y-53678107D01*
X117276121Y-53674507D01*
X117303887Y-53674508D01*
X117335838Y-53678108D01*
X117698947Y-53315001D01*
X117698947Y-53315000D01*
X118406053Y-53315000D01*
X118769160Y-53678107D01*
X118769161Y-53678107D01*
X118777835Y-53664303D01*
X118837376Y-53494144D01*
X118842178Y-53451518D01*
X118860405Y-53399428D01*
X118899428Y-53360405D01*
X118951518Y-53342178D01*
X118994144Y-53337376D01*
X119164303Y-53277835D01*
X119178107Y-53269161D01*
X119178107Y-53269160D01*
X118815000Y-52906053D01*
X118406053Y-53315000D01*
X117698947Y-53315000D01*
X117290000Y-52906053D01*
X116881053Y-53315000D01*
X116173947Y-53315000D01*
X115765001Y-52906053D01*
X115765000Y-52906053D01*
X115401891Y-53269160D01*
X104157900Y-53269160D01*
X104157900Y-52552500D01*
X114959937Y-52552500D01*
X114980122Y-52731640D01*
X115039665Y-52901804D01*
X115048338Y-52915608D01*
X115411447Y-52552501D01*
X115411447Y-52552500D01*
X116118553Y-52552500D01*
X116527500Y-52961447D01*
X116936447Y-52552500D01*
X117643553Y-52552500D01*
X118052500Y-52961447D01*
X118461446Y-52552501D01*
X119168553Y-52552501D01*
X119531660Y-52915607D01*
X119531661Y-52915607D01*
X119540335Y-52901803D01*
X119599877Y-52731640D01*
X119620062Y-52552500D01*
X119599877Y-52373359D01*
X119540335Y-52203196D01*
X119531660Y-52189391D01*
X119168553Y-52552500D01*
X119168553Y-52552501D01*
X118461446Y-52552501D01*
X118461447Y-52552500D01*
X118052500Y-52143553D01*
X117643553Y-52552500D01*
X116936447Y-52552500D01*
X116527500Y-52143553D01*
X116118553Y-52552500D01*
X115411447Y-52552500D01*
X115048338Y-52189390D01*
X115048338Y-52189391D01*
X115039664Y-52203196D01*
X114980122Y-52373359D01*
X114959937Y-52552500D01*
X104157900Y-52552500D01*
X104157900Y-52311244D01*
X104167339Y-52263791D01*
X104194219Y-52223563D01*
X104428131Y-51989651D01*
X104581943Y-51835838D01*
X115401890Y-51835838D01*
X115764999Y-52198947D01*
X116173947Y-51790000D01*
X116881053Y-51790000D01*
X117290000Y-52198947D01*
X117698947Y-51790000D01*
X118406053Y-51790000D01*
X118815000Y-52198947D01*
X118815001Y-52198947D01*
X119178108Y-51835838D01*
X119174508Y-51803884D01*
X119174507Y-51776119D01*
X119178107Y-51744160D01*
X118815000Y-51381053D01*
X118406053Y-51790000D01*
X117698947Y-51790000D01*
X117290000Y-51381053D01*
X116881053Y-51790000D01*
X116173947Y-51790000D01*
X115765001Y-51381053D01*
X115765000Y-51381053D01*
X115401890Y-51744161D01*
X115405491Y-51776123D01*
X115405491Y-51803892D01*
X115401890Y-51835838D01*
X104581943Y-51835838D01*
X104665922Y-51751859D01*
X104694433Y-51730569D01*
X104727811Y-51718255D01*
X104877003Y-51686544D01*
X105049930Y-51609551D01*
X105126270Y-51554087D01*
X105203070Y-51498289D01*
X105329733Y-51357616D01*
X105424379Y-51193684D01*
X105424379Y-51193683D01*
X105478376Y-51027500D01*
X114959937Y-51027500D01*
X114980122Y-51206640D01*
X115039665Y-51376804D01*
X115048338Y-51390608D01*
X115411447Y-51027501D01*
X115411447Y-51027500D01*
X116118553Y-51027500D01*
X116527500Y-51436447D01*
X116936447Y-51027500D01*
X117643553Y-51027500D01*
X118052500Y-51436447D01*
X118461446Y-51027501D01*
X119168553Y-51027501D01*
X119531660Y-51390607D01*
X119531661Y-51390607D01*
X119540335Y-51376803D01*
X119599877Y-51206640D01*
X119620062Y-51027500D01*
X119599877Y-50848359D01*
X119540335Y-50678196D01*
X119531660Y-50664391D01*
X119168553Y-51027500D01*
X119168553Y-51027501D01*
X118461446Y-51027501D01*
X118461447Y-51027500D01*
X118052500Y-50618553D01*
X117643553Y-51027500D01*
X116936447Y-51027500D01*
X116527500Y-50618553D01*
X116118553Y-51027500D01*
X115411447Y-51027500D01*
X115048338Y-50664390D01*
X115048338Y-50664391D01*
X115039664Y-50678196D01*
X114980122Y-50848359D01*
X114959937Y-51027500D01*
X105478376Y-51027500D01*
X105482874Y-51013656D01*
X105502660Y-50825400D01*
X105482874Y-50637144D01*
X105424379Y-50457116D01*
X105424379Y-50457115D01*
X105339926Y-50310838D01*
X115401890Y-50310838D01*
X115764999Y-50673947D01*
X116173946Y-50265001D01*
X116881053Y-50265001D01*
X117289999Y-50673947D01*
X117698946Y-50265001D01*
X118406053Y-50265001D01*
X118815000Y-50673947D01*
X118815001Y-50673947D01*
X119178108Y-50310838D01*
X119164304Y-50302165D01*
X118994140Y-50242622D01*
X118951514Y-50237819D01*
X118899425Y-50219592D01*
X118860404Y-50180569D01*
X118842178Y-50128480D01*
X118837376Y-50085855D01*
X118822031Y-50042000D01*
X137099364Y-50042000D01*
X138180000Y-50042000D01*
X138180000Y-48961364D01*
X138680000Y-48961364D01*
X138680000Y-50042000D01*
X139760636Y-50042000D01*
X139760635Y-50041999D01*
X139703430Y-49828507D01*
X139603599Y-49614421D01*
X139468109Y-49420921D01*
X139301081Y-49253893D01*
X139107576Y-49118399D01*
X138893492Y-49018569D01*
X138680000Y-48961364D01*
X138180000Y-48961364D01*
X138179999Y-48961364D01*
X137966507Y-49018569D01*
X137752421Y-49118400D01*
X137558921Y-49253890D01*
X137391890Y-49420921D01*
X137256400Y-49614421D01*
X137156569Y-49828507D01*
X137099364Y-50041999D01*
X137099364Y-50042000D01*
X118822031Y-50042000D01*
X118777835Y-49915696D01*
X118769160Y-49901891D01*
X118406053Y-50265000D01*
X118406053Y-50265001D01*
X117698946Y-50265001D01*
X117698947Y-50265000D01*
X117335838Y-49901890D01*
X117303892Y-49905491D01*
X117276123Y-49905491D01*
X117244161Y-49901890D01*
X116881053Y-50265000D01*
X116881053Y-50265001D01*
X116173946Y-50265001D01*
X116173947Y-50265000D01*
X115810838Y-49901890D01*
X115810838Y-49901891D01*
X115802164Y-49915696D01*
X115742622Y-50085859D01*
X115737819Y-50128485D01*
X115719592Y-50180572D01*
X115680572Y-50219592D01*
X115628485Y-50237819D01*
X115585859Y-50242622D01*
X115415696Y-50302164D01*
X115401891Y-50310838D01*
X115401890Y-50310838D01*
X105339926Y-50310838D01*
X105329733Y-50293183D01*
X105203070Y-50152510D01*
X105049930Y-50041248D01*
X104877002Y-49964255D01*
X104691848Y-49924900D01*
X104691846Y-49924900D01*
X104502554Y-49924900D01*
X104502552Y-49924900D01*
X104317397Y-49964255D01*
X104144469Y-50041248D01*
X103991329Y-50152510D01*
X103864666Y-50293183D01*
X103770020Y-50457115D01*
X103711525Y-50637146D01*
X103706866Y-50681471D01*
X103695466Y-50721891D01*
X103671227Y-50756188D01*
X102974290Y-51453126D01*
X102968838Y-51458258D01*
X102923607Y-51498330D01*
X102889282Y-51548058D01*
X102884845Y-51554087D01*
X102847563Y-51601674D01*
X102843362Y-51611010D01*
X102832340Y-51630554D01*
X102826527Y-51638975D01*
X102805098Y-51695477D01*
X102802234Y-51702392D01*
X102777429Y-51757509D01*
X102775585Y-51767572D01*
X102769562Y-51789177D01*
X102765930Y-51798754D01*
X102758641Y-51858777D01*
X102757514Y-51866178D01*
X102746625Y-51925597D01*
X102750274Y-51985914D01*
X102750500Y-51993400D01*
X102750500Y-65900356D01*
X102741061Y-65947809D01*
X102714181Y-65988037D01*
X101074080Y-67628136D01*
X101045567Y-67649428D01*
X101012181Y-67661745D01*
X100862997Y-67693456D01*
X100690067Y-67770449D01*
X100536929Y-67881710D01*
X100410266Y-68022383D01*
X100315620Y-68186315D01*
X100257126Y-68366342D01*
X100237340Y-68554599D01*
X100257126Y-68742857D01*
X100315620Y-68922884D01*
X100410266Y-69086816D01*
X100536929Y-69227489D01*
X100690069Y-69338751D01*
X100770621Y-69374615D01*
X100862997Y-69415744D01*
X101012186Y-69447454D01*
X101045566Y-69459769D01*
X101074080Y-69481062D01*
X105411152Y-73818134D01*
X105444045Y-73876867D01*
X105441402Y-73944132D01*
X105413326Y-74030540D01*
X105393540Y-74218800D01*
X105413326Y-74407057D01*
X105471820Y-74587084D01*
X105566466Y-74751016D01*
X105693129Y-74891689D01*
X105846269Y-75002951D01*
X106019197Y-75079944D01*
X106204352Y-75119300D01*
X106204354Y-75119300D01*
X106393646Y-75119300D01*
X106393648Y-75119300D01*
X106517083Y-75093062D01*
X106578803Y-75079944D01*
X106751730Y-75002951D01*
X106904871Y-74891688D01*
X107031533Y-74751016D01*
X107126179Y-74587084D01*
X107181118Y-74418000D01*
X109760000Y-74418000D01*
X109760000Y-75715824D01*
X109766402Y-75775375D01*
X109816647Y-75910089D01*
X109902811Y-76025188D01*
X110017910Y-76111352D01*
X110152624Y-76161597D01*
X110212176Y-76168000D01*
X111510000Y-76168000D01*
X111510000Y-74418000D01*
X112010000Y-74418000D01*
X112010000Y-76168000D01*
X113307824Y-76168000D01*
X113367375Y-76161597D01*
X113502089Y-76111352D01*
X113617188Y-76025188D01*
X113703352Y-75910089D01*
X113753597Y-75775375D01*
X113760000Y-75715824D01*
X113760000Y-74418000D01*
X112010000Y-74418000D01*
X111510000Y-74418000D01*
X109760000Y-74418000D01*
X107181118Y-74418000D01*
X107184674Y-74407056D01*
X107204460Y-74218800D01*
X107190154Y-74082688D01*
X107196587Y-74028339D01*
X107225792Y-73982052D01*
X108839826Y-72368019D01*
X108880055Y-72341139D01*
X108927508Y-72331700D01*
X109673192Y-72331700D01*
X109730667Y-72345824D01*
X109775048Y-72384980D01*
X109796225Y-72440246D01*
X109789374Y-72499033D01*
X109766402Y-72560622D01*
X109760000Y-72620176D01*
X109760000Y-73918000D01*
X113760000Y-73918000D01*
X113760000Y-72620176D01*
X113753597Y-72560622D01*
X113730626Y-72499033D01*
X113723775Y-72440246D01*
X113744952Y-72384980D01*
X113789333Y-72345824D01*
X113846808Y-72331700D01*
X115582264Y-72331700D01*
X115641691Y-72346868D01*
X115686579Y-72388660D01*
X115705948Y-72446854D01*
X115695058Y-72507211D01*
X115656575Y-72554966D01*
X115647892Y-72561467D01*
X115526602Y-72652263D01*
X115324263Y-72854602D01*
X115152772Y-73083686D01*
X115015634Y-73334836D01*
X114915629Y-73602958D01*
X114854804Y-73882570D01*
X114834389Y-74167999D01*
X114854804Y-74453429D01*
X114915629Y-74733041D01*
X114915631Y-74733046D01*
X115014442Y-74997969D01*
X115015634Y-75001163D01*
X115152772Y-75252313D01*
X115211812Y-75331181D01*
X115324261Y-75481395D01*
X115526605Y-75683739D01*
X115690751Y-75806617D01*
X115755686Y-75855227D01*
X115895435Y-75931535D01*
X116006839Y-75992367D01*
X116274954Y-76092369D01*
X116274957Y-76092369D01*
X116274958Y-76092370D01*
X116299451Y-76097698D01*
X116554572Y-76153196D01*
X116818012Y-76172037D01*
X116839999Y-76173610D01*
X116839999Y-76173609D01*
X116840000Y-76173610D01*
X117125428Y-76153196D01*
X117405046Y-76092369D01*
X117595604Y-76021294D01*
X117641884Y-76013512D01*
X117687745Y-76023489D01*
X117726614Y-76049796D01*
X118227924Y-76551106D01*
X118233058Y-76556559D01*
X118273134Y-76601795D01*
X118322867Y-76636123D01*
X118328886Y-76640552D01*
X118355101Y-76661091D01*
X118376475Y-76677836D01*
X118385796Y-76682031D01*
X118385807Y-76682036D01*
X118405358Y-76693063D01*
X118413771Y-76698870D01*
X118413772Y-76698870D01*
X118413773Y-76698871D01*
X118470298Y-76720307D01*
X118477195Y-76723165D01*
X118532309Y-76747970D01*
X118542375Y-76749814D01*
X118563981Y-76755838D01*
X118573557Y-76759470D01*
X118633564Y-76766755D01*
X118640955Y-76767879D01*
X118700399Y-76778774D01*
X118760713Y-76775125D01*
X118768199Y-76774900D01*
X125579800Y-76774900D01*
X125587285Y-76775125D01*
X125647600Y-76778774D01*
X125707058Y-76767877D01*
X125714422Y-76766757D01*
X125774443Y-76759470D01*
X125784008Y-76755841D01*
X125805636Y-76749811D01*
X125815690Y-76747970D01*
X125815691Y-76747969D01*
X125815693Y-76747969D01*
X125870799Y-76723168D01*
X125877713Y-76720303D01*
X125934227Y-76698871D01*
X125942639Y-76693063D01*
X125962194Y-76682034D01*
X125971525Y-76677836D01*
X126019138Y-76640531D01*
X126025110Y-76636137D01*
X126074866Y-76601795D01*
X126114956Y-76556541D01*
X126120059Y-76551121D01*
X126621387Y-76049793D01*
X126660252Y-76023489D01*
X126706114Y-76013512D01*
X126752395Y-76021294D01*
X126942954Y-76092369D01*
X126942957Y-76092369D01*
X126942958Y-76092370D01*
X126967451Y-76097698D01*
X127222572Y-76153196D01*
X127486012Y-76172037D01*
X127507999Y-76173610D01*
X127507999Y-76173609D01*
X127508000Y-76173610D01*
X127793428Y-76153196D01*
X128073046Y-76092369D01*
X128263604Y-76021294D01*
X128309884Y-76013512D01*
X128355745Y-76023489D01*
X128394614Y-76049796D01*
X129111981Y-76767163D01*
X129138861Y-76807391D01*
X129148300Y-76854844D01*
X129148300Y-77168500D01*
X129131687Y-77230500D01*
X129086300Y-77275887D01*
X129024300Y-77292500D01*
X91420044Y-77292500D01*
X91372591Y-77283061D01*
X91332363Y-77256181D01*
X88776419Y-74700237D01*
X88749539Y-74660009D01*
X88740100Y-74612556D01*
X88740100Y-74323899D01*
X88756713Y-74261899D01*
X88802100Y-74216512D01*
X88864100Y-74199899D01*
X89084270Y-74199899D01*
X89084272Y-74199899D01*
X89143883Y-74193491D01*
X89278731Y-74143196D01*
X89393946Y-74056946D01*
X89480196Y-73941731D01*
X89530491Y-73806883D01*
X89536900Y-73747273D01*
X89536899Y-69573842D01*
X89546338Y-69526390D01*
X89573215Y-69486165D01*
X94057362Y-65002019D01*
X94097591Y-64975139D01*
X94145044Y-64965700D01*
X95103192Y-64965700D01*
X95163781Y-64981511D01*
X95208919Y-65024910D01*
X95268873Y-65122746D01*
X95289332Y-65156132D01*
X95444357Y-65337643D01*
X95625868Y-65492668D01*
X95829395Y-65617389D01*
X95910862Y-65651134D01*
X96049926Y-65708737D01*
X96063139Y-65711909D01*
X96282034Y-65764461D01*
X96520000Y-65783189D01*
X96757966Y-65764461D01*
X96990073Y-65708737D01*
X97210605Y-65617389D01*
X97414132Y-65492668D01*
X97595643Y-65337643D01*
X97695711Y-65220477D01*
X97738086Y-65188401D01*
X97790000Y-65177011D01*
X97841914Y-65188401D01*
X97884288Y-65220477D01*
X97984357Y-65337643D01*
X98165868Y-65492668D01*
X98369395Y-65617389D01*
X98450862Y-65651134D01*
X98589926Y-65708737D01*
X98603139Y-65711909D01*
X98822034Y-65764461D01*
X99060000Y-65783189D01*
X99297966Y-65764461D01*
X99530073Y-65708737D01*
X99750605Y-65617389D01*
X99954132Y-65492668D01*
X100135643Y-65337643D01*
X100290668Y-65156132D01*
X100415389Y-64952605D01*
X100506737Y-64732073D01*
X100562461Y-64499966D01*
X100581189Y-64262000D01*
X100562461Y-64024034D01*
X100506737Y-63791927D01*
X100502662Y-63782090D01*
X100415390Y-63571398D01*
X100415389Y-63571395D01*
X100290668Y-63367868D01*
X100135643Y-63186357D01*
X99980859Y-63054159D01*
X99954135Y-63031334D01*
X99940713Y-63023109D01*
X99750605Y-62906611D01*
X99750602Y-62906610D01*
X99750601Y-62906609D01*
X99530073Y-62815262D01*
X99297967Y-62759539D01*
X99060000Y-62740811D01*
X98822032Y-62759539D01*
X98589926Y-62815262D01*
X98369398Y-62906609D01*
X98165864Y-63031334D01*
X97984357Y-63186357D01*
X97884290Y-63303520D01*
X97841914Y-63335598D01*
X97790000Y-63346988D01*
X97738086Y-63335598D01*
X97695710Y-63303520D01*
X97668683Y-63271876D01*
X97595643Y-63186357D01*
X97440859Y-63054159D01*
X97414135Y-63031334D01*
X97400713Y-63023109D01*
X97210605Y-62906611D01*
X97210602Y-62906610D01*
X97210601Y-62906609D01*
X96990073Y-62815262D01*
X96757967Y-62759539D01*
X96520000Y-62740811D01*
X96282032Y-62759539D01*
X96049926Y-62815262D01*
X95829398Y-62906609D01*
X95625864Y-63031334D01*
X95444357Y-63186357D01*
X95289331Y-63367869D01*
X95208919Y-63499090D01*
X95163781Y-63542489D01*
X95103192Y-63558300D01*
X93827200Y-63558300D01*
X93819714Y-63558074D01*
X93759399Y-63554425D01*
X93699971Y-63565316D01*
X93692568Y-63566443D01*
X93632555Y-63573730D01*
X93622981Y-63577361D01*
X93601371Y-63583385D01*
X93591308Y-63585229D01*
X93536197Y-63610032D01*
X93529280Y-63612898D01*
X93472770Y-63634329D01*
X93464349Y-63640142D01*
X93444813Y-63651161D01*
X93435475Y-63655363D01*
X93387907Y-63692631D01*
X93381878Y-63697067D01*
X93332131Y-63731406D01*
X93292058Y-63776638D01*
X93286926Y-63782090D01*
X88506435Y-68562581D01*
X88466207Y-68589461D01*
X88418754Y-68598900D01*
X86988530Y-68598900D01*
X86928915Y-68605309D01*
X86794069Y-68655604D01*
X86678854Y-68741854D01*
X86592604Y-68857068D01*
X86568056Y-68922884D01*
X86542309Y-68991917D01*
X86537255Y-69038929D01*
X86535900Y-69051530D01*
X86535900Y-73747269D01*
X86542309Y-73806883D01*
X86592604Y-73941731D01*
X86678854Y-74056946D01*
X86794069Y-74143196D01*
X86928917Y-74193491D01*
X86988527Y-74199900D01*
X87208700Y-74199900D01*
X87270700Y-74216513D01*
X87316087Y-74261900D01*
X87332700Y-74323900D01*
X87332700Y-74894160D01*
X87315223Y-74957634D01*
X87267718Y-75003215D01*
X87203576Y-75018054D01*
X87140879Y-74997969D01*
X86953007Y-74875226D01*
X86807156Y-74811250D01*
X86725281Y-74775337D01*
X86484221Y-74714292D01*
X86484219Y-74714291D01*
X86484216Y-74714291D01*
X86298473Y-74698900D01*
X86298467Y-74698900D01*
X83974333Y-74698900D01*
X83974327Y-74698900D01*
X83788583Y-74714291D01*
X83788579Y-74714291D01*
X83788579Y-74714292D01*
X83547519Y-74775337D01*
X83547516Y-74775338D01*
X83547517Y-74775338D01*
X83319795Y-74875225D01*
X83193659Y-74957634D01*
X83111615Y-75011236D01*
X82943182Y-75166290D01*
X82928659Y-75179659D01*
X82775929Y-75375885D01*
X82657570Y-75594594D01*
X82576829Y-75829784D01*
X82535900Y-76075065D01*
X82535900Y-76323735D01*
X82576829Y-76569015D01*
X82647510Y-76774900D01*
X82657572Y-76804210D01*
X82684974Y-76854844D01*
X82775929Y-77022914D01*
X82817701Y-77076582D01*
X82928662Y-77219144D01*
X83111615Y-77387564D01*
X83319793Y-77523573D01*
X83547519Y-77623463D01*
X83788579Y-77684508D01*
X83862880Y-77690664D01*
X83974327Y-77699900D01*
X83974333Y-77699900D01*
X86298467Y-77699900D01*
X86298473Y-77699900D01*
X86399787Y-77691504D01*
X86484221Y-77684508D01*
X86725281Y-77623463D01*
X86953007Y-77523573D01*
X87161185Y-77387564D01*
X87344138Y-77219144D01*
X87496874Y-77022909D01*
X87615228Y-76804210D01*
X87695971Y-76569014D01*
X87736900Y-76323735D01*
X87736900Y-76075065D01*
X87715688Y-75947947D01*
X87721052Y-75886310D01*
X87755534Y-75834935D01*
X87810547Y-75806617D01*
X87872395Y-75808408D01*
X87925678Y-75839860D01*
X90561924Y-78476106D01*
X90567058Y-78481559D01*
X90607134Y-78526795D01*
X90656884Y-78561134D01*
X90662882Y-78565548D01*
X90710476Y-78602836D01*
X90719813Y-78607038D01*
X90739352Y-78618058D01*
X90747773Y-78623871D01*
X90792676Y-78640900D01*
X90847162Y-78681460D01*
X90872104Y-78744641D01*
X90860018Y-78811483D01*
X90814530Y-78861928D01*
X90749291Y-78880841D01*
X80793728Y-78927783D01*
X80735101Y-78913361D01*
X80690234Y-78872962D01*
X80669763Y-78816164D01*
X80678541Y-78756431D01*
X80704480Y-78721427D01*
X80703135Y-78720323D01*
X80710880Y-78710885D01*
X80710883Y-78710883D01*
X80835910Y-78558538D01*
X80928814Y-78384727D01*
X80986024Y-78196132D01*
X81005341Y-78000000D01*
X80986024Y-77803868D01*
X80928814Y-77615273D01*
X80835910Y-77441462D01*
X80710883Y-77289117D01*
X80558538Y-77164090D01*
X80536091Y-77152091D01*
X80384726Y-77071185D01*
X80196133Y-77013976D01*
X80000000Y-76994659D01*
X79803866Y-77013976D01*
X79615273Y-77071185D01*
X79441463Y-77164089D01*
X79289117Y-77289117D01*
X79164089Y-77441463D01*
X79071186Y-77615272D01*
X79057268Y-77661153D01*
X79027565Y-77711542D01*
X78978068Y-77742710D01*
X78919791Y-77747720D01*
X78865701Y-77725458D01*
X78827833Y-77680878D01*
X78814614Y-77623899D01*
X78865938Y-72561473D01*
X80235900Y-72561473D01*
X80251291Y-72747216D01*
X80251291Y-72747219D01*
X80251292Y-72747221D01*
X80312337Y-72988281D01*
X80354185Y-73083685D01*
X80412225Y-73216004D01*
X80412227Y-73216007D01*
X80548236Y-73424185D01*
X80716656Y-73607138D01*
X80716659Y-73607140D01*
X80912885Y-73759870D01*
X80912887Y-73759871D01*
X80912891Y-73759874D01*
X81131590Y-73878228D01*
X81366786Y-73958971D01*
X81612065Y-73999900D01*
X81860735Y-73999900D01*
X82106014Y-73958971D01*
X82341210Y-73878228D01*
X82559909Y-73759874D01*
X82756144Y-73607138D01*
X82924564Y-73424185D01*
X83060573Y-73216007D01*
X83160463Y-72988281D01*
X83221508Y-72747221D01*
X83236900Y-72561467D01*
X83236900Y-70237333D01*
X83221508Y-70051579D01*
X83160463Y-69810519D01*
X83060573Y-69582793D01*
X82924564Y-69374615D01*
X82756144Y-69191662D01*
X82734012Y-69174436D01*
X82559914Y-69038929D01*
X82559910Y-69038926D01*
X82559909Y-69038926D01*
X82341210Y-68920572D01*
X82341206Y-68920570D01*
X82341205Y-68920570D01*
X82106015Y-68839829D01*
X81860735Y-68798900D01*
X81612065Y-68798900D01*
X81366784Y-68839829D01*
X81131594Y-68920570D01*
X80912885Y-69038929D01*
X80716659Y-69191659D01*
X80716656Y-69191661D01*
X80716656Y-69191662D01*
X80548236Y-69374615D01*
X80521365Y-69415744D01*
X80412225Y-69582795D01*
X80322180Y-69788078D01*
X80312337Y-69810519D01*
X80251292Y-70051579D01*
X80251291Y-70051583D01*
X80235900Y-70237327D01*
X80235900Y-72561473D01*
X78865938Y-72561473D01*
X78950081Y-64262000D01*
X84330811Y-64262000D01*
X84349539Y-64499967D01*
X84405262Y-64732073D01*
X84496609Y-64952601D01*
X84496611Y-64952605D01*
X84563675Y-65062044D01*
X84621334Y-65156135D01*
X84682873Y-65228188D01*
X84776357Y-65337643D01*
X84957868Y-65492668D01*
X85161395Y-65617389D01*
X85242862Y-65651134D01*
X85381926Y-65708737D01*
X85395139Y-65711909D01*
X85614034Y-65764461D01*
X85852000Y-65783189D01*
X86089966Y-65764461D01*
X86322073Y-65708737D01*
X86542605Y-65617389D01*
X86746132Y-65492668D01*
X86927643Y-65337643D01*
X87027711Y-65220477D01*
X87070086Y-65188401D01*
X87122000Y-65177011D01*
X87173914Y-65188401D01*
X87216288Y-65220477D01*
X87316357Y-65337643D01*
X87497868Y-65492668D01*
X87701395Y-65617389D01*
X87782862Y-65651134D01*
X87921926Y-65708737D01*
X87935139Y-65711909D01*
X88154034Y-65764461D01*
X88392000Y-65783189D01*
X88629966Y-65764461D01*
X88862073Y-65708737D01*
X89082605Y-65617389D01*
X89286132Y-65492668D01*
X89467643Y-65337643D01*
X89622668Y-65156132D01*
X89747389Y-64952605D01*
X89838737Y-64732073D01*
X89894461Y-64499966D01*
X89913189Y-64262000D01*
X89894461Y-64024034D01*
X89838737Y-63791927D01*
X89834662Y-63782090D01*
X89747390Y-63571398D01*
X89747389Y-63571395D01*
X89622668Y-63367868D01*
X89467643Y-63186357D01*
X89312859Y-63054159D01*
X89286135Y-63031334D01*
X89272713Y-63023109D01*
X89082605Y-62906611D01*
X89082602Y-62906610D01*
X89082601Y-62906609D01*
X88862073Y-62815262D01*
X88629967Y-62759539D01*
X88392000Y-62740811D01*
X88154032Y-62759539D01*
X87921926Y-62815262D01*
X87701398Y-62906609D01*
X87497864Y-63031334D01*
X87316357Y-63186357D01*
X87216290Y-63303520D01*
X87173914Y-63335598D01*
X87122000Y-63346988D01*
X87070086Y-63335598D01*
X87027710Y-63303520D01*
X87000683Y-63271876D01*
X86927643Y-63186357D01*
X86772859Y-63054159D01*
X86746135Y-63031334D01*
X86732713Y-63023109D01*
X86542605Y-62906611D01*
X86542602Y-62906610D01*
X86542601Y-62906609D01*
X86322073Y-62815262D01*
X86089967Y-62759539D01*
X85852000Y-62740811D01*
X85614032Y-62759539D01*
X85381926Y-62815262D01*
X85161398Y-62906609D01*
X84957864Y-63031334D01*
X84776357Y-63186357D01*
X84621334Y-63367864D01*
X84496609Y-63571398D01*
X84405262Y-63791926D01*
X84349539Y-64024032D01*
X84330811Y-64262000D01*
X78950081Y-64262000D01*
X79099253Y-49548338D01*
X116164390Y-49548338D01*
X116527500Y-49911447D01*
X116527501Y-49911447D01*
X116890608Y-49548338D01*
X117689390Y-49548338D01*
X118052500Y-49911447D01*
X118052501Y-49911447D01*
X118415608Y-49548338D01*
X118401804Y-49539665D01*
X118231640Y-49480122D01*
X118052499Y-49459937D01*
X117873359Y-49480122D01*
X117703196Y-49539664D01*
X117689391Y-49548338D01*
X117689390Y-49548338D01*
X116890608Y-49548338D01*
X116876804Y-49539665D01*
X116706640Y-49480122D01*
X116527499Y-49459937D01*
X116348359Y-49480122D01*
X116178196Y-49539664D01*
X116164391Y-49548338D01*
X116164390Y-49548338D01*
X79099253Y-49548338D01*
X79125527Y-46956769D01*
X84968782Y-46956769D01*
X85161620Y-47074941D01*
X85382081Y-47166260D01*
X85614110Y-47221965D01*
X85852000Y-47240687D01*
X86089889Y-47221965D01*
X86321918Y-47166260D01*
X86542379Y-47074942D01*
X86735215Y-46956770D01*
X86735216Y-46956769D01*
X87508782Y-46956769D01*
X87701620Y-47074941D01*
X87922081Y-47166260D01*
X88154110Y-47221965D01*
X88392000Y-47240687D01*
X88629889Y-47221965D01*
X88861918Y-47166260D01*
X89082379Y-47074942D01*
X89275215Y-46956770D01*
X89275216Y-46956769D01*
X88392001Y-46073553D01*
X88392000Y-46073553D01*
X87508782Y-46956769D01*
X86735216Y-46956769D01*
X85852001Y-46073553D01*
X85852000Y-46073553D01*
X84968782Y-46956769D01*
X79125527Y-46956769D01*
X79138066Y-45720000D01*
X84331312Y-45720000D01*
X84350034Y-45957889D01*
X84405739Y-46189918D01*
X84497058Y-46410379D01*
X84615229Y-46603216D01*
X85498446Y-45720001D01*
X86205553Y-45720001D01*
X87088769Y-46603215D01*
X87107426Y-46601007D01*
X87136576Y-46601008D01*
X87155229Y-46603216D01*
X88038446Y-45720001D01*
X88745553Y-45720001D01*
X89628769Y-46603216D01*
X89628770Y-46603215D01*
X89746942Y-46410379D01*
X89838260Y-46189918D01*
X89893965Y-45957889D01*
X89912687Y-45720000D01*
X94998811Y-45720000D01*
X95017539Y-45957967D01*
X95073262Y-46190073D01*
X95164609Y-46410601D01*
X95289334Y-46614135D01*
X95350873Y-46686188D01*
X95444357Y-46795643D01*
X95625868Y-46950668D01*
X95829395Y-47075389D01*
X95910862Y-47109134D01*
X96049926Y-47166737D01*
X96123254Y-47184341D01*
X96282034Y-47222461D01*
X96520000Y-47241189D01*
X96757966Y-47222461D01*
X96990073Y-47166737D01*
X97210605Y-47075389D01*
X97414132Y-46950668D01*
X97595643Y-46795643D01*
X97695711Y-46678477D01*
X97738086Y-46646401D01*
X97790000Y-46635011D01*
X97841914Y-46646401D01*
X97884288Y-46678477D01*
X97984357Y-46795643D01*
X98165868Y-46950668D01*
X98369395Y-47075389D01*
X98450862Y-47109134D01*
X98589926Y-47166737D01*
X98663254Y-47184341D01*
X98822034Y-47222461D01*
X99060000Y-47241189D01*
X99297966Y-47222461D01*
X99530073Y-47166737D01*
X99750605Y-47075389D01*
X99954132Y-46950668D01*
X100135643Y-46795643D01*
X100290668Y-46614132D01*
X100415389Y-46410605D01*
X100506737Y-46190073D01*
X100562461Y-45957966D01*
X100581189Y-45720000D01*
X100562461Y-45482034D01*
X100506737Y-45249927D01*
X100415389Y-45029395D01*
X100290668Y-44825868D01*
X100135643Y-44644357D01*
X100026188Y-44550873D01*
X99954135Y-44489334D01*
X99954132Y-44489332D01*
X99750605Y-44364611D01*
X99750602Y-44364610D01*
X99750601Y-44364609D01*
X99530073Y-44273262D01*
X99297967Y-44217539D01*
X99060000Y-44198811D01*
X98822032Y-44217539D01*
X98589926Y-44273262D01*
X98369398Y-44364609D01*
X98165864Y-44489334D01*
X97984357Y-44644357D01*
X97884290Y-44761520D01*
X97841914Y-44793598D01*
X97790000Y-44804988D01*
X97738086Y-44793598D01*
X97695710Y-44761520D01*
X97668683Y-44729876D01*
X97595643Y-44644357D01*
X97486188Y-44550873D01*
X97414135Y-44489334D01*
X97414132Y-44489332D01*
X97210605Y-44364611D01*
X97210602Y-44364610D01*
X97210601Y-44364609D01*
X96990073Y-44273262D01*
X96757967Y-44217539D01*
X96520000Y-44198811D01*
X96282032Y-44217539D01*
X96049926Y-44273262D01*
X95829398Y-44364609D01*
X95625864Y-44489334D01*
X95444357Y-44644357D01*
X95289334Y-44825864D01*
X95164609Y-45029398D01*
X95073262Y-45249926D01*
X95017539Y-45482032D01*
X94998811Y-45720000D01*
X89912687Y-45720000D01*
X89893965Y-45482110D01*
X89838260Y-45250081D01*
X89746941Y-45029620D01*
X89628769Y-44836782D01*
X88745553Y-45720000D01*
X88745553Y-45720001D01*
X88038446Y-45720001D01*
X88038446Y-45720000D01*
X87155229Y-44836782D01*
X87136574Y-44838991D01*
X87107427Y-44838991D01*
X87088769Y-44836783D01*
X86205553Y-45720000D01*
X86205553Y-45720001D01*
X85498446Y-45720001D01*
X85498446Y-45720000D01*
X84615229Y-44836782D01*
X84497055Y-45029622D01*
X84405740Y-45250078D01*
X84350034Y-45482110D01*
X84331312Y-45720000D01*
X79138066Y-45720000D01*
X79150605Y-44483229D01*
X84968782Y-44483229D01*
X85852000Y-45366446D01*
X85852001Y-45366446D01*
X86735216Y-44483229D01*
X87508782Y-44483229D01*
X88392000Y-45366446D01*
X88392001Y-45366446D01*
X89275216Y-44483229D01*
X89082379Y-44365058D01*
X88861918Y-44273739D01*
X88629889Y-44218034D01*
X88392000Y-44199312D01*
X88154110Y-44218034D01*
X87922078Y-44273740D01*
X87701622Y-44365055D01*
X87508782Y-44483229D01*
X86735216Y-44483229D01*
X86542379Y-44365058D01*
X86321918Y-44273739D01*
X86089889Y-44218034D01*
X85852000Y-44199312D01*
X85614110Y-44218034D01*
X85382078Y-44273740D01*
X85161622Y-44365055D01*
X84968782Y-44483229D01*
X79150605Y-44483229D01*
X79171800Y-42392600D01*
X79137555Y-38968077D01*
X79136363Y-38848926D01*
X79155100Y-38782139D01*
X79206780Y-38735863D01*
X79275228Y-38724586D01*
X79339020Y-38751837D01*
X79441462Y-38835910D01*
X79615273Y-38928814D01*
X79803868Y-38986024D01*
X80000000Y-39005341D01*
X80196132Y-38986024D01*
X80384727Y-38928814D01*
X80558538Y-38835910D01*
X80710883Y-38710883D01*
X80835910Y-38558538D01*
X80928814Y-38384727D01*
X80986024Y-38196132D01*
X81005341Y-38000000D01*
X80986024Y-37803868D01*
X80928814Y-37615273D01*
X80845685Y-37459749D01*
X80831067Y-37398850D01*
X80848076Y-37338574D01*
X80892372Y-37294299D01*
X80952650Y-37277320D01*
X93815873Y-37029563D01*
X93878138Y-37044955D01*
G37*
%TD.AperFunction*%
%TA.AperFunction,Conductor*%
G36*
X120398667Y-72345824D02*
G01*
X120443048Y-72384980D01*
X120464225Y-72440246D01*
X120457374Y-72499033D01*
X120434402Y-72560622D01*
X120428000Y-72620176D01*
X120428000Y-73918000D01*
X124428000Y-73918000D01*
X124428000Y-72620176D01*
X124421597Y-72560622D01*
X124398626Y-72499033D01*
X124391775Y-72440246D01*
X124412952Y-72384980D01*
X124457333Y-72345824D01*
X124514808Y-72331700D01*
X126250264Y-72331700D01*
X126309691Y-72346868D01*
X126354579Y-72388660D01*
X126373948Y-72446854D01*
X126363058Y-72507211D01*
X126324575Y-72554966D01*
X126315892Y-72561467D01*
X126194602Y-72652263D01*
X125992263Y-72854602D01*
X125820772Y-73083686D01*
X125683634Y-73334836D01*
X125583629Y-73602958D01*
X125522804Y-73882570D01*
X125502389Y-74167999D01*
X125522804Y-74453429D01*
X125583630Y-74733044D01*
X125654703Y-74923600D01*
X125659687Y-74993291D01*
X125626202Y-75054614D01*
X125349634Y-75331183D01*
X125309409Y-75358061D01*
X125261956Y-75367500D01*
X124552000Y-75367500D01*
X124490000Y-75350887D01*
X124444613Y-75305500D01*
X124428000Y-75243500D01*
X124428000Y-74418000D01*
X120428000Y-74418000D01*
X120428000Y-75243500D01*
X120411387Y-75305500D01*
X120366000Y-75350887D01*
X120304000Y-75367500D01*
X119086044Y-75367500D01*
X119038591Y-75358061D01*
X118998363Y-75331181D01*
X118721796Y-75054614D01*
X118695489Y-75015745D01*
X118685512Y-74969884D01*
X118693294Y-74923604D01*
X118764369Y-74733046D01*
X118825196Y-74453428D01*
X118845610Y-74168000D01*
X118825196Y-73882572D01*
X118764369Y-73602954D01*
X118664367Y-73334839D01*
X118527226Y-73083685D01*
X118355739Y-72854605D01*
X118153395Y-72652261D01*
X118023424Y-72554966D01*
X117984942Y-72507211D01*
X117974052Y-72446854D01*
X117993421Y-72388660D01*
X118038309Y-72346868D01*
X118097736Y-72331700D01*
X120341192Y-72331700D01*
X120398667Y-72345824D01*
G37*
%TD.AperFunction*%
%TD*%
M02*
