%TF.GenerationSoftware,KiCad,Pcbnew,7.0.1*%
%TF.CreationDate,2023-04-20T23:02:29+02:00*%
%TF.ProjectId,Motordinges,4d6f746f-7264-4696-9e67-65732e6b6963,rev?*%
%TF.SameCoordinates,Original*%
%TF.FileFunction,Copper,L1,Top*%
%TF.FilePolarity,Positive*%
%FSLAX46Y46*%
G04 Gerber Fmt 4.6, Leading zero omitted, Abs format (unit mm)*
G04 Created by KiCad (PCBNEW 7.0.1) date 2023-04-20 23:02:29*
%MOMM*%
%LPD*%
G01*
G04 APERTURE LIST*
G04 Aperture macros list*
%AMRoundRect*
0 Rectangle with rounded corners*
0 $1 Rounding radius*
0 $2 $3 $4 $5 $6 $7 $8 $9 X,Y pos of 4 corners*
0 Add a 4 corners polygon primitive as box body*
4,1,4,$2,$3,$4,$5,$6,$7,$8,$9,$2,$3,0*
0 Add four circle primitives for the rounded corners*
1,1,$1+$1,$2,$3*
1,1,$1+$1,$4,$5*
1,1,$1+$1,$6,$7*
1,1,$1+$1,$8,$9*
0 Add four rect primitives between the rounded corners*
20,1,$1+$1,$2,$3,$4,$5,0*
20,1,$1+$1,$4,$5,$6,$7,0*
20,1,$1+$1,$6,$7,$8,$9,0*
20,1,$1+$1,$8,$9,$2,$3,0*%
G04 Aperture macros list end*
%TA.AperFunction,ComponentPad*%
%ADD10R,1.700000X1.700000*%
%TD*%
%TA.AperFunction,ComponentPad*%
%ADD11O,1.700000X1.700000*%
%TD*%
%TA.AperFunction,SMDPad,CuDef*%
%ADD12RoundRect,0.250000X0.337500X0.475000X-0.337500X0.475000X-0.337500X-0.475000X0.337500X-0.475000X0*%
%TD*%
%TA.AperFunction,SMDPad,CuDef*%
%ADD13R,1.500000X2.000000*%
%TD*%
%TA.AperFunction,SMDPad,CuDef*%
%ADD14R,3.800000X2.000000*%
%TD*%
%TA.AperFunction,SMDPad,CuDef*%
%ADD15RoundRect,0.250000X0.475000X-0.337500X0.475000X0.337500X-0.475000X0.337500X-0.475000X-0.337500X0*%
%TD*%
%TA.AperFunction,SMDPad,CuDef*%
%ADD16R,0.760000X1.600000*%
%TD*%
%TA.AperFunction,SMDPad,CuDef*%
%ADD17RoundRect,0.250000X-0.475000X0.337500X-0.475000X-0.337500X0.475000X-0.337500X0.475000X0.337500X0*%
%TD*%
%TA.AperFunction,SMDPad,CuDef*%
%ADD18RoundRect,0.250000X0.450000X-0.325000X0.450000X0.325000X-0.450000X0.325000X-0.450000X-0.325000X0*%
%TD*%
%TA.AperFunction,SMDPad,CuDef*%
%ADD19R,1.500000X0.900000*%
%TD*%
%TA.AperFunction,SMDPad,CuDef*%
%ADD20R,0.900000X1.500000*%
%TD*%
%TA.AperFunction,SMDPad,CuDef*%
%ADD21R,1.050000X1.050000*%
%TD*%
%TA.AperFunction,HeatsinkPad*%
%ADD22C,0.600000*%
%TD*%
%TA.AperFunction,SMDPad,CuDef*%
%ADD23R,4.200000X4.200000*%
%TD*%
%TA.AperFunction,SMDPad,CuDef*%
%ADD24RoundRect,0.250000X-0.350000X-0.450000X0.350000X-0.450000X0.350000X0.450000X-0.350000X0.450000X0*%
%TD*%
%TA.AperFunction,ComponentPad*%
%ADD25R,2.000000X4.600000*%
%TD*%
%TA.AperFunction,ComponentPad*%
%ADD26O,2.000000X4.200000*%
%TD*%
%TA.AperFunction,ComponentPad*%
%ADD27O,4.200000X2.000000*%
%TD*%
%TA.AperFunction,SMDPad,CuDef*%
%ADD28RoundRect,0.250000X0.450000X-0.350000X0.450000X0.350000X-0.450000X0.350000X-0.450000X-0.350000X0*%
%TD*%
%TA.AperFunction,SMDPad,CuDef*%
%ADD29RoundRect,0.250000X0.350000X0.450000X-0.350000X0.450000X-0.350000X-0.450000X0.350000X-0.450000X0*%
%TD*%
%TA.AperFunction,ComponentPad*%
%ADD30R,3.000000X3.000000*%
%TD*%
%TA.AperFunction,ComponentPad*%
%ADD31C,3.000000*%
%TD*%
%TA.AperFunction,ComponentPad*%
%ADD32C,2.032000*%
%TD*%
%TA.AperFunction,ViaPad*%
%ADD33C,0.800000*%
%TD*%
%TA.AperFunction,Conductor*%
%ADD34C,0.406400*%
%TD*%
G04 APERTURE END LIST*
D10*
%TO.P,Motor1,1,Pin_1*%
%TO.N,A8*%
X140462000Y-67056000D03*
D11*
%TO.P,Motor1,2,Pin_2*%
%TO.N,GPIO23*%
X140462000Y-69596000D03*
%TD*%
D10*
%TO.P,J1,1,Pin_1*%
%TO.N,+3.3V*%
X138430000Y-57912000D03*
D11*
%TO.P,J1,2,Pin_2*%
%TO.N,RX0*%
X138430000Y-55372000D03*
%TO.P,J1,3,Pin_3*%
%TO.N,TX0*%
X138430000Y-52832000D03*
%TO.P,J1,4,Pin_4*%
%TO.N,GND*%
X138430000Y-50292000D03*
%TD*%
D12*
%TO.P,C1,1*%
%TO.N,+3.3V*%
X106723000Y-45872400D03*
%TO.P,C1,2*%
%TO.N,GND*%
X104648000Y-45872400D03*
%TD*%
D13*
%TO.P,U3,1,GND*%
%TO.N,GND*%
X95363000Y-74803400D03*
%TO.P,U3,2,VO*%
%TO.N,+3.3V*%
X97663000Y-74803400D03*
D14*
X97663000Y-68503400D03*
D13*
%TO.P,U3,3,VI*%
%TO.N,VDD*%
X99963000Y-74803400D03*
%TD*%
D15*
%TO.P,C2,1*%
%TO.N,VDD*%
X103149400Y-74926100D03*
%TO.P,C2,2*%
%TO.N,GND*%
X103149400Y-72851100D03*
%TD*%
D16*
%TO.P,SW2,1,1*%
%TO.N,GPIO0*%
X130048000Y-61214000D03*
%TO.P,SW2,2,2*%
%TO.N,GND*%
X130048000Y-68834000D03*
%TD*%
D17*
%TO.P,C3,1*%
%TO.N,GND*%
X93014800Y-73130500D03*
%TO.P,C3,2*%
%TO.N,+3.3V*%
X93014800Y-75205500D03*
%TD*%
D18*
%TO.P,D2,1,K*%
%TO.N,GND*%
X115925600Y-67074000D03*
%TO.P,D2,2,A*%
%TO.N,Net-(D2-A)*%
X115925600Y-65024000D03*
%TD*%
D19*
%TO.P,U1,1,GND*%
%TO.N,GND*%
X109220000Y-44450000D03*
%TO.P,U1,2,VDD*%
%TO.N,+3.3V*%
X109220000Y-45720000D03*
%TO.P,U1,3,EN*%
%TO.N,/EN*%
X109220000Y-46990000D03*
%TO.P,U1,4,SENSOR_VP*%
%TO.N,VP*%
X109220000Y-48260000D03*
%TO.P,U1,5,SENSOR_VN*%
%TO.N,VN*%
X109220000Y-49530000D03*
%TO.P,U1,6,IO34*%
%TO.N,A6*%
X109220000Y-50800000D03*
%TO.P,U1,7,IO35*%
%TO.N,A7*%
X109220000Y-52070000D03*
%TO.P,U1,8,IO32*%
%TO.N,A4*%
X109220000Y-53340000D03*
%TO.P,U1,9,IO33*%
%TO.N,A5*%
X109220000Y-54610000D03*
%TO.P,U1,10,IO25*%
%TO.N,A8*%
X109220000Y-55880000D03*
%TO.P,U1,11,IO26*%
%TO.N,A9*%
X109220000Y-57150000D03*
%TO.P,U1,12,IO27*%
%TO.N,GPIO27*%
X109220000Y-58420000D03*
%TO.P,U1,13,IO14*%
%TO.N,GPIO14*%
X109220000Y-59690000D03*
%TO.P,U1,14,IO12*%
%TO.N,GPIO12*%
X109220000Y-60960000D03*
D20*
%TO.P,U1,15,GND*%
%TO.N,GND*%
X112260000Y-62210000D03*
%TO.P,U1,16,IO13*%
%TO.N,GPIO13*%
X113530000Y-62210000D03*
%TO.P,U1,17,SHD/SD2*%
%TO.N,unconnected-(U1-SHD{slash}SD2-Pad17)*%
X114800000Y-62210000D03*
%TO.P,U1,18,SWP/SD3*%
%TO.N,unconnected-(U1-SWP{slash}SD3-Pad18)*%
X116070000Y-62210000D03*
%TO.P,U1,19,SCS/CMD*%
%TO.N,unconnected-(U1-SCS{slash}CMD-Pad19)*%
X117340000Y-62210000D03*
%TO.P,U1,20,SCK/CLK*%
%TO.N,unconnected-(U1-SCK{slash}CLK-Pad20)*%
X118610000Y-62210000D03*
%TO.P,U1,21,SDO/SD0*%
%TO.N,unconnected-(U1-SDO{slash}SD0-Pad21)*%
X119880000Y-62210000D03*
%TO.P,U1,22,SDI/SD1*%
%TO.N,unconnected-(U1-SDI{slash}SD1-Pad22)*%
X121150000Y-62210000D03*
%TO.P,U1,23,IO15*%
%TO.N,GPIO15*%
X122420000Y-62210000D03*
%TO.P,U1,24,IO2*%
%TO.N,GPIO2*%
X123690000Y-62210000D03*
D19*
%TO.P,U1,25,IO0*%
%TO.N,GPIO0*%
X126720000Y-60960000D03*
%TO.P,U1,26,IO4*%
%TO.N,GPIO4*%
X126720000Y-59690000D03*
%TO.P,U1,27,IO16*%
%TO.N,RX2*%
X126720000Y-58420000D03*
%TO.P,U1,28,IO17*%
%TO.N,TX2*%
X126720000Y-57150000D03*
%TO.P,U1,29,IO5*%
%TO.N,GPIO5*%
X126720000Y-55880000D03*
%TO.P,U1,30,IO18*%
%TO.N,GPIO18*%
X126720000Y-54610000D03*
%TO.P,U1,31,IO19*%
%TO.N,GPIO19*%
X126720000Y-53340000D03*
%TO.P,U1,32,NC*%
%TO.N,unconnected-(U1-NC-Pad32)*%
X126720000Y-52070000D03*
%TO.P,U1,33,IO21*%
%TO.N,GPIO21*%
X126720000Y-50800000D03*
%TO.P,U1,34,RXD0/IO3*%
%TO.N,RX0*%
X126720000Y-49530000D03*
%TO.P,U1,35,TXD0/IO1*%
%TO.N,TX0*%
X126720000Y-48260000D03*
%TO.P,U1,36,IO22*%
%TO.N,GPIO22*%
X126720000Y-46990000D03*
%TO.P,U1,37,IO23*%
%TO.N,GPIO23*%
X126720000Y-45720000D03*
%TO.P,U1,38,GND*%
%TO.N,GND*%
X126720000Y-44450000D03*
D21*
%TO.P,U1,39,GND*%
X115765000Y-50265000D03*
D22*
X115765000Y-51027500D03*
D21*
X115765000Y-51790000D03*
D22*
X115765000Y-52552500D03*
D21*
X115765000Y-53315000D03*
D22*
X116527500Y-50265000D03*
X116527500Y-51790000D03*
X116527500Y-53315000D03*
D21*
X117290000Y-50265000D03*
D22*
X117290000Y-51027500D03*
D21*
X117290000Y-51790000D03*
D23*
X117290000Y-51790000D03*
D22*
X117290000Y-52552500D03*
D21*
X117290000Y-53315000D03*
D22*
X118052500Y-50265000D03*
X118052500Y-51790000D03*
X118052500Y-53315000D03*
D21*
X118815000Y-50265000D03*
D22*
X118815000Y-51027500D03*
D21*
X118815000Y-51790000D03*
D22*
X118815000Y-52552500D03*
D21*
X118815000Y-53315000D03*
%TD*%
D24*
%TO.P,R1,1*%
%TO.N,+3.3V*%
X104546400Y-48818800D03*
%TO.P,R1,2*%
%TO.N,/EN*%
X106546400Y-48818800D03*
%TD*%
D16*
%TO.P,SW1,1,1*%
%TO.N,/EN*%
X106934000Y-64516000D03*
%TO.P,SW1,2,2*%
%TO.N,GND*%
X106934000Y-72136000D03*
%TD*%
D15*
%TO.P,C4,1*%
%TO.N,+3.3V*%
X90576400Y-75205500D03*
%TO.P,C4,2*%
%TO.N,GND*%
X90576400Y-73130500D03*
%TD*%
D25*
%TO.P,J2,1*%
%TO.N,Net-(J5-Pin_2)*%
X88036400Y-71399400D03*
D26*
%TO.P,J2,2*%
%TO.N,Net-(J2-Pad2)*%
X81736400Y-71399400D03*
D27*
%TO.P,J2,3*%
%TO.N,N/C*%
X85136400Y-76199400D03*
%TD*%
D18*
%TO.P,D1,1,K*%
%TO.N,Net-(D1-K)*%
X121208800Y-66963400D03*
%TO.P,D1,2,A*%
%TO.N,GPIO2*%
X121208800Y-64913400D03*
%TD*%
D28*
%TO.P,R7,1*%
%TO.N,Net-(D1-K)*%
X118821200Y-67090800D03*
%TO.P,R7,2*%
%TO.N,GND*%
X118821200Y-65090800D03*
%TD*%
D29*
%TO.P,R5,1*%
%TO.N,+3.3V*%
X132826000Y-47244000D03*
%TO.P,R5,2*%
%TO.N,TX0*%
X130826000Y-47244000D03*
%TD*%
%TO.P,R2,1*%
%TO.N,+3.3V*%
X132064000Y-57658000D03*
%TO.P,R2,2*%
%TO.N,GPIO0*%
X130064000Y-57658000D03*
%TD*%
D30*
%TO.P,Motor1,1,Pin_1*%
%TO.N,GND*%
X122428000Y-74168000D03*
D31*
%TO.P,Motor1,2,Pin_2*%
%TO.N,Net-(J5-Pin_2)*%
X127508000Y-74168000D03*
%TD*%
D28*
%TO.P,R3,1*%
%TO.N,GND*%
X124028200Y-66811400D03*
%TO.P,R3,2*%
%TO.N,GPIO2*%
X124028200Y-64811400D03*
%TD*%
D32*
%TO.P,U2,1,IN-*%
%TO.N,Net-(J2-Pad2)*%
X85852000Y-64262000D03*
%TO.P,U2,2,IN-*%
X88392000Y-64262000D03*
%TO.P,U2,3,IN+*%
%TO.N,Net-(J5-Pin_2)*%
X96520000Y-64262000D03*
%TO.P,U2,4,IN+*%
X99060000Y-64262000D03*
%TO.P,U2,5,OUT+*%
%TO.N,VDD*%
X99060000Y-45720000D03*
%TO.P,U2,6,OUT+*%
X96520000Y-45720000D03*
%TO.P,U2,7,OUT-*%
%TO.N,GND*%
X88392000Y-45720000D03*
%TO.P,U2,8,OUT-*%
X85852000Y-45720000D03*
%TD*%
D28*
%TO.P,R4,1*%
%TO.N,+3.3V*%
X113334800Y-66979800D03*
%TO.P,R4,2*%
%TO.N,Net-(D2-A)*%
X113334800Y-64979800D03*
%TD*%
D29*
%TO.P,R6,1*%
%TO.N,+3.3V*%
X132318000Y-53594000D03*
%TO.P,R6,2*%
%TO.N,GPIO5*%
X130318000Y-53594000D03*
%TD*%
D30*
%TO.P,Motor2,1,Pin_1*%
%TO.N,GND*%
X111760000Y-74168000D03*
D31*
%TO.P,Motor2,2,Pin_2*%
%TO.N,Net-(J5-Pin_2)*%
X116840000Y-74168000D03*
%TD*%
D10*
%TO.P,Motor2,1,Pin_1*%
%TO.N,A9*%
X133858000Y-67056000D03*
D11*
%TO.P,Motor2,2,Pin_2*%
%TO.N,GPIO13*%
X133858000Y-69596000D03*
%TD*%
D33*
%TO.N,+3.3V*%
X133959600Y-60960000D03*
X101142800Y-68554600D03*
X106299000Y-74218800D03*
X111569332Y-68643332D03*
X104597200Y-50825400D03*
%TO.N,GND*%
X84378800Y-40665400D03*
X84683600Y-72923400D03*
X129794000Y-55880000D03*
X134620000Y-48514000D03*
X122910600Y-52832000D03*
X81584800Y-60477400D03*
X122656600Y-47498000D03*
X133274595Y-56717405D03*
X136017000Y-46710600D03*
X109702600Y-63119000D03*
X93827600Y-50571400D03*
X117424200Y-63957200D03*
X113055400Y-45440600D03*
X90195400Y-57607200D03*
X96697800Y-59105800D03*
X98577400Y-71069200D03*
X82575400Y-53136800D03*
X129184400Y-52603400D03*
X104673400Y-59817000D03*
X117094000Y-69596000D03*
X141427200Y-44983400D03*
X127508000Y-64262000D03*
%TO.N,A8*%
X110363000Y-55880000D03*
X138722100Y-62953900D03*
%TO.N,A9*%
X119684800Y-59357200D03*
%TD*%
D34*
%TO.N,+3.3V*%
X141097000Y-57912000D02*
X138430000Y-57912000D01*
X133959600Y-59553600D02*
X132064000Y-57658000D01*
X101142800Y-68554600D02*
X101167800Y-68503400D01*
X97663000Y-75692000D02*
X97663000Y-74803400D01*
X106299000Y-74218800D02*
X105791000Y-74218800D01*
X141224000Y-48768000D02*
X141224000Y-57785000D01*
X132318000Y-53594000D02*
X132318000Y-57404000D01*
X92917100Y-77546200D02*
X95808800Y-77546200D01*
X101167800Y-68503400D02*
X101193600Y-68529200D01*
X104546400Y-50774600D02*
X104546400Y-48818800D01*
X137007600Y-57912000D02*
X138430000Y-57912000D01*
X106723000Y-45872400D02*
X106875400Y-45720000D01*
X136349697Y-47513800D02*
X136619497Y-47244000D01*
X95808800Y-77546200D02*
X97663000Y-75692000D01*
X136619497Y-47244000D02*
X139700000Y-47244000D01*
X106723000Y-46642200D02*
X104546400Y-48818800D01*
X132826000Y-47244000D02*
X135414503Y-47244000D01*
X106875400Y-45720000D02*
X109220000Y-45720000D01*
X135414503Y-47244000D02*
X135684303Y-47513800D01*
X132318000Y-57404000D02*
X132064000Y-57658000D01*
X133959600Y-60960000D02*
X133959600Y-59553600D01*
X105791000Y-74218800D02*
X102463600Y-77546200D01*
X111671268Y-68643332D02*
X113334800Y-66979800D01*
X102463600Y-77546200D02*
X95808800Y-77546200D01*
X97663000Y-68503400D02*
X101142800Y-68554600D01*
X135684303Y-47513800D02*
X136349697Y-47513800D01*
X104597200Y-50825400D02*
X104546400Y-50774600D01*
X111569332Y-68643332D02*
X111671268Y-68643332D01*
X133959600Y-60960000D02*
X137007600Y-57912000D01*
X141224000Y-57785000D02*
X141097000Y-57912000D01*
X106723000Y-45872400D02*
X106723000Y-46642200D01*
X90576400Y-75205500D02*
X93014800Y-75205500D01*
X90576400Y-75205500D02*
X92917100Y-77546200D01*
X139700000Y-47244000D02*
X141224000Y-48768000D01*
%TO.N,GND*%
X118052500Y-53315000D02*
X118815000Y-53315000D01*
X118815000Y-50265000D02*
X118052500Y-50265000D01*
X92858500Y-73286800D02*
X93014800Y-73130500D01*
X90732700Y-73286800D02*
X92858500Y-73286800D01*
X118815000Y-51027500D02*
X118052500Y-51790000D01*
X116527500Y-50265000D02*
X115765000Y-50265000D01*
X118815000Y-50265000D02*
X118815000Y-51027500D01*
X115765000Y-50265000D02*
X118052500Y-50265000D01*
X115765000Y-53315000D02*
X116527500Y-53315000D01*
X118815000Y-52552500D02*
X118815000Y-53315000D01*
X90576400Y-73130500D02*
X90732700Y-73286800D01*
%TO.N,VDD*%
X99060000Y-45720000D02*
X102616000Y-49276000D01*
X102616000Y-70307200D02*
X100990400Y-71932800D01*
X100990400Y-71932800D02*
X100990400Y-73776000D01*
X96520000Y-45720000D02*
X99060000Y-45720000D01*
X100039600Y-74880000D02*
X103103300Y-74880000D01*
X100990400Y-73776000D02*
X99963000Y-74803400D01*
X103103300Y-74880000D02*
X103149400Y-74926100D01*
X99963000Y-74803400D02*
X100039600Y-74880000D01*
X102616000Y-49276000D02*
X102616000Y-70307200D01*
%TO.N,Net-(D1-K)*%
X121208800Y-66963400D02*
X118948600Y-66963400D01*
X118948600Y-66963400D02*
X118821200Y-67090800D01*
%TO.N,GPIO2*%
X123690000Y-65057400D02*
X123672600Y-65074800D01*
X120929400Y-65024000D02*
X123621800Y-65024000D01*
X123690000Y-62210000D02*
X123690000Y-65057400D01*
X123621800Y-65024000D02*
X123672600Y-65074800D01*
%TO.N,Net-(D2-A)*%
X113334800Y-64979800D02*
X115881400Y-64979800D01*
X115881400Y-64979800D02*
X115925600Y-65024000D01*
%TO.N,RX0*%
X131986959Y-50131041D02*
X131385918Y-49530000D01*
X137227919Y-55372000D02*
X131986959Y-50131041D01*
X138430000Y-55372000D02*
X137227919Y-55372000D01*
X131385918Y-49530000D02*
X126720000Y-49530000D01*
%TO.N,TX0*%
X129810000Y-48260000D02*
X130826000Y-47244000D01*
X126720000Y-48260000D02*
X129810000Y-48260000D01*
X136414000Y-52832000D02*
X130826000Y-47244000D01*
X138430000Y-52832000D02*
X136414000Y-52832000D01*
%TO.N,Net-(J2-Pad2)*%
X85852000Y-64262000D02*
X85852000Y-67588600D01*
X85852000Y-67588600D02*
X82041200Y-71399400D01*
X82041200Y-71399400D02*
X81736400Y-71399400D01*
X88392000Y-64262000D02*
X85852000Y-64262000D01*
%TO.N,A8*%
X138722100Y-64960500D02*
X140589000Y-66827400D01*
X138722100Y-62953900D02*
X138722100Y-64960500D01*
X109220000Y-55880000D02*
X110363000Y-55880000D01*
%TO.N,A9*%
X117477600Y-57150000D02*
X119684800Y-59357200D01*
X109220000Y-57150000D02*
X117477600Y-57150000D01*
%TO.N,GPIO13*%
X132448800Y-71005200D02*
X133858000Y-69596000D01*
X124104400Y-60629800D02*
X125603000Y-62128400D01*
X113530000Y-61425200D02*
X114325400Y-60629800D01*
X114325400Y-60629800D02*
X124104400Y-60629800D01*
X125603000Y-62128400D02*
X125603000Y-67056000D01*
X125603000Y-67056000D02*
X129552200Y-71005200D01*
X129552200Y-71005200D02*
X132448800Y-71005200D01*
X113530000Y-62210000D02*
X113530000Y-61425200D01*
%TO.N,/EN*%
X109220000Y-46990000D02*
X108375200Y-46990000D01*
X106934000Y-64516000D02*
X106934000Y-62357000D01*
X108375200Y-46990000D02*
X106546400Y-48818800D01*
X106546400Y-61969400D02*
X106546400Y-48818800D01*
X106934000Y-62357000D02*
X106546400Y-61969400D01*
%TO.N,GPIO0*%
X130048000Y-57674000D02*
X130048000Y-61214000D01*
X130064000Y-57658000D02*
X130048000Y-57674000D01*
X130048000Y-61214000D02*
X126974000Y-61214000D01*
%TO.N,GPIO5*%
X126720000Y-55880000D02*
X128032000Y-55880000D01*
X128032000Y-55880000D02*
X130318000Y-53594000D01*
%TO.N,GPIO23*%
X142722600Y-68834000D02*
X142722600Y-48234600D01*
X141960600Y-69596000D02*
X142722600Y-68834000D01*
X140462000Y-69596000D02*
X141960600Y-69596000D01*
X140208000Y-45720000D02*
X126720000Y-45720000D01*
X142722600Y-48234600D02*
X140208000Y-45720000D01*
%TD*%
%TA.AperFunction,Conductor*%
%TO.N,GND*%
G36*
X93878138Y-37044955D02*
G01*
X93924382Y-37089398D01*
X93942235Y-37151002D01*
X93969974Y-38505791D01*
X93970000Y-38508329D01*
X93970000Y-42900000D01*
X141970000Y-42900000D01*
X141976807Y-42900000D01*
X141992185Y-42889424D01*
X142036054Y-42878852D01*
X142158408Y-42872297D01*
X143035285Y-42825321D01*
X143099761Y-42839462D01*
X143147846Y-42884685D01*
X143165912Y-42948176D01*
X143200777Y-47417270D01*
X143187615Y-47473841D01*
X143150135Y-47518213D01*
X143096561Y-47540649D01*
X143038647Y-47536228D01*
X142989100Y-47505918D01*
X140723266Y-45240084D01*
X140718132Y-45234630D01*
X140678067Y-45189406D01*
X140639111Y-45162517D01*
X140628343Y-45155084D01*
X140622313Y-45150647D01*
X140574726Y-45113364D01*
X140565395Y-45109165D01*
X140545844Y-45098139D01*
X140537426Y-45092328D01*
X140480908Y-45070893D01*
X140473991Y-45068028D01*
X140418891Y-45043230D01*
X140408833Y-45041387D01*
X140387214Y-45035360D01*
X140377643Y-45031730D01*
X140317624Y-45024441D01*
X140310222Y-45023315D01*
X140250800Y-45012425D01*
X140190486Y-45016074D01*
X140183000Y-45016300D01*
X128094000Y-45016300D01*
X128032000Y-44999687D01*
X127986613Y-44954300D01*
X127970000Y-44892300D01*
X127970000Y-44700000D01*
X125470000Y-44700000D01*
X125470000Y-44947824D01*
X125476402Y-45007377D01*
X125488925Y-45040952D01*
X125496743Y-45084285D01*
X125488925Y-45127617D01*
X125475909Y-45162513D01*
X125469500Y-45222130D01*
X125469500Y-46217869D01*
X125475909Y-46277485D01*
X125488658Y-46311666D01*
X125496476Y-46354997D01*
X125488659Y-46398328D01*
X125475909Y-46432513D01*
X125469500Y-46492130D01*
X125469500Y-47487869D01*
X125475909Y-47547485D01*
X125488658Y-47581667D01*
X125496476Y-47624999D01*
X125488659Y-47668330D01*
X125475909Y-47702515D01*
X125469500Y-47762130D01*
X125469500Y-48757869D01*
X125475909Y-48817485D01*
X125488658Y-48851667D01*
X125496476Y-48894999D01*
X125488659Y-48938330D01*
X125475909Y-48972515D01*
X125469500Y-49032130D01*
X125469500Y-50027869D01*
X125475909Y-50087485D01*
X125488658Y-50121666D01*
X125496476Y-50164997D01*
X125488659Y-50208328D01*
X125475909Y-50242513D01*
X125469500Y-50302130D01*
X125469500Y-51297869D01*
X125475909Y-51357485D01*
X125488658Y-51391666D01*
X125496476Y-51434997D01*
X125488659Y-51478328D01*
X125475909Y-51512513D01*
X125475909Y-51512516D01*
X125475909Y-51512517D01*
X125471009Y-51558097D01*
X125469500Y-51572130D01*
X125469500Y-52567869D01*
X125475909Y-52627485D01*
X125488658Y-52661667D01*
X125496476Y-52704999D01*
X125488659Y-52748330D01*
X125475909Y-52782515D01*
X125475908Y-52782517D01*
X125475909Y-52782517D01*
X125471378Y-52824665D01*
X125469500Y-52842130D01*
X125469500Y-53837869D01*
X125475909Y-53897485D01*
X125488658Y-53931666D01*
X125496476Y-53974997D01*
X125488659Y-54018328D01*
X125475909Y-54052513D01*
X125469500Y-54112130D01*
X125469500Y-55107869D01*
X125475909Y-55167485D01*
X125488658Y-55201666D01*
X125496476Y-55244997D01*
X125488659Y-55288328D01*
X125475909Y-55322513D01*
X125469500Y-55382130D01*
X125469500Y-56377869D01*
X125475909Y-56437485D01*
X125488658Y-56471666D01*
X125496476Y-56514997D01*
X125488659Y-56558328D01*
X125475909Y-56592513D01*
X125469500Y-56652130D01*
X125469500Y-57647869D01*
X125475909Y-57707485D01*
X125488658Y-57741667D01*
X125496476Y-57784999D01*
X125488659Y-57828330D01*
X125475909Y-57862515D01*
X125469500Y-57922130D01*
X125469500Y-58917869D01*
X125475909Y-58977485D01*
X125488658Y-59011667D01*
X125496476Y-59054999D01*
X125488659Y-59098330D01*
X125475909Y-59132515D01*
X125475181Y-59139286D01*
X125471584Y-59172749D01*
X125469500Y-59192130D01*
X125469500Y-60187869D01*
X125475909Y-60247485D01*
X125488658Y-60281666D01*
X125496476Y-60324997D01*
X125488659Y-60368328D01*
X125475909Y-60402513D01*
X125469500Y-60462131D01*
X125469500Y-60700356D01*
X125455985Y-60756651D01*
X125418385Y-60800674D01*
X125364898Y-60822829D01*
X125307182Y-60818287D01*
X125257819Y-60788037D01*
X124619666Y-60149884D01*
X124614532Y-60144430D01*
X124574467Y-60099206D01*
X124524747Y-60064887D01*
X124518713Y-60060447D01*
X124471126Y-60023164D01*
X124461795Y-60018965D01*
X124442244Y-60007939D01*
X124433826Y-60002128D01*
X124377308Y-59980693D01*
X124370391Y-59977828D01*
X124315291Y-59953030D01*
X124305233Y-59951187D01*
X124283614Y-59945160D01*
X124274043Y-59941530D01*
X124214024Y-59934241D01*
X124206622Y-59933115D01*
X124147200Y-59922225D01*
X124086886Y-59925874D01*
X124079400Y-59926100D01*
X120610928Y-59926100D01*
X120548928Y-59909487D01*
X120503541Y-59864100D01*
X120486928Y-59802100D01*
X120503541Y-59740100D01*
X120511979Y-59725484D01*
X120511979Y-59725483D01*
X120570474Y-59545456D01*
X120590260Y-59357200D01*
X120570474Y-59168944D01*
X120528033Y-59038324D01*
X120511979Y-58988915D01*
X120417333Y-58824983D01*
X120290670Y-58684310D01*
X120137532Y-58573049D01*
X120015316Y-58518635D01*
X119964603Y-58496056D01*
X119906831Y-58483776D01*
X119815418Y-58464345D01*
X119782032Y-58452028D01*
X119753519Y-58430736D01*
X117992866Y-56670084D01*
X117987732Y-56664630D01*
X117947667Y-56619406D01*
X117935342Y-56610899D01*
X117897943Y-56585084D01*
X117891913Y-56580647D01*
X117844326Y-56543364D01*
X117834995Y-56539165D01*
X117815444Y-56528139D01*
X117807026Y-56522328D01*
X117750508Y-56500893D01*
X117743591Y-56498028D01*
X117688491Y-56473230D01*
X117678433Y-56471387D01*
X117656814Y-56465360D01*
X117647243Y-56461730D01*
X117587224Y-56454441D01*
X117579822Y-56453315D01*
X117520400Y-56442425D01*
X117460086Y-56446074D01*
X117452600Y-56446300D01*
X111290629Y-56446300D01*
X111228629Y-56429687D01*
X111183242Y-56384300D01*
X111166629Y-56322300D01*
X111183242Y-56260300D01*
X111190179Y-56248284D01*
X111191766Y-56243400D01*
X111248674Y-56068256D01*
X111268460Y-55880000D01*
X111248674Y-55691744D01*
X111190179Y-55511716D01*
X111190179Y-55511715D01*
X111095533Y-55347783D01*
X110968870Y-55207110D01*
X110815730Y-55095848D01*
X110642806Y-55018857D01*
X110642804Y-55018856D01*
X110642803Y-55018856D01*
X110568715Y-55003108D01*
X110518158Y-54979533D01*
X110483049Y-54936177D01*
X110470499Y-54881819D01*
X110470499Y-54112130D01*
X110468551Y-54094009D01*
X110464091Y-54052517D01*
X110451340Y-54018331D01*
X110443523Y-53974999D01*
X110451342Y-53931665D01*
X110464090Y-53897485D01*
X110464089Y-53897485D01*
X110464091Y-53897483D01*
X110470500Y-53837873D01*
X110470499Y-52842128D01*
X110464091Y-52782517D01*
X110451340Y-52748330D01*
X110443523Y-52705000D01*
X110451342Y-52661665D01*
X110464090Y-52627485D01*
X110464089Y-52627485D01*
X110464091Y-52627483D01*
X110470500Y-52567873D01*
X110470499Y-52040000D01*
X114690000Y-52040000D01*
X114690000Y-53937824D01*
X114696402Y-53997375D01*
X114746647Y-54132089D01*
X114832811Y-54247188D01*
X114947910Y-54333352D01*
X115082624Y-54383597D01*
X115142176Y-54390000D01*
X117040000Y-54390000D01*
X117540000Y-54390000D01*
X119437824Y-54390000D01*
X119497375Y-54383597D01*
X119632089Y-54333352D01*
X119747188Y-54247188D01*
X119833352Y-54132089D01*
X119883597Y-53997375D01*
X119890000Y-53937824D01*
X119890000Y-52040000D01*
X119065000Y-52040000D01*
X119065000Y-52448947D01*
X119080872Y-52464819D01*
X119112966Y-52520406D01*
X119112966Y-52584594D01*
X119080872Y-52640181D01*
X119065000Y-52656052D01*
X119065000Y-53441000D01*
X119048387Y-53503000D01*
X119003000Y-53548387D01*
X118941000Y-53565000D01*
X118156052Y-53565000D01*
X118140181Y-53580872D01*
X118084594Y-53612966D01*
X118020406Y-53612966D01*
X117964819Y-53580872D01*
X117948947Y-53565000D01*
X117540000Y-53565000D01*
X117540000Y-54390000D01*
X117040000Y-54390000D01*
X117040000Y-53565000D01*
X116631052Y-53565000D01*
X116615181Y-53580872D01*
X116559594Y-53612966D01*
X116495406Y-53612966D01*
X116439819Y-53580872D01*
X116423947Y-53565000D01*
X115639000Y-53565000D01*
X115577000Y-53548387D01*
X115531613Y-53503000D01*
X115515000Y-53441000D01*
X115515000Y-52656054D01*
X115514999Y-52656052D01*
X115499128Y-52640181D01*
X115467034Y-52584594D01*
X115467034Y-52552500D01*
X116118553Y-52552500D01*
X116527500Y-52961447D01*
X116936447Y-52552500D01*
X117643553Y-52552500D01*
X118052500Y-52961447D01*
X118461447Y-52552500D01*
X118052500Y-52143553D01*
X117643553Y-52552500D01*
X116936447Y-52552500D01*
X116527500Y-52143553D01*
X116118553Y-52552500D01*
X115467034Y-52552500D01*
X115467034Y-52520406D01*
X115499128Y-52464819D01*
X115514999Y-52448947D01*
X115515000Y-52448947D01*
X115515000Y-52040000D01*
X114690000Y-52040000D01*
X110470499Y-52040000D01*
X110470499Y-51572128D01*
X110467045Y-51540000D01*
X114690000Y-51540000D01*
X115515000Y-51540000D01*
X115515000Y-51131054D01*
X115514999Y-51131052D01*
X115499128Y-51115181D01*
X115467034Y-51059594D01*
X115467034Y-51027500D01*
X116118553Y-51027500D01*
X116527500Y-51436447D01*
X116936447Y-51027500D01*
X117643553Y-51027500D01*
X118052500Y-51436447D01*
X118461447Y-51027500D01*
X118052500Y-50618553D01*
X117643553Y-51027500D01*
X116936447Y-51027500D01*
X116527500Y-50618553D01*
X116118553Y-51027500D01*
X115467034Y-51027500D01*
X115467034Y-50995406D01*
X115499128Y-50939819D01*
X115514999Y-50923947D01*
X115515000Y-50923947D01*
X115515000Y-50139000D01*
X115531613Y-50077000D01*
X115577000Y-50031613D01*
X115639000Y-50015000D01*
X116423947Y-50015000D01*
X116423947Y-50014999D01*
X116439819Y-49999128D01*
X116495406Y-49967034D01*
X116559594Y-49967034D01*
X116615181Y-49999128D01*
X116631053Y-50015000D01*
X117040000Y-50015000D01*
X117040000Y-49190000D01*
X117540000Y-49190000D01*
X117540000Y-50015000D01*
X117948947Y-50015000D01*
X117948947Y-50014999D01*
X117964819Y-49999128D01*
X118020406Y-49967034D01*
X118084594Y-49967034D01*
X118140181Y-49999128D01*
X118156053Y-50015000D01*
X118941000Y-50015000D01*
X119003000Y-50031613D01*
X119048387Y-50077000D01*
X119065000Y-50139000D01*
X119065000Y-50923947D01*
X119080872Y-50939819D01*
X119112966Y-50995406D01*
X119112966Y-51059594D01*
X119080872Y-51115181D01*
X119065000Y-51131052D01*
X119065000Y-51540000D01*
X119890000Y-51540000D01*
X119890000Y-49642176D01*
X119883597Y-49582624D01*
X119833352Y-49447910D01*
X119747188Y-49332811D01*
X119632089Y-49246647D01*
X119497375Y-49196402D01*
X119437824Y-49190000D01*
X117540000Y-49190000D01*
X117040000Y-49190000D01*
X115142176Y-49190000D01*
X115082624Y-49196402D01*
X114947910Y-49246647D01*
X114832811Y-49332811D01*
X114746647Y-49447910D01*
X114696402Y-49582624D01*
X114690000Y-49642176D01*
X114690000Y-51540000D01*
X110467045Y-51540000D01*
X110464091Y-51512517D01*
X110451340Y-51478331D01*
X110443523Y-51434999D01*
X110451342Y-51391665D01*
X110464090Y-51357485D01*
X110464089Y-51357485D01*
X110464091Y-51357483D01*
X110470500Y-51297873D01*
X110470499Y-50302128D01*
X110464091Y-50242517D01*
X110451340Y-50208330D01*
X110443523Y-50165000D01*
X110451342Y-50121665D01*
X110464090Y-50087485D01*
X110464089Y-50087485D01*
X110464091Y-50087483D01*
X110470500Y-50027873D01*
X110470499Y-49032128D01*
X110464091Y-48972517D01*
X110451340Y-48938330D01*
X110443523Y-48895000D01*
X110451342Y-48851665D01*
X110464090Y-48817485D01*
X110464089Y-48817485D01*
X110464091Y-48817483D01*
X110470500Y-48757873D01*
X110470499Y-47762128D01*
X110464091Y-47702517D01*
X110451340Y-47668330D01*
X110443523Y-47625000D01*
X110451342Y-47581665D01*
X110464090Y-47547485D01*
X110464089Y-47547485D01*
X110464091Y-47547483D01*
X110470500Y-47487873D01*
X110470499Y-46492128D01*
X110464091Y-46432517D01*
X110451340Y-46398331D01*
X110443523Y-46354999D01*
X110451342Y-46311665D01*
X110464090Y-46277485D01*
X110464089Y-46277485D01*
X110464091Y-46277483D01*
X110470500Y-46217873D01*
X110470499Y-45222128D01*
X110464091Y-45162517D01*
X110451075Y-45127619D01*
X110443256Y-45084284D01*
X110451075Y-45040949D01*
X110463597Y-45007376D01*
X110470000Y-44947824D01*
X110470000Y-44700000D01*
X107970000Y-44700000D01*
X107970000Y-44892300D01*
X107953387Y-44954300D01*
X107908000Y-44999687D01*
X107846000Y-45016300D01*
X107776424Y-45016300D01*
X107715992Y-45000577D01*
X107670885Y-44957396D01*
X107653211Y-44928742D01*
X107529157Y-44804688D01*
X107379834Y-44712586D01*
X107213297Y-44657400D01*
X107110509Y-44646900D01*
X106335491Y-44646900D01*
X106232703Y-44657400D01*
X106066165Y-44712586D01*
X105916842Y-44804688D01*
X105792786Y-44928744D01*
X105790742Y-44932059D01*
X105745635Y-44975237D01*
X105685204Y-44990958D01*
X105624774Y-44975235D01*
X105579668Y-44932056D01*
X105577816Y-44929054D01*
X105453845Y-44805083D01*
X105304622Y-44713042D01*
X105138196Y-44657893D01*
X105035479Y-44647400D01*
X104898000Y-44647400D01*
X104898000Y-47097399D01*
X104973256Y-47097399D01*
X105029551Y-47110914D01*
X105073574Y-47148514D01*
X105095729Y-47202001D01*
X105091187Y-47259717D01*
X105060937Y-47309080D01*
X104788035Y-47581981D01*
X104747807Y-47608861D01*
X104700354Y-47618300D01*
X104146391Y-47618300D01*
X104043603Y-47628800D01*
X103877065Y-47683986D01*
X103727742Y-47776088D01*
X103603688Y-47900142D01*
X103511586Y-48049465D01*
X103456400Y-48216002D01*
X103445900Y-48318791D01*
X103445900Y-48834912D01*
X103430992Y-48893860D01*
X103389854Y-48938634D01*
X103332376Y-48958469D01*
X103272379Y-48948594D01*
X103224290Y-48911386D01*
X103185352Y-48861686D01*
X103180923Y-48855667D01*
X103146595Y-48805934D01*
X103101359Y-48765858D01*
X103095906Y-48760724D01*
X100559426Y-46224244D01*
X100527763Y-46170222D01*
X100526823Y-46122400D01*
X103560501Y-46122400D01*
X103560501Y-46397379D01*
X103570993Y-46500095D01*
X103626142Y-46666522D01*
X103718183Y-46815745D01*
X103842154Y-46939716D01*
X103991377Y-47031757D01*
X104157803Y-47086906D01*
X104260521Y-47097400D01*
X104398000Y-47097400D01*
X104398000Y-46122400D01*
X103560501Y-46122400D01*
X100526823Y-46122400D01*
X100526533Y-46107616D01*
X100534711Y-46073553D01*
X100562461Y-45957966D01*
X100581189Y-45720000D01*
X100573508Y-45622400D01*
X103560500Y-45622400D01*
X104398000Y-45622400D01*
X104398000Y-44647401D01*
X104260521Y-44647401D01*
X104157804Y-44657893D01*
X103991377Y-44713042D01*
X103842154Y-44805083D01*
X103718183Y-44929054D01*
X103626142Y-45078277D01*
X103570993Y-45244703D01*
X103560500Y-45347421D01*
X103560500Y-45622400D01*
X100573508Y-45622400D01*
X100562461Y-45482034D01*
X100506737Y-45249927D01*
X100504573Y-45244703D01*
X100431391Y-45068028D01*
X100415389Y-45029395D01*
X100290668Y-44825868D01*
X100135643Y-44644357D01*
X100026188Y-44550873D01*
X99954135Y-44489334D01*
X99954132Y-44489332D01*
X99750605Y-44364611D01*
X99750602Y-44364610D01*
X99750601Y-44364609D01*
X99530073Y-44273262D01*
X99297967Y-44217539D01*
X99075108Y-44200000D01*
X107970000Y-44200000D01*
X108970000Y-44200000D01*
X108970000Y-43500000D01*
X109470000Y-43500000D01*
X109470000Y-44200000D01*
X110470000Y-44200000D01*
X125470000Y-44200000D01*
X126470000Y-44200000D01*
X126470000Y-43500000D01*
X126970000Y-43500000D01*
X126970000Y-44200000D01*
X127970000Y-44200000D01*
X127970000Y-43952176D01*
X127963597Y-43892624D01*
X127913352Y-43757910D01*
X127827188Y-43642811D01*
X127712089Y-43556647D01*
X127577375Y-43506402D01*
X127517824Y-43500000D01*
X126970000Y-43500000D01*
X126470000Y-43500000D01*
X125922176Y-43500000D01*
X125862624Y-43506402D01*
X125727910Y-43556647D01*
X125612811Y-43642811D01*
X125526647Y-43757910D01*
X125476402Y-43892624D01*
X125470000Y-43952176D01*
X125470000Y-44200000D01*
X110470000Y-44200000D01*
X110470000Y-43952176D01*
X110463597Y-43892624D01*
X110413352Y-43757910D01*
X110327188Y-43642811D01*
X110212089Y-43556647D01*
X110077375Y-43506402D01*
X110017824Y-43500000D01*
X109470000Y-43500000D01*
X108970000Y-43500000D01*
X108422176Y-43500000D01*
X108362624Y-43506402D01*
X108227910Y-43556647D01*
X108112811Y-43642811D01*
X108026647Y-43757910D01*
X107976402Y-43892624D01*
X107970000Y-43952176D01*
X107970000Y-44200000D01*
X99075108Y-44200000D01*
X99060000Y-44198811D01*
X98822032Y-44217539D01*
X98589926Y-44273262D01*
X98369398Y-44364609D01*
X98165864Y-44489334D01*
X97984357Y-44644357D01*
X97884290Y-44761520D01*
X97841914Y-44793598D01*
X97790000Y-44804988D01*
X97738086Y-44793598D01*
X97695710Y-44761520D01*
X97668683Y-44729876D01*
X97595643Y-44644357D01*
X97486188Y-44550873D01*
X97414135Y-44489334D01*
X97414132Y-44489332D01*
X97210605Y-44364611D01*
X97210602Y-44364610D01*
X97210601Y-44364609D01*
X96990073Y-44273262D01*
X96757967Y-44217539D01*
X96520000Y-44198811D01*
X96282032Y-44217539D01*
X96049926Y-44273262D01*
X95829398Y-44364609D01*
X95625864Y-44489334D01*
X95444357Y-44644357D01*
X95289334Y-44825864D01*
X95164609Y-45029398D01*
X95073262Y-45249926D01*
X95017539Y-45482032D01*
X94998811Y-45720000D01*
X95017539Y-45957967D01*
X95073262Y-46190073D01*
X95164517Y-46410379D01*
X95164611Y-46410605D01*
X95278971Y-46597224D01*
X95289334Y-46614135D01*
X95344809Y-46679087D01*
X95444357Y-46795643D01*
X95572510Y-46905096D01*
X95613044Y-46939716D01*
X95625868Y-46950668D01*
X95829395Y-47075389D01*
X95882534Y-47097400D01*
X96049926Y-47166737D01*
X96123254Y-47184341D01*
X96282034Y-47222461D01*
X96520000Y-47241189D01*
X96757966Y-47222461D01*
X96990073Y-47166737D01*
X97210605Y-47075389D01*
X97414132Y-46950668D01*
X97595643Y-46795643D01*
X97695711Y-46678477D01*
X97738086Y-46646401D01*
X97790000Y-46635011D01*
X97841914Y-46646401D01*
X97884288Y-46678477D01*
X97984357Y-46795643D01*
X98112510Y-46905096D01*
X98153044Y-46939716D01*
X98165868Y-46950668D01*
X98369395Y-47075389D01*
X98422534Y-47097400D01*
X98589926Y-47166737D01*
X98663254Y-47184341D01*
X98822034Y-47222461D01*
X99060000Y-47241189D01*
X99297966Y-47222461D01*
X99447616Y-47186533D01*
X99510222Y-47187763D01*
X99564244Y-47219426D01*
X101875981Y-49531163D01*
X101902861Y-49571391D01*
X101912300Y-49618844D01*
X101912300Y-67757231D01*
X101894027Y-67822021D01*
X101844595Y-67867716D01*
X101778571Y-67880849D01*
X101715415Y-67857549D01*
X101595530Y-67770448D01*
X101422602Y-67693455D01*
X101237448Y-67654100D01*
X101237446Y-67654100D01*
X101048154Y-67654100D01*
X101048152Y-67654100D01*
X100862997Y-67693455D01*
X100690070Y-67770448D01*
X100624037Y-67818423D01*
X100588602Y-67836314D01*
X100549329Y-67842091D01*
X100355258Y-67839235D01*
X100185673Y-67836740D01*
X100124449Y-67819528D01*
X100079809Y-67774227D01*
X100063499Y-67712754D01*
X100063499Y-67455530D01*
X100061958Y-67441197D01*
X100057091Y-67395917D01*
X100006796Y-67261069D01*
X99920546Y-67145854D01*
X99805331Y-67059604D01*
X99670483Y-67009309D01*
X99610873Y-67002900D01*
X99610869Y-67002900D01*
X95715130Y-67002900D01*
X95655515Y-67009309D01*
X95520669Y-67059604D01*
X95405454Y-67145854D01*
X95319204Y-67261068D01*
X95268909Y-67395916D01*
X95262500Y-67455530D01*
X95262500Y-69551269D01*
X95267309Y-69595999D01*
X95268909Y-69610883D01*
X95319204Y-69745731D01*
X95405454Y-69860946D01*
X95520669Y-69947196D01*
X95655517Y-69997491D01*
X95715127Y-70003900D01*
X99610872Y-70003899D01*
X99670483Y-69997491D01*
X99805331Y-69947196D01*
X99920546Y-69860946D01*
X100006796Y-69745731D01*
X100057091Y-69610883D01*
X100063500Y-69551273D01*
X100063499Y-69368332D01*
X100080417Y-69305807D01*
X100126555Y-69260343D01*
X100189321Y-69244346D01*
X100528519Y-69249337D01*
X100565880Y-69255678D01*
X100599577Y-69273004D01*
X100690070Y-69338751D01*
X100690071Y-69338751D01*
X100690072Y-69338752D01*
X100862997Y-69415744D01*
X101048152Y-69455100D01*
X101048154Y-69455100D01*
X101237446Y-69455100D01*
X101237448Y-69455100D01*
X101370710Y-69426774D01*
X101422603Y-69415744D01*
X101595530Y-69338751D01*
X101626540Y-69316221D01*
X101715415Y-69251651D01*
X101778571Y-69228351D01*
X101844595Y-69241484D01*
X101894027Y-69287179D01*
X101912300Y-69351969D01*
X101912300Y-69964356D01*
X101902861Y-70011809D01*
X101875981Y-70052037D01*
X100510490Y-71417526D01*
X100505038Y-71422658D01*
X100459807Y-71462730D01*
X100425482Y-71512458D01*
X100421045Y-71518487D01*
X100383763Y-71566074D01*
X100379562Y-71575410D01*
X100368540Y-71594954D01*
X100362727Y-71603375D01*
X100341298Y-71659877D01*
X100338434Y-71666792D01*
X100313629Y-71721909D01*
X100311785Y-71731972D01*
X100305762Y-71753577D01*
X100302130Y-71763154D01*
X100294841Y-71823177D01*
X100293714Y-71830578D01*
X100282825Y-71889997D01*
X100286474Y-71950314D01*
X100286700Y-71957800D01*
X100286700Y-73178900D01*
X100270087Y-73240900D01*
X100224700Y-73286287D01*
X100162700Y-73302900D01*
X99165130Y-73302900D01*
X99105515Y-73309309D01*
X98970669Y-73359604D01*
X98887311Y-73422006D01*
X98839358Y-73443905D01*
X98786642Y-73443905D01*
X98738689Y-73422006D01*
X98655331Y-73359604D01*
X98520483Y-73309309D01*
X98520482Y-73309308D01*
X98460873Y-73302900D01*
X98460869Y-73302900D01*
X96865130Y-73302900D01*
X96805515Y-73309309D01*
X96670667Y-73359604D01*
X96586892Y-73422318D01*
X96538940Y-73444217D01*
X96486223Y-73444217D01*
X96438271Y-73422318D01*
X96355088Y-73360047D01*
X96220375Y-73309802D01*
X96160824Y-73303400D01*
X95613000Y-73303400D01*
X95613000Y-76303400D01*
X95757055Y-76303400D01*
X95813350Y-76316915D01*
X95857373Y-76354515D01*
X95879528Y-76408002D01*
X95874986Y-76465718D01*
X95844736Y-76515081D01*
X95553637Y-76806181D01*
X95513409Y-76833061D01*
X95465956Y-76842500D01*
X93259944Y-76842500D01*
X93212491Y-76833061D01*
X93172263Y-76806181D01*
X92871262Y-76505180D01*
X92841012Y-76455817D01*
X92836470Y-76398101D01*
X92858625Y-76344614D01*
X92902648Y-76307014D01*
X92958943Y-76293499D01*
X93539809Y-76293499D01*
X93591202Y-76288249D01*
X93642597Y-76282999D01*
X93809134Y-76227814D01*
X93958456Y-76135712D01*
X94016671Y-76077496D01*
X94061017Y-76048998D01*
X94113196Y-76041495D01*
X94163777Y-76056346D01*
X94203618Y-76090868D01*
X94255810Y-76160588D01*
X94370910Y-76246752D01*
X94505624Y-76296997D01*
X94565176Y-76303400D01*
X95113000Y-76303400D01*
X95113000Y-73303400D01*
X94565176Y-73303400D01*
X94505624Y-73309802D01*
X94370906Y-73360049D01*
X94370243Y-73360546D01*
X94316497Y-73383560D01*
X94273723Y-73380500D01*
X90450400Y-73380500D01*
X90388400Y-73363887D01*
X90343013Y-73318500D01*
X90326400Y-73256500D01*
X90326400Y-72043001D01*
X90051421Y-72043001D01*
X89948704Y-72053493D01*
X89782279Y-72108641D01*
X89725996Y-72143358D01*
X89663604Y-72161789D01*
X89600467Y-72146096D01*
X89553966Y-72100598D01*
X89538307Y-72043000D01*
X90826400Y-72043000D01*
X90826400Y-72880500D01*
X92764800Y-72880500D01*
X92764800Y-72043001D01*
X92489821Y-72043001D01*
X92387104Y-72053493D01*
X92220677Y-72108642D01*
X92071454Y-72200683D01*
X91947484Y-72324653D01*
X91901139Y-72399792D01*
X91856032Y-72442972D01*
X91795600Y-72458695D01*
X91735168Y-72442972D01*
X91690061Y-72399792D01*
X91643715Y-72324653D01*
X91519745Y-72200683D01*
X91370522Y-72108642D01*
X91204096Y-72053493D01*
X91101379Y-72043000D01*
X93264800Y-72043000D01*
X93264800Y-72880500D01*
X94239799Y-72880500D01*
X94239799Y-72743021D01*
X94229306Y-72640304D01*
X94174157Y-72473877D01*
X94082116Y-72324654D01*
X93958145Y-72200683D01*
X93808922Y-72108642D01*
X93642496Y-72053493D01*
X93539779Y-72043000D01*
X93264800Y-72043000D01*
X91101379Y-72043000D01*
X90826400Y-72043000D01*
X89538307Y-72043000D01*
X89536899Y-72037821D01*
X89536899Y-69051528D01*
X89530491Y-68991917D01*
X89480196Y-68857069D01*
X89393946Y-68741854D01*
X89278731Y-68655604D01*
X89143883Y-68605309D01*
X89084273Y-68598900D01*
X89084269Y-68598900D01*
X86988530Y-68598900D01*
X86928915Y-68605309D01*
X86794069Y-68655604D01*
X86678854Y-68741854D01*
X86592604Y-68857068D01*
X86542309Y-68991915D01*
X86542309Y-68991917D01*
X86537255Y-69038929D01*
X86535900Y-69051530D01*
X86535900Y-73747269D01*
X86542309Y-73806884D01*
X86557869Y-73848601D01*
X86592604Y-73941731D01*
X86678854Y-74056946D01*
X86794069Y-74143196D01*
X86928917Y-74193491D01*
X86988527Y-74199900D01*
X89084272Y-74199899D01*
X89143883Y-74193491D01*
X89278731Y-74143196D01*
X89393946Y-74056946D01*
X89409110Y-74036689D01*
X89448947Y-74002169D01*
X89499529Y-73987316D01*
X89551709Y-73994818D01*
X89596057Y-74023319D01*
X89633054Y-74060316D01*
X89636056Y-74062168D01*
X89679235Y-74107274D01*
X89694958Y-74167704D01*
X89679237Y-74228135D01*
X89636059Y-74273242D01*
X89632744Y-74275286D01*
X89508688Y-74399342D01*
X89416586Y-74548665D01*
X89361400Y-74715202D01*
X89350900Y-74817990D01*
X89350900Y-75593008D01*
X89361400Y-75695796D01*
X89416586Y-75862334D01*
X89508688Y-76011657D01*
X89632742Y-76135711D01*
X89676813Y-76162894D01*
X89782066Y-76227814D01*
X89893416Y-76264712D01*
X89948602Y-76282999D01*
X89958129Y-76283972D01*
X90051391Y-76293500D01*
X90617855Y-76293499D01*
X90665308Y-76302938D01*
X90705536Y-76329818D01*
X92401824Y-78026106D01*
X92406958Y-78031559D01*
X92447034Y-78076795D01*
X92496784Y-78111134D01*
X92502782Y-78115548D01*
X92550376Y-78152836D01*
X92559713Y-78157038D01*
X92579252Y-78168058D01*
X92587673Y-78173871D01*
X92643368Y-78194993D01*
X92644175Y-78195299D01*
X92651096Y-78198165D01*
X92706210Y-78222971D01*
X92716272Y-78224814D01*
X92737885Y-78230839D01*
X92747457Y-78234470D01*
X92807471Y-78241756D01*
X92814839Y-78242877D01*
X92874300Y-78253774D01*
X92934614Y-78250125D01*
X92942100Y-78249900D01*
X95766237Y-78249900D01*
X95783800Y-78249900D01*
X95791285Y-78250125D01*
X95851600Y-78253774D01*
X95861657Y-78251931D01*
X95884009Y-78249900D01*
X102438600Y-78249900D01*
X102446085Y-78250125D01*
X102506400Y-78253774D01*
X102565858Y-78242877D01*
X102573222Y-78241757D01*
X102633243Y-78234470D01*
X102642808Y-78230841D01*
X102664436Y-78224811D01*
X102674490Y-78222970D01*
X102674491Y-78222969D01*
X102674493Y-78222969D01*
X102729599Y-78198168D01*
X102736513Y-78195303D01*
X102793027Y-78173871D01*
X102801439Y-78168063D01*
X102820994Y-78157034D01*
X102830325Y-78152836D01*
X102877938Y-78115531D01*
X102883910Y-78111137D01*
X102933666Y-78076795D01*
X102973756Y-78031541D01*
X102978859Y-78026121D01*
X105893937Y-75111043D01*
X105946398Y-75079832D01*
X106007397Y-75077436D01*
X106204352Y-75119300D01*
X106204354Y-75119300D01*
X106393646Y-75119300D01*
X106393648Y-75119300D01*
X106517083Y-75093062D01*
X106578803Y-75079944D01*
X106751730Y-75002951D01*
X106904871Y-74891688D01*
X107031533Y-74751016D01*
X107126179Y-74587084D01*
X107181118Y-74418000D01*
X109760000Y-74418000D01*
X109760000Y-75715824D01*
X109766402Y-75775375D01*
X109816647Y-75910089D01*
X109902811Y-76025188D01*
X110017910Y-76111352D01*
X110152624Y-76161597D01*
X110212176Y-76168000D01*
X111510000Y-76168000D01*
X111510000Y-74418000D01*
X112010000Y-74418000D01*
X112010000Y-76168000D01*
X113307824Y-76168000D01*
X113367375Y-76161597D01*
X113502089Y-76111352D01*
X113617188Y-76025188D01*
X113703352Y-75910089D01*
X113753597Y-75775375D01*
X113760000Y-75715824D01*
X113760000Y-74418000D01*
X112010000Y-74418000D01*
X111510000Y-74418000D01*
X109760000Y-74418000D01*
X107181118Y-74418000D01*
X107184674Y-74407056D01*
X107204460Y-74218800D01*
X107199121Y-74167999D01*
X114834389Y-74167999D01*
X114854804Y-74453429D01*
X114915629Y-74733041D01*
X115015634Y-75001163D01*
X115152772Y-75252313D01*
X115238517Y-75366855D01*
X115324261Y-75481395D01*
X115526605Y-75683739D01*
X115698415Y-75812354D01*
X115755686Y-75855227D01*
X115857613Y-75910883D01*
X116006839Y-75992367D01*
X116274954Y-76092369D01*
X116274957Y-76092369D01*
X116274958Y-76092370D01*
X116327217Y-76103738D01*
X116554572Y-76153196D01*
X116818012Y-76172037D01*
X116839999Y-76173610D01*
X116839999Y-76173609D01*
X116840000Y-76173610D01*
X117125428Y-76153196D01*
X117405046Y-76092369D01*
X117673161Y-75992367D01*
X117924315Y-75855226D01*
X118153395Y-75683739D01*
X118355739Y-75481395D01*
X118527226Y-75252315D01*
X118664367Y-75001161D01*
X118764369Y-74733046D01*
X118825196Y-74453428D01*
X118827730Y-74418000D01*
X120428000Y-74418000D01*
X120428000Y-75715824D01*
X120434402Y-75775375D01*
X120484647Y-75910089D01*
X120570811Y-76025188D01*
X120685910Y-76111352D01*
X120820624Y-76161597D01*
X120880176Y-76168000D01*
X122178000Y-76168000D01*
X122178000Y-74418000D01*
X122678000Y-74418000D01*
X122678000Y-76168000D01*
X123975824Y-76168000D01*
X124035375Y-76161597D01*
X124170089Y-76111352D01*
X124285188Y-76025188D01*
X124371352Y-75910089D01*
X124421597Y-75775375D01*
X124428000Y-75715824D01*
X124428000Y-74418000D01*
X122678000Y-74418000D01*
X122178000Y-74418000D01*
X120428000Y-74418000D01*
X118827730Y-74418000D01*
X118845610Y-74168000D01*
X118845610Y-74167999D01*
X125502389Y-74167999D01*
X125522804Y-74453429D01*
X125583629Y-74733041D01*
X125683634Y-75001163D01*
X125820772Y-75252313D01*
X125906517Y-75366854D01*
X125992261Y-75481395D01*
X126194605Y-75683739D01*
X126366415Y-75812354D01*
X126423686Y-75855227D01*
X126525613Y-75910883D01*
X126674839Y-75992367D01*
X126942954Y-76092369D01*
X126942957Y-76092369D01*
X126942958Y-76092370D01*
X126995217Y-76103738D01*
X127222572Y-76153196D01*
X127486012Y-76172037D01*
X127507999Y-76173610D01*
X127507999Y-76173609D01*
X127508000Y-76173610D01*
X127793428Y-76153196D01*
X128073046Y-76092369D01*
X128341161Y-75992367D01*
X128592315Y-75855226D01*
X128821395Y-75683739D01*
X129023739Y-75481395D01*
X129195226Y-75252315D01*
X129332367Y-75001161D01*
X129432369Y-74733046D01*
X129493196Y-74453428D01*
X129513610Y-74168000D01*
X129493196Y-73882572D01*
X129432369Y-73602954D01*
X129332367Y-73334839D01*
X129246775Y-73178089D01*
X129195227Y-73083686D01*
X129123808Y-72988282D01*
X129023739Y-72854605D01*
X128821395Y-72652261D01*
X128698982Y-72560624D01*
X128592313Y-72480772D01*
X128341163Y-72343634D01*
X128341162Y-72343633D01*
X128341161Y-72343633D01*
X128073046Y-72243631D01*
X128073041Y-72243629D01*
X127793429Y-72182804D01*
X127507999Y-72162389D01*
X127222570Y-72182804D01*
X126942958Y-72243629D01*
X126674836Y-72343634D01*
X126423686Y-72480772D01*
X126194602Y-72652263D01*
X125992263Y-72854602D01*
X125820772Y-73083686D01*
X125683634Y-73334836D01*
X125583629Y-73602958D01*
X125522804Y-73882570D01*
X125502389Y-74167999D01*
X118845610Y-74167999D01*
X118827730Y-73918000D01*
X120428000Y-73918000D01*
X122178000Y-73918000D01*
X122178000Y-72168000D01*
X122678000Y-72168000D01*
X122678000Y-73918000D01*
X124428000Y-73918000D01*
X124428000Y-72620176D01*
X124421597Y-72560624D01*
X124371352Y-72425910D01*
X124285188Y-72310811D01*
X124170089Y-72224647D01*
X124035375Y-72174402D01*
X123975824Y-72168000D01*
X122678000Y-72168000D01*
X122178000Y-72168000D01*
X120880176Y-72168000D01*
X120820624Y-72174402D01*
X120685910Y-72224647D01*
X120570811Y-72310811D01*
X120484647Y-72425910D01*
X120434402Y-72560624D01*
X120428000Y-72620176D01*
X120428000Y-73918000D01*
X118827730Y-73918000D01*
X118825196Y-73882572D01*
X118764369Y-73602954D01*
X118664367Y-73334839D01*
X118578775Y-73178089D01*
X118527227Y-73083686D01*
X118455808Y-72988282D01*
X118355739Y-72854605D01*
X118153395Y-72652261D01*
X118030982Y-72560624D01*
X117924313Y-72480772D01*
X117673163Y-72343634D01*
X117673162Y-72343633D01*
X117673161Y-72343633D01*
X117405046Y-72243631D01*
X117405041Y-72243629D01*
X117125429Y-72182804D01*
X116839999Y-72162389D01*
X116554570Y-72182804D01*
X116274958Y-72243629D01*
X116006836Y-72343634D01*
X115755686Y-72480772D01*
X115526602Y-72652263D01*
X115324263Y-72854602D01*
X115152772Y-73083686D01*
X115015634Y-73334836D01*
X114915629Y-73602958D01*
X114854804Y-73882570D01*
X114834389Y-74167999D01*
X107199121Y-74167999D01*
X107184674Y-74030544D01*
X107148106Y-73918000D01*
X109760000Y-73918000D01*
X111510000Y-73918000D01*
X111510000Y-72168000D01*
X112010000Y-72168000D01*
X112010000Y-73918000D01*
X113760000Y-73918000D01*
X113760000Y-72620176D01*
X113753597Y-72560624D01*
X113703352Y-72425910D01*
X113617188Y-72310811D01*
X113502089Y-72224647D01*
X113367375Y-72174402D01*
X113307824Y-72168000D01*
X112010000Y-72168000D01*
X111510000Y-72168000D01*
X110212176Y-72168000D01*
X110152624Y-72174402D01*
X110017910Y-72224647D01*
X109902811Y-72310811D01*
X109816647Y-72425910D01*
X109766402Y-72560624D01*
X109760000Y-72620176D01*
X109760000Y-73918000D01*
X107148106Y-73918000D01*
X107126179Y-73850516D01*
X107126179Y-73850515D01*
X107031533Y-73686583D01*
X106992265Y-73642972D01*
X106964983Y-73593346D01*
X106962611Y-73536765D01*
X106985645Y-73485030D01*
X107029280Y-73448932D01*
X107084415Y-73436000D01*
X107361824Y-73436000D01*
X107421375Y-73429597D01*
X107556089Y-73379352D01*
X107671188Y-73293188D01*
X107757352Y-73178089D01*
X107807597Y-73043375D01*
X107814000Y-72983824D01*
X107814000Y-72386000D01*
X106054000Y-72386000D01*
X106054000Y-72983824D01*
X106060402Y-73043377D01*
X106115734Y-73191728D01*
X106123225Y-73244054D01*
X106108243Y-73294747D01*
X106073508Y-73334593D01*
X106025334Y-73356351D01*
X106019196Y-73357655D01*
X105846269Y-73434648D01*
X105761204Y-73496452D01*
X105710667Y-73518104D01*
X105688765Y-73522117D01*
X105681366Y-73523243D01*
X105645851Y-73527555D01*
X105621357Y-73530530D01*
X105621355Y-73530530D01*
X105621352Y-73530531D01*
X105611776Y-73534162D01*
X105590174Y-73540184D01*
X105580110Y-73542028D01*
X105524990Y-73566835D01*
X105518075Y-73569699D01*
X105461571Y-73591129D01*
X105453147Y-73596943D01*
X105433618Y-73607958D01*
X105424274Y-73612164D01*
X105376685Y-73649447D01*
X105370655Y-73653884D01*
X105320932Y-73688205D01*
X105280858Y-73733438D01*
X105275726Y-73738890D01*
X104559917Y-74454699D01*
X104506068Y-74486313D01*
X104443640Y-74487676D01*
X104388463Y-74458441D01*
X104354531Y-74406023D01*
X104309214Y-74269266D01*
X104242567Y-74161214D01*
X104217111Y-74119942D01*
X104093059Y-73995890D01*
X104093056Y-73995888D01*
X104089744Y-73993845D01*
X104046563Y-73948738D01*
X104030840Y-73888304D01*
X104046564Y-73827871D01*
X104089748Y-73782764D01*
X104092748Y-73780913D01*
X104216716Y-73656945D01*
X104308757Y-73507722D01*
X104363906Y-73341296D01*
X104374400Y-73238579D01*
X104374400Y-73101100D01*
X103023400Y-73101100D01*
X102961400Y-73084487D01*
X102916013Y-73039100D01*
X102899400Y-72977100D01*
X102899400Y-71763601D01*
X102624421Y-71763601D01*
X102521703Y-71774093D01*
X102453886Y-71796566D01*
X102388397Y-71799998D01*
X102330315Y-71769548D01*
X102326646Y-71763600D01*
X103399400Y-71763600D01*
X103399400Y-72601100D01*
X104374399Y-72601100D01*
X104374399Y-72463621D01*
X104363906Y-72360904D01*
X104308757Y-72194477D01*
X104216716Y-72045254D01*
X104092745Y-71921283D01*
X104035542Y-71886000D01*
X106054000Y-71886000D01*
X106684000Y-71886000D01*
X106684000Y-70836000D01*
X107184000Y-70836000D01*
X107184000Y-71886000D01*
X107814000Y-71886000D01*
X107814000Y-71288176D01*
X107807597Y-71228624D01*
X107757352Y-71093910D01*
X107671188Y-70978811D01*
X107556089Y-70892647D01*
X107421375Y-70842402D01*
X107361824Y-70836000D01*
X107184000Y-70836000D01*
X106684000Y-70836000D01*
X106506176Y-70836000D01*
X106446624Y-70842402D01*
X106311910Y-70892647D01*
X106196811Y-70978811D01*
X106110647Y-71093910D01*
X106060402Y-71228624D01*
X106054000Y-71288176D01*
X106054000Y-71886000D01*
X104035542Y-71886000D01*
X103943522Y-71829242D01*
X103777096Y-71774093D01*
X103674379Y-71763600D01*
X103399400Y-71763600D01*
X102326646Y-71763600D01*
X102295887Y-71713732D01*
X102294743Y-71648162D01*
X102327201Y-71591180D01*
X103095922Y-70822458D01*
X103101360Y-70817340D01*
X103146595Y-70777266D01*
X103180944Y-70727500D01*
X103185334Y-70721534D01*
X103222636Y-70673924D01*
X103226833Y-70664598D01*
X103237858Y-70645047D01*
X103243671Y-70636627D01*
X103265108Y-70580097D01*
X103267958Y-70573218D01*
X103292771Y-70518090D01*
X103294613Y-70508035D01*
X103300640Y-70486413D01*
X103304270Y-70476843D01*
X103311557Y-70416822D01*
X103312682Y-70409433D01*
X103323574Y-70350002D01*
X103319926Y-70289686D01*
X103319700Y-70282200D01*
X103319700Y-68643332D01*
X110663872Y-68643332D01*
X110683658Y-68831589D01*
X110742152Y-69011616D01*
X110836798Y-69175548D01*
X110963461Y-69316221D01*
X111116601Y-69427483D01*
X111289529Y-69504476D01*
X111474684Y-69543832D01*
X111474686Y-69543832D01*
X111663978Y-69543832D01*
X111663980Y-69543832D01*
X111787416Y-69517594D01*
X111849135Y-69504476D01*
X112022062Y-69427483D01*
X112071038Y-69391900D01*
X112175202Y-69316221D01*
X112186147Y-69304066D01*
X112301865Y-69175548D01*
X112396511Y-69011616D01*
X112434646Y-68894246D01*
X112464893Y-68844887D01*
X113193162Y-68116618D01*
X113233391Y-68089738D01*
X113280844Y-68080299D01*
X113834809Y-68080299D01*
X113886202Y-68075048D01*
X113937597Y-68069799D01*
X114104134Y-68014614D01*
X114253456Y-67922512D01*
X114377512Y-67798456D01*
X114469614Y-67649134D01*
X114501292Y-67553534D01*
X114534429Y-67501852D01*
X114588299Y-67472400D01*
X114649694Y-67472400D01*
X114703564Y-67501852D01*
X114736703Y-67553536D01*
X114791242Y-67718122D01*
X114883283Y-67867345D01*
X115007254Y-67991316D01*
X115156477Y-68083357D01*
X115322903Y-68138506D01*
X115425621Y-68149000D01*
X115675600Y-68149000D01*
X115675600Y-67324000D01*
X116175600Y-67324000D01*
X116175600Y-68148999D01*
X116425579Y-68148999D01*
X116528295Y-68138506D01*
X116694722Y-68083357D01*
X116843945Y-67991316D01*
X116967916Y-67867345D01*
X117059957Y-67718122D01*
X117115106Y-67551696D01*
X117125600Y-67448979D01*
X117125600Y-67324000D01*
X116175600Y-67324000D01*
X115675600Y-67324000D01*
X115675600Y-66948000D01*
X115692213Y-66886000D01*
X115737600Y-66840613D01*
X115799600Y-66824000D01*
X117125599Y-66824000D01*
X117125599Y-66699021D01*
X117115106Y-66596304D01*
X117059957Y-66429877D01*
X116967916Y-66280654D01*
X116843944Y-66156682D01*
X116840943Y-66154831D01*
X116797761Y-66109723D01*
X116782040Y-66049289D01*
X116797766Y-65988856D01*
X116840947Y-65943752D01*
X116844256Y-65941712D01*
X116968312Y-65817656D01*
X117060414Y-65668334D01*
X117115599Y-65501797D01*
X117126100Y-65399009D01*
X117126099Y-64840800D01*
X117621200Y-64840800D01*
X118571200Y-64840800D01*
X118571200Y-63990801D01*
X118321221Y-63990801D01*
X118218504Y-64001293D01*
X118052077Y-64056442D01*
X117902854Y-64148483D01*
X117778883Y-64272454D01*
X117686842Y-64421677D01*
X117631693Y-64588103D01*
X117621200Y-64690821D01*
X117621200Y-64840800D01*
X117126099Y-64840800D01*
X117126099Y-64648992D01*
X117115599Y-64546203D01*
X117060414Y-64379666D01*
X116990712Y-64266661D01*
X116968311Y-64230342D01*
X116844257Y-64106288D01*
X116694934Y-64014186D01*
X116528397Y-63959000D01*
X116425609Y-63948500D01*
X115425591Y-63948500D01*
X115322803Y-63959000D01*
X115156265Y-64014186D01*
X115006945Y-64106286D01*
X114971167Y-64142065D01*
X114882888Y-64230344D01*
X114882886Y-64230346D01*
X114873452Y-64239781D01*
X114833223Y-64266661D01*
X114785770Y-64276100D01*
X114517624Y-64276100D01*
X114457192Y-64260377D01*
X114412085Y-64217196D01*
X114377511Y-64161142D01*
X114253457Y-64037088D01*
X114104134Y-63944986D01*
X113937597Y-63889800D01*
X113834809Y-63879300D01*
X112834791Y-63879300D01*
X112732003Y-63889800D01*
X112565465Y-63944986D01*
X112416142Y-64037088D01*
X112292088Y-64161142D01*
X112199986Y-64310465D01*
X112144800Y-64477002D01*
X112134300Y-64579790D01*
X112134300Y-65379808D01*
X112144800Y-65482596D01*
X112199986Y-65649134D01*
X112292086Y-65798454D01*
X112292087Y-65798455D01*
X112292088Y-65798456D01*
X112385751Y-65892119D01*
X112417844Y-65947705D01*
X112417844Y-66011892D01*
X112385751Y-66067480D01*
X112292087Y-66161144D01*
X112199986Y-66310465D01*
X112144800Y-66477002D01*
X112134300Y-66579791D01*
X112134300Y-67133755D01*
X112124861Y-67181208D01*
X112097981Y-67221436D01*
X111612905Y-67706513D01*
X111572677Y-67733393D01*
X111525224Y-67742832D01*
X111474684Y-67742832D01*
X111289529Y-67782187D01*
X111116601Y-67859180D01*
X110963461Y-67970442D01*
X110836798Y-68111115D01*
X110742152Y-68275047D01*
X110683658Y-68455074D01*
X110663872Y-68643332D01*
X103319700Y-68643332D01*
X103319700Y-49714276D01*
X103335954Y-49652902D01*
X103380455Y-49607617D01*
X103441536Y-49590295D01*
X103503185Y-49605476D01*
X103549239Y-49649180D01*
X103603688Y-49737457D01*
X103727742Y-49861511D01*
X103783796Y-49896085D01*
X103826977Y-49941192D01*
X103842700Y-50001624D01*
X103842700Y-50298006D01*
X103826087Y-50360006D01*
X103770020Y-50457115D01*
X103711526Y-50637142D01*
X103691740Y-50825400D01*
X103711526Y-51013657D01*
X103770020Y-51193684D01*
X103864666Y-51357616D01*
X103991329Y-51498289D01*
X104144469Y-51609551D01*
X104317397Y-51686544D01*
X104502552Y-51725900D01*
X104502554Y-51725900D01*
X104691846Y-51725900D01*
X104691848Y-51725900D01*
X104815283Y-51699662D01*
X104877003Y-51686544D01*
X105049930Y-51609551D01*
X105145659Y-51540000D01*
X105203070Y-51498289D01*
X105329733Y-51357616D01*
X105424379Y-51193684D01*
X105424379Y-51193683D01*
X105482874Y-51013656D01*
X105502660Y-50825400D01*
X105482874Y-50637144D01*
X105424379Y-50457116D01*
X105424379Y-50457115D01*
X105329733Y-50293183D01*
X105281951Y-50240117D01*
X105258336Y-50201582D01*
X105250100Y-50157144D01*
X105250100Y-50001624D01*
X105265823Y-49941192D01*
X105309004Y-49896085D01*
X105365054Y-49861513D01*
X105365053Y-49861513D01*
X105365056Y-49861512D01*
X105458720Y-49767847D01*
X105514306Y-49735755D01*
X105578494Y-49735755D01*
X105634079Y-49767847D01*
X105694739Y-49828507D01*
X105727745Y-49861513D01*
X105783796Y-49896085D01*
X105826977Y-49941192D01*
X105842700Y-50001624D01*
X105842700Y-61944400D01*
X105842474Y-61951886D01*
X105838825Y-62012200D01*
X105849715Y-62071622D01*
X105850841Y-62079024D01*
X105858130Y-62139043D01*
X105860810Y-62146110D01*
X105861760Y-62148614D01*
X105867787Y-62170233D01*
X105869630Y-62180291D01*
X105894428Y-62235391D01*
X105897293Y-62242308D01*
X105918728Y-62298826D01*
X105924539Y-62307244D01*
X105935565Y-62326795D01*
X105939764Y-62336126D01*
X105977047Y-62383713D01*
X105981484Y-62389743D01*
X106015805Y-62439466D01*
X106061048Y-62479548D01*
X106066483Y-62484665D01*
X106193981Y-62612163D01*
X106220861Y-62652391D01*
X106230300Y-62699844D01*
X106230300Y-63271970D01*
X106223954Y-63311129D01*
X106205567Y-63346281D01*
X106110204Y-63473669D01*
X106059909Y-63608516D01*
X106053500Y-63668130D01*
X106053500Y-65363869D01*
X106059909Y-65423484D01*
X106062551Y-65430567D01*
X106110204Y-65558331D01*
X106196454Y-65673546D01*
X106311669Y-65759796D01*
X106446517Y-65810091D01*
X106506127Y-65816500D01*
X107361872Y-65816499D01*
X107421483Y-65810091D01*
X107556331Y-65759796D01*
X107671546Y-65673546D01*
X107757796Y-65558331D01*
X107808091Y-65423483D01*
X107814500Y-65363873D01*
X107814499Y-63668128D01*
X107808091Y-63608517D01*
X107757796Y-63473669D01*
X107671546Y-63358454D01*
X107671545Y-63358453D01*
X107662433Y-63346281D01*
X107644046Y-63311129D01*
X107637700Y-63271970D01*
X107637700Y-62460000D01*
X111310000Y-62460000D01*
X111310000Y-63007824D01*
X111316402Y-63067375D01*
X111366647Y-63202089D01*
X111452811Y-63317188D01*
X111567910Y-63403352D01*
X111702624Y-63453597D01*
X111762176Y-63460000D01*
X112010000Y-63460000D01*
X112010000Y-62460000D01*
X111310000Y-62460000D01*
X107637700Y-62460000D01*
X107637700Y-62381999D01*
X107637926Y-62374513D01*
X107641574Y-62314199D01*
X107630683Y-62254769D01*
X107629556Y-62247363D01*
X107622270Y-62187358D01*
X107619589Y-62180291D01*
X107618641Y-62177789D01*
X107612611Y-62156159D01*
X107610770Y-62146110D01*
X107586758Y-62092756D01*
X107585972Y-62091009D01*
X107583107Y-62084092D01*
X107561671Y-62027573D01*
X107555861Y-62019156D01*
X107544833Y-61999602D01*
X107540636Y-61990275D01*
X107516917Y-61960000D01*
X111310000Y-61960000D01*
X112010000Y-61960000D01*
X112010000Y-60960000D01*
X111762176Y-60960000D01*
X111702624Y-60966402D01*
X111567910Y-61016647D01*
X111452811Y-61102811D01*
X111366647Y-61217910D01*
X111316402Y-61352624D01*
X111310000Y-61412176D01*
X111310000Y-61960000D01*
X107516917Y-61960000D01*
X107507633Y-61948149D01*
X107503352Y-61942685D01*
X107498913Y-61936652D01*
X107485699Y-61917509D01*
X107464595Y-61886934D01*
X107464593Y-61886932D01*
X107419367Y-61846864D01*
X107413914Y-61841731D01*
X107286419Y-61714236D01*
X107259539Y-61674008D01*
X107250100Y-61626555D01*
X107250100Y-50001624D01*
X107265823Y-49941192D01*
X107309004Y-49896085D01*
X107365054Y-49861513D01*
X107365056Y-49861512D01*
X107489112Y-49737456D01*
X107581214Y-49588134D01*
X107636399Y-49421597D01*
X107646900Y-49318809D01*
X107646899Y-48764842D01*
X107656338Y-48717390D01*
X107683215Y-48677165D01*
X107757821Y-48602559D01*
X107807182Y-48572311D01*
X107864897Y-48567769D01*
X107918385Y-48589923D01*
X107955984Y-48633946D01*
X107969500Y-48690240D01*
X107969500Y-48757868D01*
X107975909Y-48817485D01*
X107988658Y-48851667D01*
X107996476Y-48894999D01*
X107988659Y-48938330D01*
X107975909Y-48972515D01*
X107969500Y-49032130D01*
X107969500Y-50027869D01*
X107975909Y-50087485D01*
X107988658Y-50121667D01*
X107996476Y-50164999D01*
X107988659Y-50208330D01*
X107975909Y-50242515D01*
X107969500Y-50302130D01*
X107969500Y-51297869D01*
X107975909Y-51357485D01*
X107988658Y-51391666D01*
X107996476Y-51434997D01*
X107988659Y-51478328D01*
X107975909Y-51512513D01*
X107975909Y-51512516D01*
X107975909Y-51512517D01*
X107971009Y-51558097D01*
X107969500Y-51572130D01*
X107969500Y-52567869D01*
X107975909Y-52627485D01*
X107988658Y-52661667D01*
X107996476Y-52704999D01*
X107988659Y-52748330D01*
X107975909Y-52782515D01*
X107975908Y-52782517D01*
X107975909Y-52782517D01*
X107971378Y-52824665D01*
X107969500Y-52842130D01*
X107969500Y-53837869D01*
X107975909Y-53897485D01*
X107988658Y-53931666D01*
X107996476Y-53974997D01*
X107988659Y-54018328D01*
X107975909Y-54052513D01*
X107969500Y-54112130D01*
X107969500Y-55107869D01*
X107975909Y-55167485D01*
X107988658Y-55201666D01*
X107996476Y-55244997D01*
X107988659Y-55288328D01*
X107975909Y-55322513D01*
X107969500Y-55382130D01*
X107969500Y-56377869D01*
X107975909Y-56437485D01*
X107988658Y-56471666D01*
X107996476Y-56514997D01*
X107988659Y-56558328D01*
X107975909Y-56592513D01*
X107969500Y-56652130D01*
X107969500Y-57647869D01*
X107975909Y-57707485D01*
X107988658Y-57741667D01*
X107996476Y-57784999D01*
X107988659Y-57828330D01*
X107975909Y-57862515D01*
X107969500Y-57922130D01*
X107969500Y-58917869D01*
X107975909Y-58977485D01*
X107988658Y-59011667D01*
X107996476Y-59054999D01*
X107988659Y-59098330D01*
X107975909Y-59132515D01*
X107975181Y-59139286D01*
X107971584Y-59172749D01*
X107969500Y-59192130D01*
X107969500Y-60187869D01*
X107975909Y-60247485D01*
X107988658Y-60281666D01*
X107996476Y-60324997D01*
X107988659Y-60368328D01*
X107975909Y-60402513D01*
X107969500Y-60462130D01*
X107969500Y-61457869D01*
X107973193Y-61492216D01*
X107975909Y-61517483D01*
X108026204Y-61652331D01*
X108112454Y-61767546D01*
X108227669Y-61853796D01*
X108362517Y-61904091D01*
X108422127Y-61910500D01*
X110017872Y-61910499D01*
X110077483Y-61904091D01*
X110212331Y-61853796D01*
X110327546Y-61767546D01*
X110413796Y-61652331D01*
X110464091Y-61517483D01*
X110470500Y-61457873D01*
X110470499Y-60462128D01*
X110464091Y-60402517D01*
X110451340Y-60368331D01*
X110443523Y-60324999D01*
X110451342Y-60281665D01*
X110464090Y-60247485D01*
X110464089Y-60247485D01*
X110464091Y-60247483D01*
X110470500Y-60187873D01*
X110470499Y-59192128D01*
X110464091Y-59132517D01*
X110451340Y-59098330D01*
X110443523Y-59055000D01*
X110451342Y-59011665D01*
X110464090Y-58977485D01*
X110464089Y-58977485D01*
X110464091Y-58977483D01*
X110470500Y-58917873D01*
X110470499Y-57977699D01*
X110487112Y-57915700D01*
X110532499Y-57870313D01*
X110594499Y-57853700D01*
X117134756Y-57853700D01*
X117182209Y-57863139D01*
X117222437Y-57890019D01*
X118758827Y-59426410D01*
X118783066Y-59460707D01*
X118794467Y-59501128D01*
X118799126Y-59545457D01*
X118857620Y-59725484D01*
X118866059Y-59740100D01*
X118882672Y-59802100D01*
X118866059Y-59864100D01*
X118820672Y-59909487D01*
X118758672Y-59926100D01*
X114350395Y-59926100D01*
X114342908Y-59925874D01*
X114282597Y-59922225D01*
X114223171Y-59933116D01*
X114215768Y-59934243D01*
X114155752Y-59941530D01*
X114146176Y-59945162D01*
X114124574Y-59951184D01*
X114114510Y-59953028D01*
X114059390Y-59977835D01*
X114052475Y-59980699D01*
X113995971Y-60002129D01*
X113987547Y-60007943D01*
X113968018Y-60018958D01*
X113958674Y-60023164D01*
X113911085Y-60060447D01*
X113905055Y-60064884D01*
X113855332Y-60099205D01*
X113815258Y-60144438D01*
X113810126Y-60149890D01*
X113050090Y-60909926D01*
X113044639Y-60915058D01*
X113015224Y-60941119D01*
X112976326Y-60964488D01*
X112937617Y-60978925D01*
X112894284Y-60986743D01*
X112850952Y-60978925D01*
X112817377Y-60966402D01*
X112757824Y-60960000D01*
X112510000Y-60960000D01*
X112510000Y-63460000D01*
X112757824Y-63460000D01*
X112817376Y-63453597D01*
X112850949Y-63441075D01*
X112894284Y-63433256D01*
X112937618Y-63441074D01*
X112961953Y-63450151D01*
X112971192Y-63453597D01*
X112972517Y-63454091D01*
X113032127Y-63460500D01*
X114027872Y-63460499D01*
X114087483Y-63454091D01*
X114121664Y-63441341D01*
X114164998Y-63433523D01*
X114208332Y-63441341D01*
X114242517Y-63454091D01*
X114302127Y-63460500D01*
X115297872Y-63460499D01*
X115357483Y-63454091D01*
X115391664Y-63441341D01*
X115434998Y-63433523D01*
X115478332Y-63441341D01*
X115512517Y-63454091D01*
X115572127Y-63460500D01*
X116567872Y-63460499D01*
X116627483Y-63454091D01*
X116661664Y-63441341D01*
X116704998Y-63433523D01*
X116748332Y-63441341D01*
X116782517Y-63454091D01*
X116842127Y-63460500D01*
X117837872Y-63460499D01*
X117897483Y-63454091D01*
X117931664Y-63441341D01*
X117974998Y-63433523D01*
X118018332Y-63441341D01*
X118052517Y-63454091D01*
X118112127Y-63460500D01*
X119107872Y-63460499D01*
X119167483Y-63454091D01*
X119201664Y-63441341D01*
X119244998Y-63433523D01*
X119288332Y-63441341D01*
X119322517Y-63454091D01*
X119382127Y-63460500D01*
X120377872Y-63460499D01*
X120437483Y-63454091D01*
X120471664Y-63441341D01*
X120514998Y-63433523D01*
X120558332Y-63441341D01*
X120592517Y-63454091D01*
X120652127Y-63460500D01*
X121647872Y-63460499D01*
X121707483Y-63454091D01*
X121741664Y-63441341D01*
X121784998Y-63433523D01*
X121828332Y-63441341D01*
X121862517Y-63454091D01*
X121922127Y-63460500D01*
X122862300Y-63460499D01*
X122924300Y-63477112D01*
X122969687Y-63522499D01*
X122986300Y-63584499D01*
X122986300Y-63956261D01*
X122967839Y-64021357D01*
X122893386Y-64142065D01*
X122862490Y-64235304D01*
X122836611Y-64279629D01*
X122794999Y-64309677D01*
X122744784Y-64320300D01*
X122444422Y-64320300D01*
X122383990Y-64304577D01*
X122338883Y-64261396D01*
X122338254Y-64260377D01*
X122251512Y-64119744D01*
X122251511Y-64119742D01*
X122127457Y-63995688D01*
X121978134Y-63903586D01*
X121811597Y-63848400D01*
X121708809Y-63837900D01*
X120708791Y-63837900D01*
X120606003Y-63848400D01*
X120439465Y-63903586D01*
X120290142Y-63995688D01*
X120166088Y-64119742D01*
X120073245Y-64270267D01*
X120028137Y-64313449D01*
X119967705Y-64329171D01*
X119907272Y-64313447D01*
X119874447Y-64282022D01*
X119873766Y-64282704D01*
X119739545Y-64148483D01*
X119590322Y-64056442D01*
X119423896Y-64001293D01*
X119321179Y-63990800D01*
X119071200Y-63990800D01*
X119071200Y-65216800D01*
X119054587Y-65278800D01*
X119009200Y-65324187D01*
X118947200Y-65340800D01*
X117621201Y-65340800D01*
X117621201Y-65490779D01*
X117631693Y-65593495D01*
X117686842Y-65759922D01*
X117778883Y-65909145D01*
X117872503Y-66002765D01*
X117904597Y-66058352D01*
X117904597Y-66122539D01*
X117872504Y-66178127D01*
X117778487Y-66272144D01*
X117686386Y-66421465D01*
X117631200Y-66588002D01*
X117620700Y-66690790D01*
X117620700Y-67490808D01*
X117631200Y-67593596D01*
X117686386Y-67760134D01*
X117778488Y-67909457D01*
X117902542Y-68033511D01*
X117911279Y-68038900D01*
X118051866Y-68125614D01*
X118163216Y-68162512D01*
X118218402Y-68180799D01*
X118228902Y-68181871D01*
X118321191Y-68191300D01*
X119321208Y-68191299D01*
X119423997Y-68180799D01*
X119590534Y-68125614D01*
X119739856Y-68033512D01*
X119863912Y-67909456D01*
X119956014Y-67760134D01*
X119956015Y-67760129D01*
X119956460Y-67759409D01*
X120001565Y-67716229D01*
X120061995Y-67700505D01*
X120122426Y-67716225D01*
X120155123Y-67747523D01*
X120155839Y-67746808D01*
X120290142Y-67881111D01*
X120322235Y-67900906D01*
X120439466Y-67973214D01*
X120537976Y-68005857D01*
X120606002Y-68028399D01*
X120616503Y-68029471D01*
X120708791Y-68038900D01*
X121708808Y-68038899D01*
X121811597Y-68028399D01*
X121978134Y-67973214D01*
X122127456Y-67881112D01*
X122251512Y-67757056D01*
X122343614Y-67607734D01*
X122398799Y-67441197D01*
X122409300Y-67338409D01*
X122409300Y-67061400D01*
X122828201Y-67061400D01*
X122828201Y-67211379D01*
X122838693Y-67314095D01*
X122893842Y-67480522D01*
X122985883Y-67629745D01*
X123109854Y-67753716D01*
X123259077Y-67845757D01*
X123425503Y-67900906D01*
X123528221Y-67911400D01*
X123778200Y-67911400D01*
X123778200Y-67061400D01*
X122828201Y-67061400D01*
X122409300Y-67061400D01*
X122409299Y-66588392D01*
X122398799Y-66485603D01*
X122343614Y-66319066D01*
X122251512Y-66169744D01*
X122251511Y-66169742D01*
X122127455Y-66045686D01*
X122124616Y-66043935D01*
X122081437Y-65998826D01*
X122065717Y-65938393D01*
X122081443Y-65877962D01*
X122124624Y-65832858D01*
X122127456Y-65831112D01*
X122194551Y-65764016D01*
X122234777Y-65737139D01*
X122282230Y-65727700D01*
X122951876Y-65727700D01*
X123008171Y-65741215D01*
X123052194Y-65778815D01*
X123074349Y-65832302D01*
X123069807Y-65890018D01*
X123039557Y-65939381D01*
X122985883Y-65993054D01*
X122893842Y-66142277D01*
X122838693Y-66308703D01*
X122828200Y-66411421D01*
X122828200Y-66561400D01*
X124154200Y-66561400D01*
X124216200Y-66578013D01*
X124261587Y-66623400D01*
X124278200Y-66685400D01*
X124278200Y-67911399D01*
X124528179Y-67911399D01*
X124630895Y-67900906D01*
X124797322Y-67845757D01*
X124946544Y-67753716D01*
X125038357Y-67661903D01*
X125093945Y-67629808D01*
X125158132Y-67629808D01*
X125213720Y-67661902D01*
X129036924Y-71485106D01*
X129042058Y-71490559D01*
X129082134Y-71535795D01*
X129131867Y-71570123D01*
X129137886Y-71574552D01*
X129138981Y-71575410D01*
X129185475Y-71611836D01*
X129194803Y-71616034D01*
X129214356Y-71627061D01*
X129222773Y-71632871D01*
X129279292Y-71654307D01*
X129286209Y-71657172D01*
X129307585Y-71666792D01*
X129341310Y-71681970D01*
X129351360Y-71683811D01*
X129372989Y-71689841D01*
X129382557Y-71693470D01*
X129425534Y-71698688D01*
X129442563Y-71700756D01*
X129449969Y-71701883D01*
X129509399Y-71712774D01*
X129569713Y-71709125D01*
X129577199Y-71708900D01*
X132423800Y-71708900D01*
X132431285Y-71709125D01*
X132491600Y-71712774D01*
X132551058Y-71701877D01*
X132558422Y-71700757D01*
X132618443Y-71693470D01*
X132628008Y-71689841D01*
X132649636Y-71683811D01*
X132659690Y-71681970D01*
X132659691Y-71681969D01*
X132659693Y-71681969D01*
X132714799Y-71657168D01*
X132721713Y-71654303D01*
X132778227Y-71632871D01*
X132786639Y-71627063D01*
X132806194Y-71616034D01*
X132815525Y-71611836D01*
X132863138Y-71574531D01*
X132869110Y-71570137D01*
X132918866Y-71535795D01*
X132958956Y-71490541D01*
X132964059Y-71485121D01*
X133489574Y-70959606D01*
X133545160Y-70927514D01*
X133609347Y-70927514D01*
X133622592Y-70931063D01*
X133858000Y-70951659D01*
X134093408Y-70931063D01*
X134321663Y-70869903D01*
X134535830Y-70770035D01*
X134729401Y-70634495D01*
X134896495Y-70467401D01*
X135032035Y-70273830D01*
X135131903Y-70059663D01*
X135193063Y-69831408D01*
X135213659Y-69596000D01*
X135193063Y-69360592D01*
X135131903Y-69132337D01*
X135032035Y-68918171D01*
X134896495Y-68724599D01*
X134774569Y-68602672D01*
X134743273Y-68549927D01*
X134741084Y-68488634D01*
X134768537Y-68433789D01*
X134818916Y-68398810D01*
X134950331Y-68349796D01*
X135065546Y-68263546D01*
X135151796Y-68148331D01*
X135202091Y-68013483D01*
X135208500Y-67953873D01*
X135208499Y-66158128D01*
X135202091Y-66098517D01*
X135151796Y-65963669D01*
X135065546Y-65848454D01*
X134950331Y-65762204D01*
X134815483Y-65711909D01*
X134755873Y-65705500D01*
X134755869Y-65705500D01*
X132960130Y-65705500D01*
X132900515Y-65711909D01*
X132765669Y-65762204D01*
X132650454Y-65848454D01*
X132564204Y-65963668D01*
X132513909Y-66098515D01*
X132513909Y-66098517D01*
X132507656Y-66156683D01*
X132507500Y-66158130D01*
X132507500Y-67953869D01*
X132513909Y-68013484D01*
X132523389Y-68038900D01*
X132564204Y-68148331D01*
X132650454Y-68263546D01*
X132765669Y-68349796D01*
X132877907Y-68391658D01*
X132897082Y-68398810D01*
X132947462Y-68433789D01*
X132974915Y-68488634D01*
X132972726Y-68549926D01*
X132941431Y-68602673D01*
X132819503Y-68724601D01*
X132683965Y-68918170D01*
X132584097Y-69132336D01*
X132522936Y-69360592D01*
X132502340Y-69595999D01*
X132522936Y-69831408D01*
X132526485Y-69844652D01*
X132526485Y-69908838D01*
X132494391Y-69964425D01*
X132193634Y-70265183D01*
X132153409Y-70292061D01*
X132105956Y-70301500D01*
X130743224Y-70301500D01*
X130683797Y-70286332D01*
X130638909Y-70244540D01*
X130619540Y-70186346D01*
X130630429Y-70125989D01*
X130668913Y-70078233D01*
X130785188Y-69991189D01*
X130871352Y-69876089D01*
X130921597Y-69741375D01*
X130928000Y-69681824D01*
X130928000Y-69084000D01*
X129168000Y-69084000D01*
X129168000Y-69326456D01*
X129154485Y-69382751D01*
X129116885Y-69426774D01*
X129063398Y-69448929D01*
X129005682Y-69444387D01*
X128956319Y-69414137D01*
X128126182Y-68584000D01*
X129168000Y-68584000D01*
X129798000Y-68584000D01*
X129798000Y-67534000D01*
X130298000Y-67534000D01*
X130298000Y-68584000D01*
X130928000Y-68584000D01*
X130928000Y-67986176D01*
X130921597Y-67926624D01*
X130871352Y-67791910D01*
X130785188Y-67676811D01*
X130670089Y-67590647D01*
X130535375Y-67540402D01*
X130475824Y-67534000D01*
X130298000Y-67534000D01*
X129798000Y-67534000D01*
X129620176Y-67534000D01*
X129560624Y-67540402D01*
X129425910Y-67590647D01*
X129310811Y-67676811D01*
X129224647Y-67791910D01*
X129174402Y-67926624D01*
X129168000Y-67986176D01*
X129168000Y-68584000D01*
X128126182Y-68584000D01*
X126343019Y-66800837D01*
X126316139Y-66760609D01*
X126306700Y-66713156D01*
X126306700Y-62153395D01*
X126306926Y-62145908D01*
X126310574Y-62085596D01*
X126305306Y-62056853D01*
X126307339Y-62003011D01*
X126332017Y-61955114D01*
X126374680Y-61922205D01*
X126427274Y-61910499D01*
X126864631Y-61910499D01*
X126879577Y-61911402D01*
X126931437Y-61917700D01*
X129043501Y-61917700D01*
X129105501Y-61934313D01*
X129150888Y-61979700D01*
X129167501Y-62041700D01*
X129167501Y-62061870D01*
X129173909Y-62121484D01*
X129194911Y-62177793D01*
X129224204Y-62256331D01*
X129310454Y-62371546D01*
X129425669Y-62457796D01*
X129560517Y-62508091D01*
X129620127Y-62514500D01*
X130475872Y-62514499D01*
X130535483Y-62508091D01*
X130670331Y-62457796D01*
X130785546Y-62371546D01*
X130871796Y-62256331D01*
X130922091Y-62121483D01*
X130928500Y-62061873D01*
X130928499Y-60366128D01*
X130922091Y-60306517D01*
X130871796Y-60171669D01*
X130785546Y-60056454D01*
X130785545Y-60056453D01*
X130776433Y-60044281D01*
X130758046Y-60009129D01*
X130751700Y-59969970D01*
X130751700Y-58850693D01*
X130767423Y-58790261D01*
X130810604Y-58745154D01*
X130882654Y-58700713D01*
X130882653Y-58700713D01*
X130882656Y-58700712D01*
X130976320Y-58607047D01*
X131031906Y-58574955D01*
X131096094Y-58574955D01*
X131151679Y-58607047D01*
X131222332Y-58677700D01*
X131245345Y-58700713D01*
X131285396Y-58725416D01*
X131394666Y-58792814D01*
X131506017Y-58829712D01*
X131561202Y-58847999D01*
X131570729Y-58848972D01*
X131663991Y-58858500D01*
X132217955Y-58858499D01*
X132265408Y-58867938D01*
X132305636Y-58894818D01*
X133219581Y-59808763D01*
X133246461Y-59848991D01*
X133255900Y-59896444D01*
X133255900Y-60348162D01*
X133247664Y-60392599D01*
X133233166Y-60416256D01*
X133233583Y-60416497D01*
X133132420Y-60591715D01*
X133073926Y-60771742D01*
X133054140Y-60959999D01*
X133073926Y-61148257D01*
X133132420Y-61328284D01*
X133227066Y-61492216D01*
X133353729Y-61632889D01*
X133506869Y-61744151D01*
X133679797Y-61821144D01*
X133864952Y-61860500D01*
X133864954Y-61860500D01*
X134054246Y-61860500D01*
X134054248Y-61860500D01*
X134177683Y-61834262D01*
X134239403Y-61821144D01*
X134412330Y-61744151D01*
X134538710Y-61652331D01*
X134565470Y-61632889D01*
X134692133Y-61492216D01*
X134786779Y-61328284D01*
X134845274Y-61148257D01*
X134849932Y-61103930D01*
X134861332Y-61063507D01*
X134885569Y-61029211D01*
X136938443Y-58976337D01*
X136991125Y-58945061D01*
X137052354Y-58942826D01*
X137107178Y-58970180D01*
X137122571Y-58992265D01*
X137125520Y-58990058D01*
X137136203Y-59004328D01*
X137136204Y-59004331D01*
X137222454Y-59119546D01*
X137337669Y-59205796D01*
X137472517Y-59256091D01*
X137532127Y-59262500D01*
X139327872Y-59262499D01*
X139387483Y-59256091D01*
X139522331Y-59205796D01*
X139637546Y-59119546D01*
X139723796Y-59004331D01*
X139774091Y-58869483D01*
X139780500Y-58809873D01*
X139780500Y-58739700D01*
X139797113Y-58677700D01*
X139842500Y-58632313D01*
X139904500Y-58615700D01*
X141072000Y-58615700D01*
X141079485Y-58615925D01*
X141139800Y-58619574D01*
X141199258Y-58608677D01*
X141206622Y-58607557D01*
X141266643Y-58600270D01*
X141276208Y-58596641D01*
X141297836Y-58590611D01*
X141307890Y-58588770D01*
X141307891Y-58588769D01*
X141307893Y-58588769D01*
X141362999Y-58563968D01*
X141369913Y-58561103D01*
X141426427Y-58539671D01*
X141434839Y-58533863D01*
X141454394Y-58522834D01*
X141463725Y-58518636D01*
X141511338Y-58481331D01*
X141517310Y-58476937D01*
X141567066Y-58442595D01*
X141607156Y-58397341D01*
X141612241Y-58391939D01*
X141703936Y-58300245D01*
X141709357Y-58295142D01*
X141754595Y-58255066D01*
X141788933Y-58205317D01*
X141793333Y-58199337D01*
X141797299Y-58194274D01*
X141845388Y-58157075D01*
X141905383Y-58147205D01*
X141962858Y-58167042D01*
X142003994Y-58211815D01*
X142018900Y-58270761D01*
X142018900Y-65981794D01*
X142000162Y-66047337D01*
X141949611Y-66093071D01*
X141882525Y-66105175D01*
X141819179Y-66079990D01*
X141778718Y-66025127D01*
X141755796Y-65963669D01*
X141669546Y-65848454D01*
X141554331Y-65762204D01*
X141419483Y-65711909D01*
X141359873Y-65705500D01*
X141359869Y-65705500D01*
X140513644Y-65705500D01*
X140466191Y-65696061D01*
X140425963Y-65669181D01*
X139462119Y-64705337D01*
X139435239Y-64665109D01*
X139425800Y-64617656D01*
X139425800Y-63565738D01*
X139434036Y-63521301D01*
X139448533Y-63497643D01*
X139448117Y-63497403D01*
X139549279Y-63322184D01*
X139555343Y-63303520D01*
X139607774Y-63142156D01*
X139627560Y-62953900D01*
X139607774Y-62765644D01*
X139549279Y-62585616D01*
X139549279Y-62585615D01*
X139454633Y-62421683D01*
X139327970Y-62281010D01*
X139174830Y-62169748D01*
X139001902Y-62092755D01*
X138816748Y-62053400D01*
X138816746Y-62053400D01*
X138627454Y-62053400D01*
X138627452Y-62053400D01*
X138442297Y-62092755D01*
X138269369Y-62169748D01*
X138116229Y-62281010D01*
X137989566Y-62421683D01*
X137894920Y-62585615D01*
X137836426Y-62765642D01*
X137816640Y-62953900D01*
X137836426Y-63142157D01*
X137894920Y-63322184D01*
X137996083Y-63497403D01*
X137995666Y-63497643D01*
X138010164Y-63521301D01*
X138018400Y-63565738D01*
X138018400Y-64935500D01*
X138018174Y-64942986D01*
X138014525Y-65003300D01*
X138025415Y-65062722D01*
X138026542Y-65070125D01*
X138033830Y-65130142D01*
X138037460Y-65139714D01*
X138043487Y-65161333D01*
X138045330Y-65171391D01*
X138063959Y-65212784D01*
X138065766Y-65216800D01*
X138070128Y-65226491D01*
X138072993Y-65233408D01*
X138094428Y-65289926D01*
X138100239Y-65298344D01*
X138111265Y-65317895D01*
X138115464Y-65327226D01*
X138152747Y-65374813D01*
X138157187Y-65380847D01*
X138191506Y-65430567D01*
X138236730Y-65470632D01*
X138242184Y-65475766D01*
X139075181Y-66308763D01*
X139102061Y-66348991D01*
X139111500Y-66396444D01*
X139111500Y-67953869D01*
X139117909Y-68013484D01*
X139127389Y-68038900D01*
X139168204Y-68148331D01*
X139254454Y-68263546D01*
X139369669Y-68349796D01*
X139481907Y-68391658D01*
X139501082Y-68398810D01*
X139551462Y-68433789D01*
X139578915Y-68488634D01*
X139576726Y-68549926D01*
X139545431Y-68602673D01*
X139423503Y-68724601D01*
X139287965Y-68918170D01*
X139188097Y-69132336D01*
X139126936Y-69360592D01*
X139106340Y-69596000D01*
X139126936Y-69831407D01*
X139157962Y-69947196D01*
X139188097Y-70059663D01*
X139287965Y-70273830D01*
X139423505Y-70467401D01*
X139590599Y-70634495D01*
X139784170Y-70770035D01*
X139998337Y-70869903D01*
X140226592Y-70931063D01*
X140462000Y-70951659D01*
X140697408Y-70931063D01*
X140925663Y-70869903D01*
X141139830Y-70770035D01*
X141333401Y-70634495D01*
X141500495Y-70467401D01*
X141580897Y-70352574D01*
X141625214Y-70313711D01*
X141682471Y-70299700D01*
X141935600Y-70299700D01*
X141943085Y-70299925D01*
X142003400Y-70303574D01*
X142062858Y-70292677D01*
X142070222Y-70291557D01*
X142130243Y-70284270D01*
X142139808Y-70280641D01*
X142161436Y-70274611D01*
X142171490Y-70272770D01*
X142171491Y-70272769D01*
X142171493Y-70272769D01*
X142226599Y-70247968D01*
X142233513Y-70245103D01*
X142290027Y-70223671D01*
X142298439Y-70217863D01*
X142317994Y-70206834D01*
X142327325Y-70202636D01*
X142374938Y-70165331D01*
X142380910Y-70160937D01*
X142430666Y-70126595D01*
X142470756Y-70081341D01*
X142475859Y-70075921D01*
X143161201Y-69390579D01*
X143210378Y-69360391D01*
X143267896Y-69355729D01*
X143321295Y-69377604D01*
X143359011Y-69421279D01*
X143372876Y-69477295D01*
X143443329Y-78507998D01*
X143427138Y-78570236D01*
X143381949Y-78615994D01*
X143319918Y-78632964D01*
X143002794Y-78634459D01*
X142941471Y-78618566D01*
X142896001Y-78574459D01*
X142878250Y-78513648D01*
X142892849Y-78452011D01*
X142928814Y-78384727D01*
X142986024Y-78196132D01*
X143005341Y-78000000D01*
X142986024Y-77803868D01*
X142928814Y-77615273D01*
X142835910Y-77441462D01*
X142710883Y-77289117D01*
X142558538Y-77164090D01*
X142536091Y-77152091D01*
X142384726Y-77071185D01*
X142196133Y-77013976D01*
X142000000Y-76994659D01*
X141803866Y-77013976D01*
X141615273Y-77071185D01*
X141441463Y-77164089D01*
X141289117Y-77289117D01*
X141164089Y-77441463D01*
X141071185Y-77615273D01*
X141013976Y-77803866D01*
X140994659Y-77999999D01*
X141013976Y-78196133D01*
X141071185Y-78384726D01*
X141112186Y-78461433D01*
X141126794Y-78522783D01*
X141109336Y-78583384D01*
X141064328Y-78627560D01*
X141003413Y-78643885D01*
X80793728Y-78927783D01*
X80735101Y-78913361D01*
X80690234Y-78872962D01*
X80669763Y-78816164D01*
X80678541Y-78756431D01*
X80704480Y-78721427D01*
X80703135Y-78720323D01*
X80710880Y-78710885D01*
X80710883Y-78710883D01*
X80835910Y-78558538D01*
X80928814Y-78384727D01*
X80986024Y-78196132D01*
X81005341Y-78000000D01*
X80986024Y-77803868D01*
X80928814Y-77615273D01*
X80835910Y-77441462D01*
X80710883Y-77289117D01*
X80558538Y-77164090D01*
X80536091Y-77152091D01*
X80384726Y-77071185D01*
X80196133Y-77013976D01*
X80000000Y-76994659D01*
X79803866Y-77013976D01*
X79615273Y-77071185D01*
X79441463Y-77164089D01*
X79289117Y-77289117D01*
X79164089Y-77441463D01*
X79071186Y-77615272D01*
X79057268Y-77661153D01*
X79027565Y-77711542D01*
X78978068Y-77742710D01*
X78919791Y-77747720D01*
X78865701Y-77725458D01*
X78827833Y-77680878D01*
X78814614Y-77623899D01*
X78827795Y-76323735D01*
X82535900Y-76323735D01*
X82576829Y-76569015D01*
X82614993Y-76680182D01*
X82657572Y-76804210D01*
X82678294Y-76842500D01*
X82775929Y-77022914D01*
X82817701Y-77076582D01*
X82928662Y-77219144D01*
X83111615Y-77387564D01*
X83319793Y-77523573D01*
X83547519Y-77623463D01*
X83788579Y-77684508D01*
X83862880Y-77690664D01*
X83974327Y-77699900D01*
X83974333Y-77699900D01*
X86298467Y-77699900D01*
X86298473Y-77699900D01*
X86399787Y-77691504D01*
X86484221Y-77684508D01*
X86725281Y-77623463D01*
X86953007Y-77523573D01*
X87161185Y-77387564D01*
X87344138Y-77219144D01*
X87496874Y-77022909D01*
X87615228Y-76804210D01*
X87695971Y-76569014D01*
X87736900Y-76323735D01*
X87736900Y-76075065D01*
X87695971Y-75829786D01*
X87615228Y-75594590D01*
X87496874Y-75375891D01*
X87496871Y-75375887D01*
X87496870Y-75375885D01*
X87344140Y-75179659D01*
X87344138Y-75179656D01*
X87161185Y-75011236D01*
X86953007Y-74875227D01*
X86953004Y-74875225D01*
X86822520Y-74817990D01*
X86725281Y-74775337D01*
X86484221Y-74714292D01*
X86484219Y-74714291D01*
X86484216Y-74714291D01*
X86298473Y-74698900D01*
X86298467Y-74698900D01*
X83974333Y-74698900D01*
X83974327Y-74698900D01*
X83788583Y-74714291D01*
X83788579Y-74714291D01*
X83788579Y-74714292D01*
X83547519Y-74775337D01*
X83547516Y-74775338D01*
X83547517Y-74775338D01*
X83319795Y-74875225D01*
X83181007Y-74965899D01*
X83111615Y-75011236D01*
X83003194Y-75111045D01*
X82928659Y-75179659D01*
X82775929Y-75375885D01*
X82775926Y-75375891D01*
X82663466Y-75583700D01*
X82657570Y-75594594D01*
X82576829Y-75829784D01*
X82535900Y-76075065D01*
X82535900Y-76323735D01*
X78827795Y-76323735D01*
X78865938Y-72561473D01*
X80235900Y-72561473D01*
X80251291Y-72747216D01*
X80251291Y-72747219D01*
X80251292Y-72747221D01*
X80312337Y-72988281D01*
X80354185Y-73083685D01*
X80412225Y-73216004D01*
X80412227Y-73216007D01*
X80548236Y-73424185D01*
X80716656Y-73607138D01*
X80771015Y-73649447D01*
X80912885Y-73759870D01*
X80912887Y-73759871D01*
X80912891Y-73759874D01*
X81131590Y-73878228D01*
X81366786Y-73958971D01*
X81612065Y-73999900D01*
X81860735Y-73999900D01*
X82106014Y-73958971D01*
X82341210Y-73878228D01*
X82559909Y-73759874D01*
X82756144Y-73607138D01*
X82924564Y-73424185D01*
X83060573Y-73216007D01*
X83160463Y-72988281D01*
X83221508Y-72747221D01*
X83236900Y-72561467D01*
X83236900Y-71250244D01*
X83246339Y-71202791D01*
X83273219Y-71162563D01*
X84026349Y-70409433D01*
X86331921Y-68103859D01*
X86337341Y-68098756D01*
X86382595Y-68058666D01*
X86416937Y-68008910D01*
X86421331Y-68002938D01*
X86458636Y-67955325D01*
X86462834Y-67945994D01*
X86473864Y-67926439D01*
X86476575Y-67922512D01*
X86479671Y-67918027D01*
X86501103Y-67861513D01*
X86503968Y-67854599D01*
X86528769Y-67799493D01*
X86530159Y-67791910D01*
X86530611Y-67789436D01*
X86536643Y-67767804D01*
X86540270Y-67758243D01*
X86547557Y-67698222D01*
X86548677Y-67690858D01*
X86559574Y-67631400D01*
X86555925Y-67571085D01*
X86555700Y-67563600D01*
X86555700Y-65678808D01*
X86571511Y-65618219D01*
X86614910Y-65573081D01*
X86660891Y-65544902D01*
X86746132Y-65492668D01*
X86927643Y-65337643D01*
X87027711Y-65220477D01*
X87070086Y-65188401D01*
X87122000Y-65177011D01*
X87173914Y-65188401D01*
X87216288Y-65220477D01*
X87316357Y-65337643D01*
X87497868Y-65492668D01*
X87701395Y-65617389D01*
X87703399Y-65618219D01*
X87921926Y-65708737D01*
X87935139Y-65711909D01*
X88154034Y-65764461D01*
X88392000Y-65783189D01*
X88629966Y-65764461D01*
X88862073Y-65708737D01*
X89082605Y-65617389D01*
X89286132Y-65492668D01*
X89467643Y-65337643D01*
X89622668Y-65156132D01*
X89747389Y-64952605D01*
X89838737Y-64732073D01*
X89894461Y-64499966D01*
X89913189Y-64262000D01*
X94998811Y-64262000D01*
X95017539Y-64499967D01*
X95073262Y-64732073D01*
X95164609Y-64952601D01*
X95164611Y-64952605D01*
X95273406Y-65130143D01*
X95289334Y-65156135D01*
X95349424Y-65226491D01*
X95444357Y-65337643D01*
X95625868Y-65492668D01*
X95829395Y-65617389D01*
X95831399Y-65618219D01*
X96049926Y-65708737D01*
X96063139Y-65711909D01*
X96282034Y-65764461D01*
X96520000Y-65783189D01*
X96757966Y-65764461D01*
X96990073Y-65708737D01*
X97210605Y-65617389D01*
X97414132Y-65492668D01*
X97595643Y-65337643D01*
X97695711Y-65220477D01*
X97738086Y-65188401D01*
X97790000Y-65177011D01*
X97841914Y-65188401D01*
X97884288Y-65220477D01*
X97984357Y-65337643D01*
X98165868Y-65492668D01*
X98369395Y-65617389D01*
X98371399Y-65618219D01*
X98589926Y-65708737D01*
X98603139Y-65711909D01*
X98822034Y-65764461D01*
X99060000Y-65783189D01*
X99297966Y-65764461D01*
X99530073Y-65708737D01*
X99750605Y-65617389D01*
X99954132Y-65492668D01*
X100135643Y-65337643D01*
X100290668Y-65156132D01*
X100415389Y-64952605D01*
X100506737Y-64732073D01*
X100562461Y-64499966D01*
X100581189Y-64262000D01*
X100562461Y-64024034D01*
X100520295Y-63848400D01*
X100506737Y-63791926D01*
X100443221Y-63638588D01*
X100415389Y-63571395D01*
X100290668Y-63367868D01*
X100135643Y-63186357D01*
X100026188Y-63092873D01*
X99954135Y-63031334D01*
X99915850Y-63007873D01*
X99750605Y-62906611D01*
X99750602Y-62906610D01*
X99750601Y-62906609D01*
X99530073Y-62815262D01*
X99297967Y-62759539D01*
X99060000Y-62740811D01*
X98822032Y-62759539D01*
X98589926Y-62815262D01*
X98369398Y-62906609D01*
X98165864Y-63031334D01*
X97984357Y-63186357D01*
X97884290Y-63303520D01*
X97841914Y-63335598D01*
X97790000Y-63346988D01*
X97738086Y-63335598D01*
X97695710Y-63303520D01*
X97668683Y-63271876D01*
X97595643Y-63186357D01*
X97486188Y-63092873D01*
X97414135Y-63031334D01*
X97375850Y-63007873D01*
X97210605Y-62906611D01*
X97210602Y-62906610D01*
X97210601Y-62906609D01*
X96990073Y-62815262D01*
X96757967Y-62759539D01*
X96520000Y-62740811D01*
X96282032Y-62759539D01*
X96049926Y-62815262D01*
X95829398Y-62906609D01*
X95625864Y-63031334D01*
X95444357Y-63186357D01*
X95289334Y-63367864D01*
X95164609Y-63571398D01*
X95073262Y-63791926D01*
X95017539Y-64024032D01*
X94998811Y-64262000D01*
X89913189Y-64262000D01*
X89894461Y-64024034D01*
X89852295Y-63848400D01*
X89838737Y-63791926D01*
X89775221Y-63638588D01*
X89747389Y-63571395D01*
X89622668Y-63367868D01*
X89467643Y-63186357D01*
X89358188Y-63092873D01*
X89286135Y-63031334D01*
X89247850Y-63007873D01*
X89082605Y-62906611D01*
X89082602Y-62906610D01*
X89082601Y-62906609D01*
X88862073Y-62815262D01*
X88629967Y-62759539D01*
X88392000Y-62740811D01*
X88154032Y-62759539D01*
X87921926Y-62815262D01*
X87701398Y-62906609D01*
X87497864Y-63031334D01*
X87316357Y-63186357D01*
X87216290Y-63303520D01*
X87173914Y-63335598D01*
X87122000Y-63346988D01*
X87070086Y-63335598D01*
X87027710Y-63303520D01*
X87000683Y-63271876D01*
X86927643Y-63186357D01*
X86818188Y-63092873D01*
X86746135Y-63031334D01*
X86707850Y-63007873D01*
X86542605Y-62906611D01*
X86542602Y-62906610D01*
X86542601Y-62906609D01*
X86322073Y-62815262D01*
X86089967Y-62759539D01*
X85852000Y-62740811D01*
X85614032Y-62759539D01*
X85381926Y-62815262D01*
X85161398Y-62906609D01*
X84957864Y-63031334D01*
X84776357Y-63186357D01*
X84621334Y-63367864D01*
X84496609Y-63571398D01*
X84405262Y-63791926D01*
X84349539Y-64024032D01*
X84330811Y-64262000D01*
X84349539Y-64499967D01*
X84405262Y-64732073D01*
X84496609Y-64952601D01*
X84496611Y-64952605D01*
X84605406Y-65130143D01*
X84621334Y-65156135D01*
X84681424Y-65226491D01*
X84776357Y-65337643D01*
X84957868Y-65492668D01*
X85020989Y-65531348D01*
X85089090Y-65573081D01*
X85132489Y-65618219D01*
X85148300Y-65678808D01*
X85148300Y-67245756D01*
X85138861Y-67293209D01*
X85111981Y-67333437D01*
X83086041Y-69359375D01*
X83028800Y-69391900D01*
X82962978Y-69390539D01*
X82907130Y-69355677D01*
X82898791Y-69346618D01*
X82756144Y-69191662D01*
X82719868Y-69163427D01*
X82559914Y-69038929D01*
X82559910Y-69038926D01*
X82559909Y-69038926D01*
X82341210Y-68920572D01*
X82341206Y-68920570D01*
X82341205Y-68920570D01*
X82106015Y-68839829D01*
X81860735Y-68798900D01*
X81612065Y-68798900D01*
X81366784Y-68839829D01*
X81131594Y-68920570D01*
X80912885Y-69038929D01*
X80716659Y-69191659D01*
X80716656Y-69191661D01*
X80716656Y-69191662D01*
X80548236Y-69374615D01*
X80537805Y-69390581D01*
X80412225Y-69582795D01*
X80322180Y-69788078D01*
X80312337Y-69810519D01*
X80287439Y-69908838D01*
X80251291Y-70051583D01*
X80235900Y-70237327D01*
X80235900Y-72561473D01*
X78865938Y-72561473D01*
X79125527Y-46956769D01*
X84968782Y-46956769D01*
X85161620Y-47074941D01*
X85382081Y-47166260D01*
X85614110Y-47221965D01*
X85852000Y-47240687D01*
X86089889Y-47221965D01*
X86321918Y-47166260D01*
X86542379Y-47074942D01*
X86735215Y-46956770D01*
X86735216Y-46956769D01*
X87508782Y-46956769D01*
X87701620Y-47074941D01*
X87922081Y-47166260D01*
X88154110Y-47221965D01*
X88392000Y-47240687D01*
X88629889Y-47221965D01*
X88861918Y-47166260D01*
X89082379Y-47074942D01*
X89275215Y-46956770D01*
X89275216Y-46956769D01*
X88392001Y-46073553D01*
X88392000Y-46073553D01*
X87508782Y-46956769D01*
X86735216Y-46956769D01*
X85852001Y-46073553D01*
X85852000Y-46073553D01*
X84968782Y-46956769D01*
X79125527Y-46956769D01*
X79138066Y-45720000D01*
X84331312Y-45720000D01*
X84350034Y-45957889D01*
X84405739Y-46189918D01*
X84497058Y-46410379D01*
X84615229Y-46603216D01*
X85498446Y-45720001D01*
X86205553Y-45720001D01*
X87088769Y-46603215D01*
X87107426Y-46601007D01*
X87136576Y-46601008D01*
X87155229Y-46603216D01*
X88038446Y-45720001D01*
X88745553Y-45720001D01*
X89628769Y-46603216D01*
X89628770Y-46603215D01*
X89746942Y-46410379D01*
X89838260Y-46189918D01*
X89893965Y-45957889D01*
X89912687Y-45720000D01*
X89893965Y-45482110D01*
X89838260Y-45250081D01*
X89746941Y-45029620D01*
X89628769Y-44836782D01*
X88745553Y-45720000D01*
X88745553Y-45720001D01*
X88038446Y-45720001D01*
X88038446Y-45720000D01*
X87155229Y-44836782D01*
X87136574Y-44838991D01*
X87107427Y-44838991D01*
X87088769Y-44836783D01*
X86205553Y-45720000D01*
X86205553Y-45720001D01*
X85498446Y-45720001D01*
X85498446Y-45720000D01*
X84615229Y-44836782D01*
X84497055Y-45029622D01*
X84405740Y-45250078D01*
X84350034Y-45482110D01*
X84331312Y-45720000D01*
X79138066Y-45720000D01*
X79150605Y-44483229D01*
X84968782Y-44483229D01*
X85852000Y-45366446D01*
X85852001Y-45366446D01*
X86735216Y-44483229D01*
X87508782Y-44483229D01*
X88392000Y-45366446D01*
X88392001Y-45366446D01*
X89275216Y-44483229D01*
X89082379Y-44365058D01*
X88861918Y-44273739D01*
X88629889Y-44218034D01*
X88392000Y-44199312D01*
X88154110Y-44218034D01*
X87922078Y-44273740D01*
X87701622Y-44365055D01*
X87508782Y-44483229D01*
X86735216Y-44483229D01*
X86542379Y-44365058D01*
X86321918Y-44273739D01*
X86089889Y-44218034D01*
X85852000Y-44199312D01*
X85614110Y-44218034D01*
X85382078Y-44273740D01*
X85161622Y-44365055D01*
X84968782Y-44483229D01*
X79150605Y-44483229D01*
X79171800Y-42392600D01*
X79137555Y-38968077D01*
X79136363Y-38848926D01*
X79155100Y-38782139D01*
X79206780Y-38735863D01*
X79275228Y-38724586D01*
X79339020Y-38751837D01*
X79441462Y-38835910D01*
X79615273Y-38928814D01*
X79803868Y-38986024D01*
X80000000Y-39005341D01*
X80196132Y-38986024D01*
X80384727Y-38928814D01*
X80558538Y-38835910D01*
X80710883Y-38710883D01*
X80835910Y-38558538D01*
X80928814Y-38384727D01*
X80986024Y-38196132D01*
X81005341Y-38000000D01*
X80986024Y-37803868D01*
X80928814Y-37615273D01*
X80845685Y-37459749D01*
X80831067Y-37398850D01*
X80848076Y-37338574D01*
X80892372Y-37294299D01*
X80952650Y-37277320D01*
X93815873Y-37029563D01*
X93878138Y-37044955D01*
G37*
%TD.AperFunction*%
%TA.AperFunction,Conductor*%
G36*
X131405679Y-54543047D02*
G01*
X131499343Y-54636711D01*
X131499345Y-54636713D01*
X131555396Y-54671285D01*
X131598577Y-54716392D01*
X131614300Y-54776824D01*
X131614300Y-56360865D01*
X131603677Y-56411080D01*
X131573629Y-56452692D01*
X131529304Y-56478571D01*
X131394665Y-56523186D01*
X131245342Y-56615288D01*
X131151681Y-56708950D01*
X131096094Y-56741044D01*
X131031906Y-56741044D01*
X130976319Y-56708950D01*
X130882657Y-56615288D01*
X130733334Y-56523186D01*
X130566797Y-56468000D01*
X130464009Y-56457500D01*
X129663991Y-56457500D01*
X129561203Y-56468000D01*
X129394665Y-56523186D01*
X129245342Y-56615288D01*
X129121288Y-56739342D01*
X129029186Y-56888665D01*
X128974000Y-57055202D01*
X128963500Y-57157990D01*
X128963500Y-58158008D01*
X128974000Y-58260796D01*
X129029186Y-58427334D01*
X129121286Y-58576654D01*
X129121287Y-58576655D01*
X129121288Y-58576656D01*
X129245344Y-58700712D01*
X129285398Y-58725417D01*
X129328577Y-58770523D01*
X129344300Y-58830955D01*
X129344300Y-59969970D01*
X129337954Y-60009129D01*
X129319567Y-60044281D01*
X129310454Y-60056453D01*
X129310454Y-60056454D01*
X129304141Y-60064887D01*
X129224204Y-60171669D01*
X129173909Y-60306516D01*
X129167500Y-60366131D01*
X129167500Y-60386300D01*
X129150887Y-60448300D01*
X129105500Y-60493687D01*
X129043500Y-60510300D01*
X128087062Y-60510300D01*
X128028934Y-60495831D01*
X127984371Y-60455802D01*
X127970121Y-60416891D01*
X127969534Y-60417111D01*
X127964091Y-60402517D01*
X127951340Y-60368331D01*
X127943523Y-60324999D01*
X127951342Y-60281665D01*
X127964090Y-60247485D01*
X127964089Y-60247485D01*
X127964091Y-60247483D01*
X127970500Y-60187873D01*
X127970499Y-59192128D01*
X127964091Y-59132517D01*
X127951340Y-59098330D01*
X127943523Y-59054999D01*
X127951342Y-59011665D01*
X127964090Y-58977485D01*
X127964089Y-58977485D01*
X127964091Y-58977483D01*
X127970500Y-58917873D01*
X127970499Y-57922128D01*
X127964091Y-57862517D01*
X127951340Y-57828330D01*
X127943523Y-57785000D01*
X127951342Y-57741665D01*
X127964090Y-57707485D01*
X127964089Y-57707485D01*
X127964091Y-57707483D01*
X127970500Y-57647873D01*
X127970499Y-56710028D01*
X127983564Y-56654627D01*
X128020006Y-56610899D01*
X128072146Y-56588060D01*
X128074798Y-56587573D01*
X128074800Y-56587574D01*
X128134254Y-56576678D01*
X128141622Y-56575557D01*
X128201643Y-56568270D01*
X128211208Y-56564641D01*
X128232836Y-56558611D01*
X128242890Y-56556770D01*
X128242891Y-56556769D01*
X128242893Y-56556769D01*
X128297999Y-56531968D01*
X128304913Y-56529103D01*
X128361427Y-56507671D01*
X128369839Y-56501863D01*
X128389394Y-56490834D01*
X128398725Y-56486636D01*
X128446338Y-56449331D01*
X128452310Y-56444937D01*
X128502066Y-56410595D01*
X128542156Y-56365341D01*
X128547259Y-56359921D01*
X130076363Y-54830818D01*
X130116591Y-54803938D01*
X130164044Y-54794499D01*
X130718009Y-54794499D01*
X130769402Y-54789248D01*
X130820797Y-54783999D01*
X130987334Y-54728814D01*
X131136656Y-54636712D01*
X131230320Y-54543047D01*
X131285906Y-54510955D01*
X131350094Y-54510955D01*
X131405679Y-54543047D01*
G37*
%TD.AperFunction*%
%TA.AperFunction,Conductor*%
G36*
X133557944Y-52697209D02*
G01*
X136712643Y-55851906D01*
X136717777Y-55857360D01*
X136757851Y-55902595D01*
X136807579Y-55936918D01*
X136813607Y-55941353D01*
X136861194Y-55978636D01*
X136870522Y-55982834D01*
X136890073Y-55993860D01*
X136898492Y-55999671D01*
X136946007Y-56017691D01*
X136954996Y-56021100D01*
X136961917Y-56023967D01*
X137017029Y-56048771D01*
X137027080Y-56050612D01*
X137048701Y-56056638D01*
X137058276Y-56060270D01*
X137118290Y-56067556D01*
X137125658Y-56068677D01*
X137185119Y-56079574D01*
X137203805Y-56078443D01*
X137265198Y-56090548D01*
X137312865Y-56131093D01*
X137391504Y-56243400D01*
X137513430Y-56365326D01*
X137544726Y-56418072D01*
X137546915Y-56479365D01*
X137519462Y-56534209D01*
X137469083Y-56569189D01*
X137337669Y-56618204D01*
X137222454Y-56704454D01*
X137136204Y-56819668D01*
X137085909Y-56954516D01*
X137079500Y-57014131D01*
X137079500Y-57080065D01*
X137066435Y-57135468D01*
X137029992Y-57179196D01*
X136977851Y-57202034D01*
X136905371Y-57215316D01*
X136897968Y-57216443D01*
X136837953Y-57223730D01*
X136828379Y-57227361D01*
X136806771Y-57233384D01*
X136796712Y-57235227D01*
X136741601Y-57260031D01*
X136734683Y-57262896D01*
X136678171Y-57284329D01*
X136669751Y-57290141D01*
X136650215Y-57301159D01*
X136640876Y-57305362D01*
X136593287Y-57342645D01*
X136587258Y-57347082D01*
X136537530Y-57381407D01*
X136497458Y-57426638D01*
X136492326Y-57432090D01*
X134740460Y-59183956D01*
X134680024Y-59217245D01*
X134611152Y-59213079D01*
X134555169Y-59172749D01*
X134528952Y-59139286D01*
X134524523Y-59133267D01*
X134490195Y-59083534D01*
X134444959Y-59043458D01*
X134439506Y-59038324D01*
X133200818Y-57799636D01*
X133173938Y-57759408D01*
X133164499Y-57711955D01*
X133164499Y-57157991D01*
X133153999Y-57055203D01*
X133140388Y-57014127D01*
X133098814Y-56888666D01*
X133064000Y-56832223D01*
X133040161Y-56793573D01*
X133021700Y-56728477D01*
X133021700Y-54776824D01*
X133037423Y-54716392D01*
X133080604Y-54671285D01*
X133088030Y-54666704D01*
X133136656Y-54636712D01*
X133260712Y-54512656D01*
X133352814Y-54363334D01*
X133407999Y-54196797D01*
X133418500Y-54094009D01*
X133418499Y-53093992D01*
X133407999Y-52991203D01*
X133352814Y-52824666D01*
X133352810Y-52824660D01*
X133352557Y-52823895D01*
X133349125Y-52758405D01*
X133379575Y-52700323D01*
X133435391Y-52665895D01*
X133500961Y-52664750D01*
X133557944Y-52697209D01*
G37*
%TD.AperFunction*%
%TA.AperFunction,Conductor*%
G36*
X135119112Y-47957139D02*
G01*
X135159340Y-47984019D01*
X135169027Y-47993706D01*
X135174161Y-47999160D01*
X135214235Y-48044395D01*
X135263963Y-48078718D01*
X135269991Y-48083153D01*
X135317578Y-48120436D01*
X135326899Y-48124631D01*
X135326906Y-48124634D01*
X135346457Y-48135660D01*
X135354876Y-48141471D01*
X135402391Y-48159491D01*
X135411380Y-48162900D01*
X135418301Y-48165767D01*
X135455844Y-48182663D01*
X135473413Y-48190571D01*
X135483464Y-48192412D01*
X135505085Y-48198438D01*
X135514660Y-48202070D01*
X135574674Y-48209356D01*
X135582042Y-48210477D01*
X135641503Y-48221374D01*
X135701817Y-48217725D01*
X135709303Y-48217500D01*
X136324697Y-48217500D01*
X136332182Y-48217725D01*
X136392497Y-48221374D01*
X136451955Y-48210477D01*
X136459319Y-48209357D01*
X136519340Y-48202070D01*
X136528905Y-48198441D01*
X136550533Y-48192411D01*
X136560587Y-48190570D01*
X136560588Y-48190569D01*
X136560590Y-48190569D01*
X136615696Y-48165768D01*
X136622610Y-48162903D01*
X136679124Y-48141471D01*
X136687536Y-48135663D01*
X136707091Y-48124634D01*
X136716422Y-48120436D01*
X136764035Y-48083131D01*
X136770007Y-48078737D01*
X136819763Y-48044395D01*
X136859854Y-47999139D01*
X136864943Y-47993735D01*
X136874666Y-47984011D01*
X136914890Y-47957138D01*
X136962340Y-47947700D01*
X139357156Y-47947700D01*
X139404609Y-47957139D01*
X139444837Y-47984019D01*
X140483981Y-49023163D01*
X140510861Y-49063391D01*
X140520300Y-49110844D01*
X140520300Y-57084300D01*
X140503687Y-57146300D01*
X140458300Y-57191687D01*
X140396300Y-57208300D01*
X139904499Y-57208300D01*
X139842499Y-57191687D01*
X139797112Y-57146300D01*
X139780499Y-57084300D01*
X139780499Y-57014130D01*
X139780499Y-57014127D01*
X139774091Y-56954517D01*
X139723796Y-56819669D01*
X139637546Y-56704454D01*
X139522331Y-56618204D01*
X139427821Y-56582954D01*
X139390916Y-56569189D01*
X139340537Y-56534209D01*
X139313084Y-56479365D01*
X139315273Y-56418072D01*
X139346566Y-56365329D01*
X139468495Y-56243401D01*
X139604035Y-56049830D01*
X139703903Y-55835663D01*
X139765063Y-55607408D01*
X139785659Y-55372000D01*
X139778338Y-55288328D01*
X139765063Y-55136592D01*
X139729297Y-55003110D01*
X139703903Y-54908337D01*
X139604035Y-54694171D01*
X139468495Y-54500599D01*
X139301401Y-54333505D01*
X139115839Y-54203573D01*
X139076975Y-54159257D01*
X139062964Y-54102000D01*
X139076975Y-54044743D01*
X139115839Y-54000426D01*
X139301401Y-53870495D01*
X139468495Y-53703401D01*
X139604035Y-53509830D01*
X139703903Y-53295663D01*
X139765063Y-53067408D01*
X139785659Y-52832000D01*
X139765063Y-52596592D01*
X139703903Y-52368337D01*
X139604035Y-52154171D01*
X139468495Y-51960599D01*
X139301401Y-51793505D01*
X139115402Y-51663267D01*
X139076539Y-51618951D01*
X139062528Y-51561694D01*
X139076539Y-51504437D01*
X139115405Y-51460119D01*
X139301078Y-51330109D01*
X139468106Y-51163081D01*
X139603600Y-50969576D01*
X139703430Y-50755492D01*
X139760636Y-50542000D01*
X137099364Y-50542000D01*
X137156569Y-50755492D01*
X137256399Y-50969576D01*
X137391893Y-51163081D01*
X137558918Y-51330106D01*
X137744595Y-51460119D01*
X137783460Y-51504437D01*
X137797471Y-51561694D01*
X137783460Y-51618951D01*
X137744595Y-51663269D01*
X137558595Y-51793508D01*
X137391505Y-51960598D01*
X137311105Y-52075423D01*
X137266787Y-52114289D01*
X137209530Y-52128300D01*
X136756844Y-52128300D01*
X136709391Y-52118861D01*
X136669163Y-52091981D01*
X134619182Y-50042000D01*
X137099364Y-50042000D01*
X138180000Y-50042000D01*
X138180000Y-48961364D01*
X138680000Y-48961364D01*
X138680000Y-50042000D01*
X139760636Y-50042000D01*
X139760635Y-50041999D01*
X139703430Y-49828507D01*
X139603599Y-49614421D01*
X139468109Y-49420921D01*
X139301081Y-49253893D01*
X139107576Y-49118399D01*
X138893492Y-49018569D01*
X138680000Y-48961364D01*
X138180000Y-48961364D01*
X138179999Y-48961364D01*
X137966507Y-49018569D01*
X137752421Y-49118400D01*
X137558921Y-49253890D01*
X137391890Y-49420921D01*
X137256400Y-49614421D01*
X137156569Y-49828507D01*
X137099364Y-50041999D01*
X137099364Y-50042000D01*
X134619182Y-50042000D01*
X133225139Y-48647957D01*
X133191858Y-48587554D01*
X133195993Y-48518713D01*
X133236267Y-48462728D01*
X133300219Y-48436918D01*
X133328797Y-48433999D01*
X133495334Y-48378814D01*
X133644656Y-48286712D01*
X133768712Y-48162656D01*
X133860814Y-48013334D01*
X133860814Y-48013333D01*
X133864965Y-48006604D01*
X133910072Y-47963423D01*
X133970504Y-47947700D01*
X135071659Y-47947700D01*
X135119112Y-47957139D01*
G37*
%TD.AperFunction*%
%TA.AperFunction,Conductor*%
G36*
X131090527Y-50243139D02*
G01*
X131130755Y-50270019D01*
X131454410Y-50593674D01*
X131454415Y-50593680D01*
X133114790Y-52254055D01*
X133147249Y-52311038D01*
X133146104Y-52376608D01*
X133111676Y-52432424D01*
X133053594Y-52462874D01*
X132988105Y-52459442D01*
X132987335Y-52459187D01*
X132987334Y-52459186D01*
X132906572Y-52432424D01*
X132820797Y-52404000D01*
X132718009Y-52393500D01*
X131917991Y-52393500D01*
X131815203Y-52404000D01*
X131648665Y-52459186D01*
X131499342Y-52551288D01*
X131405681Y-52644950D01*
X131350094Y-52677044D01*
X131285906Y-52677044D01*
X131230319Y-52644950D01*
X131136657Y-52551288D01*
X130987334Y-52459186D01*
X130820797Y-52404000D01*
X130718009Y-52393500D01*
X129917991Y-52393500D01*
X129815203Y-52404000D01*
X129648665Y-52459186D01*
X129499342Y-52551288D01*
X129375288Y-52675342D01*
X129283186Y-52824665D01*
X129228000Y-52991202D01*
X129217500Y-53093991D01*
X129217500Y-53647955D01*
X129208061Y-53695408D01*
X129181181Y-53735636D01*
X128182180Y-54734637D01*
X128132817Y-54764887D01*
X128075101Y-54769429D01*
X128021614Y-54747274D01*
X127984014Y-54703251D01*
X127970499Y-54646956D01*
X127970499Y-54112130D01*
X127968551Y-54094009D01*
X127964091Y-54052517D01*
X127951340Y-54018331D01*
X127943523Y-53975000D01*
X127951342Y-53931665D01*
X127964090Y-53897485D01*
X127964089Y-53897485D01*
X127964091Y-53897483D01*
X127970500Y-53837873D01*
X127970499Y-52842128D01*
X127964091Y-52782517D01*
X127951340Y-52748330D01*
X127943523Y-52705000D01*
X127951342Y-52661665D01*
X127964090Y-52627485D01*
X127964089Y-52627485D01*
X127964091Y-52627483D01*
X127970500Y-52567873D01*
X127970499Y-51572128D01*
X127964091Y-51512517D01*
X127951340Y-51478331D01*
X127943523Y-51434999D01*
X127951342Y-51391665D01*
X127964090Y-51357485D01*
X127964089Y-51357485D01*
X127964091Y-51357483D01*
X127970500Y-51297873D01*
X127970499Y-50357699D01*
X127987112Y-50295700D01*
X128032499Y-50250313D01*
X128094499Y-50233700D01*
X131043074Y-50233700D01*
X131090527Y-50243139D01*
G37*
%TD.AperFunction*%
%TA.AperFunction,Conductor*%
G36*
X136225105Y-46438608D02*
G01*
X136269879Y-46479748D01*
X136289713Y-46537227D01*
X136279837Y-46597224D01*
X136242626Y-46645313D01*
X136205183Y-46674646D01*
X136199155Y-46679082D01*
X136149429Y-46713405D01*
X136109812Y-46758123D01*
X136051496Y-46794998D01*
X135982499Y-46794997D01*
X135924184Y-46758121D01*
X135884568Y-46713404D01*
X135834850Y-46679087D01*
X135828816Y-46674647D01*
X135791371Y-46645310D01*
X135754162Y-46597220D01*
X135744288Y-46537224D01*
X135764123Y-46479746D01*
X135808897Y-46438608D01*
X135867845Y-46423700D01*
X136166156Y-46423700D01*
X136225105Y-46438608D01*
G37*
%TD.AperFunction*%
%TD*%
M02*
