%TF.GenerationSoftware,KiCad,Pcbnew,7.0.1*%
%TF.CreationDate,2023-04-20T22:59:21+02:00*%
%TF.ProjectId,Laserdinges,4c617365-7264-4696-9e67-65732e6b6963,rev?*%
%TF.SameCoordinates,Original*%
%TF.FileFunction,Soldermask,Top*%
%TF.FilePolarity,Negative*%
%FSLAX46Y46*%
G04 Gerber Fmt 4.6, Leading zero omitted, Abs format (unit mm)*
G04 Created by KiCad (PCBNEW 7.0.1) date 2023-04-20 22:59:21*
%MOMM*%
%LPD*%
G01*
G04 APERTURE LIST*
G04 Aperture macros list*
%AMRoundRect*
0 Rectangle with rounded corners*
0 $1 Rounding radius*
0 $2 $3 $4 $5 $6 $7 $8 $9 X,Y pos of 4 corners*
0 Add a 4 corners polygon primitive as box body*
4,1,4,$2,$3,$4,$5,$6,$7,$8,$9,$2,$3,0*
0 Add four circle primitives for the rounded corners*
1,1,$1+$1,$2,$3*
1,1,$1+$1,$4,$5*
1,1,$1+$1,$6,$7*
1,1,$1+$1,$8,$9*
0 Add four rect primitives between the rounded corners*
20,1,$1+$1,$2,$3,$4,$5,0*
20,1,$1+$1,$4,$5,$6,$7,0*
20,1,$1+$1,$6,$7,$8,$9,0*
20,1,$1+$1,$8,$9,$2,$3,0*%
G04 Aperture macros list end*
%ADD10C,2.032000*%
%ADD11RoundRect,0.250000X-0.450000X0.350000X-0.450000X-0.350000X0.450000X-0.350000X0.450000X0.350000X0*%
%ADD12RoundRect,0.250000X0.350000X0.450000X-0.350000X0.450000X-0.350000X-0.450000X0.350000X-0.450000X0*%
%ADD13R,0.760000X1.600000*%
%ADD14RoundRect,0.250000X0.475000X-0.337500X0.475000X0.337500X-0.475000X0.337500X-0.475000X-0.337500X0*%
%ADD15RoundRect,0.250000X0.450000X-0.350000X0.450000X0.350000X-0.450000X0.350000X-0.450000X-0.350000X0*%
%ADD16R,1.500000X2.000000*%
%ADD17R,3.800000X2.000000*%
%ADD18R,1.700000X1.700000*%
%ADD19O,1.700000X1.700000*%
%ADD20RoundRect,0.250000X0.337500X0.475000X-0.337500X0.475000X-0.337500X-0.475000X0.337500X-0.475000X0*%
%ADD21R,2.000000X4.600000*%
%ADD22O,2.000000X4.200000*%
%ADD23O,4.200000X2.000000*%
%ADD24RoundRect,0.250000X0.450000X-0.325000X0.450000X0.325000X-0.450000X0.325000X-0.450000X-0.325000X0*%
%ADD25RoundRect,0.250000X-0.475000X0.337500X-0.475000X-0.337500X0.475000X-0.337500X0.475000X0.337500X0*%
%ADD26R,1.500000X0.900000*%
%ADD27R,0.900000X1.500000*%
%ADD28C,0.600000*%
%ADD29R,4.200000X4.200000*%
%ADD30RoundRect,0.250000X-0.350000X-0.450000X0.350000X-0.450000X0.350000X0.450000X-0.350000X0.450000X0*%
G04 APERTURE END LIST*
D10*
%TO.C,U4*%
X84032800Y-83992400D03*
X86572800Y-83992400D03*
X94700800Y-83992400D03*
X97240800Y-83992400D03*
X97240800Y-65450400D03*
X94700800Y-65450400D03*
X86572800Y-65450400D03*
X84032800Y-65450400D03*
%TD*%
D11*
%TO.C,R9*%
X128330400Y-101010400D03*
X128330400Y-103010400D03*
%TD*%
%TO.C,R10*%
X124469600Y-96378200D03*
X124469600Y-98378200D03*
%TD*%
D12*
%TO.C,R6*%
X128924000Y-75508800D03*
X126924000Y-75508800D03*
%TD*%
D13*
%TO.C,SW1*%
X105191000Y-85567200D03*
X105191000Y-93187200D03*
%TD*%
D14*
%TO.C,C2*%
X102498600Y-94017600D03*
X102498600Y-91942600D03*
%TD*%
D15*
%TO.C,R4*%
X109255000Y-87557800D03*
X109255000Y-85557800D03*
%TD*%
D16*
%TO.C,U2*%
X95321800Y-93823000D03*
X97621800Y-93823000D03*
D17*
X97621800Y-87523000D03*
D16*
X99921800Y-93823000D03*
%TD*%
D18*
%TO.C,SW5*%
X114554000Y-98552000D03*
D19*
X114554000Y-101092000D03*
%TD*%
D18*
%TO.C,U3*%
X132334000Y-91948000D03*
D19*
X132334000Y-94488000D03*
X132334000Y-97028000D03*
X132334000Y-99568000D03*
X132334000Y-102108000D03*
%TD*%
D20*
%TO.C,C1*%
X102879600Y-65450400D03*
X100804600Y-65450400D03*
%TD*%
D11*
%TO.C,R11*%
X124469600Y-100696200D03*
X124469600Y-102696200D03*
%TD*%
D18*
%TO.C,SW3*%
X105902200Y-100838000D03*
D19*
X105902200Y-98298000D03*
%TD*%
D11*
%TO.C,R8*%
X128330400Y-96692400D03*
X128330400Y-98692400D03*
%TD*%
D13*
%TO.C,SW2*%
X123225000Y-93085600D03*
X123225000Y-85465600D03*
%TD*%
D18*
%TO.C,SW4*%
X110169400Y-98791200D03*
D19*
X110169400Y-101331200D03*
%TD*%
D21*
%TO.C,J2*%
X86928400Y-91460000D03*
D22*
X80628400Y-91460000D03*
D23*
X84028400Y-96260000D03*
%TD*%
D15*
%TO.C,R7*%
X114716000Y-87456200D03*
X114716000Y-85456200D03*
%TD*%
D14*
%TO.C,C4*%
X89519200Y-94402500D03*
X89519200Y-92327500D03*
%TD*%
D18*
%TO.C,SW6*%
X119126000Y-98552000D03*
D19*
X119126000Y-101092000D03*
%TD*%
D18*
%TO.C,U5*%
X99279400Y-101112000D03*
D19*
X101819400Y-101112000D03*
%TD*%
D18*
%TO.C,J1*%
X132842000Y-76454000D03*
D19*
X132842000Y-73914000D03*
X132842000Y-71374000D03*
X132842000Y-68834000D03*
%TD*%
D15*
%TO.C,R3*%
X119719800Y-87237000D03*
X119719800Y-85237000D03*
%TD*%
D24*
%TO.C,D2*%
X111642600Y-87455800D03*
X111642600Y-85405800D03*
%TD*%
D12*
%TO.C,R2*%
X129152600Y-81020600D03*
X127152600Y-81020600D03*
%TD*%
D24*
%TO.C,D1*%
X117154400Y-87490200D03*
X117154400Y-85440200D03*
%TD*%
D25*
%TO.C,C3*%
X92491000Y-92120400D03*
X92491000Y-94195400D03*
%TD*%
D26*
%TO.C,U1*%
X105164000Y-64632600D03*
X105164000Y-65902600D03*
X105164000Y-67172600D03*
X105164000Y-68442600D03*
X105164000Y-69712600D03*
X105164000Y-70982600D03*
X105164000Y-72252600D03*
X105164000Y-73522600D03*
X105164000Y-74792600D03*
X105164000Y-76062600D03*
X105164000Y-77332600D03*
X105164000Y-78602600D03*
X105164000Y-79872600D03*
X105164000Y-81142600D03*
D27*
X108204000Y-82392600D03*
X109474000Y-82392600D03*
X110744000Y-82392600D03*
X112014000Y-82392600D03*
X113284000Y-82392600D03*
X114554000Y-82392600D03*
X115824000Y-82392600D03*
X117094000Y-82392600D03*
X118364000Y-82392600D03*
X119634000Y-82392600D03*
D26*
X122664000Y-81142600D03*
X122664000Y-79872600D03*
X122664000Y-78602600D03*
X122664000Y-77332600D03*
X122664000Y-76062600D03*
X122664000Y-74792600D03*
X122664000Y-73522600D03*
X122664000Y-72252600D03*
X122664000Y-70982600D03*
X122664000Y-69712600D03*
X122664000Y-68442600D03*
X122664000Y-67172600D03*
X122664000Y-65902600D03*
X122664000Y-64632600D03*
D28*
X111709000Y-71210100D03*
X111709000Y-72735100D03*
X112471500Y-70447600D03*
X112471500Y-71972600D03*
X112471500Y-73497600D03*
X113234000Y-71210100D03*
D29*
X113234000Y-71972600D03*
D28*
X113234000Y-72735100D03*
X113996500Y-70447600D03*
X113996500Y-71972600D03*
X113996500Y-73497600D03*
X114759000Y-71210100D03*
X114759000Y-72735100D03*
%TD*%
D30*
%TO.C,R1*%
X100879600Y-68879400D03*
X102879600Y-68879400D03*
%TD*%
D12*
%TO.C,R5*%
X128898600Y-66999800D03*
X126898600Y-66999800D03*
%TD*%
M02*
