%TF.GenerationSoftware,KiCad,Pcbnew,7.0.1*%
%TF.CreationDate,2023-04-20T22:59:21+02:00*%
%TF.ProjectId,Laserdinges,4c617365-7264-4696-9e67-65732e6b6963,rev?*%
%TF.SameCoordinates,Original*%
%TF.FileFunction,Legend,Top*%
%TF.FilePolarity,Positive*%
%FSLAX46Y46*%
G04 Gerber Fmt 4.6, Leading zero omitted, Abs format (unit mm)*
G04 Created by KiCad (PCBNEW 7.0.1) date 2023-04-20 22:59:21*
%MOMM*%
%LPD*%
G01*
G04 APERTURE LIST*
%ADD10C,0.150000*%
%ADD11C,0.120000*%
G04 APERTURE END LIST*
D10*
X108076952Y-101768761D02*
X108076952Y-100625904D01*
X112394952Y-101768761D02*
X112394952Y-100625904D01*
X116712952Y-101768761D02*
X116712952Y-100625904D01*
X121538952Y-101768761D02*
X121538952Y-100625904D01*
X108000761Y-98708095D02*
X107924571Y-98670000D01*
X107924571Y-98670000D02*
X107886476Y-98631904D01*
X107886476Y-98631904D02*
X107848380Y-98555714D01*
X107848380Y-98555714D02*
X107848380Y-98327142D01*
X107848380Y-98327142D02*
X107886476Y-98250952D01*
X107886476Y-98250952D02*
X107924571Y-98212857D01*
X107924571Y-98212857D02*
X108000761Y-98174761D01*
X108000761Y-98174761D02*
X108115047Y-98174761D01*
X108115047Y-98174761D02*
X108191238Y-98212857D01*
X108191238Y-98212857D02*
X108229333Y-98250952D01*
X108229333Y-98250952D02*
X108267428Y-98327142D01*
X108267428Y-98327142D02*
X108267428Y-98555714D01*
X108267428Y-98555714D02*
X108229333Y-98631904D01*
X108229333Y-98631904D02*
X108191238Y-98670000D01*
X108191238Y-98670000D02*
X108115047Y-98708095D01*
X108115047Y-98708095D02*
X108000761Y-98708095D01*
X112318761Y-98708095D02*
X112242571Y-98670000D01*
X112242571Y-98670000D02*
X112204476Y-98631904D01*
X112204476Y-98631904D02*
X112166380Y-98555714D01*
X112166380Y-98555714D02*
X112166380Y-98327142D01*
X112166380Y-98327142D02*
X112204476Y-98250952D01*
X112204476Y-98250952D02*
X112242571Y-98212857D01*
X112242571Y-98212857D02*
X112318761Y-98174761D01*
X112318761Y-98174761D02*
X112433047Y-98174761D01*
X112433047Y-98174761D02*
X112509238Y-98212857D01*
X112509238Y-98212857D02*
X112547333Y-98250952D01*
X112547333Y-98250952D02*
X112585428Y-98327142D01*
X112585428Y-98327142D02*
X112585428Y-98555714D01*
X112585428Y-98555714D02*
X112547333Y-98631904D01*
X112547333Y-98631904D02*
X112509238Y-98670000D01*
X112509238Y-98670000D02*
X112433047Y-98708095D01*
X112433047Y-98708095D02*
X112318761Y-98708095D01*
X116636761Y-98708095D02*
X116560571Y-98670000D01*
X116560571Y-98670000D02*
X116522476Y-98631904D01*
X116522476Y-98631904D02*
X116484380Y-98555714D01*
X116484380Y-98555714D02*
X116484380Y-98327142D01*
X116484380Y-98327142D02*
X116522476Y-98250952D01*
X116522476Y-98250952D02*
X116560571Y-98212857D01*
X116560571Y-98212857D02*
X116636761Y-98174761D01*
X116636761Y-98174761D02*
X116751047Y-98174761D01*
X116751047Y-98174761D02*
X116827238Y-98212857D01*
X116827238Y-98212857D02*
X116865333Y-98250952D01*
X116865333Y-98250952D02*
X116903428Y-98327142D01*
X116903428Y-98327142D02*
X116903428Y-98555714D01*
X116903428Y-98555714D02*
X116865333Y-98631904D01*
X116865333Y-98631904D02*
X116827238Y-98670000D01*
X116827238Y-98670000D02*
X116751047Y-98708095D01*
X116751047Y-98708095D02*
X116636761Y-98708095D01*
X121462761Y-98708095D02*
X121386571Y-98670000D01*
X121386571Y-98670000D02*
X121348476Y-98631904D01*
X121348476Y-98631904D02*
X121310380Y-98555714D01*
X121310380Y-98555714D02*
X121310380Y-98327142D01*
X121310380Y-98327142D02*
X121348476Y-98250952D01*
X121348476Y-98250952D02*
X121386571Y-98212857D01*
X121386571Y-98212857D02*
X121462761Y-98174761D01*
X121462761Y-98174761D02*
X121577047Y-98174761D01*
X121577047Y-98174761D02*
X121653238Y-98212857D01*
X121653238Y-98212857D02*
X121691333Y-98250952D01*
X121691333Y-98250952D02*
X121729428Y-98327142D01*
X121729428Y-98327142D02*
X121729428Y-98555714D01*
X121729428Y-98555714D02*
X121691333Y-98631904D01*
X121691333Y-98631904D02*
X121653238Y-98670000D01*
X121653238Y-98670000D02*
X121577047Y-98708095D01*
X121577047Y-98708095D02*
X121462761Y-98708095D01*
X134715238Y-93873619D02*
X135048571Y-94873619D01*
X135048571Y-94873619D02*
X135381904Y-93873619D01*
X135715238Y-94873619D02*
X135715238Y-93873619D01*
X135715238Y-93873619D02*
X135953333Y-93873619D01*
X135953333Y-93873619D02*
X136096190Y-93921238D01*
X136096190Y-93921238D02*
X136191428Y-94016476D01*
X136191428Y-94016476D02*
X136239047Y-94111714D01*
X136239047Y-94111714D02*
X136286666Y-94302190D01*
X136286666Y-94302190D02*
X136286666Y-94445047D01*
X136286666Y-94445047D02*
X136239047Y-94635523D01*
X136239047Y-94635523D02*
X136191428Y-94730761D01*
X136191428Y-94730761D02*
X136096190Y-94826000D01*
X136096190Y-94826000D02*
X135953333Y-94873619D01*
X135953333Y-94873619D02*
X135715238Y-94873619D01*
X136715238Y-94873619D02*
X136715238Y-93873619D01*
X136715238Y-93873619D02*
X136953333Y-93873619D01*
X136953333Y-93873619D02*
X137096190Y-93921238D01*
X137096190Y-93921238D02*
X137191428Y-94016476D01*
X137191428Y-94016476D02*
X137239047Y-94111714D01*
X137239047Y-94111714D02*
X137286666Y-94302190D01*
X137286666Y-94302190D02*
X137286666Y-94445047D01*
X137286666Y-94445047D02*
X137239047Y-94635523D01*
X137239047Y-94635523D02*
X137191428Y-94730761D01*
X137191428Y-94730761D02*
X137096190Y-94826000D01*
X137096190Y-94826000D02*
X136953333Y-94873619D01*
X136953333Y-94873619D02*
X136715238Y-94873619D01*
X101536476Y-103970000D02*
X101679333Y-104017619D01*
X101679333Y-104017619D02*
X101917428Y-104017619D01*
X101917428Y-104017619D02*
X102012666Y-103970000D01*
X102012666Y-103970000D02*
X102060285Y-103922380D01*
X102060285Y-103922380D02*
X102107904Y-103827142D01*
X102107904Y-103827142D02*
X102107904Y-103731904D01*
X102107904Y-103731904D02*
X102060285Y-103636666D01*
X102060285Y-103636666D02*
X102012666Y-103589047D01*
X102012666Y-103589047D02*
X101917428Y-103541428D01*
X101917428Y-103541428D02*
X101726952Y-103493809D01*
X101726952Y-103493809D02*
X101631714Y-103446190D01*
X101631714Y-103446190D02*
X101584095Y-103398571D01*
X101584095Y-103398571D02*
X101536476Y-103303333D01*
X101536476Y-103303333D02*
X101536476Y-103208095D01*
X101536476Y-103208095D02*
X101584095Y-103112857D01*
X101584095Y-103112857D02*
X101631714Y-103065238D01*
X101631714Y-103065238D02*
X101726952Y-103017619D01*
X101726952Y-103017619D02*
X101965047Y-103017619D01*
X101965047Y-103017619D02*
X102107904Y-103065238D01*
X134762857Y-75839619D02*
X135381904Y-75839619D01*
X135381904Y-75839619D02*
X135048571Y-76220571D01*
X135048571Y-76220571D02*
X135191428Y-76220571D01*
X135191428Y-76220571D02*
X135286666Y-76268190D01*
X135286666Y-76268190D02*
X135334285Y-76315809D01*
X135334285Y-76315809D02*
X135381904Y-76411047D01*
X135381904Y-76411047D02*
X135381904Y-76649142D01*
X135381904Y-76649142D02*
X135334285Y-76744380D01*
X135334285Y-76744380D02*
X135286666Y-76792000D01*
X135286666Y-76792000D02*
X135191428Y-76839619D01*
X135191428Y-76839619D02*
X134905714Y-76839619D01*
X134905714Y-76839619D02*
X134810476Y-76792000D01*
X134810476Y-76792000D02*
X134762857Y-76744380D01*
X135810476Y-76744380D02*
X135858095Y-76792000D01*
X135858095Y-76792000D02*
X135810476Y-76839619D01*
X135810476Y-76839619D02*
X135762857Y-76792000D01*
X135762857Y-76792000D02*
X135810476Y-76744380D01*
X135810476Y-76744380D02*
X135810476Y-76839619D01*
X136191428Y-75839619D02*
X136810475Y-75839619D01*
X136810475Y-75839619D02*
X136477142Y-76220571D01*
X136477142Y-76220571D02*
X136619999Y-76220571D01*
X136619999Y-76220571D02*
X136715237Y-76268190D01*
X136715237Y-76268190D02*
X136762856Y-76315809D01*
X136762856Y-76315809D02*
X136810475Y-76411047D01*
X136810475Y-76411047D02*
X136810475Y-76649142D01*
X136810475Y-76649142D02*
X136762856Y-76744380D01*
X136762856Y-76744380D02*
X136715237Y-76792000D01*
X136715237Y-76792000D02*
X136619999Y-76839619D01*
X136619999Y-76839619D02*
X136334285Y-76839619D01*
X136334285Y-76839619D02*
X136239047Y-76792000D01*
X136239047Y-76792000D02*
X136191428Y-76744380D01*
X137096190Y-75839619D02*
X137429523Y-76839619D01*
X137429523Y-76839619D02*
X137762856Y-75839619D01*
X97601019Y-102813847D02*
X97553400Y-102909085D01*
X97553400Y-102909085D02*
X97458161Y-102956704D01*
X97458161Y-102956704D02*
X96601019Y-102956704D01*
X97601019Y-102004323D02*
X97077209Y-102004323D01*
X97077209Y-102004323D02*
X96981971Y-102051942D01*
X96981971Y-102051942D02*
X96934352Y-102147180D01*
X96934352Y-102147180D02*
X96934352Y-102337656D01*
X96934352Y-102337656D02*
X96981971Y-102432894D01*
X97553400Y-102004323D02*
X97601019Y-102099561D01*
X97601019Y-102099561D02*
X97601019Y-102337656D01*
X97601019Y-102337656D02*
X97553400Y-102432894D01*
X97553400Y-102432894D02*
X97458161Y-102480513D01*
X97458161Y-102480513D02*
X97362923Y-102480513D01*
X97362923Y-102480513D02*
X97267685Y-102432894D01*
X97267685Y-102432894D02*
X97220066Y-102337656D01*
X97220066Y-102337656D02*
X97220066Y-102099561D01*
X97220066Y-102099561D02*
X97172447Y-102004323D01*
X97553400Y-101575751D02*
X97601019Y-101480513D01*
X97601019Y-101480513D02*
X97601019Y-101290037D01*
X97601019Y-101290037D02*
X97553400Y-101194799D01*
X97553400Y-101194799D02*
X97458161Y-101147180D01*
X97458161Y-101147180D02*
X97410542Y-101147180D01*
X97410542Y-101147180D02*
X97315304Y-101194799D01*
X97315304Y-101194799D02*
X97267685Y-101290037D01*
X97267685Y-101290037D02*
X97267685Y-101432894D01*
X97267685Y-101432894D02*
X97220066Y-101528132D01*
X97220066Y-101528132D02*
X97124828Y-101575751D01*
X97124828Y-101575751D02*
X97077209Y-101575751D01*
X97077209Y-101575751D02*
X96981971Y-101528132D01*
X96981971Y-101528132D02*
X96934352Y-101432894D01*
X96934352Y-101432894D02*
X96934352Y-101290037D01*
X96934352Y-101290037D02*
X96981971Y-101194799D01*
X97553400Y-100337656D02*
X97601019Y-100432894D01*
X97601019Y-100432894D02*
X97601019Y-100623370D01*
X97601019Y-100623370D02*
X97553400Y-100718608D01*
X97553400Y-100718608D02*
X97458161Y-100766227D01*
X97458161Y-100766227D02*
X97077209Y-100766227D01*
X97077209Y-100766227D02*
X96981971Y-100718608D01*
X96981971Y-100718608D02*
X96934352Y-100623370D01*
X96934352Y-100623370D02*
X96934352Y-100432894D01*
X96934352Y-100432894D02*
X96981971Y-100337656D01*
X96981971Y-100337656D02*
X97077209Y-100290037D01*
X97077209Y-100290037D02*
X97172447Y-100290037D01*
X97172447Y-100290037D02*
X97267685Y-100766227D01*
X97601019Y-99861465D02*
X96934352Y-99861465D01*
X97124828Y-99861465D02*
X97029590Y-99813846D01*
X97029590Y-99813846D02*
X96981971Y-99766227D01*
X96981971Y-99766227D02*
X96934352Y-99670989D01*
X96934352Y-99670989D02*
X96934352Y-99575751D01*
X98364666Y-103350952D02*
X98364666Y-104160476D01*
X98364666Y-104160476D02*
X98317047Y-104255714D01*
X98317047Y-104255714D02*
X98269428Y-104303333D01*
X98269428Y-104303333D02*
X98174190Y-104350952D01*
X98174190Y-104350952D02*
X98031333Y-104350952D01*
X98031333Y-104350952D02*
X97936095Y-104303333D01*
X98364666Y-103970000D02*
X98269428Y-104017619D01*
X98269428Y-104017619D02*
X98078952Y-104017619D01*
X98078952Y-104017619D02*
X97983714Y-103970000D01*
X97983714Y-103970000D02*
X97936095Y-103922380D01*
X97936095Y-103922380D02*
X97888476Y-103827142D01*
X97888476Y-103827142D02*
X97888476Y-103541428D01*
X97888476Y-103541428D02*
X97936095Y-103446190D01*
X97936095Y-103446190D02*
X97983714Y-103398571D01*
X97983714Y-103398571D02*
X98078952Y-103350952D01*
X98078952Y-103350952D02*
X98269428Y-103350952D01*
X98269428Y-103350952D02*
X98364666Y-103398571D01*
X98840857Y-103350952D02*
X98840857Y-104017619D01*
X98840857Y-103446190D02*
X98888476Y-103398571D01*
X98888476Y-103398571D02*
X98983714Y-103350952D01*
X98983714Y-103350952D02*
X99126571Y-103350952D01*
X99126571Y-103350952D02*
X99221809Y-103398571D01*
X99221809Y-103398571D02*
X99269428Y-103493809D01*
X99269428Y-103493809D02*
X99269428Y-104017619D01*
X100174190Y-104017619D02*
X100174190Y-103017619D01*
X100174190Y-103970000D02*
X100078952Y-104017619D01*
X100078952Y-104017619D02*
X99888476Y-104017619D01*
X99888476Y-104017619D02*
X99793238Y-103970000D01*
X99793238Y-103970000D02*
X99745619Y-103922380D01*
X99745619Y-103922380D02*
X99698000Y-103827142D01*
X99698000Y-103827142D02*
X99698000Y-103541428D01*
X99698000Y-103541428D02*
X99745619Y-103446190D01*
X99745619Y-103446190D02*
X99793238Y-103398571D01*
X99793238Y-103398571D02*
X99888476Y-103350952D01*
X99888476Y-103350952D02*
X100078952Y-103350952D01*
X100078952Y-103350952D02*
X100174190Y-103398571D01*
X130063809Y-88793619D02*
X130063809Y-89507904D01*
X130063809Y-89507904D02*
X130016190Y-89650761D01*
X130016190Y-89650761D02*
X129920952Y-89746000D01*
X129920952Y-89746000D02*
X129778095Y-89793619D01*
X129778095Y-89793619D02*
X129682857Y-89793619D01*
X130682857Y-89793619D02*
X130587619Y-89746000D01*
X130587619Y-89746000D02*
X130540000Y-89698380D01*
X130540000Y-89698380D02*
X130492381Y-89603142D01*
X130492381Y-89603142D02*
X130492381Y-89317428D01*
X130492381Y-89317428D02*
X130540000Y-89222190D01*
X130540000Y-89222190D02*
X130587619Y-89174571D01*
X130587619Y-89174571D02*
X130682857Y-89126952D01*
X130682857Y-89126952D02*
X130825714Y-89126952D01*
X130825714Y-89126952D02*
X130920952Y-89174571D01*
X130920952Y-89174571D02*
X130968571Y-89222190D01*
X130968571Y-89222190D02*
X131016190Y-89317428D01*
X131016190Y-89317428D02*
X131016190Y-89603142D01*
X131016190Y-89603142D02*
X130968571Y-89698380D01*
X130968571Y-89698380D02*
X130920952Y-89746000D01*
X130920952Y-89746000D02*
X130825714Y-89793619D01*
X130825714Y-89793619D02*
X130682857Y-89793619D01*
X131349524Y-89126952D02*
X131587619Y-89793619D01*
X131825714Y-89126952D02*
X131587619Y-89793619D01*
X131587619Y-89793619D02*
X131492381Y-90031714D01*
X131492381Y-90031714D02*
X131444762Y-90079333D01*
X131444762Y-90079333D02*
X131349524Y-90126952D01*
X132159048Y-89746000D02*
X132254286Y-89793619D01*
X132254286Y-89793619D02*
X132444762Y-89793619D01*
X132444762Y-89793619D02*
X132540000Y-89746000D01*
X132540000Y-89746000D02*
X132587619Y-89650761D01*
X132587619Y-89650761D02*
X132587619Y-89603142D01*
X132587619Y-89603142D02*
X132540000Y-89507904D01*
X132540000Y-89507904D02*
X132444762Y-89460285D01*
X132444762Y-89460285D02*
X132301905Y-89460285D01*
X132301905Y-89460285D02*
X132206667Y-89412666D01*
X132206667Y-89412666D02*
X132159048Y-89317428D01*
X132159048Y-89317428D02*
X132159048Y-89269809D01*
X132159048Y-89269809D02*
X132206667Y-89174571D01*
X132206667Y-89174571D02*
X132301905Y-89126952D01*
X132301905Y-89126952D02*
X132444762Y-89126952D01*
X132444762Y-89126952D02*
X132540000Y-89174571D01*
X132873334Y-89126952D02*
X133254286Y-89126952D01*
X133016191Y-88793619D02*
X133016191Y-89650761D01*
X133016191Y-89650761D02*
X133063810Y-89746000D01*
X133063810Y-89746000D02*
X133159048Y-89793619D01*
X133159048Y-89793619D02*
X133254286Y-89793619D01*
X133587620Y-89793619D02*
X133587620Y-89126952D01*
X133587620Y-88793619D02*
X133540001Y-88841238D01*
X133540001Y-88841238D02*
X133587620Y-88888857D01*
X133587620Y-88888857D02*
X133635239Y-88841238D01*
X133635239Y-88841238D02*
X133587620Y-88793619D01*
X133587620Y-88793619D02*
X133587620Y-88888857D01*
X134492381Y-89746000D02*
X134397143Y-89793619D01*
X134397143Y-89793619D02*
X134206667Y-89793619D01*
X134206667Y-89793619D02*
X134111429Y-89746000D01*
X134111429Y-89746000D02*
X134063810Y-89698380D01*
X134063810Y-89698380D02*
X134016191Y-89603142D01*
X134016191Y-89603142D02*
X134016191Y-89317428D01*
X134016191Y-89317428D02*
X134063810Y-89222190D01*
X134063810Y-89222190D02*
X134111429Y-89174571D01*
X134111429Y-89174571D02*
X134206667Y-89126952D01*
X134206667Y-89126952D02*
X134397143Y-89126952D01*
X134397143Y-89126952D02*
X134492381Y-89174571D01*
X134920953Y-89793619D02*
X134920953Y-88793619D01*
X135016191Y-89412666D02*
X135301905Y-89793619D01*
X135301905Y-89126952D02*
X134920953Y-89507904D01*
X125677609Y-91066371D02*
X125677609Y-91399704D01*
X126201419Y-91399704D02*
X125201419Y-91399704D01*
X125201419Y-91399704D02*
X125201419Y-90923514D01*
X126201419Y-90066371D02*
X126201419Y-90542561D01*
X126201419Y-90542561D02*
X125201419Y-90542561D01*
X125915704Y-89780656D02*
X125915704Y-89304466D01*
X126201419Y-89875894D02*
X125201419Y-89542561D01*
X125201419Y-89542561D02*
X126201419Y-89209228D01*
X126153800Y-88923513D02*
X126201419Y-88780656D01*
X126201419Y-88780656D02*
X126201419Y-88542561D01*
X126201419Y-88542561D02*
X126153800Y-88447323D01*
X126153800Y-88447323D02*
X126106180Y-88399704D01*
X126106180Y-88399704D02*
X126010942Y-88352085D01*
X126010942Y-88352085D02*
X125915704Y-88352085D01*
X125915704Y-88352085D02*
X125820466Y-88399704D01*
X125820466Y-88399704D02*
X125772847Y-88447323D01*
X125772847Y-88447323D02*
X125725228Y-88542561D01*
X125725228Y-88542561D02*
X125677609Y-88733037D01*
X125677609Y-88733037D02*
X125629990Y-88828275D01*
X125629990Y-88828275D02*
X125582371Y-88875894D01*
X125582371Y-88875894D02*
X125487133Y-88923513D01*
X125487133Y-88923513D02*
X125391895Y-88923513D01*
X125391895Y-88923513D02*
X125296657Y-88875894D01*
X125296657Y-88875894D02*
X125249038Y-88828275D01*
X125249038Y-88828275D02*
X125201419Y-88733037D01*
X125201419Y-88733037D02*
X125201419Y-88494942D01*
X125201419Y-88494942D02*
X125249038Y-88352085D01*
X126201419Y-87923513D02*
X125201419Y-87923513D01*
X125677609Y-87923513D02*
X125677609Y-87352085D01*
X126201419Y-87352085D02*
X125201419Y-87352085D01*
X134715238Y-96667619D02*
X135048571Y-97667619D01*
X135048571Y-97667619D02*
X135381904Y-96667619D01*
X136286666Y-97667619D02*
X135953333Y-97191428D01*
X135715238Y-97667619D02*
X135715238Y-96667619D01*
X135715238Y-96667619D02*
X136096190Y-96667619D01*
X136096190Y-96667619D02*
X136191428Y-96715238D01*
X136191428Y-96715238D02*
X136239047Y-96762857D01*
X136239047Y-96762857D02*
X136286666Y-96858095D01*
X136286666Y-96858095D02*
X136286666Y-97000952D01*
X136286666Y-97000952D02*
X136239047Y-97096190D01*
X136239047Y-97096190D02*
X136191428Y-97143809D01*
X136191428Y-97143809D02*
X136096190Y-97191428D01*
X136096190Y-97191428D02*
X135715238Y-97191428D01*
X136620000Y-96667619D02*
X137286666Y-97667619D01*
X137286666Y-96667619D02*
X136620000Y-97667619D01*
X134969238Y-98953619D02*
X135302571Y-99953619D01*
X135302571Y-99953619D02*
X135635904Y-98953619D01*
X136540666Y-99953619D02*
X136207333Y-99477428D01*
X135969238Y-99953619D02*
X135969238Y-98953619D01*
X135969238Y-98953619D02*
X136350190Y-98953619D01*
X136350190Y-98953619D02*
X136445428Y-99001238D01*
X136445428Y-99001238D02*
X136493047Y-99048857D01*
X136493047Y-99048857D02*
X136540666Y-99144095D01*
X136540666Y-99144095D02*
X136540666Y-99286952D01*
X136540666Y-99286952D02*
X136493047Y-99382190D01*
X136493047Y-99382190D02*
X136445428Y-99429809D01*
X136445428Y-99429809D02*
X136350190Y-99477428D01*
X136350190Y-99477428D02*
X135969238Y-99477428D01*
X137159714Y-99477428D02*
X137159714Y-99953619D01*
X136826381Y-98953619D02*
X137159714Y-99477428D01*
X137159714Y-99477428D02*
X137493047Y-98953619D01*
X134715238Y-70759619D02*
X135286666Y-70759619D01*
X135000952Y-71759619D02*
X135000952Y-70759619D01*
X135524762Y-70759619D02*
X136191428Y-71759619D01*
X136191428Y-70759619D02*
X135524762Y-71759619D01*
X136762857Y-70759619D02*
X136858095Y-70759619D01*
X136858095Y-70759619D02*
X136953333Y-70807238D01*
X136953333Y-70807238D02*
X137000952Y-70854857D01*
X137000952Y-70854857D02*
X137048571Y-70950095D01*
X137048571Y-70950095D02*
X137096190Y-71140571D01*
X137096190Y-71140571D02*
X137096190Y-71378666D01*
X137096190Y-71378666D02*
X137048571Y-71569142D01*
X137048571Y-71569142D02*
X137000952Y-71664380D01*
X137000952Y-71664380D02*
X136953333Y-71712000D01*
X136953333Y-71712000D02*
X136858095Y-71759619D01*
X136858095Y-71759619D02*
X136762857Y-71759619D01*
X136762857Y-71759619D02*
X136667619Y-71712000D01*
X136667619Y-71712000D02*
X136620000Y-71664380D01*
X136620000Y-71664380D02*
X136572381Y-71569142D01*
X136572381Y-71569142D02*
X136524762Y-71378666D01*
X136524762Y-71378666D02*
X136524762Y-71140571D01*
X136524762Y-71140571D02*
X136572381Y-70950095D01*
X136572381Y-70950095D02*
X136620000Y-70854857D01*
X136620000Y-70854857D02*
X136667619Y-70807238D01*
X136667619Y-70807238D02*
X136762857Y-70759619D01*
X105092476Y-96096000D02*
X105187714Y-96143619D01*
X105187714Y-96143619D02*
X105378190Y-96143619D01*
X105378190Y-96143619D02*
X105473428Y-96096000D01*
X105473428Y-96096000D02*
X105521047Y-96000761D01*
X105521047Y-96000761D02*
X105521047Y-95953142D01*
X105521047Y-95953142D02*
X105473428Y-95857904D01*
X105473428Y-95857904D02*
X105378190Y-95810285D01*
X105378190Y-95810285D02*
X105235333Y-95810285D01*
X105235333Y-95810285D02*
X105140095Y-95762666D01*
X105140095Y-95762666D02*
X105092476Y-95667428D01*
X105092476Y-95667428D02*
X105092476Y-95619809D01*
X105092476Y-95619809D02*
X105140095Y-95524571D01*
X105140095Y-95524571D02*
X105235333Y-95476952D01*
X105235333Y-95476952D02*
X105378190Y-95476952D01*
X105378190Y-95476952D02*
X105473428Y-95524571D01*
X105854381Y-95476952D02*
X106044857Y-96143619D01*
X106044857Y-96143619D02*
X106235333Y-95667428D01*
X106235333Y-95667428D02*
X106425809Y-96143619D01*
X106425809Y-96143619D02*
X106616285Y-95476952D01*
X107473428Y-96143619D02*
X106997238Y-96143619D01*
X106997238Y-96143619D02*
X106997238Y-95143619D01*
X135429523Y-74299619D02*
X135096190Y-73823428D01*
X134858095Y-74299619D02*
X134858095Y-73299619D01*
X134858095Y-73299619D02*
X135239047Y-73299619D01*
X135239047Y-73299619D02*
X135334285Y-73347238D01*
X135334285Y-73347238D02*
X135381904Y-73394857D01*
X135381904Y-73394857D02*
X135429523Y-73490095D01*
X135429523Y-73490095D02*
X135429523Y-73632952D01*
X135429523Y-73632952D02*
X135381904Y-73728190D01*
X135381904Y-73728190D02*
X135334285Y-73775809D01*
X135334285Y-73775809D02*
X135239047Y-73823428D01*
X135239047Y-73823428D02*
X134858095Y-73823428D01*
X135762857Y-73299619D02*
X136429523Y-74299619D01*
X136429523Y-73299619D02*
X135762857Y-74299619D01*
X137000952Y-73299619D02*
X137096190Y-73299619D01*
X137096190Y-73299619D02*
X137191428Y-73347238D01*
X137191428Y-73347238D02*
X137239047Y-73394857D01*
X137239047Y-73394857D02*
X137286666Y-73490095D01*
X137286666Y-73490095D02*
X137334285Y-73680571D01*
X137334285Y-73680571D02*
X137334285Y-73918666D01*
X137334285Y-73918666D02*
X137286666Y-74109142D01*
X137286666Y-74109142D02*
X137239047Y-74204380D01*
X137239047Y-74204380D02*
X137191428Y-74252000D01*
X137191428Y-74252000D02*
X137096190Y-74299619D01*
X137096190Y-74299619D02*
X137000952Y-74299619D01*
X137000952Y-74299619D02*
X136905714Y-74252000D01*
X136905714Y-74252000D02*
X136858095Y-74204380D01*
X136858095Y-74204380D02*
X136810476Y-74109142D01*
X136810476Y-74109142D02*
X136762857Y-73918666D01*
X136762857Y-73918666D02*
X136762857Y-73680571D01*
X136762857Y-73680571D02*
X136810476Y-73490095D01*
X136810476Y-73490095D02*
X136858095Y-73394857D01*
X136858095Y-73394857D02*
X136905714Y-73347238D01*
X136905714Y-73347238D02*
X137000952Y-73299619D01*
X117925895Y-96651619D02*
X117925895Y-95651619D01*
X117925895Y-95651619D02*
X118259228Y-96365904D01*
X118259228Y-96365904D02*
X118592561Y-95651619D01*
X118592561Y-95651619D02*
X118592561Y-96651619D01*
X118973514Y-95651619D02*
X119592561Y-95651619D01*
X119592561Y-95651619D02*
X119259228Y-96032571D01*
X119259228Y-96032571D02*
X119402085Y-96032571D01*
X119402085Y-96032571D02*
X119497323Y-96080190D01*
X119497323Y-96080190D02*
X119544942Y-96127809D01*
X119544942Y-96127809D02*
X119592561Y-96223047D01*
X119592561Y-96223047D02*
X119592561Y-96461142D01*
X119592561Y-96461142D02*
X119544942Y-96556380D01*
X119544942Y-96556380D02*
X119497323Y-96604000D01*
X119497323Y-96604000D02*
X119402085Y-96651619D01*
X119402085Y-96651619D02*
X119116371Y-96651619D01*
X119116371Y-96651619D02*
X119021133Y-96604000D01*
X119021133Y-96604000D02*
X118973514Y-96556380D01*
X107516609Y-90586904D02*
X107516609Y-90253571D01*
X108040419Y-90110714D02*
X108040419Y-90586904D01*
X108040419Y-90586904D02*
X107040419Y-90586904D01*
X107040419Y-90586904D02*
X107040419Y-90110714D01*
X108040419Y-89682142D02*
X107040419Y-89682142D01*
X107040419Y-89682142D02*
X108040419Y-89110714D01*
X108040419Y-89110714D02*
X107040419Y-89110714D01*
X109442295Y-96651619D02*
X109442295Y-95651619D01*
X109442295Y-95651619D02*
X109775628Y-96365904D01*
X109775628Y-96365904D02*
X110108961Y-95651619D01*
X110108961Y-95651619D02*
X110108961Y-96651619D01*
X111108961Y-96651619D02*
X110537533Y-96651619D01*
X110823247Y-96651619D02*
X110823247Y-95651619D01*
X110823247Y-95651619D02*
X110728009Y-95794476D01*
X110728009Y-95794476D02*
X110632771Y-95889714D01*
X110632771Y-95889714D02*
X110537533Y-95937333D01*
X82232476Y-57392000D02*
X82375333Y-57439619D01*
X82375333Y-57439619D02*
X82613428Y-57439619D01*
X82613428Y-57439619D02*
X82708666Y-57392000D01*
X82708666Y-57392000D02*
X82756285Y-57344380D01*
X82756285Y-57344380D02*
X82803904Y-57249142D01*
X82803904Y-57249142D02*
X82803904Y-57153904D01*
X82803904Y-57153904D02*
X82756285Y-57058666D01*
X82756285Y-57058666D02*
X82708666Y-57011047D01*
X82708666Y-57011047D02*
X82613428Y-56963428D01*
X82613428Y-56963428D02*
X82422952Y-56915809D01*
X82422952Y-56915809D02*
X82327714Y-56868190D01*
X82327714Y-56868190D02*
X82280095Y-56820571D01*
X82280095Y-56820571D02*
X82232476Y-56725333D01*
X82232476Y-56725333D02*
X82232476Y-56630095D01*
X82232476Y-56630095D02*
X82280095Y-56534857D01*
X82280095Y-56534857D02*
X82327714Y-56487238D01*
X82327714Y-56487238D02*
X82422952Y-56439619D01*
X82422952Y-56439619D02*
X82661047Y-56439619D01*
X82661047Y-56439619D02*
X82803904Y-56487238D01*
X83232476Y-57439619D02*
X83232476Y-56772952D01*
X83232476Y-56439619D02*
X83184857Y-56487238D01*
X83184857Y-56487238D02*
X83232476Y-56534857D01*
X83232476Y-56534857D02*
X83280095Y-56487238D01*
X83280095Y-56487238D02*
X83232476Y-56439619D01*
X83232476Y-56439619D02*
X83232476Y-56534857D01*
X84089618Y-57392000D02*
X83994380Y-57439619D01*
X83994380Y-57439619D02*
X83803904Y-57439619D01*
X83803904Y-57439619D02*
X83708666Y-57392000D01*
X83708666Y-57392000D02*
X83661047Y-57296761D01*
X83661047Y-57296761D02*
X83661047Y-56915809D01*
X83661047Y-56915809D02*
X83708666Y-56820571D01*
X83708666Y-56820571D02*
X83803904Y-56772952D01*
X83803904Y-56772952D02*
X83994380Y-56772952D01*
X83994380Y-56772952D02*
X84089618Y-56820571D01*
X84089618Y-56820571D02*
X84137237Y-56915809D01*
X84137237Y-56915809D02*
X84137237Y-57011047D01*
X84137237Y-57011047D02*
X83661047Y-57106285D01*
X84565809Y-56772952D02*
X84565809Y-57439619D01*
X84565809Y-56868190D02*
X84613428Y-56820571D01*
X84613428Y-56820571D02*
X84708666Y-56772952D01*
X84708666Y-56772952D02*
X84851523Y-56772952D01*
X84851523Y-56772952D02*
X84946761Y-56820571D01*
X84946761Y-56820571D02*
X84994380Y-56915809D01*
X84994380Y-56915809D02*
X84994380Y-57439619D01*
X86232476Y-57439619D02*
X86232476Y-56439619D01*
X86232476Y-56439619D02*
X86613428Y-56439619D01*
X86613428Y-56439619D02*
X86708666Y-56487238D01*
X86708666Y-56487238D02*
X86756285Y-56534857D01*
X86756285Y-56534857D02*
X86803904Y-56630095D01*
X86803904Y-56630095D02*
X86803904Y-56772952D01*
X86803904Y-56772952D02*
X86756285Y-56868190D01*
X86756285Y-56868190D02*
X86708666Y-56915809D01*
X86708666Y-56915809D02*
X86613428Y-56963428D01*
X86613428Y-56963428D02*
X86232476Y-56963428D01*
X87613428Y-57392000D02*
X87518190Y-57439619D01*
X87518190Y-57439619D02*
X87327714Y-57439619D01*
X87327714Y-57439619D02*
X87232476Y-57392000D01*
X87232476Y-57392000D02*
X87184857Y-57296761D01*
X87184857Y-57296761D02*
X87184857Y-56915809D01*
X87184857Y-56915809D02*
X87232476Y-56820571D01*
X87232476Y-56820571D02*
X87327714Y-56772952D01*
X87327714Y-56772952D02*
X87518190Y-56772952D01*
X87518190Y-56772952D02*
X87613428Y-56820571D01*
X87613428Y-56820571D02*
X87661047Y-56915809D01*
X87661047Y-56915809D02*
X87661047Y-57011047D01*
X87661047Y-57011047D02*
X87184857Y-57106285D01*
X88470571Y-57392000D02*
X88375333Y-57439619D01*
X88375333Y-57439619D02*
X88184857Y-57439619D01*
X88184857Y-57439619D02*
X88089619Y-57392000D01*
X88089619Y-57392000D02*
X88042000Y-57296761D01*
X88042000Y-57296761D02*
X88042000Y-56915809D01*
X88042000Y-56915809D02*
X88089619Y-56820571D01*
X88089619Y-56820571D02*
X88184857Y-56772952D01*
X88184857Y-56772952D02*
X88375333Y-56772952D01*
X88375333Y-56772952D02*
X88470571Y-56820571D01*
X88470571Y-56820571D02*
X88518190Y-56915809D01*
X88518190Y-56915809D02*
X88518190Y-57011047D01*
X88518190Y-57011047D02*
X88042000Y-57106285D01*
X88946762Y-57439619D02*
X88946762Y-56772952D01*
X88946762Y-56963428D02*
X88994381Y-56868190D01*
X88994381Y-56868190D02*
X89042000Y-56820571D01*
X89042000Y-56820571D02*
X89137238Y-56772952D01*
X89137238Y-56772952D02*
X89232476Y-56772952D01*
X89708667Y-57439619D02*
X89613429Y-57392000D01*
X89613429Y-57392000D02*
X89565810Y-57296761D01*
X89565810Y-57296761D02*
X89565810Y-56439619D01*
X90089620Y-57439619D02*
X90089620Y-56772952D01*
X90089620Y-56439619D02*
X90042001Y-56487238D01*
X90042001Y-56487238D02*
X90089620Y-56534857D01*
X90089620Y-56534857D02*
X90137239Y-56487238D01*
X90137239Y-56487238D02*
X90089620Y-56439619D01*
X90089620Y-56439619D02*
X90089620Y-56534857D01*
X90565810Y-56772952D02*
X90565810Y-57439619D01*
X90565810Y-56868190D02*
X90613429Y-56820571D01*
X90613429Y-56820571D02*
X90708667Y-56772952D01*
X90708667Y-56772952D02*
X90851524Y-56772952D01*
X90851524Y-56772952D02*
X90946762Y-56820571D01*
X90946762Y-56820571D02*
X90994381Y-56915809D01*
X90994381Y-56915809D02*
X90994381Y-57439619D01*
X91899143Y-57392000D02*
X91803905Y-57439619D01*
X91803905Y-57439619D02*
X91613429Y-57439619D01*
X91613429Y-57439619D02*
X91518191Y-57392000D01*
X91518191Y-57392000D02*
X91470572Y-57344380D01*
X91470572Y-57344380D02*
X91422953Y-57249142D01*
X91422953Y-57249142D02*
X91422953Y-56963428D01*
X91422953Y-56963428D02*
X91470572Y-56868190D01*
X91470572Y-56868190D02*
X91518191Y-56820571D01*
X91518191Y-56820571D02*
X91613429Y-56772952D01*
X91613429Y-56772952D02*
X91803905Y-56772952D01*
X91803905Y-56772952D02*
X91899143Y-56820571D01*
X92327715Y-57439619D02*
X92327715Y-56439619D01*
X92422953Y-57058666D02*
X92708667Y-57439619D01*
X92708667Y-56772952D02*
X92327715Y-57153904D01*
X93184858Y-57392000D02*
X93184858Y-57439619D01*
X93184858Y-57439619D02*
X93137239Y-57534857D01*
X93137239Y-57534857D02*
X93089620Y-57582476D01*
X94232477Y-56439619D02*
X94803905Y-56439619D01*
X94518191Y-57439619D02*
X94518191Y-56439619D01*
X95137239Y-57439619D02*
X95137239Y-56439619D01*
X95565810Y-57439619D02*
X95565810Y-56915809D01*
X95565810Y-56915809D02*
X95518191Y-56820571D01*
X95518191Y-56820571D02*
X95422953Y-56772952D01*
X95422953Y-56772952D02*
X95280096Y-56772952D01*
X95280096Y-56772952D02*
X95184858Y-56820571D01*
X95184858Y-56820571D02*
X95137239Y-56868190D01*
X96042001Y-57439619D02*
X96042001Y-56772952D01*
X96042001Y-56439619D02*
X95994382Y-56487238D01*
X95994382Y-56487238D02*
X96042001Y-56534857D01*
X96042001Y-56534857D02*
X96089620Y-56487238D01*
X96089620Y-56487238D02*
X96042001Y-56439619D01*
X96042001Y-56439619D02*
X96042001Y-56534857D01*
X96518191Y-57439619D02*
X96518191Y-56439619D01*
X96518191Y-56820571D02*
X96613429Y-56772952D01*
X96613429Y-56772952D02*
X96803905Y-56772952D01*
X96803905Y-56772952D02*
X96899143Y-56820571D01*
X96899143Y-56820571D02*
X96946762Y-56868190D01*
X96946762Y-56868190D02*
X96994381Y-56963428D01*
X96994381Y-56963428D02*
X96994381Y-57249142D01*
X96994381Y-57249142D02*
X96946762Y-57344380D01*
X96946762Y-57344380D02*
X96899143Y-57392000D01*
X96899143Y-57392000D02*
X96803905Y-57439619D01*
X96803905Y-57439619D02*
X96613429Y-57439619D01*
X96613429Y-57439619D02*
X96518191Y-57392000D01*
X97851524Y-57439619D02*
X97851524Y-56915809D01*
X97851524Y-56915809D02*
X97803905Y-56820571D01*
X97803905Y-56820571D02*
X97708667Y-56772952D01*
X97708667Y-56772952D02*
X97518191Y-56772952D01*
X97518191Y-56772952D02*
X97422953Y-56820571D01*
X97851524Y-57392000D02*
X97756286Y-57439619D01*
X97756286Y-57439619D02*
X97518191Y-57439619D01*
X97518191Y-57439619D02*
X97422953Y-57392000D01*
X97422953Y-57392000D02*
X97375334Y-57296761D01*
X97375334Y-57296761D02*
X97375334Y-57201523D01*
X97375334Y-57201523D02*
X97422953Y-57106285D01*
X97422953Y-57106285D02*
X97518191Y-57058666D01*
X97518191Y-57058666D02*
X97756286Y-57058666D01*
X97756286Y-57058666D02*
X97851524Y-57011047D01*
X98756286Y-56772952D02*
X98756286Y-57439619D01*
X98327715Y-56772952D02*
X98327715Y-57296761D01*
X98327715Y-57296761D02*
X98375334Y-57392000D01*
X98375334Y-57392000D02*
X98470572Y-57439619D01*
X98470572Y-57439619D02*
X98613429Y-57439619D01*
X98613429Y-57439619D02*
X98708667Y-57392000D01*
X98708667Y-57392000D02*
X98756286Y-57344380D01*
X99089620Y-56772952D02*
X99470572Y-56772952D01*
X99232477Y-56439619D02*
X99232477Y-57296761D01*
X99232477Y-57296761D02*
X99280096Y-57392000D01*
X99280096Y-57392000D02*
X99375334Y-57439619D01*
X99375334Y-57439619D02*
X99470572Y-57439619D01*
X100994382Y-57439619D02*
X100994382Y-56439619D01*
X100994382Y-57392000D02*
X100899144Y-57439619D01*
X100899144Y-57439619D02*
X100708668Y-57439619D01*
X100708668Y-57439619D02*
X100613430Y-57392000D01*
X100613430Y-57392000D02*
X100565811Y-57344380D01*
X100565811Y-57344380D02*
X100518192Y-57249142D01*
X100518192Y-57249142D02*
X100518192Y-56963428D01*
X100518192Y-56963428D02*
X100565811Y-56868190D01*
X100565811Y-56868190D02*
X100613430Y-56820571D01*
X100613430Y-56820571D02*
X100708668Y-56772952D01*
X100708668Y-56772952D02*
X100899144Y-56772952D01*
X100899144Y-56772952D02*
X100994382Y-56820571D01*
X101899144Y-57439619D02*
X101899144Y-56915809D01*
X101899144Y-56915809D02*
X101851525Y-56820571D01*
X101851525Y-56820571D02*
X101756287Y-56772952D01*
X101756287Y-56772952D02*
X101565811Y-56772952D01*
X101565811Y-56772952D02*
X101470573Y-56820571D01*
X101899144Y-57392000D02*
X101803906Y-57439619D01*
X101803906Y-57439619D02*
X101565811Y-57439619D01*
X101565811Y-57439619D02*
X101470573Y-57392000D01*
X101470573Y-57392000D02*
X101422954Y-57296761D01*
X101422954Y-57296761D02*
X101422954Y-57201523D01*
X101422954Y-57201523D02*
X101470573Y-57106285D01*
X101470573Y-57106285D02*
X101565811Y-57058666D01*
X101565811Y-57058666D02*
X101803906Y-57058666D01*
X101803906Y-57058666D02*
X101899144Y-57011047D01*
X102518192Y-57439619D02*
X102422954Y-57392000D01*
X102422954Y-57392000D02*
X102375335Y-57296761D01*
X102375335Y-57296761D02*
X102375335Y-56439619D01*
X103280097Y-57392000D02*
X103184859Y-57439619D01*
X103184859Y-57439619D02*
X102994383Y-57439619D01*
X102994383Y-57439619D02*
X102899145Y-57392000D01*
X102899145Y-57392000D02*
X102851526Y-57296761D01*
X102851526Y-57296761D02*
X102851526Y-56915809D01*
X102851526Y-56915809D02*
X102899145Y-56820571D01*
X102899145Y-56820571D02*
X102994383Y-56772952D01*
X102994383Y-56772952D02*
X103184859Y-56772952D01*
X103184859Y-56772952D02*
X103280097Y-56820571D01*
X103280097Y-56820571D02*
X103327716Y-56915809D01*
X103327716Y-56915809D02*
X103327716Y-57011047D01*
X103327716Y-57011047D02*
X102851526Y-57106285D01*
X103661050Y-56772952D02*
X104184859Y-56772952D01*
X104184859Y-56772952D02*
X103661050Y-57439619D01*
X103661050Y-57439619D02*
X104184859Y-57439619D01*
X82756285Y-59059619D02*
X82280095Y-59059619D01*
X82280095Y-59059619D02*
X82280095Y-58059619D01*
X83518190Y-59059619D02*
X83518190Y-58535809D01*
X83518190Y-58535809D02*
X83470571Y-58440571D01*
X83470571Y-58440571D02*
X83375333Y-58392952D01*
X83375333Y-58392952D02*
X83184857Y-58392952D01*
X83184857Y-58392952D02*
X83089619Y-58440571D01*
X83518190Y-59012000D02*
X83422952Y-59059619D01*
X83422952Y-59059619D02*
X83184857Y-59059619D01*
X83184857Y-59059619D02*
X83089619Y-59012000D01*
X83089619Y-59012000D02*
X83042000Y-58916761D01*
X83042000Y-58916761D02*
X83042000Y-58821523D01*
X83042000Y-58821523D02*
X83089619Y-58726285D01*
X83089619Y-58726285D02*
X83184857Y-58678666D01*
X83184857Y-58678666D02*
X83422952Y-58678666D01*
X83422952Y-58678666D02*
X83518190Y-58631047D01*
X83946762Y-59012000D02*
X84042000Y-59059619D01*
X84042000Y-59059619D02*
X84232476Y-59059619D01*
X84232476Y-59059619D02*
X84327714Y-59012000D01*
X84327714Y-59012000D02*
X84375333Y-58916761D01*
X84375333Y-58916761D02*
X84375333Y-58869142D01*
X84375333Y-58869142D02*
X84327714Y-58773904D01*
X84327714Y-58773904D02*
X84232476Y-58726285D01*
X84232476Y-58726285D02*
X84089619Y-58726285D01*
X84089619Y-58726285D02*
X83994381Y-58678666D01*
X83994381Y-58678666D02*
X83946762Y-58583428D01*
X83946762Y-58583428D02*
X83946762Y-58535809D01*
X83946762Y-58535809D02*
X83994381Y-58440571D01*
X83994381Y-58440571D02*
X84089619Y-58392952D01*
X84089619Y-58392952D02*
X84232476Y-58392952D01*
X84232476Y-58392952D02*
X84327714Y-58440571D01*
X85184857Y-59012000D02*
X85089619Y-59059619D01*
X85089619Y-59059619D02*
X84899143Y-59059619D01*
X84899143Y-59059619D02*
X84803905Y-59012000D01*
X84803905Y-59012000D02*
X84756286Y-58916761D01*
X84756286Y-58916761D02*
X84756286Y-58535809D01*
X84756286Y-58535809D02*
X84803905Y-58440571D01*
X84803905Y-58440571D02*
X84899143Y-58392952D01*
X84899143Y-58392952D02*
X85089619Y-58392952D01*
X85089619Y-58392952D02*
X85184857Y-58440571D01*
X85184857Y-58440571D02*
X85232476Y-58535809D01*
X85232476Y-58535809D02*
X85232476Y-58631047D01*
X85232476Y-58631047D02*
X84756286Y-58726285D01*
X85661048Y-59059619D02*
X85661048Y-58392952D01*
X85661048Y-58583428D02*
X85708667Y-58488190D01*
X85708667Y-58488190D02*
X85756286Y-58440571D01*
X85756286Y-58440571D02*
X85851524Y-58392952D01*
X85851524Y-58392952D02*
X85946762Y-58392952D01*
X86708667Y-59059619D02*
X86708667Y-58059619D01*
X86708667Y-59012000D02*
X86613429Y-59059619D01*
X86613429Y-59059619D02*
X86422953Y-59059619D01*
X86422953Y-59059619D02*
X86327715Y-59012000D01*
X86327715Y-59012000D02*
X86280096Y-58964380D01*
X86280096Y-58964380D02*
X86232477Y-58869142D01*
X86232477Y-58869142D02*
X86232477Y-58583428D01*
X86232477Y-58583428D02*
X86280096Y-58488190D01*
X86280096Y-58488190D02*
X86327715Y-58440571D01*
X86327715Y-58440571D02*
X86422953Y-58392952D01*
X86422953Y-58392952D02*
X86613429Y-58392952D01*
X86613429Y-58392952D02*
X86708667Y-58440571D01*
X87184858Y-59059619D02*
X87184858Y-58392952D01*
X87184858Y-58059619D02*
X87137239Y-58107238D01*
X87137239Y-58107238D02*
X87184858Y-58154857D01*
X87184858Y-58154857D02*
X87232477Y-58107238D01*
X87232477Y-58107238D02*
X87184858Y-58059619D01*
X87184858Y-58059619D02*
X87184858Y-58154857D01*
X87661048Y-58392952D02*
X87661048Y-59059619D01*
X87661048Y-58488190D02*
X87708667Y-58440571D01*
X87708667Y-58440571D02*
X87803905Y-58392952D01*
X87803905Y-58392952D02*
X87946762Y-58392952D01*
X87946762Y-58392952D02*
X88042000Y-58440571D01*
X88042000Y-58440571D02*
X88089619Y-58535809D01*
X88089619Y-58535809D02*
X88089619Y-59059619D01*
X88994381Y-58392952D02*
X88994381Y-59202476D01*
X88994381Y-59202476D02*
X88946762Y-59297714D01*
X88946762Y-59297714D02*
X88899143Y-59345333D01*
X88899143Y-59345333D02*
X88803905Y-59392952D01*
X88803905Y-59392952D02*
X88661048Y-59392952D01*
X88661048Y-59392952D02*
X88565810Y-59345333D01*
X88994381Y-59012000D02*
X88899143Y-59059619D01*
X88899143Y-59059619D02*
X88708667Y-59059619D01*
X88708667Y-59059619D02*
X88613429Y-59012000D01*
X88613429Y-59012000D02*
X88565810Y-58964380D01*
X88565810Y-58964380D02*
X88518191Y-58869142D01*
X88518191Y-58869142D02*
X88518191Y-58583428D01*
X88518191Y-58583428D02*
X88565810Y-58488190D01*
X88565810Y-58488190D02*
X88613429Y-58440571D01*
X88613429Y-58440571D02*
X88708667Y-58392952D01*
X88708667Y-58392952D02*
X88899143Y-58392952D01*
X88899143Y-58392952D02*
X88994381Y-58440571D01*
X89851524Y-59012000D02*
X89756286Y-59059619D01*
X89756286Y-59059619D02*
X89565810Y-59059619D01*
X89565810Y-59059619D02*
X89470572Y-59012000D01*
X89470572Y-59012000D02*
X89422953Y-58916761D01*
X89422953Y-58916761D02*
X89422953Y-58535809D01*
X89422953Y-58535809D02*
X89470572Y-58440571D01*
X89470572Y-58440571D02*
X89565810Y-58392952D01*
X89565810Y-58392952D02*
X89756286Y-58392952D01*
X89756286Y-58392952D02*
X89851524Y-58440571D01*
X89851524Y-58440571D02*
X89899143Y-58535809D01*
X89899143Y-58535809D02*
X89899143Y-58631047D01*
X89899143Y-58631047D02*
X89422953Y-58726285D01*
X90280096Y-59012000D02*
X90375334Y-59059619D01*
X90375334Y-59059619D02*
X90565810Y-59059619D01*
X90565810Y-59059619D02*
X90661048Y-59012000D01*
X90661048Y-59012000D02*
X90708667Y-58916761D01*
X90708667Y-58916761D02*
X90708667Y-58869142D01*
X90708667Y-58869142D02*
X90661048Y-58773904D01*
X90661048Y-58773904D02*
X90565810Y-58726285D01*
X90565810Y-58726285D02*
X90422953Y-58726285D01*
X90422953Y-58726285D02*
X90327715Y-58678666D01*
X90327715Y-58678666D02*
X90280096Y-58583428D01*
X90280096Y-58583428D02*
X90280096Y-58535809D01*
X90280096Y-58535809D02*
X90327715Y-58440571D01*
X90327715Y-58440571D02*
X90422953Y-58392952D01*
X90422953Y-58392952D02*
X90565810Y-58392952D01*
X90565810Y-58392952D02*
X90661048Y-58440571D01*
X91803906Y-58392952D02*
X92042001Y-59059619D01*
X92042001Y-59059619D02*
X92280096Y-58392952D01*
X93184858Y-59059619D02*
X92613430Y-59059619D01*
X92899144Y-59059619D02*
X92899144Y-58059619D01*
X92899144Y-58059619D02*
X92803906Y-58202476D01*
X92803906Y-58202476D02*
X92708668Y-58297714D01*
X92708668Y-58297714D02*
X92613430Y-58345333D01*
X113522095Y-96651619D02*
X113522095Y-95651619D01*
X113522095Y-95651619D02*
X113855428Y-96365904D01*
X113855428Y-96365904D02*
X114188761Y-95651619D01*
X114188761Y-95651619D02*
X114188761Y-96651619D01*
X114617333Y-95746857D02*
X114664952Y-95699238D01*
X114664952Y-95699238D02*
X114760190Y-95651619D01*
X114760190Y-95651619D02*
X114998285Y-95651619D01*
X114998285Y-95651619D02*
X115093523Y-95699238D01*
X115093523Y-95699238D02*
X115141142Y-95746857D01*
X115141142Y-95746857D02*
X115188761Y-95842095D01*
X115188761Y-95842095D02*
X115188761Y-95937333D01*
X115188761Y-95937333D02*
X115141142Y-96080190D01*
X115141142Y-96080190D02*
X114569714Y-96651619D01*
X114569714Y-96651619D02*
X115188761Y-96651619D01*
X135381904Y-68267238D02*
X135286666Y-68219619D01*
X135286666Y-68219619D02*
X135143809Y-68219619D01*
X135143809Y-68219619D02*
X135000952Y-68267238D01*
X135000952Y-68267238D02*
X134905714Y-68362476D01*
X134905714Y-68362476D02*
X134858095Y-68457714D01*
X134858095Y-68457714D02*
X134810476Y-68648190D01*
X134810476Y-68648190D02*
X134810476Y-68791047D01*
X134810476Y-68791047D02*
X134858095Y-68981523D01*
X134858095Y-68981523D02*
X134905714Y-69076761D01*
X134905714Y-69076761D02*
X135000952Y-69172000D01*
X135000952Y-69172000D02*
X135143809Y-69219619D01*
X135143809Y-69219619D02*
X135239047Y-69219619D01*
X135239047Y-69219619D02*
X135381904Y-69172000D01*
X135381904Y-69172000D02*
X135429523Y-69124380D01*
X135429523Y-69124380D02*
X135429523Y-68791047D01*
X135429523Y-68791047D02*
X135239047Y-68791047D01*
X135858095Y-69219619D02*
X135858095Y-68219619D01*
X135858095Y-68219619D02*
X136429523Y-69219619D01*
X136429523Y-69219619D02*
X136429523Y-68219619D01*
X136905714Y-69219619D02*
X136905714Y-68219619D01*
X136905714Y-68219619D02*
X137143809Y-68219619D01*
X137143809Y-68219619D02*
X137286666Y-68267238D01*
X137286666Y-68267238D02*
X137381904Y-68362476D01*
X137381904Y-68362476D02*
X137429523Y-68457714D01*
X137429523Y-68457714D02*
X137477142Y-68648190D01*
X137477142Y-68648190D02*
X137477142Y-68791047D01*
X137477142Y-68791047D02*
X137429523Y-68981523D01*
X137429523Y-68981523D02*
X137381904Y-69076761D01*
X137381904Y-69076761D02*
X137286666Y-69172000D01*
X137286666Y-69172000D02*
X137143809Y-69219619D01*
X137143809Y-69219619D02*
X136905714Y-69219619D01*
X135381904Y-91381238D02*
X135286666Y-91333619D01*
X135286666Y-91333619D02*
X135143809Y-91333619D01*
X135143809Y-91333619D02*
X135000952Y-91381238D01*
X135000952Y-91381238D02*
X134905714Y-91476476D01*
X134905714Y-91476476D02*
X134858095Y-91571714D01*
X134858095Y-91571714D02*
X134810476Y-91762190D01*
X134810476Y-91762190D02*
X134810476Y-91905047D01*
X134810476Y-91905047D02*
X134858095Y-92095523D01*
X134858095Y-92095523D02*
X134905714Y-92190761D01*
X134905714Y-92190761D02*
X135000952Y-92286000D01*
X135000952Y-92286000D02*
X135143809Y-92333619D01*
X135143809Y-92333619D02*
X135239047Y-92333619D01*
X135239047Y-92333619D02*
X135381904Y-92286000D01*
X135381904Y-92286000D02*
X135429523Y-92238380D01*
X135429523Y-92238380D02*
X135429523Y-91905047D01*
X135429523Y-91905047D02*
X135239047Y-91905047D01*
X135858095Y-92333619D02*
X135858095Y-91333619D01*
X135858095Y-91333619D02*
X136429523Y-92333619D01*
X136429523Y-92333619D02*
X136429523Y-91333619D01*
X136905714Y-92333619D02*
X136905714Y-91333619D01*
X136905714Y-91333619D02*
X137143809Y-91333619D01*
X137143809Y-91333619D02*
X137286666Y-91381238D01*
X137286666Y-91381238D02*
X137381904Y-91476476D01*
X137381904Y-91476476D02*
X137429523Y-91571714D01*
X137429523Y-91571714D02*
X137477142Y-91762190D01*
X137477142Y-91762190D02*
X137477142Y-91905047D01*
X137477142Y-91905047D02*
X137429523Y-92095523D01*
X137429523Y-92095523D02*
X137381904Y-92190761D01*
X137381904Y-92190761D02*
X137286666Y-92286000D01*
X137286666Y-92286000D02*
X137143809Y-92333619D01*
X137143809Y-92333619D02*
X136905714Y-92333619D01*
%TO.C,U4*%
X89408095Y-61692619D02*
X89408095Y-62502142D01*
X89408095Y-62502142D02*
X89455714Y-62597380D01*
X89455714Y-62597380D02*
X89503333Y-62645000D01*
X89503333Y-62645000D02*
X89598571Y-62692619D01*
X89598571Y-62692619D02*
X89789047Y-62692619D01*
X89789047Y-62692619D02*
X89884285Y-62645000D01*
X89884285Y-62645000D02*
X89931904Y-62597380D01*
X89931904Y-62597380D02*
X89979523Y-62502142D01*
X89979523Y-62502142D02*
X89979523Y-61692619D01*
X90884285Y-62025952D02*
X90884285Y-62692619D01*
X90646190Y-61645000D02*
X90408095Y-62359285D01*
X90408095Y-62359285D02*
X91027142Y-62359285D01*
%TO.C,R9*%
X130443019Y-102177066D02*
X129966828Y-102510399D01*
X130443019Y-102748494D02*
X129443019Y-102748494D01*
X129443019Y-102748494D02*
X129443019Y-102367542D01*
X129443019Y-102367542D02*
X129490638Y-102272304D01*
X129490638Y-102272304D02*
X129538257Y-102224685D01*
X129538257Y-102224685D02*
X129633495Y-102177066D01*
X129633495Y-102177066D02*
X129776352Y-102177066D01*
X129776352Y-102177066D02*
X129871590Y-102224685D01*
X129871590Y-102224685D02*
X129919209Y-102272304D01*
X129919209Y-102272304D02*
X129966828Y-102367542D01*
X129966828Y-102367542D02*
X129966828Y-102748494D01*
X130443019Y-101700875D02*
X130443019Y-101510399D01*
X130443019Y-101510399D02*
X130395400Y-101415161D01*
X130395400Y-101415161D02*
X130347780Y-101367542D01*
X130347780Y-101367542D02*
X130204923Y-101272304D01*
X130204923Y-101272304D02*
X130014447Y-101224685D01*
X130014447Y-101224685D02*
X129633495Y-101224685D01*
X129633495Y-101224685D02*
X129538257Y-101272304D01*
X129538257Y-101272304D02*
X129490638Y-101319923D01*
X129490638Y-101319923D02*
X129443019Y-101415161D01*
X129443019Y-101415161D02*
X129443019Y-101605637D01*
X129443019Y-101605637D02*
X129490638Y-101700875D01*
X129490638Y-101700875D02*
X129538257Y-101748494D01*
X129538257Y-101748494D02*
X129633495Y-101796113D01*
X129633495Y-101796113D02*
X129871590Y-101796113D01*
X129871590Y-101796113D02*
X129966828Y-101748494D01*
X129966828Y-101748494D02*
X130014447Y-101700875D01*
X130014447Y-101700875D02*
X130062066Y-101605637D01*
X130062066Y-101605637D02*
X130062066Y-101415161D01*
X130062066Y-101415161D02*
X130014447Y-101319923D01*
X130014447Y-101319923D02*
X129966828Y-101272304D01*
X129966828Y-101272304D02*
X129871590Y-101224685D01*
%TO.C,R10*%
X126582219Y-98021057D02*
X126106028Y-98354390D01*
X126582219Y-98592485D02*
X125582219Y-98592485D01*
X125582219Y-98592485D02*
X125582219Y-98211533D01*
X125582219Y-98211533D02*
X125629838Y-98116295D01*
X125629838Y-98116295D02*
X125677457Y-98068676D01*
X125677457Y-98068676D02*
X125772695Y-98021057D01*
X125772695Y-98021057D02*
X125915552Y-98021057D01*
X125915552Y-98021057D02*
X126010790Y-98068676D01*
X126010790Y-98068676D02*
X126058409Y-98116295D01*
X126058409Y-98116295D02*
X126106028Y-98211533D01*
X126106028Y-98211533D02*
X126106028Y-98592485D01*
X126582219Y-97068676D02*
X126582219Y-97640104D01*
X126582219Y-97354390D02*
X125582219Y-97354390D01*
X125582219Y-97354390D02*
X125725076Y-97449628D01*
X125725076Y-97449628D02*
X125820314Y-97544866D01*
X125820314Y-97544866D02*
X125867933Y-97640104D01*
X125582219Y-96449628D02*
X125582219Y-96354390D01*
X125582219Y-96354390D02*
X125629838Y-96259152D01*
X125629838Y-96259152D02*
X125677457Y-96211533D01*
X125677457Y-96211533D02*
X125772695Y-96163914D01*
X125772695Y-96163914D02*
X125963171Y-96116295D01*
X125963171Y-96116295D02*
X126201266Y-96116295D01*
X126201266Y-96116295D02*
X126391742Y-96163914D01*
X126391742Y-96163914D02*
X126486980Y-96211533D01*
X126486980Y-96211533D02*
X126534600Y-96259152D01*
X126534600Y-96259152D02*
X126582219Y-96354390D01*
X126582219Y-96354390D02*
X126582219Y-96449628D01*
X126582219Y-96449628D02*
X126534600Y-96544866D01*
X126534600Y-96544866D02*
X126486980Y-96592485D01*
X126486980Y-96592485D02*
X126391742Y-96640104D01*
X126391742Y-96640104D02*
X126201266Y-96687723D01*
X126201266Y-96687723D02*
X125963171Y-96687723D01*
X125963171Y-96687723D02*
X125772695Y-96640104D01*
X125772695Y-96640104D02*
X125677457Y-96592485D01*
X125677457Y-96592485D02*
X125629838Y-96544866D01*
X125629838Y-96544866D02*
X125582219Y-96449628D01*
%TO.C,R6*%
X127757333Y-77621419D02*
X127424000Y-77145228D01*
X127185905Y-77621419D02*
X127185905Y-76621419D01*
X127185905Y-76621419D02*
X127566857Y-76621419D01*
X127566857Y-76621419D02*
X127662095Y-76669038D01*
X127662095Y-76669038D02*
X127709714Y-76716657D01*
X127709714Y-76716657D02*
X127757333Y-76811895D01*
X127757333Y-76811895D02*
X127757333Y-76954752D01*
X127757333Y-76954752D02*
X127709714Y-77049990D01*
X127709714Y-77049990D02*
X127662095Y-77097609D01*
X127662095Y-77097609D02*
X127566857Y-77145228D01*
X127566857Y-77145228D02*
X127185905Y-77145228D01*
X128614476Y-76621419D02*
X128424000Y-76621419D01*
X128424000Y-76621419D02*
X128328762Y-76669038D01*
X128328762Y-76669038D02*
X128281143Y-76716657D01*
X128281143Y-76716657D02*
X128185905Y-76859514D01*
X128185905Y-76859514D02*
X128138286Y-77049990D01*
X128138286Y-77049990D02*
X128138286Y-77430942D01*
X128138286Y-77430942D02*
X128185905Y-77526180D01*
X128185905Y-77526180D02*
X128233524Y-77573800D01*
X128233524Y-77573800D02*
X128328762Y-77621419D01*
X128328762Y-77621419D02*
X128519238Y-77621419D01*
X128519238Y-77621419D02*
X128614476Y-77573800D01*
X128614476Y-77573800D02*
X128662095Y-77526180D01*
X128662095Y-77526180D02*
X128709714Y-77430942D01*
X128709714Y-77430942D02*
X128709714Y-77192847D01*
X128709714Y-77192847D02*
X128662095Y-77097609D01*
X128662095Y-77097609D02*
X128614476Y-77049990D01*
X128614476Y-77049990D02*
X128519238Y-77002371D01*
X128519238Y-77002371D02*
X128328762Y-77002371D01*
X128328762Y-77002371D02*
X128233524Y-77049990D01*
X128233524Y-77049990D02*
X128185905Y-77097609D01*
X128185905Y-77097609D02*
X128138286Y-77192847D01*
%TO.C,C2*%
X102840580Y-96427266D02*
X102888200Y-96474885D01*
X102888200Y-96474885D02*
X102935819Y-96617742D01*
X102935819Y-96617742D02*
X102935819Y-96712980D01*
X102935819Y-96712980D02*
X102888200Y-96855837D01*
X102888200Y-96855837D02*
X102792961Y-96951075D01*
X102792961Y-96951075D02*
X102697723Y-96998694D01*
X102697723Y-96998694D02*
X102507247Y-97046313D01*
X102507247Y-97046313D02*
X102364390Y-97046313D01*
X102364390Y-97046313D02*
X102173914Y-96998694D01*
X102173914Y-96998694D02*
X102078676Y-96951075D01*
X102078676Y-96951075D02*
X101983438Y-96855837D01*
X101983438Y-96855837D02*
X101935819Y-96712980D01*
X101935819Y-96712980D02*
X101935819Y-96617742D01*
X101935819Y-96617742D02*
X101983438Y-96474885D01*
X101983438Y-96474885D02*
X102031057Y-96427266D01*
X102031057Y-96046313D02*
X101983438Y-95998694D01*
X101983438Y-95998694D02*
X101935819Y-95903456D01*
X101935819Y-95903456D02*
X101935819Y-95665361D01*
X101935819Y-95665361D02*
X101983438Y-95570123D01*
X101983438Y-95570123D02*
X102031057Y-95522504D01*
X102031057Y-95522504D02*
X102126295Y-95474885D01*
X102126295Y-95474885D02*
X102221533Y-95474885D01*
X102221533Y-95474885D02*
X102364390Y-95522504D01*
X102364390Y-95522504D02*
X102935819Y-96093932D01*
X102935819Y-96093932D02*
X102935819Y-95474885D01*
%TO.C,R4*%
X109692219Y-89670866D02*
X109216028Y-90004199D01*
X109692219Y-90242294D02*
X108692219Y-90242294D01*
X108692219Y-90242294D02*
X108692219Y-89861342D01*
X108692219Y-89861342D02*
X108739838Y-89766104D01*
X108739838Y-89766104D02*
X108787457Y-89718485D01*
X108787457Y-89718485D02*
X108882695Y-89670866D01*
X108882695Y-89670866D02*
X109025552Y-89670866D01*
X109025552Y-89670866D02*
X109120790Y-89718485D01*
X109120790Y-89718485D02*
X109168409Y-89766104D01*
X109168409Y-89766104D02*
X109216028Y-89861342D01*
X109216028Y-89861342D02*
X109216028Y-90242294D01*
X109025552Y-88813723D02*
X109692219Y-88813723D01*
X108644600Y-89051818D02*
X109358885Y-89289913D01*
X109358885Y-89289913D02*
X109358885Y-88670866D01*
%TO.C,U2*%
X92584419Y-91434904D02*
X93393942Y-91434904D01*
X93393942Y-91434904D02*
X93489180Y-91387285D01*
X93489180Y-91387285D02*
X93536800Y-91339666D01*
X93536800Y-91339666D02*
X93584419Y-91244428D01*
X93584419Y-91244428D02*
X93584419Y-91053952D01*
X93584419Y-91053952D02*
X93536800Y-90958714D01*
X93536800Y-90958714D02*
X93489180Y-90911095D01*
X93489180Y-90911095D02*
X93393942Y-90863476D01*
X93393942Y-90863476D02*
X92584419Y-90863476D01*
X92679657Y-90434904D02*
X92632038Y-90387285D01*
X92632038Y-90387285D02*
X92584419Y-90292047D01*
X92584419Y-90292047D02*
X92584419Y-90053952D01*
X92584419Y-90053952D02*
X92632038Y-89958714D01*
X92632038Y-89958714D02*
X92679657Y-89911095D01*
X92679657Y-89911095D02*
X92774895Y-89863476D01*
X92774895Y-89863476D02*
X92870133Y-89863476D01*
X92870133Y-89863476D02*
X93012990Y-89911095D01*
X93012990Y-89911095D02*
X93584419Y-90482523D01*
X93584419Y-90482523D02*
X93584419Y-89863476D01*
%TO.C,C1*%
X101675433Y-67497780D02*
X101627814Y-67545400D01*
X101627814Y-67545400D02*
X101484957Y-67593019D01*
X101484957Y-67593019D02*
X101389719Y-67593019D01*
X101389719Y-67593019D02*
X101246862Y-67545400D01*
X101246862Y-67545400D02*
X101151624Y-67450161D01*
X101151624Y-67450161D02*
X101104005Y-67354923D01*
X101104005Y-67354923D02*
X101056386Y-67164447D01*
X101056386Y-67164447D02*
X101056386Y-67021590D01*
X101056386Y-67021590D02*
X101104005Y-66831114D01*
X101104005Y-66831114D02*
X101151624Y-66735876D01*
X101151624Y-66735876D02*
X101246862Y-66640638D01*
X101246862Y-66640638D02*
X101389719Y-66593019D01*
X101389719Y-66593019D02*
X101484957Y-66593019D01*
X101484957Y-66593019D02*
X101627814Y-66640638D01*
X101627814Y-66640638D02*
X101675433Y-66688257D01*
X102627814Y-67593019D02*
X102056386Y-67593019D01*
X102342100Y-67593019D02*
X102342100Y-66593019D01*
X102342100Y-66593019D02*
X102246862Y-66735876D01*
X102246862Y-66735876D02*
X102151624Y-66831114D01*
X102151624Y-66831114D02*
X102056386Y-66878733D01*
%TO.C,R11*%
X126582219Y-102339057D02*
X126106028Y-102672390D01*
X126582219Y-102910485D02*
X125582219Y-102910485D01*
X125582219Y-102910485D02*
X125582219Y-102529533D01*
X125582219Y-102529533D02*
X125629838Y-102434295D01*
X125629838Y-102434295D02*
X125677457Y-102386676D01*
X125677457Y-102386676D02*
X125772695Y-102339057D01*
X125772695Y-102339057D02*
X125915552Y-102339057D01*
X125915552Y-102339057D02*
X126010790Y-102386676D01*
X126010790Y-102386676D02*
X126058409Y-102434295D01*
X126058409Y-102434295D02*
X126106028Y-102529533D01*
X126106028Y-102529533D02*
X126106028Y-102910485D01*
X126582219Y-101386676D02*
X126582219Y-101958104D01*
X126582219Y-101672390D02*
X125582219Y-101672390D01*
X125582219Y-101672390D02*
X125725076Y-101767628D01*
X125725076Y-101767628D02*
X125820314Y-101862866D01*
X125820314Y-101862866D02*
X125867933Y-101958104D01*
X126582219Y-100434295D02*
X126582219Y-101005723D01*
X126582219Y-100720009D02*
X125582219Y-100720009D01*
X125582219Y-100720009D02*
X125725076Y-100815247D01*
X125725076Y-100815247D02*
X125820314Y-100910485D01*
X125820314Y-100910485D02*
X125867933Y-101005723D01*
%TO.C,R8*%
X128214533Y-95707219D02*
X127881200Y-95231028D01*
X127643105Y-95707219D02*
X127643105Y-94707219D01*
X127643105Y-94707219D02*
X128024057Y-94707219D01*
X128024057Y-94707219D02*
X128119295Y-94754838D01*
X128119295Y-94754838D02*
X128166914Y-94802457D01*
X128166914Y-94802457D02*
X128214533Y-94897695D01*
X128214533Y-94897695D02*
X128214533Y-95040552D01*
X128214533Y-95040552D02*
X128166914Y-95135790D01*
X128166914Y-95135790D02*
X128119295Y-95183409D01*
X128119295Y-95183409D02*
X128024057Y-95231028D01*
X128024057Y-95231028D02*
X127643105Y-95231028D01*
X128785962Y-95135790D02*
X128690724Y-95088171D01*
X128690724Y-95088171D02*
X128643105Y-95040552D01*
X128643105Y-95040552D02*
X128595486Y-94945314D01*
X128595486Y-94945314D02*
X128595486Y-94897695D01*
X128595486Y-94897695D02*
X128643105Y-94802457D01*
X128643105Y-94802457D02*
X128690724Y-94754838D01*
X128690724Y-94754838D02*
X128785962Y-94707219D01*
X128785962Y-94707219D02*
X128976438Y-94707219D01*
X128976438Y-94707219D02*
X129071676Y-94754838D01*
X129071676Y-94754838D02*
X129119295Y-94802457D01*
X129119295Y-94802457D02*
X129166914Y-94897695D01*
X129166914Y-94897695D02*
X129166914Y-94945314D01*
X129166914Y-94945314D02*
X129119295Y-95040552D01*
X129119295Y-95040552D02*
X129071676Y-95088171D01*
X129071676Y-95088171D02*
X128976438Y-95135790D01*
X128976438Y-95135790D02*
X128785962Y-95135790D01*
X128785962Y-95135790D02*
X128690724Y-95183409D01*
X128690724Y-95183409D02*
X128643105Y-95231028D01*
X128643105Y-95231028D02*
X128595486Y-95326266D01*
X128595486Y-95326266D02*
X128595486Y-95516742D01*
X128595486Y-95516742D02*
X128643105Y-95611980D01*
X128643105Y-95611980D02*
X128690724Y-95659600D01*
X128690724Y-95659600D02*
X128785962Y-95707219D01*
X128785962Y-95707219D02*
X128976438Y-95707219D01*
X128976438Y-95707219D02*
X129071676Y-95659600D01*
X129071676Y-95659600D02*
X129119295Y-95611980D01*
X129119295Y-95611980D02*
X129166914Y-95516742D01*
X129166914Y-95516742D02*
X129166914Y-95326266D01*
X129166914Y-95326266D02*
X129119295Y-95231028D01*
X129119295Y-95231028D02*
X129071676Y-95183409D01*
X129071676Y-95183409D02*
X128976438Y-95135790D01*
%TO.C,J2*%
X88891019Y-91793333D02*
X89605304Y-91793333D01*
X89605304Y-91793333D02*
X89748161Y-91840952D01*
X89748161Y-91840952D02*
X89843400Y-91936190D01*
X89843400Y-91936190D02*
X89891019Y-92079047D01*
X89891019Y-92079047D02*
X89891019Y-92174285D01*
X88986257Y-91364761D02*
X88938638Y-91317142D01*
X88938638Y-91317142D02*
X88891019Y-91221904D01*
X88891019Y-91221904D02*
X88891019Y-90983809D01*
X88891019Y-90983809D02*
X88938638Y-90888571D01*
X88938638Y-90888571D02*
X88986257Y-90840952D01*
X88986257Y-90840952D02*
X89081495Y-90793333D01*
X89081495Y-90793333D02*
X89176733Y-90793333D01*
X89176733Y-90793333D02*
X89319590Y-90840952D01*
X89319590Y-90840952D02*
X89891019Y-91412380D01*
X89891019Y-91412380D02*
X89891019Y-90793333D01*
%TO.C,R7*%
X115331019Y-89670866D02*
X114854828Y-90004199D01*
X115331019Y-90242294D02*
X114331019Y-90242294D01*
X114331019Y-90242294D02*
X114331019Y-89861342D01*
X114331019Y-89861342D02*
X114378638Y-89766104D01*
X114378638Y-89766104D02*
X114426257Y-89718485D01*
X114426257Y-89718485D02*
X114521495Y-89670866D01*
X114521495Y-89670866D02*
X114664352Y-89670866D01*
X114664352Y-89670866D02*
X114759590Y-89718485D01*
X114759590Y-89718485D02*
X114807209Y-89766104D01*
X114807209Y-89766104D02*
X114854828Y-89861342D01*
X114854828Y-89861342D02*
X114854828Y-90242294D01*
X114331019Y-89337532D02*
X114331019Y-88670866D01*
X114331019Y-88670866D02*
X115331019Y-89099437D01*
%TO.C,C4*%
X89784980Y-96706666D02*
X89832600Y-96754285D01*
X89832600Y-96754285D02*
X89880219Y-96897142D01*
X89880219Y-96897142D02*
X89880219Y-96992380D01*
X89880219Y-96992380D02*
X89832600Y-97135237D01*
X89832600Y-97135237D02*
X89737361Y-97230475D01*
X89737361Y-97230475D02*
X89642123Y-97278094D01*
X89642123Y-97278094D02*
X89451647Y-97325713D01*
X89451647Y-97325713D02*
X89308790Y-97325713D01*
X89308790Y-97325713D02*
X89118314Y-97278094D01*
X89118314Y-97278094D02*
X89023076Y-97230475D01*
X89023076Y-97230475D02*
X88927838Y-97135237D01*
X88927838Y-97135237D02*
X88880219Y-96992380D01*
X88880219Y-96992380D02*
X88880219Y-96897142D01*
X88880219Y-96897142D02*
X88927838Y-96754285D01*
X88927838Y-96754285D02*
X88975457Y-96706666D01*
X89213552Y-95849523D02*
X89880219Y-95849523D01*
X88832600Y-96087618D02*
X89546885Y-96325713D01*
X89546885Y-96325713D02*
X89546885Y-95706666D01*
%TO.C,J1*%
X132508666Y-78246619D02*
X132508666Y-78960904D01*
X132508666Y-78960904D02*
X132461047Y-79103761D01*
X132461047Y-79103761D02*
X132365809Y-79199000D01*
X132365809Y-79199000D02*
X132222952Y-79246619D01*
X132222952Y-79246619D02*
X132127714Y-79246619D01*
X133508666Y-79246619D02*
X132937238Y-79246619D01*
X133222952Y-79246619D02*
X133222952Y-78246619D01*
X133222952Y-78246619D02*
X133127714Y-78389476D01*
X133127714Y-78389476D02*
X133032476Y-78484714D01*
X133032476Y-78484714D02*
X132937238Y-78532333D01*
%TO.C,R3*%
X120157019Y-89645466D02*
X119680828Y-89978799D01*
X120157019Y-90216894D02*
X119157019Y-90216894D01*
X119157019Y-90216894D02*
X119157019Y-89835942D01*
X119157019Y-89835942D02*
X119204638Y-89740704D01*
X119204638Y-89740704D02*
X119252257Y-89693085D01*
X119252257Y-89693085D02*
X119347495Y-89645466D01*
X119347495Y-89645466D02*
X119490352Y-89645466D01*
X119490352Y-89645466D02*
X119585590Y-89693085D01*
X119585590Y-89693085D02*
X119633209Y-89740704D01*
X119633209Y-89740704D02*
X119680828Y-89835942D01*
X119680828Y-89835942D02*
X119680828Y-90216894D01*
X119157019Y-89312132D02*
X119157019Y-88693085D01*
X119157019Y-88693085D02*
X119537971Y-89026418D01*
X119537971Y-89026418D02*
X119537971Y-88883561D01*
X119537971Y-88883561D02*
X119585590Y-88788323D01*
X119585590Y-88788323D02*
X119633209Y-88740704D01*
X119633209Y-88740704D02*
X119728447Y-88693085D01*
X119728447Y-88693085D02*
X119966542Y-88693085D01*
X119966542Y-88693085D02*
X120061780Y-88740704D01*
X120061780Y-88740704D02*
X120109400Y-88788323D01*
X120109400Y-88788323D02*
X120157019Y-88883561D01*
X120157019Y-88883561D02*
X120157019Y-89169275D01*
X120157019Y-89169275D02*
X120109400Y-89264513D01*
X120109400Y-89264513D02*
X120061780Y-89312132D01*
%TO.C,D2*%
X112130619Y-90369294D02*
X111130619Y-90369294D01*
X111130619Y-90369294D02*
X111130619Y-90131199D01*
X111130619Y-90131199D02*
X111178238Y-89988342D01*
X111178238Y-89988342D02*
X111273476Y-89893104D01*
X111273476Y-89893104D02*
X111368714Y-89845485D01*
X111368714Y-89845485D02*
X111559190Y-89797866D01*
X111559190Y-89797866D02*
X111702047Y-89797866D01*
X111702047Y-89797866D02*
X111892523Y-89845485D01*
X111892523Y-89845485D02*
X111987761Y-89893104D01*
X111987761Y-89893104D02*
X112083000Y-89988342D01*
X112083000Y-89988342D02*
X112130619Y-90131199D01*
X112130619Y-90131199D02*
X112130619Y-90369294D01*
X111225857Y-89416913D02*
X111178238Y-89369294D01*
X111178238Y-89369294D02*
X111130619Y-89274056D01*
X111130619Y-89274056D02*
X111130619Y-89035961D01*
X111130619Y-89035961D02*
X111178238Y-88940723D01*
X111178238Y-88940723D02*
X111225857Y-88893104D01*
X111225857Y-88893104D02*
X111321095Y-88845485D01*
X111321095Y-88845485D02*
X111416333Y-88845485D01*
X111416333Y-88845485D02*
X111559190Y-88893104D01*
X111559190Y-88893104D02*
X112130619Y-89464532D01*
X112130619Y-89464532D02*
X112130619Y-88845485D01*
%TO.C,R2*%
X127985933Y-83133219D02*
X127652600Y-82657028D01*
X127414505Y-83133219D02*
X127414505Y-82133219D01*
X127414505Y-82133219D02*
X127795457Y-82133219D01*
X127795457Y-82133219D02*
X127890695Y-82180838D01*
X127890695Y-82180838D02*
X127938314Y-82228457D01*
X127938314Y-82228457D02*
X127985933Y-82323695D01*
X127985933Y-82323695D02*
X127985933Y-82466552D01*
X127985933Y-82466552D02*
X127938314Y-82561790D01*
X127938314Y-82561790D02*
X127890695Y-82609409D01*
X127890695Y-82609409D02*
X127795457Y-82657028D01*
X127795457Y-82657028D02*
X127414505Y-82657028D01*
X128366886Y-82228457D02*
X128414505Y-82180838D01*
X128414505Y-82180838D02*
X128509743Y-82133219D01*
X128509743Y-82133219D02*
X128747838Y-82133219D01*
X128747838Y-82133219D02*
X128843076Y-82180838D01*
X128843076Y-82180838D02*
X128890695Y-82228457D01*
X128890695Y-82228457D02*
X128938314Y-82323695D01*
X128938314Y-82323695D02*
X128938314Y-82418933D01*
X128938314Y-82418933D02*
X128890695Y-82561790D01*
X128890695Y-82561790D02*
X128319267Y-83133219D01*
X128319267Y-83133219D02*
X128938314Y-83133219D01*
%TO.C,D1*%
X117693219Y-90242294D02*
X116693219Y-90242294D01*
X116693219Y-90242294D02*
X116693219Y-90004199D01*
X116693219Y-90004199D02*
X116740838Y-89861342D01*
X116740838Y-89861342D02*
X116836076Y-89766104D01*
X116836076Y-89766104D02*
X116931314Y-89718485D01*
X116931314Y-89718485D02*
X117121790Y-89670866D01*
X117121790Y-89670866D02*
X117264647Y-89670866D01*
X117264647Y-89670866D02*
X117455123Y-89718485D01*
X117455123Y-89718485D02*
X117550361Y-89766104D01*
X117550361Y-89766104D02*
X117645600Y-89861342D01*
X117645600Y-89861342D02*
X117693219Y-90004199D01*
X117693219Y-90004199D02*
X117693219Y-90242294D01*
X117693219Y-88718485D02*
X117693219Y-89289913D01*
X117693219Y-89004199D02*
X116693219Y-89004199D01*
X116693219Y-89004199D02*
X116836076Y-89099437D01*
X116836076Y-89099437D02*
X116931314Y-89194675D01*
X116931314Y-89194675D02*
X116978933Y-89289913D01*
%TO.C,C3*%
X92858380Y-96452666D02*
X92906000Y-96500285D01*
X92906000Y-96500285D02*
X92953619Y-96643142D01*
X92953619Y-96643142D02*
X92953619Y-96738380D01*
X92953619Y-96738380D02*
X92906000Y-96881237D01*
X92906000Y-96881237D02*
X92810761Y-96976475D01*
X92810761Y-96976475D02*
X92715523Y-97024094D01*
X92715523Y-97024094D02*
X92525047Y-97071713D01*
X92525047Y-97071713D02*
X92382190Y-97071713D01*
X92382190Y-97071713D02*
X92191714Y-97024094D01*
X92191714Y-97024094D02*
X92096476Y-96976475D01*
X92096476Y-96976475D02*
X92001238Y-96881237D01*
X92001238Y-96881237D02*
X91953619Y-96738380D01*
X91953619Y-96738380D02*
X91953619Y-96643142D01*
X91953619Y-96643142D02*
X92001238Y-96500285D01*
X92001238Y-96500285D02*
X92048857Y-96452666D01*
X91953619Y-96119332D02*
X91953619Y-95500285D01*
X91953619Y-95500285D02*
X92334571Y-95833618D01*
X92334571Y-95833618D02*
X92334571Y-95690761D01*
X92334571Y-95690761D02*
X92382190Y-95595523D01*
X92382190Y-95595523D02*
X92429809Y-95547904D01*
X92429809Y-95547904D02*
X92525047Y-95500285D01*
X92525047Y-95500285D02*
X92763142Y-95500285D01*
X92763142Y-95500285D02*
X92858380Y-95547904D01*
X92858380Y-95547904D02*
X92906000Y-95595523D01*
X92906000Y-95595523D02*
X92953619Y-95690761D01*
X92953619Y-95690761D02*
X92953619Y-95976475D01*
X92953619Y-95976475D02*
X92906000Y-96071713D01*
X92906000Y-96071713D02*
X92858380Y-96119332D01*
%TO.C,U1*%
X102766619Y-82074504D02*
X103576142Y-82074504D01*
X103576142Y-82074504D02*
X103671380Y-82026885D01*
X103671380Y-82026885D02*
X103719000Y-81979266D01*
X103719000Y-81979266D02*
X103766619Y-81884028D01*
X103766619Y-81884028D02*
X103766619Y-81693552D01*
X103766619Y-81693552D02*
X103719000Y-81598314D01*
X103719000Y-81598314D02*
X103671380Y-81550695D01*
X103671380Y-81550695D02*
X103576142Y-81503076D01*
X103576142Y-81503076D02*
X102766619Y-81503076D01*
X103766619Y-80503076D02*
X103766619Y-81074504D01*
X103766619Y-80788790D02*
X102766619Y-80788790D01*
X102766619Y-80788790D02*
X102909476Y-80884028D01*
X102909476Y-80884028D02*
X103004714Y-80979266D01*
X103004714Y-80979266D02*
X103052333Y-81074504D01*
%TO.C,R1*%
X101671533Y-71120019D02*
X101338200Y-70643828D01*
X101100105Y-71120019D02*
X101100105Y-70120019D01*
X101100105Y-70120019D02*
X101481057Y-70120019D01*
X101481057Y-70120019D02*
X101576295Y-70167638D01*
X101576295Y-70167638D02*
X101623914Y-70215257D01*
X101623914Y-70215257D02*
X101671533Y-70310495D01*
X101671533Y-70310495D02*
X101671533Y-70453352D01*
X101671533Y-70453352D02*
X101623914Y-70548590D01*
X101623914Y-70548590D02*
X101576295Y-70596209D01*
X101576295Y-70596209D02*
X101481057Y-70643828D01*
X101481057Y-70643828D02*
X101100105Y-70643828D01*
X102623914Y-71120019D02*
X102052486Y-71120019D01*
X102338200Y-71120019D02*
X102338200Y-70120019D01*
X102338200Y-70120019D02*
X102242962Y-70262876D01*
X102242962Y-70262876D02*
X102147724Y-70358114D01*
X102147724Y-70358114D02*
X102052486Y-70405733D01*
%TO.C,R5*%
X127731933Y-69112419D02*
X127398600Y-68636228D01*
X127160505Y-69112419D02*
X127160505Y-68112419D01*
X127160505Y-68112419D02*
X127541457Y-68112419D01*
X127541457Y-68112419D02*
X127636695Y-68160038D01*
X127636695Y-68160038D02*
X127684314Y-68207657D01*
X127684314Y-68207657D02*
X127731933Y-68302895D01*
X127731933Y-68302895D02*
X127731933Y-68445752D01*
X127731933Y-68445752D02*
X127684314Y-68540990D01*
X127684314Y-68540990D02*
X127636695Y-68588609D01*
X127636695Y-68588609D02*
X127541457Y-68636228D01*
X127541457Y-68636228D02*
X127160505Y-68636228D01*
X128636695Y-68112419D02*
X128160505Y-68112419D01*
X128160505Y-68112419D02*
X128112886Y-68588609D01*
X128112886Y-68588609D02*
X128160505Y-68540990D01*
X128160505Y-68540990D02*
X128255743Y-68493371D01*
X128255743Y-68493371D02*
X128493838Y-68493371D01*
X128493838Y-68493371D02*
X128589076Y-68540990D01*
X128589076Y-68540990D02*
X128636695Y-68588609D01*
X128636695Y-68588609D02*
X128684314Y-68683847D01*
X128684314Y-68683847D02*
X128684314Y-68921942D01*
X128684314Y-68921942D02*
X128636695Y-69017180D01*
X128636695Y-69017180D02*
X128589076Y-69064800D01*
X128589076Y-69064800D02*
X128493838Y-69112419D01*
X128493838Y-69112419D02*
X128255743Y-69112419D01*
X128255743Y-69112419D02*
X128160505Y-69064800D01*
X128160505Y-69064800D02*
X128112886Y-69017180D01*
D11*
%TO.C,U4*%
X98891800Y-63672400D02*
X82127800Y-63672400D01*
X82127800Y-63672400D02*
X82127800Y-85770400D01*
X82127800Y-85770400D02*
X98891800Y-85770400D01*
X98891800Y-85770400D02*
X98891800Y-63672400D01*
%TO.C,R9*%
X129065400Y-101783336D02*
X129065400Y-102237464D01*
X127595400Y-101783336D02*
X127595400Y-102237464D01*
%TO.C,R10*%
X125204600Y-97151136D02*
X125204600Y-97605264D01*
X123734600Y-97151136D02*
X123734600Y-97605264D01*
%TO.C,R6*%
X128151064Y-76243800D02*
X127696936Y-76243800D01*
X128151064Y-74773800D02*
X127696936Y-74773800D01*
%TO.C,SW1*%
X105871000Y-84767200D02*
X105871000Y-86617200D01*
X106521000Y-86617200D02*
X105871000Y-86617200D01*
X106521000Y-86617200D02*
X106521000Y-92137200D01*
X105130000Y-86617200D02*
X103861000Y-86617200D01*
X103861000Y-86617200D02*
X103861000Y-92137200D01*
X106521000Y-92137200D02*
X105252000Y-92137200D01*
X105130000Y-92137200D02*
X103861000Y-92137200D01*
%TO.C,C2*%
X101763600Y-93241352D02*
X101763600Y-92718848D01*
X103233600Y-93241352D02*
X103233600Y-92718848D01*
%TO.C,R4*%
X108520000Y-86784864D02*
X108520000Y-86330736D01*
X109990000Y-86784864D02*
X109990000Y-86330736D01*
%TO.C,U2*%
X94211800Y-94773000D02*
X94211800Y-88763000D01*
X101031800Y-92523000D02*
X101031800Y-88763000D01*
X94211800Y-88763000D02*
X95471800Y-88763000D01*
X101031800Y-88763000D02*
X99771800Y-88763000D01*
%TO.C,SW5*%
X113224000Y-97222000D02*
X114554000Y-97222000D01*
X113224000Y-98552000D02*
X113224000Y-97222000D01*
X113224000Y-99822000D02*
X113224000Y-102422000D01*
X113224000Y-99822000D02*
X115884000Y-99822000D01*
X113224000Y-102422000D02*
X115884000Y-102422000D01*
X115884000Y-99822000D02*
X115884000Y-102422000D01*
%TO.C,U3*%
X131004000Y-90618000D02*
X132334000Y-90618000D01*
X131004000Y-91948000D02*
X131004000Y-90618000D01*
X131004000Y-93218000D02*
X131004000Y-103438000D01*
X131004000Y-93218000D02*
X133664000Y-93218000D01*
X131004000Y-103438000D02*
X133664000Y-103438000D01*
X133664000Y-93218000D02*
X133664000Y-103438000D01*
%TO.C,C1*%
X102103352Y-66185400D02*
X101580848Y-66185400D01*
X102103352Y-64715400D02*
X101580848Y-64715400D01*
%TO.C,R11*%
X125204600Y-101469136D02*
X125204600Y-101923264D01*
X123734600Y-101469136D02*
X123734600Y-101923264D01*
%TO.C,SW3*%
X107232200Y-102168000D02*
X105902200Y-102168000D01*
X107232200Y-100838000D02*
X107232200Y-102168000D01*
X107232200Y-99568000D02*
X107232200Y-96968000D01*
X107232200Y-99568000D02*
X104572200Y-99568000D01*
X107232200Y-96968000D02*
X104572200Y-96968000D01*
X104572200Y-99568000D02*
X104572200Y-96968000D01*
%TO.C,R8*%
X129065400Y-97465336D02*
X129065400Y-97919464D01*
X127595400Y-97465336D02*
X127595400Y-97919464D01*
%TO.C,SW2*%
X122545000Y-93885600D02*
X122545000Y-92035600D01*
X121895000Y-92035600D02*
X122545000Y-92035600D01*
X121895000Y-92035600D02*
X121895000Y-86515600D01*
X123286000Y-92035600D02*
X124555000Y-92035600D01*
X124555000Y-92035600D02*
X124555000Y-86515600D01*
X121895000Y-86515600D02*
X123164000Y-86515600D01*
X123286000Y-86515600D02*
X124555000Y-86515600D01*
%TO.C,SW4*%
X108839400Y-97461200D02*
X110169400Y-97461200D01*
X108839400Y-98791200D02*
X108839400Y-97461200D01*
X108839400Y-100061200D02*
X108839400Y-102661200D01*
X108839400Y-100061200D02*
X111499400Y-100061200D01*
X108839400Y-102661200D02*
X111499400Y-102661200D01*
X111499400Y-100061200D02*
X111499400Y-102661200D01*
%TO.C,J2*%
X87928400Y-86560000D02*
X86628400Y-86560000D01*
X87628400Y-86860000D02*
X87628400Y-88860000D01*
X73128400Y-86860000D02*
X87628400Y-86860000D01*
X87928400Y-88260000D02*
X87928400Y-86560000D01*
X87628400Y-94060000D02*
X87628400Y-96060000D01*
X87628400Y-96060000D02*
X86328400Y-96060000D01*
X81728400Y-96060000D02*
X73128400Y-96060000D01*
X73128400Y-96060000D02*
X73128400Y-86860000D01*
%TO.C,R7*%
X113981000Y-86683264D02*
X113981000Y-86229136D01*
X115451000Y-86683264D02*
X115451000Y-86229136D01*
%TO.C,C4*%
X88784200Y-93626252D02*
X88784200Y-93103748D01*
X90254200Y-93626252D02*
X90254200Y-93103748D01*
%TO.C,SW6*%
X117796000Y-97222000D02*
X119126000Y-97222000D01*
X117796000Y-98552000D02*
X117796000Y-97222000D01*
X117796000Y-99822000D02*
X117796000Y-102422000D01*
X117796000Y-99822000D02*
X120456000Y-99822000D01*
X117796000Y-102422000D02*
X120456000Y-102422000D01*
X120456000Y-99822000D02*
X120456000Y-102422000D01*
%TO.C,U5*%
X97949400Y-102442000D02*
X97949400Y-101112000D01*
X99279400Y-102442000D02*
X97949400Y-102442000D01*
X100549400Y-102442000D02*
X103149400Y-102442000D01*
X100549400Y-102442000D02*
X100549400Y-99782000D01*
X103149400Y-102442000D02*
X103149400Y-99782000D01*
X100549400Y-99782000D02*
X103149400Y-99782000D01*
%TO.C,J1*%
X134172000Y-77784000D02*
X132842000Y-77784000D01*
X134172000Y-76454000D02*
X134172000Y-77784000D01*
X134172000Y-75184000D02*
X134172000Y-67504000D01*
X134172000Y-75184000D02*
X131512000Y-75184000D01*
X134172000Y-67504000D02*
X131512000Y-67504000D01*
X131512000Y-75184000D02*
X131512000Y-67504000D01*
%TO.C,R3*%
X118984800Y-86464064D02*
X118984800Y-86009936D01*
X120454800Y-86464064D02*
X120454800Y-86009936D01*
%TO.C,D2*%
X110682600Y-88290800D02*
X112602600Y-88290800D01*
X112602600Y-88290800D02*
X112602600Y-85430800D01*
X110682600Y-85430800D02*
X110682600Y-88290800D01*
%TO.C,R2*%
X128379664Y-81755600D02*
X127925536Y-81755600D01*
X128379664Y-80285600D02*
X127925536Y-80285600D01*
%TO.C,D1*%
X116194400Y-88325200D02*
X118114400Y-88325200D01*
X118114400Y-88325200D02*
X118114400Y-85465200D01*
X116194400Y-85465200D02*
X116194400Y-88325200D01*
%TO.C,C3*%
X93226000Y-92896648D02*
X93226000Y-93419152D01*
X91756000Y-92896648D02*
X91756000Y-93419152D01*
%TO.C,U1*%
X104794000Y-57022600D02*
X104794000Y-63437600D01*
X104794000Y-57022600D02*
X123034000Y-57022600D01*
X104794000Y-63437600D02*
X104414000Y-63437600D01*
X104794000Y-81982600D02*
X104794000Y-82762600D01*
X104794000Y-82762600D02*
X105794000Y-82762600D01*
X123034000Y-57022600D02*
X123034000Y-63437600D01*
X123034000Y-81982600D02*
X123034000Y-82762600D01*
X123034000Y-82762600D02*
X122034000Y-82762600D01*
%TO.C,R1*%
X101652536Y-68144400D02*
X102106664Y-68144400D01*
X101652536Y-69614400D02*
X102106664Y-69614400D01*
%TO.C,R5*%
X128125664Y-67734800D02*
X127671536Y-67734800D01*
X128125664Y-66264800D02*
X127671536Y-66264800D01*
%TD*%
M02*
