%TF.GenerationSoftware,KiCad,Pcbnew,7.0.1*%
%TF.CreationDate,2023-04-20T22:59:21+02:00*%
%TF.ProjectId,Laserdinges,4c617365-7264-4696-9e67-65732e6b6963,rev?*%
%TF.SameCoordinates,Original*%
%TF.FileFunction,Copper,L1,Top*%
%TF.FilePolarity,Positive*%
%FSLAX46Y46*%
G04 Gerber Fmt 4.6, Leading zero omitted, Abs format (unit mm)*
G04 Created by KiCad (PCBNEW 7.0.1) date 2023-04-20 22:59:21*
%MOMM*%
%LPD*%
G01*
G04 APERTURE LIST*
G04 Aperture macros list*
%AMRoundRect*
0 Rectangle with rounded corners*
0 $1 Rounding radius*
0 $2 $3 $4 $5 $6 $7 $8 $9 X,Y pos of 4 corners*
0 Add a 4 corners polygon primitive as box body*
4,1,4,$2,$3,$4,$5,$6,$7,$8,$9,$2,$3,0*
0 Add four circle primitives for the rounded corners*
1,1,$1+$1,$2,$3*
1,1,$1+$1,$4,$5*
1,1,$1+$1,$6,$7*
1,1,$1+$1,$8,$9*
0 Add four rect primitives between the rounded corners*
20,1,$1+$1,$2,$3,$4,$5,0*
20,1,$1+$1,$4,$5,$6,$7,0*
20,1,$1+$1,$6,$7,$8,$9,0*
20,1,$1+$1,$8,$9,$2,$3,0*%
G04 Aperture macros list end*
%TA.AperFunction,ComponentPad*%
%ADD10C,2.032000*%
%TD*%
%TA.AperFunction,SMDPad,CuDef*%
%ADD11RoundRect,0.250000X-0.450000X0.350000X-0.450000X-0.350000X0.450000X-0.350000X0.450000X0.350000X0*%
%TD*%
%TA.AperFunction,SMDPad,CuDef*%
%ADD12RoundRect,0.250000X0.350000X0.450000X-0.350000X0.450000X-0.350000X-0.450000X0.350000X-0.450000X0*%
%TD*%
%TA.AperFunction,SMDPad,CuDef*%
%ADD13R,0.760000X1.600000*%
%TD*%
%TA.AperFunction,SMDPad,CuDef*%
%ADD14RoundRect,0.250000X0.475000X-0.337500X0.475000X0.337500X-0.475000X0.337500X-0.475000X-0.337500X0*%
%TD*%
%TA.AperFunction,SMDPad,CuDef*%
%ADD15RoundRect,0.250000X0.450000X-0.350000X0.450000X0.350000X-0.450000X0.350000X-0.450000X-0.350000X0*%
%TD*%
%TA.AperFunction,SMDPad,CuDef*%
%ADD16R,1.500000X2.000000*%
%TD*%
%TA.AperFunction,SMDPad,CuDef*%
%ADD17R,3.800000X2.000000*%
%TD*%
%TA.AperFunction,ComponentPad*%
%ADD18R,1.700000X1.700000*%
%TD*%
%TA.AperFunction,ComponentPad*%
%ADD19O,1.700000X1.700000*%
%TD*%
%TA.AperFunction,SMDPad,CuDef*%
%ADD20RoundRect,0.250000X0.337500X0.475000X-0.337500X0.475000X-0.337500X-0.475000X0.337500X-0.475000X0*%
%TD*%
%TA.AperFunction,ComponentPad*%
%ADD21R,2.000000X4.600000*%
%TD*%
%TA.AperFunction,ComponentPad*%
%ADD22O,2.000000X4.200000*%
%TD*%
%TA.AperFunction,ComponentPad*%
%ADD23O,4.200000X2.000000*%
%TD*%
%TA.AperFunction,SMDPad,CuDef*%
%ADD24RoundRect,0.250000X0.450000X-0.325000X0.450000X0.325000X-0.450000X0.325000X-0.450000X-0.325000X0*%
%TD*%
%TA.AperFunction,SMDPad,CuDef*%
%ADD25RoundRect,0.250000X-0.475000X0.337500X-0.475000X-0.337500X0.475000X-0.337500X0.475000X0.337500X0*%
%TD*%
%TA.AperFunction,SMDPad,CuDef*%
%ADD26R,1.500000X0.900000*%
%TD*%
%TA.AperFunction,SMDPad,CuDef*%
%ADD27R,0.900000X1.500000*%
%TD*%
%TA.AperFunction,SMDPad,CuDef*%
%ADD28R,1.050000X1.050000*%
%TD*%
%TA.AperFunction,HeatsinkPad*%
%ADD29C,0.600000*%
%TD*%
%TA.AperFunction,SMDPad,CuDef*%
%ADD30R,4.200000X4.200000*%
%TD*%
%TA.AperFunction,SMDPad,CuDef*%
%ADD31RoundRect,0.250000X-0.350000X-0.450000X0.350000X-0.450000X0.350000X0.450000X-0.350000X0.450000X0*%
%TD*%
%TA.AperFunction,ViaPad*%
%ADD32C,0.800000*%
%TD*%
%TA.AperFunction,Conductor*%
%ADD33C,0.406400*%
%TD*%
G04 APERTURE END LIST*
D10*
%TO.P,U4,1,IN-*%
%TO.N,Net-(J2-Pad2)*%
X84032800Y-83992400D03*
%TO.P,U4,2,IN-*%
X86572800Y-83992400D03*
%TO.P,U4,3,IN+*%
%TO.N,Net-(J2-Pad1)*%
X94700800Y-83992400D03*
%TO.P,U4,4,IN+*%
X97240800Y-83992400D03*
%TO.P,U4,5,OUT+*%
%TO.N,VDD*%
X97240800Y-65450400D03*
%TO.P,U4,6,OUT+*%
X94700800Y-65450400D03*
%TO.P,U4,7,OUT-*%
%TO.N,GND*%
X86572800Y-65450400D03*
%TO.P,U4,8,OUT-*%
X84032800Y-65450400D03*
%TD*%
D11*
%TO.P,R9,1*%
%TO.N,A4*%
X128330400Y-101010400D03*
%TO.P,R9,2*%
%TO.N,Net-(U3-VRY)*%
X128330400Y-103010400D03*
%TD*%
%TO.P,R10,1*%
%TO.N,GND*%
X124469600Y-96378200D03*
%TO.P,R10,2*%
%TO.N,A5*%
X124469600Y-98378200D03*
%TD*%
D12*
%TO.P,R6,1*%
%TO.N,+3.3V*%
X128924000Y-75508800D03*
%TO.P,R6,2*%
%TO.N,GPIO5*%
X126924000Y-75508800D03*
%TD*%
D13*
%TO.P,SW1,1,1*%
%TO.N,/EN*%
X105191000Y-85567200D03*
%TO.P,SW1,2,2*%
%TO.N,GND*%
X105191000Y-93187200D03*
%TD*%
D14*
%TO.P,C2,1*%
%TO.N,VDD*%
X102498600Y-94017600D03*
%TO.P,C2,2*%
%TO.N,GND*%
X102498600Y-91942600D03*
%TD*%
D15*
%TO.P,R4,1*%
%TO.N,+3.3V*%
X109255000Y-87557800D03*
%TO.P,R4,2*%
%TO.N,Net-(D2-A)*%
X109255000Y-85557800D03*
%TD*%
D16*
%TO.P,U2,1,GND*%
%TO.N,GND*%
X95321800Y-93823000D03*
%TO.P,U2,2,VO*%
%TO.N,+3.3V*%
X97621800Y-93823000D03*
D17*
X97621800Y-87523000D03*
D16*
%TO.P,U2,3,VI*%
%TO.N,VDD*%
X99921800Y-93823000D03*
%TD*%
D18*
%TO.P,SW5,1*%
%TO.N,+3.3V*%
X114554000Y-98552000D03*
D19*
%TO.P,SW5,2*%
%TO.N,GPIO18*%
X114554000Y-101092000D03*
%TD*%
D18*
%TO.P,U3,1,GND*%
%TO.N,GND*%
X132334000Y-91948000D03*
D19*
%TO.P,U3,2,+5V*%
%TO.N,VDD*%
X132334000Y-94488000D03*
%TO.P,U3,3,VRX*%
%TO.N,Net-(U3-VRX)*%
X132334000Y-97028000D03*
%TO.P,U3,4,VRY*%
%TO.N,Net-(U3-VRY)*%
X132334000Y-99568000D03*
%TO.P,U3,5,SW*%
%TO.N,unconnected-(U3-SW-Pad5)*%
X132334000Y-102108000D03*
%TD*%
D20*
%TO.P,C1,1*%
%TO.N,+3.3V*%
X102879600Y-65450400D03*
%TO.P,C1,2*%
%TO.N,GND*%
X100804600Y-65450400D03*
%TD*%
D11*
%TO.P,R11,1*%
%TO.N,A5*%
X124469600Y-100696200D03*
%TO.P,R11,2*%
%TO.N,Net-(U3-VRX)*%
X124469600Y-102696200D03*
%TD*%
D18*
%TO.P,SW3,1,A*%
%TO.N,Net-(SW3-A)*%
X105902200Y-100838000D03*
D19*
%TO.P,SW3,2,B*%
%TO.N,VDD*%
X105902200Y-98298000D03*
%TD*%
D11*
%TO.P,R8,1*%
%TO.N,GND*%
X128330400Y-96692400D03*
%TO.P,R8,2*%
%TO.N,A4*%
X128330400Y-98692400D03*
%TD*%
D13*
%TO.P,SW2,1,1*%
%TO.N,GPIO0*%
X123225000Y-93085600D03*
%TO.P,SW2,2,2*%
%TO.N,GND*%
X123225000Y-85465600D03*
%TD*%
D18*
%TO.P,SW4,1*%
%TO.N,+3.3V*%
X110169400Y-98791200D03*
D19*
%TO.P,SW4,2*%
%TO.N,GPIO19*%
X110169400Y-101331200D03*
%TD*%
D21*
%TO.P,J2,1*%
%TO.N,Net-(J2-Pad1)*%
X86928400Y-91460000D03*
D22*
%TO.P,J2,2*%
%TO.N,Net-(J2-Pad2)*%
X80628400Y-91460000D03*
D23*
%TO.P,J2,3*%
%TO.N,N/C*%
X84028400Y-96260000D03*
%TD*%
D15*
%TO.P,R7,1*%
%TO.N,Net-(D1-K)*%
X114716000Y-87456200D03*
%TO.P,R7,2*%
%TO.N,GND*%
X114716000Y-85456200D03*
%TD*%
D14*
%TO.P,C4,1*%
%TO.N,+3.3V*%
X89519200Y-94402500D03*
%TO.P,C4,2*%
%TO.N,GND*%
X89519200Y-92327500D03*
%TD*%
D18*
%TO.P,SW6,1*%
%TO.N,+3.3V*%
X119126000Y-98552000D03*
D19*
%TO.P,SW6,2*%
%TO.N,GPIO21*%
X119126000Y-101092000D03*
%TD*%
D18*
%TO.P,U5,1,-*%
%TO.N,GND*%
X99279400Y-101112000D03*
D19*
%TO.P,U5,2,S*%
%TO.N,Net-(SW3-A)*%
X101819400Y-101112000D03*
%TD*%
D18*
%TO.P,J1,1,Pin_1*%
%TO.N,+3.3V*%
X132842000Y-76454000D03*
D19*
%TO.P,J1,2,Pin_2*%
%TO.N,RX0*%
X132842000Y-73914000D03*
%TO.P,J1,3,Pin_3*%
%TO.N,TX0*%
X132842000Y-71374000D03*
%TO.P,J1,4,Pin_4*%
%TO.N,GND*%
X132842000Y-68834000D03*
%TD*%
D15*
%TO.P,R3,1*%
%TO.N,GND*%
X119719800Y-87237000D03*
%TO.P,R3,2*%
%TO.N,GPIO2*%
X119719800Y-85237000D03*
%TD*%
D24*
%TO.P,D2,1,K*%
%TO.N,GND*%
X111642600Y-87455800D03*
%TO.P,D2,2,A*%
%TO.N,Net-(D2-A)*%
X111642600Y-85405800D03*
%TD*%
D12*
%TO.P,R2,1*%
%TO.N,+3.3V*%
X129152600Y-81020600D03*
%TO.P,R2,2*%
%TO.N,GPIO0*%
X127152600Y-81020600D03*
%TD*%
D24*
%TO.P,D1,1,K*%
%TO.N,Net-(D1-K)*%
X117154400Y-87490200D03*
%TO.P,D1,2,A*%
%TO.N,GPIO2*%
X117154400Y-85440200D03*
%TD*%
D25*
%TO.P,C3,1*%
%TO.N,GND*%
X92491000Y-92120400D03*
%TO.P,C3,2*%
%TO.N,+3.3V*%
X92491000Y-94195400D03*
%TD*%
D26*
%TO.P,U1,1,GND*%
%TO.N,GND*%
X105164000Y-64632600D03*
%TO.P,U1,2,VDD*%
%TO.N,+3.3V*%
X105164000Y-65902600D03*
%TO.P,U1,3,EN*%
%TO.N,/EN*%
X105164000Y-67172600D03*
%TO.P,U1,4,SENSOR_VP*%
%TO.N,VP*%
X105164000Y-68442600D03*
%TO.P,U1,5,SENSOR_VN*%
%TO.N,VN*%
X105164000Y-69712600D03*
%TO.P,U1,6,IO34*%
%TO.N,A6*%
X105164000Y-70982600D03*
%TO.P,U1,7,IO35*%
%TO.N,A7*%
X105164000Y-72252600D03*
%TO.P,U1,8,IO32*%
%TO.N,A4*%
X105164000Y-73522600D03*
%TO.P,U1,9,IO33*%
%TO.N,A5*%
X105164000Y-74792600D03*
%TO.P,U1,10,IO25*%
%TO.N,A8*%
X105164000Y-76062600D03*
%TO.P,U1,11,IO26*%
%TO.N,A9*%
X105164000Y-77332600D03*
%TO.P,U1,12,IO27*%
%TO.N,GPIO27*%
X105164000Y-78602600D03*
%TO.P,U1,13,IO14*%
%TO.N,GPIO14*%
X105164000Y-79872600D03*
%TO.P,U1,14,IO12*%
%TO.N,GPIO12*%
X105164000Y-81142600D03*
D27*
%TO.P,U1,15,GND*%
%TO.N,GND*%
X108204000Y-82392600D03*
%TO.P,U1,16,IO13*%
%TO.N,GPIO13*%
X109474000Y-82392600D03*
%TO.P,U1,17,SHD/SD2*%
%TO.N,unconnected-(U1-SHD{slash}SD2-Pad17)*%
X110744000Y-82392600D03*
%TO.P,U1,18,SWP/SD3*%
%TO.N,unconnected-(U1-SWP{slash}SD3-Pad18)*%
X112014000Y-82392600D03*
%TO.P,U1,19,SCS/CMD*%
%TO.N,unconnected-(U1-SCS{slash}CMD-Pad19)*%
X113284000Y-82392600D03*
%TO.P,U1,20,SCK/CLK*%
%TO.N,unconnected-(U1-SCK{slash}CLK-Pad20)*%
X114554000Y-82392600D03*
%TO.P,U1,21,SDO/SD0*%
%TO.N,unconnected-(U1-SDO{slash}SD0-Pad21)*%
X115824000Y-82392600D03*
%TO.P,U1,22,SDI/SD1*%
%TO.N,unconnected-(U1-SDI{slash}SD1-Pad22)*%
X117094000Y-82392600D03*
%TO.P,U1,23,IO15*%
%TO.N,GPIO15*%
X118364000Y-82392600D03*
%TO.P,U1,24,IO2*%
%TO.N,GPIO2*%
X119634000Y-82392600D03*
D26*
%TO.P,U1,25,IO0*%
%TO.N,GPIO0*%
X122664000Y-81142600D03*
%TO.P,U1,26,IO4*%
%TO.N,GPIO4*%
X122664000Y-79872600D03*
%TO.P,U1,27,IO16*%
%TO.N,RX2*%
X122664000Y-78602600D03*
%TO.P,U1,28,IO17*%
%TO.N,TX2*%
X122664000Y-77332600D03*
%TO.P,U1,29,IO5*%
%TO.N,GPIO5*%
X122664000Y-76062600D03*
%TO.P,U1,30,IO18*%
%TO.N,GPIO18*%
X122664000Y-74792600D03*
%TO.P,U1,31,IO19*%
%TO.N,GPIO19*%
X122664000Y-73522600D03*
%TO.P,U1,32,NC*%
%TO.N,unconnected-(U1-NC-Pad32)*%
X122664000Y-72252600D03*
%TO.P,U1,33,IO21*%
%TO.N,GPIO21*%
X122664000Y-70982600D03*
%TO.P,U1,34,RXD0/IO3*%
%TO.N,RX0*%
X122664000Y-69712600D03*
%TO.P,U1,35,TXD0/IO1*%
%TO.N,TX0*%
X122664000Y-68442600D03*
%TO.P,U1,36,IO22*%
%TO.N,GPIO22*%
X122664000Y-67172600D03*
%TO.P,U1,37,IO23*%
%TO.N,GPIO23*%
X122664000Y-65902600D03*
%TO.P,U1,38,GND*%
%TO.N,GND*%
X122664000Y-64632600D03*
D28*
%TO.P,U1,39,GND*%
X111709000Y-70447600D03*
D29*
X111709000Y-71210100D03*
D28*
X111709000Y-71972600D03*
D29*
X111709000Y-72735100D03*
D28*
X111709000Y-73497600D03*
D29*
X112471500Y-70447600D03*
X112471500Y-71972600D03*
X112471500Y-73497600D03*
D28*
X113234000Y-70447600D03*
D29*
X113234000Y-71210100D03*
D28*
X113234000Y-71972600D03*
D30*
X113234000Y-71972600D03*
D29*
X113234000Y-72735100D03*
D28*
X113234000Y-73497600D03*
D29*
X113996500Y-70447600D03*
X113996500Y-71972600D03*
X113996500Y-73497600D03*
D28*
X114759000Y-70447600D03*
D29*
X114759000Y-71210100D03*
D28*
X114759000Y-71972600D03*
D29*
X114759000Y-72735100D03*
D28*
X114759000Y-73497600D03*
%TD*%
D31*
%TO.P,R1,1*%
%TO.N,+3.3V*%
X100879600Y-68879400D03*
%TO.P,R1,2*%
%TO.N,/EN*%
X102879600Y-68879400D03*
%TD*%
D12*
%TO.P,R5,1*%
%TO.N,+3.3V*%
X128898600Y-66999800D03*
%TO.P,R5,2*%
%TO.N,TX0*%
X126898600Y-66999800D03*
%TD*%
D32*
%TO.N,GND*%
X130302000Y-103886000D03*
X112522000Y-101854000D03*
X116840000Y-101600000D03*
X120650000Y-95250000D03*
X119135600Y-92095000D03*
X115528800Y-92831600D03*
X135772600Y-84119400D03*
X82804000Y-92964000D03*
X103286000Y-71444800D03*
X121675600Y-99969000D03*
X107324600Y-91942600D03*
X90230400Y-103372600D03*
X128457400Y-70022400D03*
X80264000Y-79756000D03*
X128178000Y-86303800D03*
X81289600Y-68498400D03*
X130810000Y-97536000D03*
X137922000Y-65278000D03*
X111252000Y-66548000D03*
X102092200Y-86126000D03*
X124901400Y-84906800D03*
X126247600Y-78150400D03*
X116494000Y-76956600D03*
X92710000Y-88900000D03*
X126425400Y-71978200D03*
X113090400Y-71978200D03*
X90967000Y-75178600D03*
%TO.N,VDD*%
X99882400Y-92018800D03*
X97240800Y-67838000D03*
%TO.N,A5*%
X103590800Y-75508800D03*
X124418800Y-99410200D03*
%TO.N,A4*%
X128609800Y-99816600D03*
X103489200Y-73553000D03*
%TO.N,GPIO18*%
X120964400Y-74670600D03*
%TO.N,GPIO19*%
X120989800Y-73476800D03*
%TO.N,GPIO21*%
X120964400Y-71114600D03*
%TD*%
D33*
%TO.N,+3.3V*%
X114314800Y-98791200D02*
X114554000Y-98552000D01*
X118902800Y-98775200D02*
X119126000Y-98552000D01*
X114554000Y-98552000D02*
X114777200Y-98775200D01*
X114777200Y-98775200D02*
X118902800Y-98775200D01*
X110169400Y-98791200D02*
X114314800Y-98791200D01*
X119126000Y-98298000D02*
X123135200Y-94288800D01*
X123135200Y-94288800D02*
X125675200Y-94288800D01*
X125675200Y-94288800D02*
X129152600Y-90811400D01*
X119126000Y-98552000D02*
X119126000Y-98298000D01*
X129152600Y-90811400D02*
X129152600Y-81020600D01*
X129604400Y-66294000D02*
X128898600Y-66999800D01*
X133858000Y-66294000D02*
X129604400Y-66294000D01*
X135128000Y-74921000D02*
X135128000Y-67564000D01*
X133595000Y-76454000D02*
X135128000Y-74921000D01*
X132842000Y-76454000D02*
X133595000Y-76454000D01*
X135128000Y-67564000D02*
X133858000Y-66294000D01*
%TO.N,TX0*%
X131272800Y-71374000D02*
X126898600Y-66999800D01*
X132842000Y-71374000D02*
X131272800Y-71374000D01*
%TO.N,RX0*%
X126953800Y-69712600D02*
X122558400Y-69712600D01*
X131155200Y-73914000D02*
X126953800Y-69712600D01*
X132842000Y-73914000D02*
X131155200Y-73914000D01*
%TO.N,+3.3V*%
X132842000Y-77207000D02*
X132842000Y-76454000D01*
X129152600Y-80896400D02*
X132842000Y-77207000D01*
X129152600Y-81020600D02*
X129152600Y-80896400D01*
X132835200Y-76460800D02*
X132842000Y-76454000D01*
X128924000Y-75508800D02*
X129876000Y-76460800D01*
X129876000Y-76460800D02*
X132835200Y-76460800D01*
%TO.N,VDD*%
X109474000Y-104902000D02*
X107950000Y-103378000D01*
X133604000Y-104902000D02*
X109474000Y-104902000D01*
X134620000Y-103886000D02*
X133604000Y-104902000D01*
X107950000Y-100019600D02*
X105902200Y-97971800D01*
X134620000Y-95250000D02*
X134620000Y-103886000D01*
X132334000Y-94488000D02*
X133858000Y-94488000D01*
X133858000Y-94488000D02*
X134620000Y-95250000D01*
X107950000Y-103378000D02*
X107950000Y-100019600D01*
%TO.N,Net-(U3-VRY)*%
X131826000Y-99568000D02*
X132334000Y-99568000D01*
X128383600Y-103010400D02*
X131826000Y-99568000D01*
X128330400Y-103010400D02*
X128383600Y-103010400D01*
%TO.N,Net-(U3-VRX)*%
X125984000Y-101181800D02*
X124469600Y-102696200D01*
X125984000Y-95250000D02*
X125984000Y-101181800D01*
X126492000Y-94742000D02*
X125984000Y-95250000D01*
X129286000Y-94742000D02*
X126492000Y-94742000D01*
X131572000Y-97028000D02*
X129286000Y-94742000D01*
X132334000Y-97028000D02*
X131572000Y-97028000D01*
%TO.N,+3.3V*%
X89519200Y-94402500D02*
X92283900Y-94402500D01*
X102879600Y-65450400D02*
X100879600Y-67450400D01*
X107012600Y-66856800D02*
X107012600Y-85315400D01*
X95745400Y-95930400D02*
X97621800Y-94054000D01*
X100879600Y-84265200D02*
X97621800Y-87523000D01*
X103331800Y-65902600D02*
X105058400Y-65902600D01*
X102879600Y-65450400D02*
X103331800Y-65902600D01*
X110169400Y-88472200D02*
X110169400Y-98791200D01*
X105058400Y-65902600D02*
X106058400Y-65902600D01*
X106058400Y-65902600D02*
X107012600Y-66856800D01*
X100879600Y-68879400D02*
X100879600Y-84265200D01*
X97621800Y-90977400D02*
X97621800Y-87523000D01*
X100879600Y-67450400D02*
X100879600Y-68879400D01*
X97621800Y-94054000D02*
X97621800Y-93823000D01*
X94226000Y-95930400D02*
X95745400Y-95930400D01*
X92283900Y-94402500D02*
X92491000Y-94195400D01*
X97621800Y-93823000D02*
X97621800Y-90977400D01*
X92491000Y-94195400D02*
X94226000Y-95930400D01*
X109255000Y-87557800D02*
X110169400Y-88472200D01*
X107012600Y-85315400D02*
X109255000Y-87557800D01*
%TO.N,GND*%
X114653400Y-72735100D02*
X113890900Y-73497600D01*
X113890900Y-70447600D02*
X114653400Y-71210100D01*
X112365900Y-73497600D02*
X113890900Y-73497600D01*
X114653400Y-70447600D02*
X114653400Y-71210100D01*
X114653400Y-73497600D02*
X114653400Y-72735100D01*
X111603400Y-73497600D02*
X113128400Y-71972600D01*
X111603400Y-71210100D02*
X112365900Y-70447600D01*
X111603400Y-70447600D02*
X111603400Y-71210100D01*
%TO.N,VDD*%
X99921800Y-93823000D02*
X102304000Y-93823000D01*
X102304000Y-93823000D02*
X102498600Y-94017600D01*
X99921800Y-92058200D02*
X99921800Y-93823000D01*
X97240800Y-65450400D02*
X97240800Y-67838000D01*
X105902200Y-97421200D02*
X105902200Y-98511800D01*
X94700800Y-65450400D02*
X97240800Y-65450400D01*
X99882400Y-92018800D02*
X99921800Y-92058200D01*
X102498600Y-94017600D02*
X105902200Y-97421200D01*
%TO.N,Net-(D1-K)*%
X114716000Y-87456200D02*
X117120400Y-87456200D01*
X117120400Y-87456200D02*
X117154400Y-87490200D01*
%TO.N,GPIO2*%
X119528400Y-85045600D02*
X119528400Y-82392600D01*
X119719800Y-85237000D02*
X119528400Y-85045600D01*
X117154400Y-85440200D02*
X119516600Y-85440200D01*
X119516600Y-85440200D02*
X119719800Y-85237000D01*
%TO.N,Net-(D2-A)*%
X111490600Y-85557800D02*
X111642600Y-85405800D01*
X109255000Y-85557800D02*
X111490600Y-85557800D01*
%TO.N,TX0*%
X125455800Y-68442600D02*
X126898600Y-66999800D01*
X122558400Y-68442600D02*
X125455800Y-68442600D01*
%TO.N,Net-(J2-Pad1)*%
X87233200Y-91460000D02*
X94700800Y-83992400D01*
X86928400Y-91460000D02*
X87233200Y-91460000D01*
X97240800Y-83992400D02*
X94700800Y-83992400D01*
%TO.N,Net-(J2-Pad2)*%
X84032800Y-83992400D02*
X86572800Y-83992400D01*
X84032800Y-88055600D02*
X80628400Y-91460000D01*
X84032800Y-83992400D02*
X84032800Y-88055600D01*
%TO.N,A5*%
X124469600Y-99461000D02*
X124418800Y-99410200D01*
X104053000Y-74792600D02*
X103590800Y-75508800D01*
X105058400Y-74792600D02*
X104053000Y-74792600D01*
X124469600Y-100696200D02*
X124469600Y-99461000D01*
X124469600Y-99359400D02*
X124469600Y-98378200D01*
X124418800Y-99410200D02*
X124469600Y-99359400D01*
%TO.N,A4*%
X128686000Y-99048000D02*
X128330400Y-98692400D01*
X128609800Y-100731000D02*
X128609800Y-99816600D01*
X128609800Y-99816600D02*
X128686000Y-99740400D01*
X128330400Y-101010400D02*
X128609800Y-100731000D01*
X128686000Y-99740400D02*
X128686000Y-99048000D01*
X103489200Y-73553000D02*
X104470942Y-73553000D01*
X104501342Y-73522600D02*
X105058400Y-73522600D01*
X104470942Y-73553000D02*
X104501342Y-73522600D01*
%TO.N,/EN*%
X105191000Y-85567200D02*
X102295400Y-82671600D01*
X102879600Y-67939600D02*
X103646600Y-67172600D01*
X102295400Y-69463600D02*
X102879600Y-68879400D01*
X103646600Y-67172600D02*
X105058400Y-67172600D01*
X102295400Y-82671600D02*
X102295400Y-69463600D01*
X102879600Y-68879400D02*
X102879600Y-67939600D01*
%TO.N,GPIO0*%
X123225000Y-93085600D02*
X127152600Y-89158000D01*
X127152600Y-89158000D02*
X127152600Y-81020600D01*
X127030600Y-81142600D02*
X127152600Y-81020600D01*
X122558400Y-81142600D02*
X127030600Y-81142600D01*
%TO.N,GPIO5*%
X126370200Y-76062600D02*
X126924000Y-75508800D01*
X122558400Y-76062600D02*
X126370200Y-76062600D01*
%TO.N,GPIO18*%
X121086400Y-74792600D02*
X122558400Y-74792600D01*
X120964400Y-74670600D02*
X121086400Y-74792600D01*
%TO.N,GPIO19*%
X121035600Y-73522600D02*
X120989800Y-73476800D01*
X122558400Y-73522600D02*
X121035600Y-73522600D01*
%TO.N,GPIO21*%
X120964400Y-71114600D02*
X121096400Y-70982600D01*
X121096400Y-70982600D02*
X122558400Y-70982600D01*
%TO.N,Net-(SW3-A)*%
X105302000Y-101112000D02*
X105902200Y-100511800D01*
X101279400Y-101112000D02*
X105302000Y-101112000D01*
%TD*%
%TA.AperFunction,Conductor*%
%TO.N,GND*%
G36*
X85253304Y-55510376D02*
G01*
X85298594Y-55554931D01*
X85315874Y-55616068D01*
X85350036Y-57700637D01*
X85370164Y-58928814D01*
X85430000Y-62580000D01*
X89790000Y-62580000D01*
X89852000Y-62596613D01*
X89897387Y-62642000D01*
X89914000Y-62704000D01*
X89914000Y-63082600D01*
X137914000Y-63082600D01*
X137914000Y-55618100D01*
X137930613Y-55556100D01*
X137976000Y-55510713D01*
X138038000Y-55494100D01*
X138467500Y-55494100D01*
X138529500Y-55510713D01*
X138574887Y-55556100D01*
X138591500Y-55618100D01*
X138591500Y-105254700D01*
X138574887Y-105316700D01*
X138529500Y-105362087D01*
X138467500Y-105378700D01*
X134421844Y-105378700D01*
X134365549Y-105365185D01*
X134321526Y-105327585D01*
X134299371Y-105274098D01*
X134303913Y-105216382D01*
X134334163Y-105167019D01*
X134469871Y-105031310D01*
X135099922Y-104401258D01*
X135105340Y-104396157D01*
X135150595Y-104356066D01*
X135184937Y-104306310D01*
X135189331Y-104300338D01*
X135226636Y-104252725D01*
X135230837Y-104243389D01*
X135241864Y-104223839D01*
X135247671Y-104215427D01*
X135269104Y-104158910D01*
X135271966Y-104152002D01*
X135296771Y-104096890D01*
X135298613Y-104086836D01*
X135304640Y-104065213D01*
X135308270Y-104055643D01*
X135315557Y-103995622D01*
X135316682Y-103988233D01*
X135327574Y-103928802D01*
X135323926Y-103868486D01*
X135323700Y-103861000D01*
X135323700Y-103404814D01*
X135343265Y-103337961D01*
X135395786Y-103292204D01*
X135464689Y-103281983D01*
X135528231Y-103310523D01*
X135566360Y-103368818D01*
X135571185Y-103384726D01*
X135584913Y-103410409D01*
X135664090Y-103558538D01*
X135789117Y-103710883D01*
X135941462Y-103835910D01*
X136115273Y-103928814D01*
X136303868Y-103986024D01*
X136500000Y-104005341D01*
X136696132Y-103986024D01*
X136884727Y-103928814D01*
X137058538Y-103835910D01*
X137210883Y-103710883D01*
X137335910Y-103558538D01*
X137428814Y-103384727D01*
X137486024Y-103196132D01*
X137505341Y-103000000D01*
X137486024Y-102803868D01*
X137428814Y-102615273D01*
X137335910Y-102441462D01*
X137210883Y-102289117D01*
X137058538Y-102164090D01*
X136998120Y-102131796D01*
X136884726Y-102071185D01*
X136696133Y-102013976D01*
X136500000Y-101994659D01*
X136303866Y-102013976D01*
X136115273Y-102071185D01*
X135941463Y-102164089D01*
X135789117Y-102289117D01*
X135664089Y-102441463D01*
X135571185Y-102615273D01*
X135566360Y-102631182D01*
X135528231Y-102689477D01*
X135464689Y-102718017D01*
X135395786Y-102707796D01*
X135343265Y-102662039D01*
X135323700Y-102595186D01*
X135323700Y-95275000D01*
X135323926Y-95267514D01*
X135323969Y-95266796D01*
X135327574Y-95207200D01*
X135316677Y-95147739D01*
X135315554Y-95140355D01*
X135313764Y-95125612D01*
X135308270Y-95080357D01*
X135304639Y-95070785D01*
X135298614Y-95049172D01*
X135296771Y-95039110D01*
X135271965Y-94983996D01*
X135269099Y-94977075D01*
X135268907Y-94976569D01*
X135247671Y-94920573D01*
X135241858Y-94912151D01*
X135230838Y-94892613D01*
X135226636Y-94883276D01*
X135189348Y-94835682D01*
X135184934Y-94829684D01*
X135150595Y-94779934D01*
X135146899Y-94776660D01*
X135105359Y-94739858D01*
X135099906Y-94734724D01*
X134373266Y-94008084D01*
X134368132Y-94002630D01*
X134328067Y-93957406D01*
X134301153Y-93938829D01*
X134278343Y-93923084D01*
X134272313Y-93918647D01*
X134224726Y-93881364D01*
X134215395Y-93877165D01*
X134195844Y-93866139D01*
X134187426Y-93860328D01*
X134130908Y-93838893D01*
X134123991Y-93836028D01*
X134068891Y-93811230D01*
X134058833Y-93809387D01*
X134037214Y-93803360D01*
X134027643Y-93799730D01*
X133967624Y-93792441D01*
X133960222Y-93791315D01*
X133900800Y-93780425D01*
X133840486Y-93784074D01*
X133833000Y-93784300D01*
X133554470Y-93784300D01*
X133497213Y-93770289D01*
X133452895Y-93731423D01*
X133434466Y-93705103D01*
X133372495Y-93616599D01*
X133250181Y-93494285D01*
X133218885Y-93441539D01*
X133216696Y-93380246D01*
X133244149Y-93325401D01*
X133294528Y-93290422D01*
X133426089Y-93241352D01*
X133541188Y-93155188D01*
X133627352Y-93040089D01*
X133677597Y-92905375D01*
X133684000Y-92845824D01*
X133684000Y-92198000D01*
X130984000Y-92198000D01*
X130984000Y-92845824D01*
X130990402Y-92905375D01*
X131040647Y-93040089D01*
X131126811Y-93155188D01*
X131241911Y-93241352D01*
X131373471Y-93290422D01*
X131423850Y-93325401D01*
X131451303Y-93380246D01*
X131449114Y-93441539D01*
X131417819Y-93494285D01*
X131295503Y-93616601D01*
X131159965Y-93810170D01*
X131060097Y-94024336D01*
X130998936Y-94252592D01*
X130978340Y-94487999D01*
X130998936Y-94723407D01*
X131038450Y-94870873D01*
X131060097Y-94951663D01*
X131159965Y-95165830D01*
X131295505Y-95359401D01*
X131462599Y-95526495D01*
X131648160Y-95656426D01*
X131687024Y-95700743D01*
X131701035Y-95758000D01*
X131687024Y-95815257D01*
X131648158Y-95859575D01*
X131586700Y-95902608D01*
X131533548Y-95923724D01*
X131476573Y-95918739D01*
X131427896Y-95888714D01*
X129801266Y-94262084D01*
X129796132Y-94256630D01*
X129756067Y-94211406D01*
X129745040Y-94203795D01*
X129706343Y-94177084D01*
X129700313Y-94172647D01*
X129652726Y-94135364D01*
X129643395Y-94131165D01*
X129623844Y-94120139D01*
X129615426Y-94114328D01*
X129558908Y-94092893D01*
X129551991Y-94090028D01*
X129496891Y-94065230D01*
X129486833Y-94063387D01*
X129465214Y-94057360D01*
X129455643Y-94053730D01*
X129395624Y-94046441D01*
X129388222Y-94045315D01*
X129328800Y-94034425D01*
X129268486Y-94038074D01*
X129261000Y-94038300D01*
X127220244Y-94038300D01*
X127163949Y-94024785D01*
X127119926Y-93987185D01*
X127097771Y-93933698D01*
X127102313Y-93875982D01*
X127132563Y-93826619D01*
X127754991Y-93204191D01*
X129261180Y-91698000D01*
X130984000Y-91698000D01*
X132084000Y-91698000D01*
X132084000Y-90598000D01*
X132584000Y-90598000D01*
X132584000Y-91698000D01*
X133684000Y-91698000D01*
X133684000Y-91050176D01*
X133677597Y-90990624D01*
X133627352Y-90855910D01*
X133541188Y-90740811D01*
X133426089Y-90654647D01*
X133291375Y-90604402D01*
X133231824Y-90598000D01*
X132584000Y-90598000D01*
X132084000Y-90598000D01*
X131436176Y-90598000D01*
X131376624Y-90604402D01*
X131241910Y-90654647D01*
X131126811Y-90740811D01*
X131040647Y-90855910D01*
X130990402Y-90990624D01*
X130984000Y-91050176D01*
X130984000Y-91698000D01*
X129261180Y-91698000D01*
X129632522Y-91326658D01*
X129637960Y-91321540D01*
X129642034Y-91317931D01*
X129683195Y-91281466D01*
X129717547Y-91231696D01*
X129721942Y-91225724D01*
X129759236Y-91178125D01*
X129763435Y-91168792D01*
X129774457Y-91149249D01*
X129780271Y-91140827D01*
X129801710Y-91084293D01*
X129804556Y-91077422D01*
X129829370Y-91022291D01*
X129831214Y-91012225D01*
X129837236Y-90990623D01*
X129840870Y-90981043D01*
X129848157Y-90921016D01*
X129849279Y-90913642D01*
X129860174Y-90854201D01*
X129856525Y-90793886D01*
X129856300Y-90786401D01*
X129856300Y-82203424D01*
X129872023Y-82142992D01*
X129915204Y-82097885D01*
X129971254Y-82063313D01*
X129971256Y-82063312D01*
X130095312Y-81939256D01*
X130187414Y-81789934D01*
X130242599Y-81623397D01*
X130253100Y-81520609D01*
X130253099Y-80842442D01*
X130262538Y-80794990D01*
X130289415Y-80754765D01*
X133203362Y-77840818D01*
X133243591Y-77813938D01*
X133291044Y-77804499D01*
X133739870Y-77804499D01*
X133739872Y-77804499D01*
X133799483Y-77798091D01*
X133934331Y-77747796D01*
X134049546Y-77661546D01*
X134135796Y-77546331D01*
X134186091Y-77411483D01*
X134192500Y-77351873D01*
X134192499Y-76903042D01*
X134201938Y-76855590D01*
X134228815Y-76815365D01*
X135607922Y-75436258D01*
X135613360Y-75431140D01*
X135658595Y-75391066D01*
X135692947Y-75341296D01*
X135697342Y-75335324D01*
X135734636Y-75287725D01*
X135738835Y-75278392D01*
X135749857Y-75258849D01*
X135755671Y-75250427D01*
X135777110Y-75193893D01*
X135779956Y-75187022D01*
X135804770Y-75131891D01*
X135806614Y-75121825D01*
X135812636Y-75100223D01*
X135816270Y-75090643D01*
X135823557Y-75030616D01*
X135824679Y-75023242D01*
X135835574Y-74963801D01*
X135831925Y-74903486D01*
X135831700Y-74896001D01*
X135831700Y-67588999D01*
X135831926Y-67581513D01*
X135832448Y-67572875D01*
X135835574Y-67521199D01*
X135824679Y-67461755D01*
X135823554Y-67454356D01*
X135820531Y-67429458D01*
X135816270Y-67394357D01*
X135812638Y-67384781D01*
X135806614Y-67363175D01*
X135804770Y-67353109D01*
X135779965Y-67297995D01*
X135777107Y-67291098D01*
X135755671Y-67234573D01*
X135749863Y-67226158D01*
X135738836Y-67206607D01*
X135734636Y-67197275D01*
X135697352Y-67149686D01*
X135692923Y-67143667D01*
X135658595Y-67093934D01*
X135613359Y-67053858D01*
X135607906Y-67048724D01*
X134373266Y-65814084D01*
X134368132Y-65808630D01*
X134328067Y-65763406D01*
X134278347Y-65729087D01*
X134272313Y-65724647D01*
X134224726Y-65687364D01*
X134215395Y-65683165D01*
X134195844Y-65672139D01*
X134187426Y-65666328D01*
X134130908Y-65644893D01*
X134123991Y-65642028D01*
X134068891Y-65617230D01*
X134058833Y-65615387D01*
X134037214Y-65609360D01*
X134027643Y-65605730D01*
X133967624Y-65598441D01*
X133960222Y-65597315D01*
X133900800Y-65586425D01*
X133840486Y-65590074D01*
X133833000Y-65590300D01*
X129629400Y-65590300D01*
X129621914Y-65590074D01*
X129561599Y-65586425D01*
X129502171Y-65597316D01*
X129494768Y-65598443D01*
X129434753Y-65605730D01*
X129425179Y-65609361D01*
X129403571Y-65615384D01*
X129393512Y-65617227D01*
X129346469Y-65638400D01*
X129338408Y-65642028D01*
X129338401Y-65642031D01*
X129331483Y-65644896D01*
X129274971Y-65666329D01*
X129266551Y-65672141D01*
X129247015Y-65683159D01*
X129237676Y-65687362D01*
X129190087Y-65724645D01*
X129184058Y-65729082D01*
X129121945Y-65771957D01*
X129121266Y-65770974D01*
X129097610Y-65788378D01*
X129046725Y-65799300D01*
X128498591Y-65799300D01*
X128395803Y-65809800D01*
X128229265Y-65864986D01*
X128079942Y-65957088D01*
X127986281Y-66050750D01*
X127930694Y-66082844D01*
X127866506Y-66082844D01*
X127810919Y-66050750D01*
X127717257Y-65957088D01*
X127567934Y-65864986D01*
X127401397Y-65809800D01*
X127298609Y-65799300D01*
X126498591Y-65799300D01*
X126395803Y-65809800D01*
X126229265Y-65864986D01*
X126079942Y-65957088D01*
X125955888Y-66081142D01*
X125863786Y-66230465D01*
X125808600Y-66397002D01*
X125798100Y-66499791D01*
X125798100Y-67053755D01*
X125788661Y-67101208D01*
X125761781Y-67141436D01*
X125200637Y-67702581D01*
X125160409Y-67729461D01*
X125112956Y-67738900D01*
X124038500Y-67738900D01*
X123976500Y-67722287D01*
X123931113Y-67676900D01*
X123914500Y-67614900D01*
X123914499Y-66674730D01*
X123911401Y-66645910D01*
X123908091Y-66615117D01*
X123895340Y-66580931D01*
X123887523Y-66537599D01*
X123895342Y-66494265D01*
X123908090Y-66460085D01*
X123908089Y-66460085D01*
X123908091Y-66460083D01*
X123914500Y-66400473D01*
X123914499Y-65404728D01*
X123908091Y-65345117D01*
X123895075Y-65310219D01*
X123887256Y-65266884D01*
X123895075Y-65223549D01*
X123907597Y-65189976D01*
X123914000Y-65130424D01*
X123914000Y-64882600D01*
X121414000Y-64882600D01*
X121414000Y-65130424D01*
X121420402Y-65189977D01*
X121432925Y-65223552D01*
X121440743Y-65266885D01*
X121432925Y-65310217D01*
X121419909Y-65345113D01*
X121413500Y-65404730D01*
X121413500Y-66400469D01*
X121419909Y-66460085D01*
X121432658Y-66494266D01*
X121440476Y-66537597D01*
X121432659Y-66580928D01*
X121419909Y-66615113D01*
X121419909Y-66615116D01*
X121419909Y-66615117D01*
X121413865Y-66671337D01*
X121413500Y-66674730D01*
X121413500Y-67670469D01*
X121419909Y-67730085D01*
X121432658Y-67764266D01*
X121440476Y-67807597D01*
X121432659Y-67850928D01*
X121419909Y-67885113D01*
X121413500Y-67944730D01*
X121413500Y-68940469D01*
X121419909Y-69000085D01*
X121432658Y-69034267D01*
X121440476Y-69077599D01*
X121432659Y-69120930D01*
X121419909Y-69155115D01*
X121413500Y-69214731D01*
X121413500Y-70137888D01*
X121398473Y-70197056D01*
X121357034Y-70241884D01*
X121299227Y-70261506D01*
X121257346Y-70254308D01*
X121256952Y-70256165D01*
X121059048Y-70214100D01*
X121059046Y-70214100D01*
X120869754Y-70214100D01*
X120869752Y-70214100D01*
X120684597Y-70253455D01*
X120511669Y-70330448D01*
X120358529Y-70441710D01*
X120231866Y-70582383D01*
X120137220Y-70746315D01*
X120078726Y-70926342D01*
X120058940Y-71114600D01*
X120078726Y-71302857D01*
X120137220Y-71482884D01*
X120231866Y-71646816D01*
X120358529Y-71787489D01*
X120511669Y-71898751D01*
X120684597Y-71975744D01*
X120869752Y-72015100D01*
X120869754Y-72015100D01*
X121059046Y-72015100D01*
X121059048Y-72015100D01*
X121256951Y-71973035D01*
X121257345Y-71974890D01*
X121299232Y-71967695D01*
X121357037Y-71987318D01*
X121398474Y-72032145D01*
X121413500Y-72091312D01*
X121413500Y-72493115D01*
X121401421Y-72546498D01*
X121367536Y-72589481D01*
X121318447Y-72613689D01*
X121263719Y-72614405D01*
X121084448Y-72576300D01*
X121084446Y-72576300D01*
X120895154Y-72576300D01*
X120895152Y-72576300D01*
X120709997Y-72615655D01*
X120537069Y-72692648D01*
X120383929Y-72803910D01*
X120257266Y-72944583D01*
X120162620Y-73108515D01*
X120104126Y-73288542D01*
X120084340Y-73476799D01*
X120104126Y-73665057D01*
X120162620Y-73845084D01*
X120247807Y-73992631D01*
X120263741Y-74041668D01*
X120258352Y-74092947D01*
X120232572Y-74137601D01*
X120231866Y-74138384D01*
X120137220Y-74302315D01*
X120078726Y-74482342D01*
X120058940Y-74670599D01*
X120078726Y-74858857D01*
X120137220Y-75038884D01*
X120231866Y-75202816D01*
X120358529Y-75343489D01*
X120511669Y-75454751D01*
X120684597Y-75531744D01*
X120869752Y-75571100D01*
X120869754Y-75571100D01*
X121059046Y-75571100D01*
X121059048Y-75571100D01*
X121256951Y-75529035D01*
X121257345Y-75530891D01*
X121299221Y-75523693D01*
X121357031Y-75543313D01*
X121398472Y-75588141D01*
X121413500Y-75647311D01*
X121413500Y-76560469D01*
X121419909Y-76620085D01*
X121432658Y-76654266D01*
X121440476Y-76697597D01*
X121432659Y-76740928D01*
X121419909Y-76775113D01*
X121413500Y-76834730D01*
X121413500Y-77830469D01*
X121419909Y-77890085D01*
X121432658Y-77924267D01*
X121440476Y-77967599D01*
X121432659Y-78010930D01*
X121419909Y-78045115D01*
X121413500Y-78104730D01*
X121413500Y-79100469D01*
X121419909Y-79160085D01*
X121432658Y-79194267D01*
X121440476Y-79237599D01*
X121432659Y-79280930D01*
X121419909Y-79315115D01*
X121413500Y-79374730D01*
X121413500Y-80370469D01*
X121419909Y-80430085D01*
X121432658Y-80464266D01*
X121440476Y-80507597D01*
X121432659Y-80550928D01*
X121419909Y-80585113D01*
X121413500Y-80644730D01*
X121413500Y-81640469D01*
X121419909Y-81700083D01*
X121470204Y-81834931D01*
X121556454Y-81950146D01*
X121671669Y-82036396D01*
X121806517Y-82086691D01*
X121866127Y-82093100D01*
X123461872Y-82093099D01*
X123521483Y-82086691D01*
X123656331Y-82036396D01*
X123771546Y-81950146D01*
X123812087Y-81895989D01*
X123855851Y-81859416D01*
X123911355Y-81846300D01*
X126083346Y-81846300D01*
X126143778Y-81862023D01*
X126188885Y-81905204D01*
X126209886Y-81939254D01*
X126333945Y-82063313D01*
X126389996Y-82097885D01*
X126433177Y-82142992D01*
X126448900Y-82203424D01*
X126448900Y-88815156D01*
X126439461Y-88862609D01*
X126412581Y-88902837D01*
X123566635Y-91748781D01*
X123526407Y-91775661D01*
X123478954Y-91785100D01*
X122797130Y-91785100D01*
X122737515Y-91791509D01*
X122602669Y-91841804D01*
X122487454Y-91928054D01*
X122401204Y-92043268D01*
X122363219Y-92145110D01*
X122350909Y-92178117D01*
X122346374Y-92220302D01*
X122344500Y-92237730D01*
X122344500Y-93933469D01*
X122352574Y-94008569D01*
X122350904Y-94008748D01*
X122353887Y-94026474D01*
X122343912Y-94072341D01*
X122317603Y-94111213D01*
X119263635Y-97165181D01*
X119223407Y-97192061D01*
X119175954Y-97201500D01*
X118228130Y-97201500D01*
X118168515Y-97207909D01*
X118033669Y-97258204D01*
X117918454Y-97344454D01*
X117832204Y-97459668D01*
X117781909Y-97594516D01*
X117775500Y-97654131D01*
X117775500Y-97947500D01*
X117758887Y-98009500D01*
X117713500Y-98054887D01*
X117651500Y-98071500D01*
X116028499Y-98071500D01*
X115966499Y-98054887D01*
X115921112Y-98009500D01*
X115904499Y-97947500D01*
X115904499Y-97654130D01*
X115904499Y-97654127D01*
X115898091Y-97594517D01*
X115847796Y-97459669D01*
X115761546Y-97344454D01*
X115646331Y-97258204D01*
X115511483Y-97207909D01*
X115451873Y-97201500D01*
X115451869Y-97201500D01*
X113656130Y-97201500D01*
X113596515Y-97207909D01*
X113461669Y-97258204D01*
X113346454Y-97344454D01*
X113260204Y-97459668D01*
X113209909Y-97594516D01*
X113203500Y-97654131D01*
X113203500Y-97963500D01*
X113186887Y-98025500D01*
X113141500Y-98070887D01*
X113079500Y-98087500D01*
X111643899Y-98087500D01*
X111581899Y-98070887D01*
X111536512Y-98025500D01*
X111519899Y-97963500D01*
X111519899Y-97893330D01*
X111517972Y-97875402D01*
X111513491Y-97833717D01*
X111463196Y-97698869D01*
X111376946Y-97583654D01*
X111261731Y-97497404D01*
X111126883Y-97447109D01*
X111067273Y-97440700D01*
X111067269Y-97440700D01*
X110997100Y-97440700D01*
X110935100Y-97424087D01*
X110889713Y-97378700D01*
X110873100Y-97316700D01*
X110873100Y-88636753D01*
X110886697Y-88580297D01*
X110924507Y-88536223D01*
X110978238Y-88514196D01*
X111036105Y-88519047D01*
X111039905Y-88520306D01*
X111142621Y-88530800D01*
X111392600Y-88530800D01*
X111392600Y-87705800D01*
X111892600Y-87705800D01*
X111892600Y-88530799D01*
X112142579Y-88530799D01*
X112245295Y-88520306D01*
X112411722Y-88465157D01*
X112560945Y-88373116D01*
X112684916Y-88249145D01*
X112776957Y-88099922D01*
X112832106Y-87933496D01*
X112842600Y-87830779D01*
X112842600Y-87705800D01*
X111892600Y-87705800D01*
X111392600Y-87705800D01*
X111392600Y-87329800D01*
X111409213Y-87267800D01*
X111454600Y-87222413D01*
X111516600Y-87205800D01*
X112842599Y-87205800D01*
X112842599Y-87080821D01*
X112832106Y-86978104D01*
X112776957Y-86811677D01*
X112684916Y-86662454D01*
X112560944Y-86538482D01*
X112557943Y-86536631D01*
X112514761Y-86491523D01*
X112499040Y-86431089D01*
X112514766Y-86370656D01*
X112557947Y-86325552D01*
X112561256Y-86323512D01*
X112685312Y-86199456D01*
X112777414Y-86050134D01*
X112832599Y-85883597D01*
X112843100Y-85780809D01*
X112843099Y-85206200D01*
X113516000Y-85206200D01*
X114466000Y-85206200D01*
X114466000Y-84356201D01*
X114216021Y-84356201D01*
X114113304Y-84366693D01*
X113946877Y-84421842D01*
X113797654Y-84513883D01*
X113673683Y-84637854D01*
X113581642Y-84787077D01*
X113526493Y-84953503D01*
X113516000Y-85056221D01*
X113516000Y-85206200D01*
X112843099Y-85206200D01*
X112843099Y-85030792D01*
X112832599Y-84928003D01*
X112777414Y-84761466D01*
X112693925Y-84626108D01*
X112685311Y-84612142D01*
X112561257Y-84488088D01*
X112411934Y-84395986D01*
X112245397Y-84340800D01*
X112142609Y-84330300D01*
X111142591Y-84330300D01*
X111039803Y-84340800D01*
X110873265Y-84395986D01*
X110723942Y-84488088D01*
X110599889Y-84612141D01*
X110515172Y-84749491D01*
X110470065Y-84792671D01*
X110409633Y-84808394D01*
X110349201Y-84792671D01*
X110304094Y-84749491D01*
X110297710Y-84739141D01*
X110173657Y-84615088D01*
X110024334Y-84522986D01*
X109857797Y-84467800D01*
X109755009Y-84457300D01*
X108754991Y-84457300D01*
X108652203Y-84467800D01*
X108485665Y-84522986D01*
X108336342Y-84615088D01*
X108212288Y-84739142D01*
X108120186Y-84888465D01*
X108065000Y-85055002D01*
X108062081Y-85083582D01*
X108036270Y-85147534D01*
X107980285Y-85187806D01*
X107911444Y-85191941D01*
X107851042Y-85158660D01*
X107752619Y-85060237D01*
X107725739Y-85020009D01*
X107716300Y-84972556D01*
X107716300Y-83766600D01*
X107732913Y-83704600D01*
X107778300Y-83659213D01*
X107840300Y-83642600D01*
X107954000Y-83642600D01*
X108454000Y-83642600D01*
X108701824Y-83642600D01*
X108761376Y-83636197D01*
X108794949Y-83623675D01*
X108838284Y-83615856D01*
X108881618Y-83623674D01*
X108905953Y-83632751D01*
X108915192Y-83636197D01*
X108916517Y-83636691D01*
X108976127Y-83643100D01*
X109971872Y-83643099D01*
X110031483Y-83636691D01*
X110065665Y-83623941D01*
X110108999Y-83616123D01*
X110152332Y-83623940D01*
X110186517Y-83636691D01*
X110246127Y-83643100D01*
X111241872Y-83643099D01*
X111301483Y-83636691D01*
X111335665Y-83623941D01*
X111378999Y-83616123D01*
X111422332Y-83623940D01*
X111456517Y-83636691D01*
X111516127Y-83643100D01*
X112511872Y-83643099D01*
X112571483Y-83636691D01*
X112605665Y-83623941D01*
X112648999Y-83616123D01*
X112692332Y-83623940D01*
X112726517Y-83636691D01*
X112786127Y-83643100D01*
X113781872Y-83643099D01*
X113841483Y-83636691D01*
X113875665Y-83623941D01*
X113918999Y-83616123D01*
X113962332Y-83623940D01*
X113996517Y-83636691D01*
X114056127Y-83643100D01*
X115051872Y-83643099D01*
X115111483Y-83636691D01*
X115145665Y-83623941D01*
X115188999Y-83616123D01*
X115232332Y-83623940D01*
X115266517Y-83636691D01*
X115326127Y-83643100D01*
X116321872Y-83643099D01*
X116381483Y-83636691D01*
X116415665Y-83623941D01*
X116458999Y-83616123D01*
X116502332Y-83623940D01*
X116536517Y-83636691D01*
X116596127Y-83643100D01*
X117591872Y-83643099D01*
X117651483Y-83636691D01*
X117685665Y-83623941D01*
X117728999Y-83616123D01*
X117772332Y-83623940D01*
X117806517Y-83636691D01*
X117866127Y-83643100D01*
X118700700Y-83643099D01*
X118762700Y-83659712D01*
X118808087Y-83705099D01*
X118824700Y-83767099D01*
X118824700Y-84219370D01*
X118815261Y-84266823D01*
X118788383Y-84307048D01*
X118754632Y-84340800D01*
X118677086Y-84418345D01*
X118584986Y-84567665D01*
X118576052Y-84594627D01*
X118558849Y-84646544D01*
X118557205Y-84651504D01*
X118531326Y-84695829D01*
X118489714Y-84725877D01*
X118439499Y-84736500D01*
X118321804Y-84736500D01*
X118261372Y-84720777D01*
X118216265Y-84677596D01*
X118197111Y-84646542D01*
X118073057Y-84522488D01*
X117923734Y-84430386D01*
X117757197Y-84375200D01*
X117654409Y-84364700D01*
X116654391Y-84364700D01*
X116551603Y-84375200D01*
X116385065Y-84430386D01*
X116235742Y-84522488D01*
X116111688Y-84646542D01*
X116043221Y-84757547D01*
X115998114Y-84800728D01*
X115937682Y-84816451D01*
X115877250Y-84800728D01*
X115832143Y-84757547D01*
X115758316Y-84637854D01*
X115634345Y-84513883D01*
X115485122Y-84421842D01*
X115318696Y-84366693D01*
X115215979Y-84356200D01*
X114966000Y-84356200D01*
X114966000Y-85582200D01*
X114949387Y-85644200D01*
X114904000Y-85689587D01*
X114842000Y-85706200D01*
X113516001Y-85706200D01*
X113516001Y-85856179D01*
X113526493Y-85958895D01*
X113581642Y-86125322D01*
X113673683Y-86274545D01*
X113767303Y-86368165D01*
X113799397Y-86423752D01*
X113799397Y-86487939D01*
X113767304Y-86543527D01*
X113673287Y-86637544D01*
X113581186Y-86786865D01*
X113526000Y-86953402D01*
X113515500Y-87056190D01*
X113515500Y-87856208D01*
X113526000Y-87958996D01*
X113581186Y-88125534D01*
X113673288Y-88274857D01*
X113797342Y-88398911D01*
X113797344Y-88398912D01*
X113946666Y-88491014D01*
X114051239Y-88525666D01*
X114113202Y-88546199D01*
X114123703Y-88547271D01*
X114215991Y-88556700D01*
X115216008Y-88556699D01*
X115318797Y-88546199D01*
X115485334Y-88491014D01*
X115634656Y-88398912D01*
X115758712Y-88274856D01*
X115793284Y-88218804D01*
X115838392Y-88175623D01*
X115898824Y-88159900D01*
X115966025Y-88159900D01*
X116026457Y-88175623D01*
X116071564Y-88218804D01*
X116110822Y-88282453D01*
X116111688Y-88283856D01*
X116194114Y-88366282D01*
X116235745Y-88407913D01*
X116310404Y-88453962D01*
X116385066Y-88500014D01*
X116462485Y-88525668D01*
X116551602Y-88555199D01*
X116562102Y-88556271D01*
X116654391Y-88565700D01*
X117654408Y-88565699D01*
X117757197Y-88555199D01*
X117923734Y-88500014D01*
X118073056Y-88407912D01*
X118197112Y-88283856D01*
X118289214Y-88134534D01*
X118344399Y-87967997D01*
X118347164Y-87940931D01*
X118371490Y-87878910D01*
X118424403Y-87838429D01*
X118490629Y-87831174D01*
X118551051Y-87859240D01*
X118575323Y-87895335D01*
X118577834Y-87893787D01*
X118677483Y-88055345D01*
X118801454Y-88179316D01*
X118950677Y-88271357D01*
X119117103Y-88326506D01*
X119219821Y-88337000D01*
X119469800Y-88337000D01*
X119469800Y-87487000D01*
X119969800Y-87487000D01*
X119969800Y-88336999D01*
X120219779Y-88336999D01*
X120322495Y-88326506D01*
X120488922Y-88271357D01*
X120638145Y-88179316D01*
X120762116Y-88055345D01*
X120854157Y-87906122D01*
X120909306Y-87739696D01*
X120919800Y-87636979D01*
X120919800Y-87487000D01*
X119969800Y-87487000D01*
X119469800Y-87487000D01*
X119469800Y-87111000D01*
X119486413Y-87049000D01*
X119531800Y-87003613D01*
X119593800Y-86987000D01*
X120919799Y-86987000D01*
X120919799Y-86837021D01*
X120909306Y-86734304D01*
X120854157Y-86567877D01*
X120762116Y-86418654D01*
X120668496Y-86325034D01*
X120636402Y-86269446D01*
X120636402Y-86205259D01*
X120668494Y-86149673D01*
X120762512Y-86055656D01*
X120854614Y-85906334D01*
X120909799Y-85739797D01*
X120912271Y-85715600D01*
X122345000Y-85715600D01*
X122345000Y-86313424D01*
X122351402Y-86372975D01*
X122401647Y-86507689D01*
X122487811Y-86622788D01*
X122602910Y-86708952D01*
X122737624Y-86759197D01*
X122797176Y-86765600D01*
X122975000Y-86765600D01*
X122975000Y-85715600D01*
X123475000Y-85715600D01*
X123475000Y-86765600D01*
X123652824Y-86765600D01*
X123712375Y-86759197D01*
X123847089Y-86708952D01*
X123962188Y-86622788D01*
X124048352Y-86507689D01*
X124098597Y-86372975D01*
X124105000Y-86313424D01*
X124105000Y-85715600D01*
X123475000Y-85715600D01*
X122975000Y-85715600D01*
X122345000Y-85715600D01*
X120912271Y-85715600D01*
X120920300Y-85637009D01*
X120920299Y-85215600D01*
X122345000Y-85215600D01*
X122975000Y-85215600D01*
X122975000Y-84165600D01*
X123475000Y-84165600D01*
X123475000Y-85215600D01*
X124105000Y-85215600D01*
X124105000Y-84617776D01*
X124098597Y-84558224D01*
X124048352Y-84423510D01*
X123962188Y-84308411D01*
X123847089Y-84222247D01*
X123712375Y-84172002D01*
X123652824Y-84165600D01*
X123475000Y-84165600D01*
X122975000Y-84165600D01*
X122797176Y-84165600D01*
X122737624Y-84172002D01*
X122602910Y-84222247D01*
X122487811Y-84308411D01*
X122401647Y-84423510D01*
X122351402Y-84558224D01*
X122345000Y-84617776D01*
X122345000Y-85215600D01*
X120920299Y-85215600D01*
X120920299Y-84836992D01*
X120909799Y-84734203D01*
X120854614Y-84567666D01*
X120793017Y-84467800D01*
X120762511Y-84418342D01*
X120638457Y-84294288D01*
X120489134Y-84202186D01*
X120317096Y-84145178D01*
X120272771Y-84119299D01*
X120242723Y-84077687D01*
X120232100Y-84027472D01*
X120232100Y-83707637D01*
X120242112Y-83658825D01*
X120270530Y-83617894D01*
X120312766Y-83591456D01*
X120326328Y-83586397D01*
X120326327Y-83586397D01*
X120326331Y-83586396D01*
X120441546Y-83500146D01*
X120527796Y-83384931D01*
X120578091Y-83250083D01*
X120584500Y-83190473D01*
X120584499Y-81594728D01*
X120578091Y-81535117D01*
X120527796Y-81400269D01*
X120441546Y-81285054D01*
X120326331Y-81198804D01*
X120191483Y-81148509D01*
X120131873Y-81142100D01*
X120131869Y-81142100D01*
X119136130Y-81142100D01*
X119076516Y-81148509D01*
X119042331Y-81161259D01*
X118999000Y-81169076D01*
X118955668Y-81161258D01*
X118921486Y-81148509D01*
X118895935Y-81145762D01*
X118861873Y-81142100D01*
X118861869Y-81142100D01*
X117866130Y-81142100D01*
X117806516Y-81148509D01*
X117772331Y-81161259D01*
X117729000Y-81169076D01*
X117685668Y-81161258D01*
X117651486Y-81148509D01*
X117625935Y-81145762D01*
X117591873Y-81142100D01*
X117591869Y-81142100D01*
X116596130Y-81142100D01*
X116536516Y-81148509D01*
X116502331Y-81161259D01*
X116459000Y-81169076D01*
X116415668Y-81161258D01*
X116381486Y-81148509D01*
X116355935Y-81145762D01*
X116321873Y-81142100D01*
X116321869Y-81142100D01*
X115326130Y-81142100D01*
X115266516Y-81148509D01*
X115232331Y-81161259D01*
X115189000Y-81169076D01*
X115145668Y-81161258D01*
X115111486Y-81148509D01*
X115085935Y-81145762D01*
X115051873Y-81142100D01*
X115051869Y-81142100D01*
X114056130Y-81142100D01*
X113996516Y-81148509D01*
X113962331Y-81161259D01*
X113919000Y-81169076D01*
X113875668Y-81161258D01*
X113841486Y-81148509D01*
X113815935Y-81145762D01*
X113781873Y-81142100D01*
X113781869Y-81142100D01*
X112786130Y-81142100D01*
X112726516Y-81148509D01*
X112692331Y-81161259D01*
X112649000Y-81169076D01*
X112605668Y-81161258D01*
X112571486Y-81148509D01*
X112545935Y-81145762D01*
X112511873Y-81142100D01*
X112511869Y-81142100D01*
X111516130Y-81142100D01*
X111456516Y-81148509D01*
X111422331Y-81161259D01*
X111379000Y-81169076D01*
X111335668Y-81161258D01*
X111301486Y-81148509D01*
X111275935Y-81145762D01*
X111241873Y-81142100D01*
X111241869Y-81142100D01*
X110246130Y-81142100D01*
X110186516Y-81148509D01*
X110152331Y-81161259D01*
X110109000Y-81169076D01*
X110065668Y-81161258D01*
X110031486Y-81148509D01*
X110005935Y-81145762D01*
X109971873Y-81142100D01*
X109971869Y-81142100D01*
X108976130Y-81142100D01*
X108916514Y-81148509D01*
X108881617Y-81161525D01*
X108838284Y-81169343D01*
X108794952Y-81161525D01*
X108761377Y-81149002D01*
X108701824Y-81142600D01*
X108454000Y-81142600D01*
X108454000Y-83642600D01*
X107954000Y-83642600D01*
X107954000Y-81142600D01*
X107840300Y-81142600D01*
X107778300Y-81125987D01*
X107732913Y-81080600D01*
X107716300Y-81018600D01*
X107716300Y-72222600D01*
X110634000Y-72222600D01*
X110634000Y-74120424D01*
X110640402Y-74179975D01*
X110690647Y-74314689D01*
X110776811Y-74429788D01*
X110891910Y-74515952D01*
X111026624Y-74566197D01*
X111086176Y-74572600D01*
X112984000Y-74572600D01*
X113484000Y-74572600D01*
X115381824Y-74572600D01*
X115441375Y-74566197D01*
X115576089Y-74515952D01*
X115691188Y-74429788D01*
X115777352Y-74314689D01*
X115827597Y-74179975D01*
X115834000Y-74120424D01*
X115834000Y-72222600D01*
X115009000Y-72222600D01*
X115009000Y-72631547D01*
X115024872Y-72647419D01*
X115056966Y-72703006D01*
X115056966Y-72767194D01*
X115024872Y-72822781D01*
X115009000Y-72838652D01*
X115009000Y-73623600D01*
X114992387Y-73685600D01*
X114947000Y-73730987D01*
X114885000Y-73747600D01*
X114100052Y-73747600D01*
X114084181Y-73763472D01*
X114028594Y-73795566D01*
X113964406Y-73795566D01*
X113908819Y-73763472D01*
X113892947Y-73747600D01*
X113484000Y-73747600D01*
X113484000Y-74572600D01*
X112984000Y-74572600D01*
X112984000Y-73747600D01*
X112575052Y-73747600D01*
X112559181Y-73763472D01*
X112503594Y-73795566D01*
X112439406Y-73795566D01*
X112383819Y-73763472D01*
X112367947Y-73747600D01*
X111583000Y-73747600D01*
X111521000Y-73730987D01*
X111475613Y-73685600D01*
X111459000Y-73623600D01*
X111459000Y-72838654D01*
X111458999Y-72838652D01*
X111443128Y-72822781D01*
X111411034Y-72767194D01*
X111411034Y-72735100D01*
X112062553Y-72735100D01*
X112471500Y-73144047D01*
X112880447Y-72735100D01*
X113587553Y-72735100D01*
X113996500Y-73144047D01*
X114405447Y-72735100D01*
X113996500Y-72326153D01*
X113587553Y-72735100D01*
X112880447Y-72735100D01*
X112471500Y-72326153D01*
X112062553Y-72735100D01*
X111411034Y-72735100D01*
X111411034Y-72703006D01*
X111443128Y-72647419D01*
X111458999Y-72631547D01*
X111459000Y-72631547D01*
X111459000Y-72222600D01*
X110634000Y-72222600D01*
X107716300Y-72222600D01*
X107716300Y-71722600D01*
X110634000Y-71722600D01*
X111459000Y-71722600D01*
X111459000Y-71313654D01*
X111458999Y-71313652D01*
X111443128Y-71297781D01*
X111411034Y-71242194D01*
X111411034Y-71210100D01*
X112062553Y-71210100D01*
X112471500Y-71619047D01*
X112880447Y-71210100D01*
X113587553Y-71210100D01*
X113996500Y-71619047D01*
X114405447Y-71210100D01*
X113996500Y-70801153D01*
X113587553Y-71210100D01*
X112880447Y-71210100D01*
X112471500Y-70801153D01*
X112062553Y-71210100D01*
X111411034Y-71210100D01*
X111411034Y-71178006D01*
X111443128Y-71122419D01*
X111458999Y-71106547D01*
X111459000Y-71106547D01*
X111459000Y-70321600D01*
X111475613Y-70259600D01*
X111521000Y-70214213D01*
X111583000Y-70197600D01*
X112367947Y-70197600D01*
X112367947Y-70197599D01*
X112383819Y-70181728D01*
X112439406Y-70149634D01*
X112503594Y-70149634D01*
X112559181Y-70181728D01*
X112575053Y-70197600D01*
X112984000Y-70197600D01*
X112984000Y-69372600D01*
X113484000Y-69372600D01*
X113484000Y-70197600D01*
X113892947Y-70197600D01*
X113892947Y-70197599D01*
X113908819Y-70181728D01*
X113964406Y-70149634D01*
X114028594Y-70149634D01*
X114084181Y-70181728D01*
X114100053Y-70197600D01*
X114885000Y-70197600D01*
X114947000Y-70214213D01*
X114992387Y-70259600D01*
X115009000Y-70321600D01*
X115009000Y-71106547D01*
X115024872Y-71122419D01*
X115056966Y-71178006D01*
X115056966Y-71242194D01*
X115024872Y-71297781D01*
X115009000Y-71313652D01*
X115009000Y-71722600D01*
X115834000Y-71722600D01*
X115834000Y-69824776D01*
X115827597Y-69765224D01*
X115777352Y-69630510D01*
X115691188Y-69515411D01*
X115576089Y-69429247D01*
X115441375Y-69379002D01*
X115381824Y-69372600D01*
X113484000Y-69372600D01*
X112984000Y-69372600D01*
X111086176Y-69372600D01*
X111026624Y-69379002D01*
X110891910Y-69429247D01*
X110776811Y-69515411D01*
X110690647Y-69630510D01*
X110640402Y-69765224D01*
X110634000Y-69824776D01*
X110634000Y-71722600D01*
X107716300Y-71722600D01*
X107716300Y-66881800D01*
X107716526Y-66874314D01*
X107718709Y-66838217D01*
X107720174Y-66814000D01*
X107709277Y-66754539D01*
X107708154Y-66747155D01*
X107700870Y-66687157D01*
X107700180Y-66685338D01*
X107697239Y-66677585D01*
X107691214Y-66655972D01*
X107689371Y-66645910D01*
X107664565Y-66590796D01*
X107661699Y-66583875D01*
X107644148Y-66537597D01*
X107640271Y-66527373D01*
X107634458Y-66518951D01*
X107623438Y-66499413D01*
X107619236Y-66490076D01*
X107581948Y-66442482D01*
X107577534Y-66436484D01*
X107543195Y-66386734D01*
X107497959Y-66346658D01*
X107492506Y-66341524D01*
X106573666Y-65422684D01*
X106568532Y-65417230D01*
X106528467Y-65372006D01*
X106489511Y-65345117D01*
X106478743Y-65337684D01*
X106472713Y-65333247D01*
X106452379Y-65317316D01*
X106419143Y-65277495D01*
X106405102Y-65227564D01*
X106408342Y-65205722D01*
X106405933Y-65205463D01*
X106414000Y-65130424D01*
X106414000Y-64882600D01*
X105038000Y-64882600D01*
X104976000Y-64865987D01*
X104930613Y-64820600D01*
X104914000Y-64758600D01*
X104914000Y-63682600D01*
X105414000Y-63682600D01*
X105414000Y-64382600D01*
X106414000Y-64382600D01*
X121414000Y-64382600D01*
X122414000Y-64382600D01*
X122414000Y-63682600D01*
X122914000Y-63682600D01*
X122914000Y-64382600D01*
X123914000Y-64382600D01*
X123914000Y-64134776D01*
X123907597Y-64075224D01*
X123857352Y-63940510D01*
X123771188Y-63825411D01*
X123656089Y-63739247D01*
X123521375Y-63689002D01*
X123461824Y-63682600D01*
X122914000Y-63682600D01*
X122414000Y-63682600D01*
X121866176Y-63682600D01*
X121806624Y-63689002D01*
X121671910Y-63739247D01*
X121556811Y-63825411D01*
X121470647Y-63940510D01*
X121420402Y-64075224D01*
X121414000Y-64134776D01*
X121414000Y-64382600D01*
X106414000Y-64382600D01*
X106414000Y-64134776D01*
X106407597Y-64075224D01*
X106357352Y-63940510D01*
X106271188Y-63825411D01*
X106156089Y-63739247D01*
X106021375Y-63689002D01*
X105961824Y-63682600D01*
X105414000Y-63682600D01*
X104914000Y-63682600D01*
X104366176Y-63682600D01*
X104306624Y-63689002D01*
X104171910Y-63739247D01*
X104056811Y-63825411D01*
X103970647Y-63940510D01*
X103920402Y-64075224D01*
X103914000Y-64134776D01*
X103914000Y-64311569D01*
X103900485Y-64367864D01*
X103862885Y-64411887D01*
X103809398Y-64434042D01*
X103751682Y-64429500D01*
X103702319Y-64399250D01*
X103685757Y-64382688D01*
X103536434Y-64290586D01*
X103369897Y-64235400D01*
X103267109Y-64224900D01*
X102492091Y-64224900D01*
X102389303Y-64235400D01*
X102222765Y-64290586D01*
X102073442Y-64382688D01*
X101949386Y-64506744D01*
X101947342Y-64510059D01*
X101902235Y-64553237D01*
X101841804Y-64568958D01*
X101781374Y-64553235D01*
X101736268Y-64510056D01*
X101734416Y-64507054D01*
X101610445Y-64383083D01*
X101461222Y-64291042D01*
X101294796Y-64235893D01*
X101192079Y-64225400D01*
X101054600Y-64225400D01*
X101054600Y-65576400D01*
X101037987Y-65638400D01*
X100992600Y-65683787D01*
X100930600Y-65700400D01*
X99717101Y-65700400D01*
X99717101Y-65975379D01*
X99727593Y-66078095D01*
X99782742Y-66244522D01*
X99874783Y-66393745D01*
X99998754Y-66517716D01*
X100147977Y-66609757D01*
X100314403Y-66664906D01*
X100377359Y-66671337D01*
X100441312Y-66697147D01*
X100481585Y-66753132D01*
X100485721Y-66821972D01*
X100452440Y-66882375D01*
X100399691Y-66935125D01*
X100394238Y-66940258D01*
X100349007Y-66980330D01*
X100314682Y-67030058D01*
X100310245Y-67036087D01*
X100272963Y-67083674D01*
X100268762Y-67093010D01*
X100257740Y-67112554D01*
X100251927Y-67120975D01*
X100230498Y-67177477D01*
X100227634Y-67184392D01*
X100202829Y-67239509D01*
X100200985Y-67249572D01*
X100194962Y-67271177D01*
X100191330Y-67280754D01*
X100184041Y-67340777D01*
X100182914Y-67348178D01*
X100172025Y-67407597D01*
X100175674Y-67467914D01*
X100175900Y-67475400D01*
X100175900Y-67696576D01*
X100160177Y-67757008D01*
X100116996Y-67802115D01*
X100060942Y-67836688D01*
X99936888Y-67960742D01*
X99844786Y-68110065D01*
X99789600Y-68276602D01*
X99779100Y-68379390D01*
X99779100Y-69379408D01*
X99789600Y-69482196D01*
X99844786Y-69648734D01*
X99936888Y-69798057D01*
X100060942Y-69922111D01*
X100116996Y-69956685D01*
X100160177Y-70001792D01*
X100175900Y-70062224D01*
X100175900Y-83922356D01*
X100166461Y-83969809D01*
X100139581Y-84010037D01*
X98163435Y-85986181D01*
X98123207Y-86013061D01*
X98075754Y-86022500D01*
X95673930Y-86022500D01*
X95614315Y-86028909D01*
X95479469Y-86079204D01*
X95364254Y-86165454D01*
X95278004Y-86280668D01*
X95227709Y-86415516D01*
X95227372Y-86418654D01*
X95221766Y-86470799D01*
X95221300Y-86475130D01*
X95221300Y-88570869D01*
X95227709Y-88630484D01*
X95238532Y-88659501D01*
X95278004Y-88765331D01*
X95364254Y-88880546D01*
X95479469Y-88966796D01*
X95614317Y-89017091D01*
X95673927Y-89023500D01*
X96794100Y-89023500D01*
X96856100Y-89040113D01*
X96901487Y-89085500D01*
X96918100Y-89147500D01*
X96918100Y-92200993D01*
X96903631Y-92259121D01*
X96863602Y-92303684D01*
X96807353Y-92324282D01*
X96784730Y-92326714D01*
X96764315Y-92328909D01*
X96629467Y-92379204D01*
X96545692Y-92441918D01*
X96497740Y-92463817D01*
X96445023Y-92463817D01*
X96397071Y-92441918D01*
X96313888Y-92379647D01*
X96179175Y-92329402D01*
X96119624Y-92323000D01*
X95571800Y-92323000D01*
X95571800Y-93949000D01*
X95555187Y-94011000D01*
X95509800Y-94056387D01*
X95447800Y-94073000D01*
X94071800Y-94073000D01*
X94071800Y-94481656D01*
X94058285Y-94537951D01*
X94020685Y-94581974D01*
X93967198Y-94604129D01*
X93909482Y-94599587D01*
X93860119Y-94569337D01*
X93752818Y-94462036D01*
X93725938Y-94421808D01*
X93716499Y-94374355D01*
X93716499Y-93807891D01*
X93705999Y-93705103D01*
X93684391Y-93639896D01*
X93662224Y-93573000D01*
X94071800Y-93573000D01*
X95071800Y-93573000D01*
X95071800Y-92323000D01*
X94523976Y-92323000D01*
X94464424Y-92329402D01*
X94329710Y-92379647D01*
X94214611Y-92465811D01*
X94128447Y-92580910D01*
X94078202Y-92715624D01*
X94071800Y-92775176D01*
X94071800Y-93573000D01*
X93662224Y-93573000D01*
X93650814Y-93538566D01*
X93588291Y-93437200D01*
X93558711Y-93389242D01*
X93434659Y-93265190D01*
X93431345Y-93263146D01*
X93388163Y-93218038D01*
X93372440Y-93157604D01*
X93388164Y-93097171D01*
X93431348Y-93052064D01*
X93434348Y-93050213D01*
X93558316Y-92926245D01*
X93650357Y-92777022D01*
X93705506Y-92610596D01*
X93716000Y-92507879D01*
X93716000Y-92370400D01*
X91266001Y-92370400D01*
X91266001Y-92507879D01*
X91276493Y-92610595D01*
X91331642Y-92777022D01*
X91423683Y-92926245D01*
X91547654Y-93050216D01*
X91550656Y-93052068D01*
X91593835Y-93097174D01*
X91609558Y-93157604D01*
X91593837Y-93218035D01*
X91550659Y-93263142D01*
X91547344Y-93265186D01*
X91423288Y-93389242D01*
X91331186Y-93538565D01*
X91331186Y-93538566D01*
X91312041Y-93596344D01*
X91306255Y-93613804D01*
X91280376Y-93658129D01*
X91238764Y-93688177D01*
X91188549Y-93698800D01*
X90719314Y-93698800D01*
X90658882Y-93683077D01*
X90613775Y-93639896D01*
X90586911Y-93596342D01*
X90462859Y-93472290D01*
X90459545Y-93470246D01*
X90416363Y-93425138D01*
X90400640Y-93364704D01*
X90416364Y-93304271D01*
X90459548Y-93259164D01*
X90462548Y-93257313D01*
X90586516Y-93133345D01*
X90678557Y-92984122D01*
X90733706Y-92817696D01*
X90744200Y-92714979D01*
X90744200Y-92577500D01*
X89393200Y-92577500D01*
X89331200Y-92560887D01*
X89285813Y-92515500D01*
X89269200Y-92453500D01*
X89269200Y-91240001D01*
X88994221Y-91240001D01*
X88891504Y-91250493D01*
X88711321Y-91310201D01*
X88710430Y-91307512D01*
X88677913Y-91317931D01*
X88619294Y-91307584D01*
X88572250Y-91271113D01*
X88558112Y-91240000D01*
X89769200Y-91240000D01*
X89769200Y-92077500D01*
X90744199Y-92077500D01*
X90744199Y-91940021D01*
X90737087Y-91870400D01*
X91266000Y-91870400D01*
X92241000Y-91870400D01*
X92241000Y-91032901D01*
X91966021Y-91032901D01*
X91863304Y-91043393D01*
X91696877Y-91098542D01*
X91547654Y-91190583D01*
X91423683Y-91314554D01*
X91331642Y-91463777D01*
X91276493Y-91630203D01*
X91266000Y-91732921D01*
X91266000Y-91870400D01*
X90737087Y-91870400D01*
X90733706Y-91837304D01*
X90678557Y-91670877D01*
X90586516Y-91521654D01*
X90462545Y-91397683D01*
X90313322Y-91305642D01*
X90146896Y-91250493D01*
X90044179Y-91240000D01*
X89769200Y-91240000D01*
X88558112Y-91240000D01*
X88547624Y-91216921D01*
X88551088Y-91157497D01*
X88581844Y-91106536D01*
X88655480Y-91032900D01*
X92741000Y-91032900D01*
X92741000Y-91870400D01*
X93715999Y-91870400D01*
X93715999Y-91732921D01*
X93705506Y-91630204D01*
X93650357Y-91463777D01*
X93558316Y-91314554D01*
X93434345Y-91190583D01*
X93285122Y-91098542D01*
X93118696Y-91043393D01*
X93015979Y-91032900D01*
X92741000Y-91032900D01*
X88655480Y-91032900D01*
X94196556Y-85491824D01*
X94250576Y-85460163D01*
X94313182Y-85458933D01*
X94353919Y-85468713D01*
X94462834Y-85494861D01*
X94700800Y-85513589D01*
X94938766Y-85494861D01*
X95170873Y-85439137D01*
X95391405Y-85347789D01*
X95594932Y-85223068D01*
X95776443Y-85068043D01*
X95876511Y-84950877D01*
X95918886Y-84918801D01*
X95970800Y-84907411D01*
X96022714Y-84918801D01*
X96065088Y-84950877D01*
X96165157Y-85068043D01*
X96346668Y-85223068D01*
X96550195Y-85347789D01*
X96584788Y-85362118D01*
X96770726Y-85439137D01*
X96844054Y-85456741D01*
X97002834Y-85494861D01*
X97240800Y-85513589D01*
X97478766Y-85494861D01*
X97710873Y-85439137D01*
X97931405Y-85347789D01*
X98134932Y-85223068D01*
X98316443Y-85068043D01*
X98471468Y-84886532D01*
X98596189Y-84683005D01*
X98687537Y-84462473D01*
X98743261Y-84230366D01*
X98761989Y-83992400D01*
X98743261Y-83754434D01*
X98687537Y-83522327D01*
X98678349Y-83500146D01*
X98596190Y-83301798D01*
X98596189Y-83301795D01*
X98471468Y-83098268D01*
X98463430Y-83088857D01*
X98388416Y-83001027D01*
X98316443Y-82916757D01*
X98153407Y-82777511D01*
X98134935Y-82761734D01*
X98134932Y-82761732D01*
X97931405Y-82637011D01*
X97931402Y-82637010D01*
X97931401Y-82637009D01*
X97710873Y-82545662D01*
X97478767Y-82489939D01*
X97240800Y-82471211D01*
X97002832Y-82489939D01*
X96770726Y-82545662D01*
X96550198Y-82637009D01*
X96346664Y-82761734D01*
X96165157Y-82916757D01*
X96065090Y-83033920D01*
X96022714Y-83065998D01*
X95970800Y-83077388D01*
X95918886Y-83065998D01*
X95876510Y-83033920D01*
X95848416Y-83001027D01*
X95776443Y-82916757D01*
X95613407Y-82777511D01*
X95594935Y-82761734D01*
X95594932Y-82761732D01*
X95391405Y-82637011D01*
X95391402Y-82637010D01*
X95391401Y-82637009D01*
X95170873Y-82545662D01*
X94938767Y-82489939D01*
X94700800Y-82471211D01*
X94462832Y-82489939D01*
X94230726Y-82545662D01*
X94010198Y-82637009D01*
X93806664Y-82761734D01*
X93625157Y-82916757D01*
X93470134Y-83098264D01*
X93345409Y-83301798D01*
X93254062Y-83522326D01*
X93198339Y-83754432D01*
X93179611Y-83992399D01*
X93198339Y-84230367D01*
X93234266Y-84380015D01*
X93233036Y-84442621D01*
X93201373Y-84496643D01*
X88619507Y-89078509D01*
X88566761Y-89109805D01*
X88505468Y-89111994D01*
X88450623Y-89084541D01*
X88415645Y-89034163D01*
X88372196Y-88917669D01*
X88285946Y-88802454D01*
X88170731Y-88716204D01*
X88035883Y-88665909D01*
X87976273Y-88659500D01*
X87976269Y-88659500D01*
X85880530Y-88659500D01*
X85820915Y-88665909D01*
X85686069Y-88716204D01*
X85570854Y-88802454D01*
X85484604Y-88917668D01*
X85438935Y-89040112D01*
X85434309Y-89052517D01*
X85427915Y-89111994D01*
X85427900Y-89112130D01*
X85427900Y-93807869D01*
X85434309Y-93867484D01*
X85437479Y-93875982D01*
X85484604Y-94002331D01*
X85570854Y-94117546D01*
X85686069Y-94203796D01*
X85820917Y-94254091D01*
X85880527Y-94260500D01*
X87976272Y-94260499D01*
X88035883Y-94254091D01*
X88126370Y-94220341D01*
X88185153Y-94213491D01*
X88240420Y-94234668D01*
X88279575Y-94279049D01*
X88293700Y-94336524D01*
X88293700Y-94790008D01*
X88304200Y-94892796D01*
X88359386Y-95059334D01*
X88451488Y-95208657D01*
X88575542Y-95332711D01*
X88618814Y-95359401D01*
X88724866Y-95424814D01*
X88816381Y-95455139D01*
X88891402Y-95479999D01*
X88901903Y-95481071D01*
X88994191Y-95490500D01*
X90044208Y-95490499D01*
X90146997Y-95479999D01*
X90313534Y-95424814D01*
X90462856Y-95332712D01*
X90586912Y-95208656D01*
X90613774Y-95165104D01*
X90658882Y-95121923D01*
X90719314Y-95106200D01*
X91480705Y-95106200D01*
X91545801Y-95124661D01*
X91611371Y-95165104D01*
X91696666Y-95217714D01*
X91797545Y-95251142D01*
X91863202Y-95272899D01*
X91872729Y-95273872D01*
X91965991Y-95283400D01*
X92532455Y-95283399D01*
X92579908Y-95292838D01*
X92620136Y-95319718D01*
X93710724Y-96410306D01*
X93715858Y-96415759D01*
X93755934Y-96460995D01*
X93805684Y-96495334D01*
X93811682Y-96499748D01*
X93859276Y-96537036D01*
X93868613Y-96541238D01*
X93888152Y-96552258D01*
X93896573Y-96558071D01*
X93953108Y-96579511D01*
X93959985Y-96582360D01*
X93987758Y-96594860D01*
X94015109Y-96607171D01*
X94021799Y-96608396D01*
X94025164Y-96609013D01*
X94046792Y-96615042D01*
X94056357Y-96618670D01*
X94104281Y-96624488D01*
X94116349Y-96625954D01*
X94123755Y-96627081D01*
X94126256Y-96627539D01*
X94183200Y-96637975D01*
X94243524Y-96634326D01*
X94251012Y-96634100D01*
X95720400Y-96634100D01*
X95727885Y-96634325D01*
X95788200Y-96637974D01*
X95847658Y-96627077D01*
X95855022Y-96625957D01*
X95915043Y-96618670D01*
X95924608Y-96615041D01*
X95946236Y-96609011D01*
X95956290Y-96607170D01*
X95956291Y-96607169D01*
X95956293Y-96607169D01*
X96011399Y-96582368D01*
X96018313Y-96579503D01*
X96074827Y-96558071D01*
X96083239Y-96552263D01*
X96102794Y-96541234D01*
X96112125Y-96537036D01*
X96159738Y-96499731D01*
X96165710Y-96495337D01*
X96215466Y-96460995D01*
X96255556Y-96415741D01*
X96260659Y-96410321D01*
X97311163Y-95359817D01*
X97351391Y-95332938D01*
X97398844Y-95323499D01*
X98419670Y-95323499D01*
X98419672Y-95323499D01*
X98479283Y-95317091D01*
X98614131Y-95266796D01*
X98697492Y-95204391D01*
X98745440Y-95182494D01*
X98798157Y-95182494D01*
X98846108Y-95204392D01*
X98929469Y-95266796D01*
X99064317Y-95317091D01*
X99123927Y-95323500D01*
X100719672Y-95323499D01*
X100779283Y-95317091D01*
X100914131Y-95266796D01*
X101029346Y-95180546D01*
X101115596Y-95065331D01*
X101165891Y-94930483D01*
X101172300Y-94870873D01*
X101172300Y-94841756D01*
X101188554Y-94780382D01*
X101233055Y-94735097D01*
X101294137Y-94717775D01*
X101355785Y-94732956D01*
X101401839Y-94776660D01*
X101430888Y-94823757D01*
X101554942Y-94947811D01*
X101602387Y-94977075D01*
X101704266Y-95039914D01*
X101800600Y-95071836D01*
X101870802Y-95095099D01*
X101880329Y-95096072D01*
X101973591Y-95105600D01*
X102540055Y-95105599D01*
X102587508Y-95115038D01*
X102627736Y-95141918D01*
X104810193Y-97324375D01*
X104840218Y-97373052D01*
X104845203Y-97430027D01*
X104824087Y-97483179D01*
X104728165Y-97620170D01*
X104628297Y-97834336D01*
X104567136Y-98062592D01*
X104546540Y-98298000D01*
X104567136Y-98533407D01*
X104610863Y-98696598D01*
X104628297Y-98761663D01*
X104728165Y-98975830D01*
X104863705Y-99169401D01*
X104863708Y-99169404D01*
X104985630Y-99291326D01*
X105016926Y-99344072D01*
X105019115Y-99405365D01*
X104991662Y-99460209D01*
X104941283Y-99495189D01*
X104809869Y-99544204D01*
X104694654Y-99630454D01*
X104608404Y-99745668D01*
X104559217Y-99877544D01*
X104558109Y-99880517D01*
X104551933Y-99937965D01*
X104551700Y-99940131D01*
X104551700Y-100284300D01*
X104535087Y-100346300D01*
X104489700Y-100391687D01*
X104427700Y-100408300D01*
X103039870Y-100408300D01*
X102982613Y-100394289D01*
X102938295Y-100355423D01*
X102928242Y-100341066D01*
X102857895Y-100240599D01*
X102690801Y-100073505D01*
X102497230Y-99937965D01*
X102283063Y-99838097D01*
X102202834Y-99816600D01*
X102054807Y-99776936D01*
X101819400Y-99756340D01*
X101583992Y-99776936D01*
X101355736Y-99838097D01*
X101141570Y-99937965D01*
X100948001Y-100073503D01*
X100825685Y-100195819D01*
X100772939Y-100227114D01*
X100711646Y-100229303D01*
X100656801Y-100201850D01*
X100621822Y-100151471D01*
X100572752Y-100019911D01*
X100486588Y-99904811D01*
X100371489Y-99818647D01*
X100236775Y-99768402D01*
X100177224Y-99762000D01*
X99529400Y-99762000D01*
X99529400Y-102462000D01*
X100177224Y-102462000D01*
X100236775Y-102455597D01*
X100371489Y-102405352D01*
X100486588Y-102319188D01*
X100572752Y-102204089D01*
X100621822Y-102072528D01*
X100656801Y-102022149D01*
X100711646Y-101994696D01*
X100772939Y-101996885D01*
X100825685Y-102028181D01*
X100947999Y-102150495D01*
X101141570Y-102286035D01*
X101355737Y-102385903D01*
X101583992Y-102447063D01*
X101819400Y-102467659D01*
X102054808Y-102447063D01*
X102283063Y-102385903D01*
X102497230Y-102286035D01*
X102690801Y-102150495D01*
X102857895Y-101983401D01*
X102938297Y-101868574D01*
X102982614Y-101829711D01*
X103039871Y-101815700D01*
X104479554Y-101815700D01*
X104528366Y-101825712D01*
X104569297Y-101854130D01*
X104595735Y-101896366D01*
X104608402Y-101930328D01*
X104608403Y-101930330D01*
X104608404Y-101930331D01*
X104694654Y-102045546D01*
X104809869Y-102131796D01*
X104944717Y-102182091D01*
X105004327Y-102188500D01*
X106800072Y-102188499D01*
X106859683Y-102182091D01*
X106994531Y-102131796D01*
X107047989Y-102091776D01*
X107111248Y-102067538D01*
X107177804Y-102080160D01*
X107227795Y-102125877D01*
X107246300Y-102191044D01*
X107246300Y-103353000D01*
X107246074Y-103360486D01*
X107242425Y-103420800D01*
X107253315Y-103480222D01*
X107254442Y-103487625D01*
X107261730Y-103547642D01*
X107265360Y-103557214D01*
X107271387Y-103578833D01*
X107273230Y-103588891D01*
X107298028Y-103643991D01*
X107300893Y-103650908D01*
X107322328Y-103707426D01*
X107328139Y-103715844D01*
X107339165Y-103735395D01*
X107343364Y-103744726D01*
X107380647Y-103792313D01*
X107385084Y-103798343D01*
X107411014Y-103835910D01*
X107419406Y-103848067D01*
X107464630Y-103888132D01*
X107470084Y-103893266D01*
X108743837Y-105167019D01*
X108774087Y-105216382D01*
X108778629Y-105274098D01*
X108756474Y-105327585D01*
X108712451Y-105365185D01*
X108656156Y-105378700D01*
X78162900Y-105378700D01*
X78100900Y-105362087D01*
X78055513Y-105316700D01*
X78038900Y-105254700D01*
X78038900Y-102999999D01*
X78994659Y-102999999D01*
X79013976Y-103196133D01*
X79071185Y-103384726D01*
X79084913Y-103410409D01*
X79164090Y-103558538D01*
X79289117Y-103710883D01*
X79441462Y-103835910D01*
X79615273Y-103928814D01*
X79803868Y-103986024D01*
X80000000Y-104005341D01*
X80196132Y-103986024D01*
X80384727Y-103928814D01*
X80558538Y-103835910D01*
X80710883Y-103710883D01*
X80835910Y-103558538D01*
X80928814Y-103384727D01*
X80986024Y-103196132D01*
X81005341Y-103000000D01*
X80986024Y-102803868D01*
X80928814Y-102615273D01*
X80835910Y-102441462D01*
X80710883Y-102289117D01*
X80558538Y-102164090D01*
X80498120Y-102131796D01*
X80384726Y-102071185D01*
X80196133Y-102013976D01*
X80000000Y-101994659D01*
X79803866Y-102013976D01*
X79615273Y-102071185D01*
X79441463Y-102164089D01*
X79289117Y-102289117D01*
X79164089Y-102441463D01*
X79071185Y-102615273D01*
X79013976Y-102803866D01*
X78994659Y-102999999D01*
X78038900Y-102999999D01*
X78038900Y-101362000D01*
X97929400Y-101362000D01*
X97929400Y-102009824D01*
X97935802Y-102069375D01*
X97986047Y-102204089D01*
X98072211Y-102319188D01*
X98187310Y-102405352D01*
X98322024Y-102455597D01*
X98381576Y-102462000D01*
X99029400Y-102462000D01*
X99029400Y-101362000D01*
X97929400Y-101362000D01*
X78038900Y-101362000D01*
X78038900Y-100862000D01*
X97929400Y-100862000D01*
X99029400Y-100862000D01*
X99029400Y-99762000D01*
X98381576Y-99762000D01*
X98322024Y-99768402D01*
X98187310Y-99818647D01*
X98072211Y-99904811D01*
X97986047Y-100019910D01*
X97935802Y-100154624D01*
X97929400Y-100214176D01*
X97929400Y-100862000D01*
X78038900Y-100862000D01*
X78038900Y-96384335D01*
X81427900Y-96384335D01*
X81468829Y-96629615D01*
X81543832Y-96848091D01*
X81549572Y-96864810D01*
X81662825Y-97074083D01*
X81667929Y-97083514D01*
X81799792Y-97252930D01*
X81820662Y-97279744D01*
X82003615Y-97448164D01*
X82211793Y-97584173D01*
X82439519Y-97684063D01*
X82680579Y-97745108D01*
X82754880Y-97751264D01*
X82866327Y-97760500D01*
X82866333Y-97760500D01*
X85190467Y-97760500D01*
X85190473Y-97760500D01*
X85291787Y-97752104D01*
X85376221Y-97745108D01*
X85617281Y-97684063D01*
X85845007Y-97584173D01*
X86053185Y-97448164D01*
X86236138Y-97279744D01*
X86388874Y-97083509D01*
X86507228Y-96864810D01*
X86587971Y-96629614D01*
X86628900Y-96384335D01*
X86628900Y-96135665D01*
X86587971Y-95890386D01*
X86507228Y-95655190D01*
X86388874Y-95436491D01*
X86388871Y-95436487D01*
X86388870Y-95436485D01*
X86269718Y-95283400D01*
X86236138Y-95240256D01*
X86053185Y-95071836D01*
X85845007Y-94935827D01*
X85845004Y-94935825D01*
X85696918Y-94870869D01*
X85617281Y-94835937D01*
X85376221Y-94774892D01*
X85376219Y-94774891D01*
X85376216Y-94774891D01*
X85190473Y-94759500D01*
X85190467Y-94759500D01*
X82866333Y-94759500D01*
X82866327Y-94759500D01*
X82680583Y-94774891D01*
X82680579Y-94774891D01*
X82680579Y-94774892D01*
X82439519Y-94835937D01*
X82439516Y-94835938D01*
X82439517Y-94835938D01*
X82211795Y-94935825D01*
X82095662Y-95011699D01*
X82003615Y-95071836D01*
X81840167Y-95222301D01*
X81820659Y-95240259D01*
X81667929Y-95436485D01*
X81549570Y-95655194D01*
X81468829Y-95890384D01*
X81427900Y-96135665D01*
X81427900Y-96384335D01*
X78038900Y-96384335D01*
X78038900Y-92622073D01*
X79127900Y-92622073D01*
X79143291Y-92807816D01*
X79143291Y-92807819D01*
X79143292Y-92807821D01*
X79204337Y-93048881D01*
X79234612Y-93117901D01*
X79304225Y-93276604D01*
X79304227Y-93276607D01*
X79440236Y-93484785D01*
X79608656Y-93667738D01*
X79674067Y-93718649D01*
X79804885Y-93820470D01*
X79804887Y-93820471D01*
X79804891Y-93820474D01*
X80023590Y-93938828D01*
X80258786Y-94019571D01*
X80504065Y-94060500D01*
X80752735Y-94060500D01*
X80998014Y-94019571D01*
X81233210Y-93938828D01*
X81451909Y-93820474D01*
X81648144Y-93667738D01*
X81816564Y-93484785D01*
X81952573Y-93276607D01*
X82052463Y-93048881D01*
X82113508Y-92807821D01*
X82128900Y-92622067D01*
X82128900Y-91006044D01*
X82138339Y-90958591D01*
X82165219Y-90918363D01*
X82615026Y-90468556D01*
X84512722Y-88570858D01*
X84518160Y-88565740D01*
X84528365Y-88556699D01*
X84563395Y-88525666D01*
X84597744Y-88475900D01*
X84602134Y-88469934D01*
X84639436Y-88422324D01*
X84643633Y-88412998D01*
X84654658Y-88393447D01*
X84660471Y-88385027D01*
X84681908Y-88328497D01*
X84684758Y-88321618D01*
X84709571Y-88266490D01*
X84711413Y-88256435D01*
X84717440Y-88234813D01*
X84721070Y-88225243D01*
X84728357Y-88165222D01*
X84729482Y-88157833D01*
X84740374Y-88098402D01*
X84738087Y-88060597D01*
X84736725Y-88038085D01*
X84736500Y-88030600D01*
X84736500Y-85409208D01*
X84752311Y-85348619D01*
X84795710Y-85303481D01*
X84841691Y-85275302D01*
X84926932Y-85223068D01*
X85108443Y-85068043D01*
X85208511Y-84950877D01*
X85250886Y-84918801D01*
X85302800Y-84907411D01*
X85354714Y-84918801D01*
X85397088Y-84950877D01*
X85497157Y-85068043D01*
X85678668Y-85223068D01*
X85882195Y-85347789D01*
X85916788Y-85362118D01*
X86102726Y-85439137D01*
X86176054Y-85456741D01*
X86334834Y-85494861D01*
X86572800Y-85513589D01*
X86810766Y-85494861D01*
X87042873Y-85439137D01*
X87263405Y-85347789D01*
X87466932Y-85223068D01*
X87648443Y-85068043D01*
X87803468Y-84886532D01*
X87928189Y-84683005D01*
X88019537Y-84462473D01*
X88075261Y-84230366D01*
X88093989Y-83992400D01*
X88075261Y-83754434D01*
X88019537Y-83522327D01*
X88010349Y-83500146D01*
X87928190Y-83301798D01*
X87928189Y-83301795D01*
X87803468Y-83098268D01*
X87795430Y-83088857D01*
X87720416Y-83001027D01*
X87648443Y-82916757D01*
X87485407Y-82777511D01*
X87466935Y-82761734D01*
X87466932Y-82761732D01*
X87263405Y-82637011D01*
X87263402Y-82637010D01*
X87263401Y-82637009D01*
X87042873Y-82545662D01*
X86810767Y-82489939D01*
X86572800Y-82471211D01*
X86334832Y-82489939D01*
X86102726Y-82545662D01*
X85882198Y-82637009D01*
X85678664Y-82761734D01*
X85497157Y-82916757D01*
X85397090Y-83033920D01*
X85354714Y-83065998D01*
X85302800Y-83077388D01*
X85250886Y-83065998D01*
X85208510Y-83033920D01*
X85180416Y-83001027D01*
X85108443Y-82916757D01*
X84945407Y-82777511D01*
X84926935Y-82761734D01*
X84926932Y-82761732D01*
X84723405Y-82637011D01*
X84723402Y-82637010D01*
X84723401Y-82637009D01*
X84502873Y-82545662D01*
X84270767Y-82489939D01*
X84032800Y-82471211D01*
X83794832Y-82489939D01*
X83562726Y-82545662D01*
X83342198Y-82637009D01*
X83138664Y-82761734D01*
X82957157Y-82916757D01*
X82802134Y-83098264D01*
X82677409Y-83301798D01*
X82586062Y-83522326D01*
X82530339Y-83754432D01*
X82511611Y-83992399D01*
X82530339Y-84230367D01*
X82586062Y-84462473D01*
X82677184Y-84682457D01*
X82677411Y-84683005D01*
X82771774Y-84836992D01*
X82802134Y-84886535D01*
X82859331Y-84953503D01*
X82957157Y-85068043D01*
X83138668Y-85223068D01*
X83201789Y-85261748D01*
X83269890Y-85303481D01*
X83313289Y-85348619D01*
X83329100Y-85409208D01*
X83329100Y-87712756D01*
X83319661Y-87760209D01*
X83292781Y-87800437D01*
X81831944Y-89261272D01*
X81774702Y-89293797D01*
X81708879Y-89292435D01*
X81653033Y-89257573D01*
X81648144Y-89252262D01*
X81648142Y-89252260D01*
X81648139Y-89252257D01*
X81451914Y-89099529D01*
X81451910Y-89099526D01*
X81451909Y-89099526D01*
X81233210Y-88981172D01*
X81233206Y-88981170D01*
X81233205Y-88981170D01*
X80998015Y-88900429D01*
X80752735Y-88859500D01*
X80504065Y-88859500D01*
X80258784Y-88900429D01*
X80023594Y-88981170D01*
X79804885Y-89099529D01*
X79608659Y-89252259D01*
X79608656Y-89252261D01*
X79608656Y-89252262D01*
X79501292Y-89368891D01*
X79440237Y-89435214D01*
X79304225Y-89643395D01*
X79204338Y-89871117D01*
X79143291Y-90112183D01*
X79127900Y-90297927D01*
X79127900Y-92622073D01*
X78038900Y-92622073D01*
X78038900Y-66687169D01*
X83149582Y-66687169D01*
X83342420Y-66805341D01*
X83562881Y-66896660D01*
X83794910Y-66952365D01*
X84032800Y-66971087D01*
X84270689Y-66952365D01*
X84502718Y-66896660D01*
X84723179Y-66805342D01*
X84916015Y-66687170D01*
X84916016Y-66687169D01*
X85689582Y-66687169D01*
X85882420Y-66805341D01*
X86102881Y-66896660D01*
X86334910Y-66952365D01*
X86572800Y-66971087D01*
X86810689Y-66952365D01*
X87042718Y-66896660D01*
X87263179Y-66805342D01*
X87456015Y-66687170D01*
X87456016Y-66687169D01*
X86572801Y-65803953D01*
X86572800Y-65803953D01*
X85689582Y-66687169D01*
X84916016Y-66687169D01*
X84032801Y-65803953D01*
X84032800Y-65803953D01*
X83149582Y-66687169D01*
X78038900Y-66687169D01*
X78038900Y-65450400D01*
X82512112Y-65450400D01*
X82530834Y-65688289D01*
X82586539Y-65920318D01*
X82677858Y-66140779D01*
X82796029Y-66333616D01*
X83679246Y-65450401D01*
X84386353Y-65450401D01*
X85269569Y-66333615D01*
X85288226Y-66331407D01*
X85317376Y-66331408D01*
X85336029Y-66333616D01*
X86219246Y-65450401D01*
X86926353Y-65450401D01*
X87809569Y-66333616D01*
X87809570Y-66333615D01*
X87927742Y-66140779D01*
X88019060Y-65920318D01*
X88074765Y-65688289D01*
X88093487Y-65450400D01*
X88093487Y-65450399D01*
X93179611Y-65450399D01*
X93198339Y-65688367D01*
X93254062Y-65920473D01*
X93345317Y-66140779D01*
X93345411Y-66141005D01*
X93400232Y-66230465D01*
X93470134Y-66344535D01*
X93531673Y-66416588D01*
X93625157Y-66526043D01*
X93723174Y-66609757D01*
X93802595Y-66677590D01*
X93806668Y-66681068D01*
X94010195Y-66805789D01*
X94049264Y-66821972D01*
X94230726Y-66897137D01*
X94304054Y-66914741D01*
X94462834Y-66952861D01*
X94700800Y-66971589D01*
X94938766Y-66952861D01*
X95170873Y-66897137D01*
X95391405Y-66805789D01*
X95594932Y-66681068D01*
X95776443Y-66526043D01*
X95876511Y-66408877D01*
X95918886Y-66376801D01*
X95970800Y-66365411D01*
X96022714Y-66376801D01*
X96065088Y-66408877D01*
X96165157Y-66526043D01*
X96346668Y-66681068D01*
X96356626Y-66687170D01*
X96477890Y-66761481D01*
X96521289Y-66806619D01*
X96537100Y-66867208D01*
X96537100Y-67226162D01*
X96528864Y-67270599D01*
X96514366Y-67294256D01*
X96514783Y-67294497D01*
X96413620Y-67469715D01*
X96355126Y-67649742D01*
X96335340Y-67838000D01*
X96355126Y-68026257D01*
X96413620Y-68206284D01*
X96508266Y-68370216D01*
X96634929Y-68510889D01*
X96788069Y-68622151D01*
X96960997Y-68699144D01*
X97146152Y-68738500D01*
X97146154Y-68738500D01*
X97335446Y-68738500D01*
X97335448Y-68738500D01*
X97458884Y-68712262D01*
X97520603Y-68699144D01*
X97693530Y-68622151D01*
X97846671Y-68510888D01*
X97973333Y-68370216D01*
X98067979Y-68206284D01*
X98126474Y-68026256D01*
X98146260Y-67838000D01*
X98126474Y-67649744D01*
X98067979Y-67469716D01*
X98067979Y-67469715D01*
X97966817Y-67294497D01*
X97967233Y-67294256D01*
X97952736Y-67270599D01*
X97944500Y-67226162D01*
X97944500Y-66867208D01*
X97960311Y-66806619D01*
X98003710Y-66761481D01*
X98084099Y-66712218D01*
X98134932Y-66681068D01*
X98316443Y-66526043D01*
X98471468Y-66344532D01*
X98596189Y-66141005D01*
X98687537Y-65920473D01*
X98743261Y-65688366D01*
X98761989Y-65450400D01*
X98743261Y-65212434D01*
X98740372Y-65200400D01*
X99717100Y-65200400D01*
X100554600Y-65200400D01*
X100554600Y-64225401D01*
X100417121Y-64225401D01*
X100314404Y-64235893D01*
X100147977Y-64291042D01*
X99998754Y-64383083D01*
X99874783Y-64507054D01*
X99782742Y-64656277D01*
X99727593Y-64822703D01*
X99717100Y-64925421D01*
X99717100Y-65200400D01*
X98740372Y-65200400D01*
X98687537Y-64980327D01*
X98675845Y-64952101D01*
X98629934Y-64841262D01*
X98596189Y-64759795D01*
X98471468Y-64556268D01*
X98468879Y-64553237D01*
X98367077Y-64434042D01*
X98316443Y-64374757D01*
X98206988Y-64281273D01*
X98134935Y-64219734D01*
X98134932Y-64219732D01*
X97931405Y-64095011D01*
X97931402Y-64095010D01*
X97931401Y-64095009D01*
X97710873Y-64003662D01*
X97478767Y-63947939D01*
X97240800Y-63929211D01*
X97002832Y-63947939D01*
X96770726Y-64003662D01*
X96550198Y-64095009D01*
X96346664Y-64219734D01*
X96165157Y-64374757D01*
X96065090Y-64491920D01*
X96022714Y-64523998D01*
X95970800Y-64535388D01*
X95918886Y-64523998D01*
X95876510Y-64491920D01*
X95823198Y-64429500D01*
X95776443Y-64374757D01*
X95666988Y-64281273D01*
X95594935Y-64219734D01*
X95594932Y-64219732D01*
X95391405Y-64095011D01*
X95391402Y-64095010D01*
X95391401Y-64095009D01*
X95170873Y-64003662D01*
X94938767Y-63947939D01*
X94700800Y-63929211D01*
X94462832Y-63947939D01*
X94230726Y-64003662D01*
X94010198Y-64095009D01*
X93806664Y-64219734D01*
X93625157Y-64374757D01*
X93470134Y-64556264D01*
X93345409Y-64759798D01*
X93254062Y-64980326D01*
X93198339Y-65212432D01*
X93179611Y-65450399D01*
X88093487Y-65450399D01*
X88074765Y-65212510D01*
X88019060Y-64980481D01*
X87927741Y-64760020D01*
X87809569Y-64567182D01*
X86926353Y-65450400D01*
X86926353Y-65450401D01*
X86219246Y-65450401D01*
X86219246Y-65450400D01*
X85336029Y-64567182D01*
X85317374Y-64569391D01*
X85288227Y-64569391D01*
X85269569Y-64567183D01*
X84386353Y-65450400D01*
X84386353Y-65450401D01*
X83679246Y-65450401D01*
X83679246Y-65450400D01*
X82796029Y-64567182D01*
X82677855Y-64760022D01*
X82586540Y-64980478D01*
X82530834Y-65212510D01*
X82512112Y-65450400D01*
X78038900Y-65450400D01*
X78038900Y-64213629D01*
X83149582Y-64213629D01*
X84032800Y-65096846D01*
X84032801Y-65096846D01*
X84916016Y-64213629D01*
X85689582Y-64213629D01*
X86572800Y-65096846D01*
X86572801Y-65096846D01*
X87456016Y-64213629D01*
X87263179Y-64095458D01*
X87042718Y-64004139D01*
X86810689Y-63948434D01*
X86572800Y-63929712D01*
X86334910Y-63948434D01*
X86102878Y-64004140D01*
X85882422Y-64095455D01*
X85689582Y-64213629D01*
X84916016Y-64213629D01*
X84723179Y-64095458D01*
X84502718Y-64004139D01*
X84270689Y-63948434D01*
X84032800Y-63929712D01*
X83794910Y-63948434D01*
X83562878Y-64004140D01*
X83342422Y-64095455D01*
X83149582Y-64213629D01*
X78038900Y-64213629D01*
X78038900Y-57999999D01*
X78994659Y-57999999D01*
X79013976Y-58196133D01*
X79071185Y-58384726D01*
X79071186Y-58384727D01*
X79164090Y-58558538D01*
X79289117Y-58710883D01*
X79441462Y-58835910D01*
X79615273Y-58928814D01*
X79803868Y-58986024D01*
X80000000Y-59005341D01*
X80196132Y-58986024D01*
X80384727Y-58928814D01*
X80558538Y-58835910D01*
X80710883Y-58710883D01*
X80835910Y-58558538D01*
X80928814Y-58384727D01*
X80986024Y-58196132D01*
X81005341Y-58000000D01*
X80986024Y-57803868D01*
X80928814Y-57615273D01*
X80835910Y-57441462D01*
X80710883Y-57289117D01*
X80558538Y-57164090D01*
X80536091Y-57152092D01*
X80384726Y-57071185D01*
X80196133Y-57013976D01*
X80000000Y-56994659D01*
X79803866Y-57013976D01*
X79615273Y-57071185D01*
X79441463Y-57164089D01*
X79289117Y-57289117D01*
X79164089Y-57441463D01*
X79071185Y-57615273D01*
X79013976Y-57803866D01*
X78994659Y-57999999D01*
X78038900Y-57999999D01*
X78038900Y-55618100D01*
X78055513Y-55556100D01*
X78100900Y-55510713D01*
X78162900Y-55494100D01*
X85191891Y-55494100D01*
X85253304Y-55510376D01*
G37*
%TD.AperFunction*%
%TA.AperFunction,Conductor*%
G36*
X131023619Y-101540923D02*
G01*
X131055713Y-101596510D01*
X131055713Y-101660697D01*
X130998936Y-101872592D01*
X130978340Y-102107999D01*
X130998936Y-102343407D01*
X131038452Y-102490882D01*
X131060097Y-102571663D01*
X131159965Y-102785830D01*
X131295505Y-102979401D01*
X131462599Y-103146495D01*
X131656170Y-103282035D01*
X131870337Y-103381903D01*
X132098592Y-103443063D01*
X132334000Y-103463659D01*
X132569408Y-103443063D01*
X132797663Y-103381903D01*
X133011830Y-103282035D01*
X133205401Y-103146495D01*
X133372495Y-102979401D01*
X133508035Y-102785830D01*
X133607903Y-102571663D01*
X133663036Y-102365902D01*
X133671871Y-102332930D01*
X133673527Y-102333373D01*
X133689702Y-102287909D01*
X133736649Y-102246737D01*
X133797709Y-102233666D01*
X133857397Y-102252010D01*
X133900578Y-102297116D01*
X133916300Y-102357548D01*
X133916300Y-103543156D01*
X133906861Y-103590609D01*
X133879981Y-103630837D01*
X133348837Y-104161981D01*
X133308609Y-104188861D01*
X133261156Y-104198300D01*
X129288781Y-104198300D01*
X129227407Y-104182046D01*
X129182122Y-104137545D01*
X129164800Y-104076463D01*
X129179981Y-104014815D01*
X129223685Y-103968761D01*
X129230289Y-103964687D01*
X129249056Y-103953112D01*
X129373112Y-103829056D01*
X129465214Y-103679734D01*
X129520399Y-103513197D01*
X129530900Y-103410409D01*
X129530899Y-102909642D01*
X129540338Y-102862190D01*
X129567215Y-102821965D01*
X130848259Y-101540921D01*
X130903844Y-101508829D01*
X130968031Y-101508829D01*
X131023619Y-101540923D01*
G37*
%TD.AperFunction*%
%TA.AperFunction,Conductor*%
G36*
X125232707Y-95011699D02*
G01*
X125278462Y-95063350D01*
X125289524Y-95131459D01*
X125288439Y-95140387D01*
X125287314Y-95147779D01*
X125276349Y-95207614D01*
X125245017Y-95269885D01*
X125185042Y-95305412D01*
X125115376Y-95302969D01*
X125072296Y-95288693D01*
X124969579Y-95278200D01*
X124719600Y-95278200D01*
X124719600Y-96504200D01*
X124702987Y-96566200D01*
X124657600Y-96611587D01*
X124595600Y-96628200D01*
X123269601Y-96628200D01*
X123269601Y-96778179D01*
X123280093Y-96880895D01*
X123335242Y-97047322D01*
X123427283Y-97196545D01*
X123520903Y-97290165D01*
X123552997Y-97345752D01*
X123552997Y-97409939D01*
X123520904Y-97465527D01*
X123426887Y-97559544D01*
X123334786Y-97708865D01*
X123279600Y-97875402D01*
X123269100Y-97978190D01*
X123269100Y-98778208D01*
X123279600Y-98880996D01*
X123334786Y-99047534D01*
X123426886Y-99196854D01*
X123426887Y-99196855D01*
X123426888Y-99196856D01*
X123483587Y-99253555D01*
X123512792Y-99299842D01*
X123519226Y-99354196D01*
X123513747Y-99406332D01*
X123513340Y-99410200D01*
X123533126Y-99598456D01*
X123550808Y-99652876D01*
X123552034Y-99656647D01*
X123554677Y-99723912D01*
X123521785Y-99782646D01*
X123426887Y-99877544D01*
X123334786Y-100026865D01*
X123279600Y-100193402D01*
X123269100Y-100296190D01*
X123269100Y-101096208D01*
X123279600Y-101198996D01*
X123334786Y-101365534D01*
X123426888Y-101514857D01*
X123520550Y-101608519D01*
X123552644Y-101664106D01*
X123552644Y-101728294D01*
X123520550Y-101783881D01*
X123426888Y-101877542D01*
X123334786Y-102026865D01*
X123279600Y-102193402D01*
X123269100Y-102296190D01*
X123269100Y-103096208D01*
X123279600Y-103198996D01*
X123334786Y-103365534D01*
X123426888Y-103514857D01*
X123550942Y-103638911D01*
X123607495Y-103673792D01*
X123700266Y-103731014D01*
X123811616Y-103767912D01*
X123866802Y-103786199D01*
X123877303Y-103787271D01*
X123969591Y-103796700D01*
X124969608Y-103796699D01*
X125072397Y-103786199D01*
X125238934Y-103731014D01*
X125388256Y-103638912D01*
X125512312Y-103514856D01*
X125604414Y-103365534D01*
X125659599Y-103198997D01*
X125670100Y-103096209D01*
X125670099Y-102542242D01*
X125679538Y-102494790D01*
X125706415Y-102454565D01*
X126463921Y-101697059D01*
X126469341Y-101691956D01*
X126514595Y-101651866D01*
X126548937Y-101602110D01*
X126553331Y-101596138D01*
X126590636Y-101548525D01*
X126594834Y-101539194D01*
X126605864Y-101519639D01*
X126609165Y-101514857D01*
X126611671Y-101511227D01*
X126633103Y-101454713D01*
X126635968Y-101447799D01*
X126660769Y-101392693D01*
X126662611Y-101382640D01*
X126668643Y-101361004D01*
X126672270Y-101351443D01*
X126679557Y-101291422D01*
X126680677Y-101284058D01*
X126691574Y-101224600D01*
X126687925Y-101164285D01*
X126687700Y-101156800D01*
X126687700Y-95592844D01*
X126697139Y-95545391D01*
X126724019Y-95505163D01*
X126747163Y-95482019D01*
X126787391Y-95455139D01*
X126834844Y-95445700D01*
X127468301Y-95445700D01*
X127529675Y-95461954D01*
X127574960Y-95506455D01*
X127592282Y-95567536D01*
X127577102Y-95629185D01*
X127533398Y-95675239D01*
X127412053Y-95750084D01*
X127288083Y-95874054D01*
X127196042Y-96023277D01*
X127140893Y-96189703D01*
X127130400Y-96292421D01*
X127130400Y-96442400D01*
X129530399Y-96442400D01*
X129530399Y-96286105D01*
X129531449Y-96286105D01*
X129539109Y-96233244D01*
X129574932Y-96184678D01*
X129629438Y-96158774D01*
X129689718Y-96161668D01*
X129741492Y-96192674D01*
X131056730Y-97507912D01*
X131061850Y-97513350D01*
X131067551Y-97519785D01*
X131087114Y-97549603D01*
X131120021Y-97620170D01*
X131159965Y-97705830D01*
X131295505Y-97899401D01*
X131462599Y-98066495D01*
X131648160Y-98196426D01*
X131687024Y-98240743D01*
X131701035Y-98298000D01*
X131687024Y-98355257D01*
X131648159Y-98399575D01*
X131462595Y-98529508D01*
X131295505Y-98696598D01*
X131159965Y-98890170D01*
X131060097Y-99104336D01*
X130998936Y-99332592D01*
X130996418Y-99361373D01*
X130985272Y-99402969D01*
X130960571Y-99438245D01*
X129739288Y-100659528D01*
X129678885Y-100692809D01*
X129610044Y-100688674D01*
X129554060Y-100648401D01*
X129528249Y-100584448D01*
X129520399Y-100507603D01*
X129496066Y-100434171D01*
X129465214Y-100341066D01*
X129442909Y-100304904D01*
X129424462Y-100241600D01*
X129435762Y-100198193D01*
X129432951Y-100197280D01*
X129436979Y-100184884D01*
X129495474Y-100004856D01*
X129515260Y-99816600D01*
X129495474Y-99628344D01*
X129446026Y-99476162D01*
X129440839Y-99423091D01*
X129458421Y-99372747D01*
X129465214Y-99361734D01*
X129520399Y-99195197D01*
X129530900Y-99092409D01*
X129530899Y-98292392D01*
X129520399Y-98189603D01*
X129465214Y-98023066D01*
X129388939Y-97899404D01*
X129373113Y-97873745D01*
X129333083Y-97833715D01*
X129279093Y-97779725D01*
X129247001Y-97724140D01*
X129247001Y-97659952D01*
X129279096Y-97604364D01*
X129372716Y-97510744D01*
X129464757Y-97361522D01*
X129519906Y-97195096D01*
X129530400Y-97092379D01*
X129530400Y-96942400D01*
X127130401Y-96942400D01*
X127130401Y-97092379D01*
X127140893Y-97195095D01*
X127196042Y-97361522D01*
X127288083Y-97510745D01*
X127381703Y-97604365D01*
X127413797Y-97659952D01*
X127413797Y-97724139D01*
X127381704Y-97779727D01*
X127287687Y-97873744D01*
X127195586Y-98023065D01*
X127140400Y-98189602D01*
X127129900Y-98292390D01*
X127129900Y-99092408D01*
X127140400Y-99195196D01*
X127195586Y-99361734D01*
X127287688Y-99511057D01*
X127411742Y-99635111D01*
X127487358Y-99681751D01*
X127561066Y-99727214D01*
X127580622Y-99733694D01*
X127632304Y-99766830D01*
X127661756Y-99820699D01*
X127661758Y-99882094D01*
X127632307Y-99935964D01*
X127580625Y-99969104D01*
X127561065Y-99975586D01*
X127411742Y-100067688D01*
X127287688Y-100191742D01*
X127195586Y-100341065D01*
X127140400Y-100507602D01*
X127129900Y-100610390D01*
X127129900Y-101410408D01*
X127140400Y-101513196D01*
X127195586Y-101679734D01*
X127287686Y-101829054D01*
X127287687Y-101829055D01*
X127287688Y-101829056D01*
X127381351Y-101922719D01*
X127413444Y-101978305D01*
X127413444Y-102042492D01*
X127381351Y-102098080D01*
X127287687Y-102191744D01*
X127195586Y-102341065D01*
X127140400Y-102507602D01*
X127129900Y-102610390D01*
X127129900Y-103410408D01*
X127140400Y-103513196D01*
X127195586Y-103679734D01*
X127287688Y-103829057D01*
X127411742Y-103953111D01*
X127437115Y-103968761D01*
X127480819Y-104014815D01*
X127496000Y-104076463D01*
X127478678Y-104137545D01*
X127433393Y-104182046D01*
X127372019Y-104198300D01*
X109816844Y-104198300D01*
X109769391Y-104188861D01*
X109729163Y-104161981D01*
X108690019Y-103122837D01*
X108663139Y-103082609D01*
X108653700Y-103035156D01*
X108653700Y-101834337D01*
X108667711Y-101777080D01*
X108706578Y-101732761D01*
X108761517Y-101711398D01*
X108820113Y-101717816D01*
X108869125Y-101750566D01*
X108888617Y-101786099D01*
X108890912Y-101785030D01*
X108895496Y-101794861D01*
X108895497Y-101794863D01*
X108995365Y-102009030D01*
X109130905Y-102202601D01*
X109297999Y-102369695D01*
X109491570Y-102505235D01*
X109705737Y-102605103D01*
X109933992Y-102666263D01*
X110169400Y-102686859D01*
X110404808Y-102666263D01*
X110633063Y-102605103D01*
X110847230Y-102505235D01*
X111040801Y-102369695D01*
X111207895Y-102202601D01*
X111343435Y-102009030D01*
X111443303Y-101794863D01*
X111504463Y-101566608D01*
X111525059Y-101331200D01*
X111504463Y-101095792D01*
X111443303Y-100867537D01*
X111343435Y-100653371D01*
X111207895Y-100459799D01*
X111085969Y-100337873D01*
X111054673Y-100285127D01*
X111052484Y-100223834D01*
X111079937Y-100168989D01*
X111130316Y-100134010D01*
X111261731Y-100084996D01*
X111376946Y-99998746D01*
X111463196Y-99883531D01*
X111513491Y-99748683D01*
X111519900Y-99689073D01*
X111519900Y-99618900D01*
X111536513Y-99556900D01*
X111581900Y-99511513D01*
X111643900Y-99494900D01*
X113118375Y-99494900D01*
X113167188Y-99504912D01*
X113208118Y-99533330D01*
X113234556Y-99575565D01*
X113260204Y-99644331D01*
X113346454Y-99759546D01*
X113461669Y-99845796D01*
X113554761Y-99880517D01*
X113593082Y-99894810D01*
X113643462Y-99929789D01*
X113670915Y-99984634D01*
X113668726Y-100045926D01*
X113637431Y-100098673D01*
X113515503Y-100220601D01*
X113379965Y-100414170D01*
X113280097Y-100628336D01*
X113218936Y-100856592D01*
X113198340Y-101092000D01*
X113218936Y-101327407D01*
X113253050Y-101454720D01*
X113280097Y-101555663D01*
X113379965Y-101769830D01*
X113515505Y-101963401D01*
X113682599Y-102130495D01*
X113876170Y-102266035D01*
X114090337Y-102365903D01*
X114318592Y-102427063D01*
X114554000Y-102447659D01*
X114789408Y-102427063D01*
X115017663Y-102365903D01*
X115231830Y-102266035D01*
X115425401Y-102130495D01*
X115592495Y-101963401D01*
X115728035Y-101769830D01*
X115827903Y-101555663D01*
X115889063Y-101327408D01*
X115909659Y-101092000D01*
X115889063Y-100856592D01*
X115827903Y-100628337D01*
X115728035Y-100414171D01*
X115592495Y-100220599D01*
X115470568Y-100098672D01*
X115439273Y-100045927D01*
X115437084Y-99984634D01*
X115464537Y-99929789D01*
X115514916Y-99894810D01*
X115646331Y-99845796D01*
X115761546Y-99759546D01*
X115847796Y-99644331D01*
X115879411Y-99559564D01*
X115905850Y-99517330D01*
X115946780Y-99488912D01*
X115995593Y-99478900D01*
X117684407Y-99478900D01*
X117733220Y-99488912D01*
X117774150Y-99517330D01*
X117800588Y-99559564D01*
X117832204Y-99644331D01*
X117918454Y-99759546D01*
X118033669Y-99845796D01*
X118126761Y-99880517D01*
X118165082Y-99894810D01*
X118215462Y-99929789D01*
X118242915Y-99984634D01*
X118240726Y-100045926D01*
X118209431Y-100098673D01*
X118087503Y-100220601D01*
X117951965Y-100414170D01*
X117852097Y-100628336D01*
X117790936Y-100856592D01*
X117770340Y-101092000D01*
X117790936Y-101327407D01*
X117825050Y-101454720D01*
X117852097Y-101555663D01*
X117951965Y-101769830D01*
X118087505Y-101963401D01*
X118254599Y-102130495D01*
X118448170Y-102266035D01*
X118662337Y-102365903D01*
X118890592Y-102427063D01*
X119126000Y-102447659D01*
X119361408Y-102427063D01*
X119589663Y-102365903D01*
X119803830Y-102266035D01*
X119997401Y-102130495D01*
X120164495Y-101963401D01*
X120300035Y-101769830D01*
X120399903Y-101555663D01*
X120461063Y-101327408D01*
X120481659Y-101092000D01*
X120461063Y-100856592D01*
X120399903Y-100628337D01*
X120300035Y-100414171D01*
X120164495Y-100220599D01*
X120042568Y-100098672D01*
X120011273Y-100045927D01*
X120009084Y-99984634D01*
X120036537Y-99929789D01*
X120086916Y-99894810D01*
X120218331Y-99845796D01*
X120333546Y-99759546D01*
X120419796Y-99644331D01*
X120470091Y-99509483D01*
X120476500Y-99449873D01*
X120476499Y-97994042D01*
X120485938Y-97946590D01*
X120512815Y-97906365D01*
X122290981Y-96128200D01*
X123269600Y-96128200D01*
X124219600Y-96128200D01*
X124219600Y-95278201D01*
X123969621Y-95278201D01*
X123866904Y-95288693D01*
X123700477Y-95343842D01*
X123551254Y-95435883D01*
X123427283Y-95559854D01*
X123335242Y-95709077D01*
X123280093Y-95875503D01*
X123269600Y-95978221D01*
X123269600Y-96128200D01*
X122290981Y-96128200D01*
X123390362Y-95028819D01*
X123430591Y-95001939D01*
X123478044Y-94992500D01*
X125166430Y-94992500D01*
X125232707Y-95011699D01*
G37*
%TD.AperFunction*%
%TA.AperFunction,Conductor*%
G36*
X101739876Y-83136738D02*
G01*
X101789527Y-83163568D01*
X101810030Y-83181732D01*
X101815484Y-83186866D01*
X104274181Y-85645563D01*
X104301061Y-85685791D01*
X104310500Y-85733244D01*
X104310500Y-86415069D01*
X104316909Y-86474684D01*
X104329219Y-86507689D01*
X104367204Y-86609531D01*
X104453454Y-86724746D01*
X104568669Y-86810996D01*
X104703517Y-86861291D01*
X104763127Y-86867700D01*
X105618872Y-86867699D01*
X105678483Y-86861291D01*
X105813331Y-86810996D01*
X105928546Y-86724746D01*
X106014796Y-86609531D01*
X106065091Y-86474683D01*
X106071500Y-86415073D01*
X106071499Y-85452763D01*
X106086885Y-85392940D01*
X106129225Y-85347962D01*
X106188011Y-85328991D01*
X106248656Y-85340737D01*
X106296109Y-85380283D01*
X106318595Y-85437817D01*
X106324329Y-85485042D01*
X106327960Y-85494614D01*
X106333987Y-85516233D01*
X106335830Y-85526291D01*
X106360628Y-85581391D01*
X106363493Y-85588308D01*
X106384928Y-85644826D01*
X106390739Y-85653244D01*
X106401765Y-85672795D01*
X106405964Y-85682126D01*
X106443247Y-85729713D01*
X106447687Y-85735747D01*
X106482006Y-85785467D01*
X106527230Y-85825532D01*
X106532684Y-85830666D01*
X108018181Y-87316163D01*
X108045061Y-87356391D01*
X108054500Y-87403844D01*
X108054500Y-87957808D01*
X108065000Y-88060596D01*
X108120186Y-88227134D01*
X108212288Y-88376457D01*
X108336342Y-88500511D01*
X108336344Y-88500512D01*
X108485666Y-88592614D01*
X108597017Y-88629512D01*
X108652202Y-88647799D01*
X108661729Y-88648772D01*
X108754991Y-88658300D01*
X109308955Y-88658299D01*
X109356408Y-88667738D01*
X109396636Y-88694618D01*
X109429381Y-88727363D01*
X109456261Y-88767591D01*
X109465700Y-88815044D01*
X109465700Y-97316701D01*
X109449087Y-97378701D01*
X109403700Y-97424088D01*
X109341700Y-97440701D01*
X109271528Y-97440701D01*
X109241722Y-97443905D01*
X109211915Y-97447109D01*
X109077069Y-97497404D01*
X108961854Y-97583654D01*
X108875604Y-97698868D01*
X108825309Y-97833715D01*
X108825309Y-97833717D01*
X108821006Y-97873745D01*
X108818900Y-97893331D01*
X108818900Y-99649599D01*
X108800233Y-99715027D01*
X108749853Y-99760757D01*
X108682929Y-99773020D01*
X108619608Y-99748124D01*
X108578958Y-99693566D01*
X108577671Y-99690173D01*
X108571858Y-99681751D01*
X108560838Y-99662213D01*
X108556636Y-99652876D01*
X108549941Y-99644331D01*
X108537416Y-99628344D01*
X108519348Y-99605282D01*
X108514934Y-99599284D01*
X108480595Y-99549534D01*
X108435359Y-99509458D01*
X108429906Y-99504324D01*
X107293059Y-98367477D01*
X107268358Y-98332201D01*
X107257212Y-98290603D01*
X107237263Y-98062592D01*
X107223037Y-98009500D01*
X107176103Y-97834337D01*
X107076235Y-97620171D01*
X106940695Y-97426599D01*
X106773601Y-97259505D01*
X106580030Y-97123965D01*
X106571265Y-97119878D01*
X106535402Y-97094586D01*
X106510596Y-97058386D01*
X106508836Y-97054475D01*
X106471552Y-97006886D01*
X106467123Y-97000867D01*
X106432795Y-96951134D01*
X106422936Y-96942400D01*
X106387559Y-96911058D01*
X106382106Y-96905924D01*
X103760418Y-94284236D01*
X103733538Y-94244008D01*
X103724099Y-94196555D01*
X103724099Y-93630091D01*
X103713599Y-93527303D01*
X103687819Y-93449505D01*
X103683742Y-93437200D01*
X104311000Y-93437200D01*
X104311000Y-94035024D01*
X104317402Y-94094575D01*
X104367647Y-94229289D01*
X104453811Y-94344388D01*
X104568910Y-94430552D01*
X104703624Y-94480797D01*
X104763176Y-94487200D01*
X104941000Y-94487200D01*
X104941000Y-93437200D01*
X105441000Y-93437200D01*
X105441000Y-94487200D01*
X105618824Y-94487200D01*
X105678375Y-94480797D01*
X105813089Y-94430552D01*
X105928188Y-94344388D01*
X106014352Y-94229289D01*
X106064597Y-94094575D01*
X106071000Y-94035024D01*
X106071000Y-93437200D01*
X105441000Y-93437200D01*
X104941000Y-93437200D01*
X104311000Y-93437200D01*
X103683742Y-93437200D01*
X103658414Y-93360766D01*
X103570379Y-93218038D01*
X103566311Y-93211442D01*
X103442259Y-93087390D01*
X103438945Y-93085346D01*
X103395763Y-93040238D01*
X103380040Y-92979804D01*
X103391125Y-92937200D01*
X104311000Y-92937200D01*
X104941000Y-92937200D01*
X104941000Y-91887200D01*
X105441000Y-91887200D01*
X105441000Y-92937200D01*
X106071000Y-92937200D01*
X106071000Y-92339376D01*
X106064597Y-92279824D01*
X106014352Y-92145110D01*
X105928188Y-92030011D01*
X105813089Y-91943847D01*
X105678375Y-91893602D01*
X105618824Y-91887200D01*
X105441000Y-91887200D01*
X104941000Y-91887200D01*
X104763176Y-91887200D01*
X104703624Y-91893602D01*
X104568910Y-91943847D01*
X104453811Y-92030011D01*
X104367647Y-92145110D01*
X104317402Y-92279824D01*
X104311000Y-92339376D01*
X104311000Y-92937200D01*
X103391125Y-92937200D01*
X103395764Y-92919371D01*
X103438948Y-92874264D01*
X103441948Y-92872413D01*
X103565916Y-92748445D01*
X103657957Y-92599222D01*
X103713106Y-92432796D01*
X103723600Y-92330079D01*
X103723600Y-92192600D01*
X101273601Y-92192600D01*
X101273601Y-92330080D01*
X101282751Y-92419661D01*
X101272698Y-92482638D01*
X101232674Y-92532290D01*
X101173266Y-92555483D01*
X101110188Y-92546080D01*
X101060126Y-92506571D01*
X101029347Y-92465455D01*
X101026741Y-92463504D01*
X100914131Y-92379204D01*
X100845279Y-92353524D01*
X100794132Y-92317650D01*
X100766968Y-92261389D01*
X100769415Y-92220302D01*
X100766711Y-92220018D01*
X100768072Y-92207059D01*
X100768074Y-92207056D01*
X100787860Y-92018800D01*
X100768074Y-91830544D01*
X100723253Y-91692600D01*
X101273600Y-91692600D01*
X102248600Y-91692600D01*
X102248600Y-90855101D01*
X101973621Y-90855101D01*
X101870904Y-90865593D01*
X101704477Y-90920742D01*
X101555254Y-91012783D01*
X101431283Y-91136754D01*
X101339242Y-91285977D01*
X101284093Y-91452403D01*
X101273600Y-91555121D01*
X101273600Y-91692600D01*
X100723253Y-91692600D01*
X100709579Y-91650516D01*
X100709579Y-91650515D01*
X100614933Y-91486583D01*
X100488270Y-91345910D01*
X100335130Y-91234648D01*
X100162202Y-91157655D01*
X99977048Y-91118300D01*
X99977046Y-91118300D01*
X99787754Y-91118300D01*
X99787752Y-91118300D01*
X99602597Y-91157655D01*
X99429669Y-91234648D01*
X99276529Y-91345910D01*
X99149866Y-91486583D01*
X99055220Y-91650515D01*
X98996726Y-91830542D01*
X98976940Y-92018800D01*
X98996726Y-92207057D01*
X99002634Y-92225238D01*
X99006349Y-92287602D01*
X98979186Y-92343861D01*
X98939405Y-92371764D01*
X98846109Y-92441605D01*
X98798157Y-92463504D01*
X98745441Y-92463504D01*
X98697489Y-92441605D01*
X98614133Y-92379205D01*
X98614131Y-92379204D01*
X98479283Y-92328909D01*
X98436244Y-92324281D01*
X98379997Y-92303682D01*
X98339968Y-92259120D01*
X98325500Y-92200992D01*
X98325500Y-90855100D01*
X102748600Y-90855100D01*
X102748600Y-91692600D01*
X103723599Y-91692600D01*
X103723599Y-91555121D01*
X103713106Y-91452404D01*
X103657957Y-91285977D01*
X103565916Y-91136754D01*
X103441945Y-91012783D01*
X103292722Y-90920742D01*
X103126296Y-90865593D01*
X103023579Y-90855100D01*
X102748600Y-90855100D01*
X98325500Y-90855100D01*
X98325500Y-89147499D01*
X98342113Y-89085499D01*
X98387500Y-89040112D01*
X98449500Y-89023499D01*
X99569670Y-89023499D01*
X99569672Y-89023499D01*
X99629283Y-89017091D01*
X99764131Y-88966796D01*
X99879346Y-88880546D01*
X99965596Y-88765331D01*
X100015891Y-88630483D01*
X100022300Y-88570873D01*
X100022299Y-86475128D01*
X100015891Y-86415517D01*
X99965596Y-86280669D01*
X99965595Y-86280667D01*
X99964571Y-86277922D01*
X99959587Y-86208231D01*
X99993070Y-86146910D01*
X101359521Y-84780459D01*
X101364941Y-84775356D01*
X101410195Y-84735266D01*
X101444537Y-84685510D01*
X101448931Y-84679538D01*
X101486236Y-84631925D01*
X101490437Y-84622589D01*
X101501464Y-84603039D01*
X101507271Y-84594627D01*
X101528704Y-84538110D01*
X101531566Y-84531202D01*
X101534417Y-84524869D01*
X101556371Y-84476090D01*
X101558213Y-84466035D01*
X101564240Y-84444413D01*
X101567870Y-84434843D01*
X101575157Y-84374822D01*
X101576282Y-84367433D01*
X101587174Y-84308002D01*
X101583526Y-84247686D01*
X101583300Y-84240200D01*
X101583300Y-83256383D01*
X101596143Y-83201427D01*
X101632012Y-83157855D01*
X101683476Y-83134693D01*
X101739876Y-83136738D01*
G37*
%TD.AperFunction*%
%TA.AperFunction,Conductor*%
G36*
X128240279Y-81969647D02*
G01*
X128305683Y-82035051D01*
X128333945Y-82063313D01*
X128389996Y-82097885D01*
X128433177Y-82142992D01*
X128448900Y-82203424D01*
X128448900Y-90468556D01*
X128439461Y-90516009D01*
X128412581Y-90556237D01*
X125420037Y-93548781D01*
X125379809Y-93575661D01*
X125332356Y-93585100D01*
X124229500Y-93585100D01*
X124167500Y-93568487D01*
X124122113Y-93523100D01*
X124105500Y-93461101D01*
X124105499Y-93251644D01*
X124114938Y-93204191D01*
X124141815Y-93163965D01*
X127632522Y-89673258D01*
X127637960Y-89668140D01*
X127683195Y-89628066D01*
X127717547Y-89578295D01*
X127721930Y-89572340D01*
X127759236Y-89524725D01*
X127763434Y-89515395D01*
X127774460Y-89495843D01*
X127780271Y-89487427D01*
X127801708Y-89430901D01*
X127804568Y-89423998D01*
X127829370Y-89368890D01*
X127831211Y-89358837D01*
X127837241Y-89337209D01*
X127840870Y-89327643D01*
X127848156Y-89267636D01*
X127849283Y-89260228D01*
X127850743Y-89252262D01*
X127860174Y-89200801D01*
X127856525Y-89140486D01*
X127856300Y-89133001D01*
X127856300Y-82203424D01*
X127872023Y-82142992D01*
X127915204Y-82097885D01*
X127971254Y-82063313D01*
X127971253Y-82063313D01*
X127971256Y-82063312D01*
X128064920Y-81969647D01*
X128120506Y-81937555D01*
X128184694Y-81937555D01*
X128240279Y-81969647D01*
G37*
%TD.AperFunction*%
%TA.AperFunction,Conductor*%
G36*
X128011679Y-76457847D02*
G01*
X128067782Y-76513950D01*
X128105345Y-76551513D01*
X128180004Y-76597562D01*
X128254666Y-76643614D01*
X128366017Y-76680512D01*
X128421202Y-76698799D01*
X128430729Y-76699772D01*
X128523991Y-76709300D01*
X129077955Y-76709299D01*
X129125408Y-76718738D01*
X129165636Y-76745618D01*
X129360724Y-76940706D01*
X129365858Y-76946159D01*
X129405934Y-76991395D01*
X129455667Y-77025723D01*
X129461686Y-77030152D01*
X129509275Y-77067436D01*
X129518607Y-77071636D01*
X129538158Y-77082663D01*
X129546571Y-77088470D01*
X129546572Y-77088470D01*
X129546573Y-77088471D01*
X129603098Y-77109907D01*
X129609995Y-77112765D01*
X129665109Y-77137570D01*
X129675175Y-77139414D01*
X129696781Y-77145438D01*
X129706357Y-77149070D01*
X129766364Y-77156355D01*
X129773755Y-77157479D01*
X129833199Y-77168374D01*
X129893513Y-77164725D01*
X129900999Y-77164500D01*
X131367501Y-77164500D01*
X131429501Y-77181113D01*
X131474888Y-77226500D01*
X131491501Y-77288500D01*
X131491501Y-77351870D01*
X131497909Y-77411486D01*
X131509294Y-77442010D01*
X131514278Y-77511701D01*
X131480793Y-77573023D01*
X129270035Y-79783781D01*
X129229807Y-79810661D01*
X129182354Y-79820100D01*
X128752591Y-79820100D01*
X128649803Y-79830600D01*
X128483265Y-79885786D01*
X128333942Y-79977888D01*
X128240281Y-80071550D01*
X128184694Y-80103644D01*
X128120506Y-80103644D01*
X128064919Y-80071550D01*
X127971257Y-79977888D01*
X127821934Y-79885786D01*
X127655397Y-79830600D01*
X127552609Y-79820100D01*
X126752591Y-79820100D01*
X126649803Y-79830600D01*
X126483265Y-79885786D01*
X126333942Y-79977888D01*
X126209888Y-80101942D01*
X126117786Y-80251265D01*
X126083775Y-80353904D01*
X126057896Y-80398229D01*
X126016284Y-80428277D01*
X125966069Y-80438900D01*
X124038500Y-80438900D01*
X123976500Y-80422287D01*
X123931113Y-80376900D01*
X123914500Y-80314900D01*
X123914499Y-79374730D01*
X123914499Y-79374727D01*
X123908091Y-79315117D01*
X123895340Y-79280930D01*
X123887523Y-79237600D01*
X123895342Y-79194265D01*
X123908090Y-79160085D01*
X123908089Y-79160085D01*
X123908091Y-79160083D01*
X123914500Y-79100473D01*
X123914499Y-78104728D01*
X123908091Y-78045117D01*
X123895340Y-78010930D01*
X123887523Y-77967600D01*
X123895342Y-77924265D01*
X123908090Y-77890085D01*
X123908089Y-77890085D01*
X123908091Y-77890083D01*
X123914500Y-77830473D01*
X123914499Y-76890299D01*
X123931112Y-76828300D01*
X123976499Y-76782913D01*
X124038499Y-76766300D01*
X126345200Y-76766300D01*
X126352685Y-76766525D01*
X126413000Y-76770174D01*
X126472458Y-76759277D01*
X126479822Y-76758157D01*
X126539843Y-76750870D01*
X126549408Y-76747241D01*
X126571036Y-76741211D01*
X126581090Y-76739370D01*
X126623633Y-76720222D01*
X126674524Y-76709299D01*
X127324009Y-76709299D01*
X127375402Y-76704048D01*
X127426797Y-76698799D01*
X127593334Y-76643614D01*
X127742656Y-76551512D01*
X127836320Y-76457847D01*
X127891906Y-76425755D01*
X127956094Y-76425755D01*
X128011679Y-76457847D01*
G37*
%TD.AperFunction*%
%TA.AperFunction,Conductor*%
G36*
X126658409Y-70425739D02*
G01*
X126698637Y-70452619D01*
X130639924Y-74393906D01*
X130645058Y-74399360D01*
X130685132Y-74444595D01*
X130734860Y-74478918D01*
X130740888Y-74483353D01*
X130788475Y-74520636D01*
X130797803Y-74524834D01*
X130817354Y-74535860D01*
X130825773Y-74541671D01*
X130873288Y-74559691D01*
X130882277Y-74563100D01*
X130889198Y-74565967D01*
X130903936Y-74572600D01*
X130944310Y-74590771D01*
X130954361Y-74592612D01*
X130975982Y-74598638D01*
X130985557Y-74602270D01*
X131045571Y-74609556D01*
X131052939Y-74610677D01*
X131112400Y-74621574D01*
X131172714Y-74617925D01*
X131180200Y-74617700D01*
X131621529Y-74617700D01*
X131678786Y-74631711D01*
X131723102Y-74670574D01*
X131803505Y-74785401D01*
X131803508Y-74785404D01*
X131925430Y-74907326D01*
X131956726Y-74960072D01*
X131958915Y-75021365D01*
X131931462Y-75076209D01*
X131881083Y-75111189D01*
X131749669Y-75160204D01*
X131634454Y-75246454D01*
X131548204Y-75361668D01*
X131497909Y-75496516D01*
X131491500Y-75556131D01*
X131491500Y-75633100D01*
X131474887Y-75695100D01*
X131429500Y-75740487D01*
X131367500Y-75757100D01*
X130218844Y-75757100D01*
X130171391Y-75747661D01*
X130131163Y-75720781D01*
X130060818Y-75650436D01*
X130033938Y-75610208D01*
X130024499Y-75562755D01*
X130024499Y-75008791D01*
X130013999Y-74906003D01*
X129974035Y-74785400D01*
X129958814Y-74739466D01*
X129886098Y-74621574D01*
X129866711Y-74590142D01*
X129742657Y-74466088D01*
X129593334Y-74373986D01*
X129426797Y-74318800D01*
X129324009Y-74308300D01*
X128523991Y-74308300D01*
X128421203Y-74318800D01*
X128254665Y-74373986D01*
X128105342Y-74466088D01*
X128011681Y-74559750D01*
X127956094Y-74591844D01*
X127891906Y-74591844D01*
X127836319Y-74559750D01*
X127742657Y-74466088D01*
X127593334Y-74373986D01*
X127426797Y-74318800D01*
X127324009Y-74308300D01*
X126523991Y-74308300D01*
X126421203Y-74318800D01*
X126254665Y-74373986D01*
X126105342Y-74466088D01*
X125981288Y-74590142D01*
X125889186Y-74739465D01*
X125834000Y-74906002D01*
X125823500Y-75008791D01*
X125823500Y-75234900D01*
X125806887Y-75296900D01*
X125761500Y-75342287D01*
X125699500Y-75358900D01*
X124038500Y-75358900D01*
X123976500Y-75342287D01*
X123931113Y-75296900D01*
X123914500Y-75234900D01*
X123914499Y-74294730D01*
X123914499Y-74294728D01*
X123908091Y-74235117D01*
X123895340Y-74200931D01*
X123887523Y-74157600D01*
X123895342Y-74114265D01*
X123908090Y-74080085D01*
X123908089Y-74080085D01*
X123908091Y-74080083D01*
X123914500Y-74020473D01*
X123914499Y-73024728D01*
X123908091Y-72965117D01*
X123895340Y-72930931D01*
X123887523Y-72887600D01*
X123895342Y-72844265D01*
X123908090Y-72810085D01*
X123908089Y-72810085D01*
X123908091Y-72810083D01*
X123914500Y-72750473D01*
X123914499Y-71754728D01*
X123908091Y-71695117D01*
X123895340Y-71660930D01*
X123887523Y-71617599D01*
X123895342Y-71574265D01*
X123908090Y-71540085D01*
X123908089Y-71540085D01*
X123908091Y-71540083D01*
X123914500Y-71480473D01*
X123914499Y-70540299D01*
X123931112Y-70478300D01*
X123976499Y-70432913D01*
X124038499Y-70416300D01*
X126610956Y-70416300D01*
X126658409Y-70425739D01*
G37*
%TD.AperFunction*%
%TA.AperFunction,Conductor*%
G36*
X127100008Y-68209738D02*
G01*
X127140236Y-68236618D01*
X130757524Y-71853906D01*
X130762658Y-71859360D01*
X130802732Y-71904595D01*
X130852460Y-71938918D01*
X130858488Y-71943353D01*
X130906075Y-71980636D01*
X130915403Y-71984834D01*
X130934954Y-71995860D01*
X130943373Y-72001671D01*
X130978783Y-72015100D01*
X130999877Y-72023100D01*
X131006798Y-72025967D01*
X131061910Y-72050771D01*
X131071961Y-72052612D01*
X131093582Y-72058638D01*
X131103157Y-72062270D01*
X131163171Y-72069556D01*
X131170539Y-72070677D01*
X131230000Y-72081574D01*
X131290314Y-72077925D01*
X131297800Y-72077700D01*
X131621529Y-72077700D01*
X131678786Y-72091711D01*
X131723102Y-72130574D01*
X131803505Y-72245401D01*
X131970599Y-72412495D01*
X132156160Y-72542426D01*
X132195024Y-72586743D01*
X132209035Y-72644000D01*
X132195024Y-72701257D01*
X132156159Y-72745575D01*
X131970595Y-72875508D01*
X131803505Y-73042598D01*
X131723105Y-73157423D01*
X131678787Y-73196289D01*
X131621530Y-73210300D01*
X131498044Y-73210300D01*
X131450591Y-73200861D01*
X131410363Y-73173981D01*
X127469066Y-69232684D01*
X127463932Y-69227230D01*
X127423867Y-69182006D01*
X127384911Y-69155117D01*
X127374143Y-69147684D01*
X127368113Y-69143247D01*
X127320526Y-69105964D01*
X127311195Y-69101765D01*
X127291644Y-69090739D01*
X127283226Y-69084928D01*
X127226708Y-69063493D01*
X127219791Y-69060628D01*
X127164691Y-69035830D01*
X127154633Y-69033987D01*
X127133014Y-69027960D01*
X127123443Y-69024330D01*
X127063424Y-69017041D01*
X127056022Y-69015915D01*
X126996600Y-69005025D01*
X126936286Y-69008674D01*
X126928800Y-69008900D01*
X126184043Y-69008900D01*
X126127748Y-68995385D01*
X126083725Y-68957785D01*
X126061570Y-68904298D01*
X126066112Y-68846582D01*
X126096362Y-68797219D01*
X126656963Y-68236618D01*
X126697191Y-68209738D01*
X126744644Y-68200299D01*
X127052555Y-68200299D01*
X127100008Y-68209738D01*
G37*
%TD.AperFunction*%
%TA.AperFunction,Conductor*%
G36*
X103862384Y-69905911D02*
G01*
X103899984Y-69949934D01*
X103913500Y-70006229D01*
X103913500Y-70210469D01*
X103919909Y-70270085D01*
X103932658Y-70304267D01*
X103940476Y-70347599D01*
X103932659Y-70390930D01*
X103919909Y-70425115D01*
X103913500Y-70484730D01*
X103913500Y-71480469D01*
X103919909Y-71540085D01*
X103932658Y-71574267D01*
X103940476Y-71617599D01*
X103932659Y-71660930D01*
X103919909Y-71695115D01*
X103913500Y-71754731D01*
X103913500Y-72569442D01*
X103901421Y-72622825D01*
X103867536Y-72665808D01*
X103818448Y-72690016D01*
X103763719Y-72690732D01*
X103583848Y-72652500D01*
X103583846Y-72652500D01*
X103394554Y-72652500D01*
X103394552Y-72652500D01*
X103209397Y-72691855D01*
X103173536Y-72707822D01*
X103113372Y-72718161D01*
X103055565Y-72698538D01*
X103014127Y-72653711D01*
X102999100Y-72594543D01*
X102999100Y-70203899D01*
X103015713Y-70141899D01*
X103061100Y-70096512D01*
X103123100Y-70079899D01*
X103279609Y-70079899D01*
X103331002Y-70074649D01*
X103382397Y-70069399D01*
X103548934Y-70014214D01*
X103698256Y-69922112D01*
X103701816Y-69918551D01*
X103751178Y-69888300D01*
X103808895Y-69883756D01*
X103862384Y-69905911D01*
G37*
%TD.AperFunction*%
%TA.AperFunction,Conductor*%
G36*
X133562609Y-67007139D02*
G01*
X133602837Y-67034019D01*
X134387981Y-67819163D01*
X134414861Y-67859391D01*
X134424300Y-67906844D01*
X134424300Y-68590186D01*
X134408577Y-68650618D01*
X134365397Y-68695725D01*
X134305709Y-68714068D01*
X134244649Y-68700996D01*
X134197701Y-68659824D01*
X134179650Y-68609084D01*
X134179377Y-68609158D01*
X134178462Y-68605744D01*
X134176772Y-68600993D01*
X134176569Y-68598681D01*
X134115430Y-68370507D01*
X134015599Y-68156421D01*
X133880109Y-67962921D01*
X133713081Y-67795893D01*
X133519576Y-67660399D01*
X133305492Y-67560569D01*
X133092000Y-67503364D01*
X133092000Y-68960000D01*
X133075387Y-69022000D01*
X133030000Y-69067387D01*
X132968000Y-69084000D01*
X131511364Y-69084000D01*
X131568569Y-69297492D01*
X131668399Y-69511576D01*
X131803893Y-69705081D01*
X131970918Y-69872106D01*
X132156595Y-70002119D01*
X132195460Y-70046437D01*
X132209471Y-70103694D01*
X132195460Y-70160951D01*
X132156595Y-70205269D01*
X132015212Y-70304267D01*
X131990458Y-70321600D01*
X131970595Y-70335508D01*
X131803505Y-70502598D01*
X131723105Y-70617423D01*
X131678787Y-70656289D01*
X131621530Y-70670300D01*
X131615644Y-70670300D01*
X131568191Y-70660861D01*
X131527963Y-70633981D01*
X129477982Y-68584000D01*
X131511364Y-68584000D01*
X132592000Y-68584000D01*
X132592000Y-67503364D01*
X132591999Y-67503364D01*
X132378507Y-67560569D01*
X132164421Y-67660400D01*
X131970921Y-67795890D01*
X131803890Y-67962921D01*
X131668400Y-68156421D01*
X131568569Y-68370507D01*
X131511364Y-68583999D01*
X131511364Y-68584000D01*
X129477982Y-68584000D01*
X129297739Y-68403757D01*
X129264458Y-68343354D01*
X129268593Y-68274513D01*
X129308867Y-68218528D01*
X129372819Y-68192718D01*
X129401397Y-68189799D01*
X129567934Y-68134614D01*
X129717256Y-68042512D01*
X129841312Y-67918456D01*
X129933414Y-67769134D01*
X129988599Y-67602597D01*
X129999100Y-67499809D01*
X129999099Y-67121699D01*
X130015712Y-67059700D01*
X130061099Y-67014313D01*
X130123099Y-66997700D01*
X133515156Y-66997700D01*
X133562609Y-67007139D01*
G37*
%TD.AperFunction*%
%TD*%
M02*
