%TF.GenerationSoftware,KiCad,Pcbnew,7.0.1*%
%TF.CreationDate,2023-04-20T22:59:21+02:00*%
%TF.ProjectId,Laserdinges,4c617365-7264-4696-9e67-65732e6b6963,rev?*%
%TF.SameCoordinates,Original*%
%TF.FileFunction,Copper,L2,Bot*%
%TF.FilePolarity,Positive*%
%FSLAX46Y46*%
G04 Gerber Fmt 4.6, Leading zero omitted, Abs format (unit mm)*
G04 Created by KiCad (PCBNEW 7.0.1) date 2023-04-20 22:59:21*
%MOMM*%
%LPD*%
G01*
G04 APERTURE LIST*
%TA.AperFunction,ComponentPad*%
%ADD10C,2.032000*%
%TD*%
%TA.AperFunction,ComponentPad*%
%ADD11R,1.700000X1.700000*%
%TD*%
%TA.AperFunction,ComponentPad*%
%ADD12O,1.700000X1.700000*%
%TD*%
%TA.AperFunction,ComponentPad*%
%ADD13R,2.000000X4.600000*%
%TD*%
%TA.AperFunction,ComponentPad*%
%ADD14O,2.000000X4.200000*%
%TD*%
%TA.AperFunction,ComponentPad*%
%ADD15O,4.200000X2.000000*%
%TD*%
%TA.AperFunction,HeatsinkPad*%
%ADD16C,0.600000*%
%TD*%
%TA.AperFunction,ViaPad*%
%ADD17C,0.800000*%
%TD*%
%TA.AperFunction,Conductor*%
%ADD18C,0.406400*%
%TD*%
G04 APERTURE END LIST*
D10*
%TO.P,U4,1,IN-*%
%TO.N,Net-(J2-Pad2)*%
X84032800Y-83992400D03*
%TO.P,U4,2,IN-*%
X86572800Y-83992400D03*
%TO.P,U4,3,IN+*%
%TO.N,Net-(J2-Pad1)*%
X94700800Y-83992400D03*
%TO.P,U4,4,IN+*%
X97240800Y-83992400D03*
%TO.P,U4,5,OUT+*%
%TO.N,VDD*%
X97240800Y-65450400D03*
%TO.P,U4,6,OUT+*%
X94700800Y-65450400D03*
%TO.P,U4,7,OUT-*%
%TO.N,GND*%
X86572800Y-65450400D03*
%TO.P,U4,8,OUT-*%
X84032800Y-65450400D03*
%TD*%
D11*
%TO.P,SW5,1*%
%TO.N,+3.3V*%
X114554000Y-98552000D03*
D12*
%TO.P,SW5,2*%
%TO.N,GPIO18*%
X114554000Y-101092000D03*
%TD*%
D11*
%TO.P,U3,1,GND*%
%TO.N,GND*%
X132334000Y-91948000D03*
D12*
%TO.P,U3,2,+5V*%
%TO.N,VDD*%
X132334000Y-94488000D03*
%TO.P,U3,3,VRX*%
%TO.N,Net-(U3-VRX)*%
X132334000Y-97028000D03*
%TO.P,U3,4,VRY*%
%TO.N,Net-(U3-VRY)*%
X132334000Y-99568000D03*
%TO.P,U3,5,SW*%
%TO.N,unconnected-(U3-SW-Pad5)*%
X132334000Y-102108000D03*
%TD*%
D11*
%TO.P,SW3,1,A*%
%TO.N,Net-(SW3-A)*%
X105902200Y-100838000D03*
D12*
%TO.P,SW3,2,B*%
%TO.N,VDD*%
X105902200Y-98298000D03*
%TD*%
D11*
%TO.P,SW4,1*%
%TO.N,+3.3V*%
X110169400Y-98791200D03*
D12*
%TO.P,SW4,2*%
%TO.N,GPIO19*%
X110169400Y-101331200D03*
%TD*%
D13*
%TO.P,J2,1*%
%TO.N,Net-(J2-Pad1)*%
X86928400Y-91460000D03*
D14*
%TO.P,J2,2*%
%TO.N,Net-(J2-Pad2)*%
X80628400Y-91460000D03*
D15*
%TO.P,J2,3*%
%TO.N,N/C*%
X84028400Y-96260000D03*
%TD*%
D11*
%TO.P,SW6,1*%
%TO.N,+3.3V*%
X119126000Y-98552000D03*
D12*
%TO.P,SW6,2*%
%TO.N,GPIO21*%
X119126000Y-101092000D03*
%TD*%
D11*
%TO.P,U5,1,-*%
%TO.N,GND*%
X99279400Y-101112000D03*
D12*
%TO.P,U5,2,S*%
%TO.N,Net-(SW3-A)*%
X101819400Y-101112000D03*
%TD*%
D11*
%TO.P,J1,1,Pin_1*%
%TO.N,+3.3V*%
X132842000Y-76454000D03*
D12*
%TO.P,J1,2,Pin_2*%
%TO.N,RX0*%
X132842000Y-73914000D03*
%TO.P,J1,3,Pin_3*%
%TO.N,TX0*%
X132842000Y-71374000D03*
%TO.P,J1,4,Pin_4*%
%TO.N,GND*%
X132842000Y-68834000D03*
%TD*%
D16*
%TO.P,U1,39,GND*%
%TO.N,GND*%
X111709000Y-71210100D03*
X111709000Y-72735100D03*
X112471500Y-70447600D03*
X112471500Y-71972600D03*
X112471500Y-73497600D03*
X113234000Y-71210100D03*
X113234000Y-72735100D03*
X113996500Y-70447600D03*
X113996500Y-71972600D03*
X113996500Y-73497600D03*
X114759000Y-71210100D03*
X114759000Y-72735100D03*
%TD*%
D17*
%TO.N,GND*%
X130302000Y-103886000D03*
X112522000Y-101854000D03*
X116840000Y-101600000D03*
X120650000Y-95250000D03*
X119135600Y-92095000D03*
X115528800Y-92831600D03*
X135772600Y-84119400D03*
X82804000Y-92964000D03*
X103286000Y-71444800D03*
X121675600Y-99969000D03*
X107324600Y-91942600D03*
X90230400Y-103372600D03*
X128457400Y-70022400D03*
X80264000Y-79756000D03*
X128178000Y-86303800D03*
X81289600Y-68498400D03*
X130810000Y-97536000D03*
X137922000Y-65278000D03*
X111252000Y-66548000D03*
X102092200Y-86126000D03*
X124901400Y-84906800D03*
X126247600Y-78150400D03*
X116494000Y-76956600D03*
X92710000Y-88900000D03*
X126425400Y-71978200D03*
X113090400Y-71978200D03*
X90967000Y-75178600D03*
%TO.N,VDD*%
X99882400Y-92018800D03*
X97240800Y-67838000D03*
%TO.N,A5*%
X103590800Y-75508800D03*
X124418800Y-99410200D03*
%TO.N,A4*%
X128609800Y-99816600D03*
X103489200Y-73553000D03*
%TO.N,GPIO18*%
X120964400Y-74670600D03*
%TO.N,GPIO19*%
X120989800Y-73476800D03*
%TO.N,GPIO21*%
X120964400Y-71114600D03*
%TD*%
D18*
%TO.N,GPIO21*%
X119126000Y-100867600D02*
X119126000Y-101092000D01*
X122615400Y-97378200D02*
X119126000Y-100867600D01*
X122615400Y-72765600D02*
X122615400Y-97378200D01*
X120964400Y-71114600D02*
X122615400Y-72765600D01*
%TO.N,VDD*%
X99882400Y-92018800D02*
X99933200Y-91968000D01*
X99933200Y-70530400D02*
X97240800Y-67838000D01*
X99933200Y-91968000D02*
X99933200Y-70530400D01*
%TO.N,A5*%
X103133600Y-101924800D02*
X103133600Y-80284000D01*
X103590800Y-79826800D02*
X103590800Y-75508800D01*
X104048000Y-102839200D02*
X103133600Y-101924800D01*
X103133600Y-80284000D02*
X103590800Y-79826800D01*
X124418800Y-99410200D02*
X120989800Y-102839200D01*
X120989800Y-102839200D02*
X104048000Y-102839200D01*
%TO.N,A4*%
X97403600Y-104261600D02*
X124164800Y-104261600D01*
X95504000Y-102362000D02*
X97403600Y-104261600D01*
X95504000Y-99060000D02*
X95504000Y-102362000D01*
X124164800Y-104261600D02*
X128609800Y-99816600D01*
X103489200Y-73553000D02*
X101301700Y-75740500D01*
X101301700Y-75740500D02*
X101301700Y-85780603D01*
X102362000Y-88646000D02*
X102362000Y-92202000D01*
X102362000Y-92202000D02*
X95504000Y-99060000D01*
X101289000Y-85793303D02*
X101289000Y-87573000D01*
X101289000Y-87573000D02*
X102362000Y-88646000D01*
X101301700Y-85780603D02*
X101289000Y-85793303D01*
%TO.N,GPIO18*%
X116586000Y-97282000D02*
X116586000Y-98806000D01*
X116586000Y-98806000D02*
X114616800Y-100775200D01*
X121370800Y-92497200D02*
X116586000Y-97282000D01*
X120964400Y-74670600D02*
X121370800Y-75077000D01*
X121370800Y-75077000D02*
X121370800Y-92497200D01*
%TO.N,GPIO19*%
X112014000Y-100584000D02*
X111266800Y-101331200D01*
X117284500Y-92519500D02*
X112014000Y-97790000D01*
X112014000Y-97790000D02*
X112014000Y-100584000D01*
X120989800Y-73476800D02*
X117284500Y-77182100D01*
X117284500Y-77182100D02*
X117284500Y-92519500D01*
X111266800Y-101331200D02*
X110169400Y-101331200D01*
%TD*%
%TA.AperFunction,Conductor*%
%TO.N,GND*%
G36*
X102378785Y-93328326D02*
G01*
X102416385Y-93372349D01*
X102429900Y-93428644D01*
X102429900Y-99715842D01*
X102417112Y-99770686D01*
X102381386Y-99814218D01*
X102330091Y-99837459D01*
X102273807Y-99835617D01*
X102054807Y-99776936D01*
X101819400Y-99756340D01*
X101583992Y-99776936D01*
X101355736Y-99838097D01*
X101141570Y-99937965D01*
X100948001Y-100073503D01*
X100825685Y-100195819D01*
X100772939Y-100227114D01*
X100711646Y-100229303D01*
X100656801Y-100201850D01*
X100621822Y-100151471D01*
X100572752Y-100019911D01*
X100486588Y-99904811D01*
X100371489Y-99818647D01*
X100236775Y-99768402D01*
X100177224Y-99762000D01*
X99529400Y-99762000D01*
X99529400Y-102462000D01*
X100177224Y-102462000D01*
X100236775Y-102455597D01*
X100371489Y-102405352D01*
X100486588Y-102319188D01*
X100572752Y-102204089D01*
X100621822Y-102072528D01*
X100656801Y-102022149D01*
X100711646Y-101994696D01*
X100772939Y-101996885D01*
X100825685Y-102028181D01*
X100947999Y-102150495D01*
X101141570Y-102286035D01*
X101355737Y-102385903D01*
X101583992Y-102447063D01*
X101819400Y-102467659D01*
X102054808Y-102447063D01*
X102283063Y-102385903D01*
X102425478Y-102319493D01*
X102481765Y-102307937D01*
X102537220Y-102322996D01*
X102579929Y-102361434D01*
X102603005Y-102394866D01*
X102603006Y-102394867D01*
X102603007Y-102394868D01*
X102648230Y-102434932D01*
X102653684Y-102440066D01*
X103532724Y-103319106D01*
X103537858Y-103324560D01*
X103561878Y-103351673D01*
X103588708Y-103401324D01*
X103590753Y-103457724D01*
X103567591Y-103509188D01*
X103524019Y-103545057D01*
X103469063Y-103557900D01*
X97746445Y-103557900D01*
X97698992Y-103548461D01*
X97658764Y-103521581D01*
X96244019Y-102106837D01*
X96217139Y-102066609D01*
X96207700Y-102019156D01*
X96207700Y-101362000D01*
X97929400Y-101362000D01*
X97929400Y-102009824D01*
X97935802Y-102069375D01*
X97986047Y-102204089D01*
X98072211Y-102319188D01*
X98187310Y-102405352D01*
X98322024Y-102455597D01*
X98381576Y-102462000D01*
X99029400Y-102462000D01*
X99029400Y-101362000D01*
X97929400Y-101362000D01*
X96207700Y-101362000D01*
X96207700Y-100862000D01*
X97929400Y-100862000D01*
X99029400Y-100862000D01*
X99029400Y-99762000D01*
X98381576Y-99762000D01*
X98322024Y-99768402D01*
X98187310Y-99818647D01*
X98072211Y-99904811D01*
X97986047Y-100019910D01*
X97935802Y-100154624D01*
X97929400Y-100214176D01*
X97929400Y-100862000D01*
X96207700Y-100862000D01*
X96207700Y-99402844D01*
X96217139Y-99355391D01*
X96244019Y-99315163D01*
X102218219Y-93340963D01*
X102267582Y-93310713D01*
X102325298Y-93306171D01*
X102378785Y-93328326D01*
G37*
%TD.AperFunction*%
%TA.AperFunction,Conductor*%
G36*
X121860585Y-93150525D02*
G01*
X121898185Y-93194548D01*
X121911700Y-93250843D01*
X121911700Y-97035356D01*
X121902261Y-97082809D01*
X121875381Y-97123037D01*
X120688180Y-98310237D01*
X120638817Y-98340487D01*
X120581101Y-98345029D01*
X120527614Y-98322874D01*
X120490014Y-98278851D01*
X120476499Y-98222556D01*
X120476499Y-97654130D01*
X120476499Y-97654127D01*
X120470091Y-97594517D01*
X120419796Y-97459669D01*
X120333546Y-97344454D01*
X120218331Y-97258204D01*
X120083483Y-97207909D01*
X120023873Y-97201500D01*
X120023869Y-97201500D01*
X118228130Y-97201500D01*
X118168515Y-97207909D01*
X118033669Y-97258204D01*
X117918454Y-97344454D01*
X117832204Y-97459668D01*
X117781909Y-97594515D01*
X117781909Y-97594517D01*
X117775823Y-97651128D01*
X117775500Y-97654130D01*
X117775500Y-99449869D01*
X117776612Y-99460209D01*
X117781909Y-99509483D01*
X117832204Y-99644331D01*
X117918454Y-99759546D01*
X118033669Y-99845796D01*
X118126761Y-99880517D01*
X118165082Y-99894810D01*
X118215462Y-99929789D01*
X118242915Y-99984634D01*
X118240726Y-100045926D01*
X118209431Y-100098673D01*
X118087503Y-100220601D01*
X117951965Y-100414170D01*
X117852097Y-100628336D01*
X117790936Y-100856592D01*
X117770340Y-101092000D01*
X117790936Y-101327407D01*
X117818472Y-101430171D01*
X117852097Y-101555663D01*
X117951965Y-101769830D01*
X118071385Y-101940379D01*
X118093543Y-102003390D01*
X118079798Y-102068757D01*
X118034137Y-102117509D01*
X117969809Y-102135500D01*
X115710191Y-102135500D01*
X115645863Y-102117509D01*
X115600202Y-102068757D01*
X115586457Y-102003390D01*
X115608614Y-101940379D01*
X115728035Y-101769830D01*
X115827903Y-101555663D01*
X115889063Y-101327408D01*
X115909659Y-101092000D01*
X115889063Y-100856592D01*
X115872531Y-100794892D01*
X115831838Y-100643022D01*
X115831838Y-100578835D01*
X115863930Y-100523250D01*
X117065922Y-99321258D01*
X117071360Y-99316140D01*
X117072463Y-99315163D01*
X117116595Y-99276066D01*
X117150947Y-99226296D01*
X117155342Y-99220324D01*
X117192636Y-99172725D01*
X117196835Y-99163392D01*
X117207857Y-99143849D01*
X117213671Y-99135427D01*
X117235110Y-99078893D01*
X117237956Y-99072022D01*
X117262770Y-99016891D01*
X117264614Y-99006825D01*
X117270636Y-98985223D01*
X117274270Y-98975643D01*
X117281557Y-98915616D01*
X117282679Y-98908242D01*
X117293574Y-98848801D01*
X117289925Y-98788486D01*
X117289700Y-98781001D01*
X117289700Y-97624844D01*
X117299139Y-97577391D01*
X117326019Y-97537163D01*
X121700019Y-93163162D01*
X121749382Y-93132912D01*
X121807098Y-93128370D01*
X121860585Y-93150525D01*
G37*
%TD.AperFunction*%
%TA.AperFunction,Conductor*%
G36*
X113152385Y-97794725D02*
G01*
X113189985Y-97838748D01*
X113203500Y-97895043D01*
X113203500Y-99449869D01*
X113204612Y-99460209D01*
X113209909Y-99509483D01*
X113260204Y-99644331D01*
X113346454Y-99759546D01*
X113461669Y-99845796D01*
X113554761Y-99880517D01*
X113593082Y-99894810D01*
X113643462Y-99929789D01*
X113670915Y-99984634D01*
X113668726Y-100045926D01*
X113637431Y-100098673D01*
X113515503Y-100220601D01*
X113379965Y-100414170D01*
X113280097Y-100628336D01*
X113218936Y-100856592D01*
X113198340Y-101092000D01*
X113218936Y-101327407D01*
X113246472Y-101430171D01*
X113280097Y-101555663D01*
X113379965Y-101769830D01*
X113499385Y-101940379D01*
X113521543Y-102003390D01*
X113507798Y-102068757D01*
X113462137Y-102117509D01*
X113397809Y-102135500D01*
X111740563Y-102135500D01*
X111681617Y-102120593D01*
X111636843Y-102079457D01*
X111617007Y-102021982D01*
X111626878Y-101961986D01*
X111664082Y-101913896D01*
X111673358Y-101906626D01*
X111681116Y-101900549D01*
X111687110Y-101896137D01*
X111736866Y-101861795D01*
X111776956Y-101816541D01*
X111782059Y-101811121D01*
X112493922Y-101099258D01*
X112499360Y-101094140D01*
X112501776Y-101092000D01*
X112544595Y-101054066D01*
X112578947Y-101004296D01*
X112583342Y-100998324D01*
X112620636Y-100950725D01*
X112624835Y-100941392D01*
X112635857Y-100921849D01*
X112641671Y-100913427D01*
X112663110Y-100856893D01*
X112665956Y-100850022D01*
X112690770Y-100794891D01*
X112692614Y-100784825D01*
X112698636Y-100763223D01*
X112702270Y-100753643D01*
X112709557Y-100693616D01*
X112710679Y-100686242D01*
X112721574Y-100626801D01*
X112717925Y-100566486D01*
X112717700Y-100559001D01*
X112717700Y-98132844D01*
X112727139Y-98085391D01*
X112754019Y-98045163D01*
X112787555Y-98011626D01*
X112991820Y-97807361D01*
X113041182Y-97777112D01*
X113098898Y-97772570D01*
X113152385Y-97794725D01*
G37*
%TD.AperFunction*%
%TA.AperFunction,Conductor*%
G36*
X120276244Y-75278570D02*
G01*
X120332140Y-75314180D01*
X120358529Y-75343489D01*
X120451552Y-75411073D01*
X120511670Y-75454751D01*
X120548363Y-75471088D01*
X120593536Y-75491201D01*
X120632299Y-75518343D01*
X120658071Y-75558029D01*
X120667100Y-75604480D01*
X120667100Y-92154356D01*
X120657661Y-92201809D01*
X120630781Y-92242037D01*
X116106090Y-96766726D01*
X116100638Y-96771858D01*
X116055407Y-96811930D01*
X116021082Y-96861658D01*
X116016645Y-96867687D01*
X115979363Y-96915274D01*
X115975162Y-96924610D01*
X115964140Y-96944154D01*
X115958327Y-96952575D01*
X115936898Y-97009077D01*
X115934034Y-97015992D01*
X115909229Y-97071109D01*
X115907385Y-97081172D01*
X115901362Y-97102777D01*
X115897730Y-97112354D01*
X115890441Y-97172377D01*
X115889314Y-97179778D01*
X115883437Y-97211850D01*
X115857160Y-97268361D01*
X115806710Y-97304952D01*
X115744833Y-97312379D01*
X115687158Y-97288767D01*
X115646331Y-97258204D01*
X115511483Y-97207909D01*
X115451873Y-97201500D01*
X115451869Y-97201500D01*
X113897042Y-97201500D01*
X113840747Y-97187985D01*
X113796724Y-97150385D01*
X113774569Y-97096898D01*
X113779111Y-97039182D01*
X113809359Y-96989821D01*
X117764422Y-93034758D01*
X117769860Y-93029640D01*
X117815095Y-92989566D01*
X117849444Y-92939800D01*
X117853834Y-92933834D01*
X117891136Y-92886224D01*
X117895333Y-92876898D01*
X117906358Y-92857347D01*
X117912171Y-92848927D01*
X117933608Y-92792397D01*
X117936458Y-92785518D01*
X117961271Y-92730390D01*
X117963113Y-92720335D01*
X117969140Y-92698713D01*
X117972770Y-92689143D01*
X117980057Y-92629122D01*
X117981182Y-92621733D01*
X117992074Y-92562302D01*
X117991391Y-92551016D01*
X117988425Y-92501985D01*
X117988200Y-92494500D01*
X117988200Y-77524944D01*
X117997639Y-77477491D01*
X118024519Y-77437263D01*
X118552605Y-76909177D01*
X120152311Y-75309469D01*
X120209992Y-75276835D01*
X120276244Y-75278570D01*
G37*
%TD.AperFunction*%
%TA.AperFunction,Conductor*%
G36*
X102615676Y-75521570D02*
G01*
X102671663Y-75561690D01*
X102697605Y-75625496D01*
X102705126Y-75697057D01*
X102763620Y-75877084D01*
X102864783Y-76052303D01*
X102864366Y-76052543D01*
X102878864Y-76076201D01*
X102887100Y-76120638D01*
X102887100Y-79483956D01*
X102877661Y-79531409D01*
X102850783Y-79571634D01*
X102655593Y-79766823D01*
X102653691Y-79768726D01*
X102648240Y-79773857D01*
X102603005Y-79813933D01*
X102568682Y-79863658D01*
X102564245Y-79869687D01*
X102526963Y-79917274D01*
X102522762Y-79926610D01*
X102511740Y-79946154D01*
X102505927Y-79954575D01*
X102484498Y-80011077D01*
X102481634Y-80017992D01*
X102456829Y-80073109D01*
X102454985Y-80083172D01*
X102448962Y-80104777D01*
X102445330Y-80114354D01*
X102438041Y-80174377D01*
X102436914Y-80181778D01*
X102426025Y-80241197D01*
X102429674Y-80301514D01*
X102429900Y-80309000D01*
X102429900Y-87419355D01*
X102416385Y-87475650D01*
X102378785Y-87519673D01*
X102325298Y-87541828D01*
X102267582Y-87537286D01*
X102218219Y-87507036D01*
X102029019Y-87317837D01*
X102002139Y-87277609D01*
X101992700Y-87230156D01*
X101992700Y-85935261D01*
X101993604Y-85920317D01*
X101997253Y-85890259D01*
X101998380Y-85882850D01*
X102009275Y-85823403D01*
X102005626Y-85763078D01*
X102005400Y-85755591D01*
X102005400Y-76083344D01*
X102014839Y-76035891D01*
X102041719Y-75995663D01*
X102058694Y-75978687D01*
X102486605Y-75550775D01*
X102546917Y-75517516D01*
X102615676Y-75521570D01*
G37*
%TD.AperFunction*%
%TA.AperFunction,Conductor*%
G36*
X85253304Y-55510376D02*
G01*
X85298594Y-55554931D01*
X85315874Y-55616068D01*
X85350036Y-57700637D01*
X85370164Y-58928814D01*
X85430000Y-62580000D01*
X89790000Y-62580000D01*
X89852000Y-62596613D01*
X89897387Y-62642000D01*
X89914000Y-62704000D01*
X89914000Y-63082600D01*
X137914000Y-63082600D01*
X137914000Y-55618100D01*
X137930613Y-55556100D01*
X137976000Y-55510713D01*
X138038000Y-55494100D01*
X138467500Y-55494100D01*
X138529500Y-55510713D01*
X138574887Y-55556100D01*
X138591500Y-55618100D01*
X138591500Y-105254700D01*
X138574887Y-105316700D01*
X138529500Y-105362087D01*
X138467500Y-105378700D01*
X78162900Y-105378700D01*
X78100900Y-105362087D01*
X78055513Y-105316700D01*
X78038900Y-105254700D01*
X78038900Y-102999999D01*
X78994659Y-102999999D01*
X79013976Y-103196133D01*
X79071185Y-103384726D01*
X79110204Y-103457724D01*
X79164090Y-103558538D01*
X79289117Y-103710883D01*
X79441462Y-103835910D01*
X79615273Y-103928814D01*
X79803868Y-103986024D01*
X80000000Y-104005341D01*
X80196132Y-103986024D01*
X80384727Y-103928814D01*
X80558538Y-103835910D01*
X80710883Y-103710883D01*
X80835910Y-103558538D01*
X80928814Y-103384727D01*
X80986024Y-103196132D01*
X81005341Y-103000000D01*
X80986024Y-102803868D01*
X80928814Y-102615273D01*
X80835910Y-102441462D01*
X80710883Y-102289117D01*
X80558538Y-102164090D01*
X80476452Y-102120214D01*
X80384726Y-102071185D01*
X80196133Y-102013976D01*
X80000000Y-101994659D01*
X79803866Y-102013976D01*
X79615273Y-102071185D01*
X79441463Y-102164089D01*
X79289117Y-102289117D01*
X79164089Y-102441463D01*
X79071185Y-102615273D01*
X79013976Y-102803866D01*
X78994659Y-102999999D01*
X78038900Y-102999999D01*
X78038900Y-96384335D01*
X81427900Y-96384335D01*
X81468829Y-96629615D01*
X81549570Y-96864805D01*
X81549572Y-96864810D01*
X81667547Y-97082809D01*
X81667929Y-97083514D01*
X81767178Y-97211028D01*
X81820662Y-97279744D01*
X82003615Y-97448164D01*
X82210999Y-97583654D01*
X82211795Y-97584174D01*
X82234233Y-97594016D01*
X82439519Y-97684063D01*
X82680579Y-97745108D01*
X82754880Y-97751264D01*
X82866327Y-97760500D01*
X82866333Y-97760500D01*
X85190467Y-97760500D01*
X85190473Y-97760500D01*
X85291787Y-97752104D01*
X85376221Y-97745108D01*
X85617281Y-97684063D01*
X85845007Y-97584173D01*
X86053185Y-97448164D01*
X86236138Y-97279744D01*
X86388874Y-97083509D01*
X86507228Y-96864810D01*
X86587971Y-96629614D01*
X86628900Y-96384335D01*
X86628900Y-96135665D01*
X86587971Y-95890386D01*
X86507228Y-95655190D01*
X86388874Y-95436491D01*
X86388871Y-95436487D01*
X86388870Y-95436485D01*
X86236140Y-95240259D01*
X86236138Y-95240256D01*
X86053185Y-95071836D01*
X85845007Y-94935827D01*
X85845004Y-94935825D01*
X85719923Y-94880960D01*
X85617281Y-94835937D01*
X85376221Y-94774892D01*
X85376219Y-94774891D01*
X85376216Y-94774891D01*
X85190473Y-94759500D01*
X85190467Y-94759500D01*
X82866333Y-94759500D01*
X82866327Y-94759500D01*
X82680583Y-94774891D01*
X82680579Y-94774891D01*
X82680579Y-94774892D01*
X82439519Y-94835937D01*
X82439516Y-94835938D01*
X82439517Y-94835938D01*
X82211795Y-94935825D01*
X82073007Y-95026499D01*
X82003615Y-95071836D01*
X81901514Y-95165827D01*
X81820659Y-95240259D01*
X81667929Y-95436485D01*
X81549570Y-95655194D01*
X81468829Y-95890384D01*
X81427900Y-96135665D01*
X81427900Y-96384335D01*
X78038900Y-96384335D01*
X78038900Y-92622073D01*
X79127900Y-92622073D01*
X79143291Y-92807816D01*
X79143291Y-92807819D01*
X79143292Y-92807821D01*
X79204337Y-93048881D01*
X79248922Y-93150525D01*
X79304225Y-93276604D01*
X79304227Y-93276607D01*
X79440236Y-93484785D01*
X79608656Y-93667738D01*
X79608659Y-93667740D01*
X79804885Y-93820470D01*
X79804887Y-93820471D01*
X79804891Y-93820474D01*
X80023590Y-93938828D01*
X80258786Y-94019571D01*
X80504065Y-94060500D01*
X80752735Y-94060500D01*
X80998014Y-94019571D01*
X81233210Y-93938828D01*
X81451909Y-93820474D01*
X81468104Y-93807869D01*
X85427900Y-93807869D01*
X85434309Y-93867483D01*
X85484604Y-94002331D01*
X85570854Y-94117546D01*
X85686069Y-94203796D01*
X85820917Y-94254091D01*
X85880527Y-94260500D01*
X87976272Y-94260499D01*
X88035883Y-94254091D01*
X88170731Y-94203796D01*
X88285946Y-94117546D01*
X88372196Y-94002331D01*
X88422491Y-93867483D01*
X88428900Y-93807873D01*
X88428899Y-89112128D01*
X88422491Y-89052517D01*
X88372196Y-88917669D01*
X88285946Y-88802454D01*
X88170731Y-88716204D01*
X88035883Y-88665909D01*
X87976273Y-88659500D01*
X87976269Y-88659500D01*
X85880530Y-88659500D01*
X85820915Y-88665909D01*
X85686069Y-88716204D01*
X85570854Y-88802454D01*
X85484604Y-88917668D01*
X85434309Y-89052515D01*
X85434309Y-89052517D01*
X85429255Y-89099529D01*
X85427900Y-89112130D01*
X85427900Y-93807869D01*
X81468104Y-93807869D01*
X81648144Y-93667738D01*
X81816564Y-93484785D01*
X81952573Y-93276607D01*
X82052463Y-93048881D01*
X82113508Y-92807821D01*
X82123342Y-92689143D01*
X82128900Y-92622073D01*
X82128900Y-90297927D01*
X82113508Y-90112183D01*
X82113508Y-90112179D01*
X82052463Y-89871119D01*
X81952573Y-89643393D01*
X81816564Y-89435215D01*
X81648144Y-89252262D01*
X81626012Y-89235036D01*
X81451914Y-89099529D01*
X81451910Y-89099526D01*
X81451909Y-89099526D01*
X81233210Y-88981172D01*
X81233206Y-88981170D01*
X81233205Y-88981170D01*
X80998015Y-88900429D01*
X80752735Y-88859500D01*
X80504065Y-88859500D01*
X80258784Y-88900429D01*
X80023594Y-88981170D01*
X79804885Y-89099529D01*
X79608659Y-89252259D01*
X79440237Y-89435214D01*
X79304225Y-89643395D01*
X79204338Y-89871117D01*
X79143291Y-90112183D01*
X79127900Y-90297927D01*
X79127900Y-92622073D01*
X78038900Y-92622073D01*
X78038900Y-83992399D01*
X82511611Y-83992399D01*
X82530339Y-84230367D01*
X82586062Y-84462473D01*
X82677409Y-84683001D01*
X82802134Y-84886535D01*
X82863673Y-84958588D01*
X82957157Y-85068043D01*
X83138668Y-85223068D01*
X83342195Y-85347789D01*
X83423662Y-85381534D01*
X83562726Y-85439137D01*
X83636054Y-85456741D01*
X83794834Y-85494861D01*
X84032800Y-85513589D01*
X84270766Y-85494861D01*
X84502873Y-85439137D01*
X84723405Y-85347789D01*
X84926932Y-85223068D01*
X85108443Y-85068043D01*
X85208511Y-84950877D01*
X85250886Y-84918801D01*
X85302800Y-84907411D01*
X85354714Y-84918801D01*
X85397088Y-84950877D01*
X85497157Y-85068043D01*
X85678668Y-85223068D01*
X85882195Y-85347789D01*
X85963662Y-85381534D01*
X86102726Y-85439137D01*
X86176054Y-85456741D01*
X86334834Y-85494861D01*
X86572800Y-85513589D01*
X86810766Y-85494861D01*
X87042873Y-85439137D01*
X87263405Y-85347789D01*
X87466932Y-85223068D01*
X87648443Y-85068043D01*
X87803468Y-84886532D01*
X87928189Y-84683005D01*
X88019537Y-84462473D01*
X88075261Y-84230366D01*
X88093989Y-83992400D01*
X88093989Y-83992399D01*
X93179611Y-83992399D01*
X93198339Y-84230367D01*
X93254062Y-84462473D01*
X93345409Y-84683001D01*
X93470134Y-84886535D01*
X93531673Y-84958588D01*
X93625157Y-85068043D01*
X93806668Y-85223068D01*
X94010195Y-85347789D01*
X94091662Y-85381534D01*
X94230726Y-85439137D01*
X94304054Y-85456741D01*
X94462834Y-85494861D01*
X94700800Y-85513589D01*
X94938766Y-85494861D01*
X95170873Y-85439137D01*
X95391405Y-85347789D01*
X95594932Y-85223068D01*
X95776443Y-85068043D01*
X95876511Y-84950877D01*
X95918886Y-84918801D01*
X95970800Y-84907411D01*
X96022714Y-84918801D01*
X96065088Y-84950877D01*
X96165157Y-85068043D01*
X96346668Y-85223068D01*
X96550195Y-85347789D01*
X96631662Y-85381534D01*
X96770726Y-85439137D01*
X96844054Y-85456741D01*
X97002834Y-85494861D01*
X97240800Y-85513589D01*
X97478766Y-85494861D01*
X97710873Y-85439137D01*
X97931405Y-85347789D01*
X98134932Y-85223068D01*
X98316443Y-85068043D01*
X98471468Y-84886532D01*
X98596189Y-84683005D01*
X98687537Y-84462473D01*
X98743261Y-84230366D01*
X98761989Y-83992400D01*
X98743261Y-83754434D01*
X98687537Y-83522327D01*
X98596189Y-83301795D01*
X98471468Y-83098268D01*
X98316443Y-82916757D01*
X98206988Y-82823273D01*
X98134935Y-82761734D01*
X98134932Y-82761732D01*
X97931405Y-82637011D01*
X97931402Y-82637010D01*
X97931401Y-82637009D01*
X97710873Y-82545662D01*
X97478767Y-82489939D01*
X97240800Y-82471211D01*
X97002832Y-82489939D01*
X96770726Y-82545662D01*
X96550198Y-82637009D01*
X96346664Y-82761734D01*
X96165157Y-82916757D01*
X96065090Y-83033920D01*
X96022714Y-83065998D01*
X95970800Y-83077388D01*
X95918886Y-83065998D01*
X95876510Y-83033920D01*
X95849483Y-83002276D01*
X95776443Y-82916757D01*
X95666988Y-82823273D01*
X95594935Y-82761734D01*
X95594932Y-82761732D01*
X95391405Y-82637011D01*
X95391402Y-82637010D01*
X95391401Y-82637009D01*
X95170873Y-82545662D01*
X94938767Y-82489939D01*
X94700800Y-82471211D01*
X94462832Y-82489939D01*
X94230726Y-82545662D01*
X94010198Y-82637009D01*
X93806664Y-82761734D01*
X93625157Y-82916757D01*
X93470134Y-83098264D01*
X93345409Y-83301798D01*
X93254062Y-83522326D01*
X93198339Y-83754432D01*
X93179611Y-83992399D01*
X88093989Y-83992399D01*
X88075261Y-83754434D01*
X88019537Y-83522327D01*
X87928189Y-83301795D01*
X87803468Y-83098268D01*
X87648443Y-82916757D01*
X87538988Y-82823273D01*
X87466935Y-82761734D01*
X87466932Y-82761732D01*
X87263405Y-82637011D01*
X87263402Y-82637010D01*
X87263401Y-82637009D01*
X87042873Y-82545662D01*
X86810767Y-82489939D01*
X86572800Y-82471211D01*
X86334832Y-82489939D01*
X86102726Y-82545662D01*
X85882198Y-82637009D01*
X85678664Y-82761734D01*
X85497157Y-82916757D01*
X85397090Y-83033920D01*
X85354714Y-83065998D01*
X85302800Y-83077388D01*
X85250886Y-83065998D01*
X85208510Y-83033920D01*
X85181483Y-83002276D01*
X85108443Y-82916757D01*
X84998988Y-82823273D01*
X84926935Y-82761734D01*
X84926932Y-82761732D01*
X84723405Y-82637011D01*
X84723402Y-82637010D01*
X84723401Y-82637009D01*
X84502873Y-82545662D01*
X84270767Y-82489939D01*
X84032800Y-82471211D01*
X83794832Y-82489939D01*
X83562726Y-82545662D01*
X83342198Y-82637009D01*
X83138664Y-82761734D01*
X82957157Y-82916757D01*
X82802134Y-83098264D01*
X82677409Y-83301798D01*
X82586062Y-83522326D01*
X82530339Y-83754432D01*
X82511611Y-83992399D01*
X78038900Y-83992399D01*
X78038900Y-66687169D01*
X83149582Y-66687169D01*
X83342420Y-66805341D01*
X83562881Y-66896660D01*
X83794910Y-66952365D01*
X84032800Y-66971087D01*
X84270689Y-66952365D01*
X84502718Y-66896660D01*
X84723179Y-66805342D01*
X84916015Y-66687170D01*
X84916016Y-66687169D01*
X85689582Y-66687169D01*
X85882420Y-66805341D01*
X86102881Y-66896660D01*
X86334910Y-66952365D01*
X86572800Y-66971087D01*
X86810689Y-66952365D01*
X87042718Y-66896660D01*
X87263179Y-66805342D01*
X87456015Y-66687170D01*
X87456016Y-66687169D01*
X86572801Y-65803953D01*
X86572800Y-65803953D01*
X85689582Y-66687169D01*
X84916016Y-66687169D01*
X84032801Y-65803953D01*
X84032800Y-65803953D01*
X83149582Y-66687169D01*
X78038900Y-66687169D01*
X78038900Y-65450400D01*
X82512112Y-65450400D01*
X82530834Y-65688289D01*
X82586539Y-65920318D01*
X82677858Y-66140779D01*
X82796029Y-66333616D01*
X83679246Y-65450401D01*
X84386353Y-65450401D01*
X85269569Y-66333615D01*
X85288226Y-66331407D01*
X85317376Y-66331408D01*
X85336029Y-66333616D01*
X86219246Y-65450401D01*
X86926353Y-65450401D01*
X87809569Y-66333616D01*
X87809570Y-66333615D01*
X87927742Y-66140779D01*
X88019060Y-65920318D01*
X88074765Y-65688289D01*
X88093487Y-65450400D01*
X88093487Y-65450399D01*
X93179611Y-65450399D01*
X93198339Y-65688367D01*
X93254062Y-65920473D01*
X93345409Y-66141001D01*
X93470134Y-66344535D01*
X93531673Y-66416588D01*
X93625157Y-66526043D01*
X93806668Y-66681068D01*
X94010195Y-66805789D01*
X94091662Y-66839534D01*
X94230726Y-66897137D01*
X94299304Y-66913601D01*
X94462834Y-66952861D01*
X94700800Y-66971589D01*
X94938766Y-66952861D01*
X95170873Y-66897137D01*
X95391405Y-66805789D01*
X95594932Y-66681068D01*
X95776443Y-66526043D01*
X95876511Y-66408877D01*
X95918886Y-66376801D01*
X95970800Y-66365411D01*
X96022714Y-66376801D01*
X96065088Y-66408877D01*
X96165157Y-66526043D01*
X96346668Y-66681068D01*
X96550195Y-66805789D01*
X96714585Y-66873882D01*
X96765999Y-66913601D01*
X96790271Y-66973867D01*
X96780739Y-67038134D01*
X96740017Y-67088760D01*
X96634928Y-67165112D01*
X96508266Y-67305783D01*
X96413620Y-67469715D01*
X96355126Y-67649742D01*
X96335340Y-67838000D01*
X96355126Y-68026257D01*
X96413620Y-68206284D01*
X96508266Y-68370216D01*
X96634929Y-68510889D01*
X96788069Y-68622151D01*
X96903968Y-68673752D01*
X96960997Y-68699144D01*
X97110186Y-68730854D01*
X97143566Y-68743169D01*
X97172080Y-68764462D01*
X99193181Y-70785563D01*
X99220061Y-70825791D01*
X99229500Y-70873244D01*
X99229500Y-91350544D01*
X99221264Y-91394982D01*
X99197649Y-91433517D01*
X99149866Y-91486583D01*
X99055220Y-91650515D01*
X98996726Y-91830542D01*
X98976940Y-92018800D01*
X98996726Y-92207057D01*
X99055220Y-92387084D01*
X99149866Y-92551016D01*
X99276529Y-92691689D01*
X99429669Y-92802951D01*
X99602597Y-92879944D01*
X99787752Y-92919300D01*
X99787754Y-92919300D01*
X99977046Y-92919300D01*
X99977048Y-92919300D01*
X100100483Y-92893062D01*
X100162203Y-92879944D01*
X100335130Y-92802951D01*
X100435005Y-92730388D01*
X100488270Y-92691689D01*
X100490563Y-92689143D01*
X100614933Y-92551016D01*
X100709579Y-92387084D01*
X100768074Y-92207056D01*
X100787860Y-92018800D01*
X100768074Y-91830544D01*
X100709579Y-91650516D01*
X100709579Y-91650515D01*
X100653513Y-91553406D01*
X100636900Y-91491406D01*
X100636900Y-88215444D01*
X100650415Y-88159149D01*
X100688015Y-88115126D01*
X100741502Y-88092971D01*
X100799218Y-88097513D01*
X100848581Y-88127763D01*
X101621981Y-88901164D01*
X101648861Y-88941392D01*
X101658300Y-88988845D01*
X101658300Y-91859156D01*
X101648861Y-91906609D01*
X101621981Y-91946837D01*
X95024090Y-98544726D01*
X95018638Y-98549858D01*
X94973407Y-98589930D01*
X94939082Y-98639658D01*
X94934645Y-98645687D01*
X94897363Y-98693274D01*
X94893162Y-98702610D01*
X94882140Y-98722154D01*
X94876327Y-98730575D01*
X94854898Y-98787077D01*
X94852034Y-98793992D01*
X94827229Y-98849109D01*
X94825385Y-98859172D01*
X94819362Y-98880777D01*
X94815730Y-98890354D01*
X94808441Y-98950377D01*
X94807314Y-98957778D01*
X94796425Y-99017197D01*
X94800074Y-99077514D01*
X94800300Y-99085000D01*
X94800300Y-102337000D01*
X94800074Y-102344486D01*
X94796425Y-102404800D01*
X94807315Y-102464222D01*
X94808442Y-102471625D01*
X94815730Y-102531642D01*
X94819360Y-102541214D01*
X94825387Y-102562833D01*
X94827230Y-102572891D01*
X94852028Y-102627991D01*
X94854893Y-102634908D01*
X94876328Y-102691426D01*
X94882139Y-102699844D01*
X94893165Y-102719395D01*
X94897364Y-102728726D01*
X94934647Y-102776313D01*
X94939087Y-102782347D01*
X94973406Y-102832067D01*
X95018630Y-102872132D01*
X95024084Y-102877266D01*
X96888331Y-104741514D01*
X96893464Y-104746967D01*
X96933532Y-104792193D01*
X96933534Y-104792195D01*
X96975537Y-104821187D01*
X96983252Y-104826513D01*
X96989285Y-104830952D01*
X97011225Y-104848141D01*
X97036875Y-104868236D01*
X97046202Y-104872433D01*
X97065756Y-104883461D01*
X97074173Y-104889271D01*
X97130692Y-104910707D01*
X97137609Y-104913572D01*
X97180964Y-104933083D01*
X97192710Y-104938370D01*
X97202760Y-104940211D01*
X97224389Y-104946241D01*
X97233957Y-104949870D01*
X97276934Y-104955088D01*
X97293963Y-104957156D01*
X97301369Y-104958283D01*
X97360799Y-104969174D01*
X97421113Y-104965525D01*
X97428599Y-104965300D01*
X124139800Y-104965300D01*
X124147285Y-104965525D01*
X124207600Y-104969174D01*
X124267058Y-104958277D01*
X124274422Y-104957157D01*
X124334443Y-104949870D01*
X124344008Y-104946241D01*
X124365636Y-104940211D01*
X124375690Y-104938370D01*
X124375691Y-104938369D01*
X124375693Y-104938369D01*
X124430799Y-104913568D01*
X124437713Y-104910703D01*
X124494227Y-104889271D01*
X124502639Y-104883463D01*
X124522194Y-104872434D01*
X124531525Y-104868236D01*
X124579138Y-104830931D01*
X124585110Y-104826537D01*
X124634866Y-104792195D01*
X124674956Y-104746941D01*
X124680067Y-104741514D01*
X127313581Y-102107999D01*
X130978340Y-102107999D01*
X130998936Y-102343407D01*
X131032297Y-102467911D01*
X131060097Y-102571663D01*
X131159965Y-102785830D01*
X131295505Y-102979401D01*
X131462599Y-103146495D01*
X131656170Y-103282035D01*
X131870337Y-103381903D01*
X132098592Y-103443063D01*
X132334000Y-103463659D01*
X132569408Y-103443063D01*
X132797663Y-103381903D01*
X133011830Y-103282035D01*
X133205401Y-103146495D01*
X133351896Y-103000000D01*
X135494659Y-103000000D01*
X135513976Y-103196133D01*
X135571185Y-103384726D01*
X135610204Y-103457724D01*
X135664090Y-103558538D01*
X135789117Y-103710883D01*
X135941462Y-103835910D01*
X136115273Y-103928814D01*
X136303868Y-103986024D01*
X136500000Y-104005341D01*
X136696132Y-103986024D01*
X136884727Y-103928814D01*
X137058538Y-103835910D01*
X137210883Y-103710883D01*
X137335910Y-103558538D01*
X137428814Y-103384727D01*
X137486024Y-103196132D01*
X137505341Y-103000000D01*
X137486024Y-102803868D01*
X137428814Y-102615273D01*
X137335910Y-102441462D01*
X137210883Y-102289117D01*
X137058538Y-102164090D01*
X136976452Y-102120214D01*
X136884726Y-102071185D01*
X136696133Y-102013976D01*
X136500000Y-101994659D01*
X136303866Y-102013976D01*
X136115273Y-102071185D01*
X135941463Y-102164089D01*
X135789117Y-102289117D01*
X135664089Y-102441463D01*
X135571185Y-102615273D01*
X135513976Y-102803866D01*
X135494659Y-103000000D01*
X133351896Y-103000000D01*
X133372495Y-102979401D01*
X133508035Y-102785830D01*
X133607903Y-102571663D01*
X133669063Y-102343408D01*
X133689659Y-102108000D01*
X133669063Y-101872592D01*
X133607903Y-101644337D01*
X133508035Y-101430171D01*
X133372495Y-101236599D01*
X133205401Y-101069505D01*
X133019839Y-100939573D01*
X132980974Y-100895255D01*
X132966964Y-100837999D01*
X132980975Y-100780742D01*
X133019837Y-100736428D01*
X133205401Y-100606495D01*
X133372495Y-100439401D01*
X133508035Y-100245830D01*
X133607903Y-100031663D01*
X133669063Y-99803408D01*
X133689659Y-99568000D01*
X133669063Y-99332592D01*
X133607903Y-99104337D01*
X133508035Y-98890171D01*
X133372495Y-98696599D01*
X133205401Y-98529505D01*
X133019839Y-98399573D01*
X132980975Y-98355257D01*
X132966964Y-98298000D01*
X132980975Y-98240743D01*
X133019839Y-98196426D01*
X133205401Y-98066495D01*
X133372495Y-97899401D01*
X133508035Y-97705830D01*
X133607903Y-97491663D01*
X133669063Y-97263408D01*
X133689659Y-97028000D01*
X133669063Y-96792592D01*
X133607903Y-96564337D01*
X133508035Y-96350171D01*
X133372495Y-96156599D01*
X133205401Y-95989505D01*
X133019839Y-95859573D01*
X132980974Y-95815255D01*
X132966964Y-95757999D01*
X132980975Y-95700742D01*
X133019837Y-95656428D01*
X133205401Y-95526495D01*
X133372495Y-95359401D01*
X133508035Y-95165830D01*
X133607903Y-94951663D01*
X133669063Y-94723408D01*
X133689659Y-94488000D01*
X133669063Y-94252592D01*
X133607903Y-94024337D01*
X133508035Y-93810171D01*
X133372495Y-93616599D01*
X133250181Y-93494285D01*
X133218885Y-93441539D01*
X133216696Y-93380246D01*
X133244149Y-93325401D01*
X133294528Y-93290422D01*
X133426089Y-93241352D01*
X133541188Y-93155188D01*
X133627352Y-93040089D01*
X133677597Y-92905375D01*
X133684000Y-92845824D01*
X133684000Y-92198000D01*
X130984000Y-92198000D01*
X130984000Y-92845824D01*
X130990402Y-92905375D01*
X131040647Y-93040089D01*
X131126811Y-93155188D01*
X131241911Y-93241352D01*
X131373471Y-93290422D01*
X131423850Y-93325401D01*
X131451303Y-93380246D01*
X131449114Y-93441539D01*
X131417819Y-93494285D01*
X131295503Y-93616601D01*
X131159965Y-93810170D01*
X131060097Y-94024336D01*
X130998936Y-94252592D01*
X130978340Y-94487999D01*
X130998936Y-94723407D01*
X131029089Y-94835938D01*
X131060097Y-94951663D01*
X131159965Y-95165830D01*
X131295505Y-95359401D01*
X131462599Y-95526495D01*
X131648160Y-95656426D01*
X131687024Y-95700743D01*
X131701035Y-95758000D01*
X131687024Y-95815257D01*
X131648159Y-95859575D01*
X131462595Y-95989508D01*
X131295505Y-96156598D01*
X131159965Y-96350170D01*
X131060097Y-96564336D01*
X130998936Y-96792592D01*
X130978340Y-97028000D01*
X130998936Y-97263407D01*
X131041163Y-97421000D01*
X131060097Y-97491663D01*
X131159965Y-97705830D01*
X131295505Y-97899401D01*
X131462599Y-98066495D01*
X131648160Y-98196426D01*
X131687024Y-98240743D01*
X131701035Y-98298000D01*
X131687024Y-98355257D01*
X131648158Y-98399575D01*
X131473435Y-98521918D01*
X131462595Y-98529508D01*
X131295505Y-98696598D01*
X131159965Y-98890170D01*
X131060097Y-99104336D01*
X130998936Y-99332592D01*
X130978340Y-99567999D01*
X130998936Y-99803407D01*
X131035571Y-99940130D01*
X131060097Y-100031663D01*
X131159965Y-100245830D01*
X131295505Y-100439401D01*
X131462599Y-100606495D01*
X131648160Y-100736426D01*
X131687024Y-100780743D01*
X131701035Y-100838000D01*
X131687024Y-100895257D01*
X131648159Y-100939575D01*
X131632237Y-100950724D01*
X131484646Y-101054068D01*
X131462595Y-101069508D01*
X131295505Y-101236598D01*
X131159965Y-101430170D01*
X131060097Y-101644336D01*
X130998936Y-101872592D01*
X130978340Y-102107999D01*
X127313581Y-102107999D01*
X128678521Y-100743059D01*
X128707032Y-100721769D01*
X128740409Y-100709455D01*
X128889603Y-100677744D01*
X129062530Y-100600751D01*
X129119994Y-100559001D01*
X129215670Y-100489489D01*
X129342333Y-100348816D01*
X129436979Y-100184884D01*
X129442144Y-100168989D01*
X129495474Y-100004856D01*
X129515260Y-99816600D01*
X129495474Y-99628344D01*
X129456854Y-99509484D01*
X129436979Y-99448315D01*
X129342333Y-99284383D01*
X129215670Y-99143710D01*
X129062530Y-99032448D01*
X128889602Y-98955455D01*
X128704448Y-98916100D01*
X128704446Y-98916100D01*
X128515154Y-98916100D01*
X128515152Y-98916100D01*
X128329997Y-98955455D01*
X128157069Y-99032448D01*
X128003929Y-99143710D01*
X127877266Y-99284383D01*
X127782620Y-99448315D01*
X127724126Y-99628342D01*
X127719467Y-99672671D01*
X127708066Y-99713092D01*
X127683827Y-99747389D01*
X123909637Y-103521581D01*
X123869409Y-103548461D01*
X123821956Y-103557900D01*
X121568736Y-103557900D01*
X121513781Y-103545057D01*
X121470209Y-103509189D01*
X121447046Y-103457725D01*
X121449091Y-103401326D01*
X121475918Y-103351675D01*
X121499956Y-103324541D01*
X121505059Y-103319121D01*
X124487521Y-100336659D01*
X124516032Y-100315369D01*
X124549409Y-100303055D01*
X124698603Y-100271344D01*
X124871530Y-100194351D01*
X124926210Y-100154624D01*
X125024670Y-100083089D01*
X125151333Y-99942416D01*
X125245979Y-99778484D01*
X125289568Y-99644331D01*
X125304474Y-99598456D01*
X125324260Y-99410200D01*
X125304474Y-99221944D01*
X125256864Y-99075415D01*
X125245979Y-99041915D01*
X125151333Y-98877983D01*
X125024670Y-98737310D01*
X124871530Y-98626048D01*
X124698602Y-98549055D01*
X124513448Y-98509700D01*
X124513446Y-98509700D01*
X124324154Y-98509700D01*
X124324152Y-98509700D01*
X124138997Y-98549055D01*
X123966069Y-98626048D01*
X123812929Y-98737310D01*
X123686266Y-98877983D01*
X123591620Y-99041915D01*
X123533126Y-99221942D01*
X123528467Y-99266271D01*
X123517066Y-99306692D01*
X123492827Y-99340989D01*
X120734637Y-102099181D01*
X120694409Y-102126061D01*
X120646956Y-102135500D01*
X120282191Y-102135500D01*
X120217863Y-102117509D01*
X120172202Y-102068757D01*
X120158457Y-102003390D01*
X120180614Y-101940379D01*
X120300035Y-101769830D01*
X120399903Y-101555663D01*
X120461063Y-101327408D01*
X120481659Y-101092000D01*
X120461063Y-100856592D01*
X120410093Y-100666367D01*
X120410093Y-100602180D01*
X120442185Y-100546595D01*
X123095321Y-97893459D01*
X123100741Y-97888356D01*
X123145995Y-97848266D01*
X123180337Y-97798510D01*
X123184731Y-97792538D01*
X123222036Y-97744925D01*
X123226237Y-97735589D01*
X123237264Y-97716039D01*
X123243071Y-97707627D01*
X123264504Y-97651110D01*
X123267366Y-97644202D01*
X123278183Y-97620170D01*
X123292171Y-97589090D01*
X123294013Y-97579035D01*
X123300040Y-97557413D01*
X123303670Y-97547843D01*
X123310957Y-97487822D01*
X123312082Y-97480433D01*
X123322974Y-97421002D01*
X123319326Y-97360686D01*
X123319100Y-97353200D01*
X123319100Y-91698000D01*
X130984000Y-91698000D01*
X132084000Y-91698000D01*
X132084000Y-90598000D01*
X132584000Y-90598000D01*
X132584000Y-91698000D01*
X133684000Y-91698000D01*
X133684000Y-91050176D01*
X133677597Y-90990624D01*
X133627352Y-90855910D01*
X133541188Y-90740811D01*
X133426089Y-90654647D01*
X133291375Y-90604402D01*
X133231824Y-90598000D01*
X132584000Y-90598000D01*
X132084000Y-90598000D01*
X131436176Y-90598000D01*
X131376624Y-90604402D01*
X131241910Y-90654647D01*
X131126811Y-90740811D01*
X131040647Y-90855910D01*
X130990402Y-90990624D01*
X130984000Y-91050176D01*
X130984000Y-91698000D01*
X123319100Y-91698000D01*
X123319100Y-73914000D01*
X131486340Y-73914000D01*
X131506936Y-74149407D01*
X131542592Y-74282477D01*
X131568097Y-74377663D01*
X131667965Y-74591830D01*
X131803505Y-74785401D01*
X131803508Y-74785404D01*
X131925430Y-74907326D01*
X131956726Y-74960072D01*
X131958915Y-75021365D01*
X131931462Y-75076209D01*
X131881083Y-75111189D01*
X131749669Y-75160204D01*
X131634454Y-75246454D01*
X131548204Y-75361668D01*
X131497909Y-75496516D01*
X131491500Y-75556130D01*
X131491500Y-77351869D01*
X131497909Y-77411483D01*
X131548204Y-77546331D01*
X131634454Y-77661546D01*
X131749669Y-77747796D01*
X131884517Y-77798091D01*
X131944127Y-77804500D01*
X133739872Y-77804499D01*
X133799483Y-77798091D01*
X133934331Y-77747796D01*
X134049546Y-77661546D01*
X134135796Y-77546331D01*
X134186091Y-77411483D01*
X134192500Y-77351873D01*
X134192499Y-75556128D01*
X134186091Y-75496517D01*
X134135796Y-75361669D01*
X134049546Y-75246454D01*
X133934331Y-75160204D01*
X133872898Y-75137291D01*
X133802916Y-75111189D01*
X133752537Y-75076209D01*
X133725084Y-75021365D01*
X133727273Y-74960072D01*
X133758566Y-74907329D01*
X133880495Y-74785401D01*
X134016035Y-74591830D01*
X134115903Y-74377663D01*
X134177063Y-74149408D01*
X134197659Y-73914000D01*
X134192996Y-73860708D01*
X134177063Y-73678592D01*
X134140733Y-73543005D01*
X134115903Y-73450337D01*
X134016035Y-73236171D01*
X133880495Y-73042599D01*
X133713401Y-72875505D01*
X133527839Y-72745573D01*
X133488975Y-72701257D01*
X133474964Y-72644000D01*
X133488975Y-72586743D01*
X133527839Y-72542426D01*
X133713401Y-72412495D01*
X133880495Y-72245401D01*
X134016035Y-72051830D01*
X134115903Y-71837663D01*
X134177063Y-71609408D01*
X134197659Y-71374000D01*
X134177063Y-71138592D01*
X134115903Y-70910337D01*
X134016035Y-70696171D01*
X133880495Y-70502599D01*
X133713401Y-70335505D01*
X133527402Y-70205267D01*
X133488539Y-70160951D01*
X133474528Y-70103694D01*
X133488539Y-70046437D01*
X133527405Y-70002119D01*
X133713078Y-69872109D01*
X133880106Y-69705081D01*
X134015600Y-69511576D01*
X134115430Y-69297492D01*
X134172636Y-69084000D01*
X131511364Y-69084000D01*
X131568569Y-69297492D01*
X131668399Y-69511576D01*
X131803893Y-69705081D01*
X131970918Y-69872106D01*
X132156595Y-70002119D01*
X132195460Y-70046437D01*
X132209471Y-70103694D01*
X132195460Y-70160951D01*
X132156595Y-70205269D01*
X131970595Y-70335508D01*
X131803505Y-70502598D01*
X131667965Y-70696170D01*
X131568097Y-70910336D01*
X131506936Y-71138592D01*
X131486340Y-71373999D01*
X131506936Y-71609407D01*
X131516960Y-71646816D01*
X131568097Y-71837663D01*
X131667965Y-72051830D01*
X131803505Y-72245401D01*
X131970599Y-72412495D01*
X132156160Y-72542426D01*
X132195024Y-72586743D01*
X132209035Y-72644000D01*
X132195024Y-72701257D01*
X132156159Y-72745575D01*
X131970595Y-72875508D01*
X131803505Y-73042598D01*
X131667965Y-73236170D01*
X131568097Y-73450336D01*
X131506936Y-73678592D01*
X131486340Y-73914000D01*
X123319100Y-73914000D01*
X123319100Y-72790600D01*
X123319326Y-72783114D01*
X123321596Y-72745575D01*
X123322974Y-72722800D01*
X123312077Y-72663339D01*
X123310954Y-72655955D01*
X123306061Y-72615655D01*
X123303670Y-72595957D01*
X123300039Y-72586385D01*
X123294014Y-72564772D01*
X123292171Y-72554710D01*
X123267365Y-72499596D01*
X123264499Y-72492675D01*
X123263893Y-72491076D01*
X123243071Y-72436173D01*
X123237258Y-72427751D01*
X123226238Y-72408213D01*
X123222036Y-72398876D01*
X123184748Y-72351282D01*
X123180334Y-72345284D01*
X123145995Y-72295534D01*
X123100759Y-72255458D01*
X123095306Y-72250324D01*
X121890372Y-71045390D01*
X121866132Y-71011091D01*
X121854732Y-70970668D01*
X121850074Y-70926342D01*
X121791579Y-70746315D01*
X121696933Y-70582383D01*
X121570270Y-70441710D01*
X121417130Y-70330448D01*
X121244202Y-70253455D01*
X121059048Y-70214100D01*
X121059046Y-70214100D01*
X120869754Y-70214100D01*
X120869752Y-70214100D01*
X120684597Y-70253455D01*
X120511669Y-70330448D01*
X120358529Y-70441710D01*
X120231866Y-70582383D01*
X120137220Y-70746315D01*
X120078726Y-70926342D01*
X120058940Y-71114600D01*
X120078726Y-71302857D01*
X120137220Y-71482884D01*
X120231866Y-71646816D01*
X120358529Y-71787489D01*
X120511669Y-71898751D01*
X120627568Y-71950352D01*
X120684597Y-71975744D01*
X120833786Y-72007454D01*
X120867166Y-72019769D01*
X120895680Y-72041062D01*
X121228435Y-72373817D01*
X121260186Y-72428152D01*
X121261175Y-72491076D01*
X121231147Y-72546381D01*
X121177836Y-72579824D01*
X121114974Y-72582788D01*
X121084446Y-72576300D01*
X120895154Y-72576300D01*
X120895152Y-72576300D01*
X120709997Y-72615655D01*
X120537069Y-72692648D01*
X120383929Y-72803910D01*
X120257266Y-72944583D01*
X120162620Y-73108515D01*
X120104126Y-73288542D01*
X120099467Y-73332871D01*
X120088066Y-73373292D01*
X120063827Y-73407589D01*
X116804590Y-76666826D01*
X116799138Y-76671958D01*
X116753907Y-76712030D01*
X116719582Y-76761758D01*
X116715145Y-76767787D01*
X116677863Y-76815374D01*
X116673662Y-76824710D01*
X116662640Y-76844254D01*
X116656827Y-76852675D01*
X116635398Y-76909177D01*
X116632534Y-76916092D01*
X116607729Y-76971209D01*
X116605885Y-76981272D01*
X116599862Y-77002877D01*
X116596230Y-77012454D01*
X116588941Y-77072477D01*
X116587814Y-77079878D01*
X116576925Y-77139297D01*
X116580574Y-77199614D01*
X116580800Y-77207100D01*
X116580800Y-92176656D01*
X116571361Y-92224109D01*
X116544481Y-92264337D01*
X111534090Y-97274726D01*
X111528638Y-97279858D01*
X111483407Y-97319930D01*
X111449082Y-97369658D01*
X111444645Y-97375687D01*
X111407363Y-97423275D01*
X111405504Y-97427406D01*
X111367101Y-97475506D01*
X111310301Y-97499215D01*
X111249098Y-97492691D01*
X111126885Y-97447109D01*
X111107012Y-97444972D01*
X111067273Y-97440700D01*
X111067269Y-97440700D01*
X109271530Y-97440700D01*
X109211915Y-97447109D01*
X109077069Y-97497404D01*
X108961854Y-97583654D01*
X108875604Y-97698868D01*
X108825309Y-97833716D01*
X108818900Y-97893330D01*
X108818900Y-99689069D01*
X108825309Y-99748684D01*
X108835847Y-99776937D01*
X108875604Y-99883531D01*
X108961854Y-99998746D01*
X109077069Y-100084996D01*
X109189307Y-100126858D01*
X109208482Y-100134010D01*
X109258862Y-100168989D01*
X109286315Y-100223834D01*
X109284126Y-100285126D01*
X109252831Y-100337873D01*
X109130903Y-100459801D01*
X108995365Y-100653370D01*
X108895497Y-100867536D01*
X108834336Y-101095792D01*
X108813740Y-101331200D01*
X108834336Y-101566607D01*
X108855164Y-101644336D01*
X108895497Y-101794863D01*
X108972080Y-101959095D01*
X108983433Y-102019610D01*
X108964279Y-102078125D01*
X108919341Y-102120214D01*
X108859698Y-102135500D01*
X107290128Y-102135500D01*
X107224961Y-102116995D01*
X107179244Y-102067004D01*
X107166622Y-102000446D01*
X107190861Y-101937190D01*
X107195996Y-101930331D01*
X107246291Y-101795483D01*
X107252700Y-101735873D01*
X107252699Y-99940128D01*
X107246291Y-99880517D01*
X107195996Y-99745669D01*
X107109746Y-99630454D01*
X106994531Y-99544204D01*
X106901442Y-99509484D01*
X106863116Y-99495189D01*
X106812737Y-99460209D01*
X106785284Y-99405365D01*
X106787473Y-99344072D01*
X106818766Y-99291329D01*
X106940695Y-99169401D01*
X107076235Y-98975830D01*
X107176103Y-98761663D01*
X107237263Y-98533408D01*
X107257859Y-98298000D01*
X107237263Y-98062592D01*
X107176103Y-97834337D01*
X107076235Y-97620171D01*
X106940695Y-97426599D01*
X106773601Y-97259505D01*
X106580030Y-97123965D01*
X106365863Y-97024097D01*
X106304701Y-97007709D01*
X106137607Y-96962936D01*
X105902200Y-96942340D01*
X105666792Y-96962936D01*
X105438536Y-97024097D01*
X105224370Y-97123965D01*
X105030798Y-97259505D01*
X104863705Y-97426598D01*
X104728165Y-97620170D01*
X104628297Y-97834336D01*
X104567136Y-98062592D01*
X104546540Y-98298000D01*
X104567136Y-98533407D01*
X104609972Y-98693274D01*
X104628297Y-98761663D01*
X104728165Y-98975830D01*
X104863705Y-99169401D01*
X104863708Y-99169404D01*
X104985630Y-99291326D01*
X105016926Y-99344072D01*
X105019115Y-99405365D01*
X104991662Y-99460209D01*
X104941283Y-99495189D01*
X104809869Y-99544204D01*
X104694654Y-99630454D01*
X104608404Y-99745668D01*
X104558109Y-99880515D01*
X104558109Y-99880517D01*
X104551933Y-99937965D01*
X104551700Y-99940130D01*
X104551700Y-101735869D01*
X104555351Y-101769827D01*
X104558109Y-101795483D01*
X104608404Y-101930331D01*
X104613538Y-101937190D01*
X104637778Y-102000446D01*
X104625156Y-102067004D01*
X104579439Y-102116995D01*
X104514272Y-102135500D01*
X104390844Y-102135500D01*
X104343391Y-102126061D01*
X104303163Y-102099181D01*
X103873619Y-101669637D01*
X103846739Y-101629409D01*
X103837300Y-101581956D01*
X103837300Y-80626844D01*
X103846739Y-80579392D01*
X103873616Y-80539165D01*
X104070738Y-80342042D01*
X104076160Y-80336940D01*
X104121395Y-80296866D01*
X104155747Y-80247096D01*
X104160142Y-80241124D01*
X104197436Y-80193525D01*
X104201635Y-80184192D01*
X104212657Y-80164649D01*
X104218471Y-80156227D01*
X104239910Y-80099693D01*
X104242756Y-80092822D01*
X104267570Y-80037691D01*
X104269414Y-80027625D01*
X104275436Y-80006023D01*
X104279070Y-79996443D01*
X104286357Y-79936416D01*
X104287479Y-79929042D01*
X104298374Y-79869601D01*
X104294726Y-79809292D01*
X104294500Y-79801805D01*
X104294500Y-76120638D01*
X104302736Y-76076201D01*
X104317233Y-76052543D01*
X104316817Y-76052303D01*
X104417979Y-75877084D01*
X104417979Y-75877083D01*
X104476474Y-75697056D01*
X104496260Y-75508800D01*
X104476474Y-75320544D01*
X104442855Y-75217075D01*
X104417979Y-75140515D01*
X104323333Y-74976583D01*
X104196670Y-74835910D01*
X104043530Y-74724648D01*
X103870602Y-74647655D01*
X103820130Y-74636927D01*
X103764887Y-74609504D01*
X103729688Y-74558860D01*
X103723241Y-74497523D01*
X103747141Y-74440667D01*
X103795475Y-74402357D01*
X103941930Y-74337151D01*
X103941930Y-74337150D01*
X103941932Y-74337150D01*
X104095070Y-74225889D01*
X104105541Y-74214260D01*
X112108391Y-74214260D01*
X112122196Y-74222935D01*
X112292359Y-74282477D01*
X112471500Y-74302662D01*
X112650640Y-74282477D01*
X112820803Y-74222935D01*
X112834607Y-74214261D01*
X112834607Y-74214260D01*
X113633391Y-74214260D01*
X113647196Y-74222935D01*
X113817359Y-74282477D01*
X113996500Y-74302662D01*
X114175640Y-74282477D01*
X114345803Y-74222935D01*
X114359607Y-74214261D01*
X114359607Y-74214260D01*
X113996501Y-73851153D01*
X113996500Y-73851153D01*
X113633391Y-74214260D01*
X112834607Y-74214260D01*
X112471501Y-73851153D01*
X112471500Y-73851153D01*
X112108391Y-74214260D01*
X104105541Y-74214260D01*
X104221733Y-74085216D01*
X104316379Y-73921284D01*
X104339166Y-73851153D01*
X104374874Y-73741256D01*
X104394660Y-73553000D01*
X104384020Y-73451760D01*
X111345891Y-73451760D01*
X111359696Y-73460435D01*
X111529855Y-73519976D01*
X111572480Y-73524778D01*
X111624569Y-73543004D01*
X111663592Y-73582025D01*
X111681819Y-73634114D01*
X111686622Y-73676740D01*
X111746165Y-73846904D01*
X111754838Y-73860708D01*
X112117947Y-73497601D01*
X112117947Y-73497600D01*
X112825053Y-73497600D01*
X113188160Y-73860707D01*
X113220121Y-73857107D01*
X113247887Y-73857108D01*
X113279838Y-73860708D01*
X113642947Y-73497601D01*
X113642947Y-73497600D01*
X114350053Y-73497600D01*
X114713160Y-73860707D01*
X114713161Y-73860707D01*
X114721835Y-73846903D01*
X114781376Y-73676744D01*
X114786178Y-73634118D01*
X114804405Y-73582028D01*
X114843428Y-73543005D01*
X114895518Y-73524778D01*
X114938144Y-73519976D01*
X115108303Y-73460435D01*
X115122107Y-73451761D01*
X115122107Y-73451760D01*
X114759000Y-73088653D01*
X114350053Y-73497600D01*
X113642947Y-73497600D01*
X113234000Y-73088653D01*
X112825053Y-73497600D01*
X112117947Y-73497600D01*
X111709001Y-73088653D01*
X111709000Y-73088653D01*
X111345891Y-73451760D01*
X104384020Y-73451760D01*
X104374874Y-73364744D01*
X104316379Y-73184716D01*
X104316379Y-73184715D01*
X104221733Y-73020783D01*
X104095070Y-72880110D01*
X103941930Y-72768848D01*
X103866129Y-72735099D01*
X110903937Y-72735099D01*
X110924122Y-72914240D01*
X110983665Y-73084404D01*
X110992338Y-73098208D01*
X111355447Y-72735101D01*
X111355447Y-72735100D01*
X112062553Y-72735100D01*
X112471500Y-73144047D01*
X112880447Y-72735100D01*
X113587553Y-72735100D01*
X113996500Y-73144047D01*
X114405447Y-72735100D01*
X115112553Y-72735100D01*
X115475660Y-73098207D01*
X115475661Y-73098207D01*
X115484335Y-73084403D01*
X115543877Y-72914240D01*
X115564062Y-72735099D01*
X115543877Y-72555959D01*
X115484335Y-72385796D01*
X115475660Y-72371991D01*
X115112553Y-72735100D01*
X114405447Y-72735100D01*
X113996500Y-72326153D01*
X113587553Y-72735100D01*
X112880447Y-72735100D01*
X112471500Y-72326153D01*
X112062553Y-72735100D01*
X111355447Y-72735100D01*
X110992338Y-72371990D01*
X110992338Y-72371991D01*
X110983664Y-72385796D01*
X110924122Y-72555959D01*
X110903937Y-72735099D01*
X103866129Y-72735099D01*
X103769002Y-72691855D01*
X103583848Y-72652500D01*
X103583846Y-72652500D01*
X103394554Y-72652500D01*
X103394552Y-72652500D01*
X103209397Y-72691855D01*
X103036469Y-72768848D01*
X102883329Y-72880110D01*
X102756666Y-73020783D01*
X102662020Y-73184715D01*
X102603525Y-73364746D01*
X102598866Y-73409071D01*
X102587466Y-73449491D01*
X102563227Y-73483788D01*
X100848581Y-75198436D01*
X100799218Y-75228686D01*
X100741502Y-75233228D01*
X100688015Y-75211073D01*
X100650415Y-75167050D01*
X100636900Y-75110755D01*
X100636900Y-72018438D01*
X111345890Y-72018438D01*
X111708999Y-72381547D01*
X112117947Y-71972600D01*
X112825053Y-71972600D01*
X113234000Y-72381547D01*
X113642947Y-71972600D01*
X114350053Y-71972600D01*
X114759000Y-72381547D01*
X114759001Y-72381547D01*
X115122108Y-72018438D01*
X115118508Y-71986487D01*
X115118507Y-71958721D01*
X115122107Y-71926760D01*
X114759000Y-71563653D01*
X114350053Y-71972600D01*
X113642947Y-71972600D01*
X113234000Y-71563653D01*
X112825053Y-71972600D01*
X112117947Y-71972600D01*
X111709001Y-71563653D01*
X111709000Y-71563653D01*
X111345890Y-71926761D01*
X111349491Y-71958723D01*
X111349491Y-71986492D01*
X111345890Y-72018438D01*
X100636900Y-72018438D01*
X100636900Y-71210100D01*
X110903937Y-71210100D01*
X110924122Y-71389240D01*
X110983665Y-71559404D01*
X110992338Y-71573208D01*
X111355447Y-71210101D01*
X111355447Y-71210100D01*
X112062553Y-71210100D01*
X112471500Y-71619047D01*
X112880447Y-71210100D01*
X113587553Y-71210100D01*
X113996500Y-71619047D01*
X114405447Y-71210100D01*
X115112553Y-71210100D01*
X115475660Y-71573207D01*
X115475661Y-71573207D01*
X115484335Y-71559403D01*
X115543877Y-71389240D01*
X115564062Y-71210100D01*
X115543877Y-71030959D01*
X115484335Y-70860796D01*
X115475660Y-70846991D01*
X115112553Y-71210100D01*
X114405447Y-71210100D01*
X113996500Y-70801153D01*
X113587553Y-71210100D01*
X112880447Y-71210100D01*
X112471500Y-70801153D01*
X112062553Y-71210100D01*
X111355447Y-71210100D01*
X110992338Y-70846990D01*
X110992338Y-70846991D01*
X110983664Y-70860796D01*
X110924122Y-71030959D01*
X110903937Y-71210100D01*
X100636900Y-71210100D01*
X100636900Y-70555400D01*
X100637126Y-70547914D01*
X100640421Y-70493438D01*
X111345890Y-70493438D01*
X111708999Y-70856547D01*
X112117946Y-70447601D01*
X112825053Y-70447601D01*
X113233999Y-70856547D01*
X113642946Y-70447601D01*
X114350053Y-70447601D01*
X114759000Y-70856547D01*
X114759001Y-70856547D01*
X115122108Y-70493438D01*
X115108304Y-70484765D01*
X114938140Y-70425222D01*
X114895514Y-70420419D01*
X114843425Y-70402192D01*
X114804404Y-70363169D01*
X114786178Y-70311080D01*
X114781376Y-70268455D01*
X114721835Y-70098296D01*
X114713160Y-70084491D01*
X114350053Y-70447600D01*
X114350053Y-70447601D01*
X113642946Y-70447601D01*
X113642947Y-70447600D01*
X113279838Y-70084490D01*
X113247892Y-70088091D01*
X113220123Y-70088091D01*
X113188161Y-70084490D01*
X112825053Y-70447600D01*
X112825053Y-70447601D01*
X112117946Y-70447601D01*
X112117947Y-70447600D01*
X111754838Y-70084490D01*
X111754838Y-70084491D01*
X111746164Y-70098296D01*
X111686622Y-70268459D01*
X111681819Y-70311085D01*
X111663592Y-70363172D01*
X111624572Y-70402192D01*
X111572485Y-70420419D01*
X111529859Y-70425222D01*
X111359696Y-70484764D01*
X111345891Y-70493438D01*
X111345890Y-70493438D01*
X100640421Y-70493438D01*
X100640774Y-70487600D01*
X100629877Y-70428139D01*
X100628754Y-70420755D01*
X100628713Y-70420419D01*
X100621470Y-70360757D01*
X100617839Y-70351185D01*
X100611814Y-70329572D01*
X100609971Y-70319510D01*
X100585165Y-70264396D01*
X100582299Y-70257475D01*
X100562500Y-70205269D01*
X100560871Y-70200973D01*
X100555058Y-70192551D01*
X100544038Y-70173013D01*
X100539836Y-70163676D01*
X100502548Y-70116082D01*
X100498134Y-70110084D01*
X100463795Y-70060334D01*
X100418559Y-70020258D01*
X100413106Y-70015124D01*
X100128920Y-69730938D01*
X112108390Y-69730938D01*
X112471500Y-70094047D01*
X112471501Y-70094047D01*
X112834608Y-69730938D01*
X113633390Y-69730938D01*
X113996500Y-70094047D01*
X113996501Y-70094047D01*
X114359608Y-69730938D01*
X114345804Y-69722265D01*
X114175640Y-69662722D01*
X113996500Y-69642537D01*
X113817359Y-69662722D01*
X113647196Y-69722264D01*
X113633391Y-69730938D01*
X113633390Y-69730938D01*
X112834608Y-69730938D01*
X112820804Y-69722265D01*
X112650640Y-69662722D01*
X112471500Y-69642537D01*
X112292359Y-69662722D01*
X112122196Y-69722264D01*
X112108391Y-69730938D01*
X112108390Y-69730938D01*
X100128920Y-69730938D01*
X98981982Y-68584000D01*
X131511364Y-68584000D01*
X132592000Y-68584000D01*
X132592000Y-67503364D01*
X133092000Y-67503364D01*
X133092000Y-68584000D01*
X134172636Y-68584000D01*
X134172635Y-68583999D01*
X134115430Y-68370507D01*
X134015599Y-68156421D01*
X133880109Y-67962921D01*
X133713081Y-67795893D01*
X133519576Y-67660399D01*
X133305492Y-67560569D01*
X133092000Y-67503364D01*
X132592000Y-67503364D01*
X132591999Y-67503364D01*
X132378507Y-67560569D01*
X132164421Y-67660400D01*
X131970921Y-67795890D01*
X131803890Y-67962921D01*
X131668400Y-68156421D01*
X131568569Y-68370507D01*
X131511364Y-68583999D01*
X131511364Y-68584000D01*
X98981982Y-68584000D01*
X98166772Y-67768790D01*
X98142532Y-67734491D01*
X98131132Y-67694068D01*
X98126474Y-67649742D01*
X98067979Y-67469715D01*
X97973333Y-67305783D01*
X97846672Y-67165112D01*
X97741582Y-67088760D01*
X97700861Y-67038135D01*
X97691328Y-66973867D01*
X97715600Y-66913601D01*
X97767012Y-66873883D01*
X97931405Y-66805789D01*
X98134932Y-66681068D01*
X98316443Y-66526043D01*
X98471468Y-66344532D01*
X98596189Y-66141005D01*
X98687537Y-65920473D01*
X98743261Y-65688366D01*
X98761989Y-65450400D01*
X98743261Y-65212434D01*
X98687537Y-64980327D01*
X98596189Y-64759795D01*
X98471468Y-64556268D01*
X98316443Y-64374757D01*
X98206988Y-64281273D01*
X98134935Y-64219734D01*
X98134932Y-64219732D01*
X97931405Y-64095011D01*
X97931402Y-64095010D01*
X97931401Y-64095009D01*
X97710873Y-64003662D01*
X97478767Y-63947939D01*
X97240800Y-63929211D01*
X97002832Y-63947939D01*
X96770726Y-64003662D01*
X96550198Y-64095009D01*
X96346664Y-64219734D01*
X96165157Y-64374757D01*
X96065090Y-64491920D01*
X96022714Y-64523998D01*
X95970800Y-64535388D01*
X95918886Y-64523998D01*
X95876510Y-64491920D01*
X95849483Y-64460276D01*
X95776443Y-64374757D01*
X95666988Y-64281273D01*
X95594935Y-64219734D01*
X95594932Y-64219732D01*
X95391405Y-64095011D01*
X95391402Y-64095010D01*
X95391401Y-64095009D01*
X95170873Y-64003662D01*
X94938767Y-63947939D01*
X94700800Y-63929211D01*
X94462832Y-63947939D01*
X94230726Y-64003662D01*
X94010198Y-64095009D01*
X93806664Y-64219734D01*
X93625157Y-64374757D01*
X93470134Y-64556264D01*
X93345409Y-64759798D01*
X93254062Y-64980326D01*
X93198339Y-65212432D01*
X93179611Y-65450399D01*
X88093487Y-65450399D01*
X88074765Y-65212510D01*
X88019060Y-64980481D01*
X87927741Y-64760020D01*
X87809569Y-64567182D01*
X86926353Y-65450400D01*
X86926353Y-65450401D01*
X86219246Y-65450401D01*
X86219246Y-65450400D01*
X85336029Y-64567182D01*
X85317374Y-64569391D01*
X85288227Y-64569391D01*
X85269569Y-64567183D01*
X84386353Y-65450400D01*
X84386353Y-65450401D01*
X83679246Y-65450401D01*
X83679246Y-65450400D01*
X82796029Y-64567182D01*
X82677855Y-64760022D01*
X82586540Y-64980478D01*
X82530834Y-65212510D01*
X82512112Y-65450400D01*
X78038900Y-65450400D01*
X78038900Y-64213629D01*
X83149582Y-64213629D01*
X84032800Y-65096846D01*
X84032801Y-65096846D01*
X84916016Y-64213629D01*
X85689582Y-64213629D01*
X86572800Y-65096846D01*
X86572801Y-65096846D01*
X87456016Y-64213629D01*
X87263179Y-64095458D01*
X87042718Y-64004139D01*
X86810689Y-63948434D01*
X86572800Y-63929712D01*
X86334910Y-63948434D01*
X86102878Y-64004140D01*
X85882422Y-64095455D01*
X85689582Y-64213629D01*
X84916016Y-64213629D01*
X84723179Y-64095458D01*
X84502718Y-64004139D01*
X84270689Y-63948434D01*
X84032800Y-63929712D01*
X83794910Y-63948434D01*
X83562878Y-64004140D01*
X83342422Y-64095455D01*
X83149582Y-64213629D01*
X78038900Y-64213629D01*
X78038900Y-57999999D01*
X78994659Y-57999999D01*
X79013976Y-58196133D01*
X79071185Y-58384726D01*
X79071186Y-58384727D01*
X79164090Y-58558538D01*
X79289117Y-58710883D01*
X79441462Y-58835910D01*
X79615273Y-58928814D01*
X79803868Y-58986024D01*
X80000000Y-59005341D01*
X80196132Y-58986024D01*
X80384727Y-58928814D01*
X80558538Y-58835910D01*
X80710883Y-58710883D01*
X80835910Y-58558538D01*
X80928814Y-58384727D01*
X80986024Y-58196132D01*
X81005341Y-58000000D01*
X80986024Y-57803868D01*
X80928814Y-57615273D01*
X80835910Y-57441462D01*
X80710883Y-57289117D01*
X80558538Y-57164090D01*
X80536091Y-57152092D01*
X80384726Y-57071185D01*
X80196133Y-57013976D01*
X80000000Y-56994659D01*
X79803866Y-57013976D01*
X79615273Y-57071185D01*
X79441463Y-57164089D01*
X79289117Y-57289117D01*
X79164089Y-57441463D01*
X79071185Y-57615273D01*
X79013976Y-57803866D01*
X78994659Y-57999999D01*
X78038900Y-57999999D01*
X78038900Y-55618100D01*
X78055513Y-55556100D01*
X78100900Y-55510713D01*
X78162900Y-55494100D01*
X85191891Y-55494100D01*
X85253304Y-55510376D01*
G37*
%TD.AperFunction*%
%TD*%
M02*
